# MAAS exact compiled indexed mesh
# program_hash 1b770e3aad03a736e4c1d79e9efa202f4ca471319ccf6aeedf8d247e9418da98
# geometry_hash 2d98acc69db93b7d46b39cd04fb5a6bf117a66f418f379f7a5b858d4d7f0b0f7
v -17.42289622 -11.61526415 0
v -17.42289622 -11.61526415 3.69230769
v -15.2450342 -9.43740212 3.69230769
v -17.42289622 -2.17786203 0
v -15.2450342 -2.17786203 3.56923077
v -17.42289622 -2.17786203 3.69230769
v -15.2450342 -2.17786203 3.69230769
v -5.80763207 -9.43740212 3.69230769
v -2.90381604 -7.9854941 3.69230769
v -5.80763207 -2.17786203 3.56923077
v -1.45190802 -2.17786203 0
v -2.90381604 -2.17786203 3.56923077
v -1.45190802 -2.17786203 3.56923077
v -5.80763207 -4.35572406 7.13846154
v -5.80763207 -2.17786203 3.69230769
v -2.90381604 -4.35572406 7.13846154
v -2.90381604 -2.17786203 3.69230769
v -15.2450342 -9.43740212 7.26153846
v -10.16335613 -4.35572406 7.26153846
v -10.16335613 -4.35572406 10.83076923
v -5.80763207 -9.43740212 7.26153846
v -2.90381604 -7.9854941 7.26153846
v -5.80763207 -4.35572406 7.26153846
v -2.90381604 -4.35572406 7.26153846
v -2.90381604 -2.90381604 10.83076923
v -2.90381604 -2.90381604 14.4
v -15.2450342 0 3.56923077
v -12.34121816 0 0
v -12.34121816 0 3.56923077
v -12.34121816 0 3.69230769
v -10.16335613 0 7.13846154
v -10.16335613 5.08167807 7.13846154
v -12.34121816 10.16335613 0
v -12.34121816 10.16335613 3.69230769
v -5.80763207 0 3.56923077
v -1.45190802 0 0
v -2.90381604 0 3.56923077
v -1.45190802 0 3.56923077
v -5.80763207 0 3.69230769
v -5.80763207 0 7.13846154
v -7.9854941 2.90381604 3.69230769
v -7.9854941 2.90381604 7.13846154
v -7.9854941 5.08167807 7.13846154
v -2.90381604 0 3.69230769
v -2.90381604 2.90381604 3.69230769
v -2.90381604 2.90381604 7.13846154
v -7.9854941 10.16335613 3.56923077
v -7.9854941 11.61526415 3.56923077
v -7.9854941 10.16335613 3.69230769
v -15.2450342 0 7.26153846
v -10.16335613 0 7.26153846
v -10.16335613 5.08167807 10.83076923
v -7.9854941 5.08167807 7.26153846
v -2.90381604 4.35572406 10.83076923
v -2.90381604 4.35572406 14.4
v -7.9854941 11.61526415 7.26153846
v 1.45190802 -11.61526415 0
v 1.45190802 -6.53358608 0
v 1.45190802 -7.9854941 3.56923077
v 1.45190802 -6.53358608 3.56923077
v 6.53358608 -7.9854941 3.56923077
v 6.53358608 -6.53358608 3.56923077
v 1.45190802 -11.61526415 3.69230769
v 1.45190802 -7.9854941 3.69230769
v 6.53358608 -6.53358608 3.69230769
v 6.53358608 -2.90381604 3.69230769
v 17.42289622 -6.53358608 0
v 17.42289622 -6.53358608 3.69230769
v 15.97098821 -2.90381604 3.69230769
v 6.53358608 -7.9854941 7.26153846
v 4.35572406 -4.35572406 7.26153846
v 4.35572406 -2.90381604 10.70769231
v 6.53358608 -2.90381604 7.26153846
v 6.53358608 -2.90381604 10.70769231
v 4.35572406 -4.35572406 10.83076923
v 4.35572406 -2.90381604 10.83076923
v 6.53358608 -2.90381604 14.4
v 15.97098821 -2.90381604 7.26153846
v 1.65932345 3.62977005 0
v 5.2890935 0 0
v 2.17786203 5.08167807 3.69230769
v 2.17786203 5.08167807 7.13846154
v 2.90381604 5.08167807 7.13846154
v 6.53358608 5.08167807 3.69230769
v 6.53358608 5.08167807 7.13846154
v 2.17786203 10.16335613 3.56923077
v 2.17786203 11.61526415 3.56923077
v 2.17786203 10.16335613 3.69230769
v 2.90381604 9.43740212 7.13846154
v 6.53358608 7.25954009 3.69230769
v 6.53358608 7.25954009 7.13846154
v 9.43740212 3.62977005 0
v 9.43740212 3.62977005 3.56923077
v 17.42289622 3.62977005 0
v 15.97098821 3.62977005 3.56923077
v 15.97098821 3.62977005 3.69230769
v 17.42289622 3.62977005 3.69230769
v 9.43740212 7.25954009 3.56923077
v 9.43740212 10.16335613 0
v 15.97098821 7.25954009 3.56923077
v 9.43740212 7.25954009 3.69230769
v 11.61526415 7.25954009 7.13846154
v 9.43740212 10.16335613 3.69230769
v 11.61526415 9.43740212 7.13846154
v 4.35572406 0.72595401 7.26153846
v 4.35572406 0.72595401 10.70769231
v 2.17786203 5.08167807 7.26153846
v 6.53358608 0.72595401 7.26153846
v 6.53358608 0.72595401 10.70769231
v 2.90381604 4.35572406 10.83076923
v 2.90381604 5.08167807 10.83076923
v 6.53358608 0.72595401 10.83076923
v 6.53358608 4.35572406 10.83076923
v 6.53358608 4.35572406 14.4
v 2.17786203 11.61526415 7.26153846
v 2.90381604 9.43740212 10.83076923
v 11.61526415 0.72595401 7.26153846
v 11.61526415 0.72595401 10.83076923
v 11.61526415 7.25954009 7.26153846
v 15.97098821 7.25954009 7.26153846
v 11.61526415 9.43740212 10.83076923
f 1 2 6
f 1 57 2
f 1 4 57
f 2 3 7
f 2 8 3
f 1 6 4
f 4 6 5
f 4 5 10
f 2 7 6
f 5 6 7
f 2 57 63
f 4 58 57
f 2 63 8
f 8 63 9
f 9 63 64
f 8 9 17
f 4 11 58
f 4 10 11
f 10 12 11
f 11 12 13
f 8 17 15
f 10 15 12
f 12 15 17
f 57 58 59
f 57 59 63
f 58 60 59
f 59 64 63
f 28 33 36
f 28 29 34
f 30 39 41
f 29 30 34
f 30 41 34
f 28 34 33
f 33 34 47
f 34 41 49
f 34 49 47
f 28 36 29
f 29 36 35
f 35 36 37
f 36 38 37
f 33 79 36
f 35 44 39
f 39 45 41
f 35 37 44
f 39 44 45
f 33 47 86
f 33 99 79
f 33 86 103
f 36 79 80
f 79 99 92
f 81 84 90
f 33 103 99
f 81 103 88
f 81 90 103
f 90 101 103
f 86 88 103
f 92 98 93
f 92 99 103
f 92 103 98
f 98 103 101
f 11 38 36
f 11 13 38
f 58 67 60
f 60 67 62
f 11 80 58
f 11 36 80
f 58 80 67
f 62 67 68
f 62 68 65
f 67 94 68
f 67 80 94
f 65 68 66
f 66 68 69
f 68 97 69
f 79 92 80
f 80 92 94
f 92 93 95
f 68 94 97
f 92 97 94
f 92 95 97
f 69 97 96
f 95 96 97
f 3 18 7
f 3 8 21
f 3 21 18
f 5 27 10
f 10 27 29
f 7 18 50
f 5 7 27
f 7 50 27
f 8 15 21
f 10 29 35
f 15 35 21
f 21 35 39
f 14 21 39
f 10 35 15
f 14 39 40
f 18 21 50
f 19 50 21
f 19 51 50
f 19 21 23
f 14 23 21
f 27 30 29
f 27 50 31
f 27 40 30
f 27 31 40
f 30 40 39
f 31 50 51
f 66 69 78
f 66 78 73
f 69 96 78
f 73 117 108
f 73 78 117
f 84 85 91
f 84 91 90
f 90 91 102
f 93 100 95
f 78 96 100
f 95 100 96
f 78 100 120
f 93 98 100
f 90 102 101
f 98 101 100
f 101 102 120
f 100 101 120
f 120 119 117
f 78 120 117
f 120 102 119
f 41 45 42
f 41 42 43
f 42 45 46
f 47 48 86
f 48 87 86
f 41 43 49
f 47 49 48
f 48 49 56
f 43 56 49
f 48 56 115
f 48 115 87
f 43 53 56
f 53 107 56
f 56 107 115
f 81 88 82
f 82 88 107
f 87 107 88
f 86 87 88
f 87 115 107
f 9 22 17
f 9 64 22
f 12 37 38
f 12 38 13
f 16 17 22
f 12 17 44
f 12 44 37
f 16 46 17
f 16 22 24
f 17 46 44
f 44 46 45
f 59 60 61
f 60 62 61
f 22 64 61
f 59 61 64
f 22 61 70
f 61 65 70
f 61 62 65
f 65 66 70
f 66 73 70
f 22 70 24
f 24 70 71
f 70 73 71
f 71 73 105
f 73 108 105
f 81 82 83
f 81 83 85
f 81 85 84
f 25 76 26
f 25 26 55
f 25 55 54
f 72 74 76
f 72 109 74
f 72 106 109
f 74 109 112
f 26 76 74
f 26 74 77
f 26 77 55
f 74 112 77
f 55 77 114
f 54 114 110
f 54 55 114
f 77 112 113
f 77 113 114
f 114 113 110
f 14 16 23
f 14 40 16
f 16 40 46
f 19 20 51
f 19 23 20
f 20 23 24
f 16 24 23
f 20 24 75
f 20 25 52
f 20 75 25
f 31 51 32
f 31 32 42
f 32 43 42
f 32 53 43
f 31 42 40
f 40 42 46
f 20 52 51
f 32 51 52
f 32 111 53
f 32 52 111
f 53 111 107
f 25 54 52
f 52 54 111
f 24 71 75
f 71 72 75
f 72 76 75
f 71 105 106
f 71 106 72
f 25 75 76
f 82 107 83
f 107 111 83
f 54 110 111
f 89 85 83
f 89 91 85
f 89 104 91
f 104 102 91
f 104 119 102
f 106 105 108
f 109 106 108
f 118 109 108
f 118 112 109
f 111 110 113
f 118 113 112
f 116 113 118
f 89 83 111
f 89 111 116
f 89 121 104
f 89 116 121
f 116 111 113
f 116 118 121
f 118 108 117
f 118 117 119
f 118 119 104
f 118 104 121
