# MAAS exact compiled indexed mesh
# program_hash ed5780bedae05f211d935e06b545c8a7c2a5e299d200ff3d4b23a15bf7d27886
# geometry_hash 2312a1fddf9dcd96d825a3198a87ff543695f5f182813d8e4c32185ede5e7156
v -9.13604616 -9.61251641 0.00164967
v -2.55875065 -9.61251641 7.09523095
v -2.55875065 -0.60345783 6.99881655
v -2.55875065 -0.63815274 7.09523095
v -2.55875065 -0.27482296 7.09523095
v -9.13604616 -9.61251641 16.49835033
v -2.55875065 -9.61251641 9.40476905
v -2.55875065 -1.39387298 9.1953178
v -2.55875065 -0.67994456 9.40476905
v -9.13604616 8.65774888 0.00164967
v -2.55875065 0.61883216 7.09523095
v -2.55875065 0.61883216 7.35741015
v -9.13604616 8.65774888 16.49835033
v -2.55875065 8.65774888 9.71585545
v -2.55875065 8.16295719 11.99908627
v -2.55875065 8.65774888 10.62409925
v 9.13421913 -9.61251641 0.00164967
v 9.13421913 -9.61251641 7.09523095
v 9.13421913 -0.60345783 6.99881655
v 9.13421913 -0.63815274 7.09523095
v 9.13421913 -0.27482296 7.09523095
v 9.13421913 -9.61251641 9.40476905
v 9.13421913 -9.61251641 16.49835033
v 9.13421913 -0.67994456 9.40476905
v 4.56665281 4.09018256 0.00164967
v 4.56665281 7.7144384 0.00164967
v 4.36109295 8.35034785 0
v 4.36109295 8.35034785 0.00164967
v 4.56665281 8.41679576 0.00164967
v 4.56665281 8.65774888 0.00164967
v 5.03254457 4.08835553 0
v 5.03254457 4.09018256 0.00164967
v 5.03254457 4.08835553 0.00164967
v 9.13604616 4.08835553 0
v 9.13421913 4.08835553 0.00164967
v 9.13421913 0.61883216 7.09523095
v 9.13421913 0.61883216 7.35741015
v 5.03254457 6.2731795 0.00164967
v 5.03254457 6.2731795 0
v 5.2673743 6.24316786 0
v 5.67200386 6.37396572 0.00164967
v 5.67200386 6.37396572 0
v 6.31146314 6.37396572 0.00164967
v 6.31146314 6.58067308 0.00164967
v 5.31205306 8.65774888 0.00164967
v 9.13604616 6.37396572 0
v 8.96811431 7.43944446 0
v 8.26566261 9.61251306 0
v 4.56665281 4.09018256 8.37582971
v 4.56665281 4.09018256 10.80422177
v 4.56665281 4.09018256 16.49835033
v 4.56665281 7.7144384 9.43910844
v 4.36109295 8.35034785 9.6256706
v 4.56665281 8.41679576 9.64516499
v 4.56665281 8.65774888 9.71585545
v 4.56665281 7.7144384 11.8675005
v 4.36109295 8.35034785 11.47834244
v 4.42166761 8.16295719 11.99908627
v 4.56665281 8.65774888 10.62409925
v 4.56665281 8.41679576 11.29368895
v 4.56665281 7.7144384 16.49835033
v 4.36109295 8.35034785 16.5
v 4.36109295 8.35034785 16.49835033
v 4.56665281 8.41679576 16.49835033
v 4.56665281 8.65774888 16.49835033
v 5.03254457 4.09018256 8.37582971
v 5.03254457 4.08835553 8.3752937
v 5.03254457 4.08835553 10.80368576
v 5.03254457 4.09018256 10.80422177
v 9.13421913 4.08835553 8.3752937
v 9.13421913 4.08835553 10.80368576
v 5.03254457 4.08835553 16.5
v 5.03254457 4.08835553 16.49835033
v 5.03254457 4.09018256 16.49835033
v 9.13604616 4.08835553 16.5
v 9.13421913 4.08835553 16.49835033
v 5.03254457 6.2731795 9.01627407
v 5.67200386 6.37396572 9.04584258
v 6.31146314 6.37396572 9.04584258
v 6.31146314 6.58067308 9.10648608
v 5.03254457 6.2731795 11.44466613
v 5.67200386 6.37396572 11.47423464
v 6.31146314 6.37396572 11.47423464
v 6.31146314 6.58067308 11.53487814
v 5.31205306 8.65774888 9.71585545
v 5.31205306 8.65774888 10.62409925
v 5.03254457 6.2731795 16.49835033
v 5.03254457 6.2731795 16.5
v 5.2673743 6.24316786 16.5
v 5.67200386 6.37396572 16.49835033
v 5.67200386 6.37396572 16.5
v 6.31146314 6.37396572 16.49835033
v 6.31146314 6.58067308 16.49835033
v 5.31205306 8.65774888 16.49835033
v 9.13604616 6.37396572 16.5
v 8.96811431 7.43944446 16.5
v 8.26566261 9.61251306 16.5
f 1 2 7
f 1 17 2
f 1 10 17
f 1 7 6
f 1 6 13
f 6 7 22
f 6 23 13
f 1 13 10
f 10 14 30
f 10 26 25
f 10 28 26
f 10 29 28
f 10 30 29
f 10 13 14
f 13 16 14
f 13 65 16
f 13 51 61
f 13 61 63
f 13 63 64
f 13 64 65
f 2 17 18
f 17 19 18
f 17 25 33
f 17 33 35
f 17 35 36
f 17 21 19
f 17 36 21
f 18 19 20
f 6 22 23
f 22 24 23
f 23 73 51
f 23 24 76
f 23 76 73
f 10 25 17
f 14 55 30
f 25 32 33
f 36 70 37
f 36 35 70
f 13 23 51
f 16 65 59
f 24 71 76
f 51 73 74
f 25 26 32
f 38 32 26
f 41 44 43
f 45 29 30
f 45 30 55
f 45 55 85
f 87 51 74
f 87 61 51
f 90 92 93
f 86 59 65
f 86 65 94
f 94 65 64
f 2 4 8
f 2 8 7
f 7 8 9
f 5 11 12
f 2 18 4
f 4 18 20
f 7 9 22
f 9 24 22
f 5 21 11
f 11 36 12
f 11 21 36
f 12 36 37
f 4 9 8
f 4 3 15
f 4 15 9
f 3 5 15
f 5 12 15
f 9 15 50
f 12 14 15
f 14 16 15
f 12 55 14
f 16 58 15
f 4 20 3
f 3 19 5
f 3 20 19
f 5 19 21
f 12 37 49
f 37 67 49
f 37 70 67
f 12 49 52
f 9 50 24
f 12 52 53
f 12 53 55
f 15 56 50
f 16 57 58
f 15 58 56
f 16 59 60
f 16 60 57
f 55 53 54
f 49 67 66
f 50 69 68
f 24 50 68
f 24 68 71
f 77 49 66
f 77 52 49
f 78 79 80
f 50 56 69
f 81 69 56
f 82 84 83
f 85 55 54
f 86 60 59
f 27 26 28
f 27 28 29
f 38 26 39
f 39 27 40
f 40 27 42
f 41 42 44
f 39 26 27
f 42 27 47
f 27 29 48
f 45 48 29
f 42 47 44
f 44 47 80
f 27 48 47
f 80 47 84
f 45 97 48
f 47 48 96
f 52 57 53
f 54 53 57
f 60 54 57
f 52 56 57
f 58 57 56
f 62 63 61
f 62 64 63
f 77 81 52
f 78 80 84
f 78 84 82
f 85 54 86
f 45 85 97
f 81 56 52
f 86 54 60
f 85 86 97
f 84 47 93
f 93 47 96
f 48 97 96
f 87 88 61
f 88 89 62
f 89 91 62
f 90 96 91
f 88 62 61
f 91 96 62
f 86 94 97
f 62 97 64
f 94 64 97
f 90 93 96
f 62 96 97
f 43 44 80
f 43 80 79
f 83 84 93
f 83 93 92
f 31 33 32
f 31 35 33
f 31 34 35
f 34 70 35
f 34 71 70
f 31 32 39
f 38 39 32
f 31 39 40
f 31 40 34
f 41 43 42
f 40 42 46
f 40 46 34
f 42 43 46
f 34 46 75
f 43 95 46
f 66 67 68
f 66 68 69
f 67 71 68
f 70 71 67
f 34 75 71
f 72 74 73
f 72 73 75
f 75 73 76
f 75 76 71
f 77 66 69
f 78 83 79
f 77 69 81
f 78 82 83
f 43 79 95
f 79 83 95
f 46 95 75
f 72 87 74
f 72 88 87
f 72 89 88
f 72 75 89
f 89 75 91
f 90 91 92
f 91 75 95
f 83 92 95
f 91 95 92
