# MAAS exact compiled indexed mesh
# program_hash f76daf55c9cd33d39295b59cf0a56bdfaf69e60cf1f5ae2a21d99c5f2dacc33a
# geometry_hash bd5fa49545540e7ab877dd43559aa8965c2569ad73e634994542cba0355b4ab2
v -9.97417157 -9.96104749 0
v -7.53684194 -9.96104749 6.27
v -3.03715646 -9.96104749 6.27
v -2.84966956 -9.96104749 6.27
v -7.53684194 -9.96104749 10.23
v -9.97417157 -9.96104749 16.5
v -9.97417157 -0.58670274 8.25
v -9.3648411 -0.58537206 8.25
v -9.3648411 -0.58537206 8.745
v -8.75552225 -0.58138003 8.25
v -8.75552225 -0.58138003 8.745
v -8.75552225 -0.58138003 9.24
v -8.14622665 -0.57472673 8.25
v -8.14622665 -0.57472673 8.745
v -8.14622665 -0.57472673 9.24
v -7.53684194 -0.58670274 8.25
v -7.53696592 -0.5654123 8.25
v -7.53696592 -0.5654123 8.745
v -7.53696592 -0.5654123 9.24
v -8.14622665 -0.57472673 9.735
v -7.53696592 -0.5654123 9.735
v -7.53684194 -0.58670274 10.23
v -7.53696592 -0.5654123 10.23
v -9.97417157 -0.58670274 10.3125
v -9.3648411 -0.58537206 10.8075
v -8.75552225 -0.58138003 11.3025
v -8.14622665 -0.57472673 11.7975
v -6.41230765 -0.54122566 10.23
v -5.28788096 -0.5079713 10.23
v -7.02147346 -0.55545246 11.7975
v -5.89691226 -0.52710955 11.7975
v -9.97417157 -0.58670274 12.375
v -9.3648411 -0.58537206 12.87
v -8.75552225 -0.58138003 13.365
v -7.63069561 -0.56701849 13.365
v -9.97417157 -0.58670274 14.4375
v -9.3648411 -0.58537206 14.9325
v -9.97417157 -0.58670274 16.5
v -8.23996246 -0.57592353 14.9325
v -8.19309445 -0.57533301 14.9325
v -7.63069561 -0.56701849 16.5
v -6.50602133 -0.54358757 13.365
v -6.45916429 -0.54241448 13.365
v -6.41230765 -0.54122566 13.365
v -5.85006078 -0.52573182 14.9325
v -5.28788096 -0.5079713 16.5
v -3.03715646 -9.96104749 10.23
v -2.84966956 -9.96104749 10.23
v -0.59982682 -9.96104749 10.23
v -0.1348021 -7.28675778 10.23
v -0.1348021 -7.28675778 11.7975
v -0.59982682 -9.96104749 16.5
v -0.1348021 -7.28675778 13.365
v -0.1348021 -7.28675778 14.9325
v -0.1348021 -7.28675778 16.5
v -4.16375896 -0.4656514 10.23
v -3.03715646 -0.58670274 8.25
v -3.04001475 -0.41426871 8.25
v -3.03715646 -0.41412599 8.25
v -2.99320136 -0.41193114 8.25
v -2.84966956 -0.58670274 8.25
v -2.94638875 -0.40957784 8.25
v -2.89957693 -0.40720881 8.25
v -2.85276591 -0.40482405 8.25
v -3.04001475 -0.41426871 8.745
v -2.99320136 -0.41193114 8.745
v -2.94638875 -0.40957784 8.745
v -2.89957693 -0.40720881 8.745
v -2.85276591 -0.40482405 8.745
v -3.04001475 -0.41426871 9.24
v -2.99320136 -0.41193114 9.24
v -2.94638875 -0.40957784 9.24
v -2.89957693 -0.40720881 9.24
v -2.85276591 -0.40482405 9.24
v -3.04001475 -0.41426871 9.735
v -2.99320136 -0.41193114 9.735
v -2.94638875 -0.40957784 9.735
v -2.89957693 -0.40720881 9.735
v -2.85276591 -0.40482405 9.735
v -3.03715646 -0.58670274 10.23
v -3.04001475 -0.41426871 10.23
v -2.99320136 -0.41193114 10.23
v -2.84966956 -0.58670274 10.23
v -2.94638875 -0.40957784 10.23
v -2.89957693 -0.40720881 10.23
v -2.85276591 -0.40482405 10.23
v -4.77261614 -0.48969985 11.7975
v -4.72577731 -0.48794439 11.7975
v -4.67893906 -0.48617319 11.7975
v -4.63210141 -0.48438625 11.7975
v -0.29216131 -4.94846047 10.23
v -0.44952052 -2.61016316 10.23
v -0.29216131 -4.94846047 11.7975
v -0.44952052 -2.61016316 11.7975
v -2.29109791 -0.37498032 10.23
v -1.72955479 -0.34287236 10.23
v -1.16814569 -0.30850068 10.23
v -0.59982682 -0.58670274 10.23
v -0.60687972 -0.27186586 10.23
v -2.29109791 -0.37498032 11.7975
v -1.72955479 -0.34287236 11.7975
v -1.16814569 -0.30850068 11.7975
v -0.60687972 -0.27186586 11.7975
v -4.07009818 -0.46171562 13.365
v -3.50819091 -0.43677935 14.9325
v -2.94638875 -0.40957784 16.5
v -0.29216131 -4.94846047 13.365
v -0.44952052 -2.61016316 13.365
v -0.29216131 -4.94846047 14.9325
v -0.29216131 -4.94846047 16.5
v -0.44952052 -2.61016316 14.9325
v -0.44952052 -2.61016316 16.5
v -1.72955479 -0.34287236 13.365
v -1.16814569 -0.30850068 13.365
v -0.60687972 -0.27186586 13.365
v -1.16814569 -0.30850068 14.9325
v -0.60687972 -0.27186586 14.9325
v -0.59982682 -0.58670274 16.5
v -0.60687972 -0.27186586 16.5
v -9.97417157 8.78764201 0
v -7.53684194 8.78764201 6.27
v -3.03715646 8.78764201 6.27
v -2.84966956 8.78764201 6.27
v -7.57790804 1.77781623 8.745
v -7.57790804 1.77781623 9.24
v -7.57790804 1.77781623 9.735
v -7.57790804 1.77781623 10.23
v -9.97417157 1.75688345 10.3125
v -7.61885015 4.12104477 8.745
v -7.61885015 4.12104477 9.24
v -7.61885015 4.12104477 9.735
v -7.61885015 4.12104477 10.23
v -9.97417157 4.10046963 10.3125
v -6.47214267 1.80159657 10.23
v -5.36660499 1.83429229 10.23
v -6.53197768 4.1444188 10.23
v -5.44532902 4.17655588 10.23
v -9.97417157 1.75688345 12.375
v -9.97417157 1.75688345 14.4375
v -9.97417157 1.75688345 16.5
v -7.67006318 1.77623702 16.5
v -9.97417157 4.10046963 12.375
v -9.97417157 4.10046963 14.4375
v -9.97417157 4.10046963 16.5
v -7.70943075 4.11949254 16.5
v -5.36660499 1.83429229 16.5
v -5.44532902 4.17655588 16.5
v -7.65979227 6.4642733 8.745
v -7.65979227 6.4642733 9.24
v -7.65979227 6.4642733 9.735
v -7.65979227 6.4642733 10.23
v -9.97417157 6.44405582 10.3125
v -9.97417157 8.78764201 8.25
v -9.40578517 8.78888328 8.25
v -9.40578517 8.78888328 8.745
v -8.83740961 8.79260706 8.25
v -8.83740961 8.79260706 8.745
v -8.83740961 8.79260706 9.24
v -8.26905573 8.79881328 8.25
v -8.26905573 8.79881328 8.745
v -8.26905573 8.79881328 9.24
v -7.70038738 8.78764201 8.25
v -7.70073439 8.80750183 8.25
v -7.53684194 8.78764201 8.25
v -7.70073439 8.80750183 8.745
v -7.70073439 8.80750183 9.24
v -8.26905573 8.79881328 9.735
v -7.70073439 8.80750183 9.735
v -7.70073439 8.80750183 10.23
v -9.97417157 8.78764201 10.3125
v -9.40578517 8.78888328 10.8075
v -8.83740961 8.79260706 11.3025
v -8.26905573 8.79881328 11.7975
v -6.5918127 6.48724102 10.23
v -5.52405305 6.51881948 10.23
v -6.65164772 8.83006325 10.23
v -5.60277708 8.86108307 10.23
v -7.21988053 8.81679242 11.7975
v -6.17088441 8.84323082 11.7975
v -5.12213558 8.87812677 11.7975
v -5.07844408 8.87976427 11.7975
v -5.03475314 8.88141646 11.7975
v -4.99106276 8.88308332 11.7975
v -9.97417157 6.44405582 12.375
v -9.97417157 6.44405582 14.4375
v -9.97417157 6.44405582 16.5
v -7.74879832 6.46274805 16.5
v -9.97417157 8.78764201 12.375
v -9.40578517 8.78888328 12.87
v -8.83740961 8.79260706 13.365
v -7.78816589 8.80600357 13.365
v -9.97417157 8.78764201 14.4375
v -9.40578517 8.78888328 14.9325
v -9.97417157 8.78764201 16.5
v -8.35649294 8.7976969 14.9325
v -8.31277424 8.79824775 14.9325
v -6.7390643 8.82786004 13.365
v -6.69535583 8.82895431 13.365
v -6.65164772 8.83006325 13.365
v -5.60277708 8.86108307 13.365
v -7.26359306 8.81587439 14.9325
v -5.60277708 8.86108307 16.5
v -4.26136689 1.87590127 10.23
v -3.15650023 1.92642079 8.25
v -3.15650023 1.92642079 8.745
v -3.15650023 1.92642079 9.24
v -3.11047324 1.9287191 8.25
v -3.06444702 1.93103287 8.25
v -2.97239694 1.93570679 8.745
v -2.97239694 1.93570679 9.24
v -3.15650023 1.92642079 9.735
v -3.15650023 1.92642079 10.23
v -2.97239694 1.93570679 9.735
v -2.97239694 1.93570679 10.23
v -4.35897481 4.21745394 10.23
v -3.03715646 3.20269959 8.25
v -3.2729857 4.26711029 8.25
v -3.22774512 4.26936933 8.25
v -3.1825053 4.27164357 8.25
v -3.13726625 4.273933 8.25
v -3.2729857 4.26711029 8.745
v -3.2729857 4.26711029 9.24
v -3.09202797 4.27623764 8.25
v -3.09202797 4.27623764 8.745
v -3.09202797 4.27623764 9.24
v -3.2729857 4.26711029 9.735
v -3.2729857 4.26711029 10.23
v -3.09202797 4.27623764 9.735
v -3.09202797 4.27623764 10.23
v -2.54923065 4.30507869 10.23
v -2.42016428 1.96504918 10.23
v -1.86805441 1.99661777 10.23
v -1.3160763 2.03041204 10.23
v -0.21255126 2.10467541 10.23
v -2.00655403 4.3361079 10.23
v -0.92159814 4.40472876 10.23
v -3.06444702 1.93103287 16.5
v -0.92159814 4.40472876 16.5
v -4.45658274 6.55900661 10.23
v -3.38947117 6.6077998 8.25
v -3.345017 6.61001957 8.25
v -3.30056358 6.61225427 8.25
v -3.2561109 6.61450391 8.25
v -3.21165899 6.61676848 8.25
v -3.38947117 6.6077998 8.745
v -3.21165899 6.61676848 8.745
v -3.38947117 6.6077998 9.24
v -3.21165899 6.61676848 9.24
v -3.38947117 6.6077998 9.735
v -3.21165899 6.61676848 9.735
v -3.38947117 6.6077998 10.23
v -3.21165899 6.61676848 10.23
v -2.67829703 6.64510819 10.23
v -4.55419066 8.90055928 10.23
v -3.50595664 8.9484893 8.25
v -3.46228888 8.9506698 8.25
v -3.50595664 8.9484893 8.745
v -3.46228888 8.9506698 8.745
v -3.41862185 8.95286497 8.25
v -3.37495556 8.95507481 8.25
v -3.33129002 8.95729933 8.25
v -3.41862185 8.95286497 8.745
v -3.37495556 8.95507481 8.745
v -3.33129002 8.95729933 8.745
v -3.50595664 8.9484893 9.24
v -3.46228888 8.9506698 9.24
v -3.41862185 8.95286497 9.24
v -3.37495556 8.95507481 9.24
v -3.33129002 8.95729933 9.24
v -3.03715646 8.78764201 8.25
v -2.84966956 8.78764201 8.25
v -3.50595664 8.9484893 9.735
v -3.46228888 8.9506698 9.735
v -3.41862185 8.95286497 9.735
v -3.37495556 8.95507481 9.735
v -3.33129002 8.95729933 9.735
v -3.50595664 8.9484893 10.23
v -3.46228888 8.9506698 10.23
v -3.41862185 8.95286497 10.23
v -3.37495556 8.95507481 10.23
v -3.33129002 8.95729933 10.23
v -3.94267362 8.92749127 11.7975
v -2.89467664 8.98035129 11.7975
v -1.61193753 6.7082375 10.23
v -0.54612174 6.77996316 10.23
v -2.28355327 9.01508816 10.23
v -1.23631655 9.08132337 10.23
v -0.18964795 9.15600065 10.23
v -1.84713996 9.04165993 11.7975
v -3.30056358 6.61225427 16.5
v -4.55419066 8.90055928 13.365
v -2.89467664 8.98035129 14.9325
v -0.18964795 9.15600065 13.365
v -1.23631655 9.08132337 16.5
v 1.65001592 -9.96104749 6.27
v 1.83750281 -9.96104749 6.27
v 8.77451792 -9.96104749 0
v 6.33718829 -9.96104749 6.27
v 0.0225571 -9.62505508 10.23
v 0.62137494 -9.58354398 10.23
v 1.22002055 -9.53961896 10.23
v 1.65001592 -9.96104749 8.25
v 1.83750281 -9.96104749 8.25
v 2.41675616 -9.44453007 8.25
v 2.4666032 -9.44035864 8.25
v 2.41675616 -9.44453007 8.745
v 2.4666032 -9.44035864 8.745
v 2.41675616 -9.44453007 9.24
v 2.4666032 -9.44035864 9.24
v 1.8184842 -9.49328074 10.23
v 2.41675616 -9.44453007 9.735
v 2.4666032 -9.44035864 9.735
v 2.41675616 -9.44453007 10.23
v 2.4666032 -9.44035864 10.23
v 0.0225571 -9.62505508 11.7975
v 0.4545897 -7.2459001 10.23
v 1.04381198 -7.20266651 10.23
v 2.2217097 -7.10907442 8.25
v 2.2707721 -7.10496865 8.25
v 2.31983311 -7.10084641 8.25
v 2.36889273 -7.09670768 8.25
v 2.41795096 -7.09255246 8.25
v 2.41795096 -7.09255246 8.745
v 2.41795096 -7.09255246 9.24
v 1.63285518 -7.1570577 10.23
v 2.41795096 -7.09255246 9.735
v 2.51644884 -9.43617047 8.25
v 2.56629306 -9.43196555 8.25
v 2.61613587 -9.42774388 8.25
v 2.51644884 -9.43617047 8.745
v 2.56629306 -9.43196555 8.745
v 2.61613587 -9.42774388 8.745
v 2.51644884 -9.43617047 9.24
v 2.56629306 -9.43196555 9.24
v 2.61613587 -9.42774388 9.24
v 2.51644884 -9.43617047 9.735
v 2.56629306 -9.43196555 9.735
v 2.61613587 -9.42774388 9.735
v 2.51644884 -9.43617047 10.23
v 2.56629306 -9.43196555 10.23
v 2.61613587 -9.42774388 10.23
v 3.81192402 -9.32140128 10.23
v 2.51644884 -9.43617047 11.7975
v 3.11448488 -9.38460628 11.7975
v 3.71230817 -9.3306314 11.7975
v 4.30990899 -9.27424673 11.7975
v 4.35969871 -9.26943926 11.7975
v 4.40948682 -9.26461506 11.7975
v 4.4592733 -9.25977413 11.7975
v 0.0225571 -9.62505508 13.365
v 0.0225571 -9.62505508 14.9325
v 0.0225571 -9.62505508 16.5
v 2.31983311 -7.10084641 16.5
v 2.51644884 -9.43617047 13.365
v 2.51644884 -9.43617047 14.9325
v 2.51644884 -9.43617047 16.5
v 4.77099904 -6.8737283 16.5
v 0.28780446 -4.90825622 10.23
v 0.86760342 -4.86571406 10.23
v 0.12101922 -2.57061235 10.23
v 2.02666324 -4.77361877 8.25
v 2.07494099 -4.76957867 8.25
v 2.12321738 -4.76552235 8.25
v 2.1714924 -4.76144981 8.25
v 2.02666324 -4.77361877 8.745
v 2.21976605 -4.75736105 8.25
v 2.21976605 -4.75736105 8.745
v 2.02666324 -4.77361877 9.24
v 2.21976605 -4.75736105 9.24
v 2.02666324 -4.77361877 9.735
v 2.02666324 -4.77361877 10.23
v 2.21976605 -4.75736105 10.23
v 1.83750281 -2.50864155 8.25
v 0.5151863 -0.19180916 10.23
v 1.83161678 -2.43816312 8.745
v 1.87910988 -2.43418868 8.25
v 1.92660165 -2.43019829 8.25
v 1.97409207 -2.42619193 8.25
v 2.02158114 -2.42216963 8.25
v 2.02158114 -2.42216963 8.745
v 1.26159714 -2.48461163 10.23
v 2.02158114 -2.42216963 9.735
v 1.65001592 -0.58670274 8.25
v 1.67699137 -0.58670274 8.25
v 1.65001592 -0.26370296 8.25
v 1.63657032 -0.10270747 8.25
v 1.65001592 -0.10158228 8.25
v 1.83750281 -0.25319456 8.25
v 1.63657032 -0.10270747 8.745
v 1.63657032 -0.10270747 9.24
v 1.82339623 -0.08697821 9.24
v 1.63657032 -0.10270747 9.735
v 1.63657032 -0.10270747 10.23
v 1.82339623 -0.08697821 10.23
v 3.37790823 -4.65436634 10.23
v 4.53518227 -4.54203649 10.23
v 2.12321738 -4.76552235 16.5
v 1.92660165 -2.43019829 16.5
v 4.53518227 -4.54203649 16.5
v 5.00681581 -9.2054201 10.23
v 6.20073357 -9.07980788 10.23
v 6.33718829 -9.96104749 8.25
v 7.39359965 -8.94457278 8.25
v 7.39359965 -8.94457278 8.745
v 7.39359965 -8.94457278 9.24
v 7.39359965 -8.94457278 9.735
v 7.39359965 -8.94457278 10.23
v 5.65364713 -9.13857516 11.7975
v 6.84700486 -9.00774949 11.7975
v 7.12021235 -6.616987 8.745
v 7.12021235 -6.616987 9.24
v 7.12021235 -6.616987 9.735
v 8.03926891 -8.86730564 8.25
v 8.03926891 -8.86730564 8.745
v 8.03926891 -8.86730564 9.24
v 8.68459452 -8.78721916 8.25
v 8.68459452 -8.78721916 8.745
v 8.68459452 -8.78721916 9.24
v 8.03926891 -8.86730564 9.735
v 8.77451792 -9.96104749 8.25
v 8.77451792 -8.77566043 8.25
v 9.32956419 -8.70431488 8.25
v 9.32956419 -8.70431488 8.745
v 9.97416561 -8.61859437 8.25
v 8.68459452 -8.78721916 11.3025
v 8.03926891 -8.86730564 11.7975
v 9.32956419 -8.70431488 10.8075
v 9.97416561 -8.61859437 10.3125
v 9.02570273 -6.38051101 8.25
v 9.66015743 -6.29613983 8.25
v 9.66015743 -6.29613983 10.3125
v 5.00681581 -9.2054201 13.365
v 5.6039013 -9.14381737 13.365
v 6.20073357 -9.07980788 13.365
v 6.25045786 -9.07436515 13.365
v 6.30018031 -9.06890571 13.365
v 5.00681581 -9.2054201 14.9325
v 5.00681581 -9.2054201 16.5
v 7.21800399 -6.60546754 16.5
v 7.49295526 -8.9328691 13.365
v 8.68459452 -8.78721916 13.365
v 9.32956419 -8.70431488 12.87
v 9.97416561 -8.61859437 12.375
v 7.49295526 -8.9328691 14.9325
v 8.0889217 -8.86124522 14.9325
v 8.13857245 -8.85516811 14.9325
v 7.49295526 -8.9328691 16.5
v 9.32956419 -8.70431488 14.9325
v 9.97416561 -8.61859437 14.4375
v 9.97416561 -8.61859437 16.5
v 9.66015743 -6.29613983 12.375
v 9.66015743 -6.29613983 14.4375
v 5.69151294 -4.42037881 10.23
v 6.84682505 -4.28940121 8.745
v 6.84682505 -4.28940121 9.24
v 6.84682505 -4.28940121 10.23
v 6.57343774 -1.96181542 8.745
v 6.57343774 -1.96181542 9.735
v 6.33718829 -0.58670274 8.25
v 6.41192346 -0.58670274 8.25
v 9.34614926 -3.97368529 8.25
v 9.34614926 -3.97368529 10.3125
v 9.03214109 -1.65123076 8.25
v 9.03214109 -1.65123076 10.3125
v 6.66810146 -1.95066442 16.5
v 9.34614926 -3.97368529 12.375
v 9.34614926 -3.97368529 16.5
v 9.03214109 -1.65123076 14.4375
v 1.65001592 8.78764201 6.27
v 1.83750281 8.78764201 6.27
v 8.77451792 8.78764201 0
v 6.33718829 8.78764201 6.27
v 0.89033909 2.18783445 10.23
v 1.44152386 2.23274818 8.25
v 1.48744767 2.23659129 8.25
v 1.53337018 2.24044984 8.25
v 1.44152386 2.23274818 8.745
v 1.65001592 1.95594328 8.25
v 1.5792914 2.24432381 8.25
v 1.62521132 2.24821321 8.25
v 1.62521132 2.24821321 8.745
v 1.44152386 2.23274818 9.24
v 1.62521132 2.24821321 9.735
v 1.24647739 4.56820383 8.25
v 1.24647739 4.56820383 8.745
v 1.24647739 4.56820383 9.24
v 0.16276917 4.48209574 10.23
v 1.24647739 4.56820383 9.735
v 1.24647739 4.56820383 10.23
v 1.29161656 4.57198128 8.25
v 1.33675445 4.5757739 8.25
v 1.38189107 4.57958168 8.25
v 1.4270264 4.58340462 8.25
v 1.4270264 4.58340462 8.745
v 1.4270264 4.58340462 9.24
v 1.4270264 4.58340462 10.23
v 2.94389243 0.0126686 10.23
v 4.06354872 0.12134711 10.23
v 2.50987664 4.67970354 10.23
v 3.59191518 4.78473072 10.23
v 4.67307168 4.89847931 10.23
v 1.53337018 2.24044984 16.5
v 4.06354872 0.12134711 16.5
v 3.59191518 4.78473072 16.5
v 1.05143093 6.90365948 8.25
v 1.09578545 6.90737127 8.25
v 1.14013872 6.91109796 8.25
v 1.18449074 6.91483955 8.25
v 1.22884149 6.91859604 8.25
v 1.05143093 6.90365948 8.745
v 1.22884149 6.91859604 8.745
v 1.05143093 6.90365948 9.24
v 1.22884149 6.91859604 9.24
v 0.51908105 6.86028052 10.23
v 1.05143093 6.90365948 9.735
v 1.22884149 6.91859604 9.735
v 0.85638447 9.23911513 8.25
v 0.89995434 9.24276125 8.25
v 0.85638447 9.23911513 8.745
v 0.89995434 9.24276125 8.745
v 0.94352299 9.24642202 8.25
v 0.9870904 9.25009742 8.25
v 1.03065658 9.25378746 8.25
v 0.94352299 9.24642202 8.745
v 0.9870904 9.25009742 8.745
v 1.03065658 9.25378746 8.745
v 0.85638447 9.23911513 9.24
v 0.89995434 9.24276125 9.24
v 0.94352299 9.24642202 9.24
v 0.9870904 9.25009742 9.24
v 1.03065658 9.25378746 9.24
v 0.85638447 9.23911513 9.735
v 0.89995434 9.24276125 9.735
v 0.94352299 9.24642202 9.735
v 0.9870904 9.25009742 9.735
v 1.03065658 9.25378746 9.735
v 0.85638447 9.23911513 10.23
v 0.89995434 9.24276125 10.23
v 0.94352299 9.24642202 10.23
v 0.9870904 9.25009742 10.23
v 1.03065658 9.25378746 10.23
v 1.65001592 8.78764201 8.25
v 1.83750281 8.78764201 8.25
v 2.07586085 9.34673849 10.23
v 3.12028164 9.44811432 10.23
v 4.16385105 9.55790838 10.23
v 2.51113529 9.38795494 11.7975
v 2.55465506 9.39215701 11.7975
v 2.59817342 9.3963737 11.7975
v 2.64169036 9.40060502 11.7975
v 3.68565841 9.50654158 11.7975
v 4.72873832 9.62089255 11.7975
v 1.14013872 6.91109796 16.5
v 1.46624921 9.2914928 14.9325
v 4.16385105 9.55790838 13.365
v 4.20731363 9.56266571 13.365
v 4.25077461 9.56743765 13.365
v 3.12028164 9.44811432 16.5
v 5.18229231 0.23905025 10.23
v 6.33718829 0.04958329 8.25
v 6.30005044 0.36577037 8.25
v 6.33718829 0.37021465 8.25
v 6.30005044 0.36577037 9.24
v 6.30005044 0.36577037 10.23
v 6.02666314 2.69335615 8.25
v 6.02666314 2.69335615 8.745
v 6.02666314 2.69335615 9.735
v 8.77451792 0.25419126 8.25
v 8.40412474 2.99367832 10.3125
v 6.11819892 2.7041387 16.5
v 8.71813291 0.67122378 12.375
v 8.71813291 0.67122378 16.5
v 8.40412474 2.99367832 14.4375
v 5.75327583 5.02094194 8.25
v 5.75327583 5.02094194 8.745
v 5.75327583 5.02094194 9.24
v 5.75327583 5.02094194 10.23
v 5.47988853 7.34852773 8.25
v 5.47988853 7.34852773 8.745
v 5.47988853 7.34852773 9.24
v 6.0544131 7.417281 8.25
v 5.47988853 7.34852773 9.735
v 5.20650122 9.67611351 8.25
v 5.20650122 9.67611351 8.745
v 5.20650122 9.67611351 9.24
v 5.77086228 9.74365052 8.25
v 5.77086228 9.74365052 8.745
v 5.77086228 9.74365052 9.24
v 5.20650122 9.67611351 9.735
v 5.20650122 9.67611351 10.23
v 5.77086228 9.74365052 9.735
v 6.33718829 8.78764201 8.25
v 6.33492297 9.81365182 8.25
v 6.33492297 9.81365182 8.745
v 6.33492297 9.81365182 9.24
v 6.89867253 9.88611609 8.25
v 6.89867253 9.88611609 8.745
v 7.46210022 9.96104194 8.25
v 5.77086228 9.74365052 11.7975
v 6.33492297 9.81365182 11.3025
v 6.89867253 9.88611609 10.8075
v 7.46210022 9.96104194 10.3125
v 8.09011657 5.31613286 10.3125
v 7.62075012 8.78764201 8.25
v 8.77451792 8.78764201 8.25
v 7.77610839 7.6385874 10.3125
v 5.56829639 7.35894181 16.5
v 5.29334512 9.68634337 13.365
v 6.33492297 9.81365182 13.365
v 6.89867253 9.88611609 12.87
v 7.46210022 9.96104194 12.375
v 5.81426236 9.74894776 14.9325
v 5.85766066 9.75425958 14.9325
v 6.89867253 9.88611609 14.9325
v 7.46210022 9.96104194 14.4375
v 7.46210022 9.96104194 16.5
v 8.09011657 5.31613286 12.375
v 8.09011657 5.31613286 16.5
v 7.77610839 7.6385874 12.375
v 7.77610839 7.6385874 14.4375
f 1 2 6
f 1 3 2
f 1 7 120
f 1 297 3
f 3 4 48
f 1 120 297
f 2 5 6
f 1 6 7
f 5 47 6
f 6 47 48
f 6 52 38
f 6 24 7
f 6 38 24
f 3 48 47
f 48 49 52
f 6 48 52
f 52 118 38
f 120 7 153
f 120 153 162
f 120 164 121
f 120 162 164
f 120 121 122
f 120 122 123
f 120 123 469
f 122 271 123
f 122 270 271
f 3 297 4
f 295 296 302
f 296 303 302
f 4 297 295
f 295 297 296
f 296 297 298
f 298 420 402
f 297 420 298
f 297 421 420
f 297 568 421
f 297 471 568
f 120 471 297
f 120 469 471
f 469 543 470
f 469 542 543
f 469 470 471
f 470 472 471
f 472 592 604
f 471 605 568
f 471 472 605
f 472 604 605
f 24 128 7
f 24 138 128
f 24 32 138
f 128 153 7
f 153 128 133
f 128 142 133
f 128 138 142
f 133 142 184
f 32 139 138
f 32 36 139
f 36 140 139
f 36 38 140
f 41 140 38
f 41 141 140
f 138 143 142
f 138 139 143
f 142 143 185
f 139 144 143
f 139 140 144
f 140 141 144
f 143 144 186
f 144 145 186
f 141 145 144
f 41 46 141
f 46 146 141
f 141 146 145
f 145 147 187
f 145 146 147
f 153 133 152
f 133 184 152
f 152 184 188
f 153 152 170
f 153 155 154
f 153 170 155
f 154 155 157
f 154 157 156
f 155 158 157
f 155 170 171
f 155 171 158
f 156 160 159
f 156 157 160
f 157 161 160
f 157 158 161
f 159 165 163
f 159 160 165
f 160 166 165
f 160 161 166
f 158 167 161
f 158 172 167
f 161 168 166
f 161 167 168
f 167 169 168
f 152 188 170
f 170 188 171
f 158 171 172
f 171 188 189
f 171 189 172
f 167 172 173
f 167 173 169
f 169 173 176
f 172 190 173
f 173 190 178
f 176 173 178
f 176 178 177
f 177 178 179
f 178 191 179
f 177 179 254
f 179 180 254
f 179 197 180
f 180 197 181
f 181 198 182
f 182 199 183
f 183 199 282
f 142 185 184
f 184 185 192
f 143 186 185
f 185 186 194
f 186 187 194
f 145 187 186
f 184 192 188
f 188 192 189
f 172 189 190
f 189 192 193
f 189 193 190
f 178 190 191
f 190 193 191
f 191 193 195
f 191 195 197
f 198 195 196
f 185 194 192
f 192 194 193
f 193 194 195
f 195 194 196
f 187 202 194
f 196 194 201
f 194 202 201
f 147 290 187
f 187 290 202
f 179 191 197
f 197 195 198
f 198 196 199
f 200 196 201
f 199 196 200
f 181 197 198
f 182 198 199
f 282 199 200
f 200 201 291
f 201 202 292
f 46 106 146
f 106 237 146
f 146 237 147
f 147 237 238
f 106 119 237
f 119 502 237
f 237 502 238
f 255 258 256
f 256 262 259
f 255 257 258
f 256 258 262
f 259 263 260
f 260 264 261
f 259 262 263
f 260 263 264
f 257 266 258
f 258 267 262
f 257 265 266
f 258 266 267
f 262 268 263
f 263 269 264
f 262 267 268
f 263 268 269
f 265 273 266
f 266 274 267
f 265 272 273
f 266 273 274
f 267 275 268
f 268 276 269
f 267 274 275
f 268 275 276
f 272 278 273
f 273 279 274
f 272 277 278
f 273 278 279
f 274 280 275
f 275 281 276
f 274 279 280
f 275 280 281
f 180 277 254
f 180 181 278
f 181 182 279
f 182 183 280
f 180 278 277
f 181 279 278
f 182 280 279
f 183 281 280
f 282 200 283
f 183 286 281
f 183 282 286
f 287 282 283
f 283 291 289
f 286 282 287
f 287 283 288
f 288 283 289
f 288 289 537
f 147 238 290
f 283 200 291
f 201 292 291
f 291 292 293
f 202 290 294
f 202 294 292
f 238 553 290
f 289 291 293
f 293 292 554
f 290 553 294
f 292 294 554
f 304 305 306
f 305 327 307
f 305 307 306
f 306 307 308
f 307 330 309
f 307 309 308
f 308 309 311
f 309 333 312
f 309 312 311
f 311 312 313
f 312 336 314
f 312 314 313
f 299 300 343
f 299 343 315
f 300 301 344
f 301 310 345
f 300 344 343
f 315 343 354
f 327 328 330
f 328 329 331
f 307 327 330
f 328 331 330
f 329 332 331
f 330 331 333
f 331 332 334
f 309 330 333
f 331 334 333
f 332 335 334
f 333 334 336
f 334 335 337
f 312 333 336
f 334 337 336
f 335 338 337
f 336 337 339
f 337 338 340
f 314 336 339
f 337 340 339
f 338 341 340
f 310 313 346
f 313 314 346
f 314 339 347
f 301 345 344
f 339 340 348
f 340 341 349
f 310 346 345
f 341 342 349
f 314 347 346
f 343 344 432
f 339 348 347
f 340 349 348
f 342 400 408
f 342 408 349
f 344 345 433
f 345 346 434
f 346 347 434
f 315 354 350
f 350 355 351
f 350 354 355
f 351 356 352
f 55 352 356
f 351 355 356
f 55 356 353
f 55 353 110
f 110 353 397
f 343 432 354
f 354 437 355
f 344 433 432
f 354 432 437
f 355 438 356
f 353 356 438
f 355 437 438
f 353 438 357
f 353 357 397
f 397 357 399
f 110 397 112
f 112 397 398
f 112 398 119
f 119 398 502
f 397 399 398
f 398 399 503
f 398 503 502
f 400 401 409
f 400 409 408
f 347 348 435
f 348 349 436
f 349 408 436
f 401 407 426
f 401 426 409
f 408 409 440
f 404 403 413
f 404 413 414
f 404 414 405
f 405 414 415
f 414 413 416
f 417 416 421
f 414 416 417
f 414 417 415
f 417 418 415
f 405 415 406
f 406 415 419
f 406 419 407
f 415 418 419
f 418 425 419
f 417 421 422
f 417 422 423
f 417 423 418
f 418 423 427
f 422 424 423
f 423 424 428
f 424 430 428
f 423 428 427
f 407 419 426
f 419 425 426
f 409 426 441
f 425 441 426
f 418 427 425
f 425 427 442
f 427 428 443
f 428 431 443
f 427 443 442
f 430 431 428
f 430 461 431
f 431 451 443
f 431 462 451
f 345 434 433
f 347 435 434
f 348 436 435
f 432 433 444
f 432 444 437
f 408 440 436
f 433 434 445
f 434 435 445
f 435 436 446
f 436 440 446
f 433 445 444
f 437 447 438
f 357 438 447
f 437 444 447
f 357 439 399
f 357 447 439
f 409 441 440
f 435 446 445
f 440 441 448
f 440 448 446
f 425 442 441
f 441 442 448
f 442 443 449
f 443 451 449
f 442 449 448
f 444 445 450
f 444 450 447
f 439 447 450
f 445 446 450
f 446 448 450
f 448 449 450
f 449 452 450
f 451 452 449
f 451 466 452
f 439 450 467
f 450 452 467
f 431 461 462
f 461 463 462
f 462 466 451
f 462 464 466
f 463 464 462
f 463 568 464
f 464 571 466
f 399 439 465
f 399 465 503
f 452 466 468
f 439 467 465
f 452 468 467
f 466 571 468
f 465 467 572
f 467 468 572
f 238 502 504
f 503 504 502
f 503 570 504
f 517 520 518
f 518 524 521
f 517 519 520
f 518 520 524
f 521 525 522
f 522 526 523
f 521 524 525
f 522 525 526
f 519 528 520
f 520 529 524
f 519 527 528
f 520 528 529
f 524 530 525
f 525 531 526
f 524 529 530
f 525 530 531
f 527 533 528
f 528 534 529
f 527 532 533
f 528 533 534
f 529 535 530
f 530 536 531
f 529 534 535
f 530 535 536
f 532 538 533
f 533 539 534
f 532 537 538
f 533 538 539
f 534 540 535
f 535 541 536
f 534 539 540
f 535 540 541
f 289 547 537
f 289 293 547
f 537 547 538
f 538 548 539
f 539 549 540
f 540 550 541
f 541 550 544
f 538 547 548
f 539 548 549
f 540 549 550
f 544 551 545
f 544 550 551
f 547 555 548
f 548 556 549
f 549 557 550
f 550 557 551
f 545 552 546
f 545 551 552
f 546 552 599
f 551 608 552
f 238 504 553
f 293 555 547
f 293 554 555
f 294 553 558
f 294 558 554
f 504 607 553
f 548 555 556
f 549 556 557
f 551 557 608
f 555 554 612
f 555 612 556
f 556 613 557
f 553 607 558
f 554 558 612
f 464 568 569
f 464 569 571
f 569 568 603
f 603 568 606
f 569 617 571
f 569 603 617
f 503 465 570
f 465 572 570
f 504 570 607
f 468 571 573
f 468 573 572
f 571 617 573
f 570 572 618
f 572 573 618
f 583 584 586
f 584 587 586
f 584 585 587
f 587 585 588
f 586 587 593
f 587 594 593
f 587 588 594
f 588 595 594
f 585 589 588
f 588 589 591
f 589 590 591
f 588 591 595
f 595 591 600
f 593 594 596
f 594 597 596
f 594 595 597
f 596 597 598
f 598 597 602
f 597 595 601
f 597 601 602
f 546 599 590
f 591 590 599
f 591 599 600
f 552 609 599
f 600 599 609
f 595 600 601
f 602 601 611
f 601 600 610
f 601 610 611
f 602 606 568
f 602 568 604
f 603 619 617
f 603 606 619
f 598 602 604
f 606 611 619
f 602 611 606
f 570 618 607
f 552 608 609
f 557 613 608
f 556 612 613
f 608 614 609
f 608 613 614
f 600 609 610
f 611 610 615
f 610 609 614
f 610 614 615
f 558 607 616
f 558 616 612
f 607 618 616
f 612 616 613
f 613 616 614
f 615 614 616
f 573 617 620
f 617 619 620
f 573 620 618
f 619 615 620
f 611 615 619
f 616 618 620
f 615 616 620
f 2 121 16
f 2 3 122
f 3 57 122
f 2 16 5
f 5 16 22
f 5 22 80
f 5 80 47
f 3 47 57
f 47 80 57
f 2 122 121
f 121 164 16
f 122 57 59
f 122 59 216
f 122 216 270
f 18 17 124
f 18 124 19
f 19 124 125
f 19 125 21
f 21 126 23
f 21 125 126
f 23 126 127
f 124 17 129
f 124 129 125
f 129 17 148
f 125 129 130
f 125 130 126
f 126 131 127
f 126 130 131
f 127 131 132
f 148 17 162
f 129 148 130
f 130 149 131
f 131 150 132
f 23 127 134
f 23 134 28
f 28 135 29
f 28 134 135
f 127 136 134
f 127 132 136
f 132 174 136
f 134 137 135
f 134 136 137
f 135 137 215
f 136 175 137
f 130 148 149
f 131 149 150
f 132 150 151
f 148 165 149
f 149 166 150
f 150 168 151
f 148 162 163
f 148 163 165
f 149 165 166
f 150 166 168
f 151 168 169
f 132 151 174
f 151 176 174
f 136 174 175
f 137 175 239
f 174 177 175
f 151 169 176
f 174 176 177
f 175 177 254
f 29 203 56
f 29 135 203
f 56 203 212
f 58 205 204
f 65 206 205
f 58 65 205
f 65 70 206
f 56 212 81
f 70 211 206
f 75 212 211
f 70 75 211
f 75 81 212
f 135 215 203
f 203 215 227
f 204 205 221
f 205 206 222
f 204 221 217
f 205 222 221
f 206 211 226
f 203 227 212
f 211 212 227
f 206 226 222
f 211 227 226
f 137 239 215
f 215 239 251
f 175 254 239
f 239 277 251
f 217 221 245
f 221 222 247
f 217 245 240
f 221 247 245
f 222 226 249
f 215 251 227
f 226 227 251
f 222 249 247
f 226 251 249
f 240 245 257
f 245 247 265
f 247 249 272
f 249 251 277
f 239 254 277
f 240 257 255
f 245 265 257
f 247 272 265
f 249 277 272
f 4 123 61
f 4 61 48
f 48 83 49
f 48 61 83
f 83 98 49
f 4 469 123
f 123 271 61
f 295 302 383
f 4 295 469
f 295 383 469
f 469 383 385
f 469 385 387
f 469 387 478
f 469 478 542
f 91 92 358
f 92 360 358
f 92 99 360
f 99 234 360
f 69 64 209
f 69 209 74
f 74 209 210
f 74 210 79
f 79 213 86
f 86 214 95
f 79 210 213
f 86 213 214
f 95 214 231
f 209 64 216
f 209 224 210
f 209 216 223
f 209 223 224
f 210 224 225
f 210 225 213
f 213 228 214
f 214 229 231
f 213 225 228
f 214 228 229
f 229 230 231
f 95 231 96
f 96 231 232
f 96 232 97
f 97 232 233
f 97 233 99
f 99 233 234
f 230 232 231
f 230 235 232
f 232 235 233
f 233 235 236
f 233 236 234
f 234 236 487
f 223 244 224
f 224 246 225
f 224 244 246
f 225 246 248
f 225 248 228
f 228 250 229
f 228 248 250
f 229 250 252
f 229 252 230
f 230 252 253
f 244 261 246
f 246 264 248
f 248 269 250
f 250 276 252
f 252 281 253
f 246 261 264
f 248 264 269
f 250 269 276
f 252 276 281
f 253 281 286
f 230 253 235
f 235 253 284
f 235 284 236
f 253 286 284
f 236 284 285
f 236 285 487
f 284 286 287
f 284 287 285
f 285 287 288
f 285 288 514
f 50 300 299
f 300 316 301
f 50 316 300
f 301 316 317
f 301 317 310
f 304 306 365
f 306 308 368
f 317 325 310
f 310 325 313
f 308 311 370
f 311 313 371
f 50 91 316
f 316 358 317
f 317 359 325
f 91 358 316
f 317 358 359
f 304 365 318
f 306 368 365
f 313 325 371
f 308 370 368
f 311 371 370
f 358 360 359
f 359 360 374
f 359 374 381
f 318 375 361
f 318 365 375
f 359 381 325
f 325 381 371
f 365 368 390
f 368 370 392
f 370 371 393
f 234 374 360
f 381 374 473
f 361 389 373
f 361 375 389
f 365 390 375
f 371 381 393
f 368 392 390
f 370 393 392
f 389 384 373
f 375 482 389
f 375 390 482
f 381 473 393
f 234 487 374
f 374 487 473
f 477 385 384
f 386 385 477
f 389 477 384
f 386 477 474
f 389 486 477
f 389 482 486
f 390 392 488
f 392 393 489
f 390 488 482
f 393 473 489
f 473 487 514
f 482 515 486
f 482 488 515
f 473 514 489
f 474 477 485
f 392 489 488
f 474 485 484
f 477 486 485
f 484 485 510
f 485 486 512
f 484 510 505
f 485 512 510
f 285 514 487
f 486 515 512
f 488 489 537
f 489 514 537
f 488 537 515
f 505 510 519
f 510 512 527
f 505 519 517
f 510 527 519
f 288 537 514
f 512 515 532
f 512 532 527
f 515 537 532
f 296 373 303
f 296 388 373
f 296 470 388
f 296 298 472
f 298 402 459
f 298 459 472
f 296 472 470
f 470 543 388
f 472 459 560
f 472 560 562
f 472 562 592
f 322 323 332
f 323 324 335
f 324 326 338
f 322 366 323
f 323 367 324
f 326 372 341
f 324 369 326
f 323 366 367
f 324 367 369
f 322 332 329
f 323 335 332
f 324 338 335
f 326 341 338
f 372 342 341
f 342 395 400
f 372 395 342
f 395 396 400
f 366 379 367
f 367 380 369
f 369 382 326
f 326 382 372
f 367 379 380
f 372 394 395
f 369 380 391
f 379 388 380
f 369 391 382
f 372 382 394
f 380 388 481
f 380 481 391
f 382 391 483
f 382 483 394
f 395 497 396
f 396 498 453
f 394 497 395
f 396 497 498
f 498 559 453
f 396 401 400
f 404 405 410
f 401 453 407
f 405 406 411
f 406 407 412
f 396 453 401
f 405 411 410
f 406 412 411
f 407 456 412
f 404 460 403
f 410 411 454
f 404 410 460
f 411 455 454
f 407 453 456
f 411 412 455
f 453 559 456
f 410 454 460
f 412 458 455
f 412 456 458
f 454 455 457
f 456 559 564
f 454 457 460
f 455 563 457
f 455 458 563
f 456 564 458
f 457 560 460
f 457 561 560
f 481 388 478
f 480 481 478
f 391 481 495
f 391 495 483
f 394 483 496
f 394 496 497
f 480 494 481
f 497 496 499
f 480 493 494
f 481 494 495
f 483 495 516
f 483 516 496
f 497 499 498
f 498 500 559
f 498 499 500
f 500 501 559
f 496 516 541
f 493 511 494
f 494 513 495
f 493 509 511
f 494 511 513
f 495 513 516
f 496 541 499
f 509 526 511
f 511 531 513
f 509 523 526
f 511 526 531
f 513 536 516
f 513 531 536
f 516 536 541
f 499 541 544
f 499 544 500
f 500 545 501
f 501 546 577
f 500 544 545
f 501 545 546
f 561 566 565
f 501 564 559
f 457 566 561
f 457 563 566
f 458 567 563
f 458 564 567
f 563 576 566
f 565 566 575
f 501 577 564
f 563 567 576
f 564 577 567
f 565 575 574
f 566 576 575
f 574 575 579
f 575 576 580
f 576 567 582
f 567 577 582
f 574 579 578
f 575 580 579
f 576 582 580
f 577 590 582
f 578 579 584
f 579 580 585
f 546 590 577
f 580 582 589
f 578 584 583
f 579 585 584
f 580 589 585
f 582 590 589
f 49 118 52
f 49 98 118
f 302 303 373
f 302 373 384
f 302 384 383
f 402 403 460
f 402 420 403
f 420 413 403
f 420 416 413
f 420 421 416
f 402 460 459
f 51 299 315
f 50 299 51
f 51 315 53
f 50 51 93
f 50 93 91
f 51 107 93
f 53 315 350
f 54 350 351
f 53 350 54
f 55 351 352
f 54 351 55
f 51 53 107
f 53 54 109
f 53 109 107
f 54 55 110
f 54 110 109
f 91 93 94
f 91 94 92
f 93 108 94
f 92 94 103
f 92 103 99
f 94 115 103
f 93 107 108
f 107 109 111
f 107 111 108
f 109 110 112
f 109 112 111
f 94 108 115
f 108 111 117
f 108 117 115
f 111 112 119
f 111 119 117
f 304 319 305
f 305 320 327
f 321 328 327
f 304 318 319
f 305 319 320
f 320 321 327
f 321 322 328
f 318 362 319
f 319 363 320
f 320 364 321
f 321 366 322
f 318 361 362
f 319 362 363
f 320 363 364
f 321 364 366
f 322 329 328
f 361 376 362
f 362 377 363
f 363 378 364
f 364 379 366
f 361 373 376
f 362 376 377
f 363 377 378
f 364 378 379
f 376 373 388
f 376 388 377
f 377 388 378
f 378 388 379
f 386 387 385
f 422 421 429
f 422 430 424
f 422 429 430
f 429 461 430
f 429 421 568
f 429 463 461
f 429 568 463
f 561 562 560
f 16 8 7
f 22 7 24
f 16 10 8
f 16 13 10
f 16 7 22
f 16 17 13
f 22 24 38
f 22 38 80
f 80 38 83
f 57 60 59
f 57 62 60
f 57 61 62
f 61 63 62
f 61 64 63
f 57 80 61
f 80 83 61
f 83 118 98
f 83 38 118
f 16 164 17
f 164 162 17
f 61 271 64
f 271 216 64
f 270 216 271
f 9 7 8
f 9 24 7
f 9 8 11
f 11 8 10
f 9 11 12
f 9 25 24
f 9 12 25
f 11 10 14
f 14 10 13
f 11 15 12
f 11 14 15
f 14 13 18
f 18 13 17
f 14 19 15
f 14 18 19
f 12 15 20
f 12 20 26
f 15 21 20
f 15 19 21
f 20 21 23
f 24 25 32
f 12 26 25
f 25 33 32
f 25 26 33
f 20 27 26
f 20 23 27
f 26 27 34
f 27 30 34
f 23 28 27
f 28 30 27
f 28 29 30
f 30 31 35
f 29 31 30
f 29 56 31
f 31 87 42
f 87 88 42
f 88 89 43
f 89 90 44
f 32 33 36
f 26 34 33
f 33 37 36
f 33 34 37
f 30 35 34
f 34 35 37
f 35 39 37
f 43 40 39
f 36 37 38
f 37 39 38
f 39 40 38
f 40 41 38
f 31 42 35
f 35 42 39
f 42 43 39
f 43 44 40
f 44 45 40
f 88 43 42
f 89 44 43
f 90 104 44
f 44 104 45
f 40 45 41
f 41 45 46
f 58 59 65
f 65 59 60
f 66 60 62
f 67 62 63
f 68 63 64
f 65 60 66
f 66 62 67
f 67 63 68
f 68 64 69
f 65 66 70
f 66 67 71
f 67 68 72
f 68 69 73
f 66 71 70
f 67 72 71
f 68 73 72
f 69 74 73
f 70 71 75
f 71 72 76
f 72 73 77
f 73 74 78
f 71 76 75
f 72 77 76
f 73 78 77
f 74 79 78
f 75 76 81
f 76 77 82
f 77 78 84
f 78 79 85
f 76 82 81
f 77 84 82
f 78 85 84
f 79 86 85
f 31 56 87
f 56 81 87
f 82 88 87
f 84 89 88
f 85 90 89
f 81 82 87
f 82 84 88
f 84 85 89
f 85 86 90
f 86 100 90
f 90 100 104
f 86 95 100
f 95 96 101
f 95 101 100
f 96 97 102
f 96 102 101
f 100 101 113
f 101 102 114
f 97 99 103
f 97 103 102
f 102 103 115
f 45 104 105
f 100 113 104
f 104 113 105
f 45 105 46
f 46 105 106
f 105 116 106
f 101 114 113
f 113 116 105
f 113 114 116
f 102 115 114
f 114 115 117
f 114 117 116
f 106 116 119
f 116 117 119
f 153 154 162
f 154 156 162
f 156 159 162
f 159 163 162
f 58 207 59
f 58 204 207
f 207 208 59
f 208 216 59
f 204 218 207
f 207 219 208
f 204 217 218
f 207 218 219
f 208 219 220
f 208 220 216
f 220 223 216
f 217 241 218
f 218 242 219
f 219 243 220
f 220 244 223
f 217 240 241
f 218 241 242
f 219 242 243
f 220 243 244
f 240 256 241
f 241 259 242
f 242 260 243
f 243 261 244
f 240 255 256
f 241 256 259
f 242 259 260
f 243 260 261
f 383 384 385
f 459 460 560
f 543 478 388
f 542 478 543
f 605 604 568
f 386 478 387
f 386 474 475
f 386 475 478
f 475 476 478
f 476 479 478
f 479 480 478
f 474 490 475
f 475 491 476
f 476 492 479
f 479 493 480
f 474 484 490
f 475 490 491
f 476 491 492
f 479 492 493
f 484 506 490
f 484 505 506
f 490 506 507
f 491 507 508
f 490 507 491
f 491 508 492
f 492 509 493
f 492 508 509
f 505 518 506
f 506 521 507
f 507 522 508
f 508 523 509
f 505 517 518
f 506 518 521
f 507 521 522
f 508 522 523
f 561 565 592
f 561 592 562
f 565 574 592
f 574 578 581
f 574 581 592
f 578 586 581
f 578 583 586
f 581 586 593
f 581 593 592
f 593 604 592
f 593 596 604
f 596 598 604
