# MAAS exact compiled indexed mesh
# program_hash 1b7e70ef4ff75cdbcc687a272792cb5fb0bf74ac6c3db8b86f9bad44269650e4
# geometry_hash c1c6f0ccec19bf2e00035d3b487bdeec82e62c9e1deb3239990059011189bb73
v -14.72190928 -17.66629113 0
v -14.72190928 -17.66629113 3.64736842
v -2.94438186 -17.66629113 0
v -2.94438186 -17.66629113 3.64736842
v -16.56214794 2.20828639 3.38684211
v -14.72190928 2.20828639 3.38684211
v -14.72190928 2.20828639 3.64736842
v -14.72190928 17.66629113 0
v -16.56214794 13.98581381 3.38684211
v -14.72190928 13.98581381 3.38684211
v -14.72190928 13.98581381 3.64736842
v -14.72190928 17.66629113 3.64736842
v -2.94438186 2.20828639 3.38684211
v -2.94438186 2.20828639 3.64736842
v -2.94438186 17.66629113 0
v -2.94438186 13.98581381 3.38684211
v -2.94438186 13.98581381 3.64736842
v -2.94438186 17.66629113 3.64736842
v -16.56214794 2.20828639 7.03421053
v -12.51362289 0 6.77368421
v -12.51362289 2.20828639 6.77368421
v -12.51362289 2.20828639 7.03421053
v -12.51362289 0 9.9
v -16.56214794 13.98581381 7.03421053
v -12.51362289 13.98581381 6.77368421
v -12.51362289 13.98581381 7.03421053
v -12.51362289 16.19410021 6.77368421
v -12.51362289 16.19410021 9.9
v -0.73609546 0 6.77368421
v -0.73609546 2.20828639 6.77368421
v -0.73609546 2.20828639 7.03421053
v -0.73609546 0 9.9
v -0.73609546 13.98581381 6.77368421
v -0.73609546 13.98581381 7.03421053
v -0.73609546 16.19410021 6.77368421
v -0.73609546 16.19410021 9.9
v -0 -8.83314557 0
v -0 -8.83314557 3.64736842
v 13.24971835 -8.83314557 0
v 13.24971835 -8.83314557 3.64736842
v -0 2.20828639 3.38684211
v -0 2.20828639 3.64736842
v -0 17.66629113 0
v -0 13.98581381 3.38684211
v -0 13.98581381 3.64736842
v -0 17.66629113 3.64736842
v 13.24971835 2.20828639 3.38684211
v 13.24971835 2.20828639 3.64736842
v 16.56214794 2.20828639 3.38684211
v 13.24971835 17.66629113 0
v 13.24971835 13.98581381 3.38684211
v 13.24971835 13.98581381 3.64736842
v 13.24971835 17.66629113 3.64736842
v 16.56214794 13.98581381 3.38684211
v 16.56214794 2.20828639 7.03421053
v 16.56214794 13.98581381 7.03421053
f 1 2 6
f 1 3 2
f 2 4 7
f 1 6 10
f 1 8 3
f 2 7 6
f 3 4 2
f 3 15 4
f 4 14 7
f 4 13 14
f 1 12 8
f 1 10 12
f 8 12 18
f 10 11 12
f 11 17 12
f 3 8 15
f 4 15 13
f 8 18 15
f 13 15 16
f 15 18 16
f 12 17 18
f 16 18 17
f 37 39 38
f 37 38 41
f 38 42 41
f 38 40 42
f 39 40 38
f 40 48 42
f 40 47 48
f 37 41 44
f 37 44 46
f 37 43 39
f 37 46 43
f 43 46 53
f 44 45 46
f 45 52 46
f 39 50 40
f 40 50 47
f 39 43 50
f 43 53 50
f 47 50 51
f 50 53 51
f 46 52 53
f 51 53 52
f 5 6 7
f 5 7 19
f 5 10 6
f 7 14 19
f 5 9 10
f 5 24 9
f 9 11 10
f 9 24 11
f 11 24 17
f 19 14 42
f 13 41 14
f 14 41 42
f 19 42 48
f 13 44 41
f 13 16 44
f 16 17 45
f 16 45 44
f 19 21 22
f 5 19 24
f 19 22 26
f 19 26 24
f 24 26 25
f 24 25 17
f 19 49 21
f 17 25 33
f 19 48 49
f 17 56 45
f 47 49 48
f 47 54 49
f 49 54 55
f 45 56 52
f 47 51 54
f 51 52 54
f 54 52 56
f 49 30 21
f 55 31 30
f 56 34 31
f 17 33 56
f 56 33 34
f 49 55 30
f 55 56 31
f 54 56 55
f 20 22 21
f 20 21 29
f 20 28 22
f 20 23 28
f 20 29 23
f 23 32 28
f 27 25 26
f 27 33 25
f 28 26 22
f 27 26 28
f 27 28 36
f 29 21 30
f 29 30 31
f 23 29 32
f 29 31 32
f 32 31 34
f 27 35 33
f 35 34 33
f 28 32 36
f 27 36 35
f 32 34 35
f 32 35 36
