# MAAS exact compiled indexed mesh
# program_hash 175a9a927f2c2a293a2588679a95c746d0f61475437104339682fa467c30c0fc
# geometry_hash 54b74e6bea942a4d12ba43a486dbe34c0b00623d8f03cc7edc061b547786b7d0
v -15.18017881 -11.25313256 0
v -15.18017881 -11.25313256 4.52571429
v -14.45417026 -10.527124 4.52571429
v -14.45417026 -0.94553288 0
v -15.18017881 -0.69300816 0
v -14.45417026 -0.69300816 0
v -7.86803634 -3.23636207 0
v -15.18017881 -0.69300816 4.52571429
v -14.45417026 -0.69300816 4.52571429
v -4.55405364 -10.527124 4.52571429
v -4.55405364 -0.69300816 0
v -4.55405364 -0.69300816 4.52571429
v -14.45417026 -10.527124 9.9
v -4.55405364 -10.527124 9.9
v -14.45417026 11.25313256 0
v -4.55405364 11.25313256 0
v -14.45417026 11.25313256 9.9
v -4.55405364 0.69300816 5.65714286
v -4.55405364 0.69300816 9.9
v -4.55405364 10.59312478 5.65714286
v -4.55405364 8.2005966 9.9
v -4.55405364 10.59312478 9.9
v -4.55405364 11.25313256 9.9
v 15.18017881 -11.25313256 0
v 15.18017881 -11.25313256 4.52571429
v 15.18017881 -0.69300816 0
v 15.18017881 -0.69300816 4.52571429
v 13.4641586 0.69300816 5.65714286
v 13.4641586 0.69300816 9.9
v 13.4641586 10.59312478 5.65714286
v 13.4641586 10.59312478 9.9
f 1 2 8
f 2 3 9
f 1 5 4
f 1 4 7
f 1 8 5
f 4 5 6
f 5 8 6
f 2 9 8
f 6 8 9
f 1 24 2
f 1 7 24
f 2 25 3
f 3 25 10
f 2 24 25
f 7 11 24
f 11 12 26
f 10 27 12
f 24 26 25
f 10 25 27
f 11 26 24
f 12 27 26
f 25 26 27
f 4 6 7
f 3 13 9
f 3 10 14
f 3 14 13
f 13 14 17
f 10 12 14
f 14 18 19
f 6 15 7
f 7 15 11
f 6 9 17
f 11 15 16
f 6 17 15
f 15 23 16
f 11 16 12
f 12 16 14
f 16 20 18
f 9 13 17
f 14 19 17
f 15 17 23
f 19 21 17
f 17 21 22
f 17 22 23
f 14 16 18
f 16 23 20
f 23 22 20
f 28 19 18
f 28 18 30
f 29 21 19
f 28 29 19
f 30 18 20
f 30 20 31
f 31 20 22
f 31 22 21
f 29 31 21
f 28 30 29
f 29 30 31
