# MAAS exact compiled indexed mesh
# program_hash b26f625e6341d9a92df6f94a3404b07b9db646b7ada909336ebddf1c55372ed3
# geometry_hash f4b863f1a7867b50990e1d022100cec9cca2a119b431407551e16d2bc182015f
v -19.53126604 -17.23347003 0
v -11.3281343 -17.23347003 0
v -19.53126604 -17.23347003 9.9
v -11.3281343 -17.23347003 9.9
v -19.53126604 17.23347003 0
v -11.3281343 9.99541262 0
v -19.53126604 0 4.95
v -19.53126604 6.82445413 4.95
v -11.3281343 6.82445413 4.95
v -19.53126604 0 9.9
v -19.53126604 6.82445413 9.9
v -11.3281343 0 9.9
v -11.3281343 6.82445413 9.9
v -19.53126604 17.23347003 4.95
v -11.3281343 9.99541262 4.95
v 11.3281343 -17.23347003 0
v 19.53126604 -17.23347003 0
v 11.3281343 -17.23347003 4.95
v 19.53126604 -17.23347003 4.95
v 11.3281343 -6.82445413 4.95
v 19.53126604 -6.82445413 4.95
v 11.3281343 -6.82445413 9.9
v 19.53126604 -6.82445413 9.9
v 11.3281343 9.99541262 0
v 19.53126604 17.23347003 0
v 0 9.99541262 4.95
v 0 17.23347003 4.95
v 11.3281343 6.82445413 4.95
v 19.53126604 0 4.95
v 19.53126604 6.82445413 4.95
v 11.3281343 6.82445413 9.9
v 19.53126604 6.82445413 9.9
v 11.3281343 9.99541262 4.95
v 19.53126604 17.23347003 4.95
f 1 2 4
f 1 6 2
f 1 4 3
f 1 3 7
f 3 4 12
f 3 10 7
f 3 12 10
f 1 5 6
f 1 7 5
f 5 7 8
f 5 8 14
f 5 14 27
f 5 25 6
f 17 19 16
f 19 18 16
f 17 21 19
f 17 16 24
f 17 29 21
f 5 27 25
f 25 24 6
f 17 24 25
f 17 25 29
f 25 30 29
f 25 27 34
f 25 34 30
f 7 11 8
f 8 11 9
f 7 10 11
f 10 13 11
f 10 12 13
f 11 13 9
f 21 23 20
f 21 29 23
f 23 22 20
f 23 32 22
f 30 28 31
f 29 30 32
f 32 31 22
f 23 29 32
f 30 31 32
f 21 20 18
f 19 21 18
f 8 9 15
f 8 15 14
f 14 15 26
f 14 26 27
f 27 26 33
f 30 33 28
f 27 33 30
f 27 30 34
f 4 2 6
f 4 6 9
f 9 12 4
f 9 6 15
f 6 26 15
f 9 13 12
f 24 16 18
f 18 20 24
f 20 22 31
f 26 6 24
f 26 24 33
f 20 28 24
f 28 33 24
f 20 31 28
