# MAAS exact compiled indexed mesh
# program_hash badad1eb478a34c1229e4f87aa636ad153d31e0fb0181fbd2b3b3286f2b6ecb1
# geometry_hash d3f110d6d9f714096503c90f2b0eb8fd2e3907b5e3324d2683d398fa26816ae3
v -14.16076253 -9.33322985 0
v -8.49645752 -7.65324848 5.445
v -14.16076253 -9.33322985 9.9
v -8.49645752 -7.65324848 9.9
v -8.49645752 -3.80788054 5.445
v -8.49645752 -3.82662424 6.55875
v -8.49645752 -3.80788054 6.55875
v -8.49645752 -3.82662424 9.9
v -14.16076253 9.33322985 0
v -8.49645752 0.0187437 6.55875
v -8.49645752 0.0187437 7.6725
v -8.49645752 0.0187437 9.9
v -8.49645752 3.84536794 7.6725
v -8.49645752 3.82662424 8.78625
v -8.49645752 3.84536794 8.78625
v -8.49645752 3.82662424 9.9
v -14.16076253 9.33322985 9.9
v -8.49645752 7.67199218 8.78625
v -8.49645752 7.67199218 9.9
v 14.16076253 -9.33322985 0
v 0 -9.33322985 4.95
v 0 -7.65324848 5.445
v 0 -9.33322985 9.9
v 0 -7.65324848 9.9
v 0 -3.80788054 5.445
v 0 -3.80788054 6.55875
v 8.49645752 -7.65324848 5.445
v 14.16076253 -9.33322985 4.95
v 8.49645752 -7.65324848 9.9
v 14.16076253 -9.33322985 9.9
v 8.49645752 -3.80788054 5.445
v 8.49645752 -3.80788054 6.55875
v 8.49645752 -3.80788054 9.9
v 14.16076253 9.33322985 0
v 0 0.0187437 6.55875
v 4.53008458 2.5013056 6.35216868
v 0 0.0187437 7.6725
v 0 3.84536794 7.6725
v 0 3.84536794 8.78625
v 4.86450514 3.84536794 8.31953579
v 4.86450514 3.84536794 8.62218853
v 0 9.33322985 4.95
v 4.53008458 9.33322985 5.35662771
v 0 7.67199218 8.78625
v 0 7.67199218 9.9
v 0 9.33322985 9.9
v 4.86450514 6.58148612 7.50631399
v 4.86450514 4.91688096 8.78625
v 4.53008458 9.33322985 8.28468938
v 4.86450514 9.33322985 8.28468938
v 4.86450514 7.67199218 8.78625
v 4.86450514 7.67199218 9.20809051
v 4.86450514 9.33322985 9.46244588
v 8.49645752 0.0187437 6.55875
v 13.02824138 2.5013056 6.35216868
v 8.49645752 0 7.6725
v 8.49645752 0.0187437 7.6725
v 8.49645752 0 9.9
v 8.49645752 3.17329815 8.5192866
v 8.49645752 3.84536794 7.6725
v 8.49645752 3.84536794 8.31953579
v 8.49645752 3.84536794 8.62218853
v 8.49645752 3.84536794 8.78625
v 8.49645752 3.84536794 9.16264012
v 8.49645752 3.82662424 9.16998565
v 8.49645752 3.82662424 9.9
v 12.94463624 3.17329815 8.5192866
v 13.02824138 9.33322985 5.35662771
v 14.16076253 9.33322985 4.95
v 8.49645752 4.91688096 8.78625
v 8.49645752 7.67199218 9.20809051
v 8.49645752 7.67199218 9.9
v 12.94463624 6.58148612 7.50631399
v 12.94463624 9.33322985 8.28468938
v 13.02824138 9.33322985 8.28468938
v 12.94463624 9.33322985 9.46244588
v 14.16076253 9.33322985 9.9
f 1 9 20
f 1 21 3
f 3 23 4
f 3 4 8
f 1 3 17
f 3 8 12
f 3 12 16
f 3 21 23
f 4 23 24
f 1 17 9
f 3 16 17
f 9 17 42
f 16 19 17
f 17 19 46
f 17 46 42
f 19 45 46
f 1 20 21
f 20 28 21
f 20 34 28
f 9 34 20
f 9 42 34
f 34 69 28
f 34 42 69
f 21 28 23
f 29 24 23
f 30 23 28
f 29 23 30
f 29 30 33
f 30 28 69
f 33 30 58
f 43 42 46
f 43 69 42
f 43 46 49
f 49 46 53
f 72 46 45
f 49 53 50
f 53 46 77
f 58 77 66
f 30 77 58
f 30 69 77
f 43 68 69
f 68 75 69
f 66 77 72
f 72 77 46
f 69 75 77
f 53 77 76
f 74 76 75
f 75 76 77
f 2 5 6
f 2 6 8
f 2 8 4
f 5 7 6
f 2 4 22
f 2 25 5
f 2 22 25
f 4 24 22
f 5 26 7
f 5 25 26
f 27 22 24
f 31 25 22
f 27 31 22
f 27 24 29
f 32 26 25
f 31 32 25
f 27 29 31
f 31 29 32
f 32 29 33
f 7 10 11
f 6 7 12
f 6 12 8
f 7 11 12
f 7 35 10
f 7 26 35
f 10 37 11
f 10 35 37
f 54 35 26
f 32 54 26
f 32 33 54
f 33 56 54
f 33 58 56
f 57 37 35
f 54 57 35
f 54 56 57
f 11 13 12
f 13 15 14
f 12 13 14
f 12 14 16
f 11 38 13
f 13 39 15
f 11 37 38
f 13 38 39
f 40 39 38
f 60 38 37
f 40 41 39
f 57 60 37
f 40 38 60
f 41 62 39
f 62 63 39
f 56 58 57
f 57 58 60
f 40 60 61
f 60 59 61
f 59 63 62
f 60 58 59
f 59 58 65
f 58 66 65
f 59 65 63
f 63 65 64
f 14 15 19
f 14 19 16
f 15 18 19
f 15 44 18
f 18 45 19
f 15 39 44
f 18 44 45
f 48 39 63
f 51 44 39
f 48 51 39
f 51 52 44
f 72 45 44
f 52 72 44
f 48 63 70
f 63 64 70
f 64 65 70
f 65 66 70
f 66 72 70
f 70 72 71
f 52 71 72
f 40 48 41
f 41 48 62
f 40 47 48
f 47 50 48
f 40 61 47
f 50 51 48
f 51 53 52
f 50 53 51
f 52 53 71
f 47 61 67
f 59 67 61
f 59 62 67
f 62 70 67
f 48 70 62
f 47 67 73
f 53 76 71
f 70 71 76
f 67 76 73
f 70 76 67
f 73 76 74
f 36 50 47
f 36 43 49
f 36 49 50
f 36 47 55
f 36 55 68
f 47 73 55
f 36 68 43
f 55 73 75
f 55 75 68
f 73 74 75
