# MAAS exact compiled indexed mesh
# program_hash 1e58e2fc7ba4fa3f6bb5774b44c9949115c3c97af483465b86b9be307625a3b9
# geometry_hash 69e750e3920eceab08a8241ae97f397447c9b9f918622782338f2b40306ad007
v -12.63953551 -16.80646175 0
v -12.63953551 -16.80646175 5.36969955
v -2.5279071 -16.80646175 0
v -2.5279071 -16.80646175 5.36969955
v -9.98531169 -5.04345274 7.46234818
v -9.80074701 -5.04345274 7.46234818
v -9.80074701 -4.97782974 7.46234818
v -9.89302935 -5.04345274 8.92290646
v -9.98531169 -5.04345274 10.38346473
v -7.73829423 -6.18101094 10.01832517
v -7.73829423 -5.04345274 10.01832517
v -7.71522365 -5.04345274 10.38346473
v -7.46144721 -6.18101094 14.4
v -1.67131718 -6.18101094 10.01832517
v -1.05136857 -6.18101094 10.01832517
v -1.67131718 -5.04345274 10.01832517
v -1.05136857 -5.04345274 10.01832517
v -1.6482466 -5.04345274 10.38346473
v -1.6482466 -4.65277533 10.38346473
v -1.07443915 -5.04345274 10.38346473
v -1.36134287 -1.97715272 7.46234818
v -1.39447016 -6.18101094 14.4
v -1.32821559 -6.18101094 14.4
v -14.21947745 0.2569112 4.98614958
v -12.63953551 0.2569112 4.98614958
v -12.63953551 0.2569112 5.36969955
v -12.63953551 13.52842349 0
v -14.21947745 10.36853961 4.98614958
v -12.63953551 10.36853961 4.98614958
v -12.63953551 10.36853961 5.36969955
v -12.63953551 13.52842349 5.36969955
v -2.5279071 0.2569112 4.98614958
v -2.5279071 0.2569112 5.36969955
v -5.08360818 13.52842349 2.49546814
v -5.08360818 16.02897846 2.49546814
v -2.5279071 11.33753943 2.49546814
v -0.39216915 11.33753943 2.49546814
v -2.5279071 13.52842349 0
v -2.5279071 13.52842349 2.49546814
v -0.39216915 16.02897846 2.49546814
v -3.76948994 10.36853961 5.36969955
v -5.08360818 11.33753943 5.36969955
v -5.08360818 13.52842349 5.36969955
v -2.5279071 10.31372846 4.98614958
v -14.21947745 0.2569112 7.28744939
v -9.98531169 1.02352431 7.46234818
v -9.80074701 1.02352431 7.46234818
v -9.89302935 1.02352431 8.92290646
v -7.68558667 2.27923688 7.46234818
v -7.50102199 2.27923688 7.46234818
v -7.50102199 2.34485988 7.46234818
v -7.59330433 2.27923688 8.92290646
v -9.98531169 1.02352431 10.38346473
v -7.73829423 1.02352431 10.01832517
v -7.71522365 1.02352431 10.38346473
v -7.73829423 2.1610825 10.01832517
v -7.68558667 2.27923688 10.38346473
v -7.68558667 8.34621393 7.46234818
v -7.50102199 8.34621393 7.46234818
v -7.59330433 8.34621393 8.92290646
v -7.68558667 8.34621393 10.38346473
v -7.46144721 2.1610825 14.4
v -14.21947745 10.36853961 7.28744939
v -9.98531169 9.6019265 7.46234818
v -9.80074701 9.6019265 7.46234818
v -9.80074701 9.6675495 7.46234818
v -9.89302935 9.6019265 8.92290646
v -9.98531169 9.6019265 10.38346473
v -7.73829423 8.46436831 10.01832517
v -7.73829423 9.6019265 10.01832517
v -7.71522365 9.6019265 10.38346473
v -9.98531169 15.66890355 7.46234818
v -9.80074701 15.66890355 7.46234818
v -9.89302935 15.66890355 8.92290646
v -9.98531169 15.66890355 10.38346473
v -7.73829423 15.66890355 10.01832517
v -7.71522365 15.66890355 10.38346473
v -7.73829423 16.80646175 10.01832517
v -7.46144721 8.46436831 14.4
v -7.46144721 16.80646175 14.4
v -5.43856921 2.1610825 10.01832517
v -5.43856921 2.27923688 10.01832517
v -5.41549863 2.27923688 10.38346473
v -4.80841253 2.1610825 10.01832517
v -5.43856921 8.34621393 10.01832517
v -5.41549863 8.34621393 10.38346473
v -1.67131718 1.02352431 10.01832517
v -1.05136857 1.02352431 10.01832517
v -1.6482466 1.02352431 10.38346473
v -1.07443915 1.02352431 10.38346473
v -1.67131718 1.14167868 10.01832517
v -1.05136857 1.14167868 10.01832517
v -0.42121188 1.14167868 10.01832517
v -5.16172219 2.1610825 14.4
v -1.39447016 1.14167868 14.4
v -1.32821559 1.14167868 14.4
v -3.76948994 10.36853961 7.28744939
v -5.08360818 11.34475442 7.46234818
v -5.08360818 11.33753943 7.46234818
v -5.43856921 8.46436831 10.01832517
v -5.43856921 9.17072806 10.01832517
v -5.08360818 13.99169863 7.46234818
v -5.08360818 15.66890355 7.46234818
v -5.08360818 15.66890355 7.49057746
v -5.08360818 16.02897846 7.49057746
v -4.59528919 15.66890355 8.36655156
v -3.49708083 10.16767155 7.28744939
v -3.49708083 10.16767155 7.46234818
v -1.67131718 8.77741237 10.01832517
v -1.05136857 8.661172 10.01832517
v -1.67131718 9.48377212 10.01832517
v -1.67131718 9.6019265 10.01832517
v -1.05136857 9.48377212 10.01832517
v -1.05136857 9.6019265 10.01832517
v -1.6482466 9.6019265 10.38346473
v -1.6482466 9.99260391 10.38346473
v -1.07443915 9.6019265 10.38346473
v -0.52655871 8.56277015 10.01832517
v -0.39216915 16.02897846 7.49057746
v -1.67131718 15.66890355 10.01832517
v -1.05136857 15.66890355 10.01832517
v -1.6482466 15.66890355 10.38346473
v -1.07443915 15.66890355 10.38346473
v -1.67131718 16.80646175 10.01832517
v -1.05136857 16.80646175 10.01832517
v -5.16172219 8.46436831 14.4
v -4.42033759 8.46436831 14.4
v -2.13585475 9.48377212 14.4
v -1.39447016 9.48377212 14.4
v -1.32821559 9.48377212 14.4
v -0.58683099 9.48377212 14.4
v -1.39447016 16.80646175 14.4
v -1.32821559 16.80646175 14.4
v -0 -9.22274044 0
v -0 -9.22274044 5.36969955
v 11.37558196 -9.22274044 0
v 11.37558196 -9.22274044 5.36969955
v 2.82849554 -5.04345274 8.8255359
v 6.06421663 -5.04345274 8.8255359
v 5.01560848 -6.18101094 10.01832517
v 5.01560848 -5.04345274 10.01832517
v 4.9925379 -5.04345274 10.38346473
v 6.10193789 -0.15060579 10.38346473
v 4.73876146 -6.18101094 14.4
v 6.10193789 -0.15060579 12.93619312
v 7.26262594 -5.04345274 7.46234818
v 7.1703436 -5.04345274 8.92290646
v 7.26262594 -5.04345274 10.38346473
v 7.22987322 -0.15060579 7.98072754
v 8.4016629 -0.15060579 7.98072754
v 7.1703436 -0.15060579 8.92290646
v 7.26262594 -0.15060579 10.38346473
v 8.4016629 -0.15060579 12.93619312
v -0 0.2569112 4.98614958
v -0 0.2569112 5.36969955
v -0 11.04836314 3.19896325
v -0 13.52842349 0
v -0 13.52842349 3.19896325
v -0 10.31372846 4.98614958
v 1.1943582 10.36853961 5.36969955
v 1.1943582 13.52842349 5.34147027
v 1.1943582 13.52842349 5.36969955
v 1.1943582 14.85911059 5.34147027
v 11.37558196 0.2569112 4.98614958
v 11.37558196 0.2569112 5.36969955
v 14.21947745 0.2569112 4.98614958
v 11.37558196 13.52842349 0
v 11.37558196 10.36853961 4.98614958
v 11.37558196 10.36853961 5.36969955
v 14.21947745 10.36853961 4.98614958
v 11.37558196 13.52842349 5.36969955
v 2.82849554 1.02352431 8.8255359
v 0.62840783 1.33848238 10.01832517
v 1.24835645 1.45472275 10.01832517
v 0.62840783 2.1610825 10.01832517
v 0.62840783 2.27923688 10.01832517
v 0.65147842 2.27923688 10.38346473
v 0.65147842 2.66991429 10.38346473
v 1.24835645 2.1610825 10.01832517
v 1.24835645 2.27923688 10.01832517
v 1.22528587 2.27923688 10.38346473
v 0.93838214 5.3455369 7.46234818
v 0.62840783 8.34621393 10.01832517
v 0.65147842 8.34621393 10.38346473
v 1.24835645 8.34621393 10.01832517
v 1.22528587 8.34621393 10.38346473
v 5.12822055 2.27923688 8.8255359
v 6.17629654 1.02352431 7.46559678
v 6.10193789 1.02352431 7.98072754
v 6.06421663 1.02352431 8.8255359
v 6.10193789 1.02352431 8.82885645
v 6.17629654 2.27923688 7.46559678
v 6.15998215 2.27923688 7.57861713
v 6.10193789 2.14911922 7.98072754
v 6.15998215 2.27923688 8.8255359
v 5.01560848 1.02352431 10.01832517
v 4.9925379 1.02352431 10.38346473
v 5.01560848 1.14167868 10.01832517
v 5.01560848 1.84803844 10.01832517
v 6.10193789 1.02352431 10.38346473
v 6.10193789 1.14167868 10.01832517
v 6.10193789 2.14911922 10.01832517
v 6.15998215 2.27923688 10.01832517
v 5.12822055 8.34621393 8.8255359
v 6.17629654 8.34621393 7.46559678
v 6.15998215 8.34621393 7.57861713
v 6.15998215 8.34621393 8.8255359
v 6.15998215 8.34621393 10.01832517
v 0.16387026 2.1610825 14.4
v 0.90525486 2.1610825 14.4
v 0.97150943 2.1610825 14.4
v 1.71289402 2.1610825 14.4
v 3.99737686 1.14167868 14.4
v 4.73876146 1.14167868 14.4
v 6.10193789 1.14167868 12.93619312
v 7.03848647 1.14167868 14.4
v 1.1943582 10.16767155 7.28744939
v 1.1943582 10.36853961 7.28744939
v 1.1943582 10.16767155 7.46234818
v 2.82849554 9.6019265 8.8255359
v 0.62840783 8.46436831 10.01832517
v 0.62840783 8.77932638 10.01832517
v 1.24835645 8.46436831 10.01832517
v 1.24835645 8.89556675 10.01832517
v 0.09614984 15.66890355 7.46234818
v 1.1943582 14.85911059 7.46234818
v 0.09614984 15.66890355 8.36655156
v 2.82849554 15.66890355 8.8255359
v 6.10193789 8.47633159 7.98072754
v 6.17629654 9.6019265 7.46559678
v 6.10193789 9.6019265 7.98072754
v 6.06421663 9.6019265 8.8255359
v 6.10193789 9.6019265 8.82885645
v 5.01560848 9.48377212 10.01832517
v 5.01560848 9.6019265 10.01832517
v 4.9925379 9.6019265 10.38346473
v 6.10193789 8.47633159 10.01832517
v 6.10193789 9.48377212 10.01832517
v 6.10193789 9.6019265 10.38346473
v 6.10193789 10.7760566 10.38346473
v 6.06421663 15.66890355 8.8255359
v 5.01560848 15.66890355 10.01832517
v 4.9925379 15.66890355 10.38346473
v 5.01560848 16.80646175 10.01832517
v 0.90525486 8.46436831 14.4
v 0.97150943 8.46436831 14.4
v 4.73876146 9.48377212 14.4
v 6.10193789 9.48377212 12.93619312
v 7.03848647 9.48377212 14.4
v 6.10193789 10.7760566 12.93619312
v 4.73876146 16.80646175 14.4
v 7.26242068 0.01608377 7.46559678
v 7.26262594 1.02352431 7.46234818
v 7.26242068 1.02352431 7.46559678
v 8.47602155 0.01608377 7.46559678
v 8.47602155 2.27923688 7.46559678
v 8.47602155 2.27923688 8.83540212
v 9.56235096 2.27923688 7.46234818
v 9.47006861 2.27923688 8.92290646
v 7.29226291 2.31580879 10.38346473
v 8.47602155 2.27923688 10.38346473
v 8.47602155 2.31580879 10.38346473
v 9.56235096 2.27923688 10.38346473
v 8.47602155 8.34621393 7.46559678
v 8.47602155 8.34621393 8.83540212
v 9.56235096 8.34621393 7.46234818
v 9.47006861 8.34621393 8.92290646
v 7.29226291 8.30964202 10.38346473
v 8.47602155 8.30964202 10.38346473
v 8.47602155 8.34621393 10.38346473
v 9.56235096 8.34621393 10.38346473
v 14.21947745 0.2569112 7.28744939
v 8.47602155 0.01608377 12.42106236
v 7.16352154 2.31580879 12.42106236
v 8.47602155 2.31580879 12.42106236
v 7.13097407 1.14167868 12.93619312
v 7.13097407 2.14911922 12.93619312
v 8.4016629 2.14911922 12.93619312
v 7.16352154 8.30964202 12.42106236
v 8.47602155 8.30964202 12.42106236
v 7.26262594 9.6019265 7.46234818
v 7.26242068 9.6019265 7.46559678
v 7.26242068 10.60936704 7.46559678
v 7.22987322 10.7760566 7.98072754
v 8.47602155 10.60936704 7.46559678
v 8.4016629 10.7760566 7.98072754
v 7.1703436 10.7760566 8.92290646
v 7.26262594 10.7760566 10.38346473
v 7.26262594 15.66890355 7.46234818
v 7.1703436 15.66890355 8.92290646
v 7.26262594 15.66890355 10.38346473
v 14.21947745 10.36853961 7.28744939
v 8.47602155 10.60936704 12.42106236
v 7.13097407 8.47633159 12.93619312
v 7.13097407 9.48377212 12.93619312
v 8.4016629 8.47633159 12.93619312
v 8.4016629 10.7760566 12.93619312
f 1 2 25
f 1 3 2
f 2 4 26
f 1 25 29
f 1 27 3
f 2 26 25
f 2 3 4
f 3 38 4
f 4 38 32
f 4 33 26
f 4 32 33
f 1 31 27
f 1 29 31
f 27 31 34
f 29 30 31
f 30 42 31
f 30 41 42
f 31 43 34
f 31 42 43
f 3 27 38
f 32 38 36
f 32 36 44
f 27 34 38
f 38 34 39
f 38 39 36
f 134 136 135
f 134 135 154
f 134 157 136
f 135 155 154
f 135 137 155
f 135 136 137
f 136 167 137
f 137 165 155
f 137 164 165
f 134 154 156
f 134 156 157
f 154 159 156
f 157 156 158
f 157 158 171
f 171 162 160
f 171 158 161
f 171 161 162
f 136 157 167
f 137 167 164
f 164 167 168
f 157 171 167
f 167 171 168
f 169 171 160
f 168 171 169
f 24 25 26
f 24 29 25
f 24 26 45
f 24 45 63
f 24 28 29
f 24 63 28
f 26 33 45
f 28 30 29
f 28 63 30
f 30 63 97
f 33 155 45
f 32 154 33
f 33 154 155
f 32 159 154
f 45 155 165
f 32 44 159
f 30 97 41
f 45 165 272
f 169 160 218
f 164 166 165
f 164 170 166
f 165 166 272
f 166 170 272
f 164 168 170
f 170 292 272
f 169 218 292
f 168 169 170
f 169 292 170
f 5 6 8
f 5 8 48
f 5 48 46
f 19 20 90
f 46 48 47
f 17 138 141
f 138 148 141
f 138 139 148
f 139 147 148
f 141 148 142
f 142 148 143
f 142 143 197
f 143 148 152
f 147 152 148
f 147 151 152
f 88 196 172
f 172 191 190
f 172 196 191
f 191 196 197
f 191 197 200
f 143 200 197
f 10 12 11
f 10 62 12
f 12 62 55
f 10 13 62
f 10 11 14
f 11 16 14
f 14 16 18
f 10 14 13
f 13 22 62
f 22 94 62
f 14 18 22
f 18 19 22
f 13 14 22
f 19 89 22
f 22 95 94
f 22 89 95
f 54 55 56
f 55 62 56
f 54 56 87
f 56 81 87
f 81 84 87
f 84 91 87
f 56 94 81
f 56 62 94
f 87 91 95
f 87 95 89
f 9 11 12
f 8 9 48
f 9 53 48
f 9 55 53
f 9 12 55
f 6 146 8
f 8 146 9
f 9 146 11
f 11 138 16
f 16 17 18
f 17 20 18
f 18 20 19
f 19 90 89
f 53 55 54
f 47 48 188
f 48 53 188
f 53 54 188
f 54 87 172
f 87 89 90
f 87 90 88
f 11 146 138
f 16 138 17
f 138 146 139
f 139 146 147
f 146 151 147
f 146 252 149
f 146 253 252
f 146 149 151
f 47 188 253
f 54 172 188
f 87 88 172
f 172 189 188
f 172 190 189
f 188 254 253
f 189 190 191
f 252 253 254
f 15 20 17
f 15 23 20
f 20 23 90
f 23 96 90
f 23 209 96
f 23 210 209
f 88 90 92
f 88 92 93
f 90 96 92
f 15 17 141
f 15 141 140
f 140 141 142
f 15 140 144
f 15 144 23
f 23 211 210
f 23 212 211
f 23 213 212
f 23 144 213
f 140 142 214
f 142 197 214
f 140 214 144
f 144 214 213
f 173 175 174
f 88 93 196
f 174 175 179
f 93 173 196
f 173 174 196
f 174 198 196
f 174 199 198
f 175 210 179
f 179 210 211
f 196 198 214
f 196 214 197
f 64 65 67
f 64 67 74
f 64 74 72
f 72 74 73
f 116 117 123
f 114 220 235
f 121 242 228
f 220 232 233
f 220 233 235
f 233 239 235
f 235 239 236
f 236 239 240
f 236 240 291
f 240 288 291
f 228 242 291
f 236 291 243
f 228 291 241
f 241 291 290
f 242 243 291
f 287 291 288
f 287 290 291
f 69 71 70
f 76 77 78
f 69 80 71
f 69 79 80
f 71 80 77
f 77 80 78
f 69 70 101
f 69 101 100
f 70 112 101
f 76 78 120
f 78 124 120
f 101 111 109
f 101 112 111
f 111 112 115
f 120 124 122
f 69 100 126
f 69 126 79
f 79 126 80
f 80 126 127
f 80 127 128
f 78 132 124
f 78 80 132
f 80 128 132
f 111 115 129
f 115 116 129
f 116 122 129
f 128 129 132
f 122 124 129
f 124 132 129
f 67 68 74
f 68 70 71
f 68 71 77
f 73 74 104
f 68 75 74
f 68 77 75
f 74 75 106
f 75 77 76
f 65 230 67
f 67 230 68
f 68 230 70
f 73 104 103
f 74 106 104
f 75 227 106
f 70 220 112
f 112 114 115
f 114 117 115
f 115 117 116
f 75 289 227
f 75 76 289
f 76 120 228
f 116 123 122
f 120 122 123
f 120 123 121
f 65 281 230
f 70 230 220
f 112 220 114
f 76 228 289
f 289 225 227
f 120 121 228
f 220 230 231
f 220 231 232
f 230 281 282
f 231 233 232
f 228 241 289
f 241 290 289
f 281 283 282
f 281 289 283
f 283 290 284
f 284 290 287
f 283 289 290
f 110 113 118
f 113 114 118
f 114 222 118
f 121 123 125
f 113 130 114
f 114 130 117
f 117 130 123
f 130 131 133
f 123 130 125
f 125 130 133
f 114 224 222
f 221 222 223
f 222 224 223
f 114 235 224
f 121 125 244
f 121 244 242
f 224 235 234
f 234 235 236
f 242 244 243
f 221 223 245
f 223 246 245
f 131 245 246
f 131 246 251
f 246 247 251
f 125 133 244
f 131 251 133
f 133 251 244
f 234 236 247
f 236 251 247
f 236 243 251
f 243 244 251
f 49 50 52
f 49 52 60
f 49 60 58
f 58 60 59
f 178 181 186
f 180 187 203
f 187 195 203
f 185 208 204
f 204 208 207
f 257 263 261
f 261 263 262
f 257 259 263
f 260 262 268
f 265 270 267
f 262 269 268
f 262 271 269
f 269 271 270
f 259 267 263
f 262 263 271
f 263 267 271
f 267 270 271
f 81 83 82
f 81 82 84
f 82 173 84
f 84 92 91
f 84 93 92
f 84 173 93
f 82 175 173
f 82 176 175
f 81 94 83
f 94 95 127
f 85 86 126
f 83 126 86
f 83 94 126
f 94 127 126
f 91 92 95
f 95 209 127
f 92 96 95
f 95 96 209
f 127 209 128
f 128 209 129
f 129 209 130
f 130 209 131
f 85 100 109
f 100 101 109
f 85 109 110
f 85 110 118
f 85 118 183
f 109 111 113
f 109 113 110
f 85 126 100
f 111 130 113
f 111 129 130
f 175 176 210
f 176 177 210
f 177 178 210
f 178 184 210
f 183 245 184
f 209 210 245
f 184 245 210
f 131 209 245
f 118 221 183
f 118 222 221
f 183 221 245
f 52 57 60
f 57 61 60
f 57 82 83
f 57 83 86
f 57 86 61
f 61 86 85
f 50 193 52
f 52 193 57
f 57 193 82
f 59 60 206
f 60 61 206
f 61 85 206
f 50 192 193
f 50 256 192
f 50 258 256
f 82 193 187
f 82 187 176
f 176 180 177
f 177 181 178
f 177 180 181
f 176 187 180
f 59 206 205
f 59 205 264
f 59 264 266
f 85 204 206
f 85 183 204
f 178 186 184
f 183 184 186
f 183 186 185
f 183 185 204
f 187 193 195
f 204 207 206
f 256 259 257
f 256 258 259
f 264 265 266
f 258 267 259
f 258 266 267
f 265 267 266
f 179 181 180
f 174 179 199
f 179 180 199
f 180 203 199
f 198 199 201
f 199 202 201
f 199 203 202
f 185 237 208
f 179 211 181
f 181 211 186
f 185 186 246
f 211 212 246
f 186 211 246
f 212 247 246
f 198 215 214
f 198 201 215
f 213 214 249
f 215 276 216
f 216 276 277
f 214 215 216
f 214 216 249
f 212 213 249
f 212 249 247
f 216 277 249
f 185 223 234
f 223 224 234
f 185 234 237
f 234 238 237
f 185 246 223
f 234 247 248
f 234 248 238
f 249 294 295
f 248 249 295
f 247 249 248
f 249 274 260
f 260 268 279
f 260 279 294
f 249 260 294
f 249 277 274
f 45 97 63
f 45 107 97
f 45 217 107
f 45 292 217
f 45 272 292
f 292 218 217
f 5 7 6
f 5 46 7
f 7 46 47
f 7 47 21
f 6 7 21
f 6 21 146
f 21 47 253
f 21 253 146
f 64 66 65
f 64 72 66
f 66 72 73
f 66 73 102
f 66 102 98
f 65 66 99
f 65 99 108
f 66 98 99
f 73 103 102
f 65 108 281
f 281 108 219
f 281 219 226
f 289 226 225
f 281 226 289
f 49 51 50
f 49 58 51
f 51 58 59
f 51 59 182
f 50 51 182
f 50 182 258
f 59 266 182
f 182 266 258
f 143 153 145
f 149 252 255
f 149 255 150
f 149 150 151
f 150 152 151
f 150 255 153
f 150 153 152
f 143 152 153
f 153 255 273
f 188 193 192
f 188 189 194
f 188 194 193
f 188 192 254
f 189 191 201
f 189 202 194
f 193 194 202
f 193 202 195
f 189 201 202
f 191 215 201
f 191 200 215
f 195 202 203
f 143 215 200
f 143 145 215
f 145 276 215
f 252 254 255
f 192 255 254
f 192 256 255
f 255 256 257
f 255 257 261
f 255 275 273
f 255 261 275
f 153 273 275
f 260 275 262
f 261 262 275
f 260 274 275
f 274 278 275
f 145 153 276
f 153 278 276
f 276 278 277
f 153 275 278
f 274 277 278
f 206 207 237
f 207 208 237
f 205 206 230
f 206 229 231
f 206 231 230
f 205 230 264
f 206 237 229
f 229 237 231
f 231 237 233
f 233 237 238
f 233 238 239
f 238 248 239
f 239 248 240
f 240 248 250
f 240 250 288
f 248 297 250
f 268 269 280
f 269 270 280
f 268 280 279
f 279 280 294
f 230 282 264
f 282 283 285
f 264 285 265
f 264 282 285
f 265 285 270
f 283 284 286
f 283 286 285
f 284 287 286
f 270 285 280
f 280 285 293
f 285 286 297
f 286 287 297
f 287 288 297
f 280 293 297
f 285 297 293
f 250 297 288
f 294 296 295
f 248 295 297
f 295 296 297
f 280 296 294
f 280 297 296
f 35 39 34
f 37 36 39
f 37 44 36
f 37 156 44
f 37 158 156
f 35 40 39
f 37 39 40
f 37 40 158
f 41 99 42
f 43 42 98
f 98 42 99
f 97 99 41
f 105 34 43
f 35 34 105
f 43 98 102
f 43 102 103
f 105 43 103
f 159 44 156
f 35 105 40
f 105 119 40
f 40 119 225
f 97 107 108
f 97 108 99
f 105 103 104
f 105 104 106
f 107 219 108
f 107 217 219
f 105 106 119
f 119 106 227
f 119 227 225
f 160 226 218
f 40 161 158
f 163 162 161
f 40 163 161
f 40 225 163
f 162 226 160
f 163 226 162
f 163 225 226
f 218 219 217
f 218 226 219
