# MAAS exact compiled indexed mesh
# program_hash 20bf9153fd2a84cd9faee67e04c26f75d52c19de56b417ef0806e90612a19b05
# geometry_hash 93369d3f987e0d397f989afeddfd5a4925f70c5c3089f789ddba92c2bbcb3208
v -13.90620887 -13.71676635 0
v -12.73574325 -12.54630073 3.3
v -13.90620887 -8.3964681 0
v -12.73574325 -7.69418873 3.3
v -8.58591062 -13.71676635 0
v -7.88363125 -12.54630073 3.3
v -8.58591062 -8.3964681 0
v -11.56527764 -11.37583512 6.6
v -11.56527764 -6.99190936 6.6
v -7.18135188 -11.37583512 6.6
v -13.90620887 -3.07616985 0
v -12.73574325 -2.84207672 3.3
v -8.58591062 -3.07616985 0
v -11.56527764 -2.6079836 6.6
v -6.11873061 -13.71676635 0
v -10.39481202 -10.2053695 9.9
v -9.22434641 -9.03490389 13.2
v -8.05388079 -7.86443827 16.5
v -10.39481202 -6.28962999 9.9
v -10.39481202 -2.37389048 9.9
v -9.22434641 -5.58735062 13.2
v -8.05388079 -4.88507125 16.5
v -9.22434641 -2.13979735 13.2
v -8.05388079 -1.90570423 16.5
v -6.47907251 -10.2053695 9.9
v -6.11873061 -7.86443827 16.5
v -13.90620887 2.2441284 0
v -12.73574325 2.01003528 3.3
v -8.58591062 2.2441284 0
v -11.56527764 1.77594216 6.6
v -11.56527764 6.15986792 6.6
v -13.90620887 7.56442665 0
v -12.73574325 6.86214728 3.3
v -13.90620887 12.8847249 0
v -12.73574325 11.71425929 3.3
v -8.58591062 7.56442665 0
v -8.58591062 12.8847249 0
v -7.88363125 11.71425929 3.3
v -11.56527764 10.54379367 6.6
v -7.18135188 10.54379367 6.6
v -6.11873061 6.03538565 0
v -3.26561237 7.56442665 0
v -3.26561237 12.8847249 0
v -3.03151924 11.71425929 3.3
v -2.79742612 10.54379367 6.6
v -10.39481202 1.54184903 9.9
v -10.39481202 5.45758855 9.9
v -9.22434641 1.30775591 13.2
v -8.05388079 1.07366279 16.5
v -9.22434641 4.75530918 13.2
v -8.05388079 4.05302981 16.5
v -10.39481202 9.37332806 9.9
v -9.22434641 8.20286244 13.2
v -8.05388079 7.03239683 16.5
v -6.11873061 6.03538565 16.5
v -6.47907251 9.37332806 9.9
v -2.563333 9.37332806 9.9
v -5.77679314 8.20286244 13.2
v -5.07451377 7.03239683 16.5
v -2.32923987 8.20286244 13.2
v -2.09514675 7.03239683 16.5
v 6.11873522 -13.71676635 0
v 6.67270476 -12.54630073 3.3
v 7.37498413 -13.71676635 0
v 7.37498413 -8.3964681 0
v 12.69528238 -13.71676635 0
v 11.52481677 -12.54630073 3.3
v 12.69528238 -8.3964681 0
v 11.52481677 -7.69418873 3.3
v 10.35435115 -11.37583512 6.6
v 10.35435115 -6.99190936 6.6
v 7.37498413 -3.07616985 0
v 12.69528238 -3.07616985 0
v 11.52481677 -2.84207672 3.3
v 10.35435115 -2.6079836 6.6
v 6.11873522 -7.86443827 16.5
v 6.84295431 -7.86443827 16.5
v 6.84295431 -4.88507125 16.5
v 6.84295431 -1.90570423 16.5
v 9.18388554 -10.2053695 9.9
v 8.01341992 -9.03490389 13.2
v 9.18388554 -6.28962999 9.9
v 9.18388554 -2.37389048 9.9
v 8.01341992 -5.58735062 13.2
v 8.01341992 -2.13979735 13.2
v 6.04490957 6.23435209 0
v 6.11873522 6.03538565 0
v 2.05468588 7.56442665 0
v 2.05468588 12.8847249 0
v 1.82059276 11.71425929 3.3
v 6.04490957 12.8847249 0
v 6.46799619 12.8847249 0
v 6.42474766 13.20459791 0
v 6.61059214 11.83006249 2.97350552
v 6.62624935 11.71425929 3.3
v 6.63479256 11.65107229 3.47814885
v 1.58649964 10.54379367 6.6
v 6.34374233 11.16598856 4.84578945
v 6.04490957 10.66793397 6.25
v 5.9704254 10.54379367 6.6
v 6.77054428 10.64703091 6.30893389
v 6.78684092 10.5264984 6.64876214
v 6.72176702 11.00779533 6.25
v 6.34297539 10.42967687 6.92173988
v 6.34145531 10.40865033 6.98102191
v 6.79692587 10.45190848 6.85906026
v 6.28252169 10.31915663 7.23333963
v 6.2810016 10.29813009 7.29262166
v 7.37498413 2.2441284 0
v 12.69528238 2.2441284 0
v 11.52481677 2.01003528 3.3
v 12.69528238 6.23435209 0
v 12.41499847 6.23435209 0.79022989
v 10.35435115 1.77594216 6.6
v 10.35435115 6.15986792 6.6
v 10.10642303 6.23435209 7.29900628
v 10.02157509 6.54123038 7.53822577
v 10.0284946 6.66150409 7.51871696
v 10.03805878 6.77456086 7.49175182
v 10.77910932 6.23435209 5.40244073
v 7.20967888 7.3991214 0
v 8.03969195 7.56442665 0
v 8.40858578 8.04866903 0
v 8.5749476 8.12660954 0
v 8.30328291 8.49272543 0
v 8.39199955 8.58144207 0
v 9.25514434 6.87639904 0
v 10.07393952 7.56442665 0
v 9.93851362 10.05698638 0
v 7.7428292 13.38280952 0
v 10.21291402 13.7167781 0
v 7.20370837 12.12880203 3.3
v 11.47569944 10.05698638 0
v 12.69528238 7.34152396 0
v 13.90621347 7.50524826 0
v 13.72800186 8.82332981 0
v 11.52481677 6.86214728 3.3
v 11.52481677 7.1832708 3.3
v 12.66218583 7.97055653 3.3
v 10.59179192 10.91453673 0
v 13.39403329 11.29341463 0
v 10.08178431 6.98816515 7.36847246
v 10.59179192 10.91453673 7.9725
v 6.84295431 1.07366279 16.5
v 6.84295431 4.05302981 16.5
v 6.04490957 6.23435209 16.5
v 6.11873522 6.03538565 16.5
v 6.84295431 6.23435209 16.5
v 1.35240651 9.37332806 9.9
v 6.04490957 9.75443993 8.82549669
v 6.12049493 9.89262355 8.43590305
v 5.26814603 9.37332806 9.9
v 1.11831339 8.20286244 13.2
v 0.88422027 7.03239683 16.5
v 4.56586666 8.20286244 13.2
v 6.04490957 8.20286244 13.2
v 6.10086209 7.80635771 14.3179018
v 3.86358729 7.03239683 16.5
v 6.04490957 7.03239683 16.5
v 6.15850735 7.26422113 15.8463967
v 6.21355574 7.35591946 15.58786327
v 6.84295431 7.03239683 16.5
v 9.18388554 1.54184903 9.9
v 9.18388554 5.45758855 9.9
v 8.01341992 1.30775591 13.2
v 8.01341992 4.75530918 13.2
v 7.31580574 6.61419018 15.16684701
v 7.31580574 6.61419018 16.5
v 8.10665467 6.72111715 16.5
v 10.00589878 10.14544204 9.9
v 7.14634525 7.86754704 14.14538518
v 7.14718906 7.86130605 14.16298097
v 7.14883309 7.84914654 14.19726337
v 9.00281324 8.82870406 13.2
v 7.20967888 7.3991214 15.46606012
v 6.99246352 7.73904723 14.50767635
v 7.20887877 7.40503911 16.5
v 7.9997277 7.51196608 16.5
f 1 5 2
f 1 3 5
f 1 2 4
f 1 4 3
f 5 15 6
f 5 7 15
f 2 5 6
f 6 15 10
f 3 7 5
f 7 13 15
f 2 6 8
f 2 8 9
f 2 9 4
f 8 19 9
f 6 10 8
f 8 10 16
f 3 12 11
f 3 11 7
f 3 4 12
f 11 27 13
f 11 12 28
f 7 11 13
f 13 29 15
f 29 36 15
f 4 14 12
f 4 9 14
f 9 20 14
f 12 14 30
f 10 15 25
f 36 41 15
f 8 16 19
f 10 25 16
f 16 25 17
f 16 21 19
f 16 17 21
f 17 25 26
f 17 18 22
f 17 26 18
f 9 19 20
f 14 20 46
f 19 23 20
f 19 21 23
f 20 23 48
f 17 22 21
f 21 22 24
f 21 24 23
f 18 55 22
f 23 24 49
f 22 55 24
f 25 15 26
f 18 26 55
f 11 28 27
f 27 33 32
f 27 32 29
f 27 28 33
f 13 27 29
f 29 32 36
f 12 30 28
f 28 30 31
f 14 46 30
f 28 31 33
f 30 47 31
f 32 34 36
f 32 33 35
f 32 35 34
f 34 35 38
f 34 37 36
f 34 38 37
f 33 39 35
f 31 39 33
f 31 52 39
f 35 39 40
f 39 56 40
f 35 40 38
f 36 42 41
f 36 37 42
f 37 43 42
f 37 44 43
f 37 38 44
f 42 88 41
f 42 43 88
f 43 44 90
f 40 57 45
f 38 40 45
f 38 45 44
f 44 45 97
f 30 46 47
f 20 48 46
f 46 48 50
f 46 50 47
f 47 50 53
f 23 49 48
f 48 51 50
f 48 49 51
f 24 55 49
f 50 54 53
f 49 55 51
f 50 51 54
f 51 55 54
f 31 47 52
f 39 52 56
f 47 53 52
f 52 58 56
f 52 53 58
f 53 54 59
f 54 55 59
f 59 55 147
f 59 147 61
f 40 56 57
f 56 60 57
f 56 58 60
f 45 57 149
f 57 153 149
f 57 60 153
f 53 59 58
f 58 59 61
f 58 61 60
f 60 154 153
f 60 61 154
f 63 62 64
f 64 62 87
f 63 76 62
f 63 64 66
f 64 65 66
f 63 66 67
f 66 68 67
f 65 68 66
f 67 68 69
f 63 67 76
f 70 71 80
f 67 69 70
f 69 71 70
f 64 87 65
f 65 72 68
f 65 87 72
f 72 109 73
f 68 72 73
f 68 73 69
f 69 73 74
f 73 110 74
f 71 75 82
f 75 114 83
f 69 74 71
f 71 74 75
f 74 111 75
f 77 78 76
f 78 79 76
f 79 144 76
f 144 145 76
f 67 70 76
f 71 82 80
f 70 80 76
f 81 82 84
f 80 82 81
f 80 81 76
f 77 81 84
f 77 76 81
f 75 83 82
f 82 83 84
f 83 85 84
f 83 163 85
f 78 84 85
f 77 84 78
f 79 85 165
f 78 85 79
f 86 41 88
f 112 87 41
f 86 112 41
f 86 88 89
f 43 89 88
f 43 90 89
f 86 89 91
f 89 94 91
f 90 95 94
f 90 98 95
f 89 90 94
f 45 149 97
f 44 97 90
f 90 97 100
f 97 152 100
f 100 150 108
f 108 150 151
f 90 99 98
f 90 100 99
f 99 100 101
f 100 105 101
f 100 108 105
f 101 105 106
f 72 87 109
f 109 87 112
f 73 109 110
f 74 110 111
f 109 112 110
f 110 112 113
f 110 113 111
f 111 113 120
f 114 115 163
f 115 142 116
f 115 116 164
f 116 118 117
f 116 119 118
f 116 142 119
f 75 111 114
f 111 120 114
f 115 120 137
f 115 137 142
f 114 120 115
f 137 138 142
f 61 147 154
f 145 148 76
f 148 147 76
f 154 147 158
f 146 158 147
f 146 159 158
f 146 147 148
f 97 149 152
f 149 153 155
f 100 152 150
f 149 155 152
f 150 152 155
f 150 155 156
f 153 158 155
f 153 154 158
f 155 157 156
f 155 161 157
f 155 158 161
f 158 160 161
f 158 159 160
f 83 114 163
f 85 163 165
f 163 164 165
f 115 164 163
f 164 166 165
f 116 148 164
f 144 165 166
f 79 165 144
f 144 166 145
f 148 166 164
f 145 166 148
f 171 176 173
f 91 96 99
f 91 94 96
f 99 102 104
f 99 101 102
f 99 104 107
f 171 172 176
f 86 91 121
f 91 92 121
f 92 99 94
f 91 99 92
f 94 99 96
f 95 98 101
f 98 104 102
f 98 99 107
f 98 102 101
f 98 107 104
f 86 121 127
f 86 127 112
f 112 127 134
f 112 134 137
f 112 137 113
f 113 137 120
f 121 122 127
f 123 125 124
f 124 125 126
f 122 128 127
f 124 126 129
f 124 129 133
f 134 138 137
f 146 148 159
f 148 162 159
f 150 156 151
f 108 151 157
f 105 108 172
f 105 171 106
f 105 172 171
f 151 156 157
f 108 157 172
f 157 176 172
f 157 161 176
f 161 175 176
f 160 162 161
f 161 162 175
f 159 162 160
f 119 142 167
f 118 119 167
f 116 117 148
f 117 118 148
f 118 167 148
f 148 167 175
f 173 176 175
f 148 175 162
f 93 103 132
f 121 123 122
f 121 125 123
f 92 125 121
f 125 130 126
f 122 123 128
f 123 124 128
f 126 140 129
f 92 93 125
f 93 130 125
f 93 132 130
f 130 132 131
f 126 130 140
f 130 131 140
f 103 131 132
f 127 128 134
f 124 136 128
f 128 136 134
f 124 133 136
f 134 136 135
f 135 136 139
f 133 141 136
f 136 143 139
f 129 140 133
f 133 140 141
f 136 141 143
f 131 170 143
f 103 177 131
f 135 139 169
f 143 170 169
f 131 177 170
f 139 143 169
f 169 170 174
f 170 177 174
f 169 174 178
f 174 177 178
f 168 169 177
f 169 178 177
f 92 94 103
f 92 103 93
f 94 95 103
f 95 101 103
f 101 106 103
f 134 135 168
f 134 168 138
f 103 106 171
f 142 168 167
f 138 168 142
f 103 171 173
f 103 173 175
f 135 169 168
f 103 175 177
f 167 168 175
f 168 177 175
f 131 143 140
f 140 143 141
f 15 41 55
f 55 26 15
f 147 55 41
f 62 76 87
f 41 87 147
f 76 147 87
