# MAAS exact compiled indexed mesh
# program_hash 6c1c959c439b29d5a1fe2bac797739405b3583ab3e8db73ba47268f943cccf77
# geometry_hash 74d9707f9cd0984a5e88a62cbfe204e9a2bca012f5c52a2335ae215dbaa52d2a
v -14.38107454 -9.50410102 0
v -14.38107454 -9.50410102 5.3625
v -13.23355626 -8.2522629 5.3625
v -14.38107454 -1.74436339 5.15625
v -14.38107454 -1.74436339 5.3625
v -14.57406261 -0.64987363 5.15625
v -14.38107454 -0.61584463 5.15625
v -14.38107454 -0.61584463 5.3625
v -5.73390199 -6.92987151 5.3625
v -13.23355626 -8.2522629 14.64375
v -14.57406261 -0.64987363 14.64375
v -4.36522825 -6.24080861 8.448
v -1.35699365 -5.92463042 8.448
v -4.45662603 -6.24080861 13.1604
v -5.73390199 -6.92987151 14.64375
v -3.22499566 -5.00168961 13.1604
v -1.35699365 -5.91502412 13.1604
v -4.79704221 -2.13237325 8.448
v -1.35699365 -3.21428319 8.448
v -2.99490814 -1.94296132 8.448
v -2.95911578 -1.60241975 8.448
v -2.65603412 -1.90734423 8.448
v -1.35699365 -1.77080957 8.448
v -4.88843999 -2.13237325 13.1604
v -2.90146848 -1.92353412 13.1604
v -2.867718 -1.60241975 13.1604
v -1.35699365 -1.76120328 13.1604
v -0.13206079 -1.88994891 13.1604
v -7.39164506 1.2408428 5.3625
v -14.38107454 9.27347071 0
v -14.38107454 9.27347071 5.3625
v -8.29179305 7.64572858 5.3625
v -7.07440833 0.67251776 5.3625
v -7.39164506 1.2408428 16.5
v -8.29179305 7.64572858 16.5
v -4.88843999 0.59365667 8.448
v -4.88843999 1.59264533 8.448
v -1.35699365 1.08996909 8.448
v -1.35699365 1.5903786 8.448
v -1.76623881 1.92901068 8.448
v -1.75155294 2.03350606 8.448
v -0.91598899 2.15093691 8.25
v -0.91598899 2.15093691 8.448
v -7.07440833 0.67251776 14.64375
v -4.73611035 0.59365667 16.302
v -4.73611035 1.61405387 16.302
v -1.35699365 1.06856055 16.302
v -1.35699365 2.08895775 16.302
v -0.91598899 2.15093691 16.302
v -0.91598899 2.15093691 16.5
v -0.91598899 4.94682592 8.448
v -0.91598899 8.68233024 8.25
v -0.91598899 4.92541739 16.302
v -0.91598899 8.68233024 16.5
v 1.57986143 -8.35658274 5.3625
v 1.23277222 -0.03071975 5.643
v 2.29955136 -1.50919046 5.3625
v 2.68285689 -0.97804332 5.643
v 4.18237187 -0.97804332 5.643
v 12.74208462 -9.50410102 0
v 9.98347923 -9.23983857 5.3625
v 12.74208462 -9.50410102 5.3625
v 10.70316916 -2.39244629 5.3625
v 1.57986143 -8.35658274 8.25
v 1.65124094 -6.24080861 8.448
v 0.62402118 -5.2073431 8.448
v 6.97089732 -5.44417985 10.3554
v 1.74263873 -6.24080861 13.1604
v 6.97089732 -5.44417985 15.9654
v 1.82171263 -4.61887887 8.448
v 1.82171263 -4.74129364 9.11137717
v 1.83457894 -4.74129364 8.448
v 0.28092083 -1.94296132 8.448
v 0.24512847 -1.60241975 8.448
v 1.55453181 -2.07682323 8.448
v 1.40276498 -0.63285827 8.448
v 2.29955136 -1.50919046 8.25
v 2.68285689 -0.97804332 8.448
v 2.05029787 -0.56479982 8.448
v 1.23277222 -0.03071975 11.253
v 2.0427582 -0.55987424 11.253
v 3.2605179 -0.43188254 11.253
v 3.29509485 -0.10290478 11.253
v 4.84281354 -4.42511544 8.448
v 6.82382837 -3.70782812 8.448
v 6.97089732 -4.6448978 10.3554
v 4.84281354 -1.71476821 8.448
v 4.11054105 -0.97804332 8.448
v 4.18237187 -0.97804332 8.448
v 4.18237187 -0.20187938 8.448
v 4.84281354 -0.2712946 8.448
v 6.48072802 -0.44344635 8.448
v 6.44493566 -0.10290478 8.448
v 4.18237187 -0.19616135 11.253
v 1.90199854 -4.72460126 13.1604
v 1.91881634 -4.56459054 13.1604
v 2.97481153 -3.50217463 13.1604
v 0.18748117 -1.92353412 13.1604
v 0.15373069 -1.60241975 13.1604
v 1.46109215 -2.05739603 13.1604
v 1.3113672 -0.63285827 13.1604
v 3.29833871 -0.42401915 13.1604
v 3.33208919 -0.10290478 13.1604
v 4.84281354 -4.41550915 13.1604
v 6.97089732 -4.63917977 13.1604
v 6.97089732 -3.94466487 13.1604
v 6.97089732 -3.94466487 15.9654
v 4.84281354 -0.2616883 13.1604
v 6.0677464 -0.39043393 13.1604
v 6.35353788 -0.10290478 13.1604
v 6.38728836 -0.42401915 13.1604
v 9.98347923 -9.23983857 8.25
v 8.03438613 -6.24080861 8.448
v 7.93507889 -5.64794104 10.3554
v 11.04262072 -5.92463042 8.448
v 14.05085532 -6.24080861 8.448
v 13.02363556 -5.2073431 8.448
v 7.94298834 -6.24080861 13.1604
v 7.87943961 -5.63618275 13.1604
v 8.64665234 -5.79831837 13.1604
v 10.14616732 -5.79831837 13.1604
v 10.14616732 -5.47671526 13.1604
v 8.64665234 -5.79831837 15.9654
v 10.14616732 -5.79831837 15.9654
v 11.04262072 -5.91502412 13.1604
v 14.1422531 -6.24080861 13.1604
v 7.85104813 -4.74129364 8.448
v 7.86391444 -4.61887887 8.448
v 7.86391444 -4.74129364 9.11137717
v 10.70316916 -2.39244629 8.25
v 7.83924738 -4.73616507 10.3554
v 8.13109526 -2.07682323 8.448
v 8.28286209 -0.63285827 8.448
v 9.40470624 -1.94296132 8.448
v 9.74358026 -1.90734423 8.448
v 9.4404986 -1.60241975 8.448
v 11.04262072 -3.21428319 8.448
v 11.04262072 -1.77080957 8.448
v 12.68053521 -1.94296132 8.448
v 12.64474285 -1.60241975 8.448
v 14.48266928 -2.13237325 8.448
v 7.79352422 -3.94466487 13.1604
v 8.4704123 -3.94466487 13.1604
v 8.10838251 -3.16251235 13.1604
v 9.26800066 -4.1132198 13.1604
v 10.14616732 -4.2988034 13.1604
v 8.4704123 -3.94466487 15.9654
v 10.14616732 -4.2988034 15.9654
v 8.22453492 -2.05739603 13.1604
v 8.37425987 -0.63285827 13.1604
v 9.4981459 -1.92353412 13.1604
v 9.53189638 -1.60241975 13.1604
v 11.04262072 -1.76120328 13.1604
v 12.26755359 -1.88994891 13.1604
v 12.58709555 -1.92353412 13.1604
v 12.55334507 -1.60241975 13.1604
v 14.57406706 -2.13237325 13.1604
v 1.23277222 1.46879522 5.643
v 2.7322872 1.46879522 5.643
v 4.18237187 0.52147165 5.643
v 5.83134494 3.09921286 5.3625
v 3.29019396 9.27347071 5.15625
v 3.29019396 9.27347071 5.3625
v 4.96360959 9.27347071 5.15625
v 4.96360959 9.27347071 5.3625
v 4.93119694 9.50409864 5.15625
v 12.74208462 9.27347071 0
v 12.74208462 9.27347071 5.3625
v 1.23277222 0.72600123 8.448
v 1.23277222 1.46879522 8.448
v 2.17445268 1.46879522 8.448
v 2.17445268 2.2144704 8.448
v 1.23277222 0.71835533 11.253
v 2.12004924 0.59365667 11.253
v 2.12004924 1.46879522 11.253
v 2.7322872 1.46879522 11.253
v 1.3113672 3.79832799 8.448
v 1.3113672 4.63379143 8.448
v 2.17445268 2.46231015 8.448
v 4.18237187 0.52147165 11.253
v 4.43356838 3.42852565 8.448
v 4.84281354 2.58948407 8.448
v 4.84281354 3.08989357 8.448
v 5.83134494 3.09921286 8.25
v 2.02212304 0.59365667 16.302
v 2.02212304 2.17165333 16.302
v 1.46369684 4.56712554 16.302
v 1.46369684 4.59097436 16.302
v 2.02212304 2.79542368 16.302
v 2.02212304 2.84609793 16.302
v 4.84281354 2.56807553 16.302
v 1.3113672 6.01200765 8.448
v 4.84281354 6.34045621 8.448
v 4.81967876 6.50506868 8.448
v 4.86594831 6.50506868 8.448
v 4.84281354 6.50506868 9.6408113
v 4.93119694 9.50409864 8.25
v 1.46369684 6.01200765 16.302
v 4.70841219 6.46802265 16.302
v 4.71361867 6.50506868 16.302
v 4.84281354 6.34259895 16.302
v 4.84281354 6.48691153 16.302
v 4.94603429 6.4724048 16.302
v 4.97721488 6.46802265 16.302
v 4.9720084 6.50506868 16.302
v 7.51117439 0.59365667 8.448
v 7.51117439 2.2144704 8.448
v 7.51117439 2.33677049 8.448
v 10.63337557 1.92901068 8.448
v 8.37425987 3.79832799 8.448
v 8.37425987 4.63379143 8.448
v 11.04262072 1.08996909 8.448
v 11.04262072 1.5903786 8.448
v 14.57406706 0.59365667 8.448
v 14.57406706 4.51249267 8.448
v 7.66350403 0.59365667 16.302
v 7.66350403 2.17165333 16.302
v 7.66350403 2.79542368 16.302
v 8.22193023 4.59097436 16.302
v 11.04262072 1.06856055 16.302
v 14.42173742 0.59365667 16.302
v 14.42173742 4.51249267 16.302
v 8.37425987 6.01200765 8.448
v 11.04262072 4.84094124 8.448
v 11.01948595 5.00555371 8.448
v 11.0657555 5.00555371 8.448
v 11.04262072 5.00555371 9.6408113
v 8.22193023 6.01200765 16.302
v 10.90821938 4.96850768 16.302
v 10.91342586 5.00555371 16.302
v 11.04262072 4.84308398 16.302
v 11.04262072 4.98739655 16.302
v 11.14584148 4.97288982 16.302
v 11.17702207 4.96850768 16.302
v 11.17181559 5.00555371 16.302
f 1 2 4
f 2 3 5
f 2 55 3
f 1 4 7
f 1 7 31
f 2 5 4
f 1 60 2
f 3 55 9
f 2 61 55
f 9 55 57
f 1 30 60
f 9 161 33
f 1 31 30
f 7 8 31
f 8 33 29
f 8 29 32
f 30 31 162
f 8 32 31
f 33 161 29
f 30 162 164
f 31 32 163
f 31 163 162
f 2 60 62
f 2 62 61
f 9 57 161
f 57 63 161
f 60 167 62
f 61 62 168
f 61 168 63
f 30 167 60
f 30 164 168
f 30 168 167
f 62 167 168
f 63 168 161
f 161 168 165
f 164 165 168
f 4 5 6
f 4 6 7
f 6 8 7
f 3 10 5
f 3 9 15
f 3 15 10
f 10 15 11
f 5 10 11
f 5 11 6
f 6 44 8
f 6 11 44
f 11 15 44
f 9 44 15
f 9 33 44
f 8 44 33
f 55 64 77
f 55 61 64
f 61 112 64
f 55 77 57
f 57 77 130
f 61 63 112
f 63 130 112
f 57 130 63
f 29 42 37
f 29 161 42
f 32 197 163
f 32 52 197
f 32 29 34
f 32 34 35
f 29 37 46
f 42 41 37
f 42 43 41
f 29 46 34
f 34 46 50
f 50 46 48
f 50 48 49
f 34 50 54
f 32 35 52
f 35 34 54
f 35 54 52
f 161 184 42
f 161 165 184
f 162 163 166
f 162 166 164
f 164 166 165
f 165 197 184
f 163 197 166
f 165 166 197
f 13 68 17
f 20 25 21
f 21 26 23
f 21 25 26
f 23 26 27
f 16 17 25
f 17 26 25
f 17 68 26
f 26 68 27
f 13 65 68
f 65 70 71
f 65 71 95
f 65 95 68
f 73 98 75
f 75 98 100
f 68 95 98
f 95 96 98
f 27 68 28
f 28 68 98
f 96 100 98
f 36 38 47
f 36 47 45
f 45 48 46
f 45 47 48
f 12 14 18
f 12 13 14
f 13 17 14
f 14 17 16
f 18 14 24
f 18 24 25
f 18 25 20
f 23 99 74
f 23 27 99
f 14 16 24
f 16 25 24
f 27 28 99
f 73 74 98
f 74 99 98
f 28 98 99
f 38 173 47
f 47 49 48
f 47 185 49
f 188 51 53
f 38 169 173
f 178 51 188
f 173 174 185
f 47 173 185
f 185 53 49
f 185 186 53
f 186 189 53
f 189 190 53
f 190 187 53
f 187 188 53
f 115 116 126
f 116 141 126
f 115 126 125
f 122 125 146
f 134 151 136
f 136 152 138
f 136 151 152
f 138 152 153
f 141 157 126
f 139 155 141
f 141 155 157
f 151 146 125
f 145 146 151
f 151 125 152
f 152 125 126
f 152 126 153
f 126 154 153
f 126 155 154
f 126 157 155
f 206 212 220
f 211 219 225
f 206 220 216
f 216 220 231
f 216 229 217
f 217 229 218
f 218 229 219
f 216 231 229
f 225 219 227
f 224 225 227
f 227 219 229
f 227 232 235
f 227 235 234
f 231 233 232
f 232 233 235
f 233 234 235
f 113 115 118
f 113 129 128
f 113 114 131
f 113 131 129
f 113 118 114
f 114 118 119
f 115 125 118
f 118 121 120
f 119 118 120
f 118 125 121
f 121 125 122
f 132 149 134
f 134 149 151
f 139 140 155
f 138 156 140
f 138 153 156
f 140 156 155
f 142 143 144
f 143 145 144
f 144 145 151
f 144 151 149
f 154 155 156
f 153 154 156
f 212 214 220
f 227 222 215
f 214 221 220
f 220 221 231
f 221 222 231
f 224 227 226
f 226 227 215
f 227 229 230
f 227 230 232
f 227 234 222
f 231 230 229
f 231 232 230
f 231 234 233
f 231 222 234
f 82 103 83
f 84 127 129
f 84 129 104
f 104 129 86
f 104 86 105
f 90 94 91
f 92 111 133
f 91 94 108
f 83 108 94
f 82 102 103
f 97 104 102
f 104 106 103
f 104 105 106
f 103 106 142
f 104 103 102
f 103 142 108
f 83 103 108
f 108 142 109
f 142 111 109
f 127 128 129
f 86 129 131
f 132 133 149
f 133 111 150
f 133 150 149
f 142 144 111
f 144 149 111
f 111 149 150
f 172 182 186
f 186 191 189
f 190 199 187
f 189 201 190
f 182 191 186
f 189 191 201
f 192 198 196
f 192 196 194
f 193 194 196
f 187 199 188
f 188 199 198
f 196 198 199
f 196 202 205
f 196 205 204
f 190 201 199
f 201 203 202
f 202 203 205
f 203 204 205
f 72 71 70
f 72 84 71
f 71 84 95
f 75 101 76
f 76 81 79
f 75 100 101
f 76 101 81
f 81 102 82
f 84 104 95
f 91 110 93
f 92 93 111
f 91 108 110
f 93 110 111
f 95 97 96
f 95 104 97
f 96 97 100
f 97 101 100
f 97 102 101
f 81 101 102
f 108 109 110
f 109 111 110
f 182 207 191
f 191 207 217
f 191 217 218
f 191 218 201
f 193 196 195
f 196 223 195
f 196 228 223
f 196 199 200
f 196 200 202
f 196 204 228
f 201 200 199
f 201 202 200
f 201 204 203
f 201 218 228
f 201 228 204
f 218 219 228
f 42 51 43
f 50 49 53
f 42 52 51
f 52 54 51
f 54 53 51
f 50 53 54
f 64 112 77
f 77 112 130
f 42 184 52
f 184 197 52
f 20 21 22
f 22 21 23
f 19 22 23
f 36 37 40
f 36 46 37
f 36 39 38
f 40 37 41
f 36 40 39
f 36 45 46
f 13 66 65
f 66 70 65
f 66 73 70
f 70 73 75
f 12 19 13
f 12 18 20
f 12 22 19
f 12 20 22
f 13 73 66
f 13 19 74
f 13 74 73
f 19 23 74
f 38 39 169
f 39 40 41
f 39 41 43
f 39 43 177
f 178 43 51
f 39 170 169
f 39 172 170
f 39 179 172
f 170 172 171
f 171 172 175
f 172 186 175
f 39 177 179
f 177 43 178
f 174 175 185
f 175 186 185
f 115 117 116
f 134 136 135
f 137 135 138
f 136 138 135
f 117 141 116
f 117 139 141
f 206 207 209
f 207 208 209
f 206 213 212
f 206 209 213
f 206 216 207
f 208 210 209
f 210 224 209
f 210 211 224
f 207 216 217
f 211 225 224
f 113 137 115
f 113 128 134
f 113 134 135
f 128 132 134
f 113 135 137
f 115 137 140
f 115 139 117
f 115 140 139
f 137 138 140
f 212 213 214
f 213 215 214
f 213 209 215
f 209 224 215
f 214 215 222
f 214 222 221
f 224 226 215
f 84 85 127
f 87 88 89
f 89 90 91
f 87 89 91
f 85 92 133
f 85 128 127
f 85 132 128
f 85 133 132
f 179 177 181
f 172 179 181
f 177 178 181
f 178 192 181
f 172 183 182
f 172 181 183
f 192 193 181
f 178 198 192
f 192 194 193
f 178 188 198
f 72 70 88
f 70 75 88
f 72 88 87
f 75 76 78
f 75 78 88
f 76 79 78
f 72 87 84
f 84 92 85
f 84 87 93
f 87 91 93
f 84 93 92
f 182 183 208
f 182 208 207
f 183 210 208
f 183 181 223
f 183 211 210
f 183 223 211
f 181 193 223
f 193 195 223
f 211 223 219
f 223 228 219
f 56 59 58
f 56 58 79
f 58 78 79
f 58 88 78
f 58 59 88
f 59 160 90
f 59 89 88
f 59 90 89
f 56 79 80
f 79 81 80
f 80 81 83
f 81 82 83
f 56 158 59
f 158 159 160
f 59 158 160
f 56 80 158
f 158 170 159
f 158 169 170
f 159 170 171
f 159 180 160
f 80 169 158
f 159 176 180
f 159 171 176
f 80 173 169
f 80 174 173
f 80 180 174
f 80 83 180
f 174 180 175
f 175 180 176
f 171 175 176
f 90 160 94
f 94 160 180
f 83 94 180
f 67 86 131
f 67 105 86
f 67 69 105
f 105 107 106
f 106 107 142
f 105 69 107
f 67 131 114
f 67 114 69
f 114 119 69
f 119 120 123
f 120 121 124
f 121 122 124
f 119 123 69
f 69 123 124
f 69 124 148
f 120 124 123
f 122 148 124
f 142 147 143
f 143 147 145
f 145 148 146
f 122 146 148
f 142 107 147
f 69 148 107
f 107 148 147
f 145 147 148
