# MAAS exact compiled indexed mesh
# program_hash 554c361833d51f0d7846e6e905a17e44aca8933e6e60ccea8cd6d74094052bd3
# geometry_hash 039f08ecb4e6127e8952e73358a18cb872defb63cb1d22a0ab1e0b02e29d47ed
v -15.43330784 -11.93571695 0
v -15.43330784 -11.93571695 3.09375
v -13.11068184 -9.3550214 3.09375
v -13.11068184 -9.3550214 6.290625
v -6.14280383 -4.83880417 6.290625
v -6.14280383 -4.83880417 9.9
v -15.43330784 11.93571695 0
v -15.43330784 7.17132133 2.990625
v -15.43330784 7.17132133 3.09375
v -15.53503481 7.89514634 2.990625
v -15.43330784 7.90944314 2.990625
v -15.43330784 7.90944314 3.09375
v -15.43330784 11.93571695 3.09375
v -15.53503481 7.89514634 6.290625
v -4.40685199 6.12156436 6.290625
v -4.40685199 6.12156436 9.9
v 15.53503886 -11.93571695 0
v 15.53503886 -11.93571695 3.09375
v 11.80622712 -5.85317821 3.09375
v 5.68940352 -6.71284171 6.1875
v 5.68940352 -6.71284171 6.290625
v 10.93497969 -7.54365936 6.1875
v 10.93497969 -7.54365936 9.9
v 11.18898613 -5.93992578 6.1875
v 11.18898613 -5.93992578 6.290625
v 11.52248863 -3.8342739 6.1875
v 11.52248863 -3.8342739 6.290625
v 11.80622712 -5.85317821 6.290625
v 15.53503886 11.93571695 0
v 9.38187415 11.39698953 3.09375
v 15.53503886 11.93571695 3.09375
v 2.02e-06 5.42358725 6.290625
v 7.49666055 0 4.95
v 7.49666055 1.76065266 5.148
v 6.16365736 4.44736015 6.290625
v 6.35758907 5.04422055 6.381375
v 6.69200283 5.32354924 6.381375
v 6.57017564 5.69849476 6.290625
v 6.57017564 5.69849476 6.381375
v 6.85358161 4.82626088 6.381375
v 6.95324088 4.78246647 6.381375
v 7.09975309 5.66413435 6.381375
v 2.02e-06 0 9.9
v 2.02e-06 5.42358725 9.9
v 7.49666055 0 9.9
v 7.49666055 1.76065266 9.702
v 6.16365736 4.44736015 9.702
v 7.22350795 4.2794963 9.702
v 7.49666055 3.77115615 9.702
v 7.49666055 4.23623318 9.702
v 7.49666055 4.23623318 9.9
v 6.35758907 5.04422055 9.702
v 6.95324088 4.78246647 9.702
v 2.02e-06 10.07845339 4.95
v 2.02e-06 10.07845339 6.290625
v 7.49666055 7.15536372 5.148
v 5.57796755 8.7521973 6.290625
v 5.57796755 8.7521973 6.381375
v 7.49666055 9.56985894 5.148
v 7.49666055 11.13204003 4.95
v 7.49666055 9.56985894 6.290625
v 7.49666055 11.13204003 6.290625
v 8.05551286 0.44225133 5.148
v 9.23207963 0 5.148
v 8.05551286 1.57907053 5.148
v 9.21556823 2.34320493 5.148
v 9.87571134 0 5.148
v 10.98361657 0 4.95
v 10.0442687 2.03377968 5.148
v 9.87571134 0 6.2865
v 9.95542035 0.96175317 6.2865
v 10.98361657 0 6.1875
v 11.44056197 0 6.2865
v 10.0442687 2.03377968 6.2865
v 10.95855633 1.91786863 6.2865
v 11.41717002 2.22753049 6.2865
v 11.65021431 2.10905842 6.2865
v 8.05551286 5.59083171 5.148
v 10.50449818 3.40910451 4.95
v 10.40958117 4.08447415 5.148
v 10.0626649 5.07818523 5.148
v 10.27696549 4.841453 5.148
v 10.306669 4.81673223 5.148
v 10.50989622 4.64759624 5.148
v 10.20635369 5.53051274 5.148
v 8.05823355 5.02293576 6.381375
v 8.06371735 5.33649114 6.381375
v 10.92815878 5.64749091 6.2865
v 10.92815878 5.64749091 6.381375
v 12.33169948 2.8935858 5.148
v 12.12977795 0 6.1875
v 12.38104213 1.73752951 6.2865
v 11.9494432 2.58692817 6.2865
v 11.74955462 2.6747675 6.2865
v 12.33169948 2.8935858 6.2865
v 11.95684634 3.62908992 6.2865
v 12.6043063 2.99605404 6.2865
v 12.67093152 3.41670917 6.1875
v 13.54263005 3.3487539 6.2865
v 8.05551286 0.44225133 9.702
v 9.23207963 0 9.702
v 9.40961917 1.13909472 9.702
v 8.05551286 1.57907053 9.702
v 8.19444506 1.53392873 9.702
v 8.05551286 2.34403624 9.702
v 8.05551286 2.73112549 9.702
v 8.491353 2.27362671 9.702
v 9.40293017 1.64244641 9.702
v 8.77136743 2.49921799 9.702
v 9.03785711 2.34706369 9.702
v 9.40547444 2.67434547 9.702
v 11.44056197 0 9.702
v 10.23098347 2.94256962 9.702
v 11.39791851 1.70614102 9.702
v 11.65021431 2.10905842 9.702
v 11.32654377 2.86065599 9.702
v 8.05551286 4.54375309 9.702
v 9.75099143 3.28844386 9.702
v 12.12977795 0 9.9
v 12.38104213 1.73752951 9.702
v 11.9494432 2.58692817 9.702
v 11.74955462 2.6747675 9.702
v 12.6043063 2.99605404 9.702
v 13.54263005 3.3487539 9.702
v 11.74962256 4.52021051 9.702
v 12.37212744 5.40014013 9.702
v 8.15590999 6.60670291 5.148
v 8.33980015 6.68262214 5.148
v 8.19781614 6.87363936 5.148
v 8.36352825 6.79278877 5.148
v 8.70981393 8.81992346 5.148
v 10.37915882 6.07449747 5.148
v 10.42550878 6.63374689 5.148
v 9.20788039 7.34887124 6.381375
v 8.67344866 8.51854023 6.381375
v 8.73248888 8.86738847 6.381375
v 9.39289594 7.74728244 6.381375
v 9.40882266 8.62859969 6.381375
v 9.94279412 6.27397599 6.381375
v 10.16423862 6.43902025 6.381375
v 10.42550878 6.63374689 6.381375
v 9.77907787 7.90211723 6.381375
v 9.91289618 8.51298057 6.381375
v 8.17325644 9.1516074 5.148
v 8.05551286 9.80801694 5.148
v 8.87075422 9.68435064 5.148
v 9.65169255 9.47713189 5.148
v 9.65169255 9.47713189 5.69257841
v 8.05551286 11.01757402 5.148
v 8.16400986 11.07106276 5.148
v 9.38187415 11.39698953 4.95
v 10.63944313 9.21503635 5.148
v 8.05551286 9.80801694 6.381375
v 8.14179814 9.80103077 6.381375
v 8.14256916 9.84511647 6.381375
v 8.87075422 9.68435064 6.381375
v 8.05551286 11.01757402 6.381375
v 8.16400986 11.07106276 6.381375
v 10.63944313 9.21503635 6.381375
v 12.5957054 6.01038359 6.2865
v 13.37225266 6.20588263 6.2865
v 12.5957054 6.01038359 9.702
v 13.37225266 6.20588263 9.702
f 1 2 8
f 2 3 9
f 1 17 2
f 2 18 3
f 1 7 17
f 1 8 11
f 1 11 13
f 1 13 7
f 2 9 8
f 11 12 13
f 7 13 31
f 12 30 13
f 2 17 18
f 3 18 19
f 17 29 18
f 18 31 19
f 7 29 17
f 7 31 29
f 13 30 31
f 18 29 31
f 19 31 30
f 5 6 16
f 5 21 6
f 5 16 15
f 6 43 44
f 6 44 16
f 15 16 32
f 16 44 32
f 20 22 21
f 6 21 22
f 6 22 23
f 6 23 43
f 23 45 43
f 20 24 22
f 22 24 25
f 22 25 23
f 26 72 91
f 26 91 27
f 27 91 98
f 23 25 27
f 119 45 23
f 23 27 123
f 23 123 119
f 27 98 97
f 27 97 123
f 3 4 9
f 4 5 14
f 3 20 4
f 4 21 5
f 4 20 21
f 8 9 10
f 8 10 11
f 10 12 11
f 9 14 10
f 10 14 12
f 12 14 30
f 14 54 30
f 4 14 9
f 5 15 14
f 14 15 55
f 14 55 54
f 15 32 55
f 3 19 24
f 19 68 72
f 19 79 68
f 3 24 20
f 19 28 24
f 19 72 26
f 24 28 25
f 25 28 27
f 26 27 28
f 19 26 28
f 30 54 60
f 19 83 79
f 19 85 83
f 19 147 85
f 19 30 151
f 19 151 147
f 30 60 151
f 79 83 80
f 151 148 147
f 91 97 98
f 91 119 97
f 119 123 97
f 79 80 83
f 79 83 85
f 79 85 147
f 79 147 151
f 151 147 148
f 41 53 86
f 49 117 50
f 48 50 117
f 48 117 53
f 88 89 160
f 96 88 160
f 111 113 118
f 86 53 89
f 53 162 89
f 106 117 49
f 53 117 162
f 118 113 125
f 118 125 126
f 89 162 160
f 37 42 39
f 40 41 42
f 41 86 87
f 39 42 58
f 41 154 42
f 58 42 153
f 42 155 153
f 59 61 145
f 57 58 61
f 58 153 61
f 41 87 134
f 41 134 135
f 87 139 134
f 41 135 154
f 42 154 155
f 134 137 135
f 139 140 134
f 145 61 153
f 154 135 136
f 46 106 49
f 36 53 40
f 40 53 41
f 36 52 53
f 47 48 52
f 52 48 53
f 71 74 75
f 74 94 75
f 75 94 76
f 76 93 77
f 76 94 93
f 103 104 105
f 46 103 105
f 104 107 105
f 104 102 107
f 46 105 106
f 102 108 107
f 108 110 107
f 107 110 109
f 108 114 110
f 110 121 111
f 111 121 113
f 110 114 115
f 110 115 121
f 113 122 116
f 113 121 122
f 77 93 121
f 94 122 93
f 77 121 115
f 93 122 121
f 36 40 37
f 36 37 39
f 37 40 42
f 137 142 138
f 142 143 138
f 47 32 44
f 51 44 43
f 51 43 45
f 35 32 47
f 47 44 48
f 48 44 51
f 48 51 50
f 35 38 32
f 62 55 32
f 54 55 60
f 38 57 32
f 57 62 32
f 62 60 55
f 57 61 62
f 95 96 160
f 99 95 161
f 95 160 161
f 105 107 106
f 106 107 109
f 109 110 118
f 110 111 118
f 106 109 117
f 117 109 118
f 117 118 126
f 113 116 125
f 117 126 162
f 99 163 124
f 99 161 163
f 116 122 163
f 124 163 122
f 116 163 125
f 125 163 126
f 126 163 162
f 160 162 161
f 161 162 163
f 90 133 141
f 90 141 88
f 86 139 87
f 86 89 139
f 90 96 95
f 90 88 96
f 134 141 137
f 137 138 135
f 135 138 136
f 139 89 140
f 89 141 140
f 134 140 141
f 137 141 142
f 88 141 89
f 146 158 156
f 149 157 150
f 150 158 146
f 150 157 158
f 154 136 156
f 153 155 157
f 154 156 155
f 155 156 158
f 136 138 156
f 155 158 157
f 71 73 70
f 71 92 73
f 71 75 92
f 75 76 77
f 75 77 92
f 100 104 103
f 100 102 104
f 100 101 102
f 102 101 114
f 114 101 112
f 102 114 108
f 92 112 73
f 92 120 112
f 77 120 92
f 77 115 120
f 114 112 120
f 114 120 115
f 69 70 67
f 69 71 70
f 69 74 71
f 133 152 141
f 141 152 159
f 142 141 143
f 143 141 159
f 138 143 159
f 146 148 147
f 146 156 148
f 152 147 148
f 152 148 159
f 156 159 148
f 138 159 156
f 33 64 67
f 68 33 67
f 68 79 33
f 68 67 72
f 72 67 70
f 45 64 33
f 72 70 73
f 72 73 91
f 79 151 33
f 91 73 112
f 45 101 64
f 119 101 45
f 119 112 101
f 91 112 119
f 151 60 33
f 56 59 129
f 81 85 82
f 84 83 85
f 82 85 83
f 84 85 132
f 127 56 129
f 128 129 130
f 129 131 130
f 129 59 144
f 129 144 131
f 59 145 144
f 34 56 78
f 34 103 46
f 34 78 65
f 34 65 103
f 66 78 127
f 78 56 127
f 69 90 95
f 69 94 74
f 69 95 94
f 69 82 80
f 69 80 90
f 84 90 80
f 84 80 83
f 82 83 80
f 84 132 133
f 84 133 90
f 94 95 122
f 99 122 95
f 99 124 122
f 144 146 131
f 144 145 149
f 144 149 146
f 149 150 146
f 63 65 66
f 63 67 64
f 63 66 67
f 69 67 128
f 63 64 100
f 65 78 66
f 66 128 67
f 66 127 128
f 69 128 81
f 81 128 85
f 69 81 82
f 100 64 101
f 127 129 128
f 128 147 85
f 128 130 147
f 130 131 147
f 132 85 133
f 133 85 152
f 152 85 147
f 131 146 147
f 38 39 58
f 38 58 57
f 35 36 39
f 35 39 38
f 35 47 36
f 36 47 52
f 34 33 56
f 34 45 33
f 56 33 59
f 34 46 45
f 46 51 45
f 46 49 51
f 49 50 51
f 59 33 60
f 59 60 61
f 61 60 62
f 63 103 65
f 63 100 103
f 145 153 157
f 145 157 149
