# MAAS exact compiled indexed mesh
# program_hash f8c0e5f5bf00339e7f299965322ef5e3fcc5c8700c8c5ccacfb16931cfbc5462
# geometry_hash 6aaf5aba242697c87296b8db41bdf9eea1a7ed6935cbeab17b0d123a28ad68a0
v -8.16288705 -6.68773675 0
v -5.7256822 -8.16288705 0
v -5.7256822 -6.68773675 0
v -8.16288705 -3.07274391 0
v -8.16288705 -1.80749642 0
v -5.7256822 -3.07274391 0
v -5.7256822 -1.80749642 0
v -2.11068937 -8.16288705 0
v -2.11068937 -6.68773675 0
v -2.11068937 -3.07274391 0
v -2.11068937 -1.80749642 0
v -8.16288705 -6.68773675 8.25
v -7.55358584 -6.68773675 8.25
v -9.00660305 -7.37898122 10.3125
v -9.00660305 -6.38182159 10.3125
v -9.00660305 -5.38466197 10.3125
v -8.33432447 -7.37898122 10.3125
v -7.66204588 -7.37898122 10.3125
v -5.7256822 -8.16288705 8.25
v -6.31748871 -9.00660305 10.3125
v -6.31748871 -8.59969759 10.3125
v -6.31748871 -8.19279214 10.3125
v -6.31748871 -7.78588668 10.3125
v -5.32032909 -9.00660305 10.3125
v -6.94428463 -6.68773675 8.25
v -6.33498341 -6.68773675 8.25
v -5.7256822 -6.68773675 8.25
v -6.9897673 -7.37898122 10.3125
v -6.31748871 -7.37898122 10.3125
v -9.85031906 -8.07022569 12.375
v -9.1150631 -8.07022569 12.375
v -8.37980714 -8.07022569 12.375
v -7.64455118 -8.07022569 12.375
v -9.85031906 -6.97965465 12.375
v -9.85031906 -5.88908361 12.375
v -9.00660305 -7.37898122 14.4375
v -9.00660305 -6.38182159 14.4375
v -9.00660305 -5.38466197 14.4375
v -8.33432447 -7.37898122 14.4375
v -7.66204588 -7.37898122 14.4375
v -8.16288705 -6.68773675 16.5
v -7.55358584 -6.68773675 16.5
v -8.16288705 -5.78398854 16.5
v -7.55358584 -5.78398854 16.5
v -6.90929523 -9.85031906 12.375
v -6.90929523 -9.40529572 12.375
v -6.90929523 -8.96027237 12.375
v -6.90929523 -8.51524903 12.375
v -6.90929523 -8.07022569 12.375
v -5.81872419 -9.85031906 12.375
v -6.31748871 -9.00660305 14.4375
v -6.31748871 -8.59969759 14.4375
v -6.31748871 -8.19279214 14.4375
v -6.31748871 -7.78588668 14.4375
v -5.32032909 -9.00660305 14.4375
v -5.7256822 -8.16288705 16.5
v -5.7256822 -7.79409947 16.5
v -5.6440221 -7.79409947 16.5
v -5.7256822 -7.4253119 16.5
v -5.6440221 -7.4253119 16.5
v -5.56236199 -7.4253119 16.5
v -6.9897673 -7.37898122 14.4375
v -6.31748871 -7.37898122 14.4375
v -6.94428463 -6.68773675 16.5
v -6.33498341 -6.68773675 16.5
v -6.94428463 -5.78398854 16.5
v -6.33498341 -5.78398854 16.5
v -6.25332331 -5.78398854 16.5
v -6.1716632 -5.78398854 16.5
v -5.7256822 -7.05652432 16.5
v -5.6440221 -7.05652432 16.5
v -5.56236199 -7.05652432 16.5
v -5.7256822 -6.68773675 16.5
v -5.6440221 -6.68773675 16.5
v -5.56236199 -6.68773675 16.5
v -5.48070188 -7.05652432 16.5
v -5.48070188 -6.68773675 16.5
v -5.39904178 -6.68773675 16.5
v -6.0900031 -5.78398854 16.5
v -5.26791499 -5.78398854 16.5
v -8.16288705 -3.07274391 8.25
v -9.00660305 -4.38750234 10.3125
v -9.00660305 -3.39034272 10.3125
v -8.33432447 -3.39034272 10.3125
v -7.66204588 -3.39034272 10.3125
v -8.16288705 -1.80749642 8.25
v -9.00660305 -1.99431925 10.3125
v -9.00660305 -0.99715962 10.3125
v -8.33432447 -1.99431925 10.3125
v -7.66204588 -1.99431925 10.3125
v -5.7256822 -3.07274391 8.25
v -6.9897673 -3.39034272 10.3125
v -6.31748871 -3.39034272 10.3125
v -6.31748871 -2.69233098 10.3125
v -5.7256822 -1.80749642 8.25
v -6.9897673 -1.99431925 10.3125
v -6.31748871 -2.34332512 10.3125
v -6.31748871 -1.99431925 10.3125
v -9.85031906 -4.79851257 12.375
v -9.85031906 -3.70794153 12.375
v -9.1150631 -3.70794153 12.375
v -8.37980714 -3.70794153 12.375
v -7.64455118 -3.70794153 12.375
v -9.00660305 -4.38750234 14.4375
v -9.00660305 -3.39034272 14.4375
v -8.16288705 -4.88024033 16.5
v -8.16288705 -3.97649212 16.5
v -7.55358584 -4.88024033 16.5
v -7.55358584 -3.97649212 16.5
v -7.47192573 -3.97649212 16.5
v -8.33432447 -3.39034272 14.4375
v -7.66204588 -3.39034272 14.4375
v -8.16288705 -3.07274391 16.5
v -7.55358584 -3.07274391 16.5
v -9.85031906 -2.18114208 12.375
v -9.1150631 -2.18114208 12.375
v -9.85031906 -1.09057104 12.375
v -8.37980714 -2.18114208 12.375
v -7.64455118 -2.18114208 12.375
v -9.00660305 -1.99431925 14.4375
v -9.00660305 -0.99715962 14.4375
v -8.33432447 -1.99431925 14.4375
v -7.66204588 -1.99431925 14.4375
v -8.16288705 -1.80749642 16.5
v -7.55358584 -1.80749642 16.5
v -8.16288705 -0.90374821 16.5
v -7.55358584 -0.90374821 16.5
v -6.90929523 -3.70794153 12.375
v -6.90929523 -3.32624167 12.375
v -6.90929523 -2.9445418 12.375
v -6.90929523 -2.56284194 12.375
v -6.94428463 -4.88024033 16.5
v -6.86262452 -4.88024033 16.5
v -6.78096441 -4.88024033 16.5
v -6.64983763 -3.97649212 16.5
v -6.9897673 -3.39034272 14.4375
v -6.31748871 -3.39034272 14.4375
v -6.31748871 -3.04133685 14.4375
v -6.31748871 -2.69233098 14.4375
v -6.94428463 -3.07274391 16.5
v -6.33498341 -3.07274391 16.5
v -5.95887631 -4.88024033 16.5
v -5.59449295 -3.97649212 16.5
v -5.13678821 -4.88024033 16.5
v -5.51283284 -3.97649212 16.5
v -5.7256822 -3.07274391 16.5
v -5.7256822 -2.75643204 16.5
v -5.44390642 -3.07274391 16.5
v -5.44390642 -2.75643204 16.5
v -5.16213064 -3.07274391 16.5
v -5.16213064 -2.75643204 16.5
v -6.90929523 -2.18114208 12.375
v -6.9897673 -1.99431925 14.4375
v -6.31748871 -2.34332512 14.4375
v -6.31748871 -1.99431925 14.4375
v -6.94428463 -1.80749642 16.5
v -6.33498341 -1.80749642 16.5
v -6.94428463 -0.90374821 16.5
v -6.33498341 -0.90374821 16.5
v -5.7256822 -2.44012016 16.5
v -5.7256822 -2.12380829 16.5
v -5.7256822 -1.80749642 16.5
v -5.44390642 -2.44012016 16.5
v -5.44390642 -2.12380829 16.5
v -5.16213064 -2.44012016 16.5
v -5.09209015 -2.12380829 16.5
v -5.37386593 -1.80749642 16.5
v -5.02204967 -1.80749642 16.5
v -5.98316715 -0.90374821 16.5
v -5.63135088 -0.90374821 16.5
v -5.27953461 -0.90374821 16.5
v -4.32316947 -9.00660305 10.3125
v -3.32600984 -9.00660305 10.3125
v -2.11068937 -8.16288705 8.25
v -2.11068937 -7.79409947 8.25
v -2.11068937 -7.4253119 8.25
v -2.32885022 -9.00660305 10.3125
v -2.32885022 -8.59969759 10.3125
v -2.32885022 -8.19279214 10.3125
v -2.32885022 -7.78588668 10.3125
v -2.11068937 -7.05652432 8.25
v -2.11068937 -6.68773675 8.25
v -1.05534468 -6.68773675 8.25
v -2.32885022 -7.37898122 10.3125
v -1.16442511 -7.37898122 10.3125
v -4.72815315 -9.85031906 12.375
v -3.63758211 -9.85031906 12.375
v -2.54701107 -9.85031906 12.375
v -2.54701107 -9.40529572 12.375
v -2.54701107 -8.96027237 12.375
v -2.54701107 -8.51524903 12.375
v -2.54701107 -8.07022569 12.375
v -4.32316947 -9.00660305 14.4375
v -4.82193399 -8.16288705 16.5
v -4.74027389 -7.79409947 16.5
v -4.65861378 -7.4253119 16.5
v -3.91818578 -8.16288705 16.5
v -3.83652568 -7.79409947 16.5
v -3.75486557 -7.4253119 16.5
v -3.32600984 -9.00660305 14.4375
v -3.01443757 -8.16288705 16.5
v -2.93277747 -7.79409947 16.5
v -2.93277747 -7.4253119 16.5
v -4.57695367 -7.05652432 16.5
v -4.57695367 -6.68773675 16.5
v -3.75486557 -7.05652432 16.5
v -3.75486557 -6.68773675 16.5
v -4.44582689 -5.78398854 16.5
v -2.93277747 -7.05652432 16.5
v -2.93277747 -6.68773675 16.5
v -3.62373879 -5.78398854 16.5
v -2.5683941 -5.78398854 16.5
v -1.27350554 -8.07022569 12.375
v -2.32885022 -9.00660305 14.4375
v -2.32885022 -8.59969759 14.4375
v -2.32885022 -8.19279214 14.4375
v -2.32885022 -7.78588668 14.4375
v -2.11068937 -8.16288705 16.5
v -2.11068937 -7.79409947 16.5
v -2.11068937 -7.4253119 16.5
v -2.32885022 -7.37898122 14.4375
v -2.11068937 -7.05652432 16.5
v -2.11068937 -6.68773675 16.5
v -1.51304942 -5.78398854 16.5
v -1.16442511 -7.37898122 14.4375
v -1.05534468 -6.68773675 16.5
v -0.45770474 -5.78398854 16.5
v -0.37604463 -5.78398854 16.5
v -0.29438453 -5.78398854 16.5
v -0.21272442 -5.78398854 16.5
v -2.11068937 -3.07274391 8.25
v -2.11068937 -2.75643204 8.25
v -2.32885022 -3.39034272 10.3125
v -2.32885022 -3.04133685 10.3125
v -2.32885022 -2.69233098 10.3125
v -1.16442511 -3.39034272 10.3125
v -2.11068937 -1.80749642 8.25
v -2.32885022 -2.34332512 10.3125
v -2.32885022 -1.99431925 10.3125
v -1.16442511 -1.99431925 10.3125
v -2.54701107 -3.70794153 12.375
v -2.54701107 -3.32624167 12.375
v -2.54701107 -2.9445418 12.375
v -2.54701107 -2.56284194 12.375
v -4.69074474 -3.97649212 16.5
v -4.08144352 -4.88024033 16.5
v -4.08144352 -3.97649212 16.5
v -4.88035486 -3.07274391 16.5
v -4.88035486 -2.75643204 16.5
v -4.59857908 -3.07274391 16.5
v -4.52853859 -2.75643204 16.5
v -3.97660665 -3.07274391 16.5
v -3.90656616 -2.75643204 16.5
v -3.47214231 -3.97649212 16.5
v -3.02609884 -4.88024033 16.5
v -2.94443874 -4.88024033 16.5
v -2.86277863 -4.88024033 16.5
v -2.8628411 -3.97649212 16.5
v -3.35463422 -3.07274391 16.5
v -3.28459374 -2.75643204 16.5
v -2.73266179 -3.07274391 16.5
v -2.66262131 -2.75643204 16.5
v -2.54701107 -2.18114208 12.375
v -4.81031437 -2.44012016 16.5
v -4.74027389 -2.12380829 16.5
v -4.45849811 -2.44012016 16.5
v -4.38845762 -2.12380829 16.5
v -4.6702334 -1.80749642 16.5
v -4.31841713 -1.80749642 16.5
v -3.83652568 -2.44012016 16.5
v -3.76648519 -2.12380829 16.5
v -3.76648519 -1.80749642 16.5
v -4.72760267 -0.90374821 16.5
v -4.17567073 -0.90374821 16.5
v -3.21455325 -2.44012016 16.5
v -3.21455325 -2.12380829 16.5
v -3.21455325 -1.80749642 16.5
v -2.66262131 -2.44012016 16.5
v -2.66262131 -2.12380829 16.5
v -2.66262131 -1.80749642 16.5
v -3.62373879 -0.90374821 16.5
v -2.5683941 -0.90374821 16.5
v -1.27350554 -3.70794153 12.375
v -2.04069053 -4.88024033 16.5
v -2.25353989 -3.97649212 16.5
v -1.97176411 -3.97649212 16.5
v -1.68998833 -3.97649212 16.5
v -1.40821255 -3.97649212 16.5
v -2.32885022 -3.39034272 14.4375
v -2.32885022 -3.04133685 14.4375
v -2.32885022 -2.69233098 14.4375
v -2.11068937 -3.07274391 16.5
v -2.11068937 -2.75643204 16.5
v -1.21860242 -4.88024033 16.5
v -0.78624012 -3.97649212 16.5
v -0.60930121 -4.88024033 16.5
v -0.16426769 -3.97649212 16.5
v -1.16442511 -3.39034272 14.4375
v -1.05534468 -3.07274391 16.5
v -1.27350554 -2.18114208 12.375
v -2.32885022 -2.34332512 14.4375
v -2.32885022 -1.99431925 14.4375
v -2.11068937 -2.44012016 16.5
v -2.11068937 -2.12380829 16.5
v -2.11068937 -1.80749642 16.5
v -1.51304942 -0.90374821 16.5
v -1.16442511 -1.99431925 14.4375
v -1.05534468 -1.80749642 16.5
v -0.45770474 -0.90374821 16.5
v -0.10588847 -0.90374821 16.5
v -8.16288705 1.80749642 0
v -8.16288705 3.07274391 0
v -5.7256822 1.80749642 0
v -5.7256822 3.07274391 0
v -8.16288705 6.68773675 0
v -5.7256822 6.68773675 0
v -5.7256822 8.16288705 0
v -2.11068937 1.80749642 0
v -2.11068937 3.07274391 0
v -2.11068937 6.68773675 0
v -2.11068937 8.16288705 0
v -8.16288705 1.80749642 8.25
v -9.00660305 -0 10.3125
v -9.00660305 0.99715962 10.3125
v -9.00660305 1.99431925 10.3125
v -8.33432447 1.99431925 10.3125
v -7.66204588 1.99431925 10.3125
v -8.16288705 3.07274391 8.25
v -9.00660305 3.39034272 10.3125
v -9.00660305 4.38750234 10.3125
v -8.33432447 3.39034272 10.3125
v -7.66204588 3.39034272 10.3125
v -5.7256822 1.80749642 8.25
v -6.9897673 1.99431925 10.3125
v -6.31748871 1.99431925 10.3125
v -6.31748871 2.34332512 10.3125
v -5.7256822 3.07274391 8.25
v -6.9897673 3.39034272 10.3125
v -6.31748871 2.69233098 10.3125
v -6.31748871 3.04133685 10.3125
v -6.31748871 3.39034272 10.3125
v -9.85031906 -0 12.375
v -9.85031906 1.09057104 12.375
v -9.85031906 2.18114208 12.375
v -9.1150631 2.18114208 12.375
v -8.37980714 2.18114208 12.375
v -7.64455118 2.18114208 12.375
v -9.00660305 -0 14.4375
v -9.00660305 0.99715962 14.4375
v -9.00660305 1.99431925 14.4375
v -8.16288705 -0 16.5
v -8.16288705 0.90374821 16.5
v -7.55358584 -0 16.5
v -7.55358584 0.90374821 16.5
v -8.33432447 1.99431925 14.4375
v -7.66204588 1.99431925 14.4375
v -8.16288705 1.80749642 16.5
v -7.55358584 1.80749642 16.5
v -9.85031906 3.70794153 12.375
v -9.85031906 4.79851257 12.375
v -9.1150631 3.70794153 12.375
v -8.37980714 3.70794153 12.375
v -7.64455118 3.70794153 12.375
v -9.00660305 3.39034272 14.4375
v -9.00660305 4.38750234 14.4375
v -8.33432447 3.39034272 14.4375
v -7.66204588 3.39034272 14.4375
v -8.16288705 3.07274391 16.5
v -7.55358584 3.07274391 16.5
v -8.16288705 3.97649212 16.5
v -8.16288705 4.88024033 16.5
v -7.55358584 3.97649212 16.5
v -7.55358584 4.88024033 16.5
v -6.90929523 2.18114208 12.375
v -6.94428463 -0 16.5
v -7.20176957 0.90374821 16.5
v -6.59246836 -0 16.5
v -6.24065209 -0 16.5
v -6.64983763 0.90374821 16.5
v -6.9897673 1.99431925 14.4375
v -6.31748871 1.99431925 14.4375
v -6.31748871 2.34332512 14.4375
v -6.94428463 1.80749642 16.5
v -6.33498341 1.80749642 16.5
v -5.68872015 -0 16.5
v -5.59449295 0.90374821 16.5
v -5.13678821 -0 16.5
v -5.24267668 0.90374821 16.5
v -5.7256822 1.80749642 16.5
v -5.7256822 2.12380829 16.5
v -5.7256822 2.44012016 16.5
v -5.17375026 1.80749642 16.5
v -5.17375026 2.12380829 16.5
v -5.17375026 2.44012016 16.5
v -6.90929523 2.56284194 12.375
v -6.90929523 2.9445418 12.375
v -6.90929523 3.32624167 12.375
v -6.90929523 3.70794153 12.375
v -6.9897673 3.39034272 14.4375
v -6.31748871 2.69233098 14.4375
v -6.31748871 3.04133685 14.4375
v -6.31748871 3.39034272 14.4375
v -6.94428463 3.07274391 16.5
v -6.33498341 3.07274391 16.5
v -6.94428463 3.97649212 16.5
v -6.94428463 4.88024033 16.5
v -6.33498341 3.97649212 16.5
v -6.3223122 4.88024033 16.5
v -5.7256822 2.75643204 16.5
v -5.7256822 3.07274391 16.5
v -5.17375026 2.75643204 16.5
v -5.10370977 3.07274391 16.5
v -5.71301099 3.97649212 16.5
v -5.70033977 4.88024033 16.5
v -5.09103856 3.97649212 16.5
v -5.41856399 4.88024033 16.5
v -5.13678821 4.88024033 16.5
v -8.16288705 6.68773675 8.25
v -9.00660305 5.38466197 10.3125
v -9.00660305 6.38182159 10.3125
v -9.00660305 7.37898122 10.3125
v -8.33432447 7.37898122 10.3125
v -7.66204588 7.37898122 10.3125
v -5.7256822 6.68773675 8.25
v -6.9897673 7.37898122 10.3125
v -6.31748871 7.37898122 10.3125
v -5.7256822 8.16288705 8.25
v -6.31748871 7.78588668 10.3125
v -6.31748871 8.19279214 10.3125
v -6.31748871 8.59969759 10.3125
v -6.31748871 9.00660305 10.3125
v -5.32032909 9.00660305 10.3125
v -9.85031906 5.88908361 12.375
v -9.85031906 6.97965465 12.375
v -9.00660305 5.38466197 14.4375
v -9.00660305 6.38182159 14.4375
v -9.00660305 7.37898122 14.4375
v -8.16288705 5.78398854 16.5
v -7.55358584 5.78398854 16.5
v -8.33432447 7.37898122 14.4375
v -7.66204588 7.37898122 14.4375
v -8.16288705 6.68773675 16.5
v -7.55358584 6.68773675 16.5
v -9.85031906 8.07022569 12.375
v -9.1150631 8.07022569 12.375
v -8.37980714 8.07022569 12.375
v -7.64455118 8.07022569 12.375
v -6.93161341 5.78398854 16.5
v -6.64983763 5.78398854 16.5
v -6.9897673 7.37898122 14.4375
v -6.31748871 7.37898122 14.4375
v -6.94428463 6.68773675 16.5
v -6.33498341 6.68773675 16.5
v -5.59449295 5.78398854 16.5
v -4.97252052 5.78398854 16.5
v -5.7256822 6.68773675 16.5
v -5.7256822 7.05652432 16.5
v -6.90929523 8.07022569 12.375
v -6.90929523 8.51524903 12.375
v -6.90929523 8.96027237 12.375
v -6.90929523 9.40529572 12.375
v -6.90929523 9.85031906 12.375
v -5.81872419 9.85031906 12.375
v -6.31748871 7.78588668 14.4375
v -6.31748871 8.19279214 14.4375
v -6.31748871 8.59969759 14.4375
v -6.31748871 9.00660305 14.4375
v -5.7256822 7.4253119 16.5
v -5.7256822 7.79409947 16.5
v -5.7256822 8.16288705 16.5
v -5.32032909 9.00660305 14.4375
v -2.11068937 1.80749642 8.25
v -2.11068937 2.12380829 8.25
v -2.11068937 2.44012016 8.25
v -2.32885022 1.99431925 10.3125
v -2.32885022 2.34332512 10.3125
v -1.16442511 1.99431925 10.3125
v -2.11068937 2.75643204 8.25
v -2.11068937 3.07274391 8.25
v -2.32885022 2.69233098 10.3125
v -2.32885022 3.04133685 10.3125
v -2.32885022 3.39034272 10.3125
v -1.16442511 3.39034272 10.3125
v -2.54701107 2.18114208 12.375
v -4.69074474 0.90374821 16.5
v -4.08144352 -0 16.5
v -4.08144352 0.90374821 16.5
v -4.62181832 1.80749642 16.5
v -4.62181832 2.12380829 16.5
v -4.62181832 2.44012016 16.5
v -4.06988638 1.80749642 16.5
v -4.06988638 2.12380829 16.5
v -3.99984589 2.44012016 16.5
v -3.47214231 0.90374821 16.5
v -3.02609884 -0 16.5
v -2.67428257 -0 16.5
v -2.8628411 0.90374821 16.5
v -3.51795443 1.80749642 16.5
v -3.16613817 1.80749642 16.5
v -3.44791395 2.12380829 16.5
v -3.09609768 2.12380829 16.5
v -3.37787346 2.44012016 16.5
v -2.8143219 1.80749642 16.5
v -3.02605719 2.44012016 16.5
v -2.74428141 2.12380829 16.5
v -2.67424093 2.44012016 16.5
v -2.54701107 2.56284194 12.375
v -2.54701107 2.9445418 12.375
v -2.54701107 3.32624167 12.375
v -2.54701107 3.70794153 12.375
v -4.55177783 2.75643204 16.5
v -4.48173735 3.07274391 16.5
v -3.9298054 2.75643204 16.5
v -3.85976492 3.07274391 16.5
v -4.46906613 3.97649212 16.5
v -4.18729035 3.97649212 16.5
v -3.90551457 3.97649212 16.5
v -4.08144352 4.88024033 16.5
v -3.30783298 2.75643204 16.5
v -3.23779249 3.07274391 16.5
v -2.95601671 2.75643204 16.5
v -2.95601671 3.07274391 16.5
v -2.67424093 2.75643204 16.5
v -2.67424093 3.07274391 16.5
v -3.62373879 3.97649212 16.5
v -2.5683941 3.97649212 16.5
v -3.02609884 4.88024033 16.5
v -1.27350554 2.18114208 12.375
v -2.32246631 -0 16.5
v -2.25353989 0.90374821 16.5
v -1.77053437 -0 16.5
v -1.70160795 0.90374821 16.5
v -2.32885022 1.99431925 14.4375
v -2.32885022 2.34332512 14.4375
v -2.46250563 1.80749642 16.5
v -2.11068937 1.80749642 16.5
v -2.39246515 2.12380829 16.5
v -2.39246515 2.44012016 16.5
v -2.11068937 2.12380829 16.5
v -2.11068937 2.44012016 16.5
v -1.21860242 -0 16.5
v -1.149676 0.90374821 16.5
v -0.60930121 -0 16.5
v -0.59774406 0.90374821 16.5
v -0.2459278 0.90374821 16.5
v -1.16442511 1.99431925 14.4375
v -1.05534468 1.80749642 16.5
v -1.27350554 3.70794153 12.375
v -2.32885022 2.69233098 14.4375
v -2.32885022 3.04133685 14.4375
v -2.32885022 3.39034272 14.4375
v -2.39246515 2.75643204 16.5
v -2.39246515 3.07274391 16.5
v -2.11068937 2.75643204 16.5
v -2.11068937 3.07274391 16.5
v -2.40412641 4.88024033 16.5
v -1.51304942 3.97649212 16.5
v -1.78215399 4.88024033 16.5
v -1.5003782 4.88024033 16.5
v -1.16442511 3.39034272 14.4375
v -1.05534468 3.07274391 16.5
v -1.21860242 4.88024033 16.5
v -0.45770474 3.97649212 16.5
v -0.60930121 4.88024033 16.5
v -4.32316947 9.00660305 10.3125
v -3.32600984 9.00660305 10.3125
v -2.11068937 6.68773675 8.25
v -2.11068937 7.05652432 8.25
v -2.32885022 7.37898122 10.3125
v -2.11068937 7.4253119 8.25
v -2.11068937 7.79409947 8.25
v -2.11068937 8.16288705 8.25
v -2.32885022 7.78588668 10.3125
v -2.32885022 8.19279214 10.3125
v -2.32885022 8.59969759 10.3125
v -2.32885022 9.00660305 10.3125
v -4.69074474 5.78398854 16.5
v -4.08144352 5.78398854 16.5
v -4.9035941 6.68773675 16.5
v -4.9035941 7.05652432 16.5
v -4.081506 6.68773675 16.5
v -4.081506 7.05652432 16.5
v -3.47214231 5.78398854 16.5
v -2.8628411 5.78398854 16.5
v -3.25941789 6.68773675 16.5
v -3.25941789 7.05652432 16.5
v -4.72815315 9.85031906 12.375
v -2.54701107 8.07022569 12.375
v -2.54701107 8.51524903 12.375
v -3.63758211 9.85031906 12.375
v -2.54701107 8.96027237 12.375
v -2.54701107 9.40529572 12.375
v -2.54701107 9.85031906 12.375
v -4.9035941 7.4253119 16.5
v -4.9035941 7.79409947 16.5
v -4.82193399 8.16288705 16.5
v -4.081506 7.4253119 16.5
v -3.99984589 7.79409947 16.5
v -3.91818578 8.16288705 16.5
v -4.32316947 9.00660305 14.4375
v -3.17775779 7.4253119 16.5
v -3.09609768 7.79409947 16.5
v -3.01443757 8.16288705 16.5
v -3.32600984 9.00660305 14.4375
v -2.25353989 5.78398854 16.5
v -1.43145179 5.78398854 16.5
v -2.32885022 7.37898122 14.4375
v -2.43732979 6.68773675 16.5
v -2.35566968 6.68773675 16.5
v -2.27400958 6.68773675 16.5
v -2.19234947 6.68773675 16.5
v -2.11068937 6.68773675 16.5
v -2.35566968 7.05652432 16.5
v -2.27400958 7.05652432 16.5
v -2.19234947 7.05652432 16.5
v -2.11068937 7.05652432 16.5
v -0.60936368 5.78398854 16.5
v -1.16442511 7.37898122 14.4375
v -1.05534468 6.68773675 16.5
v -1.27350554 8.07022569 12.375
v -2.32885022 7.78588668 14.4375
v -2.32885022 8.19279214 14.4375
v -2.32885022 8.59969759 14.4375
v -2.27400958 7.4253119 16.5
v -2.19234947 7.4253119 16.5
v -2.19234947 7.79409947 16.5
v -2.11068937 7.4253119 16.5
v -2.11068937 7.79409947 16.5
v -2.11068937 8.16288705 16.5
v -2.32885022 9.00660305 14.4375
v 2.11068937 -8.16288705 0
v 2.11068937 -6.68773675 0
v 2.11068937 -3.07274391 0
v 2.11068937 -1.80749642 0
v 5.7256822 -8.16288705 0
v 5.7256822 -6.68773675 0
v 8.16288705 -6.68773675 0
v 5.7256822 -3.07274391 0
v 5.7256822 -1.80749642 0
v 8.16288705 -3.07274391 0
v 8.16288705 -1.80749642 0
v 2.11068937 -8.16288705 8.25
v 2.32885022 -9.00660305 10.3125
v 2.32885022 -8.59969759 10.3125
v 2.32885022 -8.19279214 10.3125
v 2.32885022 -7.78588668 10.3125
v -0 -6.68773675 8.25
v 1.05534468 -6.68773675 8.25
v 2.11068937 -6.68773675 8.25
v -0 -7.37898122 10.3125
v 1.16442511 -7.37898122 10.3125
v 2.32885022 -7.37898122 10.3125
v 3.32600984 -9.00660305 10.3125
v 4.32316947 -9.00660305 10.3125
v -0 -8.07022569 12.375
v 1.27350554 -8.07022569 12.375
v 2.32885022 -9.00660305 14.4375
v 2.32885022 -8.59969759 14.4375
v 2.32885022 -8.19279214 14.4375
v 2.32885022 -7.78588668 14.4375
v 2.11068937 -8.16288705 16.5
v 2.11068937 -7.79409947 16.5
v 2.11068937 -7.4253119 16.5
v 2.19234947 -7.79409947 16.5
v 2.19234947 -7.4253119 16.5
v 2.27400958 -7.4253119 16.5
v -0 -7.37898122 14.4375
v 1.16442511 -7.37898122 14.4375
v -0 -6.68773675 16.5
v 1.05534468 -6.68773675 16.5
v 0.60936368 -5.78398854 16.5
v 2.32885022 -7.37898122 14.4375
v 2.11068937 -7.05652432 16.5
v 2.19234947 -7.05652432 16.5
v 2.27400958 -7.05652432 16.5
v 2.35566968 -7.05652432 16.5
v 2.11068937 -6.68773675 16.5
v 2.19234947 -6.68773675 16.5
v 2.27400958 -6.68773675 16.5
v 2.35566968 -6.68773675 16.5
v 2.43732979 -6.68773675 16.5
v 1.43145179 -5.78398854 16.5
v 2.25353989 -5.78398854 16.5
v 2.54701107 -9.85031906 12.375
v 2.54701107 -9.40529572 12.375
v 2.54701107 -8.96027237 12.375
v 3.63758211 -9.85031906 12.375
v 2.54701107 -8.51524903 12.375
v 2.54701107 -8.07022569 12.375
v 4.72815315 -9.85031906 12.375
v 3.32600984 -9.00660305 14.4375
v 3.01443757 -8.16288705 16.5
v 3.09609768 -7.79409947 16.5
v 3.17775779 -7.4253119 16.5
v 4.32316947 -9.00660305 14.4375
v 3.91818578 -8.16288705 16.5
v 3.99984589 -7.79409947 16.5
v 4.081506 -7.4253119 16.5
v 4.82193399 -8.16288705 16.5
v 4.9035941 -7.79409947 16.5
v 4.9035941 -7.4253119 16.5
v 3.25941789 -7.05652432 16.5
v 3.25941789 -6.68773675 16.5
v 2.8628411 -5.78398854 16.5
v 3.47214231 -5.78398854 16.5
v 4.081506 -7.05652432 16.5
v 4.081506 -6.68773675 16.5
v 4.9035941 -7.05652432 16.5
v 4.9035941 -6.68773675 16.5
v 4.08144352 -5.78398854 16.5
v 4.69074474 -5.78398854 16.5
v 2.11068937 -3.07274391 8.25
v -0 -3.39034272 10.3125
v 1.16442511 -3.39034272 10.3125
v 2.32885022 -3.39034272 10.3125
v 2.32885022 -3.04133685 10.3125
v 2.32885022 -2.69233098 10.3125
v 2.11068937 -1.80749642 8.25
v -0 -1.99431925 10.3125
v 1.16442511 -1.99431925 10.3125
v 2.32885022 -2.34332512 10.3125
v 2.32885022 -1.99431925 10.3125
v -0 -3.70794153 12.375
v 1.27350554 -3.70794153 12.375
v -0 -4.88024033 16.5
v 0.60930121 -4.88024033 16.5
v 0.45770474 -3.97649212 16.5
v 1.21860242 -4.88024033 16.5
v -0 -3.39034272 14.4375
v 1.16442511 -3.39034272 14.4375
v -0 -3.07274391 16.5
v 1.05534468 -3.07274391 16.5
v 1.5003782 -4.88024033 16.5
v 1.78215399 -4.88024033 16.5
v 1.51304942 -3.97649212 16.5
v 2.40412641 -4.88024033 16.5
v 2.32885022 -3.39034272 14.4375
v 2.32885022 -3.04133685 14.4375
v 2.32885022 -2.69233098 14.4375
v 2.11068937 -3.07274391 16.5
v 2.11068937 -2.75643204 16.5
v 2.39246515 -3.07274391 16.5
v 2.39246515 -2.75643204 16.5
v -0 -2.18114208 12.375
v 1.27350554 -2.18114208 12.375
v -0 -1.99431925 14.4375
v 1.16442511 -1.99431925 14.4375
v -0 -1.80749642 16.5
v 1.05534468 -1.80749642 16.5
v 0.2459278 -0.90374821 16.5
v 0.59774406 -0.90374821 16.5
v 1.149676 -0.90374821 16.5
v 2.32885022 -2.34332512 14.4375
v 2.32885022 -1.99431925 14.4375
v 2.11068937 -2.44012016 16.5
v 2.11068937 -2.12380829 16.5
v 2.39246515 -2.44012016 16.5
v 2.39246515 -2.12380829 16.5
v 2.11068937 -1.80749642 16.5
v 2.46250563 -1.80749642 16.5
v 1.70160795 -0.90374821 16.5
v 2.25353989 -0.90374821 16.5
v 2.54701107 -3.70794153 12.375
v 2.54701107 -3.32624167 12.375
v 2.54701107 -2.9445418 12.375
v 2.54701107 -2.56284194 12.375
v 3.02609884 -4.88024033 16.5
v 2.5683941 -3.97649212 16.5
v 3.62373879 -3.97649212 16.5
v 2.67424093 -3.07274391 16.5
v 2.67424093 -2.75643204 16.5
v 2.95601671 -3.07274391 16.5
v 2.95601671 -2.75643204 16.5
v 3.23779249 -3.07274391 16.5
v 3.30783298 -2.75643204 16.5
v 4.08144352 -4.88024033 16.5
v 3.90551457 -3.97649212 16.5
v 4.18729035 -3.97649212 16.5
v 4.46906613 -3.97649212 16.5
v 3.85976492 -3.07274391 16.5
v 3.9298054 -2.75643204 16.5
v 4.48173735 -3.07274391 16.5
v 4.55177783 -2.75643204 16.5
v 2.54701107 -2.18114208 12.375
v 2.67424093 -2.44012016 16.5
v 2.74428141 -2.12380829 16.5
v 3.02605719 -2.44012016 16.5
v 2.8143219 -1.80749642 16.5
v 3.37787346 -2.44012016 16.5
v 3.09609768 -2.12380829 16.5
v 3.44791395 -2.12380829 16.5
v 3.16613817 -1.80749642 16.5
v 3.51795443 -1.80749642 16.5
v 2.8628411 -0.90374821 16.5
v 3.47214231 -0.90374821 16.5
v 3.99984589 -2.44012016 16.5
v 4.06988638 -2.12380829 16.5
v 4.06988638 -1.80749642 16.5
v 4.62181832 -2.44012016 16.5
v 4.62181832 -2.12380829 16.5
v 4.62181832 -1.80749642 16.5
v 4.08144352 -0.90374821 16.5
v 4.69074474 -0.90374821 16.5
v 5.7256822 -8.16288705 8.25
v 5.7256822 -7.79409947 8.25
v 5.7256822 -7.4253119 8.25
v 5.32032909 -9.00660305 10.3125
v 6.31748871 -9.00660305 10.3125
v 6.31748871 -8.59969759 10.3125
v 6.31748871 -8.19279214 10.3125
v 6.31748871 -7.78588668 10.3125
v 5.7256822 -7.05652432 8.25
v 5.7256822 -6.68773675 8.25
v 6.33498341 -6.68773675 8.25
v 6.94428463 -6.68773675 8.25
v 6.31748871 -7.37898122 10.3125
v 6.9897673 -7.37898122 10.3125
v 7.55358584 -6.68773675 8.25
v 8.16288705 -6.68773675 8.25
v 7.66204588 -7.37898122 10.3125
v 8.33432447 -7.37898122 10.3125
v 9.00660305 -7.37898122 10.3125
v 9.00660305 -6.38182159 10.3125
v 9.00660305 -5.38466197 10.3125
v 5.81872419 -9.85031906 12.375
v 6.90929523 -9.85031906 12.375
v 6.90929523 -9.40529572 12.375
v 6.90929523 -8.96027237 12.375
v 6.90929523 -8.51524903 12.375
v 6.90929523 -8.07022569 12.375
v 5.32032909 -9.00660305 14.4375
v 5.7256822 -8.16288705 16.5
v 5.7256822 -7.79409947 16.5
v 5.7256822 -7.4253119 16.5
v 6.31748871 -9.00660305 14.4375
v 6.31748871 -8.59969759 14.4375
v 6.31748871 -8.19279214 14.4375
v 6.31748871 -7.78588668 14.4375
v 5.7256822 -7.05652432 16.5
v 5.7256822 -6.68773675 16.5
v 4.97252052 -5.78398854 16.5
v 5.59449295 -5.78398854 16.5
v 6.31748871 -7.37898122 14.4375
v 6.9897673 -7.37898122 14.4375
v 6.33498341 -6.68773675 16.5
v 6.94428463 -6.68773675 16.5
v 6.64983763 -5.78398854 16.5
v 6.93161341 -5.78398854 16.5
v 7.64455118 -8.07022569 12.375
v 8.37980714 -8.07022569 12.375
v 9.1150631 -8.07022569 12.375
v 9.85031906 -8.07022569 12.375
v 9.85031906 -6.97965465 12.375
v 9.85031906 -5.88908361 12.375
v 7.66204588 -7.37898122 14.4375
v 8.33432447 -7.37898122 14.4375
v 7.55358584 -6.68773675 16.5
v 8.16288705 -6.68773675 16.5
v 7.55358584 -5.78398854 16.5
v 8.16288705 -5.78398854 16.5
v 9.00660305 -7.37898122 14.4375
v 9.00660305 -6.38182159 14.4375
v 9.00660305 -5.38466197 14.4375
v 5.7256822 -3.07274391 8.25
v 5.7256822 -2.75643204 8.25
v 6.31748871 -3.39034272 10.3125
v 6.31748871 -3.04133685 10.3125
v 6.31748871 -2.69233098 10.3125
v 6.9897673 -3.39034272 10.3125
v 5.7256822 -2.44012016 8.25
v 5.7256822 -2.12380829 8.25
v 5.7256822 -1.80749642 8.25
v 6.31748871 -2.34332512 10.3125
v 6.31748871 -1.99431925 10.3125
v 6.9897673 -1.99431925 10.3125
v 8.16288705 -3.07274391 8.25
v 7.66204588 -3.39034272 10.3125
v 8.33432447 -3.39034272 10.3125
v 9.00660305 -4.38750234 10.3125
v 9.00660305 -3.39034272 10.3125
v 8.16288705 -1.80749642 8.25
v 7.66204588 -1.99431925 10.3125
v 8.33432447 -1.99431925 10.3125
v 9.00660305 -1.99431925 10.3125
v 9.00660305 -0.99715962 10.3125
v 6.90929523 -3.70794153 12.375
v 6.90929523 -3.32624167 12.375
v 6.90929523 -2.9445418 12.375
v 6.90929523 -2.56284194 12.375
v 5.13678821 -4.88024033 16.5
v 5.41856399 -4.88024033 16.5
v 5.09103856 -3.97649212 16.5
v 5.70033977 -4.88024033 16.5
v 5.71301099 -3.97649212 16.5
v 5.10370977 -3.07274391 16.5
v 5.17375026 -2.75643204 16.5
v 5.7256822 -3.07274391 16.5
v 5.7256822 -2.75643204 16.5
v 6.3223122 -4.88024033 16.5
v 6.33498341 -3.97649212 16.5
v 6.94428463 -4.88024033 16.5
v 6.94428463 -3.97649212 16.5
v 6.31748871 -3.39034272 14.4375
v 6.31748871 -3.04133685 14.4375
v 6.31748871 -2.69233098 14.4375
v 6.9897673 -3.39034272 14.4375
v 6.33498341 -3.07274391 16.5
v 6.94428463 -3.07274391 16.5
v 6.90929523 -2.18114208 12.375
v 5.17375026 -2.44012016 16.5
v 5.17375026 -2.12380829 16.5
v 5.17375026 -1.80749642 16.5
v 5.7256822 -2.44012016 16.5
v 5.7256822 -2.12380829 16.5
v 5.7256822 -1.80749642 16.5
v 5.24267668 -0.90374821 16.5
v 5.59449295 -0.90374821 16.5
v 6.31748871 -2.34332512 14.4375
v 6.31748871 -1.99431925 14.4375
v 6.9897673 -1.99431925 14.4375
v 6.33498341 -1.80749642 16.5
v 6.94428463 -1.80749642 16.5
v 6.64983763 -0.90374821 16.5
v 7.20176957 -0.90374821 16.5
v 7.64455118 -3.70794153 12.375
v 8.37980714 -3.70794153 12.375
v 9.1150631 -3.70794153 12.375
v 9.85031906 -4.79851257 12.375
v 9.85031906 -3.70794153 12.375
v 7.55358584 -4.88024033 16.5
v 7.55358584 -3.97649212 16.5
v 8.16288705 -4.88024033 16.5
v 8.16288705 -3.97649212 16.5
v 7.66204588 -3.39034272 14.4375
v 8.33432447 -3.39034272 14.4375
v 7.55358584 -3.07274391 16.5
v 8.16288705 -3.07274391 16.5
v 9.00660305 -4.38750234 14.4375
v 9.00660305 -3.39034272 14.4375
v 7.64455118 -2.18114208 12.375
v 8.37980714 -2.18114208 12.375
v 9.1150631 -2.18114208 12.375
v 9.85031906 -2.18114208 12.375
v 9.85031906 -1.09057104 12.375
v 7.66204588 -1.99431925 14.4375
v 8.33432447 -1.99431925 14.4375
v 7.55358584 -1.80749642 16.5
v 8.16288705 -1.80749642 16.5
v 7.55358584 -0.90374821 16.5
v 8.16288705 -0.90374821 16.5
v 9.00660305 -1.99431925 14.4375
v 9.00660305 -0.99715962 14.4375
v 2.11068937 1.80749642 0
v 2.11068937 3.07274391 0
v 2.11068937 6.68773675 0
v 2.11068937 8.16288705 0
v 5.7256822 1.80749642 0
v 5.7256822 3.07274391 0
v 8.16288705 1.80749642 0
v 8.16288705 3.07274391 0
v 5.7256822 6.68773675 0
v 5.7256822 8.16288705 0
v 8.16288705 6.68773675 0
v 2.11068937 1.80749642 8.25
v -0 1.99431925 10.3125
v 1.16442511 1.99431925 10.3125
v 2.32885022 1.99431925 10.3125
v 2.32885022 2.34332512 10.3125
v 2.11068937 3.07274391 8.25
v -0 3.39034272 10.3125
v 1.16442511 3.39034272 10.3125
v 2.32885022 2.69233098 10.3125
v 2.32885022 3.04133685 10.3125
v 2.32885022 3.39034272 10.3125
v -0 2.18114208 12.375
v 1.27350554 2.18114208 12.375
v -0 -0 16.5
v 0.60930121 -0 16.5
v 0.10588847 0.90374821 16.5
v 0.45770474 0.90374821 16.5
v 1.21860242 -0 16.5
v -0 1.99431925 14.4375
v 1.16442511 1.99431925 14.4375
v -0 1.80749642 16.5
v 1.05534468 1.80749642 16.5
v 1.77053437 -0 16.5
v 1.51304942 0.90374821 16.5
v 2.32246631 -0 16.5
v 2.32885022 1.99431925 14.4375
v 2.32885022 2.34332512 14.4375
v 2.11068937 1.80749642 16.5
v 2.11068937 2.12380829 16.5
v 2.11068937 2.44012016 16.5
v -0 3.70794153 12.375
v 1.27350554 3.70794153 12.375
v -0 3.39034272 14.4375
v 1.16442511 3.39034272 14.4375
v -0 3.07274391 16.5
v 1.05534468 3.07274391 16.5
v 0.16426769 3.97649212 16.5
v -0 4.88024033 16.5
v 0.60930121 4.88024033 16.5
v 0.78624012 3.97649212 16.5
v 1.21860242 4.88024033 16.5
v 2.32885022 2.69233098 14.4375
v 2.32885022 3.04133685 14.4375
v 2.32885022 3.39034272 14.4375
v 2.11068937 2.75643204 16.5
v 2.11068937 3.07274391 16.5
v 1.40821255 3.97649212 16.5
v 1.68998833 3.97649212 16.5
v 1.97176411 3.97649212 16.5
v 2.25353989 3.97649212 16.5
v 2.04069053 4.88024033 16.5
v 2.54701107 2.18114208 12.375
v 2.67428257 -0 16.5
v 3.02609884 -0 16.5
v 2.5683941 0.90374821 16.5
v 3.62373879 0.90374821 16.5
v 2.66262131 1.80749642 16.5
v 2.66262131 2.12380829 16.5
v 2.66262131 2.44012016 16.5
v 3.21455325 1.80749642 16.5
v 3.21455325 2.12380829 16.5
v 3.21455325 2.44012016 16.5
v 4.08144352 -0 16.5
v 4.17567073 0.90374821 16.5
v 4.72760267 0.90374821 16.5
v 3.76648519 1.80749642 16.5
v 3.76648519 2.12380829 16.5
v 3.83652568 2.44012016 16.5
v 4.31841713 1.80749642 16.5
v 4.6702334 1.80749642 16.5
v 4.38845762 2.12380829 16.5
v 4.45849811 2.44012016 16.5
v 4.74027389 2.12380829 16.5
v 4.81031437 2.44012016 16.5
v 2.54701107 2.56284194 12.375
v 2.54701107 2.9445418 12.375
v 2.54701107 3.32624167 12.375
v 2.54701107 3.70794153 12.375
v 2.66262131 2.75643204 16.5
v 2.73266179 3.07274391 16.5
v 3.28459374 2.75643204 16.5
v 3.35463422 3.07274391 16.5
v 2.8628411 3.97649212 16.5
v 2.86277863 4.88024033 16.5
v 2.94443874 4.88024033 16.5
v 3.02609884 4.88024033 16.5
v 3.47214231 3.97649212 16.5
v 3.90656616 2.75643204 16.5
v 3.97660665 3.07274391 16.5
v 4.52853859 2.75643204 16.5
v 4.59857908 3.07274391 16.5
v 4.88035486 2.75643204 16.5
v 4.88035486 3.07274391 16.5
v 4.08144352 3.97649212 16.5
v 4.08144352 4.88024033 16.5
v 4.69074474 3.97649212 16.5
v 2.11068937 6.68773675 8.25
v -0 7.37898122 10.3125
v 1.16442511 7.37898122 10.3125
v 2.32885022 7.37898122 10.3125
v 2.11068937 8.16288705 8.25
v 2.32885022 7.78588668 10.3125
v 2.32885022 8.19279214 10.3125
v 2.32885022 8.59969759 10.3125
v 2.32885022 9.00660305 10.3125
v 3.32600984 9.00660305 10.3125
v 4.32316947 9.00660305 10.3125
v 0.21272442 5.78398854 16.5
v 0.29438453 5.78398854 16.5
v 0.37604463 5.78398854 16.5
v 0.45770474 5.78398854 16.5
v -0 7.37898122 14.4375
v 1.16442511 7.37898122 14.4375
v -0 6.68773675 16.5
v 1.05534468 6.68773675 16.5
v 1.51304942 5.78398854 16.5
v 2.32885022 7.37898122 14.4375
v 2.11068937 6.68773675 16.5
v 2.11068937 7.05652432 16.5
v -0 8.07022569 12.375
v 1.27350554 8.07022569 12.375
v 2.32885022 7.78588668 14.4375
v 2.32885022 8.19279214 14.4375
v 2.32885022 8.59969759 14.4375
v 2.11068937 7.4253119 16.5
v 2.11068937 7.79409947 16.5
v 2.11068937 8.16288705 16.5
v 2.32885022 9.00660305 14.4375
v 2.5683941 5.78398854 16.5
v 3.62373879 5.78398854 16.5
v 2.93277747 6.68773675 16.5
v 2.93277747 7.05652432 16.5
v 4.44582689 5.78398854 16.5
v 3.75486557 6.68773675 16.5
v 3.75486557 7.05652432 16.5
v 4.57695367 6.68773675 16.5
v 4.57695367 7.05652432 16.5
v 2.54701107 8.07022569 12.375
v 2.54701107 8.51524903 12.375
v 2.54701107 8.96027237 12.375
v 2.54701107 9.40529572 12.375
v 2.54701107 9.85031906 12.375
v 3.63758211 9.85031906 12.375
v 4.72815315 9.85031906 12.375
v 2.93277747 7.4253119 16.5
v 2.93277747 7.79409947 16.5
v 3.01443757 8.16288705 16.5
v 3.32600984 9.00660305 14.4375
v 3.75486557 7.4253119 16.5
v 3.83652568 7.79409947 16.5
v 3.91818578 8.16288705 16.5
v 4.65861378 7.4253119 16.5
v 4.74027389 7.79409947 16.5
v 4.82193399 8.16288705 16.5
v 4.32316947 9.00660305 14.4375
v 5.7256822 1.80749642 8.25
v 5.7256822 2.12380829 8.25
v 5.7256822 2.44012016 8.25
v 6.31748871 1.99431925 10.3125
v 6.31748871 2.34332512 10.3125
v 6.9897673 1.99431925 10.3125
v 5.7256822 2.75643204 8.25
v 5.7256822 3.07274391 8.25
v 6.31748871 2.69233098 10.3125
v 6.31748871 3.04133685 10.3125
v 6.31748871 3.39034272 10.3125
v 6.9897673 3.39034272 10.3125
v 8.16288705 1.80749642 8.25
v 7.66204588 1.99431925 10.3125
v 8.33432447 1.99431925 10.3125
v 9.00660305 -0 10.3125
v 9.00660305 0.99715962 10.3125
v 9.00660305 1.99431925 10.3125
v 8.16288705 3.07274391 8.25
v 7.66204588 3.39034272 10.3125
v 8.33432447 3.39034272 10.3125
v 9.00660305 3.39034272 10.3125
v 9.00660305 4.38750234 10.3125
v 6.90929523 2.18114208 12.375
v 5.13678821 -0 16.5
v 5.27953461 0.90374821 16.5
v 5.68872015 -0 16.5
v 5.63135088 0.90374821 16.5
v 5.98316715 0.90374821 16.5
v 5.02204967 1.80749642 16.5
v 5.37386593 1.80749642 16.5
v 5.09209015 2.12380829 16.5
v 5.16213064 2.44012016 16.5
v 5.44390642 2.12380829 16.5
v 5.44390642 2.44012016 16.5
v 5.7256822 1.80749642 16.5
v 5.7256822 2.12380829 16.5
v 5.7256822 2.44012016 16.5
v 6.24065209 -0 16.5
v 6.59246836 -0 16.5
v 6.33498341 0.90374821 16.5
v 6.94428463 -0 16.5
v 6.94428463 0.90374821 16.5
v 6.31748871 1.99431925 14.4375
v 6.31748871 2.34332512 14.4375
v 6.9897673 1.99431925 14.4375
v 6.33498341 1.80749642 16.5
v 6.94428463 1.80749642 16.5
v 6.90929523 2.56284194 12.375
v 6.90929523 2.9445418 12.375
v 6.90929523 3.32624167 12.375
v 6.90929523 3.70794153 12.375
v 5.16213064 2.75643204 16.5
v 5.16213064 3.07274391 16.5
v 5.44390642 2.75643204 16.5
v 5.44390642 3.07274391 16.5
v 5.7256822 2.75643204 16.5
v 5.7256822 3.07274391 16.5
v 5.51283284 3.97649212 16.5
v 5.13678821 4.88024033 16.5
v 5.59449295 3.97649212 16.5
v 5.95887631 4.88024033 16.5
v 6.31748871 2.69233098 14.4375
v 6.31748871 3.04133685 14.4375
v 6.31748871 3.39034272 14.4375
v 6.9897673 3.39034272 14.4375
v 6.33498341 3.07274391 16.5
v 6.94428463 3.07274391 16.5
v 6.64983763 3.97649212 16.5
v 6.78096441 4.88024033 16.5
v 6.86262452 4.88024033 16.5
v 6.94428463 4.88024033 16.5
v 7.64455118 2.18114208 12.375
v 8.37980714 2.18114208 12.375
v 9.85031906 -0 12.375
v 9.85031906 1.09057104 12.375
v 9.1150631 2.18114208 12.375
v 9.85031906 2.18114208 12.375
v 7.55358584 -0 16.5
v 7.55358584 0.90374821 16.5
v 8.16288705 -0 16.5
v 8.16288705 0.90374821 16.5
v 7.66204588 1.99431925 14.4375
v 8.33432447 1.99431925 14.4375
v 7.55358584 1.80749642 16.5
v 8.16288705 1.80749642 16.5
v 9.00660305 -0 14.4375
v 9.00660305 0.99715962 14.4375
v 9.00660305 1.99431925 14.4375
v 7.64455118 3.70794153 12.375
v 8.37980714 3.70794153 12.375
v 9.1150631 3.70794153 12.375
v 9.85031906 3.70794153 12.375
v 9.85031906 4.79851257 12.375
v 7.66204588 3.39034272 14.4375
v 8.33432447 3.39034272 14.4375
v 7.55358584 3.07274391 16.5
v 8.16288705 3.07274391 16.5
v 7.47192573 3.97649212 16.5
v 7.55358584 3.97649212 16.5
v 7.55358584 4.88024033 16.5
v 8.16288705 3.97649212 16.5
v 8.16288705 4.88024033 16.5
v 9.00660305 3.39034272 14.4375
v 9.00660305 4.38750234 14.4375
v 5.7256822 6.68773675 8.25
v 6.31748871 7.37898122 10.3125
v 6.9897673 7.37898122 10.3125
v 5.7256822 8.16288705 8.25
v 5.32032909 9.00660305 10.3125
v 6.31748871 7.78588668 10.3125
v 6.31748871 8.19279214 10.3125
v 6.31748871 8.59969759 10.3125
v 6.31748871 9.00660305 10.3125
v 8.16288705 6.68773675 8.25
v 7.66204588 7.37898122 10.3125
v 8.33432447 7.37898122 10.3125
v 9.00660305 5.38466197 10.3125
v 9.00660305 6.38182159 10.3125
v 9.00660305 7.37898122 10.3125
v 5.26791499 5.78398854 16.5
v 6.0900031 5.78398854 16.5
v 5.39904178 6.68773675 16.5
v 5.48070188 6.68773675 16.5
v 5.48070188 7.05652432 16.5
v 5.56236199 6.68773675 16.5
v 5.6440221 6.68773675 16.5
v 5.7256822 6.68773675 16.5
v 5.56236199 7.05652432 16.5
v 5.6440221 7.05652432 16.5
v 5.7256822 7.05652432 16.5
v 6.1716632 5.78398854 16.5
v 6.25332331 5.78398854 16.5
v 6.33498341 5.78398854 16.5
v 6.94428463 5.78398854 16.5
v 6.31748871 7.37898122 14.4375
v 6.9897673 7.37898122 14.4375
v 6.33498341 6.68773675 16.5
v 6.94428463 6.68773675 16.5
v 5.81872419 9.85031906 12.375
v 6.90929523 8.07022569 12.375
v 6.90929523 8.51524903 12.375
v 6.90929523 8.96027237 12.375
v 6.90929523 9.40529572 12.375
v 6.90929523 9.85031906 12.375
v 5.56236199 7.4253119 16.5
v 5.6440221 7.4253119 16.5
v 5.7256822 7.4253119 16.5
v 5.6440221 7.79409947 16.5
v 5.7256822 7.79409947 16.5
v 5.7256822 8.16288705 16.5
v 5.32032909 9.00660305 14.4375
v 6.31748871 7.78588668 14.4375
v 6.31748871 8.19279214 14.4375
v 6.31748871 8.59969759 14.4375
v 6.31748871 9.00660305 14.4375
v 9.85031906 5.88908361 12.375
v 9.85031906 6.97965465 12.375
v 7.55358584 5.78398854 16.5
v 8.16288705 5.78398854 16.5
v 7.66204588 7.37898122 14.4375
v 8.33432447 7.37898122 14.4375
v 7.55358584 6.68773675 16.5
v 8.16288705 6.68773675 16.5
v 9.00660305 5.38466197 14.4375
v 9.00660305 6.38182159 14.4375
v 9.00660305 7.37898122 14.4375
v 7.64455118 8.07022569 12.375
v 8.37980714 8.07022569 12.375
v 9.1150631 8.07022569 12.375
v 9.85031906 8.07022569 12.375
f 1 4 3
f 1 3 12
f 1 12 81
f 3 13 12
f 3 25 13
f 3 26 25
f 3 27 26
f 1 81 4
f 3 4 6
f 4 91 6
f 4 81 91
f 9 10 632
f 9 632 182
f 632 183 182
f 10 231 712
f 632 647 183
f 632 648 647
f 632 649 648
f 10 633 632
f 10 712 633
f 636 638 637
f 636 637 813
f 637 640 819
f 637 814 813
f 637 815 814
f 637 818 815
f 637 819 818
f 637 638 640
f 638 876 640
f 638 864 876
f 640 876 819
f 5 311 7
f 5 7 86
f 5 86 322
f 7 95 86
f 11 318 634
f 11 634 237
f 5 322 311
f 7 311 313
f 311 333 313
f 311 322 333
f 318 472 964
f 634 718 237
f 639 957 641
f 639 641 872
f 641 959 881
f 641 881 872
f 318 953 634
f 318 964 953
f 641 957 959
f 957 1131 959
f 957 1119 1131
f 959 1131 881
f 312 315 314
f 312 314 328
f 312 328 418
f 314 337 328
f 312 418 315
f 314 315 316
f 315 424 316
f 315 418 424
f 319 320 954
f 319 954 479
f 320 567 1060
f 954 969 479
f 320 955 954
f 320 1060 955
f 958 961 960
f 958 960 1126
f 960 963 1137
f 960 1137 1126
f 960 961 963
f 961 1233 963
f 961 1224 1233
f 963 1233 1137
f 2 27 3
f 2 19 27
f 6 95 7
f 6 91 95
f 2 9 8
f 2 8 19
f 2 10 9
f 8 9 174
f 8 174 19
f 9 175 174
f 9 176 175
f 9 181 176
f 9 182 181
f 2 11 10
f 2 318 11
f 2 3 321
f 3 6 321
f 2 319 318
f 10 11 231
f 11 232 231
f 11 237 232
f 313 337 314
f 313 333 337
f 316 427 317
f 316 424 427
f 6 7 321
f 2 320 319
f 2 321 320
f 7 313 321
f 313 314 321
f 318 319 472
f 319 473 472
f 319 474 473
f 319 478 474
f 319 479 478
f 314 316 321
f 316 317 321
f 317 572 321
f 320 321 567
f 317 427 572
f 321 568 567
f 321 570 568
f 321 571 570
f 321 572 571
f 631 649 632
f 631 636 635
f 631 635 642
f 631 638 636
f 631 642 649
f 635 804 642
f 633 718 634
f 631 639 638
f 631 957 639
f 631 632 962
f 632 633 962
f 631 958 957
f 633 712 718
f 635 636 804
f 636 805 804
f 636 806 805
f 636 812 806
f 636 813 812
f 638 639 864
f 639 865 864
f 639 870 865
f 639 871 870
f 639 872 871
f 953 969 954
f 633 634 962
f 631 961 958
f 631 962 961
f 634 953 962
f 953 954 962
f 953 964 969
f 955 1064 956
f 954 955 962
f 955 956 962
f 956 1227 962
f 955 1060 1064
f 956 1064 1227
f 957 958 1119
f 958 1120 1119
f 958 1121 1120
f 958 1125 1121
f 958 1126 1125
f 961 962 1224
f 962 1227 1224
f 14 17 30
f 14 30 34
f 17 31 30
f 17 18 31
f 18 28 32
f 18 32 31
f 28 33 32
f 12 14 15
f 15 16 81
f 12 13 14
f 13 25 17
f 13 17 14
f 25 18 17
f 15 81 12
f 14 34 15
f 15 34 35
f 15 35 16
f 16 35 99
f 28 29 33
f 29 49 33
f 25 26 18
f 26 27 28
f 26 28 18
f 28 27 29
f 30 31 36
f 31 39 36
f 31 32 39
f 32 33 40
f 32 40 39
f 33 62 40
f 30 37 34
f 30 36 37
f 34 37 38
f 34 38 35
f 35 104 99
f 35 38 104
f 36 43 37
f 37 106 38
f 36 39 41
f 39 40 42
f 39 42 41
f 36 41 43
f 41 42 43
f 37 43 106
f 42 44 43
f 43 44 106
f 44 108 106
f 33 49 62
f 49 63 62
f 40 62 64
f 62 63 65
f 40 64 42
f 42 64 44
f 62 65 64
f 64 65 66
f 44 64 66
f 44 66 108
f 66 132 108
f 65 67 66
f 66 67 132
f 67 68 132
f 68 133 132
f 69 134 133
f 68 69 133
f 69 79 134
f 63 73 65
f 65 73 67
f 67 73 74
f 68 74 75
f 69 75 77
f 77 78 79
f 78 205 79
f 67 74 68
f 68 75 69
f 69 77 79
f 79 80 134
f 80 142 134
f 79 205 80
f 80 208 142
f 142 208 144
f 16 82 81
f 82 83 81
f 83 84 81
f 84 85 81
f 85 92 81
f 16 99 82
f 82 100 83
f 82 99 100
f 83 101 84
f 83 100 101
f 84 102 85
f 85 103 92
f 84 101 102
f 85 102 103
f 93 91 81
f 92 93 81
f 92 128 93
f 92 103 128
f 99 105 100
f 99 104 105
f 100 111 101
f 100 105 111
f 101 112 102
f 102 136 103
f 101 111 112
f 102 112 136
f 38 107 104
f 104 113 105
f 38 106 107
f 104 107 113
f 106 108 107
f 107 108 109
f 105 114 111
f 111 140 112
f 105 113 114
f 111 114 140
f 107 109 113
f 109 110 113
f 110 135 113
f 103 137 128
f 103 136 137
f 108 132 109
f 109 132 133
f 110 133 134
f 109 133 110
f 110 134 142
f 110 142 135
f 112 141 136
f 136 146 137
f 112 140 141
f 113 135 143
f 136 141 146
f 113 247 114
f 113 143 145
f 135 142 144
f 135 144 246
f 135 246 143
f 113 145 245
f 114 254 140
f 113 245 247
f 140 258 141
f 114 247 254
f 184 185 192
f 185 213 192
f 185 650 213
f 213 650 655
f 183 184 182
f 183 185 184
f 183 647 185
f 185 647 650
f 80 205 207
f 207 210 208
f 80 207 208
f 144 208 211
f 144 211 212
f 144 212 246
f 210 223 211
f 208 210 211
f 224 255 246
f 212 224 246
f 192 213 221
f 213 225 221
f 213 655 225
f 225 655 667
f 221 225 223
f 211 223 226
f 225 226 223
f 211 226 212
f 228 256 255
f 229 257 256
f 212 669 224
f 224 227 255
f 227 228 255
f 257 671 284
f 225 667 226
f 212 226 669
f 226 667 669
f 224 669 670
f 228 229 256
f 229 230 257
f 230 671 257
f 224 670 227
f 284 682 294
f 233 236 231
f 236 713 231
f 713 714 231
f 233 283 236
f 233 241 283
f 236 723 713
f 236 283 723
f 143 256 145
f 143 246 255
f 143 255 256
f 145 256 257
f 145 284 245
f 141 285 146
f 140 254 258
f 146 285 148
f 148 286 150
f 141 258 285
f 150 287 248
f 145 257 284
f 245 296 247
f 245 284 294
f 247 725 254
f 248 288 250
f 148 285 286
f 250 288 252
f 150 286 287
f 248 287 288
f 252 295 259
f 241 298 283
f 241 289 298
f 283 729 723
f 283 298 729
f 245 294 296
f 254 726 258
f 247 296 725
f 258 728 285
f 289 299 298
f 252 288 295
f 259 297 261
f 289 292 299
f 259 295 297
f 261 727 292
f 254 725 726
f 285 728 286
f 286 733 287
f 258 726 728
f 287 734 288
f 288 734 295
f 298 731 729
f 298 299 731
f 261 297 727
f 292 727 299
f 650 651 655
f 651 656 655
f 651 652 656
f 652 689 656
f 647 648 650
f 648 651 650
f 648 649 651
f 651 649 652
f 655 656 667
f 656 668 667
f 656 689 668
f 689 672 668
f 667 668 669
f 668 670 669
f 227 670 677
f 227 678 228
f 228 679 229
f 284 671 682
f 294 704 296
f 229 680 230
f 230 703 671
f 294 682 683
f 296 705 725
f 668 672 670
f 672 677 670
f 227 677 678
f 228 678 679
f 229 679 680
f 230 680 681
f 230 681 703
f 294 683 704
f 710 726 725
f 671 707 682
f 296 704 705
f 711 728 726
f 671 703 707
f 682 707 709
f 682 709 683
f 705 710 725
f 711 733 728
f 733 841 734
f 734 841 736
f 710 711 726
f 736 842 767
f 683 709 840
f 683 840 845
f 683 845 704
f 711 841 733
f 767 842 776
f 704 846 705
f 736 841 842
f 714 712 231
f 714 715 712
f 713 724 714
f 713 723 724
f 714 763 715
f 714 724 763
f 723 730 724
f 723 729 730
f 724 737 763
f 724 730 737
f 286 728 733
f 287 733 734
f 295 736 297
f 295 734 736
f 297 767 727
f 729 732 730
f 729 731 732
f 299 727 735
f 299 735 731
f 731 768 732
f 297 736 767
f 727 767 735
f 730 740 737
f 730 732 740
f 731 735 768
f 732 768 769
f 732 769 740
f 735 767 776
f 735 776 768
f 740 769 742
f 742 777 770
f 742 769 777
f 770 778 772
f 770 777 778
f 772 779 774
f 768 776 890
f 768 890 769
f 769 890 777
f 777 890 891
f 777 891 778
f 778 893 779
f 772 778 779
f 774 779 780
f 779 892 780
f 780 892 782
f 816 817 830
f 817 849 830
f 814 816 813
f 814 815 817
f 815 818 820
f 814 817 816
f 815 820 817
f 817 820 849
f 820 821 850
f 820 850 849
f 821 851 850
f 821 822 851
f 822 852 851
f 818 819 821
f 818 821 820
f 819 822 821
f 822 819 823
f 823 819 824
f 824 819 879
f 822 823 852
f 823 824 853
f 823 853 852
f 824 879 854
f 824 854 853
f 879 928 854
f 830 849 843
f 849 844 843
f 704 845 846
f 705 846 857
f 705 857 710
f 776 842 847
f 776 847 890
f 710 858 711
f 711 858 841
f 847 891 890
f 848 893 891
f 843 844 840
f 844 855 845
f 844 845 840
f 710 857 858
f 845 855 846
f 841 858 842
f 847 848 891
f 848 899 893
f 842 858 847
f 847 858 848
f 848 859 899
f 859 901 899
f 859 930 901
f 849 850 844
f 850 851 855
f 850 855 844
f 851 856 855
f 851 852 856
f 852 853 861
f 852 861 856
f 853 854 862
f 853 862 861
f 854 928 863
f 854 863 862
f 846 855 856
f 856 861 857
f 846 856 857
f 861 858 857
f 862 860 858
f 848 858 859
f 858 860 859
f 859 860 930
f 860 932 930
f 863 932 860
f 861 862 858
f 862 863 860
f 866 869 864
f 869 877 864
f 877 878 864
f 866 925 869
f 866 886 925
f 879 819 876
f 878 876 864
f 878 880 876
f 879 876 880
f 869 926 877
f 877 927 878
f 869 925 926
f 877 926 927
f 879 880 928
f 880 929 928
f 878 929 880
f 878 927 929
f 886 906 925
f 886 903 906
f 778 891 893
f 779 893 892
f 892 893 899
f 892 899 894
f 782 892 894
f 782 894 895
f 903 897 907
f 894 900 895
f 895 900 897
f 897 900 907
f 894 899 901
f 894 901 900
f 900 901 902
f 901 930 902
f 902 930 931
f 903 907 906
f 906 908 934
f 906 907 908
f 900 902 907
f 902 908 907
f 908 936 934
f 902 931 908
f 908 931 936
f 925 934 926
f 926 935 927
f 925 906 934
f 926 934 935
f 928 929 938
f 863 928 938
f 929 939 938
f 927 939 929
f 927 935 939
f 930 932 931
f 931 932 933
f 938 933 932
f 934 936 935
f 935 937 939
f 931 933 936
f 933 937 936
f 935 936 937
f 939 937 933
f 863 938 932
f 938 939 933
f 87 88 86
f 87 86 89
f 89 86 90
f 90 86 96
f 88 322 86
f 87 117 88
f 87 89 115
f 87 115 117
f 89 116 115
f 88 342 323
f 88 117 342
f 89 90 116
f 90 96 118
f 90 118 116
f 96 119 118
f 96 86 95
f 96 95 98
f 96 98 119
f 98 152 119
f 115 116 120
f 115 121 117
f 115 120 121
f 116 122 120
f 117 348 342
f 117 121 348
f 116 118 122
f 118 119 123
f 118 123 122
f 119 153 123
f 120 126 121
f 121 351 348
f 120 122 124
f 122 123 125
f 122 125 124
f 120 124 126
f 124 125 126
f 121 126 351
f 125 127 126
f 126 127 351
f 127 353 351
f 119 152 153
f 152 155 153
f 123 153 156
f 153 155 157
f 123 156 125
f 125 156 127
f 153 157 156
f 156 157 158
f 127 156 158
f 127 158 353
f 158 375 353
f 157 159 158
f 158 159 375
f 169 377 375
f 159 169 375
f 155 162 157
f 157 162 159
f 159 162 167
f 167 168 169
f 168 268 170
f 159 167 169
f 168 170 169
f 169 170 377
f 170 378 377
f 170 171 378
f 273 385 378
f 170 268 171
f 171 273 378
f 274 387 385
f 239 237 240
f 240 237 719
f 719 237 720
f 239 240 263
f 240 300 263
f 240 719 300
f 300 719 744
f 171 268 269
f 171 269 272
f 272 277 273
f 171 272 273
f 273 274 385
f 274 281 387
f 273 277 274
f 281 282 387
f 282 486 387
f 274 277 280
f 280 305 281
f 274 280 281
f 306 495 486
f 282 306 486
f 263 300 302
f 300 307 302
f 300 744 307
f 307 744 746
f 302 307 305
f 281 305 308
f 307 308 305
f 281 308 282
f 310 496 495
f 282 748 306
f 306 309 495
f 496 750 529
f 307 746 308
f 282 308 748
f 308 746 748
f 306 748 749
f 309 310 495
f 529 752 531
f 310 750 496
f 306 749 309
f 529 750 751
f 531 761 541
f 529 751 752
f 88 323 322
f 323 324 322
f 324 325 322
f 326 333 322
f 325 326 322
f 323 343 324
f 323 342 343
f 324 344 325
f 325 345 326
f 324 343 344
f 325 344 345
f 326 346 327
f 327 347 334
f 326 345 346
f 327 346 347
f 326 327 333
f 327 334 333
f 334 335 333
f 334 374 335
f 334 347 374
f 342 349 343
f 342 348 349
f 343 350 344
f 344 355 345
f 343 349 350
f 344 350 355
f 345 356 346
f 346 380 347
f 345 355 356
f 346 356 380
f 348 352 349
f 349 357 350
f 348 351 352
f 351 353 352
f 352 353 354
f 352 354 357
f 354 376 357
f 350 358 355
f 355 383 356
f 349 352 357
f 350 357 358
f 355 358 383
f 347 381 374
f 347 380 381
f 353 375 354
f 354 377 376
f 354 375 377
f 357 376 379
f 357 379 386
f 376 377 378
f 376 385 379
f 376 378 385
f 357 386 388
f 356 384 380
f 380 389 381
f 356 383 384
f 357 487 358
f 380 384 389
f 379 385 387
f 357 388 485
f 357 485 487
f 379 387 486
f 379 486 386
f 358 487 494
f 358 494 383
f 383 497 384
f 475 477 472
f 477 964 472
f 475 528 477
f 475 484 528
f 477 975 965
f 477 528 975
f 386 496 388
f 383 494 497
f 386 486 495
f 386 495 496
f 388 531 485
f 384 497 530
f 384 530 389
f 389 530 392
f 392 532 488
f 388 496 529
f 388 529 531
f 485 543 487
f 485 531 541
f 487 977 494
f 392 530 532
f 488 532 542
f 488 542 491
f 491 544 498
f 484 546 528
f 484 533 546
f 528 982 975
f 528 546 982
f 485 541 543
f 494 978 497
f 491 542 544
f 487 543 977
f 497 981 530
f 499 544 545
f 533 547 546
f 498 544 499
f 499 545 503
f 503 979 535
f 535 980 536
f 533 536 547
f 494 977 978
f 530 981 532
f 503 545 979
f 535 979 980
f 497 978 981
f 532 986 542
f 546 984 982
f 536 980 547
f 546 547 984
f 720 237 718
f 720 718 722
f 719 720 744
f 720 745 744
f 720 722 745
f 722 784 745
f 744 745 746
f 745 747 746
f 745 784 747
f 784 754 747
f 746 747 748
f 747 749 748
f 309 749 759
f 531 752 761
f 541 794 543
f 309 760 310
f 310 788 750
f 541 761 762
f 543 795 977
f 747 754 749
f 754 759 749
f 309 759 760
f 310 760 788
f 750 788 792
f 751 792 793
f 750 792 751
f 541 762 794
f 802 978 977
f 751 798 752
f 543 794 795
f 803 981 978
f 751 793 798
f 752 798 801
f 752 801 761
f 761 912 762
f 795 802 977
f 803 986 981
f 802 803 978
f 916 988 986
f 916 1016 988
f 761 801 912
f 762 912 915
f 762 915 921
f 762 921 794
f 803 916 986
f 917 1017 1016
f 917 1026 1017
f 794 922 795
f 916 917 1016
f 874 872 875
f 875 872 882
f 882 872 883
f 874 875 909
f 875 940 909
f 883 872 881
f 883 881 884
f 884 881 885
f 885 881 1134
f 1134 881 1135
f 875 882 940
f 882 883 941
f 882 941 940
f 883 942 941
f 883 884 942
f 884 885 943
f 884 943 942
f 885 944 943
f 885 1134 944
f 944 1134 1193
f 909 940 919
f 940 920 919
f 794 921 922
f 795 922 947
f 795 947 802
f 917 923 1026
f 923 1143 1026
f 802 948 803
f 803 948 916
f 923 1145 1143
f 919 920 915
f 920 945 921
f 920 921 915
f 802 947 948
f 921 945 922
f 916 948 917
f 924 1157 1145
f 923 924 1145
f 924 1158 1157
f 917 948 923
f 923 948 924
f 949 1160 1158
f 924 949 1158
f 949 1197 1160
f 940 941 920
f 941 942 945
f 941 945 920
f 942 946 945
f 942 943 946
f 943 944 951
f 943 951 946
f 944 952 951
f 944 1193 952
f 952 1193 1205
f 922 945 946
f 946 951 947
f 922 946 947
f 951 948 947
f 952 950 948
f 924 948 949
f 948 950 949
f 949 950 1197
f 950 1199 1197
f 950 1205 1199
f 951 952 948
f 952 1205 950
f 477 965 964
f 965 966 964
f 966 967 964
f 965 976 966
f 965 975 976
f 966 1015 967
f 966 976 1015
f 975 983 976
f 975 982 983
f 976 989 1015
f 976 983 989
f 542 988 544
f 532 981 986
f 544 988 545
f 547 980 987
f 545 1016 979
f 542 986 988
f 979 1017 980
f 982 985 983
f 547 987 984
f 982 984 985
f 984 1018 985
f 545 988 1016
f 980 1017 987
f 984 987 1018
f 979 1016 1017
f 985 1018 1019
f 983 991 989
f 983 985 991
f 985 1019 991
f 987 1026 1018
f 987 1017 1026
f 1019 1027 1020
f 991 1019 1020
f 1020 1027 1023
f 1018 1026 1143
f 1018 1143 1019
f 1023 1027 1028
f 1019 1143 1027
f 1027 1145 1028
f 1028 1144 1029
f 1023 1028 1029
f 1029 1144 1032
f 1032 1144 1033
f 1124 1131 1119
f 1122 1124 1119
f 1122 1191 1124
f 1122 1142 1191
f 1135 881 1131
f 1124 1132 1131
f 1132 1133 1131
f 1133 1136 1131
f 1135 1131 1136
f 1124 1192 1132
f 1132 1195 1133
f 1124 1191 1192
f 1132 1192 1195
f 1134 1135 1193
f 1135 1194 1193
f 1133 1196 1136
f 1135 1136 1194
f 1133 1195 1196
f 1136 1196 1194
f 1142 1164 1191
f 1142 1162 1164
f 1027 1143 1145
f 1028 1157 1144
f 1033 1144 1146
f 1028 1145 1157
f 1144 1157 1146
f 1146 1157 1158
f 1146 1158 1147
f 1146 1147 1148
f 1147 1159 1149
f 1033 1146 1148
f 1147 1149 1148
f 1149 1159 1154
f 1154 1159 1165
f 1162 1154 1165
f 1147 1160 1159
f 1147 1158 1160
f 1159 1160 1161
f 1159 1161 1165
f 1160 1197 1161
f 1161 1197 1198
f 1161 1198 1166
f 1162 1165 1164
f 1164 1166 1201
f 1161 1166 1165
f 1164 1165 1166
f 1166 1198 1203
f 1166 1203 1201
f 1191 1201 1192
f 1192 1202 1195
f 1191 1164 1201
f 1192 1201 1202
f 1193 1194 1205
f 1194 1206 1205
f 1194 1196 1206
f 1195 1207 1196
f 1195 1202 1207
f 1196 1207 1206
f 1197 1199 1198
f 1198 1199 1200
f 1198 1200 1203
f 1206 1200 1199
f 1201 1203 1202
f 1202 1204 1207
f 1200 1204 1203
f 1207 1204 1200
f 1202 1203 1204
f 1205 1206 1199
f 1206 1207 1200
f 329 330 328
f 331 328 337
f 329 328 331
f 330 418 328
f 329 331 359
f 331 361 359
f 329 360 330
f 329 359 360
f 331 332 361
f 332 338 362
f 332 362 361
f 338 363 362
f 331 337 332
f 332 337 338
f 338 337 341
f 338 341 363
f 341 398 363
f 359 361 364
f 361 366 364
f 359 365 360
f 359 364 365
f 360 365 435
f 361 362 366
f 362 363 367
f 362 367 366
f 363 399 367
f 364 370 365
f 365 371 435
f 364 366 368
f 366 367 369
f 364 368 370
f 366 369 368
f 368 369 370
f 369 372 370
f 365 370 371
f 370 372 371
f 371 372 373
f 363 398 399
f 398 402 399
f 367 399 403
f 399 402 404
f 367 403 369
f 369 403 372
f 372 403 405
f 399 404 403
f 403 404 405
f 404 407 405
f 372 405 373
f 373 405 406
f 405 407 406
f 406 407 413
f 406 413 408
f 402 410 404
f 404 410 407
f 407 410 412
f 407 412 413
f 412 512 413
f 413 512 415
f 408 413 415
f 408 415 414
f 414 415 515
f 414 516 416
f 330 419 418
f 419 420 418
f 420 421 418
f 422 424 418
f 421 422 418
f 330 433 419
f 330 360 433
f 419 433 434
f 419 434 420
f 420 444 421
f 420 434 444
f 421 445 422
f 421 444 445
f 422 446 423
f 423 447 425
f 422 445 446
f 423 446 447
f 422 423 424
f 423 425 424
f 425 426 424
f 425 458 426
f 425 447 458
f 360 435 433
f 433 435 436
f 433 436 434
f 434 436 437
f 435 438 436
f 436 442 437
f 371 438 435
f 371 373 438
f 373 439 438
f 438 439 442
f 439 448 442
f 437 443 440
f 440 452 441
f 436 438 442
f 437 442 443
f 440 443 452
f 434 437 444
f 444 440 445
f 444 437 440
f 445 441 446
f 446 450 447
f 445 440 441
f 446 441 450
f 373 406 439
f 406 408 439
f 408 448 439
f 442 448 449
f 442 449 454
f 408 414 448
f 416 449 448
f 442 454 455
f 441 453 450
f 450 456 451
f 441 452 453
f 442 578 443
f 450 453 456
f 414 416 448
f 416 417 449
f 442 455 577
f 442 577 578
f 417 518 449
f 449 518 454
f 443 578 583
f 443 583 452
f 452 584 453
f 447 451 458
f 447 450 451
f 482 479 483
f 483 479 969
f 482 483 510
f 483 548 510
f 483 970 548
f 548 970 994
f 415 512 514
f 415 514 515
f 514 520 515
f 515 522 516
f 414 515 516
f 416 516 517
f 416 517 417
f 417 517 525
f 417 525 526
f 417 526 518
f 515 520 522
f 516 524 517
f 516 522 524
f 517 553 525
f 517 524 553
f 525 553 555
f 518 526 557
f 518 557 527
f 510 548 551
f 548 560 551
f 548 994 560
f 560 994 996
f 551 560 555
f 525 555 561
f 525 561 526
f 560 561 555
f 526 998 557
f 527 557 563
f 527 1000 556
f 560 996 561
f 526 561 998
f 561 996 998
f 557 998 999
f 557 999 563
f 527 563 1000
f 556 1003 558
f 556 1000 1003
f 558 1011 559
f 559 1012 562
f 569 620 567
f 567 1083 1061
f 569 588 620
f 567 620 1083
f 454 556 455
f 452 583 584
f 454 518 527
f 455 559 577
f 453 584 605
f 453 605 456
f 456 605 579
f 454 527 556
f 564 578 577
f 455 556 558
f 455 558 559
f 559 562 577
f 578 1001 583
f 579 605 606
f 579 606 581
f 581 617 585
f 562 564 577
f 583 1002 584
f 581 606 617
f 564 1001 578
f 584 1004 605
f 607 619 618
f 585 1071 608
f 608 1071 609
f 609 1072 610
f 610 1073 611
f 611 1074 612
f 607 612 619
f 583 1001 1002
f 605 1004 606
f 585 617 1071
f 609 1071 1072
f 584 1002 1004
f 606 1014 617
f 610 1072 1073
f 611 1073 1074
f 618 1077 1075
f 612 1074 619
f 618 619 1077
f 588 618 620
f 588 607 618
f 620 1075 1083
f 620 618 1075
f 483 969 970
f 970 969 971
f 971 969 974
f 970 971 994
f 971 995 994
f 971 974 995
f 974 1041 995
f 994 995 996
f 995 997 996
f 995 1041 997
f 1041 1007 997
f 996 997 998
f 997 999 998
f 563 999 1009
f 563 1043 1000
f 558 1003 1010
f 558 1010 1011
f 562 1046 564
f 559 1011 1012
f 562 1012 1013
f 564 1050 1001
f 997 1007 999
f 1007 1009 999
f 563 1009 1043
f 1000 1045 1003
f 1000 1043 1045
f 1003 1052 1010
f 562 1013 1046
f 1001 1057 1002
f 564 1046 1050
f 1002 1059 1004
f 1003 1045 1052
f 1010 1056 1011
f 1011 1172 1012
f 1010 1052 1054
f 1012 1174 1013
f 1010 1054 1056
f 1001 1050 1057
f 1004 1059 1014
f 1002 1057 1059
f 1014 1177 1047
f 1011 1056 1172
f 1013 1185 1046
f 1012 1172 1174
f 1013 1174 1176
f 1046 1186 1050
f 1013 1176 1185
f 1014 1059 1177
f 1047 1177 1048
f 1048 1179 1049
f 1049 1179 1058
f 1048 1177 1179
f 567 1061 1060
f 1061 1062 1060
f 1062 1063 1060
f 1061 1084 1062
f 1061 1083 1084
f 1062 1101 1063
f 1062 1084 1101
f 606 1004 1014
f 619 1074 1079
f 617 1047 1071
f 1047 1072 1071
f 1048 1073 1072
f 1075 1078 1076
f 619 1079 1077
f 1075 1077 1078
f 1077 1092 1078
f 617 1014 1047
f 1049 1074 1073
f 1049 1079 1074
f 1077 1079 1092
f 1047 1048 1072
f 1048 1049 1073
f 1078 1092 1093
f 1076 1081 1080
f 1076 1078 1081
f 1078 1093 1081
f 1083 1076 1084
f 1083 1075 1076
f 1084 1080 1101
f 1084 1076 1080
f 1058 1092 1079
f 1049 1058 1079
f 1093 1096 1094
f 1081 1093 1094
f 1058 1178 1092
f 1092 1178 1093
f 1093 1178 1096
f 1096 1239 1097
f 1094 1096 1097
f 1097 1239 1099
f 1129 1126 1137
f 1129 1137 1130
f 1129 1130 1170
f 1130 1208 1170
f 1130 1137 1138
f 1138 1137 1139
f 1139 1137 1140
f 1140 1137 1141
f 1141 1137 1236
f 1130 1138 1208
f 1138 1139 1209
f 1138 1209 1208
f 1139 1210 1209
f 1139 1140 1210
f 1140 1211 1210
f 1140 1141 1211
f 1141 1236 1212
f 1141 1212 1211
f 1170 1208 1183
f 1208 1184 1183
f 1050 1215 1057
f 1046 1185 1186
f 1057 1216 1059
f 1050 1186 1215
f 1059 1216 1177
f 1058 1179 1187
f 1058 1187 1178
f 1178 1187 1180
f 1183 1184 1176
f 1184 1213 1185
f 1184 1185 1176
f 1177 1216 1179
f 1057 1215 1216
f 1185 1213 1186
f 1179 1216 1187
f 1180 1187 1217
f 1180 1217 1188
f 1189 1217 1218
f 1188 1217 1189
f 1189 1218 1190
f 1190 1218 1219
f 1208 1209 1184
f 1209 1210 1213
f 1209 1213 1184
f 1210 1214 1213
f 1210 1211 1214
f 1211 1222 1214
f 1211 1212 1222
f 1212 1223 1222
f 1186 1213 1214
f 1214 1222 1215
f 1186 1214 1215
f 1187 1216 1217
f 1216 1218 1217
f 1216 1220 1218
f 1222 1216 1215
f 1218 1220 1219
f 1219 1220 1221
f 1223 1220 1216
f 1220 1283 1221
f 1222 1223 1216
f 1223 1283 1220
f 1226 1233 1224
f 1225 1226 1224
f 1225 1286 1226
f 1225 1259 1286
f 1237 1137 1233
f 1226 1234 1233
f 1234 1235 1233
f 1235 1238 1233
f 1236 1137 1237
f 1237 1233 1238
f 1236 1237 1275
f 1236 1275 1212
f 1237 1238 1276
f 1237 1276 1275
f 1226 1287 1234
f 1234 1288 1235
f 1226 1286 1287
f 1234 1287 1288
f 1235 1289 1238
f 1235 1288 1289
f 1238 1289 1276
f 1096 1178 1180
f 1096 1180 1239
f 1099 1239 1240
f 1180 1188 1239
f 1188 1240 1239
f 1240 1250 1242
f 1244 1250 1251
f 1245 1251 1252
f 1099 1240 1241
f 1240 1242 1241
f 1242 1250 1244
f 1244 1251 1245
f 1245 1252 1246
f 1246 1252 1256
f 1254 1246 1256
f 1188 1250 1240
f 1189 1251 1250
f 1188 1189 1250
f 1189 1190 1251
f 1190 1252 1251
f 1190 1253 1252
f 1252 1253 1256
f 1190 1219 1253
f 1219 1277 1253
f 1253 1277 1257
f 1254 1256 1255
f 1255 1257 1279
f 1253 1257 1256
f 1255 1256 1257
f 1257 1277 1281
f 1257 1281 1279
f 1259 1255 1286
f 1259 1254 1255
f 1212 1275 1223
f 1275 1276 1283
f 1223 1275 1283
f 1276 1289 1284
f 1276 1284 1283
f 1289 1285 1284
f 1219 1221 1277
f 1221 1278 1277
f 1277 1278 1281
f 1221 1284 1278
f 1279 1281 1280
f 1280 1282 1285
f 1278 1282 1281
f 1285 1282 1278
f 1280 1281 1282
f 1221 1283 1284
f 1284 1285 1278
f 1286 1279 1287
f 1287 1280 1288
f 1286 1255 1279
f 1287 1279 1280
f 1288 1285 1289
f 1288 1280 1285
f 20 19 24
f 24 19 172
f 27 19 21
f 20 21 19
f 27 21 22
f 27 22 23
f 20 24 45
f 20 46 21
f 20 45 46
f 21 46 47
f 21 47 22
f 22 48 23
f 23 49 29
f 22 47 48
f 23 48 49
f 24 172 50
f 24 50 45
f 172 186 50
f 27 23 29
f 45 52 46
f 45 50 51
f 46 53 47
f 45 51 52
f 46 52 53
f 47 54 48
f 48 63 49
f 47 53 54
f 48 54 63
f 50 186 55
f 50 55 51
f 51 55 56
f 51 57 52
f 52 59 53
f 53 70 54
f 51 56 57
f 52 57 59
f 53 59 70
f 56 58 57
f 57 60 59
f 57 58 60
f 58 61 60
f 55 194 56
f 56 194 58
f 58 195 61
f 58 194 195
f 61 195 196
f 54 73 63
f 54 70 73
f 59 71 70
f 59 60 71
f 60 61 72
f 60 72 71
f 70 74 73
f 70 71 74
f 71 72 75
f 71 75 74
f 61 76 72
f 61 196 76
f 72 76 77
f 72 77 75
f 76 78 77
f 76 204 78
f 95 91 94
f 93 129 91
f 91 129 130
f 91 130 94
f 94 131 97
f 93 128 129
f 94 130 131
f 95 94 97
f 95 97 98
f 97 152 98
f 97 131 152
f 128 138 129
f 129 139 130
f 130 154 131
f 128 137 138
f 129 138 139
f 130 139 154
f 137 147 138
f 138 160 139
f 137 146 147
f 138 147 160
f 146 148 147
f 147 149 160
f 147 148 149
f 148 150 149
f 149 150 151
f 149 163 160
f 149 151 163
f 151 165 163
f 150 248 151
f 151 248 249
f 151 249 165
f 165 249 264
f 131 155 152
f 131 154 155
f 139 161 154
f 154 162 155
f 139 160 161
f 154 161 162
f 160 163 161
f 161 164 162
f 161 163 164
f 163 165 164
f 162 164 167
f 164 166 167
f 164 165 166
f 165 264 166
f 166 168 167
f 166 265 168
f 172 19 173
f 174 173 19
f 174 177 173
f 172 173 186
f 173 187 186
f 173 177 187
f 177 188 187
f 178 189 188
f 179 190 189
f 180 191 190
f 184 192 191
f 174 175 177
f 175 176 178
f 176 181 179
f 175 178 177
f 176 179 178
f 181 180 179
f 177 178 188
f 178 179 189
f 179 180 190
f 180 184 191
f 180 181 182
f 180 182 184
f 186 187 193
f 55 186 193
f 187 200 193
f 187 188 200
f 188 189 214
f 189 190 215
f 188 214 200
f 190 191 216
f 191 192 217
f 55 193 194
f 193 200 197
f 193 197 194
f 194 197 195
f 195 198 196
f 195 197 198
f 196 198 199
f 200 214 201
f 200 201 197
f 197 201 198
f 198 202 199
f 198 201 202
f 199 202 203
f 201 214 218
f 201 218 202
f 202 219 203
f 76 196 204
f 78 204 205
f 196 199 204
f 199 206 204
f 204 206 205
f 205 206 207
f 199 203 206
f 206 209 207
f 203 209 206
f 207 209 210
f 203 220 209
f 209 222 210
f 189 215 214
f 190 216 215
f 191 217 216
f 192 221 217
f 214 215 218
f 215 216 219
f 216 217 220
f 217 221 222
f 215 219 218
f 216 220 219
f 217 222 220
f 202 218 219
f 203 219 220
f 221 223 222
f 209 220 222
f 210 222 223
f 234 242 241
f 235 243 242
f 238 244 243
f 239 263 244
f 232 233 231
f 232 237 234
f 232 234 233
f 237 235 234
f 233 234 241
f 234 235 242
f 235 238 243
f 237 238 235
f 238 237 239
f 238 239 244
f 241 242 289
f 242 243 290
f 243 244 291
f 248 250 249
f 249 250 251
f 249 251 264
f 250 252 251
f 251 266 264
f 251 252 253
f 251 253 266
f 253 270 266
f 252 259 253
f 253 259 260
f 253 260 270
f 260 275 270
f 259 261 260
f 260 261 262
f 260 262 275
f 262 278 275
f 261 292 262
f 262 293 278
f 244 263 301
f 166 264 265
f 264 266 265
f 168 265 268
f 265 266 267
f 265 267 268
f 267 269 268
f 266 270 267
f 267 271 269
f 267 270 271
f 269 271 272
f 270 275 271
f 271 275 276
f 271 276 272
f 272 276 277
f 275 278 276
f 276 278 279
f 276 279 277
f 277 279 280
f 278 303 279
f 279 304 280
f 242 290 289
f 243 291 290
f 244 301 291
f 289 290 292
f 290 291 293
f 291 301 303
f 290 293 292
f 291 303 293
f 262 292 293
f 278 293 303
f 263 302 301
f 301 302 304
f 301 304 303
f 302 305 304
f 279 303 304
f 280 304 305
f 337 333 336
f 335 336 333
f 335 395 336
f 335 374 395
f 337 336 339
f 337 339 340
f 337 340 341
f 336 396 339
f 339 397 340
f 340 398 341
f 336 395 396
f 339 396 397
f 340 397 398
f 374 382 395
f 374 381 382
f 381 390 382
f 381 389 390
f 382 390 391
f 389 392 390
f 390 393 391
f 390 392 393
f 391 393 394
f 392 488 393
f 393 489 394
f 395 400 396
f 396 401 397
f 397 402 398
f 395 382 400
f 396 400 401
f 397 401 402
f 382 391 400
f 400 409 401
f 401 410 402
f 391 409 400
f 401 409 410
f 391 394 409
f 409 411 410
f 394 411 409
f 410 411 412
f 394 490 411
f 411 511 412
f 426 428 424
f 428 427 424
f 428 429 427
f 429 430 427
f 430 431 427
f 431 432 427
f 426 459 428
f 428 460 429
f 426 458 459
f 428 459 460
f 429 461 430
f 430 462 431
f 429 460 461
f 430 461 462
f 431 462 463
f 431 463 432
f 432 463 587
f 451 456 457
f 456 579 457
f 457 580 468
f 457 579 580
f 468 580 594
f 458 464 459
f 459 465 460
f 458 451 464
f 459 464 465
f 460 465 466
f 460 466 461
f 461 467 462
f 461 466 467
f 462 467 471
f 462 471 463
f 463 600 587
f 463 471 600
f 451 457 464
f 464 468 465
f 465 469 466
f 466 470 467
f 457 468 464
f 465 468 469
f 466 469 470
f 467 470 596
f 468 594 469
f 469 595 470
f 469 594 595
f 470 595 596
f 467 596 471
f 476 507 484
f 480 508 507
f 481 509 508
f 482 510 509
f 473 475 472
f 473 474 476
f 473 476 475
f 475 476 484
f 474 478 480
f 478 479 481
f 474 480 476
f 478 481 480
f 481 479 482
f 476 480 507
f 480 481 508
f 481 482 509
f 484 507 533
f 393 488 489
f 394 489 490
f 488 491 489
f 489 492 490
f 489 491 492
f 490 492 493
f 491 498 492
f 492 500 493
f 492 498 500
f 493 500 502
f 498 499 500
f 499 501 500
f 500 501 502
f 501 504 502
f 499 503 501
f 501 503 505
f 501 505 504
f 504 505 506
f 503 535 505
f 505 535 537
f 505 537 506
f 506 537 538
f 507 508 534
f 508 509 549
f 509 510 550
f 411 490 511
f 412 511 512
f 490 493 511
f 511 513 512
f 493 513 511
f 512 513 514
f 493 502 513
f 513 519 514
f 502 519 513
f 514 519 520
f 502 504 519
f 504 521 519
f 519 521 520
f 504 506 521
f 520 521 522
f 521 523 522
f 506 523 521
f 506 538 523
f 523 538 552
f 522 523 524
f 523 552 524
f 524 552 553
f 507 534 533
f 533 534 536
f 534 549 539
f 534 539 536
f 539 549 540
f 535 536 537
f 536 539 537
f 537 539 538
f 538 539 540
f 508 549 534
f 509 550 549
f 510 551 550
f 540 549 550
f 550 551 554
f 540 550 554
f 551 555 554
f 538 540 552
f 540 554 552
f 552 554 553
f 553 554 555
f 432 572 427
f 432 565 572
f 565 566 572
f 566 576 572
f 432 587 565
f 565 590 566
f 565 587 590
f 573 589 588
f 574 591 589
f 566 593 576
f 566 590 593
f 575 592 591
f 576 593 592
f 568 569 567
f 568 570 573
f 570 571 574
f 571 572 575
f 568 573 569
f 570 574 573
f 571 575 574
f 572 576 575
f 569 573 588
f 573 574 589
f 574 575 591
f 575 576 592
f 579 581 580
f 580 582 594
f 580 581 582
f 582 597 594
f 581 585 582
f 582 586 597
f 582 585 586
f 586 601 597
f 585 608 586
f 586 613 601
f 586 608 613
f 601 613 624
f 587 604 590
f 587 600 604
f 588 589 607
f 589 591 621
f 591 592 622
f 590 630 593
f 592 593 623
f 590 604 630
f 594 597 595
f 595 597 598
f 595 598 596
f 471 596 599
f 597 601 598
f 600 599 603
f 596 598 599
f 471 599 600
f 598 601 602
f 598 602 599
f 599 602 603
f 601 624 602
f 602 624 626
f 602 626 603
f 604 603 629
f 600 603 604
f 604 629 630
f 607 621 612
f 612 621 616
f 608 609 613
f 609 614 613
f 609 610 614
f 610 611 615
f 610 615 614
f 611 616 615
f 613 614 624
f 614 615 625
f 614 625 624
f 615 627 625
f 611 612 616
f 615 616 627
f 589 621 607
f 591 622 621
f 592 623 622
f 593 630 623
f 616 621 622
f 622 623 627
f 623 630 628
f 616 622 627
f 623 628 627
f 624 625 626
f 625 628 626
f 625 627 628
f 626 628 629
f 630 629 628
f 603 626 629
f 642 644 649
f 642 643 644
f 649 644 645
f 649 645 646
f 643 685 644
f 644 686 645
f 645 688 646
f 646 689 652
f 649 646 652
f 643 642 653
f 653 642 654
f 654 642 807
f 807 642 804
f 643 653 684
f 643 684 685
f 644 685 686
f 653 687 684
f 645 686 688
f 646 688 689
f 653 654 687
f 654 807 690
f 654 690 687
f 684 657 658
f 685 658 659
f 686 659 660
f 688 660 672
f 657 662 658
f 658 663 659
f 659 673 660
f 657 661 662
f 661 692 664
f 658 662 663
f 659 663 673
f 661 664 662
f 662 665 663
f 662 664 665
f 664 666 665
f 660 677 672
f 660 673 677
f 663 674 673
f 673 678 677
f 663 665 674
f 665 666 675
f 665 675 674
f 666 676 675
f 673 674 678
f 674 675 679
f 674 679 678
f 675 680 679
f 675 676 680
f 676 681 680
f 684 658 685
f 684 687 657
f 685 659 686
f 687 691 657
f 686 660 688
f 688 672 689
f 687 690 691
f 690 695 691
f 657 691 661
f 691 695 692
f 661 691 692
f 664 692 693
f 664 693 666
f 666 693 694
f 692 696 693
f 693 696 697
f 693 697 694
f 695 831 696
f 695 696 692
f 696 699 697
f 694 697 698
f 696 831 699
f 697 699 700
f 697 700 698
f 698 700 701
f 666 694 676
f 676 702 681
f 676 694 702
f 681 702 703
f 694 698 702
f 702 706 703
f 698 706 702
f 703 706 707
f 698 701 706
f 706 708 707
f 701 708 706
f 707 708 709
f 718 712 716
f 715 716 712
f 718 716 717
f 715 764 716
f 716 765 717
f 717 766 721
f 718 717 721
f 718 721 722
f 721 784 722
f 715 763 764
f 716 764 765
f 717 765 766
f 721 766 784
f 763 737 738
f 764 738 739
f 765 739 753
f 737 741 738
f 738 755 739
f 737 740 741
f 738 741 755
f 740 742 741
f 741 742 743
f 741 743 755
f 743 757 755
f 766 753 754
f 739 756 753
f 753 759 754
f 739 755 756
f 753 756 759
f 755 757 756
f 756 757 758
f 756 758 759
f 758 760 759
f 763 738 764
f 764 739 765
f 765 753 766
f 742 770 743
f 743 770 771
f 770 772 771
f 743 771 757
f 757 771 785
f 771 773 785
f 771 772 773
f 772 774 773
f 773 787 785
f 773 774 775
f 773 775 787
f 775 789 787
f 774 780 775
f 775 781 789
f 775 780 781
f 781 796 789
f 780 782 781
f 781 783 796
f 781 782 783
f 783 799 796
f 782 895 783
f 783 896 799
f 766 754 784
f 757 785 758
f 758 785 786
f 758 786 760
f 760 786 788
f 785 787 786
f 786 787 790
f 786 790 788
f 788 790 792
f 787 789 790
f 789 791 790
f 790 791 792
f 791 793 792
f 789 796 791
f 791 797 793
f 791 796 797
f 793 797 798
f 796 799 797
f 797 800 798
f 797 799 800
f 798 800 801
f 799 910 800
f 800 911 801
f 807 804 808
f 805 808 804
f 805 806 809
f 806 812 810
f 805 809 808
f 806 810 809
f 812 811 810
f 807 808 825
f 807 825 690
f 808 809 826
f 809 810 827
f 808 826 825
f 809 827 826
f 810 828 827
f 810 811 828
f 811 816 829
f 811 829 828
f 816 830 829
f 812 813 811
f 811 813 816
f 690 825 695
f 825 826 831
f 695 825 831
f 826 827 835
f 827 828 836
f 826 835 831
f 827 836 835
f 828 829 837
f 829 830 838
f 828 837 836
f 829 838 837
f 830 843 838
f 699 831 835
f 835 836 832
f 836 837 833
f 837 838 834
f 838 843 839
f 699 832 700
f 700 833 701
f 700 832 833
f 701 833 834
f 699 835 832
f 836 833 832
f 837 834 833
f 838 839 834
f 701 834 708
f 708 839 709
f 708 834 839
f 709 839 840
f 843 840 839
f 865 866 864
f 865 870 867
f 865 867 866
f 870 868 867
f 866 867 886
f 867 868 887
f 868 873 888
f 867 887 886
f 868 888 887
f 873 889 888
f 870 871 868
f 871 872 873
f 871 873 868
f 873 872 874
f 873 874 889
f 874 909 889
f 886 887 903
f 887 888 904
f 888 889 905
f 887 904 903
f 888 905 904
f 889 918 905
f 903 904 897
f 904 905 898
f 905 918 913
f 783 895 896
f 799 896 910
f 895 897 896
f 896 898 910
f 904 898 897
f 905 913 898
f 896 897 898
f 898 913 910
f 889 909 918
f 909 919 918
f 918 919 914
f 800 910 911
f 801 911 912
f 910 913 911
f 911 914 912
f 918 914 913
f 919 915 914
f 911 913 914
f 912 914 915
f 969 964 968
f 967 968 964
f 967 1038 968
f 969 968 972
f 969 972 973
f 969 973 974
f 968 1039 972
f 972 1040 973
f 973 1041 974
f 967 1015 1038
f 968 1038 1039
f 972 1039 1040
f 973 1040 1041
f 1015 989 990
f 989 992 990
f 989 991 992
f 990 992 993
f 991 1020 992
f 992 1021 993
f 1038 990 1005
f 1039 1005 1006
f 1040 1006 1007
f 990 993 1005
f 1005 1008 1006
f 1006 1009 1007
f 993 1008 1005
f 1006 1008 1009
f 993 1022 1008
f 1008 1042 1009
f 1015 990 1038
f 992 1020 1021
f 993 1021 1022
f 1020 1023 1021
f 1021 1023 1024
f 1021 1024 1022
f 1022 1024 1025
f 1023 1029 1024
f 1024 1029 1030
f 1024 1030 1025
f 1025 1030 1031
f 1029 1032 1030
f 1030 1034 1031
f 1030 1032 1034
f 1031 1034 1035
f 1032 1033 1034
f 1033 1036 1034
f 1034 1036 1035
f 1033 1148 1036
f 1035 1036 1037
f 1036 1150 1037
f 1038 1005 1039
f 1039 1006 1040
f 1040 1007 1041
f 1008 1022 1042
f 1009 1042 1043
f 1022 1025 1042
f 1025 1044 1042
f 1042 1044 1043
f 1043 1044 1045
f 1025 1031 1044
f 1031 1051 1044
f 1044 1051 1045
f 1045 1051 1052
f 1031 1035 1051
f 1035 1053 1051
f 1051 1053 1052
f 1035 1037 1053
f 1052 1053 1054
f 1037 1055 1053
f 1053 1055 1054
f 1054 1055 1056
f 1063 1065 1060
f 1064 1060 1065
f 1064 1065 1066
f 1064 1066 1067
f 1064 1067 1068
f 1063 1102 1065
f 1065 1103 1066
f 1066 1104 1067
f 1067 1105 1068
f 1064 1068 1069
f 1064 1069 1227
f 1069 1070 1227
f 1063 1101 1102
f 1065 1102 1103
f 1068 1106 1069
f 1066 1103 1104
f 1067 1104 1105
f 1068 1105 1106
f 1069 1107 1070
f 1069 1106 1107
f 1080 1081 1082
f 1081 1094 1082
f 1082 1095 1088
f 1101 1080 1085
f 1102 1085 1086
f 1103 1086 1087
f 1104 1087 1091
f 1080 1082 1085
f 1085 1088 1086
f 1086 1089 1087
f 1087 1090 1091
f 1082 1088 1085
f 1086 1088 1089
f 1088 1108 1089
f 1089 1109 1090
f 1087 1089 1090
f 1082 1094 1095
f 1088 1095 1108
f 1094 1097 1095
f 1095 1098 1108
f 1095 1097 1098
f 1098 1112 1108
f 1097 1099 1098
f 1098 1099 1100
f 1098 1100 1112
f 1100 1115 1112
f 1099 1241 1100
f 1100 1243 1115
f 1101 1085 1102
f 1102 1086 1103
f 1103 1087 1104
f 1104 1091 1105
f 1105 1111 1106
f 1105 1091 1111
f 1106 1118 1107
f 1106 1111 1118
f 1107 1118 1270
f 1089 1108 1109
f 1091 1090 1110
f 1090 1109 1110
f 1108 1112 1109
f 1109 1113 1110
f 1109 1112 1113
f 1111 1110 1114
f 1110 1113 1114
f 1091 1110 1111
f 1112 1115 1113
f 1113 1116 1114
f 1113 1115 1116
f 1118 1114 1117
f 1114 1116 1117
f 1111 1114 1118
f 1118 1117 1270
f 1120 1122 1119
f 1120 1121 1123
f 1120 1123 1122
f 1122 1123 1142
f 1123 1167 1142
f 1121 1125 1127
f 1125 1126 1128
f 1121 1127 1123
f 1125 1128 1127
f 1128 1126 1129
f 1123 1127 1167
f 1127 1128 1168
f 1128 1129 1169
f 1127 1168 1167
f 1128 1169 1168
f 1129 1170 1169
f 1142 1167 1162
f 1167 1163 1162
f 1162 1163 1154
f 1163 1181 1155
f 1036 1148 1150
f 1148 1149 1150
f 1037 1150 1151
f 1150 1152 1151
f 1149 1152 1150
f 1149 1154 1152
f 1151 1152 1153
f 1152 1155 1153
f 1163 1155 1154
f 1155 1181 1156
f 1152 1154 1155
f 1153 1155 1156
f 1167 1168 1163
f 1168 1169 1181
f 1169 1170 1182
f 1168 1181 1163
f 1169 1182 1181
f 1170 1183 1182
f 1156 1181 1182
f 1182 1183 1175
f 1037 1151 1055
f 1055 1151 1171
f 1055 1171 1056
f 1056 1171 1172
f 1151 1153 1171
f 1153 1173 1171
f 1153 1156 1173
f 1171 1173 1172
f 1172 1173 1174
f 1173 1175 1174
f 1156 1182 1175
f 1183 1176 1175
f 1156 1175 1173
f 1174 1175 1176
f 1225 1224 1229
f 1231 1224 1227
f 1229 1224 1230
f 1230 1224 1231
f 1231 1227 1232
f 1070 1228 1227
f 1228 1232 1227
f 1070 1258 1228
f 1070 1107 1258
f 1228 1258 1263
f 1225 1229 1259
f 1229 1230 1260
f 1230 1231 1261
f 1229 1260 1259
f 1230 1261 1260
f 1231 1232 1262
f 1228 1263 1232
f 1231 1262 1261
f 1232 1263 1262
f 1254 1271 1246
f 1100 1241 1243
f 1241 1242 1243
f 1242 1244 1247
f 1242 1247 1243
f 1115 1243 1264
f 1243 1247 1264
f 1246 1271 1249
f 1244 1245 1248
f 1244 1248 1247
f 1245 1249 1248
f 1245 1246 1249
f 1247 1248 1265
f 1247 1265 1264
f 1248 1266 1265
f 1248 1249 1266
f 1107 1270 1258
f 1258 1270 1274
f 1259 1260 1254
f 1260 1261 1271
f 1260 1271 1254
f 1261 1272 1271
f 1261 1262 1272
f 1258 1274 1263
f 1262 1263 1273
f 1262 1273 1272
f 1263 1274 1273
f 1249 1271 1272
f 1272 1273 1266
f 1273 1274 1268
f 1115 1264 1116
f 1116 1267 1117
f 1116 1264 1267
f 1117 1269 1270
f 1117 1267 1269
f 1249 1272 1266
f 1273 1268 1266
f 1264 1265 1267
f 1265 1268 1267
f 1265 1266 1268
f 1267 1268 1269
f 1274 1269 1268
f 1270 1269 1274
