# MAAS exact compiled indexed mesh
# program_hash c0c50277d14f03df0f6b71fed4b492f91014e900868549fbdb9499ce8a513fc5
# geometry_hash a6e3b8fcb337350ac326db2b32a340f3faab543853209f05547bf66b13d9d332
v -12.43177076 -7.44711223 0
v -7.28059739 -0.15228602 0
v -6.33224746 -1.01544867 0
v -0.38207159 -7.44711223 0
v -5.8958015 -3.1393143 0
v -12.43177076 -7.44711223 14.88737795
v -0.38207159 -7.44711223 14.88737795
v -5.8958015 -3.1393143 14.88737795
v -12.43177076 4.53617373 0
v -4.79552509 3.02846147 0
v -4.79552509 4.53617373 0
v -3.50351378 4.68216054 0
v -12.43177076 4.53617373 14.88737795
v -4.79552509 3.02846147 14.88737795
v -4.79552509 4.53617373 14.88737795
v -3.50351378 4.68216054 14.88737795
v 1.23810214 -8.71293068 0
v 2.2270679 -7.44711223 0
v 5.74976655 -7.44711223 0
v 1.65472789 -3.54771328 0
v 5.74976655 -2.93826357 0
v 1.23810214 -8.71293068 14.88737795
v 1.34020289 -7.44711223 14.88737795
v 2.2270679 -7.44711223 14.88737795
v 1.50366405 -5.42056331 14.88737795
v 5.74976655 -7.44711223 14.88737795
v 5.74976655 -2.93826357 14.88737795
v 1.97340198 0.40312498 0
v 6.21588798 4.35646348 0
v 6.21588798 5.83325944 0
v 8.46573178 8.71292819 0
v 11.44903194 4.35646348 0
v 12.43177423 5.61431624 0
v 1.97340198 0.40312498 14.88737795
v 6.21588798 4.35646348 14.88737795
v 6.21588798 5.83325944 14.88737795
v 8.44366161 5.91782043 14.88737795
v 8.44366161 6.33604905 14.88737795
v 8.44366161 5.91782043 16.49997873
v 8.44366161 6.33604905 16.49997873
v 9.08081738 7.15157124 14.88737795
v 9.08081738 7.15157124 16.49997873
v 8.46573178 8.71292819 14.88737795
v 9.92568798 5.91782043 14.88737795
v 10.2040006 6.27404433 14.88737795
v 9.92568798 5.91782043 16.49997873
v 10.2040006 6.27404433 16.49997873
v 11.44903194 4.35646348 14.88737795
v 12.43177423 5.61431624 14.88737795
f 1 9 2
f 1 3 5
f 1 2 3
f 1 5 20
f 1 20 4
f 1 4 7
f 1 7 6
f 6 7 8
f 1 6 13
f 6 8 15
f 2 9 10
f 9 11 10
f 1 13 9
f 9 13 11
f 6 15 13
f 11 13 15
f 8 14 15
f 18 21 19
f 18 19 26
f 19 21 27
f 18 26 24
f 19 27 26
f 23 24 25
f 24 26 25
f 25 26 27
f 5 3 28
f 5 28 20
f 8 7 23
f 8 23 14
f 16 23 25
f 16 25 34
f 2 10 3
f 3 10 12
f 3 12 28
f 10 16 12
f 10 14 16
f 14 23 16
f 4 20 17
f 17 20 18
f 18 20 21
f 4 17 7
f 17 18 22
f 20 32 21
f 17 22 7
f 18 24 22
f 7 22 23
f 22 24 23
f 25 27 34
f 21 48 27
f 20 28 29
f 28 30 29
f 20 29 32
f 21 32 48
f 27 35 34
f 34 35 36
f 27 48 35
f 31 29 30
f 31 33 29
f 32 29 33
f 32 33 49
f 31 43 33
f 32 49 48
f 43 49 33
f 37 38 36
f 35 48 36
f 37 36 48
f 38 41 36
f 41 43 36
f 41 45 43
f 37 48 44
f 44 49 45
f 44 48 49
f 43 45 49
f 39 46 40
f 40 46 42
f 44 45 47
f 44 47 46
f 42 46 47
f 41 42 45
f 42 47 45
f 10 11 15
f 10 15 14
f 12 16 28
f 28 34 30
f 16 34 28
f 34 36 30
f 31 30 36
f 31 36 43
f 38 40 41
f 40 42 41
f 37 39 38
f 39 40 38
f 37 46 39
f 37 44 46
