# MAAS exact compiled indexed mesh
# program_hash c646d58e77f67bb1ce51c5ab8f125c93445951f0b7c140438ab266b9a6bda7f1
# geometry_hash 59cde9fa10715d122398b3ff6d89e93a61fb520995d3ec864760fbe02c6bbc60
v -15.76437997 -11.30922911 0
v -4.11244695 -11.30922911 0
v -15.76437997 -11.30922911 7.3220339
v -15.07897214 -8.56759781 7.3220339
v -15.07897214 -8.56759781 10.86101695
v -4.11244695 -11.30922911 7.3220339
v -4.11244695 -8.56759781 7.2
v -4.11244695 -8.56759781 7.3220339
v -4.11244695 -6.49932394 7.2
v -4.11244695 -8.56759781 10.86101695
v -4.11244695 -6.49932394 10.86101695
v -15.76437997 7.19678216 0
v -4.11244695 7.19678216 0
v -15.07897214 3.08433521 7.3220339
v -15.07897214 3.08433521 10.86101695
v -15.76437997 7.19678216 7.3220339
v -4.11244695 2.77005792 7.2
v -4.11244695 3.08433521 7.2
v -4.11244695 3.08433521 7.3220339
v -4.11244695 2.77005792 10.86101695
v -4.11244695 3.08433521 10.86101695
v -4.11244695 7.19678216 7.3220339
v 4.11244695 -5.82596651 0
v 15.76437997 -5.82596651 0
v 4.11244695 -5.82596651 7.3220339
v 4.11244695 -4.14087357 7.2
v 4.11244695 -4.14087357 7.3220339
v 5.40673292 -3.76974304 7.3220339
v 5.40673292 -3.76974304 10.86101695
v 5.0720179 -2.39892739 10.86101695
v 5.55585666 -2.39892739 10.86101695
v 5.0720179 -2.39892739 14.4
v 15.76437997 -5.82596651 7.3220339
v 15.76437997 -3.76974304 7.3220339
v 15.76437997 -3.76974304 10.86101695
v 13.98231962 -2.39892739 10.86101695
v 13.98231962 -2.39892739 14.4
v 4.11244695 11.30922911 0
v 15.76437997 11.30922911 0
v 4.11244695 5.12850829 7.2
v 4.11244695 5.12850829 7.3220339
v 4.11244695 5.12850829 10.86101695
v 5.0720179 5.40366083 10.86101695
v 4.11244695 7.88218998 7.3220339
v 4.11244695 11.30922911 7.3220339
v 5.0720179 6.51137433 10.86101695
v 4.11244695 7.88218998 10.86101695
v 5.0720179 6.51137433 14.4
v 15.76437997 7.88218998 7.3220339
v 15.76437997 11.30922911 7.3220339
v 13.98231962 6.51137433 10.86101695
v 15.76437997 7.88218998 10.86101695
v 13.98231962 6.51137433 14.4
f 1 2 3
f 2 6 3
f 1 12 2
f 1 3 16
f 2 13 6
f 6 13 7
f 7 13 9
f 3 6 4
f 3 4 14
f 3 14 16
f 4 6 8
f 6 7 8
f 1 16 12
f 2 12 13
f 12 22 13
f 12 16 22
f 9 13 17
f 13 18 17
f 13 22 18
f 14 19 16
f 16 19 22
f 18 22 19
f 23 25 26
f 23 26 40
f 23 24 25
f 24 33 25
f 23 38 24
f 24 39 33
f 25 27 26
f 25 33 27
f 27 33 28
f 28 33 34
f 23 45 38
f 23 40 45
f 24 38 39
f 33 39 34
f 34 39 49
f 38 50 39
f 38 45 50
f 39 50 49
f 40 41 44
f 40 44 45
f 44 49 45
f 45 49 50
f 9 29 11
f 9 17 40
f 17 20 41
f 11 42 20
f 9 26 27
f 9 27 29
f 9 40 26
f 27 28 29
f 11 29 30
f 11 30 43
f 29 31 30
f 17 41 40
f 20 42 41
f 11 43 42
f 4 10 5
f 4 5 14
f 5 15 14
f 5 10 15
f 4 8 10
f 7 9 8
f 8 9 10
f 9 11 10
f 10 11 15
f 11 20 15
f 14 15 19
f 17 18 20
f 18 19 20
f 15 21 19
f 19 21 20
f 15 20 21
f 28 35 29
f 28 34 35
f 29 36 31
f 29 35 36
f 41 47 44
f 41 42 47
f 42 43 46
f 42 46 47
f 47 46 51
f 34 52 35
f 34 49 52
f 35 52 36
f 52 51 36
f 44 47 49
f 47 52 49
f 47 51 52
f 32 30 31
f 37 31 36
f 32 31 37
f 32 43 30
f 32 48 43
f 48 46 43
f 32 37 48
f 48 37 53
f 37 36 53
f 53 36 51
f 48 51 46
f 48 53 51
