# MAAS exact compiled indexed mesh
# program_hash f570c0de826c28f4018dbb3b643ece2719295349f7195fd1535d2ef2613cbbae
# geometry_hash 040d5f1a2486ce05b7843b1ff1c86064d73e803b8dc4953cb0364f2ed5ffdffb
v -19.3784157 -14.17688683 0
v -30.52727221 -8.87198724 5.02554
v -23.04387154 -8.87198724 5.02554
v -19.3784157 -14.17688683 4.48708929
v -18.46377784 -13.26224897 4.48708929
v -18.46377784 -13.26224897 4.90775391
v -19.3784157 -0.87306341 0
v -18.46377784 -1.19119832 0
v -18.46377784 -0.87306341 0
v -20.91198724 -3.3345519 2.50323494
v -19.3784157 -3.3345519 2.50323494
v -19.3784157 -0.87306341 2.50323494
v -18.46377784 -0.87306341 2.50323494
v -23.04387154 -0.39079981 5.69299453
v -19.3784157 -3.3345519 4.48708929
v -20.91198724 -0.39079981 5.69299453
v -18.46377784 -3.3345519 4.48708929
v -18.46377784 -3.3345519 4.90775391
v -16.16262516 -3.3345519 4.90775391
v -15.60707759 -2.6786734 4.90775391
v -5.99144339 -13.26224897 4.48708929
v -5.99144339 -13.26224897 4.90775391
v -10.16645488 -4.0772237 0
v -5.99144339 -0.87306341 0
v -11.07826642 -6.67685638 5.02554
v -3.59486575 -6.67685638 5.02554
v -5.99144339 -0.87306341 4.48708929
v -23.04387154 -7.63793347 7.10786287
v -30.52727221 -8.87198724 7.19285564
v -23.04387154 -8.87198724 7.19285564
v -23.35946853 -7.63793347 7.19285564
v -23.04387154 -7.63793347 7.19285564
v -16.75461909 -7.63793347 7.10786287
v -23.35946853 -7.63793347 9.31767489
v -16.75461909 -7.63793347 9.31767489
v -23.04387154 -0.39079981 7.10786287
v -20.91198724 -3.3345519 6.03681775
v -20.54917918 -2.90622134 7.10786287
v -20.91198724 -0.39079981 6.03681775
v -20.54917918 -0.39079981 7.10786287
v -16.16262516 -3.3345519 6.03681775
v -16.75461909 -2.90622134 7.10786287
v -15.60707759 -1.50975524 5.82648544
v -16.75461909 -2.6786734 7.67684888
v -15.60707759 -2.6786734 7.67684888
v -15.60707759 -1.50975524 7.19285564
v -15.60707759 -0.15243745 7.19285564
v -16.75461909 -0.15243745 7.67684888
v -15.60707759 -0.15243745 7.67684888
v -16.19166484 -6.40387971 9.23268212
v -16.19166484 -6.40387971 9.69772172
v -16.19166484 -0.15243745 9.23268212
v -16.75461909 -0.15243745 9.31767489
v -16.19166484 -0.15243745 9.31767489
v -11.07826642 -6.67685638 7.19285564
v -11.07826642 -2.98125519 5.82648544
v -13.66663173 -0.44156404 7.19285564
v -13.76057465 -0.15243745 7.19285564
v -13.003593 -0.2261297 7.19285564
v -11.07826642 -2.98125519 7.19285564
v -3.59486575 -5.70051097 7.10786287
v -6.19377601 -5.70051097 7.19285564
v -3.59486575 -6.67685638 7.19285564
v -3.59486575 -5.70051097 7.19285564
v -6.19377601 -2.43877337 7.19285564
v -10.46536665 -6.40387971 9.23268212
v -10.46536665 -6.40387971 9.69772172
v -13.66663173 -0.44156404 9.23268212
v -13.76057465 -0.15243745 9.23268212
v -13.003593 -0.2261297 9.23268212
v -10.46536665 -1.05084944 9.23268212
v -10.46536665 -1.05084944 9.31767489
v -7.78813128 -0.16474319 9.31767489
v -7.78813128 -0.16474319 9.51083445
v -6.19377601 -5.70051097 9.31767489
v -1.3092856 -4.72416557 9.31767489
v -1.3092856 -4.72416557 9.69772172
v -6.19377601 -2.43877337 9.31767489
v -1.3092856 -1.89629155 9.31767489
v -1.3092856 -1.89629155 9.51083445
v -20.91198724 1.41481018 2.50323494
v -18.46377784 1.41481018 2.50323494
v -20.35643967 2.07068867 4.14326607
v -18.46377784 2.07068867 4.14326607
v -20.91198724 1.41481018 5.69299453
v -20.35643967 2.07068867 5.69299453
v -18.46377784 2.07068867 4.90775391
v -15.60707759 2.07068867 4.90775391
v -18.05528699 2.07068867 5.69299453
v -18.46377784 14.17688683 0
v -30.52727221 7.59149424 5.02554
v -23.04387154 7.59149424 5.02554
v -23.04387154 7.09260086 5.69299453
v -18.05528699 7.09260086 5.69299453
v -18.46377784 14.17688683 4.90775391
v -3.59486575 1.80433105 5.69299453
v -5.99144339 14.17688683 0
v -11.07826642 9.7866251 5.02554
v -3.59486575 9.28773172 5.69299453
v -3.59486575 9.7866251 5.02554
v -5.99144339 14.17688683 4.90775391
v -23.35946853 6.89273527 7.19285564
v -18.01851006 2.07068867 5.82648544
v -18.05528699 2.07068867 5.82648544
v -17.99714458 3.40976993 5.82648544
v -15.66481502 2.07068867 5.82648544
v -15.60707759 2.01666102 5.82648544
v -15.60707759 2.07068867 5.82648544
v -16.95747562 3.28029257 5.82648544
v -18.05528699 4.74426077 5.82648544
v -18.05528699 4.74426077 7.10786287
v -18.05528699 6.89273527 7.10786287
v -16.75461909 6.45241198 7.10786287
v -16.75461909 6.89273527 7.10786287
v -18.05528699 6.89273527 7.19285564
v -23.35946853 6.89273527 9.31767489
v -16.19166484 6.19397631 9.31767489
v -16.19166484 6.19397631 9.69772172
v -16.75461909 6.45241198 9.31767489
v -16.75461909 6.89273527 9.31767489
v -30.52727221 7.59149424 7.19285564
v -23.04387154 7.09260086 7.19285564
v -23.04387154 7.59149424 7.19285564
v -18.05528699 7.09260086 7.19285564
v -14.45253463 0.93630036 5.82648544
v -11.13267391 2.01498849 5.82648544
v -11.07826642 1.99731043 5.82648544
v -11.07826642 2.03266656 5.82648544
v -11.13267391 2.01498849 7.10786287
v -11.07826642 1.99731043 7.10786287
v -11.07826642 2.03266656 7.10786287
v -12.79813814 6.45241198 7.10786287
v -11.07826642 5.93484176 5.82648544
v -11.39460962 6.90844604 5.82648544
v -12.35169437 4.37976702 7.19285564
v -12.79813814 6.45241198 7.19285564
v -12.35169437 6.45241198 7.19285564
v -11.07826642 5.93484176 7.19285564
v -11.39460962 6.90844604 7.19285564
v -8.15285043 5.74405412 7.80855841
v -0.09612638 1.47674597 5.82648544
v -0.09612638 1.47674597 7.10786287
v -0.20256522 1.80433105 5.82648544
v -3.59486575 1.80433105 7.10786287
v -0.20256522 1.80433105 7.10786287
v -6.19377601 5.4305738 7.19285564
v -6.19377601 5.4305738 7.80855841
v -6.47298052 6.28987694 7.19285564
v -6.47298052 6.28987694 7.80855841
v -10.46536665 0.08592491 9.31767489
v -10.46536665 0.08592491 9.69772172
v -7.86957829 0.08592491 9.31767489
v -7.86957829 0.08592491 9.51083445
v -12.35169437 4.37976702 9.23268212
v -12.35169437 6.19397631 9.23268212
v -12.35169437 6.19397631 9.31767489
v -12.35169437 6.45241198 9.31767489
v -10.46536665 4.4283677 9.69772172
v -10.46536665 5.8122231 9.23268212
v -10.46536665 6.19397631 9.23268212
v -8.15285043 5.74405412 9.23268212
v -8.15285043 5.8122231 9.23268212
v -10.46536665 5.8122231 9.69772172
v -10.46536665 6.19397631 9.69772172
v -8.15285043 5.8122231 9.31767489
v -7.21328738 0.02203492 9.31767489
v -7.21328738 0.02203492 9.51083445
v -7.0166542 0.08592491 9.51083445
v -6.64810175 0.08592491 9.51083445
v -6.64810175 0.08592491 9.69772172
v -6.64810175 0.90203657 9.51083445
v -4.4699243 2.94026063 9.51083445
v -1.35091822 1.92683412 9.31767489
v -1.3092856 1.91330686 9.31767489
v -1.3092856 1.94036138 9.31767489
v -1.35091822 1.92683412 9.51083445
v -1.3092856 1.91330686 9.51083445
v -1.3092856 1.94036138 9.51083445
v -6.64810175 4.01527327 9.31767489
v -6.64810175 4.01527327 9.51083445
v -6.64810175 5.8122231 9.31767489
v -6.64810175 5.8122231 9.69772172
v -3.00777161 3.86203063 9.51083445
v -3.00777161 5.19808823 9.31767489
v -3.00777161 5.19808823 9.51083445
v -1.3092856 3.86203063 9.51083445
v -1.3092856 3.86203063 9.69772172
v -0.18207494 3.86203063 9.69772172
v -3.00777161 6.6877273 9.31767489
v -3.00777161 3.86203063 11.14583107
v -0.18207494 3.86203063 11.14583107
v -3.00777161 6.6877273 11.14583107
v -2.67856209 6.85727099 11.39999776
v -8.15285043 7.46223948 7.80855841
v -11.07826642 9.7866251 7.19285564
v -7.77313229 10.91702142 8.0627251
v -6.19377601 7.46223948 7.80855841
v -6.19377601 8.83015777 7.19285564
v -4.06684072 8.83015777 7.19285564
v -6.19377601 8.83015777 7.90919552
v -4.74327513 8.83015777 7.90919552
v -4.5139061 8.83015777 8.0627251
v -3.59486575 9.28773172 7.19285564
v -3.59486575 9.7866251 7.19285564
v -4.5139061 10.91702142 8.0627251
v -8.15285043 7.46223948 9.31767489
v -7.77313229 10.91702142 9.31767489
v -4.5139061 8.83015777 9.31767489
v -2.77229518 8.83015777 9.23268212
v -2.77229518 8.83015777 9.31767489
v -2.67856209 9.68296766 9.23268212
v -2.67856209 9.68296766 11.39999776
v -4.5139061 10.91702142 9.31767489
v 8.37073938 -8.87198724 5.02554
v 18.87007661 -14.17688683 0
v 18.87007661 -14.17688683 4.48708929
v 15.85414005 -8.87198724 5.02554
v 18.87007661 -0.87306341 0
v 18.87007661 -0.87306341 4.48708929
v 15.85414005 -0.39079981 5.69299453
v 20.84272461 -0.39079981 5.69299453
v 8.37073938 -8.87198724 7.19285564
v 10.97191651 -7.63793347 7.19285564
v 10.97191651 -7.63793347 9.31767489
v 0.41107342 -5.70051097 7.10786287
v 8.37073938 -0.78612433 5.82648544
v 8.37073938 -0.78612433 7.19285564
v 10.97191651 -0.50135087 7.19285564
v 0.41107342 -5.70051097 9.31767489
v 0.41107342 -4.72416557 9.23268212
v 0.41107342 -4.72416557 9.31767489
v 4.41701259 -4.72416557 9.23268212
v 4.41701259 -4.72416557 9.69772172
v 13.57309363 -6.40387971 9.31767489
v 13.57309363 -6.40387971 9.69772172
v 10.97191651 -0.50135087 9.31767489
v 13.57309363 -0.21657741 9.31767489
v 13.57309363 -0.21657741 9.51083445
v 15.85414005 -7.63793347 7.10786287
v 17.57676594 -7.63793347 7.10786287
v 15.85414005 -8.87198724 7.19285564
v 15.85414005 -7.63793347 7.19285564
v 17.57676594 -7.63793347 9.31767489
v 15.85414005 -0.39079981 7.10786287
v 17.57676594 -0.39079981 7.10786287
v 19.35287942 -0.71838489 5.82648544
v 19.24644057 -0.39079981 5.82648544
v 20.10411296 -0.47429431 5.82648544
v 20.36108261 -0.39079981 5.82648544
v 20.84272461 -0.39079981 5.82648544
v 20.84272461 -0.23430484 5.82648544
v 17.57676594 -0.39079981 7.19285564
v 17.57676594 -0.15243745 7.19285564
v 19.35287942 -0.71838489 7.19285564
v 19.24644057 -0.39079981 7.19285564
v 20.10411296 -0.47429431 7.19285564
v 20.6647533 -0.44156404 7.19285564
v 20.57081038 -0.15243745 7.19285564
v 21.32779203 -0.2261297 7.19285564
v 29.06410994 -3.38557381 5.82648544
v 29.06410994 -3.38557381 7.19285564
v 29.23588536 -2.79562498 7.19285564
v 17.57676594 -6.40387971 9.23268212
v 17.57676594 -6.40387971 9.31767489
v 19.29939182 -6.40387971 9.23268212
v 19.29939182 -6.40387971 9.69772172
v 17.57676594 -0.15243745 9.23268212
v 19.29939182 -0.15243745 9.23268212
v 19.29939182 -0.15243745 9.31767489
v 20.6647533 -0.44156404 9.31767489
v 20.57081038 -0.15243745 9.31767489
v 21.32779203 -0.2261297 9.31767489
v 21.97662719 -0.16474319 9.31767489
v 21.97662719 -0.16474319 9.51083445
v 29.23588536 -2.79562498 9.31767489
v 29.40766079 -2.20567616 9.31767489
v 29.40766079 -2.20567616 9.51083445
v 1.39371881 1.80433105 5.69299453
v 1.39371881 9.28773172 5.69299453
v 8.37073938 7.59149424 5.02554
v 15.85414005 7.59149424 5.02554
v 15.85414005 7.09260086 5.69299453
v 20.84272461 7.09260086 5.69299453
v 0.65510716 1.72083655 5.82648544
v 0.41107342 1.64154518 7.10786287
v 0.91207682 1.80433105 5.82648544
v 1.39371881 1.80433105 5.82648544
v 1.39371881 1.96082602 5.82648544
v 4.99647116 3.13143122 5.82648544
v 0.41107342 1.64154518 7.19285564
v 0.65510716 1.72083655 7.19285564
v 3.49906079 1.49585846 7.19285564
v 0.41107342 1.78498505 7.19285564
v 3.40511786 1.78498505 7.19285564
v 4.16209951 1.7112928 7.19285564
v 1.45186122 5.6049008 5.82648544
v 1.39371881 6.93939164 5.82648544
v 2.49153018 5.47542343 5.82648544
v 1.39371881 6.93939164 7.10786287
v 4.81399815 6.31718952 7.19285564
v 8.37073938 4.19244129 5.82648544
v 8.31633188 4.21011936 5.82648544
v 8.37073938 4.22779743 5.82648544
v 8.37073938 4.19244129 7.10786287
v 8.31633188 4.21011936 7.10786287
v 8.37073938 4.22779743 7.10786287
v 11.12633818 6.89273527 7.19285564
v 11.12633818 6.89273527 7.80855841
v 12.27206828 6.89273527 7.80855841
v 12.65178642 6.89273527 8.0627251
v 3.49906079 1.49585846 9.23268212
v 0.41107342 1.78498505 9.23268212
v 3.40511786 1.78498505 9.23268212
v 4.16209951 1.7112928 9.23268212
v 4.41701259 1.62846652 9.23268212
v 4.41701259 1.62846652 9.31767489
v 4.41701259 1.76563904 9.31767489
v 4.41701259 1.76563904 9.69772172
v 7.09424795 1.51497094 9.31767489
v 7.01280095 1.76563904 9.31767489
v 7.09424795 1.51497094 9.51083445
v 7.01280095 1.76563904 9.51083445
v 0.14713458 6.85727099 9.69772172
v 4.81399815 6.31718952 9.23268212
v 4.41701259 6.10808184 9.69772172
v 0.14713458 6.85727099 11.39999776
v 7.66909186 1.70174905 9.31767489
v 7.66909186 1.70174905 9.51083445
v 7.86572504 1.76563904 9.51083445
v 8.23427749 1.76563904 9.51083445
v 8.23427749 1.76563904 9.69772172
v 8.23427749 2.58175071 9.51083445
v 10.41245494 4.61997476 9.51083445
v 8.23427749 5.69498741 9.31767489
v 8.23427749 5.69498741 9.51083445
v 12.20381714 4.57285976 9.51083445
v 13.57309363 3.593021 9.31767489
v 13.53146101 3.60654826 9.31767489
v 13.57309363 3.62007551 9.31767489
v 13.57309363 3.593021 9.51083445
v 13.53146101 3.60654826 9.51083445
v 13.57309363 3.62007551 9.51083445
v 13.57309363 4.57285976 9.51083445
v 13.57309363 4.57285976 9.69772172
v 15.02951382 4.57285976 9.69772172
v 12.65178642 6.89273527 9.23268212
v 15.02951382 6.89273527 9.23268212
v 11.87460763 6.14644185 9.51083445
v 11.87460763 6.87780237 9.31767489
v 11.87460763 6.87780237 9.51083445
v 15.02951382 6.19397631 9.31767489
v 15.02951382 6.19397631 9.69772172
v 15.02951382 6.89273527 9.31767489
v 12.20381714 4.57285976 11.39999776
v 15.02951382 4.57285976 11.39999776
v 11.87460763 6.14644185 11.14583107
v 1.39371881 8.38983448 7.10786287
v 4.81399815 8.05070776 7.10786287
v 4.81399815 8.38983448 7.10786287
v 0.41107342 8.38983448 7.19285564
v 0.41107342 8.83015777 7.19285564
v 1.39371881 8.38983448 7.19285564
v 1.39371881 9.28773172 7.19285564
v 4.81399815 8.05070776 7.19285564
v 8.37073938 7.59149424 5.82648544
v 8.54570162 7.59149424 5.82648544
v 8.73590479 7.59149424 7.10786287
v 10.89929763 7.59149424 7.10786287
v 10.69271199 8.22729944 7.10786287
v 8.05439618 9.1035769 5.82648544
v 8.54570162 7.59149424 7.19285564
v 8.73590479 7.59149424 7.19285564
v 9.01284208 7.68147662 7.80855841
v 10.89929763 7.59149424 7.19285564
v 10.69271199 8.22729944 7.80855841
v 8.05439618 9.1035769 7.19285564
v 9.01284208 10.09713408 7.80855841
v 12.65178642 8.28212682 8.0627251
v 12.27206828 10.09713408 7.80855841
v 0.14713458 8.83015777 9.23268212
v 0.14713458 7.87369045 9.31767489
v 0.14713458 7.87369045 9.69772172
v 0.41107342 8.38983448 9.31767489
v 0.14713458 8.83015777 9.31767489
v 0.41107342 8.83015777 9.31767489
v 0.14713458 9.68296766 9.23268212
v 4.81399815 7.49193724 9.23268212
v 4.41701259 7.49193724 9.31767489
v 4.41701259 7.87369045 9.31767489
v 4.81399815 7.49193724 9.31767489
v 4.41701259 7.49193724 9.69772172
v 4.41701259 7.87369045 9.69772172
v 4.81399815 8.38983448 9.31767489
v 0.14713458 9.68296766 11.39999776
v 8.23427749 7.42850565 9.23268212
v 8.23427749 7.49193724 9.23268212
v 8.23427749 7.42850565 9.31767489
v 9.01284208 7.68147662 9.31767489
v 8.23427749 7.49193724 9.69772172
v 9.01284208 10.09713408 9.31767489
v 12.65178642 8.28212682 9.23268212
v 15.02951382 7.39855643 9.23268212
v 12.50742889 8.97213853 9.23268212
v 14.7003043 8.97213853 9.23268212
v 11.87460763 8.97213853 9.31767489
v 12.50742889 8.97213853 9.31767489
v 12.27206828 10.09713408 9.31767489
v 12.20381714 7.39855643 11.39999776
v 15.02951382 7.39855643 11.39999776
v 11.87460763 8.97213853 11.14583107
v 14.7003043 8.97213853 11.14583107
v 20.90086701 3.40976993 5.82648544
v 21.94053597 3.28029257 5.82648544
v 20.84272461 4.74426077 5.82648544
v 20.84272461 4.74426077 7.10786287
v 21.97969067 5.11368344 7.10786287
v 20.84272461 6.45241198 7.10786287
v 21.97969067 6.45241198 7.10786287
v 17.57676594 6.45241198 7.19285564
v 17.57676594 6.89273527 7.19285564
v 21.97969067 4.37976702 7.19285564
v 21.97969067 5.11368344 7.19285564
v 20.84272461 6.45241198 7.19285564
v 24.44547696 0.93630036 5.82648544
v 30.52727367 1.11758109 5.82648544
v 30.50926438 1.12343266 7.10786287
v 30.52727367 1.17885953 7.10786287
v 27.76533768 2.01498849 5.82648544
v 28.96656569 2.40529114 5.82648544
v 28.08958896 1.97091131 7.10786287
v 27.76533768 2.01498849 7.10786287
v 28.96656569 2.40529114 7.10786287
v 29.14979281 2.31539242 7.10786287
v 30.52727367 1.11758109 7.19285564
v 30.50926438 1.12343266 7.19285564
v 27.50340197 6.90844604 5.82648544
v 27.7190946 6.2446124 7.10786287
v 27.85840451 6.28987694 7.10786287
v 27.50340197 6.90844604 7.19285564
v 27.7190946 6.2446124 7.19285564
v 19.29939182 0.08592491 9.31767489
v 19.29939182 0.08592491 9.69772172
v 21.89518018 0.08592491 9.31767489
v 21.89518018 0.08592491 9.51083445
v 22.55147109 0.02203492 9.31767489
v 22.55147109 0.02203492 9.51083445
v 22.74810427 0.08592491 9.51083445
v 17.57676594 6.45241198 9.31767489
v 17.57676594 6.89273527 9.31767489
v 21.97969067 4.37976702 9.23268212
v 19.29939182 4.4283677 9.69772172
v 21.97969067 5.8122231 9.23268212
v 19.29939182 5.8122231 9.31767489
v 19.29939182 6.19397631 9.31767489
v 19.29939182 5.8122231 9.69772172
v 19.29939182 6.19397631 9.69772172
v 21.97969067 5.8122231 9.31767489
v 21.97969067 6.45241198 9.31767489
v 23.11665673 0.08592491 9.51083445
v 23.11665673 0.08592491 9.69772172
v 23.11665673 0.90203657 9.51083445
v 25.29483417 2.94026063 9.51083445
v 30.50926438 1.1847111 9.23268212
v 30.52727367 1.24013798 9.23268212
v 30.52727367 1.17885953 9.31767489
v 30.50926438 1.1847111 9.31767489
v 30.52727367 1.24013798 9.51083445
v 28.08958896 1.97091131 9.23268212
v 28.41384025 1.92683412 9.23268212
v 29.14979281 2.31539242 9.23268212
v 29.33301993 2.2254937 9.23268212
v 28.41384025 1.92683412 9.51083445
v 29.33301993 2.2254937 9.51083445
v 23.11665673 4.74918969 9.23268212
v 23.11665673 4.01527327 9.31767489
v 23.11665673 4.01527327 9.51083445
v 23.11665673 4.74918969 9.31767489
v 23.11665673 5.8122231 9.23268212
v 23.11665673 5.8122231 9.69772172
v 28.07409713 5.6260433 9.23268212
v 28.21340705 5.67130784 9.23268212
v 28.07409713 5.6260433 9.31767489
v 28.21340705 5.67130784 9.51083445
v 27.85840451 6.28987694 9.31767489
v 15.85414005 7.09260086 7.19285564
v 15.85414005 7.59149424 7.19285564
v 20.84272461 7.09260086 7.19285564
f 1 4 11
f 4 5 15
f 1 11 7
f 1 7 8
f 1 8 23
f 7 9 8
f 7 13 9
f 7 11 12
f 7 12 13
f 4 15 11
f 5 17 15
f 1 23 215
f 1 215 4
f 4 216 5
f 5 216 21
f 4 215 216
f 21 216 219
f 23 24 215
f 24 27 218
f 24 218 215
f 21 219 27
f 27 219 218
f 215 218 216
f 216 218 219
f 5 6 17
f 8 9 23
f 9 13 82
f 6 18 17
f 5 21 6
f 6 21 22
f 21 27 22
f 9 90 23
f 9 82 95
f 95 82 84
f 95 84 87
f 9 95 90
f 23 90 24
f 24 97 27
f 22 27 101
f 24 90 97
f 90 101 97
f 90 95 101
f 27 97 101
f 3 92 14
f 2 3 29
f 3 30 29
f 28 32 30
f 3 14 30
f 14 28 30
f 2 29 121
f 14 36 28
f 14 92 93
f 2 121 91
f 91 121 123
f 91 123 92
f 92 123 93
f 93 123 122
f 14 16 39
f 14 39 36
f 36 39 40
f 14 85 16
f 14 93 85
f 93 86 85
f 93 94 86
f 94 89 86
f 93 124 94
f 93 122 124
f 56 60 43
f 60 46 43
f 56 43 107
f 56 107 125
f 56 125 126
f 105 109 103
f 109 106 103
f 56 126 127
f 126 130 127
f 126 129 130
f 105 103 104
f 105 104 110
f 109 108 106
f 109 110 128
f 105 110 109
f 110 111 132
f 125 107 126
f 109 126 108
f 126 107 108
f 109 128 126
f 126 128 129
f 128 131 129
f 110 134 128
f 110 139 134
f 110 132 139
f 128 134 133
f 133 134 138
f 134 139 138
f 132 136 139
f 214 226 301
f 217 281 220
f 214 217 222
f 217 241 222
f 214 222 227
f 214 227 226
f 239 242 241
f 217 220 241
f 220 239 241
f 220 244 239
f 214 301 280
f 280 301 303
f 280 303 365
f 280 365 366
f 220 281 282
f 301 306 303
f 301 304 306
f 280 366 486
f 366 371 367
f 366 367 368
f 280 486 281
f 366 368 486
f 367 371 372
f 368 374 486
f 281 486 282
f 282 486 485
f 220 247 244
f 220 221 247
f 244 247 245
f 245 247 255
f 221 249 247
f 221 250 249
f 245 255 252
f 220 282 221
f 221 282 283
f 282 485 487
f 282 487 283
f 248 249 250
f 256 260 261
f 248 250 260
f 250 424 260
f 248 260 256
f 260 425 261
f 260 424 428
f 260 428 425
f 261 425 434
f 250 251 412
f 250 413 424
f 250 412 413
f 425 428 426
f 426 428 431
f 425 426 435
f 425 435 434
f 246 247 248
f 247 249 248
f 246 248 254
f 248 256 254
f 251 414 412
f 412 414 413
f 414 415 416
f 413 428 424
f 413 414 429
f 413 429 428
f 428 429 431
f 429 432 431
f 414 436 429
f 414 439 436
f 414 416 439
f 429 436 432
f 432 436 437
f 436 439 437
f 416 422 439
f 437 439 440
f 25 26 55
f 25 55 60
f 25 60 56
f 26 63 55
f 26 96 63
f 61 64 63
f 61 63 96
f 61 96 144
f 25 56 98
f 56 127 98
f 98 127 128
f 98 128 133
f 26 100 96
f 96 100 99
f 127 131 128
f 127 130 131
f 98 133 195
f 133 138 195
f 98 195 204
f 98 204 100
f 99 100 204
f 99 204 203
f 96 99 278
f 99 279 278
f 96 143 144
f 96 278 143
f 143 145 144
f 99 363 279
f 99 203 363
f 143 278 286
f 278 287 286
f 226 291 284
f 226 284 287
f 284 286 287
f 287 288 296
f 287 298 289
f 226 287 301
f 226 227 291
f 287 289 301
f 287 296 298
f 289 302 301
f 301 302 304
f 302 305 304
f 141 143 284
f 141 284 142
f 142 284 285
f 284 291 285
f 143 286 284
f 285 291 290
f 288 297 296
f 296 297 298
f 289 298 302
f 297 365 298
f 298 365 302
f 302 303 305
f 303 306 305
f 302 365 303
f 297 299 358
f 297 370 365
f 297 376 370
f 297 358 376
f 358 364 376
f 365 370 366
f 366 370 371
f 370 376 371
f 50 51 54
f 50 54 52
f 51 118 54
f 50 66 51
f 51 66 67
f 66 72 67
f 51 67 118
f 67 151 118
f 66 71 72
f 67 72 151
f 72 150 151
f 54 118 117
f 118 151 158
f 155 156 160
f 117 118 164
f 117 164 156
f 118 158 163
f 118 163 164
f 156 164 160
f 159 160 163
f 160 164 163
f 150 152 151
f 151 152 153
f 151 153 168
f 151 168 169
f 151 169 170
f 151 170 182
f 151 182 158
f 159 165 162
f 159 163 182
f 159 182 165
f 158 182 163
f 165 182 181
f 79 167 166
f 80 169 167
f 79 80 167
f 167 169 168
f 169 177 171
f 171 176 172
f 80 177 169
f 171 177 176
f 173 177 174
f 173 176 177
f 73 166 74
f 74 166 167
f 74 167 153
f 153 167 168
f 171 172 180
f 172 176 183
f 173 175 176
f 175 178 176
f 176 178 183
f 178 186 183
f 179 180 185
f 172 185 180
f 179 185 184
f 172 183 185
f 234 264 235
f 234 235 238
f 234 238 237
f 235 340 238
f 263 265 264
f 235 264 265
f 235 265 266
f 265 269 266
f 235 266 344
f 266 442 344
f 265 268 269
f 266 269 442
f 235 342 340
f 235 344 342
f 337 342 339
f 337 340 342
f 342 344 343
f 344 442 345
f 345 442 451
f 269 441 442
f 345 451 455
f 351 352 456
f 345 456 352
f 351 456 454
f 345 455 456
f 453 454 455
f 454 456 455
f 441 443 442
f 442 443 444
f 442 444 447
f 442 447 459
f 442 459 460
f 442 479 451
f 442 460 479
f 452 457 478
f 453 455 479
f 451 479 455
f 453 479 457
f 457 479 478
f 276 446 445
f 277 459 446
f 277 461 459
f 276 277 446
f 277 467 461
f 276 466 277
f 446 459 447
f 461 472 462
f 461 467 472
f 277 466 467
f 467 469 472
f 463 464 467
f 463 467 466
f 464 469 467
f 273 445 274
f 274 446 444
f 274 445 446
f 444 446 447
f 461 462 476
f 462 472 483
f 469 471 472
f 471 473 472
f 471 481 473
f 472 473 483
f 462 483 476
f 475 476 483
f 475 483 482
f 473 481 483
f 480 482 481
f 481 482 483
f 76 231 77
f 76 77 80
f 76 80 79
f 77 177 80
f 77 178 177
f 77 186 178
f 77 187 186
f 77 188 187
f 174 178 175
f 174 177 178
f 230 232 231
f 77 231 232
f 77 232 233
f 77 233 188
f 232 316 233
f 232 315 316
f 233 316 318
f 188 233 318
f 316 317 318
f 188 318 325
f 188 325 323
f 323 325 391
f 381 382 392
f 323 392 382
f 381 392 389
f 323 391 392
f 388 389 391
f 389 392 391
f 317 322 318
f 317 320 322
f 318 322 329
f 318 329 330
f 318 330 331
f 318 399 325
f 318 331 399
f 325 399 391
f 387 390 396
f 388 391 390
f 390 391 399
f 390 399 396
f 328 330 329
f 237 328 327
f 238 330 328
f 238 332 330
f 237 238 328
f 238 341 332
f 238 340 341
f 332 341 333
f 337 338 340
f 338 341 340
f 319 327 321
f 321 328 322
f 321 327 328
f 322 328 329
f 332 333 335
f 334 335 350
f 333 348 335
f 334 350 349
f 335 348 350
f 333 341 336
f 336 341 342
f 336 342 343
f 333 336 348
f 338 339 341
f 339 342 341
f 31 32 34
f 28 33 32
f 32 33 34
f 33 35 34
f 31 34 102
f 33 44 35
f 33 42 44
f 35 44 48
f 35 48 53
f 102 116 115
f 114 115 116
f 112 115 114
f 113 114 119
f 34 116 102
f 114 116 120
f 114 120 119
f 52 48 49
f 52 53 48
f 52 54 53
f 58 49 47
f 58 69 49
f 52 49 69
f 113 119 157
f 113 136 132
f 113 157 136
f 136 157 137
f 59 65 78
f 59 71 70
f 59 78 71
f 71 78 72
f 57 59 70
f 57 70 68
f 135 154 140
f 135 149 148
f 135 140 149
f 146 148 149
f 146 149 147
f 140 154 161
f 223 242 224
f 224 242 240
f 223 224 228
f 224 236 228
f 239 240 242
f 224 240 243
f 240 245 243
f 245 252 263
f 252 253 267
f 243 263 264
f 243 245 263
f 252 267 263
f 307 308 309
f 307 309 449
f 309 310 449
f 310 346 347
f 310 347 449
f 307 449 420
f 419 420 449
f 419 449 448
f 347 353 449
f 253 258 268
f 253 268 267
f 258 271 268
f 268 271 269
f 419 448 423
f 417 423 418
f 418 423 458
f 423 448 458
f 259 262 275
f 262 435 465
f 259 275 272
f 262 465 275
f 426 427 435
f 427 430 468
f 427 465 435
f 427 468 463
f 427 463 465
f 463 466 465
f 257 259 272
f 257 272 270
f 430 433 470
f 430 470 468
f 433 480 470
f 421 450 440
f 433 438 480
f 437 440 438
f 438 440 484
f 440 450 474
f 474 477 484
f 440 474 484
f 438 484 480
f 480 484 482
f 62 64 75
f 62 75 65
f 61 225 64
f 64 225 75
f 75 225 229
f 65 75 78
f 146 147 198
f 147 197 198
f 197 200 198
f 198 200 199
f 199 200 201
f 199 201 202
f 199 202 380
f 199 385 361
f 202 208 209
f 202 209 380
f 199 380 385
f 208 210 209
f 225 285 229
f 230 285 290
f 229 230 231
f 229 285 230
f 230 290 312
f 290 293 312
f 360 361 385
f 360 385 383
f 380 384 385
f 293 294 313
f 293 313 312
f 357 362 359
f 360 383 362
f 359 362 393
f 362 383 393
f 228 315 295
f 295 315 314
f 228 316 315
f 228 236 316
f 292 295 314
f 292 314 311
f 300 324 395
f 300 398 373
f 300 375 372
f 367 372 369
f 300 373 375
f 307 374 308
f 368 369 374
f 308 374 369
f 308 369 375
f 369 372 375
f 300 395 398
f 395 397 398
f 6 19 18
f 6 20 19
f 6 22 101
f 6 101 20
f 95 87 88
f 101 88 20
f 95 88 101
f 2 92 3
f 2 91 92
f 214 281 217
f 214 280 281
f 25 100 26
f 25 98 100
f 246 255 247
f 246 254 255
f 141 145 143
f 141 142 145
f 73 74 153
f 73 153 152
f 273 274 444
f 273 444 443
f 319 322 320
f 319 321 322
f 57 68 58
f 58 68 69
f 257 270 258
f 258 270 271
f 292 311 294
f 294 311 313
f 110 104 89
f 94 110 89
f 94 124 110
f 110 112 111
f 110 124 112
f 112 124 115
f 221 251 250
f 221 414 251
f 221 283 414
f 414 417 415
f 283 487 414
f 414 487 417
f 417 487 423
f 278 288 287
f 278 297 288
f 278 279 297
f 279 363 297
f 297 357 299
f 297 363 357
f 357 363 362
f 169 171 170
f 170 171 180
f 170 180 182
f 179 181 180
f 180 181 182
f 459 461 460
f 460 461 476
f 460 476 479
f 474 478 477
f 475 477 476
f 476 477 478
f 476 478 479
f 330 332 331
f 331 332 335
f 331 335 399
f 334 397 335
f 335 397 399
f 395 396 397
f 396 399 397
f 135 137 155
f 135 155 154
f 137 157 155
f 155 157 156
f 421 422 452
f 416 418 422
f 418 452 422
f 421 452 450
f 418 458 452
f 452 458 457
f 300 387 324
f 358 359 364
f 300 364 387
f 359 387 364
f 359 393 387
f 387 393 390
f 183 186 187
f 184 185 189
f 183 190 185
f 183 191 190
f 185 190 189
f 183 187 191
f 187 188 191
f 190 191 193
f 188 326 191
f 189 190 192
f 190 193 192
f 191 326 193
f 209 210 211
f 211 394 386
f 189 192 212
f 189 212 210
f 192 193 212
f 193 326 394
f 193 394 212
f 210 212 211
f 211 212 394
f 188 323 326
f 381 384 382
f 382 384 386
f 380 386 384
f 323 382 326
f 326 382 394
f 382 386 394
f 140 206 194
f 140 194 149
f 149 194 197
f 147 149 197
f 140 161 162
f 140 162 206
f 162 165 206
f 194 207 196
f 194 200 197
f 194 205 200
f 194 196 205
f 200 205 201
f 201 205 202
f 202 205 208
f 196 213 205
f 194 206 207
f 205 213 208
f 196 207 213
f 336 343 344
f 347 402 353
f 351 353 352
f 352 353 402
f 336 354 348
f 336 344 354
f 344 345 355
f 344 355 354
f 348 354 356
f 348 356 350
f 345 352 409
f 352 402 409
f 354 410 356
f 354 408 410
f 354 409 408
f 345 409 355
f 354 355 409
f 349 410 405
f 402 404 409
f 403 406 404
f 405 411 406
f 404 406 411
f 349 350 410
f 350 356 410
f 404 411 409
f 408 409 410
f 409 411 410
f 405 410 411
f 373 377 375
f 308 375 379
f 375 377 379
f 373 400 377
f 377 407 379
f 308 379 309
f 309 379 310
f 310 378 401
f 310 379 378
f 378 379 403
f 373 398 400
f 377 400 407
f 310 401 346
f 378 403 401
f 379 407 403
f 403 407 406
f 30 32 31
f 29 30 121
f 30 31 121
f 55 62 65
f 55 65 60
f 57 46 60
f 58 47 46
f 57 58 46
f 57 60 59
f 59 60 65
f 55 63 62
f 62 63 64
f 31 102 121
f 102 115 122
f 115 124 122
f 102 122 121
f 121 122 123
f 135 138 139
f 135 139 137
f 136 137 139
f 135 148 138
f 138 148 198
f 146 198 148
f 138 198 195
f 195 198 199
f 195 199 204
f 199 203 204
f 199 361 203
f 203 361 363
f 222 241 223
f 223 241 242
f 222 223 228
f 222 228 227
f 252 255 253
f 254 256 258
f 253 255 258
f 254 258 255
f 256 257 258
f 259 261 262
f 256 261 257
f 257 261 259
f 261 434 262
f 262 434 435
f 290 291 293
f 291 292 293
f 292 294 293
f 227 292 291
f 227 295 292
f 227 228 295
f 307 420 485
f 360 363 361
f 360 362 363
f 300 376 364
f 300 372 371
f 300 371 376
f 307 486 374
f 307 485 486
f 420 487 485
f 419 487 420
f 419 423 487
f 421 440 422
f 422 440 439
f 28 36 33
f 33 36 38
f 33 38 42
f 36 40 38
f 61 142 225
f 61 144 145
f 61 145 142
f 111 112 114
f 111 114 113
f 111 113 132
f 129 131 130
f 142 285 225
f 239 245 240
f 239 244 245
f 304 305 306
f 299 357 358
f 357 359 358
f 367 369 368
f 415 417 416
f 416 417 418
f 426 431 430
f 426 430 427
f 430 431 432
f 430 432 433
f 432 437 438
f 432 438 433
f 34 35 53
f 34 53 116
f 72 152 150
f 72 78 73
f 72 73 152
f 75 229 78
f 76 78 229
f 76 229 231
f 73 78 166
f 78 79 166
f 76 79 78
f 53 54 116
f 54 119 116
f 54 117 119
f 116 119 120
f 117 157 119
f 117 156 157
f 173 174 175
f 179 184 189
f 179 208 181
f 165 181 208
f 179 189 208
f 165 208 206
f 206 208 207
f 207 208 213
f 189 210 208
f 224 243 234
f 224 234 236
f 234 237 236
f 234 243 264
f 269 271 441
f 270 272 271
f 271 272 443
f 272 273 443
f 272 276 273
f 273 276 445
f 272 275 276
f 275 466 276
f 275 465 466
f 236 317 316
f 317 319 320
f 236 319 317
f 236 327 319
f 236 237 327
f 334 398 397
f 334 349 398
f 337 339 338
f 381 383 384
f 383 385 384
f 381 393 383
f 381 389 393
f 388 390 389
f 389 390 393
f 349 400 398
f 349 405 400
f 400 405 407
f 405 406 407
f 271 443 441
f 351 449 353
f 351 448 449
f 351 454 448
f 453 458 454
f 448 454 458
f 453 457 458
f 475 484 477
f 475 482 484
f 50 52 69
f 50 70 66
f 50 69 68
f 50 68 70
f 66 70 71
f 154 155 159
f 154 162 161
f 155 160 159
f 154 159 162
f 209 211 386
f 209 386 380
f 230 315 232
f 230 312 313
f 230 313 311
f 230 311 315
f 263 267 265
f 265 267 268
f 311 314 315
f 324 396 395
f 324 387 396
f 401 403 404
f 346 401 347
f 347 401 402
f 401 404 402
f 450 452 474
f 452 478 474
f 464 468 469
f 463 468 464
f 468 470 469
f 469 470 471
f 470 481 471
f 470 480 481
f 10 12 11
f 10 81 12
f 81 13 12
f 10 11 37
f 10 37 81
f 37 11 15
f 37 15 18
f 37 16 81
f 15 17 18
f 37 18 41
f 41 18 19
f 41 19 20
f 107 43 20
f 37 42 38
f 37 38 40
f 37 39 16
f 37 40 39
f 37 41 42
f 41 20 45
f 45 20 43
f 41 44 42
f 45 43 46
f 41 45 44
f 45 48 44
f 45 46 49
f 45 49 48
f 46 47 49
f 81 82 13
f 81 84 82
f 81 85 83
f 81 83 84
f 81 16 85
f 83 87 84
f 83 86 87
f 83 85 86
f 107 20 88
f 87 89 88
f 87 86 89
f 103 88 89
f 103 106 88
f 106 108 88
f 107 88 108
f 103 89 104
