# MAAS exact compiled indexed mesh
# program_hash a48130bdc358fbf52a29ad566845ebb5f0c315ba076ebf10a177413e4f20db99
# geometry_hash 4c2b57698c4053fa0952f486efedfd52dc691007d502f82d9646b20eb6abfb77
v -7.49697022 -9.56627412 3.3
v -8.72797061 -8.48861474 0
v -7.95870217 -6.10575408 3.3
v -6.13425616 -10.47165918 6.6
v -7.04960793 -7.10260494 6.6
v -8.72797061 -4.9974265 0
v -8.72797061 -1.50623826 0
v -8.42043413 -2.64523404 3.3
v -7.96495971 -3.7335507 6.6
v -8.88031149 -0.36449646 6.6
v -4.03645017 -9.10454217 3.3
v -5.23678237 -8.48861474 0
v -1.74559412 -8.48861474 0
v -0.57593013 -8.64281021 3.3
v -2.76520192 -9.5563074 6.6
v -5.23678237 -4.9974265 0
v -5.23678237 -1.50623826 0
v -1.74559412 -4.9974265 0
v -1.74559412 -1.50623826 0
v -7.36954956 -4.75206768 9.9
v -8.72243942 -1.53366988 9.9
v -10.10181985 -1.00747858 16.5
v -6.64466439 -5.68289075 13.2
v -7.95242975 -3.75857246 16.5
v -8.41132352 -2.67169316 13.2
v -4.66376984 -11.18886328 9.9
v -6.0166597 -7.97046548 9.9
v -1.44537205 -9.83597342 9.9
v -3.11134613 -11.70528591 13.2
v -3.65364954 -9.26076021 16.5
v -4.87800526 -8.69408833 13.2
v -5.80303965 -6.50966634 16.5
v -0.10014855 -9.93862678 13.2
v -1.50425944 -12.01185409 16.5
v -0.90255566 -7.11137011 16.5
v -5.20133587 -1.60918235 16.5
v -3.05194577 -4.36027623 16.5
v -0.30085189 -2.21088613 16.5
v -9.34389804 4.27580604 3.3
v -8.72797061 1.98494999 0
v -8.88216608 0.815286 3.3
v -8.72797061 5.47613823 0
v -9.79566327 3.00455778 6.6
v -9.80562999 7.73632608 3.3
v -8.72797061 8.96732648 0
v -6.34510995 8.19805804 3.3
v -10.71101505 6.37361202 6.6
v -7.34196081 7.2889638 6.6
v -5.23678237 1.98494999 0
v -5.23678237 5.47613823 0
v -1.74559412 1.98494999 0
v -1.74559412 5.47613823 0
v -5.23678237 8.96732648 0
v -1.74559412 8.96732648 0
v -2.88458991 8.65978999 3.3
v -3.97290657 8.20431558 6.6
v -0.60385233 9.11966736 6.6
v -10.07532928 1.68472791 9.9
v -11.42821914 4.90312571 9.9
v -10.17798265 0.33950442 13.2
v -12.25120996 1.7436153 16.5
v -11.94464178 3.350702 13.2
v -9.50011608 3.89300541 16.5
v -7.35072598 1.14191153 16.5
v -8.93344419 5.11736113 13.2
v -8.20982135 6.25601557 9.9
v -6.7490222 6.04239551 16.5
v -4.5996321 3.29130163 16.5
v -2.45024199 0.54020775 16.5
v -1.84853822 5.44069174 16.5
v -4.99142355 7.60890543 9.9
v -1.77302575 8.96179529 9.9
v -5.92224661 6.88402026 13.2
v -3.99792832 8.19178562 16.5
v -2.91104903 8.65067939 13.2
v -1.24683444 10.34117572 16.5
v 1.74559412 -8.48861474 0
v 2.88458991 -8.18107826 3.3
v 5.23678237 -8.48861474 0
v 0.60385233 -8.64095562 6.6
v 3.97290657 -7.72560385 6.6
v 1.74559412 -4.9974265 0
v 1.74559412 -1.50623826 0
v 5.23678237 -4.9974265 0
v 5.23678237 -1.50623826 0
v 8.72797061 -8.48861474 0
v 6.34510995 -7.7193463 3.3
v 9.80562999 -7.25761435 3.3
v 7.34196081 -6.81025207 6.6
v 8.72797061 -4.9974265 0
v 8.72797061 -1.50623826 0
v 8.88216608 -0.33657427 3.3
v 9.34389804 -3.79709431 3.3
v 10.71101505 -5.89490029 6.6
v 9.79566327 -2.52584605 6.6
v 1.77302575 -8.48308356 9.9
v 4.99142355 -7.1301937 9.9
v 1.24683444 -9.86246399 16.5
v 2.91104903 -8.17196765 13.2
v 5.92224661 -6.40530853 13.2
v 3.99792832 -7.71307388 16.5
v 1.84853822 -4.96198 16.5
v 2.45024199 -0.06149602 16.5
v 4.5996321 -2.8125899 16.5
v 8.20982135 -5.77730384 9.9
v 11.42821914 -4.42441398 9.9
v 10.07532928 -1.20601618 9.9
v 8.93344419 -4.6386494 13.2
v 6.7490222 -5.56368378 16.5
v 7.35072598 -0.6631998 16.5
v 9.50011608 -3.41429367 16.5
v 11.94464178 -2.87199027 13.2
v 12.25120996 -1.26490357 16.5
v 1.74559412 1.98494999 0
v 1.74559412 5.47613823 0
v 5.23678237 1.98494999 0
v 5.23678237 5.47613823 0
v 1.74559412 8.96732648 0
v 0.57593013 9.12152195 3.3
v 5.23678237 8.96732648 0
v 4.03645017 9.5832539 3.3
v 2.76520192 10.03501913 6.6
v 8.72797061 1.98494999 0
v 8.72797061 5.47613823 0
v 8.42043413 3.12394577 3.3
v 8.88031149 0.84320819 6.6
v 7.96495971 4.21226243 6.6
v 8.72797061 8.96732648 0
v 7.95870217 6.58446581 3.3
v 7.49697022 10.04498586 3.3
v 7.04960793 7.58131667 6.6
v 6.13425616 10.95037091 6.6
v 0 0.23935587 11
v 0 3.63012917 9.9817853
v 0 3.93134043 11
v 2.23734264 4.49591625 12.2595
v 3.15591694 0.23935587 11.55
v 4.04918424 4.49591625 12.2595
v 3.77531398 4.9627168 12.2595
v 3.64678945 5.2684646 12.2595
v 5.86102584 4.49591625 12.2595
v 5.31328532 5.42951735 12.2595
v 5.18476079 5.73526515 12.2595
v 5.58715558 4.9627168 12.2595
v 0.54493692 0.74165547 13.75
v 0.54493692 2.26381083 13.75
v 0 0.23935587 16.5
v 1.63481076 1.74625469 16.5
v 1.7054909 2.36208218 16.5
v 1.63481076 2.99647816 16.5
v 1.77617104 2.97790967 16.5
v 2.85677794 2.21085396 16.5
v 2.92745807 2.82668145 16.5
v 0.54493692 3.78596619 13.75
v 0.54493692 5.65305266 13.75
v 2.54393723 4.64059526 13.673
v 1.7054909 3.61230564 16.5
v 1.84685117 3.59373715 16.5
v 1.63481076 4.24670162 16.5
v 1.77617104 4.22813313 16.5
v 2.99813821 3.44250894 16.5
v 2.3017974 4.04772518 16.5
v 2.75674363 4.5017132 16.5
v 2.87781355 4.79814824 15.0865
v 1.7054909 4.86252911 16.5
v 2.23111727 4.68212115 16.5
v 1.63481076 5.49692508 16.5
v 2.16043713 5.31651713 16.5
v 2.68606349 5.13610918 16.5
v 2.37247754 5.91377613 16.5
v 2.8981039 5.73336817 16.5
v 3.48406951 0.94257532 14.3
v 3.82761611 1.3229308 15.34118892
v 3.84173317 1.344415 15.4
v 3.8681672 1.37429189 15.4817853
v 4.00806497 2.05962575 16.5
v 4.23692148 1.74625469 16.5
v 4.07874511 2.67545324 16.5
v 5.23003215 2.52422502 16.5
v 4.05353691 4.51798593 12.573
v 4.205854 4.67553892 13.9865
v 5.83970543 4.51798593 12.573
v 5.81647689 4.55292959 12.8865
v 5.78723476 4.71048257 14.3
v 3.45308444 3.89649696 16.5
v 4.14942525 3.29128072 16.5
v 3.90803067 4.35048498 16.5
v 4.35817109 4.8330919 15.4
v 3.21168986 4.95570122 16.5
v 4.49767545 4.9392223 16.35215789
v 4.5068824 4.95570122 16.5
v 4.55435432 4.89069836 16.5
v 4.60437148 3.74526875 16.5
v 5.30071229 3.14005251 16.5
v 5.25069513 4.28548213 16.5
v 5.94703594 3.68026589 16.5
v 5.80849827 4.81661297 15.25215789
v 5.89701879 4.82569551 16.5
v 5.82273215 4.92274337 16.20431578
v 5.81231079 4.9392223 16.35215789
v 5.80207494 4.95570122 16.5
v 5.84954686 4.89069836 16.5
v 0 6.97279759 11.43237784
v 0 6.97915201 11.49118892
v 0 6.98550643 11.55
v 0 7.00320445 11.6317853
v 0 7.02090248 11.7135706
v 2.23734264 6.80295544 12.2595
v 0 9.54030509 8.25
v 0.42075986 9.71717625 8.25
v 0 9.59590562 8.8
v 0.14025329 9.65486268 8.8
v 0.28050657 9.71381973 8.8
v 0.76229726 9.91634588 8.8
v 1.3238063 10.06890451 8.8
v 0.14025329 9.71046321 9.35
v 0 9.70710669 9.9
v 0.62204397 9.91298936 9.35
v 0.48179068 9.90963284 9.9
v 1.10383465 10.11551552 9.35
v 0.96358136 10.11215899 9.9
v 1.44537205 10.31468515 9.9
v 2.10528698 10.17485214 8.25
v 1.88531534 10.22146314 8.8
v 2.42171497 10.44694479 8.8
v 1.66534369 10.26807415 9.35
v 2.20174332 10.49355579 9.35
v 2.9581146 10.67242643 8.8
v 2.51817131 10.76564844 9.9
v 0 9.91791061 10.94118892
v 0.03338285 9.94385063 11
v 0.51517353 10.14637678 11
v 0.99696422 10.34890294 11
v 0 10.12871453 11.98237784
v 0.03338285 10.15465455 12.04118892
v 0.0667657 10.18059457 12.1
v 0.54855638 10.38312073 12.1
v 1.26095441 10.71635249 11.7865
v 2.23734264 9.10999463 12.2595
v 1.70936225 10.68213471 10.6865
v 1.8424292 10.76020463 10.6865
v 2.91522847 11.21116791 10.6865
v 1.97335244 11.04958426 11.473
v 2.1064194 11.12765418 11.473
v 2.23948636 11.2057241 11.473
v 2.23734264 11.41703382 12.2595
v 2.3704096 11.49510374 12.2595
v 2.50347656 11.57317366 12.2595
v 2.63654352 11.65124358 12.2595
v 2.75262922 11.70004152 12.2595
v 2.86871493 11.74883945 12.2595
v 2.91220476 11.79763739 12.34564568
v 2.98480063 11.79763739 12.2595
v 6.03625911 8.86604283 9.35
v 6.0166597 8.44917721 9.9
v 3.64678945 7.57550378 12.2595
v 5.05623625 6.04101294 12.2595
v 5.61675586 8.92738845 10.6865
v 5.7452804 8.62164066 10.6865
v 5.05623625 8.34805212 12.2595
v 5.18930321 8.42612204 12.2595
v 5.20252178 8.96656755 12.2595
v 5.89495485 8.07643535 11.473
v 5.62357554 8.24889879 12.2595
v 6.0446293 7.53123003 12.2595
v 5.47390109 8.7941041 11.473
v 3.71448588 10.85129707 8.25
v 4.03091387 11.12338972 8.8
v 4.59242291 11.27594835 8.8
v 3.27454259 10.94451908 9.35
v 3.59097058 11.21661172 9.9
v 4.34734186 11.39548236 9.35
v 6.07545793 9.69977406 8.25
v 6.05585852 9.28290845 8.8
v 5.60489523 10.35570771 8.8
v 5.56569642 9.52197648 9.9
v 5.58529583 9.93884209 9.35
v 5.15393195 11.42850698 8.8
v 5.37941359 10.89210734 8.8
v 5.399013 11.30897296 8.25
v 5.13433254 11.01164136 9.35
v 5.11473313 10.59477574 9.9
v 4.9088509 11.54804099 9.35
v 4.66376984 11.66757501 9.9
v 3.64678945 9.88254297 12.2595
v 3.77985641 9.96061289 12.2595
v 3.91292336 10.03868281 12.2595
v 4.09014662 10.47295514 12.2595
v 4.34719569 9.86145956 12.2595
v 4.21867116 10.16720735 12.2595
v 3.98802774 11.6621312 10.6865
v 4.10411344 11.71092914 10.6865
v 4.34055085 11.71092914 10.6865
v 4.14629527 11.83971589 11
v 3.36334507 11.06209936 12.2595
v 3.49186961 10.75635157 12.2595
v 3.47943077 11.1108973 12.2595
v 3.59551648 11.15969523 12.2595
v 3.31228563 11.65668739 11.473
v 3.42837133 11.70548533 11.473
v 3.54445703 11.75428326 11.473
v 3.58663887 11.88307001 11.7865
v 3.82307628 11.88307001 11.7865
v 3.14864217 11.79763739 12.34564568
v 3.22123804 11.79763739 12.2595
v 3.38507958 11.79763739 12.34564568
v 3.6288207 12.01185676 12.1
v 3.45767544 11.79763739 12.2595
v 3.69411285 11.79763739 12.2595
v 4.39161029 11.11634111 11.473
v 4.20623232 10.52175308 12.2595
v 3.83195388 11.15969523 12.2595
v 4.06839129 11.15969523 12.2595
v 4.44266973 10.52175308 12.2595
v 4.01733185 11.75428326 11.473
v 5.16579257 10.00018771 10.6865
v 5.34537655 9.09985189 11.473
v 5.21685201 9.40559968 11.473
v 4.76824945 9.1437908 12.2595
v 4.94547271 9.57806313 12.2595
v 5.07399724 9.27231534 12.2595
v 4.76588873 10.47839895 11.473
v 4.81694817 9.88381092 12.2595
v 4.71482929 11.07298698 10.6865
v 0.14140035 7.30174803 12.7317853
v 0.54493692 7.52013913 13.75
v 2.28411131 6.88151279 12.573
v 2.54393723 6.810638 13.673
v 2.61798762 8.96351682 13.9865
v 2.87781355 6.76991708 15.0865
v 1.84685117 6.09418408 16.5
v 2.05889158 6.69144308 16.5
v 1.63481076 7.03045798 16.5
v 2.27093199 7.28870208 16.5
v 2.58451795 6.51103513 16.5
v 2.8981039 7.5068631 16.5
v 2.87781355 8.74168591 15.0865
v 1.84685117 7.62771698 16.5
v 2.05889158 8.22497597 16.5
v 1.63481076 8.56399087 16.5
v 2.58451795 8.28453005 16.5
v 0 10.33951845 13.02356675
v 0.2803464 10.17793634 13.08237784
v 0.25703852 10.18578986 13.02356675
v 0.31203933 10.19669571 13.08237784
v 0.30365428 10.17003823 13.14118892
v 0.3352067 10.18872892 13.14118892
v 0.36675913 10.2074196 13.14118892
v 0 10.35858171 13.2
v 0.32696215 10.16209556 13.2
v 0.35837408 10.18071755 13.2
v 0.35937512 10.15935813 13.2817853
v 0.38978601 10.19933954 13.2
v 0.42119793 10.21796153 13.2
v 0.39059166 10.17788459 13.2817853
v 0.4218082 10.19641106 13.2817853
v 0.39178809 10.15644805 13.3635706
v 0.42280924 10.17487899 13.3635706
v 0 10.41167579 13.4453559
v 0.42420105 10.15336534 13.4453559
v 0.82047975 10.21708688 14.3
v 0.8239133 10.19420031 14.3817853
v 0.98552001 10.61679165 12.8865
v 1.09153599 10.61535927 13.2
v 1.12917238 10.62547401 13.31129463
v 1.25282397 10.56386583 14.3
v 2.28411131 9.16131046 12.573
v 2.3581617 9.19055028 12.8865
v 1.58180768 11.02808197 12.573
v 1.67184086 11.0220036 12.8865
v 1.76187404 11.01275701 13.2
v 1.79383643 11.02009765 13.31129463
v 2.28411131 11.44110813 12.573
v 2.3581617 11.42721554 12.8865
v 2.96436431 11.63191902 12.8865
v 2.85057559 11.77923784 12.43179135
v 2.79535748 11.75132793 12.51793703
v 3.06256225 11.86075438 12.573
v 2.73848329 11.67766852 12.74529135
v 2.95217806 11.80361129 12.74529135
v 3.02350414 11.70557843 12.65914568
v 3.00692261 11.83218284 12.65914568
v 2.43221209 11.41015475 13.2
v 2.45850048 11.41472129 13.31129463
v 2.63495922 11.5303497 13.2
v 2.59252115 11.4942919 13.31129463
v 2.6850172 11.60400911 12.97264568
v 2.9126087 11.5303497 13.2
v 2.90369312 11.47402285 13.37385633
v 2.89514045 11.72820572 12.97264568
v 2.84151095 11.65280015 13.2
v 3.04806268 11.77525059 13.2
v 1.82579882 11.02687893 13.42258927
v 1.90099069 10.93660896 14.41129463
v 2.65561518 11.14854814 14.14580015
v 2.69203801 11.02696262 14.3
v 2.68190357 11.15045823 14.25709478
v 2.70819196 11.15180897 14.36838941
v 2.99580638 11.13153992 14.43095111
v 2.48478887 11.41872848 13.42258927
v 2.51107726 11.4221763 13.5338839
v 2.55122716 11.4582341 13.42258927
v 2.86017276 11.43796505 13.48515097
v 2.81779649 11.40190725 13.5964456
v 2.6051971 11.37842621 14.3
v 2.57093121 11.34083537 14.41129463
v 2.79446887 11.49242824 14.3
v 2.98374064 11.60643027 14.3
v 0.82773762 10.17133216 14.4635706
v 1.22501736 10.17694096 15.4
v 1.23127419 10.1527183 15.4817853
v 0 11.31530955 16.5
v 1.61788981 10.49802097 15.4
v 1.84685117 9.16124987 16.5
v 1.63481076 10.09752377 16.5
v 1.98821145 10.39290485 16.5
v 2.16043713 10.15707784 16.5
v 2.37247754 9.22080395 16.5
v 2.8981039 9.28035802 16.5
v 2.51383781 10.45245892 16.5
v 2.68606349 10.21663192 16.5
v 2.01076226 10.81910099 15.4
v 2.62521496 11.19619864 15.4
v 2.87901826 10.88218799 15.09160029
v 2.90530665 10.88144164 15.20289492
v 2.95186394 10.64897303 15.4
v 2.9154411 10.76482836 15.24580015
v 3.01559087 11.00025142 15.41965648
v 2.53780941 11.30324453 14.52258927
v 3.0448765 11.4323713 14.47385633
v 2.79720677 11.30175226 15.4
v 2.59912126 11.15707477 15.51129463
v 2.86275857 11.13508219 15.57385633
v 2.34161213 10.68828592 16.5
v 2.96122541 10.73951995 16.19160029
v 2.82542256 10.86371751 16.34580015
v 2.8672385 10.74784 16.5
v 3.00034479 10.62501432 16.34580015
v 3.03946418 10.512013 16.5
v 2.69501281 10.983667 16.5
v 3.21168986 6.72919615 16.5
v 3.21168986 8.50269107 16.5
v 3.24863376 11.63191902 12.8865
v 3.08605207 11.77923784 12.43179135
v 3.31233531 11.73348835 12.573
v 3.15953469 11.8816355 12.8865
v 3.38731735 11.8816355 12.8865
v 3.5329032 11.63191902 12.8865
v 3.60322472 11.73348835 12.573
v 3.52873662 11.86075438 12.573
v 3.46011028 11.75677726 12.8865
v 3.19025818 11.5303497 13.2
v 3.17767139 11.47402285 13.37385633
v 3.381492 11.59513801 13.37385633
v 3.1052637 11.85240233 12.97264568
v 3.32571216 11.77525059 13.2
v 3.39680991 11.65280015 13.2
v 3.31133434 11.71625317 13.37385633
v 3.25461441 11.89770103 13.2
v 3.46790766 11.5303497 13.2
v 3.45164967 11.47402285 13.37385633
v 3.1216512 11.38163819 13.6590073
v 3.16625384 11.41769599 13.54771267
v 3.43656091 11.41769599 13.54771267
v 3.36734333 11.53747587 13.54771267
v 3.42264138 11.36136913 13.721569
v 3.13884419 10.49794057 16.19160029
v 3.21168986 10.276186 16.5
v 3.17526702 10.38631114 16.34580015
v 3.10530143 11.2609829 14.64771267
v 3.28055627 11.11127086 14.49351281
v 3.17381626 10.86117259 15.26545662
v 3.10242135 10.61107431 16.03740044
v 8.80137546 1.4277949 8.25
v 9.02350058 1.03164856 8.8
v 8.99718857 1.2265108 9.35
v 8.97087656 1.42137303 9.9
v 8.40939552 2.88971955 8.8
v 8.64881683 1.98930394 8.25
v 8.77506345 1.62265714 8.8
v 8.62250482 2.18416618 8.8
v 8.4962582 2.55081298 8.25
v 8.4537063 2.79283927 8.7292501
v 8.47051229 2.74148277 8.78816676
v 8.46994619 2.74567522 8.8
v 8.47160992 2.73955167 8.8
v 8.74875143 1.81751938 9.35
v 8.72243942 2.01238162 9.9
v 8.59633647 2.37796442 9.34699687
v 8.59764857 2.37367031 9.35
v 8.57810528 2.41836286 9.38063636
v 8.49460246 2.60469464 9.48275755
v 8.46315901 2.66833338 9.57533056
v 6.31183388 0.23935587 12.1
v 9.18168048 1.42137303 10.94118892
v 8.61873412 2.39172271 11
v 9.07797517 1.80071413 12.04118892
v 8.51502882 2.7710638 12.1
v 7.62425581 4.73699426 8.97000487
v 7.56801961 4.89127375 8.8
v 7.51469601 5.28302996 8.25
v 7.36213738 5.844539 8.25
v 7.41546098 5.45278279 8.8
v 7.52720544 4.92514055 9.32435965
v 7.46878459 5.06102658 9.35
v 7.36954956 5.23077941 9.9
v 7.31622596 5.62253562 9.35
v 8.36523999 3.03304009 8.25
v 8.09618811 3.70112852 8.25
v 8.1552381 3.48694802 8.86127272
v 7.95636009 4.0039758 8.49706338
v 7.89273628 4.18512129 8.25
v 7.86659128 4.19592724 8.67620126
v 8.02493169 3.80119794 8.82591623
v 8.00486478 3.84917677 8.82391304
v 7.90624208 4.0866743 8.8
v 7.74326737 4.46411638 8.88508537
v 7.79350126 4.35487412 8.8
v 8.14522952 3.45182768 9.35
v 8.27147614 3.08518088 9.9
v 7.82051285 4.15798015 9.9
v 7.66725464 4.72152092 8.25
v 7.71410666 4.52753138 8.93447732
v 7.69426623 4.52462695 9.35
v 7.47065552 4.98582503 10.6865
v 7.19678526 5.45262558 10.6865
v 7.06826073 5.75837337 10.6865
v 6.85125667 5.8963179 12.2595
v 7.57176148 4.74087064 11.473
v 7.29789122 5.20767119 11.473
v 7.39899718 4.9627168 12.2595
v 7.02402096 5.67447174 11.473
v 6.89549643 5.98021953 11.473
v 7.12512692 5.42951735 12.2595
v 8.16777084 3.46452198 11
v 7.81791351 4.29236685 11.7865
v 7.67286743 4.49591625 12.2595
v 8.06406553 3.84386307 12.1
v 7.71680755 4.53732124 11
v 9.30094923 0.23935587 8.25
v 9.19002517 0.63550221 8.8
v 9.2456257 0.63550221 9.35
v 9.46775082 0.23935587 9.9
v 9.21931369 0.83036445 9.9
v 9.67855474 0.23935587 10.94118892
v 9.43011761 0.83036445 10.94118892
v 9.88935866 0.23935587 11.98237784
v 9.64092153 0.83036445 11.98237784
v 6.46864759 0.51925142 13.14118892
v 6.57881727 0.89960691 14.18237784
v 6.57929165 0.92109111 14.24118892
v 6.57971255 0.94257532 14.3
v 6.58779765 0.97245221 14.3817853
v 8.78585358 2.37127494 13.14118892
v 8.77737039 2.38595258 13.2
v 8.77377063 2.40636394 13.2817853
v 8.98394534 2.19254517 14.3817853
v 6.59567558 1.0023291 14.4635706
v 6.7393023 1.37429189 15.4817853
v 6.8390322 1.74625469 16.5
v 6.61017569 2.05962575 16.5
v 6.38131919 2.3729968 16.5
v 6.45199932 2.98882429 16.5
v 7.60328636 2.83759608 16.5
v 8.67232656 2.82098394 15.4
v 9.10540281 2.05150805 15.4817853
v 8.7545734 2.68636786 16.5
v 8.98342991 2.3729968 16.5
v 7.63157359 4.29303374 14.15215789
v 7.62587396 4.51798593 12.573
v 7.56199639 4.55292959 12.8865
v 7.49888089 4.58787325 13.2
v 7.40190354 4.69400365 14.15215789
v 8.06900356 3.68328434 12.8865
v 7.99408105 3.73499845 13.2
v 8.24168113 3.30856105 13.2
v 7.88528104 4.07477808 12.573
v 7.81549997 4.11810696 12.8865
v 7.74648097 4.16143585 13.2
v 7.86124364 3.89206384 14.15215789
v 7.88359909 3.84013777 14.3
v 8.50136247 3.02838167 14.3
v 7.50963659 4.42463163 15.10431578
v 7.53023807 4.37364653 15.25215789
v 7.5495998 4.32418163 15.4
v 6.5933596 4.22047927 16.5
v 7.09832298 3.52903767 16.5
v 7.29789656 4.80013404 15.10431578
v 7.20570748 4.85622031 16.20431578
v 7.17513069 4.87345934 16.35215789
v 7.22331524 4.80769638 16.35215789
v 7.23968325 4.76069265 16.5
v 7.19221133 4.82569551 16.5
v 7.18685997 4.90626444 16.05647368
v 7.15681031 4.92274337 16.20431578
v 7.12694614 4.9392223 16.35215789
v 7.09726748 4.95570122 16.5
v 7.1447394 4.89069836 16.5
v 8.11096318 3.57258279 15.4
v 8.24961002 3.37780946 16.5
v 7.74464663 4.06925105 16.5
v 9.88841423 0.47628301 13.02356675
v 9.87524594 0.49776722 13.08237784
v 9.86202416 0.51925142 13.14118892
v 9.8487489 0.54073563 13.2
v 9.83848507 0.57061252 13.2817853
v 9.82801408 0.60048941 13.3635706
v 9.33476461 1.42718227 13.08237784
v 9.32393887 1.44526318 13.14118892
v 9.31305964 1.4633441 13.2
v 9.30612785 1.48848823 13.2817853
v 10.10016258 0.23935587 13.02356675
v 10.11922584 0.23935587 13.2
v 10.17798265 0.13920731 13.2
v 9.81733592 0.6303663 13.4453559
v 10.17231992 0.23935587 13.4453559
v 9.29898889 1.51363236 13.3635706
v 9.45965698 1.36617419 14.4635706
v 9.73583506 1.0023291 14.4635706
v 9.61043739 1.37429189 15.4817853
v 9.3579201 1.71289997 15.4817853
v 9.44114292 1.74625469 16.5
v 9.21228641 2.05962575 16.5
v 11.07595368 0.23935587 16.5
v 6.81193907 7.0870911 8.8
v 7.20957875 6.40604804 8.25
v 7.26290235 6.01429183 8.8
v 6.86526267 6.69533489 9.35
v 6.46762299 7.37637795 9.9
v 6.91858628 6.30357868 9.9
v 6.53313382 8.01524694 8.25
v 6.36097578 8.15989036 8.8
v 6.58645742 7.62349073 8.8
v 6.20841715 8.7213994 8.8
v 6.41429939 7.76813416 9.35
v 6.18881774 8.30453379 9.35
v 6.61729744 6.83117263 10.6865
v 6.76697189 6.28596732 11.473
v 6.72273213 6.2020657 12.2595
v 6.59420759 6.50781349 12.2595
v 6.3160086 7.35876659 11.473
v 6.46568306 6.81356128 12.2595
v 6.16633415 7.9039719 10.6865
f 2 3 6
f 1 2 12
f 2 6 12
f 6 16 12
f 1 3 2
f 1 4 5
f 1 5 3
f 4 27 5
f 6 8 7
f 6 7 16
f 6 3 8
f 7 17 16
f 7 40 17
f 7 8 41
f 5 9 3
f 3 9 8
f 5 20 9
f 8 9 10
f 8 10 41
f 9 21 10
f 1 12 11
f 11 12 13
f 12 16 13
f 13 16 18
f 13 77 14
f 13 18 77
f 11 13 14
f 1 11 4
f 4 11 15
f 4 15 26
f 11 14 15
f 15 80 28
f 14 80 15
f 16 17 18
f 17 49 19
f 18 19 82
f 17 19 18
f 19 51 83
f 5 27 20
f 20 27 23
f 10 21 58
f 9 20 21
f 20 23 25
f 20 25 21
f 21 25 60
f 22 60 25
f 23 24 25
f 23 32 24
f 22 25 24
f 22 24 36
f 22 36 64
f 4 26 27
f 26 31 27
f 26 28 29
f 26 29 31
f 23 27 31
f 15 28 26
f 28 33 29
f 29 30 31
f 23 31 32
f 30 32 31
f 30 35 32
f 29 33 34
f 29 34 30
f 33 98 34
f 30 34 98
f 30 98 35
f 24 32 37
f 24 37 36
f 32 35 37
f 35 102 37
f 37 102 38
f 36 37 38
f 36 38 69
f 38 147 69
f 39 44 42
f 7 41 40
f 17 40 49
f 39 40 41
f 39 42 40
f 40 42 49
f 42 50 49
f 39 41 43
f 10 58 43
f 39 43 47
f 43 59 47
f 10 43 41
f 42 44 45
f 42 45 50
f 45 53 50
f 46 53 45
f 44 46 45
f 39 47 44
f 44 47 48
f 44 48 46
f 47 66 48
f 49 50 51
f 19 49 51
f 50 52 51
f 51 52 114
f 50 53 52
f 53 55 54
f 46 55 53
f 52 53 54
f 52 54 115
f 54 55 119
f 46 48 56
f 46 56 55
f 48 71 56
f 55 56 57
f 55 57 119
f 56 72 57
f 57 209 210
f 58 60 62
f 21 60 58
f 43 58 59
f 47 59 66
f 58 62 59
f 59 62 65
f 59 65 66
f 60 61 62
f 22 61 60
f 61 63 62
f 22 64 61
f 61 64 63
f 62 63 65
f 63 64 68
f 63 67 65
f 63 68 67
f 48 66 71
f 65 73 66
f 66 73 71
f 65 67 73
f 36 69 64
f 64 69 68
f 67 68 70
f 68 69 147
f 68 147 70
f 70 147 412
f 56 71 72
f 71 73 75
f 71 75 72
f 57 72 209
f 72 211 209
f 72 217 211
f 72 230 217
f 72 75 342
f 72 234 230
f 342 234 72
f 73 74 75
f 67 74 73
f 67 70 74
f 70 76 74
f 75 349 342
f 75 359 349
f 75 76 359
f 74 76 75
f 70 412 76
f 76 412 359
f 18 82 77
f 77 82 79
f 14 77 78
f 77 79 78
f 79 82 84
f 78 79 87
f 14 78 80
f 78 81 80
f 80 81 96
f 78 87 81
f 81 87 89
f 81 89 97
f 82 83 84
f 19 83 82
f 83 114 85
f 83 85 84
f 79 86 87
f 79 84 86
f 84 90 86
f 86 90 88
f 86 88 87
f 87 88 89
f 89 94 105
f 88 94 89
f 84 85 90
f 90 91 93
f 85 91 90
f 85 116 91
f 91 92 93
f 88 90 93
f 95 92 126
f 88 93 94
f 93 95 94
f 94 95 106
f 93 92 95
f 95 126 107
f 28 96 33
f 28 80 96
f 33 96 99
f 81 97 96
f 96 97 99
f 97 100 99
f 33 99 98
f 35 98 101
f 98 99 101
f 35 101 102
f 99 100 101
f 101 109 102
f 100 109 101
f 38 102 104
f 38 103 147
f 38 104 103
f 102 109 104
f 104 110 103
f 89 105 97
f 97 105 100
f 100 105 108
f 94 106 105
f 105 106 108
f 106 112 108
f 95 107 106
f 107 126 540
f 107 540 543
f 107 543 545
f 107 545 612
f 107 612 614
f 106 107 112
f 107 614 112
f 100 108 109
f 104 109 111
f 108 111 109
f 104 111 110
f 110 624 103
f 108 112 111
f 112 614 113
f 113 614 616
f 110 111 113
f 110 113 624
f 111 112 113
f 113 616 624
f 51 114 83
f 52 115 114
f 114 115 116
f 85 114 116
f 115 117 116
f 54 118 115
f 115 118 117
f 54 119 118
f 118 119 121
f 117 118 120
f 118 121 120
f 120 121 130
f 57 122 119
f 119 122 121
f 57 210 122
f 122 210 223
f 122 223 267
f 121 122 132
f 121 132 130
f 122 267 132
f 132 267 280
f 132 280 273
f 91 116 123
f 91 123 92
f 123 125 92
f 116 117 123
f 117 124 123
f 123 124 125
f 124 129 125
f 92 125 126
f 125 127 126
f 126 479 474
f 126 474 540
f 126 127 482
f 126 482 479
f 125 129 127
f 127 502 501
f 127 626 502
f 127 508 482
f 127 486 508
f 127 489 486
f 127 483 489
f 127 509 483
f 127 512 509
f 127 522 512
f 127 501 522
f 117 120 124
f 120 128 124
f 124 128 129
f 129 128 130
f 120 130 128
f 129 130 131
f 127 129 131
f 127 131 626
f 131 631 626
f 131 273 631
f 130 132 131
f 131 132 273
f 147 103 624
f 508 486 484
f 483 485 489
f 485 488 489
f 488 490 489
f 488 491 492
f 492 493 488
f 504 517 499
f 510 478 509
f 509 478 483
f 511 510 509
f 511 515 514
f 511 513 516
f 511 516 515
f 511 514 510
f 612 613 614
f 613 616 614
f 504 499 523
f 148 152 149
f 148 149 150
f 149 157 150
f 149 151 157
f 149 153 151
f 148 176 152
f 149 152 153
f 150 157 159
f 151 160 157
f 151 158 160
f 151 161 158
f 157 165 159
f 157 160 165
f 158 162 160
f 160 162 166
f 151 153 161
f 158 161 162
f 162 163 166
f 162 161 185
f 162 185 163
f 159 165 167
f 160 166 165
f 165 168 167
f 165 166 168
f 167 168 331
f 331 168 170
f 166 163 169
f 168 166 169
f 163 189 169
f 168 169 170
f 170 169 171
f 169 189 171
f 148 177 176
f 152 178 153
f 153 178 186
f 152 176 179
f 152 179 178
f 176 177 561
f 176 562 179
f 178 179 563
f 178 563 194
f 176 561 562
f 177 560 561
f 153 186 161
f 161 186 185
f 163 185 187
f 185 186 193
f 178 194 186
f 185 193 187
f 187 193 195
f 163 187 189
f 171 189 441
f 189 187 192
f 189 192 191
f 187 195 192
f 186 194 193
f 193 194 196
f 193 196 195
f 194 563 196
f 195 196 586
f 195 586 198
f 192 202 191
f 192 195 198
f 192 198 202
f 191 202 201
f 211 210 209
f 211 212 210
f 210 212 213
f 212 216 213
f 211 217 212
f 213 214 210
f 213 216 218
f 213 218 214
f 223 210 214
f 223 214 215
f 214 220 215
f 214 218 220
f 220 226 215
f 212 217 216
f 216 217 219
f 216 219 218
f 219 221 218
f 219 217 231
f 219 232 221
f 218 221 220
f 220 222 226
f 220 221 222
f 221 233 222
f 215 224 223
f 215 226 224
f 224 226 225
f 225 226 227
f 224 267 223
f 224 225 267
f 226 222 227
f 225 228 267
f 225 227 228
f 227 270 228
f 222 229 227
f 222 241 229
f 227 229 270
f 229 242 271
f 231 217 230
f 219 231 232
f 231 230 235
f 221 232 233
f 222 233 240
f 231 236 232
f 235 230 234
f 231 235 236
f 232 236 237
f 232 237 233
f 235 234 345
f 233 237 238
f 233 238 240
f 237 363 238
f 222 240 241
f 240 244 241
f 240 238 243
f 240 243 244
f 241 244 245
f 241 242 229
f 241 245 242
f 245 299 242
f 243 247 244
f 238 369 243
f 243 369 246
f 244 248 245
f 243 246 247
f 245 249 299
f 244 247 248
f 245 248 249
f 249 250 299
f 250 251 300
f 254 634 274
f 254 255 636
f 254 276 255
f 255 276 258
f 643 259 263
f 255 259 643
f 255 258 259
f 259 266 263
f 259 258 317
f 259 317 266
f 265 641 263
f 265 263 264
f 266 264 263
f 266 262 264
f 228 268 267
f 228 270 268
f 268 280 267
f 270 272 268
f 268 272 269
f 229 271 270
f 270 271 272
f 271 284 272
f 271 291 284
f 634 273 274
f 254 274 277
f 275 273 279
f 274 273 275
f 275 281 277
f 274 275 277
f 276 282 316
f 254 277 276
f 276 277 282
f 268 269 280
f 283 281 279
f 269 278 280
f 269 283 278
f 269 272 283
f 283 279 278
f 278 273 280
f 279 273 278
f 275 279 281
f 284 282 281
f 277 281 282
f 284 324 282
f 272 284 283
f 283 284 281
f 271 242 291
f 242 299 291
f 299 300 291
f 300 301 292
f 301 302 292
f 284 293 324
f 284 291 292
f 284 292 294
f 284 294 293
f 300 292 291
f 302 294 292
f 294 303 293
f 293 303 315
f 324 293 310
f 293 315 310
f 250 300 299
f 251 301 300
f 302 307 294
f 251 253 301
f 253 378 301
f 301 378 302
f 309 315 450
f 315 303 450
f 302 446 307
f 307 447 303
f 322 310 314
f 314 310 313
f 313 310 315
f 307 303 294
f 309 313 315
f 258 316 318
f 322 318 316
f 258 276 316
f 258 318 317
f 266 317 321
f 318 320 317
f 317 320 321
f 266 321 262
f 323 320 318
f 322 323 318
f 322 314 323
f 324 316 282
f 322 316 324
f 322 324 310
f 167 331 333
f 331 170 332
f 331 338 333
f 331 332 338
f 332 334 339
f 170 335 332
f 170 171 335
f 171 336 335
f 171 441 336
f 332 335 334
f 334 335 341
f 335 336 341
f 333 338 340
f 332 339 338
f 338 414 340
f 338 339 414
f 339 418 414
f 334 341 339
f 339 341 418
f 418 341 419
f 336 419 341
f 336 442 419
f 235 348 236
f 236 354 237
f 344 345 234
f 235 345 348
f 236 348 354
f 237 354 363
f 344 343 345
f 346 347 343
f 343 347 345
f 345 347 348
f 346 351 347
f 346 350 351
f 347 353 348
f 347 351 353
f 350 352 351
f 352 355 351
f 351 355 353
f 352 357 355
f 348 353 354
f 353 356 354
f 353 355 356
f 357 358 355
f 355 358 356
f 357 360 358
f 354 364 363
f 354 365 364
f 354 356 361
f 356 358 362
f 358 360 409
f 356 362 361
f 358 409 362
f 354 366 365
f 354 361 366
f 238 363 369
f 363 370 369
f 363 364 370
f 364 371 370
f 364 365 372
f 365 366 394
f 369 370 373
f 364 372 371
f 365 393 372
f 370 371 374
f 371 372 384
f 372 393 400
f 246 369 373
f 370 374 373
f 371 383 374
f 371 384 383
f 372 400 384
f 376 377 380
f 252 376 382
f 252 378 253
f 376 380 382
f 252 382 378
f 379 380 377
f 379 390 380
f 380 455 382
f 387 385 391
f 379 387 390
f 387 391 390
f 380 390 455
f 390 391 392
f 390 392 455
f 365 394 393
f 393 429 401
f 393 394 429
f 393 401 400
f 386 405 385
f 386 402 406
f 401 429 402
f 385 405 391
f 391 407 392
f 386 406 405
f 402 429 406
f 391 405 407
f 392 407 408
f 361 362 410
f 362 409 411
f 361 413 366
f 362 411 410
f 361 410 413
f 410 411 415
f 340 414 415
f 414 418 417
f 410 416 413
f 414 417 415
f 410 415 416
f 415 417 416
f 417 420 416
f 418 419 421
f 418 421 417
f 417 421 420
f 419 468 421
f 420 421 439
f 421 468 439
f 366 422 394
f 366 413 422
f 394 422 432
f 394 432 429
f 406 432 423
f 428 470 433
f 405 423 407
f 406 429 432
f 405 406 423
f 407 431 408
f 408 431 430
f 430 433 470
f 407 423 431
f 430 431 433
f 413 434 422
f 413 416 434
f 416 420 434
f 422 440 432
f 423 432 440
f 428 435 472
f 423 440 431
f 431 440 433
f 428 433 436
f 422 434 440
f 434 420 437
f 434 437 440
f 428 436 435
f 420 439 437
f 440 437 436
f 467 435 438
f 439 438 437
f 435 436 438
f 436 437 438
f 433 440 436
f 336 441 442
f 302 378 446
f 378 382 446
f 382 455 446
f 307 446 459
f 307 459 447
f 309 450 449
f 303 447 450
f 450 451 449
f 448 449 451
f 447 451 450
f 457 461 460
f 454 461 457
f 392 459 455
f 446 455 459
f 447 456 451
f 451 456 457
f 447 459 456
f 456 459 458
f 454 457 456
f 454 456 458
f 448 457 460
f 448 451 457
f 466 470 471
f 465 466 464
f 454 464 461
f 454 465 464
f 454 458 465
f 458 430 465
f 392 408 459
f 458 459 408
f 458 408 430
f 465 470 466
f 465 430 470
f 442 468 419
f 467 438 469
f 439 468 469
f 439 469 438
f 428 471 470
f 428 472 471
f 472 435 473
f 467 473 435
f 474 541 540
f 541 474 475
f 474 480 475
f 541 475 542
f 475 476 542
f 480 476 475
f 542 476 544
f 476 487 477
f 544 476 477
f 485 519 491
f 479 480 474
f 479 482 481
f 479 481 480
f 481 487 480
f 481 490 487
f 480 487 476
f 481 482 484
f 482 508 484
f 481 486 489
f 481 484 486
f 481 489 490
f 485 483 478
f 519 492 491
f 519 493 492
f 487 490 488
f 477 487 488
f 477 488 495
f 485 491 488
f 520 488 493
f 520 496 488
f 520 535 496
f 488 496 495
f 496 497 495
f 496 498 497
f 496 535 498
f 501 500 522
f 503 500 501
f 500 499 517
f 524 517 504
f 505 523 499
f 505 504 523
f 503 505 500
f 500 505 499
f 502 503 501
f 502 627 503
f 503 507 505
f 503 627 507
f 524 504 505
f 506 521 524
f 506 524 505
f 506 539 521
f 506 507 630
f 506 505 507
f 506 630 527
f 485 478 519
f 519 478 510
f 519 510 514
f 519 514 515
f 512 511 509
f 512 513 511
f 512 500 518
f 512 518 513
f 518 516 513
f 518 515 516
f 524 519 515
f 518 524 515
f 518 517 524
f 520 493 519
f 520 519 521
f 520 521 535
f 524 521 519
f 512 522 500
f 518 500 517
f 506 526 525
f 506 525 539
f 536 525 529
f 526 530 525
f 530 529 525
f 506 527 526
f 526 532 530
f 527 533 526
f 526 533 532
f 532 533 639
f 532 639 528
f 530 531 529
f 530 534 531
f 531 537 529
f 530 532 534
f 532 528 534
f 521 539 535
f 498 535 538
f 539 538 535
f 539 536 538
f 536 574 538
f 536 529 577
f 537 577 529
f 539 525 536
f 542 543 540
f 541 542 540
f 542 544 543
f 544 545 543
f 544 477 546
f 544 546 545
f 546 547 545
f 477 495 546
f 495 548 546
f 546 548 547
f 547 548 602
f 495 497 548
f 548 497 608
f 497 554 608
f 608 554 609
f 609 555 610
f 610 555 611
f 611 556 617
f 609 554 555
f 611 555 556
f 498 554 497
f 498 576 554
f 554 576 555
f 555 576 556
f 617 556 557
f 582 556 576
f 582 557 556
f 179 562 564
f 179 564 563
f 561 560 623
f 562 561 568
f 562 567 564
f 557 566 618
f 582 565 557
f 557 565 566
f 561 623 568
f 562 568 567
f 564 567 600
f 566 568 621
f 560 622 623
f 623 621 568
f 565 567 566
f 565 600 567
f 566 567 568
f 571 572 579
f 573 579 572
f 573 569 579
f 498 538 576
f 538 574 576
f 575 576 574
f 536 577 574
f 577 578 574
f 537 570 577
f 570 578 577
f 570 571 578
f 575 574 578
f 575 578 579
f 571 579 578
f 575 580 576
f 576 580 581
f 582 576 581
f 575 579 569
f 575 569 580
f 580 583 584
f 581 584 585
f 563 587 196
f 196 587 586
f 563 564 587
f 587 564 600
f 591 585 584
f 586 587 601
f 586 601 592
f 592 601 585
f 573 588 569
f 588 583 569
f 588 594 583
f 202 198 593
f 202 598 201
f 198 586 592
f 202 593 598
f 198 592 593
f 201 598 597
f 589 584 583
f 589 591 584
f 594 589 583
f 589 590 591
f 593 590 598
f 591 590 593
f 591 593 592
f 594 595 589
f 595 596 590
f 595 590 589
f 590 596 598
f 597 598 596
f 591 592 585
f 582 581 599
f 580 584 581
f 580 569 583
f 581 585 599
f 582 599 565
f 565 599 600
f 599 601 600
f 587 600 601
f 585 601 599
f 548 608 602
f 603 608 609
f 604 609 610
f 606 610 611
f 607 611 617
f 602 608 603
f 603 609 604
f 605 610 606
f 604 610 605
f 606 611 607
f 607 617 615
f 617 618 615
f 615 618 619
f 617 557 618
f 618 621 619
f 619 621 620
f 618 566 621
f 620 621 623
f 620 623 622
f 626 633 625
f 626 632 633
f 625 633 635
f 625 635 628
f 627 626 625
f 502 626 627
f 627 628 507
f 627 625 628
f 629 630 628
f 629 628 635
f 629 637 630
f 507 628 630
f 626 631 632
f 632 636 633
f 633 636 635
f 632 631 273
f 632 273 634
f 632 634 636
f 254 636 634
f 255 629 635
f 255 635 636
f 255 643 629
f 527 630 637
f 527 637 638
f 629 643 637
f 643 641 637
f 637 641 638
f 527 638 533
f 533 638 640
f 533 640 639
f 638 642 640
f 638 641 642
f 265 642 641
f 643 263 641
f 135 134 207
f 147 133 135
f 147 137 133
f 147 135 412
f 147 494 137
f 147 612 494
f 342 204 203
f 342 205 204
f 349 206 205
f 349 207 206
f 342 203 234
f 412 135 207
f 342 349 205
f 349 359 207
f 359 412 207
f 612 545 494
f 147 613 612
f 147 616 613
f 147 624 616
f 145 133 137
f 146 135 133
f 325 134 135
f 325 207 134
f 145 146 133
f 145 137 172
f 145 150 146
f 145 148 150
f 145 172 148
f 148 172 173
f 146 154 135
f 154 155 135
f 155 326 135
f 146 159 154
f 146 150 159
f 154 333 155
f 154 159 167
f 154 167 333
f 172 137 494
f 172 549 173
f 172 494 549
f 173 549 550
f 148 173 174
f 148 174 175
f 148 175 177
f 173 551 174
f 174 553 175
f 173 550 551
f 174 551 552
f 174 552 553
f 175 553 558
f 175 558 559
f 175 559 177
f 177 559 560
f 343 203 204
f 346 204 205
f 352 205 206
f 357 206 207
f 344 234 203
f 325 135 326
f 325 409 207
f 325 326 411
f 155 340 326
f 155 333 340
f 326 340 415
f 344 203 343
f 346 343 204
f 346 205 350
f 350 205 352
f 352 206 357
f 357 207 360
f 360 207 409
f 325 411 409
f 326 415 411
f 549 494 545
f 547 549 545
f 547 550 549
f 547 602 550
f 550 603 551
f 551 604 552
f 552 606 553
f 553 607 558
f 550 602 603
f 551 603 604
f 552 605 606
f 552 604 605
f 553 606 607
f 558 607 615
f 558 615 619
f 558 619 559
f 559 619 620
f 559 620 560
f 560 620 622
f 136 140 208
f 136 180 138
f 136 138 139
f 136 139 140
f 138 144 139
f 140 139 143
f 138 182 141
f 139 144 142
f 138 141 144
f 139 142 143
f 140 143 257
f 143 142 639
f 142 144 534
f 136 156 180
f 136 328 156
f 156 330 164
f 156 181 180
f 156 164 181
f 138 180 182
f 180 183 182
f 180 181 183
f 181 184 183
f 181 164 188
f 164 189 188
f 164 441 189
f 189 190 188
f 189 191 190
f 181 188 184
f 188 197 184
f 188 190 197
f 190 191 200
f 190 199 197
f 190 200 199
f 191 201 200
f 136 208 327
f 208 239 367
f 208 256 239
f 239 285 246
f 239 246 373
f 246 285 247
f 247 286 248
f 248 287 249
f 249 295 250
f 250 297 251
f 252 253 305
f 252 304 376
f 140 256 208
f 140 257 256
f 256 257 260
f 239 256 285
f 256 260 285
f 143 640 257
f 257 640 642
f 257 642 260
f 286 260 261
f 319 261 265
f 260 642 261
f 265 261 642
f 319 265 264
f 247 285 286
f 285 260 286
f 286 261 287
f 296 319 289
f 296 287 319
f 296 289 290
f 290 289 321
f 290 320 288
f 288 323 311
f 311 323 314
f 248 286 287
f 249 287 296
f 249 296 295
f 295 296 290
f 295 288 297
f 297 311 298
f 250 295 297
f 251 298 253
f 251 297 298
f 253 298 305
f 252 305 304
f 304 306 444
f 304 305 308
f 304 308 306
f 298 312 305
f 305 312 308
f 308 312 313
f 308 313 309
f 306 308 309
f 295 290 288
f 297 288 311
f 311 314 312
f 298 311 312
f 314 313 312
f 287 261 319
f 319 264 289
f 289 262 321
f 290 321 320
f 289 264 262
f 288 320 323
f 136 327 328
f 156 328 330
f 208 367 327
f 327 367 368
f 327 368 329
f 327 329 328
f 328 329 337
f 328 337 330
f 164 330 441
f 330 337 442
f 239 373 367
f 367 374 368
f 368 396 329
f 367 373 374
f 368 374 383
f 376 444 377
f 304 444 376
f 379 444 381
f 379 377 444
f 379 381 387
f 375 387 381
f 375 385 387
f 375 388 385
f 375 443 388
f 385 388 389
f 386 385 389
f 386 389 403
f 388 453 389
f 368 383 396
f 383 395 396
f 384 397 395
f 397 400 398
f 398 404 399
f 401 402 404
f 383 384 395
f 384 400 397
f 386 403 402
f 398 400 401
f 398 401 404
f 402 403 404
f 389 463 403
f 403 462 404
f 403 463 462
f 399 404 462
f 329 426 337
f 329 396 426
f 337 426 468
f 395 397 424
f 395 427 396
f 397 398 425
f 398 399 425
f 395 424 427
f 397 425 424
f 396 427 426
f 424 425 473
f 399 472 425
f 469 426 427
f 467 427 424
f 425 472 473
f 467 424 473
f 330 442 441
f 306 381 444
f 306 445 381
f 375 381 445
f 375 445 443
f 443 445 449
f 306 309 445
f 309 449 445
f 443 449 448
f 388 443 452
f 443 448 452
f 448 460 452
f 388 452 453
f 452 460 461
f 452 461 453
f 399 462 471
f 463 466 462
f 389 453 463
f 453 464 463
f 463 464 466
f 453 461 464
f 462 466 471
f 337 468 442
f 468 426 469
f 399 471 472
f 467 469 427
f 141 570 537
f 141 531 144
f 144 531 534
f 142 534 528
f 142 528 639
f 141 537 531
f 141 182 570
f 182 183 571
f 182 571 570
f 183 572 571
f 183 184 572
f 184 573 572
f 184 197 573
f 573 197 588
f 197 199 588
f 199 594 588
f 199 200 595
f 200 201 596
f 199 595 594
f 200 596 595
f 201 597 596
f 143 639 640
