# MAAS exact compiled indexed mesh
# program_hash e7f65a927033d76f7a8708fcc3713121181b4edc07c45adf47c58346557e36f7
# geometry_hash 333f2c96b1a35dcee027a7cd878139ba0cd156f089960fba8364c49988eab894
v -11.85818989 -7.81562516 0
v -5.45476735 -7.81562516 0
v -11.85818989 -7.81562516 16.5
v -5.45476735 -7.81562516 16.5
v -11.85818989 7.81562516 0
v -5.45476735 3.59518757 0
v -11.85818989 7.81562516 16.5
v -5.45476735 3.59518757 16.5
v 5.45476735 -7.81562516 0
v 11.85818989 -7.81562516 0
v 6.16625874 -6.23799432 5.2041
v 11.85818989 -6.23799432 5.2041
v 6.16625874 -0.46693671 5.2041
v 11.85818989 -0.46693671 5.2041
v 5.45476735 -7.81562516 16.5
v 6.16625874 -6.23799432 11.2959
v 11.85818989 -6.23799432 11.2959
v 11.85818989 -7.81562516 16.5
v 6.16625874 -0.46693671 11.2959
v 11.85818989 -0.46693671 11.2959
v 5.45476735 3.59518757 0
v 11.85818989 7.81562516 0
v 5.45476735 3.59518757 16.5
v 11.85818989 7.81562516 16.5
f 1 6 2
f 1 2 4
f 1 4 3
f 3 4 8
f 1 3 7
f 1 5 6
f 1 7 5
f 5 22 6
f 3 8 7
f 5 7 24
f 7 8 23
f 10 9 21
f 10 14 12
f 10 18 9
f 10 12 17
f 10 22 14
f 18 15 9
f 10 17 18
f 18 23 15
f 17 20 18
f 18 20 24
f 22 21 6
f 5 24 22
f 10 21 22
f 14 22 24
f 7 23 24
f 14 24 20
f 18 24 23
f 11 12 13
f 11 17 12
f 11 13 19
f 13 14 19
f 12 14 13
f 11 16 17
f 11 19 16
f 16 20 17
f 16 19 20
f 14 20 19
f 2 6 4
f 4 6 8
f 8 6 23
f 15 21 9
f 15 23 21
f 6 21 23
