# MAAS exact compiled indexed mesh
# program_hash 4ad88b468e156572e98d26c0207c8b07f0d0fc9a06362c02d7f5a872aca55072
# geometry_hash a455134482cfaa750cf0fdb691266d42beef92d98b4b53587e8f18efcd56a07c
v -14.86166044 -11.30547741 0
v -14.86166044 -5.99774153 0
v -10.1657118 -5.76370212 0
v -14.86166044 -5.99774153 5.7924736
v -10.08469815 -4.72388493 0
v -14.86166044 -4.72388493 5.7924736
v -10.08469815 -4.72388493 5.7924736
v -14.86166044 -11.30547741 15.44659626
v -14.86166044 -4.72388493 15.44659626
v -7.96160381 0.9023151 0
v -10.08469815 5.14850379 0
v -7.96160381 5.14850379 0
v -13.80011326 5.14850379 5.7924736
v -7.96160381 0.9023151 4.82706133
v -7.96160381 5.14850379 4.82706133
v -10.08469815 5.14850379 5.7924736
v -14.86166044 7.80237173 0
v -13.80011326 7.80237173 0
v -13.80011326 11.30547741 0
v -7.96160381 7.24097659 0
v -14.86166044 7.80237173 5.7924736
v -13.80011326 7.80237173 5.7924736
v -13.80011326 5.14850379 10.29773084
v -13.80011326 11.30547741 10.29773084
v 14.86166044 -11.30547741 0
v 14.86166044 -4.72388493 0
v 14.86166044 -11.30547741 15.44659626
v 14.86166044 -4.72388493 15.44659626
v 3.71541511 0.9023151 0
v 3.71541511 5.14850379 0
v 3.71541511 0.9023151 4.82706133
v 3.71541511 5.14850379 4.82706133
v 3.71541511 6.11818631 0
v 13.80011326 5.14850379 0
v 13.80011326 11.30547741 0
v 13.80011326 5.14850379 10.29773084
v 13.80011326 11.30547741 10.29773084
f 1 2 3
f 1 4 2
f 1 9 4
f 1 3 25
f 1 25 8
f 3 5 26
f 5 7 26
f 1 8 9
f 4 9 6
f 8 27 9
f 6 28 7
f 6 9 28
f 3 26 25
f 7 28 26
f 25 26 27
f 8 25 27
f 9 27 28
f 26 28 27
f 11 12 15
f 11 15 16
f 13 16 23
f 18 19 20
f 18 22 19
f 11 18 20
f 11 20 12
f 13 23 22
f 19 22 24
f 16 15 32
f 16 32 23
f 19 33 20
f 19 24 37
f 22 23 24
f 23 36 24
f 34 30 33
f 36 32 30
f 34 33 19
f 19 35 34
f 19 37 35
f 34 36 30
f 34 35 36
f 35 37 36
f 23 32 36
f 24 36 37
f 2 17 3
f 3 11 5
f 5 11 7
f 2 4 6
f 2 6 21
f 6 7 16
f 3 18 11
f 3 17 18
f 2 21 17
f 6 13 21
f 6 16 13
f 7 11 16
f 17 22 18
f 17 21 22
f 13 22 21
f 10 14 15
f 10 15 12
f 10 29 14
f 10 12 29
f 12 20 29
f 14 29 31
f 29 20 30
f 14 32 15
f 14 31 32
f 20 33 30
f 29 30 31
f 31 30 32
