# MAAS exact compiled indexed mesh
# program_hash 47cb9a09d306cc2875ea73ec4a18690050a725a3b1bc2f0eafc7a0b9944d3829
# geometry_hash c623176c5ad3536b115a055455446a7746a74bb24f86a4eb0dd86733849eb9d9
v -9.87742476 -11.84413952 0
v -13.96878805 -9.67069942 0
v -15.45436182 -7.56545818 3.43613188
v -10.92788404 -10.69917356 3.43613188
v -19.08171934 -3.53972166 0
v -17.10820153 -6.83821714 0
v -18.19635769 -3.76486338 3.30337277
v -5.11293129 -13.21042108 0
v -5.438136 -12.5974784 3.30337277
v -11.40546769 -7.89609301 6.92820323
v -15.45436182 -3.91616932 6.63809706
v -10.92788404 -3.91616932 9.38768689
v -5.65668902 -10.69917356 6.63809706
v -5.65668902 -7.56545818 9.38768689
v -5.438136 -3.76486338 11.05330071
v -19.75484952 0 0
v -19.08171934 3.53972166 0
v -17.10820153 6.83821714 0
v -19.08171934 0 3.10582854
v -18.19635769 3.76486338 3.30337277
v -13.96878805 9.67069942 0
v -9.87742476 11.84413952 0
v -15.45436182 7.56545818 3.43613188
v -10.92788404 10.69917356 3.43613188
v -5.11293129 13.21042108 0
v -5.438136 12.5974784 3.30337277
v -17.10820153 0 6
v -15.45436182 3.91616932 6.63809706
v -13.96878805 0 8.48528137
v -9.87742476 0 10.39230485
v -10.92788404 3.91616932 9.38768689
v -11.40546769 7.89609301 6.92820323
v -5.11293129 0 11.59110992
v -5.438136 3.76486338 11.05330071
v -5.65668902 10.69917356 6.63809706
v -5.65668902 7.56545818 9.38768689
v 0 -13.67643428 0
v 5.11293129 -13.21042108 0
v 0 -13.21042108 3.10582854
v 5.438136 -12.5974784 3.30337277
v 9.87742476 -11.84413952 0
v 13.96878805 -9.67069942 0
v 17.10820153 -6.83821714 0
v 10.92788404 -10.69917356 3.43613188
v 15.45436182 -7.56545818 3.43613188
v 19.08171934 -3.53972166 0
v 18.19635769 -3.76486338 3.30337277
v 0 -11.84413952 6
v 0 -9.67069942 8.48528137
v 5.65668902 -10.69917356 6.63809706
v 0 -6.83821714 10.39230485
v 5.65668902 -7.56545818 9.38768689
v 0 -3.53972166 11.59110992
v 5.438136 -3.76486338 11.05330071
v 11.40546769 -7.89609301 6.92820323
v 15.45436182 -3.91616932 6.63809706
v 10.92788404 -3.91616932 9.38768689
v 0 13.67643428 0
v 5.11293129 13.21042108 0
v 0 13.21042108 3.10582854
v 5.438136 12.5974784 3.30337277
v 19.75484952 0 0
v 19.08171934 3.53972166 0
v 19.08171934 0 3.10582854
v 18.19635769 3.76486338 3.30337277
v 13.96878805 9.67069942 0
v 9.87742476 11.84413952 0
v 17.10820153 6.83821714 0
v 10.92788404 10.69917356 3.43613188
v 15.45436182 7.56545818 3.43613188
v 0 0 12
v 0 6.83821714 10.39230485
v 0 3.53972166 11.59110992
v 5.11293129 0 11.59110992
v 5.438136 3.76486338 11.05330071
v 0 9.67069942 8.48528137
v 0 11.84413952 6
v 5.65668902 10.69917356 6.63809706
v 5.65668902 7.56545818 9.38768689
v 13.96878805 0 8.48528137
v 17.10820153 0 6
v 15.45436182 3.91616932 6.63809706
v 9.87742476 0 10.39230485
v 10.92788404 3.91616932 9.38768689
v 11.40546769 7.89609301 6.92820323
f 3 6 2
f 1 4 2
f 3 2 4
f 3 4 10
f 5 6 7
f 3 7 6
f 5 19 16
f 5 7 19
f 3 11 7
f 7 27 19
f 7 11 27
f 3 10 11
f 1 8 9
f 1 9 4
f 8 37 39
f 8 39 9
f 4 9 13
f 4 13 10
f 9 39 48
f 9 48 13
f 11 29 27
f 10 12 11
f 11 12 29
f 12 30 29
f 10 13 14
f 13 48 49
f 13 49 14
f 14 49 51
f 10 14 12
f 12 14 15
f 12 15 30
f 15 33 30
f 14 51 15
f 15 51 53
f 15 53 33
f 33 53 71
f 16 19 17
f 19 20 17
f 17 20 18
f 20 23 18
f 19 27 20
f 20 27 28
f 20 28 23
f 28 32 23
f 18 23 21
f 23 24 21
f 21 24 22
f 23 32 24
f 22 26 25
f 22 24 26
f 25 60 58
f 25 26 60
f 24 32 35
f 24 35 26
f 26 77 60
f 26 35 77
f 27 29 28
f 28 29 31
f 28 31 32
f 29 30 31
f 31 36 32
f 30 34 31
f 30 33 34
f 31 34 36
f 33 73 34
f 33 71 73
f 34 72 36
f 34 73 72
f 32 36 35
f 36 76 35
f 35 76 77
f 36 72 76
f 37 38 39
f 39 38 40
f 38 41 40
f 40 41 44
f 39 40 48
f 40 50 48
f 40 44 50
f 50 44 55
f 41 42 44
f 44 42 45
f 42 43 45
f 44 45 55
f 43 46 47
f 43 47 45
f 46 62 64
f 46 64 47
f 45 56 55
f 45 47 56
f 47 64 81
f 47 81 56
f 48 50 49
f 49 50 52
f 50 55 52
f 49 52 51
f 52 55 57
f 51 52 54
f 51 54 53
f 53 74 71
f 53 54 74
f 52 57 54
f 54 57 83
f 54 83 74
f 55 56 57
f 57 56 80
f 56 81 80
f 57 80 83
f 58 60 59
f 60 61 59
f 59 61 67
f 61 69 67
f 60 77 61
f 61 77 78
f 78 85 69
f 61 78 69
f 62 63 64
f 64 63 65
f 63 68 65
f 65 68 70
f 82 70 85
f 64 65 81
f 65 82 81
f 65 70 82
f 66 69 70
f 66 67 69
f 66 70 68
f 69 85 70
f 79 84 85
f 71 74 73
f 73 74 75
f 75 79 72
f 73 75 72
f 75 83 84
f 74 83 75
f 75 84 79
f 76 79 78
f 76 78 77
f 79 85 78
f 76 72 79
f 80 82 84
f 84 82 85
f 80 81 82
f 80 84 83
f 5 16 17
f 6 5 18
f 2 6 18
f 2 21 1
f 1 25 8
f 8 25 37
f 5 17 18
f 2 18 21
f 1 21 22
f 1 22 25
f 37 25 58
f 37 59 38
f 38 59 41
f 41 67 42
f 42 66 43
f 43 68 46
f 37 58 59
f 41 59 67
f 42 67 66
f 43 66 68
f 46 63 62
f 46 68 63
