# MAAS exact compiled indexed mesh
# program_hash 7f38798f40c26123651c756c55833d4bb50a98aec34b4f91a9f2b020a0987920
# geometry_hash 123e441c6e497d7c6cd0b2355ee7453acd95e89545a585ba535612c2ee14b8f5
v -9.34848155 -9.3452611 0
v -2.72354728 -9.3452611 7.095
v -2.72354728 -0.30589692 7.095
v -2.72354728 -0.27095072 6.99856631
v -9.34848155 -9.3452611 16.5
v -2.72354728 -9.3452611 9.405
v -2.72354728 -1.06709077 9.19550686
v -2.72354728 -0.34799143 9.405
v -9.34848155 9.0573341 0
v -2.72354728 0.06006443 7.095
v -2.72354728 0.96019221 7.095
v -2.72354728 0.96019221 7.35723163
v -9.34848155 9.0573341 16.5
v -2.72354728 9.0573341 9.71614862
v -2.72354728 9.0573341 10.62457407
v -2.72354728 8.55895867 11.99983609
v 9.05411364 -9.3452611 0
v 9.05411364 -9.3452611 7.095
v 9.05411364 -0.30589692 7.095
v 9.05411364 -0.27095072 6.99856631
v 9.05411364 -9.3452611 9.405
v 9.05411364 -9.3452611 16.5
v 9.05411364 -0.34799143 9.405
v 4.45346484 4.4566853 0
v 4.45346484 4.4566853 5.61
v 4.45346484 9.0573341 0
v 4.45346484 9.0573341 5.61
v 5.68068148 4.477303 0
v 6.90651298 4.53913282 0
v 5.68068148 4.477303 2.09396372
v 6.90651298 4.53913282 2.09396372
v 8.12957573 4.64210499 0
v 9.05411364 4.4566853 0
v 8.12957573 4.64210499 2.09396372
v 5.68068148 4.477303 4.18792744
v 5.68068148 4.477303 5.61
v 6.90651298 4.53913282 4.18792744
v 6.90651298 4.53913282 5.61
v 9.05411364 0.06006443 7.095
v 9.05411364 0.96019221 7.095
v 9.05411364 0.96019221 7.35723163
v 8.12957573 4.64210499 4.18792744
v 8.12957573 4.64210499 5.61
v 5.64204608 5.62681611 0
v 5.60341067 6.77632922 0
v 6.82928577 5.6866994 0
v 6.75205857 6.83426597 0
v 5.56477526 7.92584233 0
v 5.52613986 9.07535544 0
v 6.67483136 7.98183255 0
v 6.59760415 9.12939912 0
v 5.52613986 9.07535544 2.42903716
v 6.59760415 9.12939912 2.42903716
v 8.01384389 5.78642978 0
v 7.89811206 6.93075457 0
v 9.34848929 4.78610327 0
v 9.19438345 5.92589469 0
v 9.34848929 4.78610327 2.09396372
v 9.19438345 5.92589469 2.42903716
v 7.78238022 8.07507936 0
v 7.66664838 9.21940415 0
v 9.0402776 7.06568611 0
v 8.73206591 9.34526894 0
v 8.88617176 8.20547752 0
v 7.66664838 9.21940415 2.42903716
v 9.0402776 7.06568611 2.42903716
v 8.73206591 9.34526894 2.42903716
v 8.88617176 8.20547752 2.42903716
v 5.02814071 4.74364516 5.61
v 6.11128212 4.76184234 5.61
v 5.02814071 4.74364516 6.28189116
v 5.02814071 5.75877831 6.6169646
v 5.02814071 6.77391147 6.95203803
v 6.11128212 4.76184234 6.28189116
v 5.52613986 9.07535544 4.85807431
v 5.02814071 8.80417779 5.61
v 5.52613986 9.07535544 5.61
v 6.59760415 9.12939912 4.85807431
v 5.97488368 8.82008342 5.61
v 6.59760415 9.12939912 5.61
v 6.92055807 8.86778238 5.61
v 5.02814071 7.78904463 7.28711147
v 5.02814071 8.80417779 7.28711147
v 5.97488368 8.82008342 7.28711147
v 6.92055807 8.86778238 7.28711147
v 7.19320099 4.81641334 5.61
v 9.34848929 4.78610327 4.18792744
v 8.27267618 4.90729658 5.61
v 9.34848929 4.78610327 5.61
v 9.31544745 5.03048601 5.39
v 9.34848929 5.03438946 5.39
v 9.31544745 5.03048601 5.61
v 9.19438345 5.92589469 4.52300088
v 7.19320099 4.81641334 6.28189116
v 8.27267618 4.90729658 6.28189116
v 9.34848929 5.03438946 6.28189116
v 9.21247547 6.04036937 6.6169646
v 7.66664838 9.21940415 4.85807431
v 7.8640965 8.94722082 5.61
v 7.66664838 9.21940415 5.61
v 9.0402776 7.06568611 4.85807431
v 8.73206591 9.34526894 4.85807431
v 8.88617176 8.20547752 4.85807431
v 8.73206591 9.34526894 5.61
v 8.77139217 9.05440563 5.39
v 8.80443401 9.05830908 5.39
v 8.77139217 9.05440563 5.61
v 7.8640965 8.94722082 7.28711147
v 9.07646165 7.04634927 6.95203803
v 8.94044783 8.05232917 7.28711147
v 8.80443401 9.05830908 7.28711147
v 3.80549924 3.89114857 8.75443636
v 4.45346484 4.4566853 8.37585488
v 3.80549924 3.89114857 10.63997643
v 4.45346484 4.4566853 12.85502887
v 4.45346484 4.4566853 16.5
v 3.80549924 4.85779754 8.75443636
v 3.80549924 4.85779754 10.92158749
v 4.45346484 5.18135405 11.01584827
v 4.45346484 9.0573341 9.71614862
v 4.45346484 9.0573341 10.62457407
v 4.45346484 8.55895867 11.99983609
v 4.45346484 5.18135405 12.85502887
v 4.45346484 9.0573341 16.5
v 4.77214821 3.89114857 8.75443636
v 5.67610632 4.34253291 8.75443636
v 4.77214821 3.89114857 10.63997643
v 5.67610632 4.34253291 10.77147693
v 5.67610632 4.4566853 10.80473262
v 9.05411364 4.4566853 8.37585488
v 9.05411364 4.4566853 10.80473262
v 5.67610632 4.4566853 12.85502887
v 9.05411364 4.4566853 16.5
v 5.02814071 4.74364516 8.37585488
v 4.70945734 5.30918189 8.75443636
v 5.02814071 5.75877831 8.71092831
v 5.67610632 5.30918189 8.75443636
v 5.02814071 6.77391147 9.04600175
v 6.11128212 4.76184234 8.37585488
v 6.07718251 5.77640261 8.71092831
v 6.0430829 6.79096288 9.04600175
v 5.02814071 5.30918189 10.99140402
v 5.02814071 5.30918189 11.11
v 5.02814071 5.64881178 11.10350848
v 5.02814071 5.66847837 11.11
v 5.67610632 4.75453122 10.80473262
v 5.67610632 4.75453122 11.11
v 5.67610632 5.03183631 10.89
v 5.67610632 5.03183631 10.89626501
v 5.67610632 5.25579968 10.89
v 5.67610632 5.03183631 11.11
v 5.60281658 5.30918189 10.91079246
v 5.67610632 5.30918189 10.91032369
v 5.60281658 5.30918189 10.98821719
v 5.60281658 5.30918189 11.11
v 5.60281658 5.67813314 11.11
v 5.60281658 5.81536991 11.10350848
v 5.60281658 6.60013481 11.40228435
v 6.11128212 4.76184234 10.80473262
v 6.11128212 4.76184234 11.11
v 6.10196709 5.03899093 10.89626501
v 6.54188276 5.04638168 10.89
v 6.54188276 5.04638168 10.89138596
v 6.54188276 5.04638168 11.11
v 6.53435954 5.27021866 10.89
v 6.51552151 5.8307037 11.10350848
v 6.54188276 5.04638168 12.22854946
v 6.48916026 6.61502572 11.40228435
v 5.02814071 7.78904463 9.38107519
v 5.02814071 8.80417779 9.71614862
v 6.00898329 7.80552315 9.38107519
v 6.9887188 7.85494012 9.38107519
v 5.97488368 8.82008342 9.71614862
v 6.92055807 8.86778238 9.71614862
v 5.60281658 7.38489971 11.70106022
v 5.60281658 8.1696646 11.99983609
v 5.60281658 8.45568226 10.96838957
v 5.60281658 8.36034304 11.31220508
v 5.60281658 8.4774195 10.89
v 5.60281658 8.55102148 10.89
v 5.60281658 8.26500382 11.65602058
v 5.60281658 8.55102148 12.09343055
v 6.46279901 7.39934773 11.70106022
v 6.42609989 8.49125097 10.89
v 6.42362751 8.56481141 10.89
v 6.42683007 8.46952599 10.96838957
v 6.43003264 8.37424058 11.31220508
v 6.42362751 8.56481141 12.09343055
v 6.4332352 8.27895517 11.65602058
v 6.43643777 8.18366975 11.99983609
v 7.19320099 4.81641334 8.37585488
v 7.12504026 5.8292556 8.71092831
v 7.05687953 6.84209786 9.04600175
v 8.17053126 5.91727764 8.71092831
v 8.06838634 6.9272587 9.04600175
v 8.27267618 4.90729658 8.37585488
v 9.34848929 5.03438946 8.37585488
v 9.21247547 6.04036937 8.71092831
v 7.19320099 4.81641334 10.80473262
v 7.19320099 4.81641334 11.11
v 7.17557395 5.07834449 10.89138596
v 7.30039687 5.08464044 10.89
v 7.47988901 5.09369386 11.11
v 7.46485108 5.3171518 10.89
v 7.47988901 5.09369386 12.22854946
v 7.42719627 5.87668774 11.10350848
v 7.37450353 6.65968163 11.40228435
v 8.27267618 4.90729658 10.80473262
v 8.27267618 4.90729658 11.11
v 8.24668299 5.16431021 10.89
v 8.41577664 5.17248816 11.11
v 8.39324095 5.39531485 10.89
v 9.34848929 5.03438946 10.80473262
v 9.34848929 5.03438946 11.11
v 9.31387735 5.29038491 10.89
v 9.31544745 5.2787722 10.89
v 9.34848929 5.28267565 10.89
v 9.31848129 5.50461959 10.89
v 9.31544745 5.2787722 11.11
v 8.41577664 5.17248816 12.22854946
v 9.34848929 5.28267565 12.22854946
v 8.33681187 5.95327015 11.10350848
v 9.24334164 6.06036448 11.10350848
v 8.25784711 6.73405214 11.40228435
v 9.2305675 6.15484404 12.22854946
v 9.13819398 6.83805331 11.40228435
v 7.96624142 7.93723976 9.38107519
v 7.8640965 8.94722082 9.71614862
v 9.07646165 7.04634927 9.04600175
v 8.94044783 8.05232917 9.38107519
v 8.80443401 9.05830908 9.71614862
v 7.32181079 7.44267551 11.70106022
v 8.17888235 7.51483412 11.70106022
v 7.25631502 8.41591751 11.31220508
v 7.24845396 8.53272976 10.89
v 7.24351199 8.60616564 10.89
v 7.2499135 8.51104157 10.96838957
v 8.06895062 8.60180906 10.89
v 8.07113787 8.58018214 10.96838957
v 8.06154463 8.67503748 10.89
v 8.08073111 8.4853268 11.31220508
v 7.26271653 8.32079345 11.65602058
v 7.26911805 8.22566939 11.99983609
v 7.24351199 8.60616564 12.09343055
v 8.09032435 8.39047145 11.65602058
v 8.09991759 8.29561611 11.99983609
v 8.06154463 8.67503748 12.09343055
v 9.03304633 7.61574214 11.70106022
v 8.88666377 8.6984109 10.89
v 8.88957626 8.67686966 10.96838957
v 8.9023504 8.58239009 11.31220508
v 8.87680212 8.77134922 10.89
v 8.91512453 8.48791053 11.65602058
v 8.92789867 8.39343096 11.99983609
v 8.87680212 8.77134922 12.09343055
v 4.70945734 5.30918189 12.85502887
v 5.60281658 5.03060502 12.85502887
v 5.67610632 5.03183631 12.85502887
v 5.60281658 5.30918189 12.85502887
v 5.60281658 5.81536991 12.52732533
v 5.60281658 5.03060502 13.65236631
v 5.60281658 5.81536991 13.95114218
v 5.60281658 6.60013481 12.8261012
v 5.60281658 6.60013481 14.24991804
v 6.54188276 5.04638168 13.65236631
v 5.60281658 5.03060502 15.07618315
v 5.60281658 5.81536991 15.37495902
v 5.60281658 5.03060502 16.5
v 5.60281658 6.69547403 15.37495902
v 5.60281658 5.91070913 16.5
v 5.60281658 6.79081325 16.5
v 6.54188276 5.04638168 15.07618315
v 6.54188276 5.04638168 16.5
v 6.51231894 5.92598911 16.5
v 6.48275513 6.80559654 16.5
v 5.60281658 7.38489971 13.12487707
v 5.60281658 7.48023892 14.24991804
v 5.60281658 8.45568226 12.43724605
v 5.60281658 8.36034304 12.78106156
v 5.60281658 8.26500382 13.12487707
v 5.60281658 8.45568226 13.90610254
v 5.60281658 8.55102148 13.56228703
v 5.60281658 8.36034304 14.24991804
v 6.42362751 8.56481141 13.56228703
v 5.60281658 7.57557814 15.37495902
v 5.60281658 7.67091736 16.5
v 5.60281658 8.45568226 15.37495902
v 5.60281658 8.55102148 15.03114352
v 5.60281658 8.55102148 16.5
v 6.45319132 7.68520398 16.5
v 6.42362751 8.56481141 15.03114352
v 6.42362751 8.56481141 16.5
v 7.47988901 5.09369386 13.65236631
v 8.41577664 5.17248816 13.65236631
v 9.34848929 5.28267565 13.65236631
v 9.12541984 6.93253287 12.52732533
v 9.2305675 6.15484404 13.65236631
v 7.47988901 5.09369386 15.07618315
v 7.47988901 5.09369386 16.5
v 7.42079476 5.97181181 16.5
v 7.3617005 6.84992975 16.5
v 8.41577664 5.17248816 15.07618315
v 9.34848929 5.28267565 15.07618315
v 8.41577664 5.17248816 16.5
v 9.34848929 5.28267565 16.5
v 9.2305675 6.15484404 15.07618315
v 8.32721863 6.04812549 16.5
v 8.23866063 6.92376282 16.5
v 9.2305675 6.15484404 16.5
v 7.24351199 8.60616564 13.56228703
v 8.06154463 8.67503748 13.56228703
v 9.02027219 7.7102217 12.8261012
v 9.11264571 7.02701243 13.65236631
v 9.00749805 7.80470126 13.95114218
v 8.88957626 8.67686966 12.43724605
v 8.9023504 8.58239009 12.78106156
v 8.91512453 8.48791053 13.12487707
v 8.88957626 8.67686966 13.90610254
v 8.9023504 8.58239009 14.24991804
v 8.87680212 8.77134922 13.56228703
v 7.30260624 7.72804769 16.5
v 8.15010263 7.79940015 16.5
v 7.24351199 8.60616564 15.03114352
v 8.06154463 8.67503748 15.03114352
v 7.24351199 8.60616564 16.5
v 8.06154463 8.67503748 16.5
v 9.11264571 7.02701243 15.07618315
v 8.99472391 7.89918083 15.07618315
v 9.11264571 7.02701243 16.5
v 8.99472391 7.89918083 16.5
v 8.88957626 8.67686966 15.37495902
v 8.87680212 8.77134922 15.03114352
v 8.87680212 8.77134922 16.5
f 180 188 185
f 185 244 236
f 180 182 188
f 185 188 244
f 217 218 221
f 218 225 221
f 218 223 225
f 223 296 225
f 223 226 296
f 236 247 240
f 236 244 247
f 226 312 296
f 226 248 312
f 248 254 317
f 240 255 252
f 249 252 250
f 250 252 255
f 240 247 255
f 250 315 251
f 250 255 315
f 253 317 254
f 251 316 253
f 251 315 316
f 268 273 270
f 270 273 274
f 273 299 274
f 270 274 271
f 271 274 275
f 274 300 275
f 182 282 188
f 188 282 284
f 188 284 244
f 244 284 310
f 282 288 284
f 284 291 310
f 271 275 286
f 275 290 286
f 286 290 289
f 275 301 290
f 290 321 292
f 284 288 291
f 291 323 310
f 288 289 291
f 289 290 292
f 289 292 291
f 291 292 323
f 292 321 325
f 292 325 323
f 221 297 295
f 221 225 297
f 225 296 313
f 225 313 297
f 295 297 306
f 297 313 327
f 274 299 300
f 299 304 300
f 300 304 307
f 275 300 301
f 300 307 301
f 301 307 308
f 295 306 303
f 304 305 307
f 305 309 307
f 303 309 305
f 297 327 306
f 307 309 308
f 303 306 309
f 306 327 329
f 308 309 329
f 306 329 309
f 244 310 247
f 247 310 311
f 310 323 311
f 296 312 314
f 296 314 313
f 248 317 312
f 313 314 328
f 312 319 314
f 247 311 255
f 255 311 320
f 253 316 317
f 255 320 315
f 312 317 319
f 315 318 316
f 316 319 317
f 315 320 318
f 311 324 320
f 316 318 319
f 318 320 332
f 290 301 321
f 321 322 325
f 301 308 321
f 308 322 321
f 311 323 324
f 323 325 324
f 322 326 325
f 324 325 326
f 313 328 327
f 314 331 328
f 308 329 322
f 322 329 330
f 322 330 326
f 327 330 329
f 327 328 330
f 320 324 332
f 314 319 331
f 318 331 319
f 318 332 331
f 324 326 332
f 326 330 333
f 326 333 332
f 328 331 333
f 331 332 333
f 328 333 330
f 213 216 214
f 213 215 216
f 214 216 219
f 1 2 6
f 1 17 2
f 1 9 17
f 1 6 5
f 1 5 13
f 5 6 21
f 5 22 13
f 1 13 9
f 9 14 26
f 9 26 24
f 9 13 14
f 13 15 14
f 13 124 15
f 13 116 124
f 2 17 18
f 17 20 18
f 17 24 33
f 17 33 40
f 17 39 20
f 17 40 39
f 18 20 19
f 5 21 22
f 21 23 22
f 22 23 133
f 22 133 116
f 9 24 17
f 14 27 26
f 40 130 41
f 33 130 40
f 13 22 116
f 14 120 27
f 15 124 121
f 23 131 133
f 24 45 44
f 24 44 28
f 24 48 45
f 28 44 29
f 29 44 46
f 44 45 46
f 45 47 46
f 24 26 48
f 26 49 48
f 26 52 49
f 45 48 47
f 47 48 50
f 48 49 50
f 49 51 50
f 49 52 51
f 51 53 61
f 51 52 53
f 26 75 52
f 26 77 75
f 26 27 77
f 52 75 53
f 53 75 78
f 53 78 65
f 29 46 32
f 32 46 54
f 46 47 54
f 47 55 54
f 32 54 56
f 54 57 56
f 56 57 59
f 56 59 58
f 54 55 57
f 55 62 57
f 57 62 66
f 57 66 59
f 58 59 93
f 58 93 87
f 59 101 93
f 59 66 101
f 47 50 55
f 50 60 55
f 50 51 60
f 51 61 60
f 60 61 64
f 61 65 63
f 53 65 61
f 55 60 62
f 60 64 62
f 62 64 68
f 62 68 66
f 61 63 64
f 63 67 64
f 63 65 67
f 64 67 68
f 65 78 98
f 65 98 67
f 66 103 101
f 66 68 103
f 67 98 102
f 68 102 103
f 67 102 68
f 75 80 78
f 75 77 80
f 78 80 100
f 87 93 89
f 89 90 92
f 89 93 90
f 90 93 101
f 90 101 103
f 78 100 98
f 98 100 104
f 90 103 102
f 90 102 105
f 98 104 102
f 102 104 105
f 104 107 105
f 76 83 79
f 79 84 81
f 79 83 84
f 83 170 84
f 81 84 85
f 84 173 85
f 91 106 96
f 96 106 97
f 96 97 198
f 96 198 197
f 97 229 198
f 97 109 229
f 81 85 99
f 99 108 107
f 105 107 106
f 106 107 111
f 85 108 99
f 85 174 108
f 108 228 111
f 97 106 109
f 106 110 109
f 109 110 230
f 107 108 111
f 106 111 110
f 110 111 231
f 84 170 173
f 85 173 174
f 108 174 228
f 109 230 229
f 111 228 231
f 110 231 230
f 2 3 7
f 2 7 6
f 6 7 8
f 10 11 12
f 2 18 3
f 3 18 19
f 6 8 21
f 8 23 21
f 10 39 11
f 11 40 12
f 11 39 40
f 12 40 41
f 157 153 152
f 165 150 153
f 157 166 153
f 165 153 166
f 165 166 206
f 157 158 168
f 157 168 166
f 166 168 207
f 158 183 168
f 158 175 183
f 175 190 183
f 175 176 190
f 168 183 232
f 183 190 243
f 177 187 178
f 177 179 184
f 177 186 187
f 177 184 186
f 186 234 187
f 184 235 186
f 186 237 234
f 186 235 237
f 178 189 181
f 178 187 189
f 181 189 190
f 176 181 190
f 187 242 189
f 187 234 242
f 189 242 243
f 189 243 190
f 165 206 204
f 204 206 222
f 204 222 212
f 166 207 206
f 206 207 224
f 206 224 222
f 168 232 207
f 207 233 224
f 212 222 223
f 212 223 218
f 222 224 226
f 222 226 223
f 183 243 232
f 232 243 246
f 207 232 233
f 232 246 233
f 235 238 237
f 234 237 241
f 237 238 239
f 237 239 241
f 234 245 242
f 242 246 243
f 234 241 245
f 242 245 246
f 224 233 248
f 233 254 248
f 233 246 254
f 224 248 226
f 238 249 239
f 239 251 241
f 239 249 250
f 239 250 251
f 241 253 245
f 245 253 254
f 241 251 253
f 245 254 246
f 144 156 142
f 144 145 156
f 161 146 149
f 156 154 142
f 159 146 161
f 159 161 199
f 161 163 199
f 163 201 199
f 199 201 202
f 199 202 208
f 202 210 208
f 208 210 213
f 210 215 213
f 3 8 7
f 3 4 16
f 4 10 16
f 10 12 16
f 3 16 8
f 8 16 114
f 12 14 16
f 14 15 16
f 12 120 14
f 15 122 16
f 3 19 4
f 4 20 10
f 4 19 20
f 10 20 39
f 12 41 113
f 41 130 113
f 8 114 127
f 8 127 23
f 12 113 120
f 16 118 114
f 16 119 118
f 16 122 119
f 15 121 122
f 23 127 128
f 131 128 129
f 23 128 131
f 134 139 140
f 134 140 136
f 136 140 141
f 136 141 138
f 139 191 192
f 139 192 140
f 140 193 141
f 140 192 193
f 138 171 169
f 138 141 171
f 169 171 173
f 169 173 170
f 141 172 171
f 141 193 172
f 171 172 174
f 171 174 173
f 191 194 192
f 191 196 194
f 192 195 193
f 192 194 195
f 194 196 198
f 196 197 198
f 194 229 195
f 194 198 229
f 172 193 227
f 193 195 227
f 172 228 174
f 172 227 228
f 195 229 230
f 195 230 227
f 227 231 228
f 227 230 231
f 161 149 148
f 157 152 154
f 156 157 154
f 156 155 259
f 156 259 157
f 157 259 260
f 157 260 158
f 158 260 263
f 158 263 175
f 161 148 162
f 161 162 163
f 162 201 163
f 162 202 201
f 164 167 151
f 167 258 151
f 164 203 167
f 175 276 176
f 177 180 179
f 177 182 180
f 177 178 278
f 177 278 182
f 178 181 279
f 176 280 181
f 178 279 278
f 167 203 205
f 203 211 205
f 205 211 220
f 216 217 221
f 211 219 220
f 219 221 220
f 216 221 219
f 261 257 258
f 261 259 257
f 260 259 261
f 260 261 262
f 261 266 262
f 260 262 263
f 263 264 276
f 262 264 263
f 167 261 258
f 167 265 261
f 167 205 265
f 261 265 266
f 265 293 272
f 262 266 267
f 266 268 267
f 267 268 270
f 262 267 264
f 264 267 269
f 264 269 277
f 267 270 269
f 269 270 271
f 265 272 266
f 266 272 268
f 268 272 273
f 272 298 273
f 175 263 276
f 176 276 280
f 264 277 276
f 276 277 280
f 277 283 280
f 181 280 279
f 182 278 282
f 278 279 281
f 279 280 283
f 278 281 282
f 279 283 281
f 281 288 282
f 269 285 277
f 277 285 283
f 283 285 287
f 269 271 285
f 271 286 285
f 285 286 287
f 281 283 287
f 281 287 288
f 287 289 288
f 286 289 287
f 205 293 265
f 205 220 293
f 220 294 293
f 293 294 298
f 220 221 294
f 221 295 294
f 294 295 302
f 272 293 298
f 294 302 298
f 273 298 299
f 298 302 299
f 299 302 304
f 295 303 302
f 302 303 304
f 303 305 304
f 144 142 143
f 144 143 145
f 160 147 146
f 159 160 146
f 159 199 160
f 160 199 200
f 199 208 200
f 200 208 209
f 208 213 209
f 209 213 214
f 25 27 113
f 27 120 113
f 24 130 33
f 24 25 130
f 25 113 130
f 122 123 119
f 116 115 123
f 116 123 122
f 121 124 122
f 116 122 124
f 131 129 132
f 116 132 115
f 116 131 132
f 116 133 131
f 24 28 30
f 28 29 31
f 28 31 30
f 24 30 25
f 25 30 35
f 30 31 37
f 30 37 35
f 29 32 34
f 29 34 31
f 31 34 42
f 31 42 37
f 25 35 36
f 35 37 36
f 36 37 38
f 37 42 38
f 38 42 43
f 32 56 58
f 32 58 34
f 34 58 87
f 34 87 42
f 42 87 43
f 43 87 89
f 69 74 71
f 69 70 74
f 69 71 76
f 71 72 76
f 70 94 74
f 70 86 94
f 71 136 72
f 71 74 139
f 71 134 136
f 71 139 134
f 72 136 138
f 72 138 73
f 74 94 191
f 74 191 139
f 72 73 76
f 73 82 76
f 73 169 82
f 76 82 83
f 82 170 83
f 86 95 94
f 86 88 95
f 88 96 95
f 90 91 92
f 88 92 96
f 91 96 92
f 94 95 196
f 94 196 191
f 95 96 197
f 95 197 196
f 73 138 169
f 82 169 170
f 25 76 27
f 25 89 69
f 25 36 89
f 36 38 89
f 38 43 89
f 25 69 76
f 69 89 70
f 27 76 79
f 27 79 77
f 77 79 81
f 77 81 80
f 70 89 86
f 86 89 88
f 88 89 92
f 80 81 99
f 80 99 100
f 99 104 100
f 99 107 104
f 90 106 91
f 90 105 106
f 145 143 155
f 160 151 147
f 145 155 156
f 160 164 151
f 160 200 164
f 164 200 203
f 200 209 203
f 203 209 211
f 209 219 211
f 209 214 219
f 162 148 150
f 162 150 165
f 162 165 202
f 179 180 184
f 180 185 184
f 184 185 235
f 185 236 235
f 165 204 202
f 202 204 210
f 204 212 210
f 210 212 218
f 210 218 215
f 215 217 216
f 215 218 217
f 235 236 238
f 236 240 238
f 238 240 249
f 240 252 249
f 112 117 126
f 112 114 117
f 117 114 118
f 112 125 127
f 112 127 114
f 117 118 135
f 135 118 119
f 135 119 256
f 256 119 123
f 112 126 125
f 125 128 127
f 125 126 128
f 126 129 128
f 126 146 129
f 129 146 147
f 129 147 132
f 257 115 132
f 117 135 137
f 117 137 126
f 135 142 137
f 135 143 142
f 126 137 146
f 137 148 146
f 137 150 148
f 137 142 152
f 137 152 153
f 137 153 150
f 135 256 143
f 146 148 149
f 142 154 152
f 256 155 143
f 147 151 132
f 151 258 132
f 256 259 155
f 115 257 123
f 256 123 257
f 256 257 259
f 257 132 258
