# MAAS exact compiled indexed mesh
# program_hash 37f7899284699075c35d2edee53c1aa5594b9016e0b417c12112e9fbbccfc41c
# geometry_hash 9a2f8442d3bdd40d2a2b0102a494c88644b073e6e90c722cd0c840ae1362488d
v -13.47743251 -4.16671052 0
v -3.85155446 -13.31129467 4.53631867
v -0.00120323 -13.31129467 4.94871127
v -3.85155446 -4.16671052 4.53631867
v -13.47743251 -4.16671052 9.89742255
v -3.85155446 -13.31129467 9.69122624
v -0.00120323 -13.31129467 9.69122624
v -3.85155446 -4.16671052 9.69122624
v -0.00120323 -4.16671052 9.69122624
v -0.00120323 -4.16671052 9.89742255
v -13.47743251 1.80133388 0
v -3.85155446 1.80133388 4.53631867
v -3.85155446 10.75340047 4.53631867
v -0.00120323 10.75340047 4.94871127
v -13.47743251 1.80133388 9.89742255
v -3.85155446 1.80133388 9.69122624
v -0.00120323 1.80133388 9.69122624
v -0.00120323 1.80133388 9.89742255
v -3.85155446 10.75340047 9.69122624
v -0.00120323 7.26718147 9.69122624
v -0.89268136 10.02501254 9.69122624
v -0.89268136 10.02501254 9.9
v -0.00120323 10.31318582 9.69122624
v -0.00120323 10.75340047 9.69122624
v 1.92397238 -13.31129467 4.53631867
v 1.92397238 -13.31129467 4.94871127
v 2.7853922 -13.31370114 4.94613382
v 1.92397238 -4.16671052 4.53631867
v 1.92397238 -4.16671052 4.94871127
v 2.7853922 -4.16671052 4.94871127
v 2.7853922 -4.16671052 4.94613382
v 3.72872825 -1.2789471 4.94871127
v 3.72872825 -1.12647883 4.94871127
v 13.47743251 -13.31370114 4.94613382
v 13.47502604 -4.16671052 0
v 13.47502604 -4.16671052 4.94613382
v 13.47743251 -1.2789471 4.94613382
v 13.47502604 -1.2789471 4.94871127
v 13.47502604 -1.2789471 4.94613382
v 1.92397238 -13.31129467 9.69122624
v 2.7853922 -13.31370114 9.9
v 1.92397238 -4.16671052 9.69122624
v 2.7853922 -4.16671052 9.89742255
v 2.7853922 -1.35328747 9.89742255
v 2.7853922 -1.35328747 9.9
v 2.89062735 -1.39739775 9.9
v 3.25706023 -1.2789471 9.89742255
v 3.25706023 -1.2789471 9.9
v 3.72872825 -1.2789471 9.89742255
v 3.72872825 -1.12647883 9.89742255
v 13.47743251 -13.31370114 9.9
v 13.47743251 -1.2789471 9.9
v 1.92397238 1.80133388 4.53631867
v 1.92397238 1.80133388 4.94613382
v 1.36062224 10.75340047 4.94871127
v 1.36062224 10.75340047 4.94613382
v 1.92397238 10.75340047 4.53631867
v 1.92397238 10.75340047 4.94613382
v 13.47502604 1.80133388 0
v 12.78605972 1.80133388 4.94871127
v 12.78605972 1.80133388 4.94613382
v 12.98196339 1.86466039 4.94613382
v 13.47502604 1.80133388 4.94871127
v 9.28102403 13.31369686 4.94613382
v 1.76565029 1.80133388 9.69122624
v 1.76565029 1.80133388 9.89742255
v 1.36062224 10.75340047 9.69122624
v 12.98196339 1.86466039 9.9
v 9.28102403 13.31369686 9.9
f 1 15 11
f 1 4 8
f 1 11 35
f 1 35 4
f 1 8 5
f 1 5 15
f 5 18 15
f 5 8 10
f 5 10 18
f 8 9 10
f 11 15 12
f 11 12 53
f 12 15 16
f 15 18 16
f 16 18 17
f 11 59 35
f 29 31 30
f 4 35 28
f 28 35 29
f 35 31 29
f 35 59 36
f 35 36 31
f 59 39 36
f 63 38 39
f 11 53 59
f 53 54 61
f 53 63 59
f 53 61 63
f 59 63 39
f 63 61 60
f 2 4 25
f 2 25 3
f 4 28 25
f 2 8 4
f 2 3 7
f 2 6 8
f 2 7 6
f 6 7 9
f 6 9 8
f 12 13 53
f 13 57 53
f 13 14 57
f 12 16 19
f 16 17 20
f 16 20 21
f 12 19 13
f 13 19 14
f 16 21 19
f 19 24 14
f 19 21 23
f 19 23 24
f 25 26 3
f 25 28 26
f 28 29 26
f 53 57 54
f 57 58 54
f 14 55 56
f 57 14 56
f 57 56 58
f 43 29 30
f 42 29 43
f 43 10 9
f 42 43 9
f 66 18 10
f 44 66 10
f 43 44 10
f 47 49 50
f 65 17 18
f 65 18 66
f 40 3 26
f 40 26 29
f 40 7 3
f 40 42 7
f 40 29 42
f 42 9 7
f 65 20 17
f 14 24 55
f 67 55 24
f 67 24 23
f 33 32 38
f 33 38 60
f 63 60 38
f 22 21 20
f 22 23 21
f 44 45 66
f 47 50 48
f 48 50 68
f 50 33 60
f 62 54 58
f 64 56 55
f 64 58 56
f 62 61 54
f 62 60 61
f 64 62 58
f 45 46 22
f 46 48 22
f 45 22 66
f 65 66 20
f 66 22 20
f 48 68 22
f 64 55 69
f 22 69 23
f 67 69 55
f 67 23 69
f 50 60 62
f 64 68 62
f 50 62 68
f 22 68 69
f 64 69 68
f 50 32 33
f 49 32 50
f 27 30 31
f 27 31 34
f 34 31 36
f 34 36 37
f 37 36 39
f 37 39 38
f 27 43 30
f 27 34 41
f 27 41 43
f 41 51 46
f 41 45 43
f 41 46 45
f 43 45 44
f 46 51 48
f 47 48 49
f 34 37 51
f 41 34 51
f 52 38 32
f 37 38 52
f 48 51 52
f 49 52 32
f 48 52 49
f 37 52 51
