# MAAS exact compiled indexed mesh
# program_hash b33e2c86123fd9c0bcfaedc281ef3e27abe5c237d2feaec30bcbec8dcce88280
# geometry_hash f0fe68e23f849d8e916c7c3d5caf51519f6c8de059f2f8ae236d8502fcb15aee
v -15.72408835 -17.69825838 0
v -12.77171165 -17.36187754 0
v -13.33364642 -14.92787067 0
v -12.77171165 -17.36187754 3.54982897
v -13.89558118 -12.49386379 0
v -14.45751595 -10.05985691 0
v -25.36143356 -18.79629517 6.03470925
v -25.36143356 -18.79629517 7.09965794
v -25.36143356 -16.29826391 7.09965794
v -25.36143356 -13.80023265 7.09965794
v -25.36143356 -11.3022014 7.09965794
v -15.72408835 -17.69825838 6.03470925
v -12.77171165 -17.36187754 7.09965794
v -15.01945071 -7.62585004 0
v -15.72408835 -5.2081021 0
v -15.58138547 -5.19184316 0
v -15.58138547 -5.19184316 3.54982897
v -25.36143356 -6.30613889 6.03470925
v -25.36143356 -8.80417014 7.09965794
v -25.36143356 -6.30613889 7.09965794
v -15.72408835 -5.2081021 6.03470925
v -15.58138547 -5.19184316 7.09965794
v -0.82733726 -13.13215273 0
v -1.92240208 -10.88693711 0
v -0.82733726 -13.13215273 3.54982897
v -0.82733726 -13.13215273 7.09965794
v -4.11253174 -6.39650587 0
v -3.01746691 -8.64172149 0
v -5.20759656 -4.15129025 0
v -6.30266139 -1.90607463 0
v -6.30266139 -1.90607463 3.54982897
v -6.30266139 -1.90607463 7.09965794
v -25.36143356 -18.79629517 10.64948691
v -25.36143356 -16.29826391 10.64948691
v -25.36143356 -13.80023265 10.64948691
v -25.36143356 -11.3022014 10.64948691
v -12.77171165 -17.36187754 10.64948691
v -25.36143356 -18.79629517 14.19931589
v -25.36143356 -16.29826391 14.19931589
v -25.36143356 -18.79629517 17.74914486
v -25.36143356 -16.29826391 17.74914486
v -25.36143356 -13.80023265 14.19931589
v -25.36143356 -11.3022014 14.19931589
v -25.36143356 -13.80023265 17.74914486
v -25.36143356 -11.3022014 17.74914486
v -12.77171165 -17.36187754 14.19931589
v -12.77171165 -17.36187754 17.74914486
v -13.33364642 -14.92787067 17.74914486
v -13.89558118 -12.49386379 17.74914486
v -14.45751595 -10.05985691 17.74914486
v -25.36143356 -8.80417014 10.64948691
v -25.36143356 -6.30613889 10.64948691
v -15.58138547 -5.19184316 10.64948691
v -25.36143356 -8.80417014 14.19931589
v -25.36143356 -6.30613889 14.19931589
v -25.36143356 -8.80417014 17.74914486
v -25.36143356 -6.30613889 17.74914486
v -15.58138547 -5.19184316 14.19931589
v -15.01945071 -7.62585004 17.74914486
v -15.58138547 -5.19184316 17.74914486
v -0.82733726 -13.13215273 10.64948691
v -0.82733726 -13.13215273 14.19931589
v -0.82733726 -13.13215273 17.74914486
v -1.92240208 -10.88693711 17.74914486
v -6.30266139 -1.90607463 10.64948691
v -4.11253174 -6.39650587 17.74914486
v -3.01746691 -8.64172149 17.74914486
v -6.30266139 -1.90607463 14.19931589
v -5.20759656 -4.15129025 17.74914486
v -6.30266139 -1.90607463 17.74914486
v 5.14323652 -0.49993117 0
v 9.85942254 -6.32393588 0
v 9.85942254 -6.32393588 3.54982897
v 6.71529853 -2.44126608 0
v 8.28736053 -4.38260098 0
v 9.85942254 -6.32393588 7.09965794
v 9.85942254 -6.32393588 10.64948691
v 5.14323652 -0.49993117 17.74914486
v 9.85942254 -6.32393588 14.19931589
v 9.85942254 -6.32393588 17.74914486
v 6.71529853 -2.44126608 17.74914486
v 8.28736053 -4.38260098 17.74914486
v 1.99911251 3.38273863 0
v 3.57117451 1.44140373 0
v 1.99911251 3.38273863 3.54982897
v 10.86686385 8.86555113 0
v 1.99911251 3.38273863 7.09965794
v 8.89838835 10.40349274 0
v 8.89838835 10.40349274 3.54982897
v 8.89838835 10.40349274 7.09965794
v 16.77229032 4.25172631 0
v 18.74076582 2.7137847 0
v 18.74076582 2.7137847 3.54982897
v 14.80381483 5.78966791 0
v 12.83533934 7.32760952 0
v 18.74076582 2.7137847 7.09965794
v 14.04151017 18.79630475 0
v 16.30549535 17.74059112 0
v 18.56948053 16.6848775 0
v 14.04151017 18.79630475 3.54982897
v 16.30549535 17.74059112 3.54982897
v 18.56948053 16.6848775 3.54982897
v 25.36143607 13.51773662 0
v 25.36143607 13.51773662 3.54982897
v 20.83346571 15.62916387 0
v 23.09745089 14.57345024 0
v 20.83346571 15.62916387 3.54982897
v 23.09745089 14.57345024 3.54982897
v 14.04151017 18.79630475 7.09965794
v 16.30549535 17.74059112 7.09965794
v 18.56948053 16.6848775 7.09965794
v 25.36143607 13.51773662 7.09965794
v 20.83346571 15.62916387 7.09965794
v 23.09745089 14.57345024 7.09965794
v 1.99911251 3.38273863 10.64948691
v 1.99911251 3.38273863 14.19931589
v 1.99911251 3.38273863 17.74914486
v 3.57117451 1.44140373 17.74914486
v 10.86686385 8.86555113 17.74914486
v 8.89838835 10.40349274 10.64948691
v 8.89838835 10.40349274 14.19931589
v 8.89838835 10.40349274 17.74914486
v 18.74076582 2.7137847 10.64948691
v 18.74076582 2.7137847 14.19931589
v 16.77229032 4.25172631 17.74914486
v 18.74076582 2.7137847 17.74914486
v 14.80381483 5.78966791 17.74914486
v 12.83533934 7.32760952 17.74914486
v 14.04151017 18.79630475 10.64948691
v 16.30549535 17.74059112 10.64948691
v 18.56948053 16.6848775 10.64948691
v 25.36143607 13.51773662 10.64948691
v 20.83346571 15.62916387 10.64948691
v 23.09745089 14.57345024 10.64948691
v 14.04151017 18.79630475 14.19931589
v 16.30549535 17.74059112 14.19931589
v 18.56948053 16.6848775 14.19931589
v 14.04151017 18.79630475 17.74914486
v 16.30549535 17.74059112 17.74914486
v 18.56948053 16.6848775 17.74914486
v 25.36143607 13.51773662 14.19931589
v 25.36143607 13.51773662 17.74914486
v 20.83346571 15.62916387 14.19931589
v 23.09745089 14.57345024 14.19931589
v 20.83346571 15.62916387 17.74914486
v 23.09745089 14.57345024 17.74914486
f 2 4 1
f 13 12 1
f 4 13 1
f 2 1 15
f 2 15 3
f 3 15 5
f 8 7 12
f 8 9 7
f 8 34 9
f 9 10 7
f 10 11 7
f 9 35 10
f 8 13 33
f 20 18 7
f 11 19 7
f 10 36 11
f 19 20 7
f 11 51 19
f 8 12 13
f 5 15 6
f 6 15 14
f 14 15 16
f 16 15 21
f 16 21 17
f 19 52 20
f 20 22 18
f 22 21 18
f 17 21 22
f 20 53 22
f 2 3 23
f 2 23 4
f 3 5 24
f 5 6 28
f 4 23 25
f 3 24 23
f 5 28 24
f 4 25 13
f 13 26 37
f 13 25 26
f 6 14 27
f 14 16 29
f 6 27 28
f 14 29 27
f 16 30 29
f 16 31 30
f 16 17 31
f 27 74 28
f 27 29 71
f 29 30 84
f 30 31 85
f 17 22 32
f 17 32 31
f 22 65 32
f 31 32 87
f 8 33 34
f 9 34 35
f 33 39 34
f 33 38 39
f 34 42 35
f 34 39 42
f 33 37 38
f 10 35 36
f 11 36 51
f 35 43 36
f 35 42 43
f 36 54 51
f 36 43 54
f 13 37 33
f 37 46 38
f 38 41 39
f 39 44 42
f 38 46 40
f 38 40 41
f 39 41 44
f 40 47 41
f 41 48 44
f 42 45 43
f 43 56 54
f 42 44 45
f 43 45 56
f 44 49 45
f 45 50 56
f 40 46 47
f 41 47 48
f 44 48 49
f 45 49 50
f 19 51 52
f 20 52 53
f 51 55 52
f 51 54 55
f 52 55 58
f 52 58 53
f 54 57 55
f 54 56 57
f 56 59 57
f 55 57 60
f 55 60 58
f 50 59 56
f 57 59 60
f 37 61 46
f 26 61 37
f 46 61 62
f 46 62 47
f 47 63 48
f 48 64 49
f 49 67 50
f 47 62 63
f 48 63 64
f 49 64 67
f 22 53 65
f 53 58 68
f 53 68 65
f 32 65 115
f 65 68 116
f 50 66 59
f 59 69 60
f 50 67 66
f 59 66 69
f 58 70 68
f 58 60 70
f 60 69 70
f 66 67 81
f 68 70 117
f 66 78 69
f 69 118 70
f 30 83 84
f 30 85 83
f 31 87 85
f 32 115 87
f 65 116 115
f 68 117 116
f 70 118 117
f 23 24 72
f 23 72 25
f 25 73 26
f 26 76 61
f 24 28 75
f 24 75 72
f 28 74 75
f 25 72 73
f 27 71 74
f 29 84 71
f 72 75 92
f 74 91 75
f 26 73 76
f 72 92 73
f 73 92 93
f 73 93 76
f 76 93 96
f 76 96 77
f 61 77 62
f 62 79 63
f 63 80 64
f 61 76 77
f 62 77 79
f 64 82 67
f 63 79 80
f 64 80 82
f 67 82 81
f 66 81 78
f 69 78 118
f 80 126 82
f 81 82 125
f 77 96 123
f 77 123 79
f 79 123 124
f 79 124 80
f 80 124 126
f 83 86 84
f 83 85 89
f 71 94 74
f 71 84 95
f 71 95 94
f 84 86 95
f 83 88 86
f 83 89 88
f 85 87 90
f 85 90 89
f 87 120 90
f 86 88 98
f 88 89 100
f 88 100 97
f 89 90 109
f 89 109 100
f 90 129 109
f 75 91 92
f 74 94 91
f 91 94 106
f 91 103 92
f 92 103 93
f 93 104 96
f 96 112 123
f 86 99 95
f 94 95 105
f 95 99 105
f 88 97 98
f 86 98 99
f 97 101 98
f 98 102 99
f 97 100 101
f 98 101 102
f 91 106 103
f 94 105 106
f 103 106 104
f 93 103 104
f 99 107 105
f 105 108 106
f 99 102 107
f 105 107 108
f 104 106 108
f 100 110 101
f 100 109 110
f 101 111 102
f 101 110 111
f 109 130 110
f 110 131 111
f 96 104 112
f 104 108 112
f 112 114 132
f 102 113 107
f 102 111 113
f 107 113 114
f 107 114 108
f 108 114 112
f 111 133 113
f 113 134 114
f 87 115 120
f 115 116 121
f 115 121 120
f 117 118 119
f 116 117 122
f 78 81 127
f 78 128 118
f 78 127 128
f 116 122 121
f 118 128 119
f 117 119 122
f 90 120 129
f 120 121 135
f 120 135 129
f 121 122 138
f 119 139 122
f 121 138 135
f 123 132 124
f 82 126 125
f 81 125 127
f 125 146 127
f 124 141 126
f 125 126 142
f 109 129 130
f 110 130 131
f 129 136 130
f 129 135 136
f 130 137 131
f 130 136 137
f 112 132 123
f 124 132 141
f 132 134 141
f 111 131 133
f 113 133 134
f 114 134 132
f 131 143 133
f 131 137 143
f 133 143 144
f 133 144 134
f 134 144 141
f 119 128 140
f 127 145 128
f 128 145 140
f 135 139 136
f 136 140 137
f 122 139 138
f 119 140 139
f 135 138 139
f 136 139 140
f 141 144 142
f 125 142 146
f 127 146 145
f 126 141 142
f 137 145 143
f 143 146 144
f 137 140 145
f 143 145 146
f 142 144 146
f 12 21 1
f 7 18 12
f 18 21 12
f 15 1 21
