# MAAS exact compiled indexed mesh
# program_hash dd7ab5c5233b1fa3216a7ec11a98d7ba314861d8142ec55b85a8ea073c60e7eb
# geometry_hash f96faa790e29af113e631088073b00274e2c671a3cda19451a88943ddb57fb97
v -25.32484909 -18.76918107 0
v -25.32484909 -16.27475328 0
v -25.32484909 -18.76918107 3.54982897
v -25.32484909 -16.27475328 3.54982897
v -25.32484909 -13.78032549 0
v -25.32484909 -11.28589771 0
v -25.32484909 -13.78032549 3.54982897
v -25.32484909 -11.28589771 3.54982897
v -12.85271016 -17.34816033 0
v -13.31441232 -14.90633686 0
v -13.87553648 -12.4758411 0
v -14.43666064 -10.04534533 0
v -25.32484909 -18.76918107 7.09965794
v -25.32484909 -16.27475328 7.09965794
v -25.32484909 -13.78032549 7.09965794
v -25.32484909 -11.28589771 7.09965794
v -12.85271016 -17.34816033 6.28615547
v -12.75328816 -17.33683262 6.28615547
v -12.75328816 -17.33683262 7.09965794
v -25.32484909 -8.79146992 0
v -25.32484909 -6.29704213 0
v -25.32484909 -8.79146992 3.54982897
v -25.32484909 -6.29704213 3.54982897
v -14.9977848 -7.61484957 0
v -15.55890896 -5.1843538 0
v -15.55890896 -5.1843538 3.54982897
v -12.85271016 -4.22603855 0
v -25.32484909 -8.79146992 7.09965794
v -25.32484909 -6.29704213 7.09965794
v -15.55890896 -5.1843538 7.09965794
v -12.85271016 -4.22603855 6.28615547
v -4.20267832 -14.30890287 0
v -0.8261438 -13.11320929 0
v -1.91962897 -10.87123245 0
v -0.8261438 -13.11320929 3.54982897
v -4.20267832 -14.30890287 6.28615547
v -0.8261438 -13.11320929 7.09965794
v -4.10659931 -6.38727876 0
v -3.01311414 -8.6292556 0
v -4.20267832 -0.57128039 0
v -6.29356965 -1.90332507 6.28615547
v -4.20267832 -0.57128039 6.28615547
v -6.29356965 -1.90332507 7.09965794
v -25.32484909 -18.76918107 10.64948691
v -25.32484909 -16.27475328 10.64948691
v -25.32484909 -13.78032549 10.64948691
v -25.32484909 -11.28589771 10.64948691
v -12.75328816 -17.33683262 10.64948691
v -25.32484909 -18.76918107 14.19931589
v -25.32484909 -16.27475328 14.19931589
v -25.32484909 -18.76918107 17.74914486
v -25.32484909 -16.27475328 17.74914486
v -25.32484909 -13.78032549 14.19931589
v -25.32484909 -11.28589771 14.19931589
v -25.32484909 -13.78032549 17.74914486
v -25.32484909 -11.28589771 17.74914486
v -12.75328816 -17.33683262 14.19931589
v -12.75328816 -17.33683262 17.74914486
v -13.31441232 -14.90633686 17.74914486
v -13.87553648 -12.4758411 17.74914486
v -14.43666064 -10.04534533 17.74914486
v -25.32484909 -8.79146992 10.64948691
v -25.32484909 -6.29704213 10.64948691
v -15.55890896 -5.1843538 10.64948691
v -25.32484909 -8.79146992 14.19931589
v -25.32484909 -6.29704213 14.19931589
v -25.32484909 -8.79146992 17.74914486
v -25.32484909 -6.29704213 17.74914486
v -15.55890896 -5.1843538 14.19931589
v -14.9977848 -7.61484957 17.74914486
v -15.55890896 -5.1843538 17.74914486
v -0.8261438 -13.11320929 10.64948691
v -0.8261438 -13.11320929 14.19931589
v -0.8261438 -13.11320929 17.74914486
v -1.91962897 -10.87123245 17.74914486
v -6.29356965 -1.90332507 10.64948691
v -4.10659931 -6.38727876 17.74914486
v -3.01311414 -8.6292556 17.74914486
v -6.29356965 -1.90332507 14.19931589
v -5.20008448 -4.14530192 17.74914486
v -6.29356965 -1.90332507 17.74914486
v 5.13581728 -0.49921001 0
v 9.84520009 -6.31481345 0
v 9.84520009 -6.31481345 3.54982897
v 6.70561155 -2.43774449 0
v 8.27540582 -4.37627897 0
v 9.84520009 -6.31481345 7.09965794
v 9.84520009 -6.31481345 10.64948691
v 5.13581728 -0.49921001 17.74914486
v 9.84520009 -6.31481345 14.19931589
v 9.84520009 -6.31481345 17.74914486
v 6.70561155 -2.43774449 17.74914486
v 8.27540582 -4.37627897 17.74914486
v 1.99622874 3.37785895 0
v 3.56602301 1.43932447 0
v 1.99622874 3.37785895 3.54982897
v 10.85118814 8.85276236 0
v 1.99622874 3.37785895 7.09965794
v 8.88555222 10.38848546 0
v 8.88555222 10.38848546 3.54982897
v 8.88555222 10.38848546 7.09965794
v 16.7480959 4.24559309 0
v 18.71373182 2.70987 0
v 18.71373182 2.70987 3.54982897
v 14.78245998 5.78131618 0
v 12.81682406 7.31703927 0
v 18.71373182 2.70987 7.09965794
v 14.02125496 18.76919064 0
v 16.28197429 17.7149999 0
v 18.54269362 16.66080917 0
v 14.02125496 18.76919064 3.54982897
v 16.28197429 17.7149999 3.54982897
v 18.54269362 16.66080917 3.54982897
v 25.3248516 13.49823696 0
v 25.3248516 13.49823696 3.54982897
v 20.80341294 15.60661843 0
v 23.06413227 14.5524277 0
v 20.80341294 15.60661843 3.54982897
v 23.06413227 14.5524277 3.54982897
v 14.02125496 18.76919064 7.09965794
v 16.28197429 17.7149999 7.09965794
v 18.54269362 16.66080917 7.09965794
v 25.3248516 13.49823696 7.09965794
v 20.80341294 15.60661843 7.09965794
v 23.06413227 14.5524277 7.09965794
v 1.99622874 3.37785895 10.64948691
v 1.99622874 3.37785895 14.19931589
v 1.99622874 3.37785895 17.74914486
v 3.56602301 1.43932447 17.74914486
v 10.85118814 8.85276236 17.74914486
v 8.88555222 10.38848546 10.64948691
v 8.88555222 10.38848546 14.19931589
v 8.88555222 10.38848546 17.74914486
v 18.71373182 2.70987 10.64948691
v 18.71373182 2.70987 14.19931589
v 16.7480959 4.24559309 17.74914486
v 18.71373182 2.70987 17.74914486
v 14.78245998 5.78131618 17.74914486
v 12.81682406 7.31703927 17.74914486
v 14.02125496 18.76919064 10.64948691
v 16.28197429 17.7149999 10.64948691
v 18.54269362 16.66080917 10.64948691
v 25.3248516 13.49823696 10.64948691
v 20.80341294 15.60661843 10.64948691
v 23.06413227 14.5524277 10.64948691
v 14.02125496 18.76919064 14.19931589
v 16.28197429 17.7149999 14.19931589
v 18.54269362 16.66080917 14.19931589
v 14.02125496 18.76919064 17.74914486
v 16.28197429 17.7149999 17.74914486
v 18.54269362 16.66080917 17.74914486
v 25.3248516 13.49823696 14.19931589
v 25.3248516 13.49823696 17.74914486
v 20.80341294 15.60661843 14.19931589
v 23.06413227 14.5524277 14.19931589
v 20.80341294 15.60661843 17.74914486
v 23.06413227 14.5524277 17.74914486
f 1 4 2
f 2 7 5
f 1 2 9
f 2 5 10
f 1 3 4
f 2 4 7
f 1 17 3
f 5 8 6
f 6 22 20
f 5 6 11
f 6 20 12
f 5 7 8
f 6 8 22
f 1 9 17
f 2 10 9
f 5 11 10
f 6 12 11
f 10 27 9
f 10 11 27
f 3 14 4
f 3 13 14
f 4 15 7
f 4 14 15
f 3 17 13
f 13 45 14
f 14 46 15
f 13 19 44
f 7 16 8
f 7 15 16
f 8 28 22
f 8 16 28
f 15 47 16
f 16 62 28
f 19 17 18
f 13 17 19
f 20 23 21
f 20 21 24
f 20 22 23
f 21 23 26
f 12 20 24
f 21 25 24
f 21 26 25
f 11 12 27
f 12 24 27
f 24 25 27
f 25 26 27
f 26 30 27
f 22 29 23
f 22 28 29
f 23 29 30
f 28 63 29
f 23 30 26
f 29 64 30
f 30 31 27
f 38 39 32
f 33 32 34
f 33 35 32
f 34 32 39
f 35 37 32
f 19 18 36
f 19 37 48
f 19 36 37
f 37 36 32
f 38 32 40
f 38 85 39
f 38 40 82
f 43 41 31
f 30 43 31
f 30 76 43
f 43 42 41
f 13 44 45
f 14 45 46
f 44 50 45
f 44 49 50
f 45 53 46
f 45 50 53
f 44 48 49
f 15 46 47
f 16 47 62
f 46 54 47
f 46 53 54
f 47 65 62
f 47 54 65
f 19 48 44
f 48 57 49
f 49 52 50
f 50 55 53
f 49 57 51
f 49 51 52
f 50 52 55
f 51 58 52
f 52 59 55
f 53 56 54
f 54 67 65
f 53 55 56
f 54 56 67
f 55 60 56
f 56 61 67
f 51 57 58
f 52 58 59
f 55 59 60
f 56 60 61
f 28 62 63
f 29 63 64
f 62 66 63
f 62 65 66
f 63 66 69
f 63 69 64
f 65 68 66
f 65 67 68
f 67 70 68
f 66 68 71
f 66 71 69
f 61 70 67
f 68 70 71
f 48 72 57
f 37 72 48
f 57 72 73
f 57 73 58
f 58 74 59
f 59 75 60
f 60 78 61
f 58 73 74
f 59 74 75
f 60 75 78
f 30 64 76
f 64 69 79
f 64 79 76
f 43 76 126
f 76 79 127
f 61 77 70
f 70 80 71
f 61 78 77
f 70 77 80
f 69 81 79
f 69 71 81
f 71 80 81
f 77 78 92
f 79 81 128
f 77 89 80
f 80 129 81
f 94 40 42
f 94 42 96
f 96 42 98
f 43 98 42
f 43 126 98
f 76 127 126
f 79 128 127
f 81 129 128
f 33 34 83
f 33 83 35
f 35 84 37
f 37 87 72
f 34 39 86
f 34 86 83
f 39 85 86
f 35 83 84
f 38 82 85
f 83 86 103
f 85 102 86
f 37 84 87
f 83 103 84
f 84 103 104
f 84 104 87
f 87 104 107
f 87 107 88
f 72 88 73
f 73 90 74
f 74 91 75
f 72 87 88
f 73 88 90
f 75 93 78
f 74 90 91
f 75 91 93
f 78 93 92
f 77 92 89
f 80 89 129
f 91 137 93
f 92 93 136
f 88 107 134
f 88 134 90
f 90 134 135
f 90 135 91
f 91 135 137
f 82 40 95
f 94 95 40
f 94 97 95
f 94 96 100
f 82 105 85
f 82 95 106
f 82 106 105
f 95 97 106
f 94 99 97
f 94 100 99
f 96 98 101
f 96 101 100
f 98 131 101
f 97 99 109
f 99 100 111
f 99 111 108
f 100 101 120
f 100 120 111
f 101 140 120
f 86 102 103
f 85 105 102
f 102 105 117
f 102 114 103
f 103 114 104
f 104 115 107
f 107 123 134
f 97 110 106
f 105 106 116
f 106 110 116
f 99 108 109
f 97 109 110
f 108 112 109
f 109 113 110
f 108 111 112
f 109 112 113
f 102 117 114
f 105 116 117
f 114 117 115
f 104 114 115
f 110 118 116
f 116 119 117
f 110 113 118
f 116 118 119
f 115 117 119
f 111 121 112
f 111 120 121
f 112 122 113
f 112 121 122
f 120 141 121
f 121 142 122
f 107 115 123
f 115 119 123
f 123 125 143
f 113 124 118
f 113 122 124
f 118 124 125
f 118 125 119
f 119 125 123
f 122 144 124
f 124 145 125
f 98 126 131
f 126 127 132
f 126 132 131
f 128 129 130
f 127 128 133
f 89 92 138
f 89 139 129
f 89 138 139
f 127 133 132
f 129 139 130
f 128 130 133
f 101 131 140
f 131 132 146
f 131 146 140
f 132 133 149
f 130 150 133
f 132 149 146
f 134 143 135
f 93 137 136
f 92 136 138
f 136 157 138
f 135 152 137
f 136 137 153
f 120 140 141
f 121 141 142
f 140 147 141
f 140 146 147
f 141 148 142
f 141 147 148
f 123 143 134
f 135 143 152
f 143 145 152
f 122 142 144
f 124 144 145
f 125 145 143
f 142 154 144
f 142 148 154
f 144 154 155
f 144 155 145
f 145 155 152
f 130 139 151
f 138 156 139
f 139 156 151
f 146 150 147
f 147 151 148
f 133 150 149
f 130 151 150
f 146 149 150
f 147 150 151
f 152 155 153
f 136 153 157
f 138 157 156
f 137 152 153
f 148 156 154
f 154 157 155
f 148 151 156
f 154 156 157
f 153 155 157
f 9 27 17
f 18 17 31
f 27 31 17
f 36 42 32
f 18 31 36
f 32 42 40
f 41 36 31
f 41 42 36
