# MAAS exact compiled indexed mesh
# program_hash c4c7db844b6d6b09f661f51f82976c7a051ace434e53535a28e097c5ecc99ce7
# geometry_hash 060645f8f68a428135903d5334ddaf6ba10a9e961217291889ebdf7a3fc627d5
v -15.73224535 -13.89771388 0
v -15.73224535 -13.89771388 4.11399522
v -7.99536688 -16.79929182 3.82013841
v -9.28723262 -13.89771388 3.82013841
v -9.28723262 -13.89771388 4.11399522
v -8.87237125 -15.95983878 7.19847407
v -8.36911546 -15.95983878 7.19847407
v -8.87237125 -14.82950775 7.19847407
v -15.29588321 -0.40206367 4.11399522
v -15.29588321 -0.40206367 7.19949163
v -6.10992448 -15.95983878 7.19847407
v -1.47831612 -13.89771388 3.82013841
v -1.47831612 -13.89771388 4.11399522
v -6.69701645 -2.88652306 7.19949163
v -6.69701645 -2.5349277 7.19949163
v -0.00155307 -2.88652306 7.19949163
v -0.00155307 -0.37059675 7.19949163
v -15.78372007 -9.3008756 7.64027683
v -7.99536688 -16.79929182 7.93413363
v -8.36911546 -15.95983878 7.93413363
v -8.87237125 -14.82950775 7.93413363
v -10.58127221 -10.99125337 7.64027683
v -10.58127221 -10.99125337 7.93413363
v -8.87237125 -11.54650895 7.93413363
v -15.78372007 -9.3008756 11.46041524
v -11.16966411 -14.60782076 11.16655844
v -8.87237125 -14.2849573 11.16655844
v -11.16966411 -14.60782076 14.39898326
v -8.87237125 -15.95983878 14.40000081
v -8.87237125 -14.2849573 14.39898326
v -11.7304145 -10.61787441 11.16655844
v -11.7304145 -10.61787441 11.46041524
v -8.87237125 -11.54650895 11.16655844
v -13.90636535 -3.52297189 7.64027683
v -13.90636535 -3.52297189 7.93413363
v -14.00216453 -3.30780341 7.93413363
v -13.83645287 -3.30780341 7.93413363
v -15.29588321 -0.40206367 7.93413363
v -13.58545936 -2.53532481 9.83848329
v -13.42469659 -2.04054788 9.70173739
v -13.26296235 -1.16985763 10.63922286
v -13.14179218 -1.16985763 10.63922286
v -13.26296235 -0.81087761 10.63922286
v -13.0251525 -0.81087761 10.63922286
v -9.01780305 -0.03890138 9.70057252
v -13.83645287 -3.30780341 11.46041524
v -12.75777798 -3.30780341 11.46041524
v -13.14179218 -1.16985763 11.01226535
v -13.14179218 -1.16985763 11.46041524
v -13.05824667 -1.16985763 11.46041524
v -13.26296235 -1.16985763 11.69389402
v -13.05824667 -1.16985763 11.69389402
v -13.10869802 -0.81087761 11.16655844
v -13.0251525 -0.81087761 11.16655844
v -13.26296235 -0.81087761 11.69389402
v -13.10869802 -0.81087761 11.69389402
v -12.75777798 -3.30780341 14.39898326
v -8.87237125 -3.30780341 14.39898326
v -8.87237125 -3.05795368 14.39898326
v -8.87237125 -3.05795368 14.40000081
v -8.46041621 -3.10495258 14.40000081
v -9.01780305 -0.03890138 13.99268246
v -6.10992448 -15.95983878 7.93413363
v -7.78469385 -2.88652306 14.39898326
v -7.78469385 -2.88652306 14.40000081
v -6.69701645 -2.88652306 14.39898326
v -6.69701645 -2.5349277 14.39898326
v -15.73224535 5.846187 0
v -15.73224535 5.846187 4.11399522
v -10.43105129 1.76389905 7.19847407
v -10.43105129 1.76389905 7.19949163
v -12.83980927 9.21550938 7.19847407
v -1.26208243 5.846187 3.82013841
v -1.26208243 5.846187 4.11399522
v -12.48580483 0.84906383 7.64027683
v -12.48580483 0.84906383 7.93413363
v -10.43105129 1.76389905 7.64027683
v -11.30754494 4.47537492 7.64027683
v -13.4178804 1.38906936 11.16655844
v -12.25735144 1.55217107 11.16655844
v -12.25735144 1.55217107 11.46041524
v -13.4178804 1.38906936 14.39898326
v -10.44494755 1.80688783 11.46041524
v -10.44494755 1.80688783 14.39898326
v -11.30754494 4.47537492 11.46041524
v -9.01780305 10.45098568 9.70057252
v -12.83980927 9.21550938 14.40000081
v -9.01780305 10.45098568 13.99268246
v 12.98615592 -13.89771388 0
v 12.98615592 -13.89771388 4.11399522
v 15.78372158 -15.95983878 7.19847407
v 12.98615592 -7.45771601 3.82013841
v 12.98615592 -7.45771601 4.11399522
v 15.78061393 -6.21354314 3.82013841
v 15.78061393 -6.21354314 7.19847407
v 14.29932915 -2.88652306 7.19847407
v 14.29932915 -2.88652306 7.19949163
v 15.78372158 -2.88652306 7.19847407
v 1.02456274 -0.03890138 9.70057252
v 1.02456274 -0.03890138 13.99268246
v 15.78372158 -15.95983878 14.40000081
v 15.78372158 -2.88652306 14.40000081
v 12.98615592 5.846187 0
v 11.52084404 3.35405668 7.19949163
v 11.52084404 3.35405668 7.19847407
v 10.41127613 5.846187 3.82013841
v 10.41127613 5.846187 4.11399522
v 12.98615592 0.0629123 3.82013841
v 12.98615592 0.0629123 4.11399522
v 12.98615592 5.846187 4.11399522
v 14.6411583 4.3627087 7.19847407
v 8.4800976 10.18368501 3.82013841
v 8.4800976 10.18368501 7.19847407
v 10.62099123 16.79929166 7.19847407
v 11.52084404 3.35405668 7.50547821
v 9.50564141 2.70263568 9.70057252
v 9.50564141 2.70263568 13.99268246
v 14.6411583 4.3627087 14.40000081
v 9.50564141 16.4387511 9.70057252
v 9.50564141 16.4387511 13.99268246
v 10.62099123 16.79929166 14.40000081
f 2 5 9
f 2 4 5
f 1 2 69
f 1 69 68
f 2 9 69
f 1 89 2
f 2 89 4
f 1 68 89
f 68 69 73
f 9 74 69
f 68 73 106
f 69 74 73
f 4 89 12
f 12 90 13
f 68 103 89
f 12 89 90
f 13 90 93
f 90 92 93
f 89 103 90
f 90 103 92
f 92 103 108
f 68 110 103
f 68 106 110
f 103 110 108
f 106 107 110
f 108 110 109
f 107 109 110
f 3 5 4
f 3 7 8
f 3 19 7
f 3 8 22
f 3 38 5
f 3 22 34
f 5 10 9
f 3 34 38
f 5 38 10
f 3 4 12
f 3 13 19
f 11 19 13
f 3 12 13
f 7 19 20
f 8 21 22
f 21 23 22
f 21 24 23
f 34 35 36
f 35 37 36
f 34 36 38
f 19 63 20
f 11 63 19
f 9 10 70
f 10 71 70
f 9 70 113
f 9 113 74
f 11 13 93
f 11 93 94
f 11 94 95
f 92 94 93
f 92 108 94
f 95 109 107
f 94 109 95
f 94 108 109
f 96 115 97
f 73 74 112
f 73 112 106
f 74 113 112
f 95 107 112
f 96 112 105
f 106 112 107
f 105 112 113
f 95 112 96
f 96 105 104
f 96 104 115
f 18 22 23
f 18 23 25
f 24 31 25
f 23 24 25
f 24 33 31
f 25 31 32
f 18 35 34
f 18 34 22
f 18 25 46
f 18 46 35
f 35 46 37
f 25 32 46
f 32 47 46
f 26 57 32
f 26 33 27
f 26 27 30
f 26 30 28
f 26 32 31
f 26 31 33
f 26 28 57
f 28 30 58
f 32 57 47
f 28 58 57
f 97 115 104
f 36 37 38
f 37 76 38
f 10 38 75
f 38 76 75
f 10 75 71
f 71 75 77
f 37 46 42
f 37 42 44
f 37 44 80
f 46 47 49
f 42 46 48
f 49 48 46
f 47 50 49
f 75 76 78
f 37 85 76
f 37 80 85
f 75 78 77
f 76 85 78
f 80 81 85
f 81 83 85
f 47 57 50
f 53 79 54
f 53 56 79
f 50 57 52
f 52 57 56
f 56 57 82
f 57 84 82
f 57 58 59
f 57 59 84
f 64 66 67
f 54 79 80
f 79 81 80
f 56 82 79
f 79 82 81
f 81 82 83
f 82 84 83
f 39 48 42
f 39 42 44
f 39 80 40
f 39 44 80
f 44 54 80
f 39 40 42
f 40 44 42
f 39 42 48
f 40 80 44
f 14 16 15
f 15 16 17
f 16 97 17
f 17 97 104
f 59 60 84
f 15 17 99
f 15 99 100
f 15 100 67
f 64 67 65
f 70 71 72
f 70 72 113
f 71 77 78
f 71 78 72
f 72 78 85
f 72 85 87
f 60 61 87
f 60 87 84
f 61 65 87
f 83 87 85
f 83 84 87
f 72 87 86
f 86 87 88
f 65 118 87
f 72 86 119
f 87 121 88
f 65 67 118
f 72 114 113
f 105 113 111
f 104 105 111
f 111 113 114
f 17 104 99
f 67 100 117
f 67 117 118
f 72 119 114
f 88 121 120
f 87 118 121
f 99 104 111
f 99 111 116
f 111 118 116
f 116 118 117
f 114 119 121
f 111 114 118
f 119 120 121
f 114 121 118
f 14 15 67
f 14 67 66
f 6 8 7
f 6 21 8
f 6 27 21
f 6 7 29
f 7 20 29
f 21 27 24
f 24 27 33
f 6 29 27
f 27 29 30
f 29 58 30
f 29 59 58
f 29 60 59
f 29 61 60
f 20 63 29
f 29 101 61
f 64 65 66
f 61 101 65
f 11 95 91
f 91 95 98
f 96 97 98
f 95 96 98
f 11 91 63
f 29 63 91
f 29 91 101
f 14 102 16
f 14 66 102
f 65 102 66
f 91 98 101
f 16 102 97
f 97 102 98
f 65 101 102
f 98 102 101
f 45 62 100
f 45 100 99
f 45 86 62
f 62 86 88
f 45 99 86
f 62 88 100
f 99 116 119
f 88 117 100
f 86 99 119
f 88 120 117
f 116 117 120
f 116 120 119
f 41 44 42
f 41 43 44
f 41 42 51
f 51 42 48
f 41 51 55
f 49 51 48
f 49 50 51
f 51 52 55
f 50 52 51
f 43 53 44
f 41 55 43
f 53 54 44
f 43 56 53
f 43 55 56
f 52 56 55
