# MAAS exact compiled indexed mesh
# program_hash 1a4fa6f5a4897e92df7712e81a2884d147d185bcd45b2e925a80163cf46571d1
# geometry_hash b04cdc6e9ad108acbaebc6ed3e5186b55f6bfaec215eded796a60ed9bd85d08a
v -11.19388237 -6.90784396 0.00603052
v -10.61940401 -7.50913179 0.00603052
v -9.97524372 -7.99288416 0.00603052
v -11.68453325 -6.20382635 0.00603052
v -12.07927518 -5.41441424 0.00603052
v -9.27726287 -8.34718947 0.00603052
v -8.54264807 -8.56332355 0.00603052
v -7.78948796 -8.63596447 0.00603052
v -7.39404424 -9.20490158 0
v -7.39404424 -8.59782464 0.00603052
v -12.36838832 -4.55904555 0.00603052
v -12.07927518 -4.5766458 0.00603052
v -12.54475373 -3.65878231 0.00603052
v -12.60402871 -2.73579198 0.00603052
v -12.54475373 -1.81280165 0.00603052
v -12.07927518 -1.36695196 0.00603052
v -12.36838832 -0.91253841 0.00603052
v -12.07927518 -0.05716972 0.00603052
v -7.39404424 -4.5766458 0.00603052
v -7.35127674 -3.05434072 0
v -7.39404424 -2.92203737 0.00603052
v -7.39404424 -2.92203737 0
v -6.51185045 -2.78299336 0.00603052
v -6.51185045 -2.78299336 0
v -7.8967308 -1.36695196 0.00603052
v -0.3529128 -5.48612144 5.73276
v -5.62965666 -2.78299336 0.00603052
v -5.62965666 -2.49782126 0.00603052
v -0.3529128 -2.78299336 5.73276
v -0.3529128 -0.79209615 5.73276
v -11.19388237 -6.90784396 14.2353477
v -10.61940401 -7.50913179 14.2353477
v -9.97524372 -7.99288416 14.2353477
v -11.68453325 -6.20382635 14.2353477
v -12.07927518 -5.41441424 14.2353477
v -9.27726287 -8.34718947 14.2353477
v -8.54264807 -8.56332355 14.2353477
v -7.78948796 -8.63596447 14.2353477
v -7.39404424 -8.59782464 14.2353477
v -7.39404424 -9.20490158 16.5
v -12.36838832 -4.55904555 14.2353477
v -12.54475373 -3.65878231 14.2353477
v -12.60402871 -2.73579198 14.2353477
v -12.54475373 -1.81280165 14.2353477
v -12.36838832 -0.91253841 14.2353477
v -12.07927518 -0.05716972 14.2353477
v -7.39404424 -2.92203737 14.2353477
v -6.51185045 -2.78299336 14.2353477
v -7.39404424 -2.92203737 16.5
v -6.95149136 -2.92510875 16.5
v -6.51185045 -2.78299336 16.5
v -0.3529128 -5.48612144 15.56676
v -5.62965666 -2.78299336 14.2353477
v -5.62965666 -2.49782126 14.2353477
v -0.3529128 -2.78299336 15.56676
v -0.3529128 -0.79209615 15.56676
v -11.68453325 0.7322424 0.00603052
v -11.19388237 1.43626 0.00603052
v -10.61940401 2.03754783 0.00603052
v -9.97524372 2.5213002 0.00603052
v -9.27726287 2.87560551 0.00603052
v -9.26894298 2.87805334 0.00603052
v -9.32576795 3.05384416 -0
v -0.3529128 5.48612097 5.73276
v -11.68453325 0.7322424 14.2353477
v -11.19388237 1.43626 14.2353477
v -10.61940401 2.03754783 14.2353477
v -9.97524372 2.5213002 14.2353477
v -9.27726287 2.87560551 14.2353477
v -9.26894298 2.87805334 14.2353477
v -9.32576795 3.05384416 16.5
v -0.3529128 5.48612097 15.56676
v 12.60402871 -9.20490158 0
v 12.60402871 -5.48612144 5.73276
v 12.60402871 -2.78299336 0
v 12.60402871 -2.78299336 5.73276
v 12.60402871 -9.20490158 16.5
v 12.60402871 -5.48612144 15.56676
v 12.60402871 -2.78299336 15.56676
v 12.60402871 -2.78299336 16.5
v 11.67731806 3.09671624 -0
v 11.67731806 3.09671624 5.73276
v 9.70282686 9.20490112 -0
v 10.90493499 5.48612097 5.73276
v 11.67731806 3.09671624 15.56676
v 11.67731806 3.09671624 16.5
v 10.90493499 5.48612097 15.56676
v 9.70282686 9.20490112 16.5
f 12 16 19
f 16 25 19
f 19 25 21
f 23 28 27
f 1 10 2
f 1 4 10
f 5 11 12
f 4 5 10
f 5 12 10
f 3 10 6
f 6 10 7
f 7 10 8
f 2 10 3
f 10 12 19
f 3 6 33
f 2 3 32
f 1 2 31
f 1 34 4
f 4 35 5
f 5 41 11
f 6 7 36
f 7 8 37
f 8 10 39
f 11 16 12
f 11 13 17
f 13 14 15
f 13 15 17
f 11 17 18
f 11 18 16
f 16 18 57
f 11 42 13
f 13 43 14
f 14 44 15
f 15 45 17
f 17 46 18
f 6 36 33
f 2 32 31
f 3 33 32
f 1 31 34
f 4 34 35
f 5 35 41
f 7 37 36
f 8 38 37
f 8 39 38
f 36 37 70
f 37 38 70
f 38 39 47
f 11 41 42
f 13 42 43
f 14 43 44
f 15 44 45
f 17 45 46
f 34 65 35
f 31 66 34
f 41 45 42
f 35 46 41
f 42 44 43
f 31 32 67
f 32 33 68
f 33 36 69
f 42 45 44
f 41 46 45
f 35 65 46
f 34 66 65
f 31 67 66
f 32 68 67
f 33 69 68
f 38 47 70
f 36 70 69
f 48 53 54
f 16 57 58
f 16 58 59
f 16 59 60
f 16 61 25
f 16 60 61
f 25 61 62
f 18 65 57
f 57 66 58
f 58 67 59
f 59 68 60
f 60 69 61
f 61 69 62
f 18 46 65
f 57 65 66
f 58 66 67
f 59 67 68
f 60 68 69
f 62 69 70
f 21 25 22
f 20 22 24
f 22 25 62
f 23 24 28
f 22 81 24
f 24 81 28
f 28 30 54
f 49 50 51
f 47 49 70
f 54 30 56
f 48 54 51
f 51 54 56
f 49 51 86
f 22 62 63
f 62 70 63
f 22 63 81
f 63 70 71
f 49 71 70
f 49 86 71
f 63 71 88
f 28 81 30
f 51 56 86
f 63 83 81
f 63 88 83
f 81 82 30
f 81 84 82
f 81 83 84
f 83 88 84
f 71 86 88
f 86 56 85
f 86 85 87
f 88 87 84
f 86 87 88
f 27 28 54
f 27 54 53
f 9 10 22
f 10 19 22
f 9 22 20
f 9 39 10
f 19 21 22
f 9 20 73
f 9 73 40
f 23 27 24
f 20 24 75
f 27 53 29
f 9 40 39
f 39 40 47
f 40 49 47
f 40 50 49
f 40 77 50
f 50 77 51
f 53 55 29
f 48 55 53
f 48 51 55
f 20 75 73
f 24 27 75
f 27 29 76
f 73 75 74
f 73 74 78
f 27 76 75
f 75 76 74
f 40 73 77
f 51 77 80
f 51 80 55
f 73 78 77
f 77 78 79
f 77 79 80
f 80 79 55
f 26 29 52
f 52 29 55
f 64 56 30
f 64 72 56
f 26 76 29
f 26 74 76
f 26 52 78
f 52 55 78
f 26 78 74
f 78 55 79
f 64 30 84
f 82 84 30
f 72 85 56
f 64 84 72
f 72 84 87
f 72 87 85
