# MAAS exact compiled indexed mesh
# program_hash 91ad7b8e8348996451719a829d0382c4b33345f59d9acfef1667850b56c7591d
# geometry_hash 30d713043d5982ec860671eb066cc4e3dcef99ecf8af08b48adfe7411c6fb1e8
v -9.14702328 -9.14702328 0
v -2.56116652 -9.14702328 7.095
v -2.56116652 -0.16097824 7.095
v -2.56116652 -0.12623818 6.99856631
v -9.14702328 -9.14702328 16.5
v -2.56116652 -9.14702328 9.405
v -2.56116652 -0.91768216 9.19550686
v -2.56116652 -0.20282446 9.405
v -9.14702328 9.14702328 0
v -2.56116652 0.20282446 7.095
v -2.56116652 1.09764279 7.095
v -2.56116652 1.09764279 7.35723163
v -9.14702328 9.14702328 16.5
v -2.56116652 9.14702328 9.71614862
v -2.56116652 9.14702328 10.62457407
v -2.56116652 8.65158755 11.99983609
v 9.14702328 -9.14702328 0
v 9.14702328 -9.14702328 7.095
v 9.14702328 -0.16097824 7.095
v 9.14702328 -0.12623818 6.99856631
v 9.14702328 -9.14702328 9.405
v 9.14702328 -9.14702328 16.5
v 9.14702328 -0.20282446 9.405
v 9.14702328 0.20282446 7.095
v 9.14702328 1.09764279 7.095
v 9.14702328 1.09764279 7.35723163
v 9.14702328 9.14702328 0
v 9.14702328 9.14702328 9.71614862
v 9.14702328 9.14702328 10.62457407
v 9.14702328 8.65158755 11.99983609
v 9.14702328 9.14702328 16.5
f 1 2 6
f 1 17 2
f 1 9 17
f 1 6 5
f 1 5 13
f 5 6 21
f 5 22 13
f 1 13 9
f 9 14 28
f 9 13 14
f 13 15 14
f 13 31 15
f 17 18 2
f 17 20 18
f 17 24 20
f 17 25 24
f 19 18 20
f 5 21 22
f 22 21 23
f 22 23 31
f 9 27 17
f 9 28 27
f 17 27 25
f 27 26 25
f 27 28 26
f 13 22 31
f 31 29 15
f 31 23 30
f 31 30 29
f 3 7 2
f 7 6 2
f 7 8 6
f 10 11 12
f 3 2 18
f 3 18 19
f 8 21 6
f 8 23 21
f 10 24 11
f 11 25 12
f 11 24 25
f 12 25 26
f 3 8 7
f 4 16 3
f 4 10 16
f 10 12 16
f 3 16 8
f 12 14 16
f 16 14 15
f 4 3 19
f 4 20 10
f 4 19 20
f 10 20 24
f 12 26 28
f 12 28 14
f 8 16 30
f 16 15 30
f 8 30 23
f 30 15 29
