# MAAS exact compiled indexed mesh
# program_hash 983b8e64064681048110967e88756d814e5a23c96822370ed148050c6b045c54
# geometry_hash d0ba566a4d9cfe98c6425d5538fc678493753c42072f7703c9a0c4919f4944f6
v -9.62776189 -11.77412417 0.0009898
v -2.59827311 -11.77604953 0
v -2.59827311 -11.77412417 0.0009898
v -2.59827311 -2.3153411 0.0009898
v -2.59827311 -2.3153411 0
v -2.32667851 -2.36122174 0
v -1.92439716 -2.14732495 0.0009898
v -1.92439716 -2.14732495 0
v -1.25052122 -2.14732495 0.0009898
v -1.25052122 -1.78901876 0.0009898
v -9.62776189 -11.77412417 9.8990102
v -2.59827311 -11.77604953 9.9
v -2.59827311 -11.77412417 9.8990102
v -2.59827311 -2.3153411 9.8990102
v -2.59827311 -2.3153411 9.9
v -2.32667851 -2.36122174 9.9
v -1.92439716 -2.14732495 9.8990102
v -1.92439716 -2.14732495 9.9
v -1.25052122 -2.14732495 9.8990102
v -1.25052122 -1.78901876 9.8990102
v -9.62776189 7.47947426 0.0009898
v -7.03890278 6.03626865 0
v -7.03890278 6.03626865 0.0009898
v -4.32462778 7.47947426 0.0009898
v -9.62776189 7.47947426 9.8990102
v -7.03890278 6.03626865 9.9
v -7.03890278 6.03626865 9.8990102
v -4.32462778 7.47947426 9.8990102
v 9.62776189 -11.77604953 0
v 9.62776189 -2.14732495 0
v 9.62776189 -11.77604953 9.9
v 9.62776189 -2.14732495 9.9
v 3.7560454 11.77604441 0
v 8.27555387 3.27608521 0
v 2.11412889 -2.56e-06 4.95
v 0 -2.56e-06 9.9
v 2.11412889 -2.56e-06 9.9
v 3.7560454 11.77604441 4.95
v 0 9.77891964 9.9
v 3.7560454 11.77604441 9.9
v 8.27555387 3.27608521 4.95
v 8.04059364 3.71798113 5.715765
v 8.72938524 4.08421812 5.715765
v 8.04059364 3.71798113 9.134235
v 8.27555387 3.27608521 9.9
v 8.72938524 4.08421812 9.134235
v 4.91942109 9.58805295 5.715765
v 5.60821269 9.95428994 5.715765
v 4.91942109 9.58805295 6.22418938
v 5.4397146 8.60952317 9.134235
v 4.91942109 9.58805295 8.34273276
v 4.91942109 9.58805295 9.134235
v 5.60821269 9.95428994 9.134235
f 1 3 13
f 1 21 3
f 3 23 4
f 7 10 9
f 1 13 11
f 11 13 14
f 1 11 25
f 11 14 27
f 17 19 20
f 3 21 23
f 1 25 21
f 21 24 23
f 21 25 24
f 11 27 25
f 24 25 28
f 25 27 28
f 7 8 10
f 10 37 20
f 17 20 18
f 18 20 37
f 4 23 22
f 22 23 24
f 4 22 5
f 5 22 6
f 6 22 8
f 8 22 34
f 22 24 33
f 24 28 33
f 15 26 27
f 26 28 27
f 14 15 27
f 15 16 26
f 16 18 26
f 18 36 26
f 26 36 39
f 28 39 33
f 26 39 28
f 8 34 10
f 10 35 37
f 18 37 36
f 10 34 35
f 22 33 34
f 34 41 35
f 33 41 34
f 33 38 41
f 33 39 40
f 38 40 49
f 40 52 49
f 40 45 52
f 45 50 52
f 38 49 51
f 38 51 40
f 35 45 37
f 37 45 36
f 45 39 36
f 47 38 40
f 47 40 49
f 40 39 45
f 40 51 49
f 35 41 45
f 42 41 47
f 42 44 41
f 44 45 41
f 44 50 45
f 47 41 38
f 42 43 44
f 43 46 44
f 44 46 50
f 47 53 48
f 47 49 53
f 43 48 46
f 46 48 53
f 46 52 50
f 46 53 52
f 53 49 52
f 9 10 20
f 9 20 19
f 2 3 5
f 2 13 3
f 3 4 5
f 2 5 6
f 7 9 8
f 2 12 13
f 12 14 13
f 12 15 14
f 12 16 15
f 17 18 19
f 2 6 29
f 2 29 12
f 6 8 30
f 8 9 30
f 29 30 31
f 6 30 29
f 9 32 30
f 12 31 16
f 9 19 32
f 16 31 18
f 18 32 19
f 12 29 31
f 30 32 31
f 18 31 32
f 42 47 48
f 42 48 43
