# MAAS exact compiled indexed mesh
# program_hash b7ecbccc3bd2aeadb708042e970d0dcbdb3677ab203ce938370d4575e78c69ec
# geometry_hash 2d1668ee4f2f4d435c77fdd3c480d1ff628d4aa1b3de6855328e7ef96eb02c3f
v -26.09920749 -19.34308668 0
v -26.09920749 -16.77238673 0
v -26.09920749 -19.34308668 3.54982897
v -26.09920749 -16.77238673 3.54982897
v -26.09920749 -14.20168677 0
v -26.09920749 -11.63098682 0
v -26.09920749 -14.20168677 3.54982897
v -26.09920749 -11.63098682 3.54982897
v -13.14324569 -17.86694129 0
v -13.72152736 -15.36212821 0
v -13.14324569 -17.86694129 3.54982897
v -14.29980902 -12.85731513 0
v -15.73348188 -10.84319167 0
v -26.09920749 -19.34308668 7.09965794
v -26.09920749 -16.77238673 7.09965794
v -26.09920749 -14.20168677 7.09965794
v -26.09920749 -11.63098682 7.09965794
v -13.14324569 -17.86694129 7.09965794
v -26.09920749 -9.06028687 0
v -26.09920749 -6.48958691 0
v -26.09920749 -9.06028687 3.54982897
v -26.09920749 -6.48958691 3.54982897
v -16.03465402 -5.34287589 0
v -15.73348188 -5.23622524 0
v -16.03465402 -5.34287589 3.54982897
v -26.09920749 -9.06028687 7.09965794
v -26.09920749 -6.48958691 7.09965794
v -16.03465402 -5.34287589 7.09965794
v -4.95312723 -10.84319167 0
v -0.85140482 -13.51417215 0
v -1.97832551 -11.20364233 0
v -0.85140482 -13.51417215 3.54982897
v -0.85140482 -13.51417215 7.09965794
v -4.23216688 -6.58258271 0
v -3.10524619 -8.89311252 0
v -4.95312723 -0.98497017 0
v -26.09920749 -19.34308668 10.64948691
v -26.09920749 -16.77238673 10.64948691
v -26.09920749 -14.20168677 10.64948691
v -26.09920749 -11.63098682 10.64948691
v -13.14324569 -17.86694129 10.64948691
v -26.09920749 -19.34308668 14.19931589
v -26.09920749 -16.77238673 14.19931589
v -26.09920749 -19.34308668 17.74914486
v -26.09920749 -16.77238673 17.74914486
v -26.09920749 -14.20168677 14.19931589
v -26.09920749 -11.63098682 14.19931589
v -26.09920749 -14.20168677 17.74914486
v -26.09920749 -11.63098682 17.74914486
v -13.14324569 -17.86694129 14.19931589
v -13.14324569 -17.86694129 17.74914486
v -13.72152736 -15.36212821 17.74914486
v -14.29980902 -12.85731513 17.74914486
v -15.73348188 -10.84319167 17.74914486
v -26.09920749 -9.06028687 10.64948691
v -26.09920749 -6.48958691 10.64948691
v -16.03465402 -5.34287589 10.64948691
v -26.09920749 -9.06028687 14.19931589
v -26.09920749 -6.48958691 14.19931589
v -26.09920749 -9.06028687 17.74914486
v -26.09920749 -6.48958691 17.74914486
v -16.03465402 -5.34287589 14.19931589
v -16.03465402 -5.34287589 17.74914486
v -15.73348188 -5.23622524 17.74914486
v -0.85140482 -13.51417215 10.64948691
v -0.85140482 -13.51417215 14.19931589
v -4.95312723 -10.84319167 17.74914486
v -0.85140482 -13.51417215 17.74914486
v -1.97832551 -11.20364233 17.74914486
v -4.23216688 -6.58258271 17.74914486
v -3.10524619 -8.89311252 17.74914486
v -4.95312723 -0.98497017 17.74914486
v 5.29285526 -0.51447437 0
v 10.14623696 -6.50790163 0
v 10.14623696 -6.50790163 3.54982897
v 6.91064916 -2.51228345 0
v 8.52844306 -4.51009254 0
v 10.14623696 -6.50790163 7.09965794
v 10.14623696 -6.50790163 10.64948691
v 5.29285526 -0.51447437 17.74914486
v 10.14623696 -6.50790163 14.19931589
v 10.14623696 -6.50790163 17.74914486
v 6.91064916 -2.51228345 17.74914486
v 8.52844306 -4.51009254 17.74914486
v 2.05726746 3.48114381 0
v 3.67506136 1.48333472 0
v 2.05726746 3.48114381 3.54982897
v 11.18298513 9.12345345 0
v 2.05726746 3.48114381 7.09965794
v 9.15724592 10.70613438 0
v 9.15724592 10.70613438 3.54982897
v 9.15724592 10.70613438 7.09965794
v 17.26020275 4.37541067 0
v 19.28594196 2.79272975 0
v 19.28594196 2.79272975 3.54982897
v 15.23446354 5.9580916 0
v 13.20872434 7.54077252 0
v 19.28594196 2.79272975 7.09965794
v 14.44998315 19.34309654 0
v 16.77982853 18.2566718 0
v 19.10967392 17.17024705 0
v 14.44998315 19.34309654 3.54982897
v 16.77982853 18.2566718 3.54982897
v 19.10967392 17.17024705 3.54982897
v 26.09921008 13.91097282 0
v 26.09921008 13.91097282 3.54982897
v 21.4395193 16.08382231 0
v 23.76936469 14.99739756 0
v 21.4395193 16.08382231 3.54982897
v 23.76936469 14.99739756 3.54982897
v 14.44998315 19.34309654 7.09965794
v 16.77982853 18.2566718 7.09965794
v 19.10967392 17.17024705 7.09965794
v 26.09921008 13.91097282 7.09965794
v 21.4395193 16.08382231 7.09965794
v 23.76936469 14.99739756 7.09965794
v 2.05726746 3.48114381 10.64948691
v 2.05726746 3.48114381 14.19931589
v 2.05726746 3.48114381 17.74914486
v 3.67506136 1.48333472 17.74914486
v 11.18298513 9.12345345 17.74914486
v 9.15724592 10.70613438 10.64948691
v 9.15724592 10.70613438 14.19931589
v 9.15724592 10.70613438 17.74914486
v 19.28594196 2.79272975 10.64948691
v 19.28594196 2.79272975 14.19931589
v 17.26020275 4.37541067 17.74914486
v 19.28594196 2.79272975 17.74914486
v 15.23446354 5.9580916 17.74914486
v 13.20872434 7.54077252 17.74914486
v 14.44998315 19.34309654 10.64948691
v 16.77982853 18.2566718 10.64948691
v 19.10967392 17.17024705 10.64948691
v 26.09921008 13.91097282 10.64948691
v 21.4395193 16.08382231 10.64948691
v 23.76936469 14.99739756 10.64948691
v 14.44998315 19.34309654 14.19931589
v 16.77982853 18.2566718 14.19931589
v 19.10967392 17.17024705 14.19931589
v 14.44998315 19.34309654 17.74914486
v 16.77982853 18.2566718 17.74914486
v 19.10967392 17.17024705 17.74914486
v 26.09921008 13.91097282 14.19931589
v 26.09921008 13.91097282 17.74914486
v 21.4395193 16.08382231 14.19931589
v 23.76936469 14.99739756 14.19931589
v 21.4395193 16.08382231 17.74914486
v 23.76936469 14.99739756 17.74914486
f 1 4 2
f 2 7 5
f 1 2 9
f 1 9 3
f 2 5 10
f 1 3 4
f 2 4 7
f 5 8 6
f 6 21 19
f 5 6 12
f 6 19 13
f 5 7 8
f 6 8 21
f 2 10 9
f 3 9 11
f 5 12 10
f 6 13 12
f 3 15 4
f 3 14 15
f 4 16 7
f 4 15 16
f 3 11 14
f 14 38 15
f 15 39 16
f 14 18 37
f 7 17 8
f 7 16 17
f 8 26 21
f 8 17 26
f 16 40 17
f 17 55 26
f 11 18 14
f 19 22 20
f 19 20 13
f 19 21 22
f 20 22 25
f 20 23 13
f 20 25 23
f 23 24 13
f 23 25 24
f 25 28 24
f 21 27 22
f 21 26 27
f 22 27 28
f 26 56 27
f 22 28 25
f 28 57 24
f 27 57 28
f 57 62 24
f 9 10 30
f 9 30 11
f 10 12 31
f 12 13 29
f 12 29 31
f 11 30 32
f 10 31 30
f 31 29 35
f 11 32 18
f 18 33 41
f 18 32 33
f 34 35 29
f 34 29 36
f 34 76 35
f 34 36 73
f 14 37 38
f 15 38 39
f 37 43 38
f 37 42 43
f 38 46 39
f 38 43 46
f 37 41 42
f 16 39 40
f 17 40 55
f 39 47 40
f 39 46 47
f 40 58 55
f 40 47 58
f 18 41 37
f 41 50 42
f 42 45 43
f 43 48 46
f 42 50 44
f 42 44 45
f 43 45 48
f 44 51 45
f 45 52 48
f 46 49 47
f 47 60 58
f 46 48 49
f 47 49 60
f 48 53 49
f 49 54 60
f 44 50 51
f 45 51 52
f 48 52 53
f 49 53 54
f 26 55 56
f 27 56 57
f 55 59 56
f 55 58 59
f 56 59 62
f 62 63 24
f 56 62 57
f 63 64 24
f 58 61 59
f 58 60 61
f 60 54 61
f 59 61 63
f 59 63 62
f 61 54 63
f 63 54 64
f 41 65 50
f 33 65 41
f 50 65 66
f 50 66 51
f 51 68 52
f 52 69 53
f 53 67 54
f 53 69 67
f 51 66 68
f 52 68 69
f 69 71 67
f 70 67 71
f 70 72 67
f 70 71 83
f 70 80 72
f 85 36 72
f 85 72 87
f 87 72 89
f 89 72 117
f 117 72 118
f 118 72 119
f 30 31 74
f 30 74 32
f 32 75 33
f 33 78 65
f 31 35 77
f 31 77 74
f 35 76 77
f 32 74 75
f 34 73 76
f 73 36 86
f 74 77 94
f 76 93 77
f 33 75 78
f 74 94 75
f 75 94 95
f 75 95 78
f 78 95 98
f 78 98 79
f 65 79 66
f 66 81 68
f 68 82 69
f 65 78 79
f 66 79 81
f 69 84 71
f 68 81 82
f 69 82 84
f 71 84 83
f 70 83 80
f 80 120 72
f 82 128 84
f 83 84 127
f 79 98 125
f 79 125 81
f 81 125 126
f 81 126 82
f 82 126 128
f 85 86 36
f 85 88 86
f 85 87 91
f 73 96 76
f 73 86 97
f 73 97 96
f 86 88 97
f 85 90 88
f 85 91 90
f 87 89 92
f 87 92 91
f 89 122 92
f 88 90 100
f 90 91 102
f 90 102 99
f 91 92 111
f 91 111 102
f 92 131 111
f 77 93 94
f 76 96 93
f 93 96 108
f 93 105 94
f 94 105 95
f 95 106 98
f 98 114 125
f 88 101 97
f 96 97 107
f 97 101 107
f 90 99 100
f 88 100 101
f 99 103 100
f 100 104 101
f 99 102 103
f 100 103 104
f 93 108 105
f 96 107 108
f 105 108 106
f 95 105 106
f 101 109 107
f 107 110 108
f 101 104 109
f 107 109 110
f 106 108 110
f 102 112 103
f 102 111 112
f 103 113 104
f 103 112 113
f 111 132 112
f 112 133 113
f 98 106 114
f 106 110 114
f 114 116 134
f 104 115 109
f 104 113 115
f 109 115 116
f 109 116 110
f 110 116 114
f 113 135 115
f 115 136 116
f 89 117 122
f 117 118 123
f 117 123 122
f 119 72 120
f 119 120 121
f 118 119 124
f 80 83 129
f 80 130 120
f 80 129 130
f 118 124 123
f 120 130 121
f 119 121 124
f 92 122 131
f 122 123 137
f 122 137 131
f 123 124 140
f 121 141 124
f 123 140 137
f 125 134 126
f 84 128 127
f 83 127 129
f 127 148 129
f 126 143 128
f 127 128 144
f 111 131 132
f 112 132 133
f 131 138 132
f 131 137 138
f 132 139 133
f 132 138 139
f 114 134 125
f 126 134 143
f 134 136 143
f 113 133 135
f 115 135 136
f 116 136 134
f 133 145 135
f 133 139 145
f 135 145 146
f 135 146 136
f 136 146 143
f 121 130 142
f 129 147 130
f 130 147 142
f 137 141 138
f 138 142 139
f 124 141 140
f 121 142 141
f 137 140 141
f 138 141 142
f 143 146 144
f 127 144 148
f 129 148 147
f 128 143 144
f 139 147 145
f 145 148 146
f 139 142 147
f 145 147 148
f 144 146 148
f 54 13 24
f 29 13 54
f 29 67 36
f 24 64 54
f 54 67 29
f 36 67 72
