# MAAS exact compiled indexed mesh
# program_hash df4e0bca8c7626d5f30cabde308d43fe190be78592167d8126e6afcea07d6775
# geometry_hash fad9fda1decd2982157da322e3b3f61849382bab55a47f0f476ff3f90cc28cea
v -9.53759755 -10.37049944 1.77161409
v -12.92340546 -9.97112953 3.37363845
v -9.13822764 -13.75630736 3.37363845
v -12.92340546 -5.56319659 1.90470334
v -14.30639633 -0.83290189 2.19743706
v -9.13822764 -5.56319659 0.64330016
v -11.68112369 -0.83290189 1.05728816
v -8.25980177 -0.83290189 0.18242113
v -15.21634547 -5.38043593 3.43454309
v -15.9567117 -0.83290189 3.52516858
v -6.93823349 -12.20124481 1.84357698
v -6.93823349 -10.15455553 1.16152174
v -6.93823349 -13.75630736 2.64049466
v -6.93823349 -14.85515103 3.40282573
v -6.93823349 -15.46324035 4.41049694
v -6.93823349 -7.76319075 0.64330016
v -6.93823349 -5.47561236 0.27711264
v -6.93823349 -2.4518252 0.07446805
v -6.93823349 -0.83290189 -2.69e-06
v -14.30639633 -9.09270366 4.95
v -12.92340546 -9.97112953 6.52636155
v -11.68112369 -12.51402558 4.95
v -8.25980177 -15.13929822 4.95
v -9.13822764 -13.75630736 6.52636155
v -9.53759755 -10.37049944 8.12838591
v -15.9567117 -5.10848991 4.95
v -15.21634547 -5.38043593 6.46545691
v -16.51960354 -0.83290189 4.95
v -15.9567117 -0.83290189 6.37483142
v -12.92340546 -5.56319659 7.99529666
v -14.30639633 -0.83290189 7.70256294
v -9.13822764 -5.56319659 9.25669984
v -11.68112369 -0.83290189 8.84271184
v -8.25980177 -0.83290189 9.71757887
v -6.93823349 -15.68670973 4.95
v -6.93823349 -15.46324035 5.48950306
v -6.93823349 -14.85515103 6.49717427
v -6.93823349 -13.75630736 7.25950534
v -6.93823349 -12.20124481 8.05642302
v -6.93823349 -10.15455553 8.73847826
v -6.93823349 -7.76319075 9.25669984
v -6.93823349 -5.47561236 9.62288736
v -6.93823349 -2.4518252 9.82553195
v -6.93823349 -0.83290189 9.90000269
v -12.92340546 3.89739281 1.90470334
v -9.13822764 3.89739281 0.64330016
v -15.21634547 3.71463215 3.43454309
v -9.53759755 8.70469566 1.77161409
v -12.92340546 8.30532575 3.37363845
v -9.13822764 12.09050357 3.37363845
v -6.93823349 0.78602142 0.07446805
v -6.93823349 3.80980858 0.27711264
v -6.93823349 6.09738696 0.64330016
v -6.93823349 6.1053316 0.6450218
v -6.93028886 6.1053316 0.64330016
v -4.64271047 6.1053316 0.27711264
v -1.61892331 6.1053316 0.07446805
v -4.7302947 8.30532575 0.64330016
v -4.7302947 12.09050357 1.90470334
v -4.54753404 14.38344358 3.43454309
v -15.9567117 3.44268612 4.95
v -15.21634547 3.71463215 6.46545691
v -14.30639633 7.42689988 4.95
v -12.92340546 3.89739281 7.99529666
v -9.13822764 3.89739281 9.25669984
v -12.92340546 8.30532575 6.52636155
v -11.68112369 10.8482218 4.95
v -8.25980177 13.47349444 4.95
v -9.13822764 12.09050357 6.52636155
v -9.53759755 8.70469566 8.12838591
v -6.93823349 0.78602142 9.82553195
v -6.93823349 3.80980858 9.62288736
v -6.93823349 6.09738696 9.25669984
v -6.93823349 6.1053316 9.2549782
v -6.93028886 6.1053316 9.25669984
v -4.64271047 6.1053316 9.62288736
v -1.61892331 6.1053316 9.82553195
v -4.27558801 15.12380981 4.95
v -4.54753404 14.38344358 6.46545691
v -4.7302947 8.30532575 9.25669984
v -4.7302947 12.09050357 7.99529666
v 6.93823349 -12.20124481 1.84357698
v 6.93823349 -10.15455553 1.16152174
v 6.93823349 -13.75630736 2.64049466
v 6.93823349 -14.85515103 3.40282573
v 6.93823349 -15.46324035 4.41049694
v 6.93823349 -7.76319075 0.64330016
v 6.93823349 -5.47561236 0.27711264
v 6.93823349 -2.4518252 0.07446805
v 6.93823349 -0.83290189 -2.69e-06
v 9.53759755 -10.37049944 1.77161409
v 9.13822764 -13.75630736 3.37363845
v 12.92340546 -9.97112953 3.37363845
v 9.13822764 -5.56319659 0.64330016
v 8.25980177 -0.83290189 0.18242113
v 11.68112369 -0.83290189 1.05728816
v 12.92340546 -5.56319659 1.90470334
v 14.30639633 -0.83290189 2.19743706
v 15.21634547 -5.38043593 3.43454309
v 15.9567117 -0.83290189 3.52516858
v 6.93823349 -15.68670973 4.95
v 6.93823349 -15.46324035 5.48950306
v 6.93823349 -14.85515103 6.49717427
v 6.93823349 -13.75630736 7.25950534
v 6.93823349 -12.20124481 8.05642302
v 6.93823349 -10.15455553 8.73847826
v 6.93823349 -7.76319075 9.25669984
v 6.93823349 -5.47561236 9.62288736
v 6.93823349 -2.4518252 9.82553195
v 6.93823349 -0.83290189 9.90000269
v 8.25980177 -15.13929822 4.95
v 11.68112369 -12.51402558 4.95
v 9.13822764 -13.75630736 6.52636155
v 14.30639633 -9.09270366 4.95
v 12.92340546 -9.97112953 6.52636155
v 9.53759755 -10.37049944 8.12838591
v 15.9567117 -5.10848991 4.95
v 15.21634547 -5.38043593 6.46545691
v 16.51960354 -0.83290189 4.95
v 15.9567117 -0.83290189 6.37483142
v 9.13822764 -5.56319659 9.25669984
v 8.25980177 -0.83290189 9.71757887
v 11.68112369 -0.83290189 8.84271184
v 12.92340546 -5.56319659 7.99529666
v 14.30639633 -0.83290189 7.70256294
v 0 6.1053316 -2.69e-06
v 0 7.42689988 0.18242113
v 1.61892331 6.1053316 0.07446805
v 6.93823349 0.78602142 0.07446805
v 6.93823349 3.80980858 0.27711264
v 4.64271047 6.1053316 0.27711264
v 6.93028886 6.1053316 0.64330016
v 6.93823349 6.09738696 0.64330016
v 6.93823349 6.1053316 0.6450218
v 0 10.8482218 1.05728816
v 0 13.47349444 2.19743706
v 4.7302947 8.30532575 0.64330016
v 4.7302947 12.09050357 1.90470334
v 0 15.12380981 3.52516858
v 4.54753404 14.38344358 3.43454309
v 9.13822764 3.89739281 0.64330016
v 12.92340546 3.89739281 1.90470334
v 15.21634547 3.71463215 3.43454309
v 9.53759755 8.70469566 1.77161409
v 9.13822764 12.09050357 3.37363845
v 12.92340546 8.30532575 3.37363845
v 0 6.1053316 9.90000269
v 0 7.42689988 9.71757887
v 1.61892331 6.1053316 9.82553195
v 6.93823349 0.78602142 9.82553195
v 6.93823349 3.80980858 9.62288736
v 4.64271047 6.1053316 9.62288736
v 6.93028886 6.1053316 9.25669984
v 6.93823349 6.09738696 9.25669984
v 6.93823349 6.1053316 9.2549782
v 0 15.68670165 4.95
v 0 15.12380981 6.37483142
v 4.27558801 15.12380981 4.95
v 4.54753404 14.38344358 6.46545691
v 0 10.8482218 8.84271184
v 0 13.47349444 7.70256294
v 4.7302947 8.30532575 9.25669984
v 4.7302947 12.09050357 7.99529666
v 15.9567117 3.44268612 4.95
v 15.21634547 3.71463215 6.46545691
v 14.30639633 7.42689988 4.95
v 9.13822764 3.89739281 9.25669984
v 12.92340546 3.89739281 7.99529666
v 11.68112369 10.8482218 4.95
v 8.25980177 13.47349444 4.95
v 9.13822764 12.09050357 6.52636155
v 12.92340546 8.30532575 6.52636155
v 9.53759755 8.70469566 8.12838591
f 1 6 16
f 1 2 4
f 2 22 20
f 2 20 9
f 1 13 3
f 2 3 22
f 3 23 22
f 1 3 2
f 4 5 7
f 4 7 6
f 1 4 6
f 6 7 8
f 2 9 4
f 4 9 5
f 9 20 26
f 9 10 5
f 9 26 10
f 26 28 10
f 1 11 13
f 1 16 12
f 1 12 11
f 3 13 14
f 3 15 23
f 3 14 15
f 23 15 35
f 6 17 16
f 6 18 17
f 6 8 18
f 8 19 18
f 8 51 19
f 21 20 22
f 21 27 20
f 21 22 24
f 23 24 22
f 24 38 25
f 21 24 25
f 21 25 30
f 25 41 32
f 26 20 27
f 21 30 27
f 27 30 31
f 26 29 28
f 26 27 29
f 27 31 29
f 30 33 31
f 25 32 30
f 30 32 33
f 32 34 33
f 23 35 36
f 23 36 24
f 24 36 37
f 24 37 38
f 25 38 39
f 25 39 40
f 25 40 41
f 32 41 42
f 32 42 43
f 32 43 34
f 34 43 44
f 34 44 71
f 45 7 5
f 45 46 7
f 8 7 46
f 46 48 53
f 45 48 46
f 45 49 48
f 10 47 5
f 45 5 47
f 10 28 61
f 10 61 47
f 45 47 49
f 47 61 63
f 47 63 49
f 49 63 67
f 48 49 50
f 49 67 50
f 50 67 68
f 8 46 51
f 46 52 51
f 46 53 52
f 48 54 53
f 48 55 54
f 48 58 55
f 58 56 55
f 58 57 56
f 58 127 57
f 127 126 57
f 48 59 58
f 48 50 59
f 58 59 135
f 58 135 127
f 59 136 135
f 50 60 59
f 50 68 60
f 60 68 78
f 59 60 136
f 60 139 136
f 60 78 139
f 78 156 139
f 28 29 61
f 29 62 61
f 29 31 62
f 62 31 64
f 61 62 63
f 62 66 63
f 62 64 66
f 31 33 64
f 64 33 65
f 33 34 65
f 64 65 70
f 64 70 66
f 65 73 70
f 63 66 67
f 66 69 67
f 66 70 69
f 67 69 68
f 34 71 65
f 65 71 72
f 65 72 73
f 70 74 75
f 70 73 74
f 70 75 80
f 80 75 76
f 80 76 77
f 80 77 148
f 148 77 147
f 68 69 79
f 68 79 78
f 69 81 79
f 78 79 157
f 78 157 156
f 79 81 161
f 79 161 157
f 70 80 81
f 69 70 81
f 80 160 81
f 80 148 160
f 81 160 161
f 91 84 82
f 91 83 87
f 91 82 83
f 92 85 84
f 92 111 86
f 92 86 85
f 111 101 86
f 94 87 88
f 94 88 89
f 94 89 95
f 95 89 90
f 95 90 129
f 91 87 94
f 91 97 93
f 91 92 84
f 92 112 111
f 92 93 112
f 91 93 92
f 93 114 112
f 93 99 114
f 94 96 97
f 91 94 97
f 94 95 96
f 97 96 98
f 93 97 99
f 97 98 99
f 99 117 114
f 99 98 100
f 99 100 117
f 117 100 119
f 111 102 101
f 111 113 102
f 113 103 102
f 113 104 103
f 116 105 104
f 116 106 105
f 116 107 106
f 121 108 107
f 121 109 108
f 121 122 109
f 122 110 109
f 122 150 110
f 111 112 113
f 113 112 115
f 113 116 104
f 113 115 116
f 112 114 115
f 114 118 115
f 115 124 116
f 116 121 107
f 114 117 118
f 115 118 124
f 118 125 124
f 117 119 120
f 117 120 118
f 118 120 125
f 116 124 121
f 121 124 123
f 121 123 122
f 124 125 123
f 127 128 126
f 127 137 128
f 137 131 128
f 95 129 141
f 141 129 130
f 137 132 131
f 141 130 133
f 137 144 132
f 144 134 132
f 144 133 134
f 127 135 137
f 135 138 137
f 135 136 138
f 137 138 144
f 138 145 144
f 136 139 140
f 136 140 138
f 139 156 158
f 139 158 140
f 138 140 145
f 140 158 170
f 140 170 145
f 95 141 96
f 96 141 142
f 141 133 144
f 141 144 142
f 142 144 146
f 96 142 98
f 98 142 143
f 98 143 100
f 100 164 119
f 100 143 164
f 142 146 143
f 143 146 166
f 143 166 164
f 144 145 146
f 145 169 146
f 145 170 169
f 146 169 166
f 148 147 149
f 148 149 162
f 162 149 152
f 122 167 150
f 167 151 150
f 162 152 153
f 167 154 151
f 162 153 173
f 173 155 154
f 173 153 155
f 156 157 158
f 157 159 158
f 157 161 159
f 159 161 163
f 158 159 170
f 159 171 170
f 159 163 171
f 160 148 162
f 160 162 163
f 160 163 161
f 162 173 163
f 163 173 171
f 119 164 120
f 120 164 165
f 165 168 125
f 120 165 125
f 165 166 172
f 164 166 165
f 165 172 168
f 123 167 122
f 123 168 167
f 167 168 173
f 168 172 173
f 167 173 154
f 123 125 168
f 169 171 172
f 171 173 172
f 169 170 171
f 169 172 166
f 12 14 13
f 12 13 11
f 12 35 15
f 12 15 14
f 12 36 35
f 12 37 36
f 12 16 38
f 17 39 16
f 17 18 39
f 18 19 41
f 19 51 41
f 41 51 52
f 12 38 37
f 16 39 38
f 18 40 39
f 18 41 40
f 41 54 42
f 42 54 43
f 41 52 53
f 41 53 54
f 55 74 54
f 55 56 75
f 57 152 56
f 43 54 44
f 71 44 54
f 71 54 72
f 73 72 54
f 73 54 74
f 55 75 74
f 56 76 75
f 76 56 77
f 77 56 147
f 147 56 149
f 83 84 85
f 83 82 84
f 83 86 101
f 83 85 86
f 83 101 102
f 83 102 103
f 83 104 87
f 88 87 105
f 88 105 89
f 90 89 107
f 90 107 129
f 107 130 129
f 83 103 104
f 87 104 105
f 89 105 106
f 89 106 107
f 107 108 134
f 109 134 108
f 57 126 152
f 126 128 152
f 128 131 152
f 107 133 130
f 107 134 133
f 131 132 153
f 132 134 155
f 149 56 152
f 109 110 134
f 110 150 134
f 150 151 134
f 131 153 152
f 154 134 151
f 132 155 153
f 154 155 134
