# MAAS exact compiled indexed mesh
# program_hash 977aabb8c5b462594fbc4afba2c87e411e32a7121360d512ca73396366794152
# geometry_hash bbb14660c084e069d801c3a2dfd578cb894aeda55d36657e978e46ab21fe7f89
v -16.21488408 -11.63241684 0
v -4.22996976 -11.63241684 0
v -16.21488408 -11.63241684 7.3220339
v -14.0998992 -7.40244708 7.3220339
v -14.0998992 -7.40244708 10.86101695
v -8.45993952 -3.47461802 10.86101695
v -4.22996976 -11.63241684 7.3220339
v -4.22996976 -7.40244708 7.24067797
v -4.22996976 -7.40244708 7.3220339
v -4.22996976 -7.40244708 10.86101695
v -4.22996976 -5.2874622 7.2
v -4.22996976 -5.2874622 10.86101695
v -16.21488408 7.40244708 0
v -4.22996976 7.40244708 0
v -14.0998992 1.7624874 7.3220339
v -8.45993952 1.7624874 7.3220339
v -8.45993952 3.87747228 7.3220339
v -14.0998992 1.7624874 10.86101695
v -8.45993952 1.7624874 10.86101695
v -8.45993952 3.87747228 10.86101695
v -16.21488408 7.40244708 7.3220339
v -4.22996976 3.87747228 7.2
v -4.22996976 3.87747228 7.3220339
v -4.22996976 7.40244708 7.3220339
v 4.22996976 -5.99245716 0
v 16.21488408 -5.99245716 0
v 4.22996976 -5.99245716 7.3220339
v 4.22996976 -5.2874622 7.2
v 4.22996976 -5.2874622 7.3220339
v 6.34495464 -1.05749244 10.86101695
v 6.34495464 -1.05749244 14.4
v 16.21488408 -5.99245716 7.3220339
v 8.45993952 -5.2874622 7.3220339
v 8.45993952 -3.87747228 7.3220339
v 16.21488408 -3.87747228 7.3220339
v 8.45993952 -5.2874622 10.86101695
v 8.45993952 -3.87747228 10.86101695
v 8.45993952 -1.05749244 10.86101695
v 16.21488408 -3.87747228 10.86101695
v 13.39490424 -1.05749244 10.86101695
v 13.39490424 -1.05749244 14.4
v 4.22996976 11.63241684 0
v 16.21488408 11.63241684 0
v 4.22996976 3.87747228 7.2
v 4.22996976 3.87747228 7.3220339
v 4.22996976 3.87747228 10.86101695
v 6.34495464 3.87747228 10.86101695
v 6.34495464 5.2874622 10.86101695
v 6.34495464 5.2874622 14.4
v 4.22996976 8.10744204 7.3220339
v 4.22996976 11.63241684 7.3220339
v 4.22996976 8.10744204 10.86101695
v 13.39490424 5.2874622 10.86101695
v 13.39490424 5.2874622 14.4
v 16.21488408 8.10744204 7.3220339
v 16.21488408 11.63241684 7.3220339
v 16.21488408 8.10744204 10.86101695
f 1 2 3
f 2 7 3
f 1 13 2
f 1 3 21
f 2 14 7
f 7 14 8
f 8 14 11
f 3 7 4
f 3 4 15
f 3 15 21
f 4 7 9
f 7 8 9
f 1 21 13
f 2 13 14
f 13 24 14
f 13 21 24
f 11 14 22
f 14 24 22
f 15 16 21
f 16 17 21
f 17 23 21
f 21 23 24
f 22 24 23
f 25 27 28
f 25 28 44
f 25 26 27
f 26 32 27
f 25 42 26
f 26 43 32
f 27 29 28
f 27 32 29
f 29 32 33
f 32 34 33
f 32 35 34
f 25 51 42
f 25 44 51
f 26 42 43
f 32 43 35
f 35 43 55
f 42 56 43
f 42 51 56
f 43 56 55
f 44 45 50
f 44 50 51
f 50 55 51
f 51 55 56
f 6 12 19
f 12 36 20
f 16 19 17
f 17 19 20
f 17 20 23
f 11 22 44
f 20 45 23
f 22 23 45
f 12 20 19
f 11 28 29
f 11 29 36
f 11 36 12
f 11 44 28
f 29 33 36
f 20 36 30
f 36 37 30
f 37 38 30
f 33 34 37
f 33 37 36
f 22 45 44
f 20 46 45
f 20 30 46
f 30 47 46
f 4 10 5
f 5 10 6
f 4 5 15
f 5 18 15
f 5 6 18
f 4 9 10
f 8 11 9
f 9 11 10
f 10 11 12
f 6 10 12
f 15 18 16
f 16 18 19
f 6 19 18
f 34 39 37
f 34 35 39
f 37 40 38
f 37 39 40
f 45 46 52
f 46 47 48
f 46 48 52
f 45 52 50
f 52 48 53
f 35 57 39
f 35 55 57
f 39 57 40
f 57 53 40
f 50 52 55
f 52 57 55
f 52 53 57
f 31 30 38
f 41 38 40
f 31 38 41
f 31 47 30
f 31 49 47
f 49 48 47
f 31 41 49
f 49 53 48
f 49 41 54
f 49 54 53
f 41 40 54
f 54 40 53
