# MAAS exact compiled indexed mesh
# program_hash 248ab693b3467119d0502205cbbb97af561ec0d10eed1177e14b010751f14d22
# geometry_hash 6935c2b77b03de9e8b7c5632199013b45b63217d9312242ee0298947a1d30591
v -10.78304989 -10.67109949 0
v -4.64652312 -10.67109949 0
v -10.78304989 -10.67109949 10.07368421
v -4.64652312 -10.67109949 10.07368421
v -10.78304989 9.93663967 0
v -4.64652312 9.93663967 0
v -7.57740158 2.79262343 10.07368421
v -7.57740158 2.79262343 16.5
v -10.78304989 9.93663967 10.07368421
v -7.57740158 9.38709996 10.07368421
v -7.57740158 9.38709996 16.5
v -4.64652312 2.79262343 9.72631579
v -4.64652312 2.79262343 10.07368421
v -4.64652312 9.38709996 9.72631579
v -4.64652312 9.38709996 10.07368421
v -4.64652312 9.93663967 10.07368421
v 2.31431322 -10.67109949 0
v 9.73309932 -10.67109949 0
v 2.31431322 -10.67109949 13.37368421
v 9.73309932 -10.67109949 13.37368421
v 4.60406202 4.78470488 0
v 4.84779387 4.05024506 0
v 2.31431322 9.93663967 0
v 4.60406202 7.52619364 0
v 4.60406202 9.93663967 0
v 9.73309932 4.05024506 0
v 9.94920823 4.05024506 0
v 5.43790483 7.52619364 0
v 5.43790483 10.67109949 0
v 9.94920823 7.19515091 0
v 10.78305104 7.19515091 0
v 10.78305104 10.67109949 0
v 2.31431322 2.79262343 9.72631579
v 2.31431322 2.79262343 13.37368421
v 4.60406202 4.78470488 16.5
v 2.31431322 9.38709996 9.72631579
v 2.31431322 9.38709996 13.37368421
v 2.31431322 9.93663967 13.37368421
v 4.60406202 7.52619364 16.5
v 4.60406202 9.38709996 13.37368421
v 4.60406202 9.93663967 13.37368421
v 4.60406202 9.38709996 16.5
v 7.99289024 2.79262343 13.37368421
v 7.99289024 4.05024506 13.37368421
v 5.85348792 4.05024506 16.5
v 7.99289024 2.79262343 16.5
v 7.99289024 4.05024506 16.5
v 9.73309932 4.05024506 13.37368421
v 9.94920823 4.05024506 16.5
v 5.43790483 7.52619364 16.5
v 5.43790483 10.67109949 16.5
v 9.94920823 7.19515091 16.5
v 10.78305104 7.19515091 16.5
v 10.78305104 10.67109949 16.5
f 1 2 3
f 2 4 3
f 1 5 2
f 1 3 9
f 2 6 4
f 3 4 9
f 4 13 7
f 4 12 13
f 1 9 5
f 2 5 6
f 5 16 6
f 5 9 16
f 4 6 12
f 6 14 12
f 6 16 14
f 4 7 9
f 7 10 9
f 9 10 15
f 9 15 16
f 14 16 15
f 17 19 33
f 17 18 19
f 17 23 18
f 18 22 26
f 18 26 48
f 19 20 34
f 19 34 33
f 18 20 19
f 18 48 20
f 20 43 34
f 20 48 43
f 17 36 23
f 17 33 36
f 23 21 22
f 23 24 21
f 23 25 24
f 23 36 38
f 23 38 25
f 18 23 22
f 36 37 38
f 25 38 41
f 37 41 38
f 37 40 41
f 43 48 44
f 7 8 10
f 7 13 8
f 10 11 15
f 8 11 10
f 8 13 33
f 12 33 13
f 12 36 33
f 8 33 34
f 8 46 11
f 12 14 36
f 14 15 36
f 15 37 36
f 11 42 15
f 8 34 46
f 11 45 35
f 11 35 39
f 46 45 11
f 15 42 37
f 11 39 42
f 37 42 40
f 34 43 46
f 43 44 47
f 43 47 46
f 46 47 45
f 25 41 24
f 40 24 41
f 40 42 24
f 42 39 24
f 28 24 39
f 21 26 22
f 27 26 21
f 27 48 26
f 27 21 24
f 28 27 24
f 28 30 27
f 27 30 52
f 28 39 50
f 45 39 35
f 27 49 48
f 27 52 49
f 45 47 39
f 49 39 47
f 49 44 48
f 49 47 44
f 50 39 52
f 49 52 39
f 28 29 31
f 28 31 30
f 29 32 31
f 28 51 29
f 30 31 52
f 29 54 32
f 31 32 53
f 28 50 51
f 29 51 54
f 31 53 52
f 53 32 54
f 50 52 51
f 51 52 53
f 51 53 54
