# MAAS exact compiled indexed mesh
# program_hash 9ec081449360346a0f4988be7b6485c99519de8927dda5fd4b55f2dc4a40ef47
# geometry_hash 0750be29ea524c11d1cd3e1fb440cd571c984e06e0bb4248e31cb9454692ae06
v -26.87269972 -19.91635034 0
v -26.87269972 -17.26946353 0
v -26.87269972 -19.91635034 3.54982897
v -26.87269972 -17.26946353 3.54982897
v -26.87269972 -14.62257673 0
v -26.87269972 -11.97568992 0
v -26.87269972 -14.62257673 3.54982897
v -26.87269972 -11.97568992 3.54982897
v -13.53276704 -18.39645699 0
v -14.12818701 -15.81740972 0
v -13.53276704 -18.39645699 3.54982897
v -14.72360699 -13.23836246 0
v -15.31902697 -10.65931519 0
v -26.87269972 -19.91635034 5.91638162
v -17.05360351 -18.79760564 5.91638162
v -13.53276704 -18.39645699 7.09965794
v -26.87269972 -9.32880312 0
v -26.87269972 -6.68191632 0
v -26.87269972 -9.32880312 3.54982897
v -26.87269972 -6.68191632 3.54982897
v -15.91444695 -8.08026792 0
v -16.50986692 -5.50122066 0
v -16.50986692 -5.50122066 3.54982897
v -26.87269972 -6.68191632 5.91638162
v -17.05360351 -5.56317162 5.91638162
v -16.50986692 -5.50122066 7.09965794
v -0.87663758 -13.91468649 0
v -2.03695638 -11.53568039 0
v -0.87663758 -13.91468649 3.54982897
v -0.87663758 -13.91468649 7.09965794
v -4.35759399 -6.77766819 0
v -3.19727518 -9.15667429 0
v -5.51791279 -4.39866209 0
v -6.6782316 -2.01965599 0
v -6.6782316 -2.01965599 3.54982897
v -6.6782316 -2.01965599 7.09965794
v -13.53276704 -18.39645699 10.64948691
v -17.05360351 -18.79760564 11.83276324
v -13.53276704 -18.39645699 11.83276324
v -16.50986692 -5.50122066 10.64948691
v -17.05360351 -5.56317162 11.83276324
v -16.50986692 -5.50122066 11.83276324
v -8.51525898 -16.6196642 11.83276324
v -0.87663758 -13.91468649 10.64948691
v -8.51525898 -16.6196642 17.74914486
v -0.87663758 -13.91468649 14.19931589
v -0.87663758 -13.91468649 17.74914486
v -2.03695638 -11.53568039 17.74914486
v -8.51525898 -2.6701815 11.83276324
v -6.6782316 -2.01965599 10.64948691
v -8.51525898 -2.6701815 17.74914486
v -4.35759399 -6.77766819 17.74914486
v -3.19727518 -9.15667429 17.74914486
v -6.6782316 -2.01965599 14.19931589
v -5.51791279 -4.39866209 17.74914486
v -6.6782316 -2.01965599 17.74914486
v 5.44971759 -0.52972165 0
v 10.44693711 -6.70077382 0
v 10.44693711 -6.70077382 3.54982897
v 7.11545743 -2.58673904 0
v 8.78119727 -4.64375643 0
v 10.44693711 -6.70077382 7.09965794
v 10.44693711 -6.70077382 10.64948691
v 5.44971759 -0.52972165 17.74914486
v 10.44693711 -6.70077382 14.19931589
v 10.44693711 -6.70077382 17.74914486
v 7.11545743 -2.58673904 17.74914486
v 8.78119727 -4.64375643 17.74914486
v 2.11823791 3.58431313 0
v 3.78397775 1.52729574 0
v 2.11823791 3.58431313 3.54982897
v 11.51441098 9.39384175 0
v 2.11823791 3.58431313 7.09965794
v 9.42863571 11.02342798 0
v 9.42863571 11.02342798 3.54982897
v 9.42863571 11.02342798 7.09965794
v 17.77173677 4.50508304 0
v 19.85751204 2.87549681 0
v 19.85751204 2.87549681 3.54982897
v 15.68596151 6.13466928 0
v 13.60018624 7.76425551 0
v 19.85751204 2.87549681 7.09965794
v 14.87823177 19.91636049 0
v 17.27712589 18.79773779 0
v 19.67602001 17.67911509 0
v 14.87823177 19.91636049 3.54982897
v 17.27712589 18.79773779 3.54982897
v 19.67602001 17.67911509 3.54982897
v 26.87270237 14.32324699 0
v 26.87270237 14.32324699 3.54982897
v 22.07491413 16.56049239 0
v 24.47380825 15.44186969 0
v 22.07491413 16.56049239 3.54982897
v 24.47380825 15.44186969 3.54982897
v 14.87823177 19.91636049 7.09965794
v 17.27712589 18.79773779 7.09965794
v 19.67602001 17.67911509 7.09965794
v 26.87270237 14.32324699 7.09965794
v 22.07491413 16.56049239 7.09965794
v 24.47380825 15.44186969 7.09965794
v 2.11823791 3.58431313 10.64948691
v 2.11823791 3.58431313 14.19931589
v 2.11823791 3.58431313 17.74914486
v 3.78397775 1.52729574 17.74914486
v 11.51441098 9.39384175 17.74914486
v 9.42863571 11.02342798 10.64948691
v 9.42863571 11.02342798 14.19931589
v 9.42863571 11.02342798 17.74914486
v 19.85751204 2.87549681 10.64948691
v 19.85751204 2.87549681 14.19931589
v 17.77173677 4.50508304 17.74914486
v 19.85751204 2.87549681 17.74914486
v 15.68596151 6.13466928 17.74914486
v 13.60018624 7.76425551 17.74914486
v 14.87823177 19.91636049 10.64948691
v 17.27712589 18.79773779 10.64948691
v 19.67602001 17.67911509 10.64948691
v 26.87270237 14.32324699 10.64948691
v 22.07491413 16.56049239 10.64948691
v 24.47380825 15.44186969 10.64948691
v 14.87823177 19.91636049 14.19931589
v 17.27712589 18.79773779 14.19931589
v 19.67602001 17.67911509 14.19931589
v 14.87823177 19.91636049 17.74914486
v 17.27712589 18.79773779 17.74914486
v 19.67602001 17.67911509 17.74914486
v 26.87270237 14.32324699 14.19931589
v 26.87270237 14.32324699 17.74914486
v 22.07491413 16.56049239 14.19931589
v 24.47380825 15.44186969 14.19931589
v 22.07491413 16.56049239 17.74914486
v 24.47380825 15.44186969 17.74914486
f 1 4 2
f 2 7 5
f 1 2 9
f 1 9 3
f 2 5 10
f 1 3 4
f 2 4 7
f 3 11 14
f 5 8 6
f 6 19 17
f 5 6 12
f 6 17 13
f 5 7 8
f 3 24 4
f 4 24 7
f 6 8 19
f 7 24 8
f 2 10 9
f 3 9 11
f 5 12 10
f 6 13 12
f 3 14 24
f 11 15 14
f 11 16 15
f 16 37 15
f 17 20 18
f 17 18 21
f 17 19 20
f 8 24 19
f 19 24 20
f 18 20 23
f 13 17 21
f 18 22 21
f 18 23 22
f 20 25 23
f 20 24 25
f 23 25 26
f 26 25 41
f 9 10 27
f 9 27 11
f 10 12 28
f 12 13 32
f 11 27 29
f 10 28 27
f 12 32 28
f 11 29 16
f 16 30 37
f 16 29 30
f 13 21 31
f 21 22 33
f 13 31 32
f 21 33 31
f 22 34 33
f 22 35 34
f 22 23 35
f 31 60 32
f 31 33 57
f 33 34 70
f 34 35 71
f 23 26 36
f 23 36 35
f 26 50 36
f 35 36 73
f 15 39 38
f 37 39 15
f 26 41 40
f 40 41 42
f 40 42 49
f 37 44 39
f 44 43 39
f 30 44 37
f 44 46 43
f 47 45 43
f 46 47 43
f 47 48 45
f 52 45 53
f 48 53 45
f 26 40 50
f 40 49 50
f 50 49 54
f 36 50 101
f 50 54 102
f 55 56 45
f 56 51 45
f 54 49 51
f 54 51 56
f 52 55 45
f 52 53 67
f 54 56 103
f 52 64 55
f 55 104 56
f 34 69 70
f 34 71 69
f 35 73 71
f 36 101 73
f 50 102 101
f 54 103 102
f 56 104 103
f 27 28 58
f 27 58 29
f 29 59 30
f 30 62 44
f 28 32 61
f 28 61 58
f 32 60 61
f 29 58 59
f 31 57 60
f 33 70 57
f 58 61 78
f 60 77 61
f 30 59 62
f 58 78 59
f 59 78 79
f 59 79 62
f 62 79 82
f 62 82 63
f 44 63 46
f 46 65 47
f 47 66 48
f 44 62 63
f 46 63 65
f 48 68 53
f 47 65 66
f 48 66 68
f 53 68 67
f 52 67 64
f 55 64 104
f 66 112 68
f 67 68 111
f 63 82 109
f 63 109 65
f 65 109 110
f 65 110 66
f 66 110 112
f 69 72 70
f 69 71 75
f 57 80 60
f 57 70 81
f 57 81 80
f 70 72 81
f 69 74 72
f 69 75 74
f 71 73 76
f 71 76 75
f 73 106 76
f 72 74 84
f 74 75 86
f 74 86 83
f 75 76 95
f 75 95 86
f 76 115 95
f 61 77 78
f 60 80 77
f 77 80 92
f 77 89 78
f 78 89 79
f 79 90 82
f 82 98 109
f 72 85 81
f 80 81 91
f 81 85 91
f 74 83 84
f 72 84 85
f 83 87 84
f 84 88 85
f 83 86 87
f 84 87 88
f 77 92 89
f 80 91 92
f 89 92 90
f 79 89 90
f 85 93 91
f 91 94 92
f 85 88 93
f 91 93 94
f 90 92 94
f 86 96 87
f 86 95 96
f 87 97 88
f 87 96 97
f 95 116 96
f 96 117 97
f 82 90 98
f 90 94 98
f 98 100 118
f 88 99 93
f 88 97 99
f 93 99 100
f 93 100 94
f 94 100 98
f 97 119 99
f 99 120 100
f 73 101 106
f 101 102 107
f 101 107 106
f 103 104 105
f 102 103 108
f 64 67 113
f 64 114 104
f 64 113 114
f 102 108 107
f 104 114 105
f 103 105 108
f 76 106 115
f 106 107 121
f 106 121 115
f 107 108 124
f 105 125 108
f 107 124 121
f 109 118 110
f 68 112 111
f 67 111 113
f 111 132 113
f 110 127 112
f 111 112 128
f 95 115 116
f 96 116 117
f 115 122 116
f 115 121 122
f 116 123 117
f 116 122 123
f 98 118 109
f 110 118 127
f 118 120 127
f 97 117 119
f 99 119 120
f 100 120 118
f 117 129 119
f 117 123 129
f 119 129 130
f 119 130 120
f 120 130 127
f 105 114 126
f 113 131 114
f 114 131 126
f 121 125 122
f 122 126 123
f 108 125 124
f 105 126 125
f 121 124 125
f 122 125 126
f 127 130 128
f 111 128 132
f 113 132 131
f 112 127 128
f 123 131 129
f 129 132 130
f 123 126 131
f 129 131 132
f 128 130 132
f 14 25 24
f 25 14 15
f 41 25 15
f 15 38 41
f 39 42 38
f 42 41 38
f 43 49 39
f 43 45 49
f 42 39 49
f 51 49 45
