# MAAS exact compiled indexed mesh
# program_hash fc40f9fc3ef3c8365400a43d674c1c05705652f8988d56f0c708a04f8bc2f7b5
# geometry_hash 15177926afa63b1d1da0ffd2ff15a31ccd6b51ddf7c560c3c1566cf09eff3abd
v -17.86180869 -13.86042184 3.45775076
v -4.65960227 -13.86042184 3.45775076
v -17.86180869 -13.86042184 9.02160631
v -17.08520831 -10.75402033 9.02160631
v -17.08520831 -10.75402033 11.71080315
v -9.31920453 -5.80319292 11.71080315
v -4.65960227 -10.75402033 8.92887538
v -4.65960227 -13.86042184 9.02160631
v -4.65960227 -10.75402033 9.02160631
v -4.65960227 -10.75402033 11.71080315
v -4.65960227 -6.87101844 8.92887538
v -4.65960227 -6.87101844 11.71080315
v -17.86180869 7.10778836 3.45775076
v -4.65960227 7.10778836 3.45775076
v -17.08520831 2.44818609 9.02160631
v -9.31920453 2.44818609 9.02160631
v -9.31920453 3.22478647 9.02160631
v -17.08520831 2.44818609 11.71080315
v -9.31920453 2.44818609 11.71080315
v -9.31920453 3.22478647 11.71080315
v -17.86180869 7.10778836 9.02160631
v -4.65960227 3.22478647 8.92887538
v -4.65960227 3.22478647 9.02160631
v -4.65960227 7.10778836 9.02160631
v 4.65960227 -7.64761882 3.45775076
v 17.86180869 -7.64761882 3.45775076
v 4.65960227 -7.64761882 9.02160631
v 4.65960227 -6.87101844 8.92887538
v 4.65960227 -6.87101844 9.02160631
v 5.7468428 -3.76461693 11.71080315
v 5.7468428 -3.76461693 14.4
v 17.86180869 -7.64761882 9.02160631
v 9.31920453 -6.87101844 9.02160631
v 9.31920453 -5.31781768 9.02160631
v 17.86180869 -5.31781768 9.02160631
v 9.31920453 -6.87101844 11.71080315
v 9.31920453 -5.31781768 11.71080315
v 9.31920453 -3.76461693 11.71080315
v 17.86180869 -5.31781768 11.71080315
v 15.84264771 -3.76461693 11.71080315
v 15.84264771 -3.76461693 14.4
v 4.65960227 11.76739063 3.45775076
v 9.88826168 6.07030317 0
v 9.88826168 6.91934414 0
v 10.73730266 6.07030317 0
v 10.99780619 6.83406993 0
v 8.93090434 5.36043751 3.45775076
v 17.86180869 5.36043751 3.45775076
v 9.51388109 5.36043751 3.72036474
v 9.88826168 6.07030317 3.72036474
v 9.88826168 6.91934414 3.72036474
v 10.73730266 6.07030317 3.72036474
v 10.93223687 6.64182814 3.72036474
v 10.99780619 6.83406993 3.72036474
v 11.17795971 6.64182814 3.72036474
v 12.43142892 5.36043751 3.72036474
v 12.69778475 5.55151887 3.72036474
v 9.88826168 6.07030317 6.63483607
v 9.88826168 6.91934414 6.63483607
v 14.92297092 6.64182814 3.72036474
v 15.88168841 5.36043751 3.72036474
v 15.88168841 6.64182814 3.72036474
v 16.73072939 6.64182814 3.72036474
v 10.14876521 7.6831109 0
v 10.99780619 7.6831109 0
v 9.85559999 9.9300709 0
v 10.70464097 9.9300709 0
v 9.85559999 10.77911188 0
v 11.03046787 10.44716806 0
v 10.18142689 11.29620904 0
v 11.03046787 11.29620904 0
v 8.93090434 11.76739063 3.45775076
v 9.51388109 7.11158594 3.72036474
v 9.953831 7.11158594 3.72036474
v 10.36292206 7.6831109 3.72036474
v 10.99780619 7.6831109 3.72036474
v 9.51388109 10.0162422 3.72036474
v 9.85559999 10.0162422 3.72036474
v 10.36292206 9.9300709 3.72036474
v 10.70464097 9.9300709 3.72036474
v 11.37218678 7.11158594 3.72036474
v 11.37218678 7.36586587 3.72036474
v 11.81943141 7.11158594 3.72036474
v 11.37218678 10.0162422 3.72036474
v 12.02700069 10.0162422 3.72036474
v 9.953831 7.11158594 7.14527892
v 9.85559999 10.0162422 6.38057198
v 10.70464097 9.9300709 6.38057198
v 10.75893817 10.0162422 6.80326385
v 9.85559999 10.77911188 3.72036474
v 11.01907264 10.42908349 3.72036474
v 11.03046787 10.44716806 3.72036474
v 11.03046787 11.10422837 3.72036474
v 10.18142689 11.29620904 3.72036474
v 11.03046787 11.29620904 3.72036474
v 9.51388109 13.86041407 3.72036474
v 10.5231458 13.86041407 3.72036474
v 12.69778475 12.300347 3.72036474
v 9.85559999 10.77911188 6.38057198
v 10.08579374 13.86041407 7.12505523
v 13.54682572 8.92593294 3.72036474
v 15.2268745 10.48600001 3.72036474
v 15.88168841 10.48600001 3.72036474
v 16.73072939 10.48600001 3.72036474
v 15.88168841 13.86041407 3.72036474
v 4.65960227 3.22478647 8.92887538
v 4.65960227 3.22478647 9.02160631
v 4.65960227 3.22478647 11.71080315
v 5.7468428 3.22478647 11.71080315
v 5.7468428 6.33118798 11.71080315
v 5.7468428 6.33118798 14.4
v 4.65960227 7.88438874 9.02160631
v 4.65960227 11.76739063 9.02160631
v 4.65960227 7.88438874 11.71080315
v 10.01851344 5.36043751 7.64881768
v 9.88826168 6.07030317 7.44072948
v 9.99178332 6.07030317 7.44072948
v 9.88826168 6.91934414 7.44072948
v 9.84274262 5.36043751 9.01715522
v 10.19428427 5.36043751 9.01715522
v 10.6917836 6.64182814 9.01715522
v 10.6917836 6.74243769 9.01715522
v 10.92318557 6.64182814 9.01715522
v 11.04332524 6.64182814 9.01715522
v 12.69778475 5.87026327 9.01715522
v 13.00308688 6.64182814 9.01715522
v 15.37705605 5.36043751 7.64881768
v 15.37705605 6.64182814 7.64881768
v 16.22609703 6.64182814 7.64881768
v 14.25387734 6.64182814 9.01715522
v 15.55282687 5.36043751 9.01715522
v 15.55282687 6.64182814 9.01715522
v 16.40186785 6.64182814 9.01715522
v 17.86180869 5.36043751 9.02160631
v 10.36292206 6.64182814 11.57727062
v 8.93090434 6.33118798 11.71080315
v 11.37218678 6.64182814 11.57727062
v 12.11404923 6.64182814 11.93909613
v 11.47330272 6.64182814 12.36443615
v 8.93090434 5.36043751 14.4
v 8.93090434 6.33118798 14.4
v 11.24555712 6.64182814 14.13738602
v 11.70104832 6.70580162 14.13738602
v 15.62034873 6.64182814 12.36443615
v 15.72146467 6.64182814 11.57727062
v 16.73072939 6.64182814 11.57727062
v 15.84264771 5.36043751 11.71080315
v 17.86180869 5.36043751 11.71080315
v 15.39260313 6.64182814 14.13738602
v 15.84264771 5.36043751 14.4
v 15.84809433 6.64182814 14.13738602
v 9.99178332 7.11158594 7.44072948
v 10.04524357 7.11158594 7.44072948
v 10.01851344 7.11158594 7.64881768
v 10.14876521 7.6831109 7.44072948
v 10.8408243 7.11158594 7.44072948
v 10.86755442 7.11158594 7.64881768
v 10.8408243 7.6831109 7.44072948
v 9.85559999 9.9300709 7.44072948
v 9.99178332 10.0162422 7.44072948
v 10.01851344 10.0162422 7.64881768
v 10.70464097 9.9300709 7.44072948
v 10.75893817 10.0162422 7.44072948
v 10.86755442 10.0162422 7.64881768
v 9.84274262 7.11158594 9.01715522
v 8.93090434 7.88438874 9.02160631
v 10.19428427 6.95874175 9.01715522
v 10.6917836 7.11158594 9.01715522
v 10.6917836 8.15619887 9.01715522
v 11.04332524 8.15619887 9.01715522
v 9.84274262 10.0162422 9.01715522
v 10.6917836 10.0162422 9.01715522
v 11.04332524 10.0162422 9.01715522
v 11.77222655 10.0162422 9.01715522
v 12.1540459 10.0162422 9.01715522
v 9.85559999 10.77911188 7.44072948
v 9.99178332 10.99523894 7.44072948
v 10.01851344 13.86041407 7.64881768
v 8.93090434 11.76739063 9.02160631
v 9.84274262 11.53061294 9.01715522
v 10.19428427 11.53061294 9.01715522
v 9.84274262 13.86041407 9.01715522
v 10.19428427 13.70756988 9.01715522
v 12.69778475 12.61909141 9.01715522
v 13.54682572 9.24467734 9.01715522
v 15.10291832 10.0162422 9.01715522
v 15.20128523 10.0162422 9.01715522
v 15.55282687 10.0162422 9.01715522
v 15.55282687 10.23932252 9.01715522
v 16.05032621 8.15619887 9.01715522
v 16.40186785 8.15619887 9.01715522
v 15.37705605 10.48600001 7.64881768
v 15.37705605 13.86041407 7.64881768
v 16.22609703 10.48600001 7.64881768
v 15.55282687 10.48600001 9.01715522
v 15.20128523 11.53061294 9.01715522
v 15.55282687 11.53061294 9.01715522
v 15.20128523 13.86041407 9.01715522
v 15.55282687 13.86041407 9.01715522
v 16.05032621 10.48600001 9.01715522
v 16.40186785 10.48600001 9.01715522
v 10.36292206 8.15619887 11.57727062
v 8.93090434 7.88438874 11.71080315
v 9.51388109 10.0162422 11.57727062
v 10.5231458 10.0162422 11.57727062
v 10.62426174 10.0162422 12.36443615
v 11.37218678 7.22427842 11.57727062
v 11.57441865 7.22427842 11.57727062
v 11.47330272 7.22427842 12.36443615
v 11.26500825 10.0162422 11.93909613
v 10.39651614 10.0162422 14.13738602
v 10.85200734 10.08021569 14.13738602
v 11.24555712 7.22427842 14.13738602
v 9.51388109 11.53061294 11.57727062
v 10.5231458 10.59869249 11.57727062
v 10.72537768 10.59869249 11.57727062
v 10.62426174 10.59869249 12.36443615
v 10.39651614 10.59869249 14.13738602
v 15.62034873 7.22427842 12.36443615
v 15.59361389 7.22427842 12.57256112
v 14.87242369 10.0162422 11.57727062
v 14.77130776 10.0162422 12.36443615
v 15.72146467 7.22427842 11.57727062
v 15.72146467 8.15619887 11.57727062
v 16.73072939 8.15619887 11.57727062
v 15.88168841 10.0162422 11.57727062
v 15.39260313 7.22427842 14.13738602
v 14.54356216 10.0162422 14.13738602
v 14.99905336 10.0162422 14.13738602
v 15.84809433 7.22427842 14.13738602
v 14.87242369 10.59869249 11.57727062
v 14.87242369 11.53061294 11.57727062
v 14.77130776 10.59869249 12.36443615
v 14.74457291 10.59869249 12.57256112
v 15.88168841 11.53061294 11.57727062
v 14.54356216 10.59869249 14.13738602
v 14.99905336 10.59869249 14.13738602
f 1 2 3
f 2 8 3
f 1 13 2
f 1 3 21
f 2 14 8
f 8 14 7
f 7 14 11
f 3 4 15
f 3 8 4
f 3 15 21
f 8 7 9
f 4 8 9
f 2 13 14
f 1 21 13
f 13 21 24
f 13 24 14
f 11 14 22
f 14 24 22
f 15 16 21
f 16 17 21
f 17 23 21
f 21 23 24
f 22 24 23
f 25 27 28
f 25 28 106
f 25 26 27
f 26 32 27
f 25 48 26
f 26 35 32
f 26 134 35
f 27 29 28
f 27 32 29
f 29 32 33
f 32 34 33
f 32 35 34
f 25 42 47
f 25 106 113
f 25 113 42
f 42 72 47
f 42 113 72
f 72 113 179
f 25 47 48
f 26 48 134
f 106 107 112
f 106 112 113
f 112 166 179
f 112 179 113
f 11 22 106
f 6 12 19
f 12 20 19
f 12 36 20
f 16 19 17
f 17 19 20
f 17 20 23
f 22 23 107
f 20 107 23
f 11 28 29
f 11 106 28
f 11 36 12
f 11 29 36
f 29 33 36
f 20 36 30
f 30 36 37
f 30 37 38
f 33 34 37
f 33 37 36
f 22 107 106
f 20 30 108
f 20 108 107
f 30 109 108
f 4 10 5
f 5 10 6
f 4 5 15
f 5 6 18
f 5 18 15
f 6 19 18
f 4 9 10
f 7 11 9
f 9 11 10
f 10 11 12
f 6 10 12
f 15 18 16
f 16 18 19
f 34 35 39
f 34 39 37
f 37 40 38
f 37 39 40
f 35 148 39
f 39 148 40
f 107 114 112
f 107 108 114
f 108 109 110
f 108 110 114
f 110 136 203
f 112 114 166
f 110 203 114
f 114 203 166
f 35 134 148
f 40 148 147
f 30 38 31
f 30 31 109
f 31 38 41
f 31 41 111
f 38 40 41
f 40 150 41
f 31 111 109
f 109 111 110
f 110 111 136
f 111 140 141
f 111 141 136
f 41 140 111
f 41 150 140
f 40 147 150
f 50 49 73
f 50 73 51
f 50 56 49
f 50 52 56
f 52 57 56
f 52 53 57
f 53 55 57
f 73 74 51
f 73 86 74
f 121 122 120
f 121 120 123
f 167 120 122
f 123 120 125
f 125 120 131
f 128 131 127
f 128 132 131
f 125 131 130
f 130 131 132
f 152 154 153
f 55 81 57
f 57 81 83
f 57 83 60
f 57 61 56
f 57 60 61
f 60 62 61
f 165 115 119
f 154 115 165
f 165 119 167
f 167 119 120
f 123 125 124
f 124 125 126
f 125 130 126
f 153 154 157
f 153 157 156
f 154 165 157
f 165 168 157
f 165 167 168
f 167 122 168
f 77 90 78
f 77 96 90
f 90 96 94
f 94 97 95
f 94 96 97
f 96 100 97
f 93 95 98
f 95 97 98
f 96 178 100
f 181 184 183
f 181 196 184
f 192 197 195
f 192 193 197
f 197 193 199
f 193 198 199
f 184 196 199
f 184 199 198
f 196 197 199
f 232 197 196
f 232 235 197
f 188 189 235
f 189 195 235
f 195 197 235
f 188 235 226
f 221 226 231
f 216 231 232
f 231 226 235
f 231 235 232
f 215 217 216
f 222 233 229
f 212 228 229
f 212 229 236
f 233 234 237
f 234 236 237
f 233 237 229
f 236 229 237
f 91 98 84
f 91 92 98
f 84 98 85
f 92 93 98
f 85 98 102
f 97 105 98
f 97 100 198
f 98 105 102
f 97 193 105
f 102 105 103
f 97 198 193
f 161 171 178
f 171 180 178
f 180 182 178
f 100 178 198
f 178 182 198
f 180 183 182
f 180 181 183
f 182 183 198
f 183 184 198
f 171 214 180
f 171 204 214
f 180 232 181
f 180 214 232
f 181 232 196
f 204 205 215
f 204 215 214
f 215 216 214
f 216 232 214
f 211 217 206
f 211 212 218
f 211 228 212
f 211 218 217
f 217 236 216
f 216 236 234
f 218 236 217
f 218 212 236
f 216 233 231
f 216 234 233
f 53 54 55
f 54 81 55
f 54 76 81
f 75 80 76
f 76 80 82
f 75 79 80
f 82 80 91
f 76 82 81
f 82 91 84
f 82 84 101
f 84 85 101
f 170 174 173
f 170 185 174
f 129 194 133
f 133 194 191
f 191 194 201
f 170 190 185
f 190 188 185
f 185 187 186
f 185 188 187
f 190 191 201
f 190 201 188
f 188 201 189
f 194 200 201
f 189 201 200
f 145 146 223
f 133 191 225
f 190 224 191
f 133 225 146
f 191 224 225
f 208 223 224
f 223 146 225
f 223 225 224
f 143 149 151
f 143 151 227
f 144 219 151
f 207 209 208
f 220 227 230
f 219 220 230
f 219 230 151
f 227 151 230
f 81 82 83
f 83 82 101
f 83 101 60
f 60 101 62
f 62 101 63
f 85 102 101
f 101 102 103
f 101 103 104
f 63 101 104
f 103 194 104
f 103 192 194
f 157 168 169
f 157 169 172
f 157 172 164
f 169 170 173
f 169 173 172
f 174 185 175
f 175 185 186
f 192 200 194
f 192 195 200
f 189 200 195
f 135 137 207
f 121 202 122
f 122 202 168
f 168 202 169
f 121 135 202
f 169 224 170
f 169 202 224
f 170 224 190
f 135 207 202
f 202 207 208
f 202 208 224
f 142 209 139
f 142 143 213
f 142 149 143
f 209 227 208
f 142 213 209
f 213 227 209
f 213 143 227
f 208 219 223
f 208 220 219
f 208 227 220
f 47 61 48
f 47 49 56
f 47 56 61
f 47 140 49
f 48 61 127
f 48 127 131
f 47 72 179
f 47 179 166
f 47 166 136
f 140 115 49
f 47 136 140
f 140 119 115
f 48 131 147
f 48 147 134
f 147 131 120
f 140 120 119
f 140 147 120
f 136 141 140
f 134 147 148
f 140 150 147
f 166 203 136
f 73 49 59
f 117 49 115
f 58 49 117
f 58 59 49
f 73 59 86
f 117 115 154
f 117 154 152
f 62 127 61
f 62 128 127
f 77 78 87
f 77 87 99
f 77 178 96
f 77 99 178
f 99 177 178
f 160 163 161
f 161 163 164
f 89 164 163
f 161 164 172
f 161 172 205
f 172 173 205
f 173 174 205
f 205 174 175
f 160 161 178
f 160 178 177
f 221 187 188
f 221 188 226
f 205 175 206
f 205 206 217
f 206 175 210
f 205 217 215
f 222 229 228
f 103 105 193
f 103 193 192
f 161 205 171
f 171 205 204
f 210 175 186
f 221 186 187
f 206 210 228
f 211 206 228
f 210 186 228
f 221 222 186
f 222 228 186
f 221 233 222
f 221 231 233
f 75 158 79
f 158 88 79
f 158 89 88
f 124 126 138
f 129 133 145
f 133 146 145
f 124 138 137
f 137 139 209
f 137 138 139
f 144 151 149
f 156 157 164
f 156 164 158
f 158 164 89
f 137 209 207
f 62 63 128
f 63 129 128
f 63 104 194
f 63 194 129
f 121 123 137
f 123 124 137
f 121 137 135
f 128 129 132
f 126 130 145
f 130 132 145
f 132 129 145
f 139 138 149
f 142 139 149
f 126 149 138
f 126 145 144
f 126 144 149
f 145 219 144
f 145 223 219
f 43 44 64
f 43 46 45
f 43 64 46
f 43 50 44
f 43 45 52
f 45 46 53
f 44 50 51
f 43 52 50
f 45 53 52
f 46 54 53
f 58 116 59
f 58 117 116
f 59 116 118
f 64 65 46
f 44 74 64
f 64 75 65
f 46 65 76
f 44 51 74
f 46 76 54
f 65 75 76
f 64 74 86
f 64 155 75
f 64 86 155
f 75 155 158
f 59 118 86
f 116 117 118
f 118 117 152
f 118 155 86
f 118 152 155
f 152 153 155
f 153 156 155
f 155 156 158
f 66 70 67
f 66 78 68
f 67 69 91
f 66 67 159
f 67 80 79
f 67 91 80
f 66 68 70
f 67 71 69
f 67 70 71
f 68 90 70
f 69 71 93
f 70 94 71
f 68 78 90
f 90 94 70
f 69 92 91
f 69 93 92
f 93 71 95
f 71 94 95
f 66 159 78
f 67 79 159
f 78 159 87
f 79 88 159
f 87 159 99
f 88 162 159
f 88 89 162
f 99 159 176
f 99 176 177
f 159 160 176
f 159 162 160
f 160 162 163
f 89 163 162
f 176 160 177
