# MAAS exact compiled indexed mesh
# program_hash b180ead0159b76236eea449b398bb963a13bcb19b5548fff1331f424418cde02
# geometry_hash 3ae49d6de17220f7672bc877f0d2bde992109a1de1885c18514474a9e517e65d
v -15.4836045 -10.59909312 0
v -14.86438851 -10.59909312 4.75305023
v -6.38511402 -10.59909312 4.75305023
v -5.71458175 -10.59909312 9.9
v -15.4836045 10.59909312 0
v -14.86438851 10.59909312 4.75305023
v -6.38511402 10.59909312 4.75305023
v -5.71458175 10.59909312 9.9
v 5.71458175 -10.59909312 0
v 6.33379773 -10.59909312 4.75305023
v 6.33352409 -10.59909312 4.75094977
v 14.81279858 -10.59909312 4.75094977
v 15.4836045 -10.59909312 9.9
v 5.71458175 10.59909312 0
v 6.33352409 10.59909312 4.75094977
v 6.33379773 10.59909312 4.75305023
v 14.81279858 10.59909312 4.75094977
v 15.4836045 10.59909312 9.9
f 4 3 10
f 4 8 3
f 8 7 3
f 12 10 11
f 4 10 12
f 4 13 8
f 4 12 13
f 12 17 13
f 17 15 16
f 18 16 7
f 8 18 7
f 8 13 18
f 13 17 18
f 17 16 18
f 1 9 2
f 1 5 9
f 1 2 6
f 2 11 3
f 2 9 11
f 1 6 5
f 6 7 5
f 5 14 9
f 5 15 14
f 5 7 16
f 5 16 15
f 11 10 3
f 9 15 11
f 9 14 15
f 12 11 15
f 12 15 17
f 2 3 6
f 6 3 7
