# MAAS exact compiled indexed mesh
# program_hash fc533c59b9027c8792f4a340b8912114b1bb445760f02446733a86bfd085fe37
# geometry_hash 9edd74e3bbc93103f77746f62c579e0871b990e3c65f6418c9e76f64f6144e8f
v -10.06947749 -6.56311267 0
v -3.36051787 -6.56311267 0
v -3.36051787 -6.56311267 7.71195652
v -4.16267609 -1.75016338 0
v -3.36051787 -1.75016338 0
v -3.36051787 -1.75016338 7.71195652
v -10.06947749 -8.43438736 8.25
v -10.06947749 -6.56311267 8.25
v -10.06947749 -8.43438736 16.5
v -9.91450734 -6.43684069 16.5
v -8.05977892 -6.56311267 16.5
v -7.49083484 -4.46199643 16.5
v -1.90970139 -8.43438736 8.25
v -1.90970139 -6.56311267 8.25
v -1.90970139 -8.43438736 16.5
v -1.90970139 -6.56311267 16.5
v -4.16267609 -1.75016338 8.25
v -4.16267609 -1.06553166 8.25
v -3.73698997 -1.75016338 8.25
v -3.27551711 -1.75016338 8.25
v -3.69882143 -2.11781321 16.5
v -3.68426279 -2.10270663 16.5
v -3.61479806 -1.94668485 16.5
v -3.73698997 -1.75016338 16.5
v -3.27551711 -1.75016338 16.5
v -10.06947749 6.56311267 0
v -4.16267609 4.88587277 0
v -10.06947749 6.56311267 8.25
v -10.06947749 8.43438736 8.25
v -8.64944031 4.56454182 16.5
v -8.65650276 6.16189762 16.5
v -8.62892815 6.1540678 16.5
v -8.90596779 6.56311267 16.5
v -10.06947749 8.43438736 16.5
v -4.16267609 4.88587277 8.25
v -3.27551711 4.88587277 8.25
v -1.90970139 6.56311267 8.25
v -1.90970139 8.43438736 8.25
v -3.27551711 4.88587277 16.5
v -1.90970139 6.56311267 16.5
v -1.90970139 8.43438736 16.5
v 2.47336006 -6.56311267 0
v 2.47336006 -6.56311267 7.71195652
v 2.47336006 -1.75016338 0
v 3.27551827 -1.75016338 0
v 2.47336006 -1.75016338 7.71195652
v 9.25524315 -6.56311267 0
v 1.90970256 -8.43438736 8.25
v 1.90970256 -6.56311267 8.25
v 1.90970256 -8.43438736 16.5
v 1.90970256 -6.56311267 16.5
v 3.27551827 -1.75016338 8.25
v 3.69882259 -2.11781321 16.5
v 3.22943743 -2.08491245 16.5
v 3.27551827 -1.75016338 16.5
v 3.54900337 -1.97028553 16.5
v 3.61479923 -1.94668485 16.5
v 3.68426396 -2.10270663 16.5
v 10.06947866 -8.43438736 8.25
v 9.25524315 -6.56311267 8.25
v 9.90255742 -6.42710277 8.25
v 9.25524315 -5.14254618 8.25
v 7.490836 -4.46199643 16.5
v 8.05978008 -6.56311267 16.5
v 10.06947866 -8.43438736 16.5
v 3.27551827 4.88587277 0
v 9.25524315 6.56311267 0
v 1.90970256 6.56311267 8.25
v 1.90970256 8.43438736 8.25
v 3.27551827 4.88587277 8.25
v 1.90970256 6.56311267 16.5
v 1.90970256 8.43438736 16.5
v 3.27551827 4.88587277 16.5
v 2.66729166 5.63278316 16.5
v 9.25524315 1.35707117 8.25
v 9.25524315 6.56311267 8.25
v 10.06947866 8.43438736 8.25
v 8.05678292 6.31015091 16.5
v 8.80733708 6.40448286 16.5
v 8.91720424 6.4182913 16.5
v 8.90596896 6.56311267 16.5
v 10.06947866 8.43438736 16.5
f 1 2 3
f 1 4 2
f 1 3 8
f 1 26 4
f 1 8 28
f 8 3 43
f 43 14 8
f 2 4 5
f 1 28 26
f 4 26 27
f 26 28 37
f 26 67 27
f 26 37 68
f 42 44 47
f 43 49 14
f 42 60 43
f 43 60 49
f 44 45 47
f 42 47 60
f 45 67 47
f 47 67 60
f 67 62 60
f 27 67 66
f 26 76 67
f 26 68 76
f 45 66 67
f 67 75 62
f 67 76 75
f 4 17 5
f 5 17 6
f 6 17 19
f 6 19 20
f 6 20 52
f 4 27 17
f 27 18 17
f 27 35 18
f 27 66 35
f 66 36 35
f 44 46 45
f 6 52 46
f 45 46 52
f 45 70 66
f 45 52 70
f 66 70 36
f 2 5 3
f 3 6 43
f 5 6 3
f 42 43 46
f 42 46 44
f 6 46 43
f 10 11 12
f 11 16 12
f 10 12 30
f 12 16 21
f 23 25 24
f 16 53 21
f 21 53 22
f 22 53 23
f 23 53 25
f 10 30 31
f 10 31 33
f 31 32 33
f 32 39 33
f 33 39 74
f 33 74 40
f 25 53 54
f 53 56 54
f 53 58 56
f 55 56 78
f 55 78 73
f 56 57 78
f 57 79 78
f 73 70 52
f 55 73 52
f 48 65 50
f 50 65 51
f 48 59 65
f 51 65 64
f 59 77 65
f 53 63 79
f 64 65 80
f 63 64 80
f 69 72 77
f 71 82 72
f 57 58 79
f 53 79 58
f 65 77 82
f 63 80 79
f 65 82 80
f 77 72 82
f 71 81 82
f 80 82 81
f 16 14 49
f 24 25 32
f 24 32 31
f 25 39 32
f 40 71 37
f 16 49 51
f 16 51 53
f 51 63 53
f 25 54 55
f 54 56 55
f 56 58 57
f 51 64 63
f 71 68 37
f 39 73 74
f 40 74 71
f 71 74 78
f 73 78 74
f 71 78 79
f 71 79 81
f 79 80 81
f 25 52 20
f 39 20 36
f 25 20 39
f 39 36 70
f 25 55 52
f 39 70 73
f 7 9 8
f 7 13 9
f 9 11 10
f 9 16 11
f 9 28 8
f 9 10 34
f 12 24 30
f 13 15 9
f 9 15 16
f 12 21 22
f 12 22 23
f 12 23 24
f 9 29 28
f 9 34 29
f 10 33 34
f 24 31 30
f 29 34 41
f 33 40 34
f 29 41 38
f 34 40 41
f 48 49 59
f 59 49 60
f 59 60 61
f 61 60 62
f 59 61 77
f 69 77 68
f 61 75 77
f 77 76 68
f 77 75 76
f 19 18 20
f 18 36 20
f 35 36 18
f 61 62 75
f 7 8 14
f 7 14 13
f 17 18 19
f 29 37 28
f 29 38 37
f 48 51 49
f 48 50 51
f 69 68 72
f 71 72 68
f 13 14 16
f 13 16 15
f 38 41 37
f 40 37 41
