# MAAS exact compiled indexed mesh
# program_hash 7f3be2bc51d1229a7c00fad17d48b69a9db6eb075c861b62e4bd0ebc9efe7a1c
# geometry_hash 727059c72b48a36764161995e9bcb08fe4b80497556e299946d7f5eeb60cd4e8
v -14.8134188 -9.66925507 0
v -1.46317835 -9.66925507 0
v -1.46317835 -8.82721606 0
v -14.8134188 -9.66925507 11.4
v -1.46317835 -9.66925507 11.4
v -1.46317835 -8.82721606 10.488
v -0.10642262 -4.71902303 10.488
v -1.46317835 -2.98245489 10.488
v -14.8134188 9.66925507 0
v -1.46317835 2.98245489 0
v -1.46317835 4.64853847 0
v -0.10642262 4.71902303 0
v -1.46317835 8.82721606 0
v -1.46317835 9.66925507 0
v -14.8134188 9.66925507 11.4
v -1.46317835 8.82721606 10.488
v -1.46317835 9.66925507 11.4
v 7.0269055 -15.46039654 0
v 14.8134136 -5.49412066 0
v 7.0269055 -15.46039654 10.488
v 1.62599068 -4.80902331 10.488
v 14.8134136 -5.49412066 10.488
v 1.62599068 4.80902331 0
v 7.0269055 15.46039654 0
v 7.78125983 0 0
v 14.8134136 5.49412066 0
v 7.4067055 7.73019827 0
v 9.79666125 7.73019827 0
v 10.35578578 8.88473201 0
v 9.66370663 10.31380316 0
v 10.23115136 11.0400993 0
v 10.35578578 11.19962409 0
v 7.4067055 14.97427471 0
v 13.0663983 7.73019827 0
v 13.30486606 7.73019827 0
v 13.30486606 14.97427471 0
v 7.0269055 15.46039654 10.488
v 7.78125983 0 10.488
v 14.8134136 5.49412066 10.488
v 7.4067055 7.73019827 10.488
v 9.79666125 7.73019827 10.488
v 10.92891476 10.06818348 10.488
v 10.35578578 10.86649581 10.488
v 10.35578578 11.19962409 10.488
v 7.4067055 14.97427471 10.488
v 13.0663983 7.73019827 10.488
v 13.30486606 7.73019827 10.488
v 13.30486606 14.97427471 10.488
f 10 11 12
f 11 13 12
f 12 13 24
f 12 24 23
f 23 24 27
f 24 33 27
f 13 16 24
f 24 37 33
f 23 26 25
f 23 27 26
f 26 27 28
f 26 28 34
f 25 26 39
f 26 34 46
f 7 37 8
f 7 21 37
f 8 37 16
f 21 38 37
f 16 37 24
f 37 45 33
f 37 38 40
f 37 40 45
f 25 39 38
f 26 46 39
f 38 41 40
f 38 46 41
f 38 39 46
f 6 7 8
f 3 18 20
f 3 10 18
f 10 12 18
f 12 23 18
f 18 23 25
f 18 19 20
f 18 25 19
f 19 25 22
f 3 20 6
f 6 20 7
f 7 20 21
f 19 22 20
f 20 22 21
f 22 25 38
f 21 22 38
f 1 9 2
f 1 2 5
f 2 9 3
f 1 5 4
f 1 4 15
f 4 5 17
f 1 15 9
f 9 15 14
f 3 9 10
f 9 11 10
f 9 13 11
f 9 14 13
f 4 17 15
f 14 15 17
f 30 28 27
f 30 27 33
f 30 29 28
f 30 33 31
f 31 33 32
f 32 33 45
f 32 45 44
f 40 41 45
f 43 45 41
f 42 43 41
f 43 44 45
f 29 34 28
f 30 31 29
f 31 32 29
f 29 36 34
f 35 34 36
f 29 32 36
f 32 48 36
f 32 44 48
f 42 41 46
f 42 46 47
f 42 47 48
f 42 48 43
f 43 48 44
f 2 3 5
f 3 6 5
f 5 6 17
f 6 8 17
f 13 14 16
f 8 16 17
f 14 17 16
f 35 46 34
f 35 36 48
f 35 47 46
f 35 48 47
