# MAAS exact compiled indexed mesh
# program_hash 3a01844e7e8844eaf7f8ad9c1075bb030e24eae69a6b1b729c04be14a8d20c1b
# geometry_hash f6bc298dc15f920c9f1f883ac07b35cbf0f1470d6b5b8dfd080bf441a9e03ddb
v -17.24065172 -11.60641562 0
v -17.24065172 -11.60641562 4.11428571
v -8.76112516 -14.78651045 3.82040816
v -10.17699461 -11.60641562 3.82040816
v -10.17699461 -11.60641562 4.11428571
v -1.61851523 -11.60641562 3.82040816
v -1.61851523 -11.60641562 4.11428571
v -8.76112516 -14.78651045 7.93469388
v -11.59524657 -8.42096956 7.64081633
v -11.59524657 -8.42096956 7.93469388
v -12.24011708 -12.38468429 11.16734694
v -12.24011708 -12.38468429 14.4
v -12.85469282 -8.01175067 11.16734694
v -12.85469282 -8.01175067 11.46122449
v -17.2970674 -6.56833567 7.64081633
v -15.23950901 -0.23582209 7.64081633
v -15.23950901 -0.23582209 7.93469388
v -17.2970674 -6.56833567 11.46122449
v -1.69147578 -11.63889975 7.64081633
v -1.69147578 -11.63889975 7.93469388
v -3.27427446 -11.12461729 11.16734694
v -3.27427446 -11.12461729 11.46122449
v -16.76240402 3.18465611 4.11428571
v -17.24065172 10.03266435 0
v -17.24065172 10.03266435 4.11428571
v -1.38152568 10.03266435 3.82040816
v -1.38152568 10.03266435 4.11428571
v -16.76240402 3.18465611 7.93469388
v -13.68259162 4.55587693 7.64081633
v -13.68259162 4.55587693 7.93469388
v -14.33762808 2.53988199 11.16734694
v -14.33762808 2.53988199 11.46122449
v -14.70413533 5.14771656 11.16734694
v -13.43220943 5.32647409 11.16734694
v -13.43220943 5.32647409 11.46122449
v -14.70413533 5.14771656 14.4
v -10.91417138 13.07619835 7.64081633
v -10.91417138 13.07619835 11.46122449
v -1.45139579 10.00155618 7.64081633
v -1.45139579 10.00155618 7.93469388
v 14.23437369 -11.60641562 0
v 14.23437369 -11.60641562 4.11428571
v 14.23437369 -4.54825473 3.82040816
v 14.23437369 -4.54825473 4.11428571
v 17.29706635 -3.18465611 3.82040816
v 5.15382862 -13.86307398 7.64081633
v 7.15648408 -7.69953422 7.64081633
v 7.15648408 -7.69953422 7.93469388
v 5.15382862 -13.86307398 11.46122449
v 6.48946319 -9.75241345 11.16734694
v 6.48946319 -9.75241345 11.46122449
v 14.0584842 -8.68865692 11.16734694
v 14.0584842 -8.68865692 14.4
v 17.29706635 -3.18465611 7.93469388
v 14.23437369 3.69426423 3.82040816
v 14.23437369 3.69426423 4.11428571
v 14.23437369 10.03266435 0
v 11.41233614 10.03266435 3.82040816
v 11.41233614 10.03266435 4.11428571
v 9.29578749 14.78651045 3.82040816
v 14.23437369 10.03266435 4.11428571
v 4.97511804 7.91345525 11.16734694
v 4.97511804 7.91345525 11.46122449
v 11.53672464 5.78146003 7.93469388
v 11.53672464 5.78146003 11.16734694
v 9.29578749 14.78651045 7.93469388
v 11.59446595 8.84374394 11.16734694
v 11.59446595 8.84374394 14.4
f 2 4 5
f 1 2 25
f 2 5 23
f 1 41 2
f 2 41 4
f 1 24 41
f 1 25 24
f 2 23 25
f 24 25 26
f 23 27 25
f 24 26 58
f 25 27 26
f 4 41 6
f 6 42 7
f 6 41 42
f 7 42 44
f 41 57 42
f 42 57 43
f 42 43 44
f 24 57 41
f 24 61 57
f 24 58 61
f 43 57 55
f 55 61 56
f 55 57 61
f 58 59 61
f 56 61 59
f 3 5 4
f 3 8 9
f 3 28 5
f 3 9 16
f 3 16 28
f 5 28 23
f 3 4 6
f 3 7 8
f 3 6 7
f 8 10 9
f 8 20 10
f 8 19 20
f 23 28 27
f 27 28 29
f 27 29 39
f 16 17 28
f 17 30 28
f 28 30 29
f 7 44 8
f 8 45 19
f 8 44 45
f 19 45 47
f 43 45 44
f 45 54 47
f 43 55 45
f 45 56 54
f 47 54 48
f 48 54 64
f 26 27 60
f 27 39 66
f 26 60 58
f 27 66 60
f 54 59 60
f 54 56 59
f 45 55 56
f 54 60 66
f 58 60 59
f 39 40 66
f 40 64 66
f 54 66 64
f 9 10 15
f 10 20 18
f 18 13 14
f 9 15 16
f 10 18 15
f 15 17 16
f 15 18 31
f 18 14 32
f 18 32 31
f 18 46 13
f 18 20 46
f 46 21 13
f 49 22 21
f 15 31 34
f 15 38 17
f 15 34 38
f 17 38 30
f 29 30 37
f 29 37 39
f 30 38 37
f 38 34 35
f 37 40 39
f 37 38 62
f 37 65 40
f 38 35 63
f 38 63 62
f 19 46 20
f 46 49 21
f 19 47 46
f 46 48 49
f 46 47 48
f 48 50 49
f 49 51 22
f 49 50 51
f 48 64 50
f 40 65 64
f 37 62 65
f 64 65 50
f 11 22 12
f 11 14 13
f 11 13 21
f 11 36 14
f 11 12 36
f 36 32 14
f 11 21 22
f 12 22 51
f 12 53 36
f 33 31 32
f 33 34 31
f 33 35 34
f 33 32 36
f 33 36 35
f 36 63 35
f 12 51 52
f 12 52 53
f 52 51 50
f 52 50 65
f 52 67 53
f 36 53 68
f 36 68 63
f 67 62 63
f 52 65 67
f 53 67 68
f 67 65 62
f 67 63 68
