# MAAS exact compiled indexed mesh
# program_hash 733330a922e75346ec994b7411212147d9fb6015f2e7b260ed548602de8ee1c7
# geometry_hash 77ba6bd6daf1c862daa8462f0a5536dcde5c02afb40aef0462d4aeda27cc33ec
v -30.36390993 -6.62699548 0
v -29.80200415 -6.62699548 2.12671823
v -30.36390993 -3.97619729 0
v -29.80200415 -3.97619729 2.12671823
v -18.39256325 -6.62699548 0
v -17.93581929 -6.62699548 1.72869857
v -18.39256325 -3.97619729 0
v -28.12615891 -6.62699548 4.21607231
v -28.12615891 -3.97619729 4.21607231
v -16.57361191 -6.62699548 3.42702577
v -30.36390993 -1.3253991 0
v -29.80200415 -1.3253991 2.12671823
v -18.39256325 -1.3253991 0
v -28.12615891 -1.3253991 4.21607231
v -6.42121658 -6.62699548 0
v -6.06963443 -6.62699548 1.33067891
v -6.42121658 -3.97619729 0
v -5.02106491 -6.62699548 2.63797923
v -3.29393024 -6.62699548 3.8989331
v -6.42121658 -1.3253991 0
v -25.36581698 -6.62699548 6.23135457
v -25.36581698 -3.97619729 6.23135457
v -21.5694746 -6.62699548 8.13715865
v -16.8038294 -6.62699548 9.90000165
v -21.5694746 -3.97619729 8.13715865
v -16.8038294 -3.97619729 9.90000165
v -25.36581698 -1.3253991 6.23135457
v -21.5694746 -1.3253991 8.13715865
v -16.8038294 -1.3253991 9.90000165
v -14.32987361 -6.62699548 5.06514383
v -11.24402446 -6.62699548 6.61427279
v -0.91857431 -6.62699548 5.09138694
v -7.37027949 -6.62699548 8.04719613
v -7.37027949 -3.97619729 8.04719613
v -7.37027949 -1.3253991 8.04719613
v -30.36390993 1.3253991 0
v -29.80200415 1.3253991 2.12671823
v -18.39256325 1.3253991 0
v -28.12615891 1.3253991 4.21607231
v -30.36390993 3.97619729 0
v -29.80200415 3.97619729 2.12671823
v -30.36390993 6.62699548 0
v -29.80200415 6.62699548 2.12671823
v -18.39256325 3.97619729 0
v -18.39256325 6.62699548 0
v -17.93581929 6.62699548 1.72869857
v -28.12615891 3.97619729 4.21607231
v -28.12615891 6.62699548 4.21607231
v -16.57361191 6.62699548 3.42702577
v -6.42121658 1.3253991 0
v -6.42121658 3.97619729 0
v -6.42121658 6.62699548 0
v -6.06963443 6.62699548 1.33067891
v -5.02106491 6.62699548 2.63797923
v -3.29393024 6.62699548 3.8989331
v -25.36581698 1.3253991 6.23135457
v -21.5694746 1.3253991 8.13715865
v -16.8038294 1.3253991 9.90000165
v -25.36581698 3.97619729 6.23135457
v -25.36581698 6.62699548 6.23135457
v -21.5694746 3.97619729 8.13715865
v -16.8038294 3.97619729 9.90000165
v -21.5694746 6.62699548 8.13715865
v -16.8038294 6.62699548 9.90000165
v -7.37027949 1.3253991 8.04719613
v -14.32987361 6.62699548 5.06514383
v -11.24402446 6.62699548 6.61427279
v -0.91857431 6.62699548 5.09138694
v -7.37027949 3.97619729 8.04719613
v -7.37027949 6.62699548 8.04719613
v 5.55013009 -6.62699548 0
v 5.79655043 -6.62699548 0.93265925
v 6.53148209 -6.62699548 1.84893269
v 5.55013009 -3.97619729 0
v 7.74201313 -6.62699548 2.73272237
v 9.40687583 -6.62699548 3.56850108
v 11.49682034 -6.62699548 4.34158508
v 11.49682034 -3.97619729 4.34158508
v 5.55013009 -1.3253991 0
v 11.49682034 -1.3253991 4.34158508
v 17.52147676 -6.62699548 0
v 17.66273529 -6.62699548 0.53463959
v 18.08402909 -6.62699548 1.05988614
v 18.77795651 -6.62699548 1.56651164
v 19.73232597 -6.62699548 2.04561522
v 17.52147676 -3.97619729 0
v 29.49282344 -6.62699548 0
v 29.52892014 -6.62699548 0.13661993
v 29.63657609 -6.62699548 0.2708396
v 29.81389988 -6.62699548 0.40030091
v 30.05777612 -6.62699548 0.52272937
v 30.36392017 -6.62699548 0.63597403
v 29.49282344 -3.97619729 0
v 29.52892014 -3.97619729 0.13661993
v 29.63657609 -3.97619729 0.2708396
v 29.81389988 -3.97619729 0.40030091
v 30.05777612 -3.97619729 0.52272937
v 30.36392017 -3.97619729 0.63597403
v 20.93037025 -6.62699548 2.48877955
v 20.93037025 -3.97619729 2.48877955
v 17.52147676 -1.3253991 0
v 29.49282344 -1.3253991 0
v 29.52892014 -1.3253991 0.13661993
v 29.63657609 -1.3253991 0.2708396
v 29.81389988 -1.3253991 0.40030091
v 30.05777612 -1.3253991 0.52272937
v 30.36392017 -1.3253991 0.63597403
v 20.93037025 -1.3253991 2.48877955
v 2.06327043 -6.62699548 6.1943906
v 2.06327043 -3.97619729 6.1943906
v 2.06327043 -1.3253991 6.1943906
v 5.55013009 1.3253991 0
v 11.49682034 1.3253991 4.34158508
v 5.55013009 3.97619729 0
v 5.55013009 6.62699548 0
v 5.79655043 6.62699548 0.93265925
v 6.53148209 6.62699548 1.84893269
v 11.49682034 3.97619729 4.34158508
v 7.74201313 6.62699548 2.73272237
v 9.40687583 6.62699548 3.56850108
v 11.49682034 6.62699548 4.34158508
v 17.52147676 1.3253991 0
v 29.49282344 1.3253991 0
v 29.52892014 1.3253991 0.13661993
v 29.63657609 1.3253991 0.2708396
v 29.81389988 1.3253991 0.40030091
v 30.05777612 1.3253991 0.52272937
v 30.36392017 1.3253991 0.63597403
v 20.93037025 1.3253991 2.48877955
v 15.18196264 3.31349774 0
v 15.76684117 3.47917263 0
v 16.3517197 3.64484751 0
v 16.93659823 3.8105224 0
v 18.77063034 3.31429558 0.03415498
v 18.80303481 3.31658803 0.0677099
v 18.75967784 3.47917263 0
v 17.52147676 3.97619729 0
v 17.13265484 3.73924087 0.90445028
v 15.76684117 4.30754706 0
v 16.3517197 4.47322195 0
v 16.93659823 4.63889684 0
v 17.52147676 4.63889684 0
v 17.13265484 4.35474374 0.90445028
v 19.34455637 3.64484751 0
v 19.9294349 3.8105224 0
v 20.51431343 3.97619729 0
v 22.34662262 3.31429558 0.03415498
v 22.35623385 3.31664243 0.06830997
v 22.38398855 3.32042514 0.10186488
v 22.41193626 3.32564705 0.1354198
v 22.33739304 3.47917263 0
v 22.33739304 3.64484751 0
v 19.93633674 3.78866323 0.97216018
v 22.52426033 3.83735203 1.03987008
v 20.51431343 4.63889684 0
v 22.61319036 4.14145456 1.97668569
v 22.63414014 4.13406352 2.00905102
v 22.66386109 4.12592885 2.03965813
v 22.69408003 4.11670404 2.07026525
v 22.73307272 4.1072229 2.09857641
v 19.0563982 4.15910236 1.80890056
v 19.0563982 4.56467449 1.80890056
v 20.8187029 4.15621152 1.87661046
v 22.59235794 4.14757833 1.94432036
v 22.23975107 4.29906087 2.30783357
v 15.76684117 5.1359215 0
v 16.3517197 5.30159638 0
v 16.93659823 5.30159638 0
v 17.52147676 5.30159638 0
v 17.13265484 4.97024661 0.90445028
v 17.13265484 5.58574948 0.90445028
v 15.76684117 5.96429593 0
v 16.3517197 5.96429593 0
v 16.93659823 5.96429593 0
v 15.18196264 6.62699548 0
v 15.76684117 6.62699548 0
v 16.3517197 6.62699548 0
v 16.93659823 6.62699548 0
v 17.52147676 5.96429593 0
v 17.52147676 6.62699548 0
v 17.59406897 6.61515541 0.1336599
v 17.73622849 6.5809074 0.2673198
v 17.93982111 6.52640914 0.40097969
v 18.19414612 6.45471 0.53463959
v 17.13265484 6.20125234 0.90445028
v 17.56723417 6.20125234 0.90445028
v 18.00181351 6.20125234 0.90445028
v 18.43639285 6.20125234 0.90445028
v 18.801785 6.10439185 1.03811018
v 18.54053022 6.37128694 0.66595123
v 18.90151676 6.27933956 0.79726287
v 18.08402909 6.62699548 1.05988614
v 20.51431343 5.30159638 0
v 20.51431343 5.96429593 0
v 20.51431343 6.62699548 0
v 20.52442095 6.62619764 0.03415498
v 20.58342075 6.60846348 0.16781488
v 20.67050384 6.5688018 0.30147478
v 20.78120224 6.50958202 0.43513468
v 20.82865858 6.49201091 0.46868959
v 21.0194642 6.41453364 0.60000123
v 19.2617807 6.18360194 0.92857451
v 19.6066965 6.08898638 1.05988614
v 19.14437977 6.01289553 1.17177008
v 19.95730775 6.00332594 1.18654252
v 21.46051708 6.20817776 0.89498984
v 21.67808666 6.11613545 1.02164621
v 21.87275637 6.02835285 1.14830258
v 21.21279846 6.32629634 0.73131287
v 21.40165854 6.23185376 0.86262451
v 15.18196264 6.62699548 1.25809919
v 18.77795651 6.62699548 1.56651164
v 15.18196264 6.62699548 2.30637466
v 16.77329415 6.62699548 2.2151831
v 18.97193585 6.02569788 2.46550001
v 19.0563982 4.97024661 1.80890056
v 19.0563982 5.37581873 1.80890056
v 19.0563982 5.78139086 1.80890056
v 19.34275473 5.78139086 1.80890056
v 19.62911126 5.78139086 1.80890056
v 20.09735789 5.78894236 1.69936489
v 20.20638842 5.78157588 1.82602126
v 20.91237367 5.79084602 1.68628754
v 21.05061565 5.78139594 1.80606343
v 22.54448089 5.79441496 1.66489376
v 22.58361773 5.7898127 1.69320492
v 22.73220308 5.78140604 1.80399601
v 19.60312409 5.79261862 1.94256046
v 20.25220021 5.79437365 1.95267764
v 21.15041297 5.78999404 1.92583933
v 19.44775483 5.93161053 1.30542998
v 19.73209309 5.86586511 1.43674161
v 20.2647454 5.92729407 1.31319889
v 20.5229397 5.86450534 1.43985527
v 19.95021293 5.8174861 1.56805325
v 20.72885741 5.81794289 1.56651164
v 22.04274707 5.94900839 1.27495896
v 22.09115908 5.93153448 1.30556607
v 22.26385345 5.87092687 1.42534197
v 22.41309138 5.82456368 1.54511786
v 19.49381421 5.82570857 2.07622036
v 20.24292234 5.82672811 2.07933401
v 19.35176631 5.87781808 2.207532
v 19.15424471 5.94668388 2.33884364
v 20.2336032 5.87393992 2.19910991
v 20.20024877 5.9352681 2.3188858
v 20.15553265 6.00810561 2.4386617
v 21.22023334 5.81627512 2.04561522
v 21.30849689 5.85537044 2.15640631
v 21.39209162 5.90722548 2.26719739
v 21.48037705 5.96995358 2.37798847
v 22.92227157 3.8105224 0
v 23.5071501 3.97619729 0
v 25.92261489 3.31429558 0.03415498
v 25.92715816 3.31664243 0.06830997
v 25.92877455 3.32050596 0.10246495
v 25.94545153 3.32575338 0.13601987
v 25.91510824 3.47917263 0
v 25.95920926 3.33241373 0.16957478
v 25.97003495 3.34045844 0.2031297
v 25.91510824 3.64484751 0
v 25.91510824 3.8105224 0
v 26.49998677 3.97619729 0
v 24.90252977 3.88464249 1.10757998
v 24.88798869 3.90656414 1.13994531
v 24.87335397 3.92795011 1.17231064
v 24.85880476 3.94873371 1.20467597
v 24.85681391 3.96777555 1.23528308
v 23.5071501 4.63889684 0
v 26.49998677 4.63889684 0
v 26.21988757 4.31542105 1.09917541
v 26.21988757 4.75197142 1.09917541
v 29.49282344 3.31349774 0
v 29.49860717 3.31429558 0.03415498
v 29.49808247 3.31664243 0.06830997
v 29.49135564 3.32050596 0.10246495
v 29.52892014 3.31349774 0.13661993
v 29.47850802 3.32586016 0.13661993
v 29.49282344 3.47917263 0
v 29.49860717 3.47989068 0.03415498
v 29.49808247 3.48200285 0.06830997
v 29.49135564 3.48548003 0.10246495
v 29.47850802 3.4902988 0.13661993
v 29.47785062 3.33254553 0.17017485
v 29.47128804 3.34061471 0.20372977
v 29.45888503 3.35003569 0.23728468
v 29.44072361 3.36077275 0.2708396
v 29.63657609 3.31349774 0.2708396
v 29.43556243 3.37233914 0.30320493
v 29.47785062 3.49631563 0.17017485
v 29.47128804 3.5035779 0.20372977
v 29.45888503 3.51205678 0.23728468
v 29.49282344 3.64484751 0
v 29.49860717 3.64548579 0.03415498
v 29.49808247 3.64736326 0.06830997
v 29.49135564 3.65045409 0.10246495
v 29.47850802 3.65473745 0.13661993
v 29.44072361 3.52172013 0.2708396
v 29.43556243 3.53212989 0.30320493
v 29.47785062 3.66008574 0.17017485
v 29.47128804 3.66654109 0.20372977
v 29.45888503 3.67407787 0.23728468
v 29.44072361 3.68266752 0.2708396
v 29.43556243 3.69192064 0.30320493
v 29.40900403 3.3988768 0.36793558
v 29.38779502 3.4137609 0.40030091
v 29.38073651 3.42876973 0.43090802
v 29.36884121 3.44464179 0.46151514
v 29.35221216 3.46133159 0.49212225
v 29.33096854 3.47879149 0.52272937
v 29.32525419 3.49558419 0.55104053
v 29.31540395 3.51295253 0.5793517
v 29.40900403 3.55601378 0.36793558
v 29.38779502 3.56940947 0.40030091
v 29.38073651 3.58291742 0.43090802
v 29.36884121 3.59720227 0.46151514
v 29.40900403 3.71315076 0.36793558
v 29.38779502 3.72505804 0.40030091
v 29.35221216 3.61222309 0.49212225
v 29.30152888 3.53085446 0.60766286
v 29.33096854 3.627937 0.52272937
v 29.32525419 3.64305043 0.55104053
v 29.31540395 3.65868194 0.5793517
v 29.30152888 3.67479367 0.60766286
v 29.42496085 3.3850545 0.33557026
v 29.81389988 3.31349774 0.40030091
v 30.05777612 3.31349774 0.52272937
v 29.42496085 3.54357371 0.33557026
v 29.42496085 3.70209292 0.33557026
v 29.49282344 3.8105224 0
v 29.49860717 3.81108089 0.03415498
v 29.49808247 3.81272368 0.06830997
v 29.49135564 3.81542816 0.10246495
v 29.47850802 3.81917609 0.13661993
v 29.47785062 3.82385585 0.17017485
v 29.47128804 3.82950428 0.20372977
v 29.45888503 3.83609897 0.23728468
v 29.44072361 3.8436149 0.2708396
v 29.43556243 3.85171138 0.30320493
v 29.49282344 3.97619729 0
v 29.49860717 3.97667599 0.03415498
v 29.49808247 3.9780841 0.06830997
v 29.49135564 3.98040222 0.10246495
v 29.47850802 3.98361474 0.13661993
v 29.47785062 3.98762596 0.17017485
v 29.47128804 3.99246747 0.20372977
v 29.45888503 3.99812006 0.23728468
v 29.44072361 4.00456229 0.2708396
v 29.43556243 4.01150213 0.30320493
v 29.38073651 3.73706511 0.43090802
v 29.36884121 3.74976276 0.46151514
v 29.40900403 3.87028774 0.36793558
v 29.38779502 3.88070661 0.40030091
v 29.38073651 3.8912128 0.43090802
v 29.36884121 3.90232324 0.46151514
v 29.35221216 3.76311459 0.49212225
v 29.33096854 3.77708251 0.52272937
v 29.32525419 3.79051667 0.55104053
v 29.31540395 3.80441135 0.5793517
v 29.30152888 3.81873289 0.60766286
v 29.35221216 3.9140061 0.49212225
v 29.33096854 3.92622802 0.52272937
v 29.40900403 4.02742473 0.36793558
v 29.38779502 4.03635518 0.40030091
v 29.38073651 4.04536048 0.43090802
v 29.36884121 4.05488372 0.46151514
v 29.32525419 3.93798291 0.55104053
v 29.31540395 3.95014076 0.5793517
v 29.30152888 3.9626721 0.60766286
v 29.35221216 4.0648976 0.49212225
v 29.33096854 4.07537354 0.52272937
v 29.32525419 4.08544915 0.55104053
v 29.31540395 4.09587016 0.5793517
v 29.30152888 4.10661132 0.60766286
v 29.42496085 3.86061213 0.33557026
v 29.42496085 4.01913134 0.33557026
v 29.28375335 3.54924667 0.63597403
v 29.28375335 3.69134667 0.63597403
v 30.36392017 3.31349774 0.63597403
v 29.28375335 3.83344666 0.63597403
v 29.28375335 3.97554665 0.63597403
v 29.28375335 4.11764665 0.63597403
v 29.49282344 4.63889684 0
v 29.49860717 4.6390564 0.03415498
v 29.49808247 4.63952577 0.06830997
v 29.49135564 4.64029848 0.10246495
v 29.47850802 4.64136932 0.13661993
v 29.47785062 4.64270639 0.17017485
v 29.47128804 4.64432023 0.20372977
v 29.45888503 4.64620443 0.23728468
v 29.44072361 4.64835184 0.2708396
v 29.43556243 4.65066512 0.30320493
v 29.40900403 4.65597265 0.36793558
v 29.38779502 4.65894947 0.40030091
v 29.38073651 4.66195123 0.43090802
v 29.36884121 4.66512565 0.46151514
v 29.35221216 4.66846361 0.49212225
v 29.33096854 4.67195559 0.52272937
v 29.32525419 4.67531412 0.55104053
v 29.31540395 4.67878779 0.5793517
v 29.30152888 4.68236818 0.60766286
v 29.42496085 4.65320819 0.33557026
v 29.28375335 4.68604662 0.63597403
v 24.85479607 3.98616767 1.26589019
v 24.85293326 4.00385883 1.29649731
v 24.86306619 4.01955603 1.32480847
v 24.87327376 4.03457388 1.35311964
v 24.88373211 4.04887659 1.3814308
v 24.88373211 4.14101359 1.3814308
v 22.7729414 4.09685356 2.12688758
v 23.47724539 4.40188164 1.84463219
v 24.24571273 4.46088561 1.56237679
v 24.24571273 4.80045961 1.56237679
v 24.88373211 4.23315059 1.3814308
v 24.88373211 4.3252876 1.3814308
v 22.7729414 4.18419286 2.12688758
v 22.7729414 4.27153217 2.12688758
v 23.03460571 4.46598334 2.02557817
v 23.03460571 4.80215885 2.02557817
v 23.5071501 5.30159638 0
v 26.49998677 5.30159638 0
v 26.21988757 5.1885218 1.09917541
v 26.21988757 5.62507217 1.09917541
v 23.5071501 5.96429593 0
v 23.5071501 6.62699548 0
v 23.51581636 6.62619764 0.03415498
v 23.52377059 6.62385079 0.06830997
v 23.54783973 6.60033561 0.20196986
v 23.56027425 6.55541431 0.33562976
v 23.57866331 6.54106138 0.36918468
v 23.59598315 6.52556914 0.4027396
v 23.65306316 6.4550579 0.53405123
v 26.49998677 5.96429593 0
v 26.49998677 6.62699548 0
v 26.50721176 6.62619764 0.03415498
v 26.51092653 6.62385079 0.06830997
v 26.51117899 6.61998726 0.10246495
v 26.47967803 6.56814291 0.30323468
v 26.47959731 6.59080534 0.23612485
v 26.48129373 6.58011314 0.26967976
v 26.47478868 6.55493777 0.3367896
v 26.41708898 6.45577809 0.53283189
v 26.42529312 6.49232754 0.46810124
v 26.42270659 6.4744759 0.50046656
v 26.40851973 6.43629354 0.56519722
v 23.89440368 6.09977012 1.0446205
v 23.85162923 6.14367428 0.98340628
v 23.87371222 6.12160497 1.01401339
v 23.96378768 6.01771947 1.1643964
v 23.69273542 6.37168315 0.66536287
v 23.71517976 6.34964325 0.6977282
v 23.73612394 6.3271516 0.73009353
v 23.80407864 6.23614451 0.8567499
v 26.2698156 6.20198396 0.90345083
v 26.2623607 6.16061804 0.96007316
v 26.25617284 6.14007144 0.98838433
v 26.26695999 6.18127201 0.931762
v 26.21988757 6.06162254 1.09917541
v 26.33675291 6.31095059 0.75306782
v 26.34851102 6.3536793 0.69185359
v 26.34388455 6.33249286 0.72246071
v 26.3272398 6.28911299 0.78367493
v 29.49282344 5.30159638 0
v 29.49860717 5.30143682 0.03415498
v 29.49808247 5.30096745 0.06830997
v 29.49135564 5.30019474 0.10246495
v 29.47850802 5.2991239 0.13661993
v 29.47785062 5.29778683 0.17017485
v 29.47128804 5.29617299 0.20372977
v 29.45888503 5.29428879 0.23728468
v 29.44072361 5.29214138 0.2708396
v 29.43556243 5.2898281 0.30320493
v 29.38073651 5.27854198 0.43090802
v 29.36884121 5.27536757 0.46151514
v 29.40900403 5.28452057 0.36793558
v 29.38779502 5.28154375 0.40030091
v 29.35221216 5.27202961 0.49212225
v 29.33096854 5.26853763 0.52272937
v 29.32525419 5.26517909 0.55104053
v 29.31540395 5.26170542 0.5793517
v 29.30152888 5.25812504 0.60766286
v 29.42496085 5.28728503 0.33557026
v 29.28375335 5.2544466 0.63597403
v 29.49282344 5.96429593 0
v 29.49860717 5.96381723 0.03415498
v 29.49808247 5.96240912 0.06830997
v 29.49135564 5.960091 0.10246495
v 29.47850802 5.95687848 0.13661993
v 29.47785062 5.95286726 0.17017485
v 29.47128804 5.94802575 0.20372977
v 29.45888503 5.94237316 0.23728468
v 29.44072361 5.93593093 0.2708396
v 29.43556243 5.92899109 0.30320493
v 29.38073651 5.89513274 0.43090802
v 29.36884121 5.8856095 0.46151514
v 29.40900403 5.91306849 0.36793558
v 29.38779502 5.90413804 0.40030091
v 29.35221216 5.87559562 0.49212225
v 29.33096854 5.86511968 0.52272937
v 29.31540395 5.84462306 0.5793517
v 29.30152888 5.8338819 0.60766286
v 29.32525419 5.85504406 0.55104053
v 29.42496085 5.92136188 0.33557026
v 29.49282344 6.62699548 0
v 29.49860717 6.62619764 0.03415498
v 29.49808247 6.62385079 0.06830997
v 29.49135564 6.61998726 0.10246495
v 29.47850802 6.61463306 0.13661993
v 29.47785062 6.60794769 0.17017485
v 29.47128804 6.5998785 0.20372977
v 29.43556243 6.56815407 0.30320493
v 29.45888503 6.59045753 0.23728468
v 29.44072361 6.57972047 0.2708396
v 29.30152888 6.40963876 0.60766286
v 29.36884121 6.49585143 0.46151514
v 29.38073651 6.51172349 0.43090802
v 29.40900403 6.54161642 0.36793558
v 29.38779502 6.52673232 0.40030091
v 29.33096854 6.46170173 0.52272937
v 29.35221216 6.47916163 0.49212225
v 29.32525419 6.44490903 0.55104053
v 29.31540395 6.42754069 0.5793517
v 29.42496085 6.55543872 0.33557026
v 29.28375335 5.82284657 0.63597403
v 29.28375335 6.39124655 0.63597403
v 24.24571273 5.14003361 1.56237679
v 24.24571273 5.47960761 1.56237679
v 23.03460571 5.13833437 2.02557817
v 23.03460571 5.47450988 2.02557817
v 22.87976597 5.78844897 1.91478709
v 24.04354896 5.92768949 1.31248346
v 24.01978876 5.94367084 1.28417229
v 24.06674343 5.91237139 1.34079463
v 24.15485282 5.85947123 1.45158571
v 24.24571273 5.81918162 1.56237679
v 23.03460571 5.8106854 2.02557817
v 17.13265484 3.73924087 2.71335085
v 18.59789756 3.79707227 3.05329034
v 16.80932138 3.52527154 3.33554573
v 15.18196264 3.31349774 3.61780113
v 17.13265484 4.35474374 2.71335085
v 18.59789756 4.38365944 3.05329034
v 17.13265484 4.97024661 2.71335085
v 18.59789756 4.97024661 3.05329034
v 16.80932138 4.16748268 3.33554573
v 16.80932138 4.97024661 3.33554573
v 19.6989025 3.68976036 2.78106075
v 19.67743881 3.66628585 2.81342607
v 19.67400218 3.64428318 2.84403319
v 19.68914665 3.62415577 2.87234435
v 20.25257027 4.07901893 2.77103495
v 19.68914665 3.75876486 2.87234435
v 21.14793675 4.0570041 2.59008896
v 20.25257027 4.58829189 2.77103495
v 21.5817896 4.32763173 2.48877955
v 21.5817896 4.75604165 2.48877955
v 17.13265484 5.58574948 2.71335085
v 18.59789756 5.70348057 3.05329034
v 16.80932138 5.77301054 3.33554573
v 16.89397519 6.38893779 2.97832238
v 17.13265484 6.20125234 2.71335085
v 17.56723417 6.20125234 2.71335085
v 18.77622802 6.11327633 2.59215639
v 18.64937279 6.20021395 2.71193228
v 17.18498526 6.29833796 2.84701074
v 18.54683448 6.28737699 2.83170818
v 18.55002167 6.36496722 2.94249926
v 18.59789756 6.43671453 3.05329034
v 16.72546372 6.46743449 3.10497876
v 16.69675457 6.53015836 3.22475465
v 16.80932138 6.57577447 3.33554573
v 15.18196264 6.62699548 3.61780113
v 20.25257027 5.09756485 2.77103495
v 20.25257027 5.60683781 2.77103495
v 21.5817896 5.18445157 2.48877955
v 21.5817896 5.61286149 2.48877955
v 20.16771968 6.08304304 2.54945278
v 20.19734591 6.16244985 2.66024386
v 20.25257027 6.24342901 2.77103495
v 21.5817896 6.04127142 2.48877955
v 2.06327043 1.3253991 6.1943906
v 2.06327043 3.97619729 6.1943906
v 2.06327043 6.62699548 6.1943906
f 1 5 2
f 1 3 5
f 1 2 4
f 1 4 3
f 2 5 6
f 3 7 5
f 2 8 9
f 2 6 8
f 8 10 21
f 2 9 4
f 8 22 9
f 6 10 8
f 10 30 21
f 3 12 11
f 3 11 7
f 3 4 12
f 11 36 13
f 11 12 37
f 7 11 13
f 4 9 14
f 4 14 12
f 9 27 14
f 12 14 39
f 5 15 6
f 5 7 15
f 6 15 16
f 6 16 10
f 10 16 18
f 7 17 15
f 15 71 16
f 15 17 71
f 16 72 18
f 10 18 30
f 18 73 19
f 18 19 30
f 7 13 17
f 13 20 17
f 13 38 20
f 17 20 74
f 20 50 79
f 8 21 22
f 21 25 22
f 21 30 23
f 23 30 31
f 21 23 25
f 23 31 24
f 23 24 26
f 23 26 25
f 9 22 27
f 22 28 27
f 14 27 56
f 22 25 28
f 27 28 57
f 25 29 28
f 25 26 29
f 28 29 58
f 19 31 30
f 19 32 31
f 31 32 33
f 32 109 33
f 34 109 110
f 24 31 33
f 24 33 26
f 26 33 34
f 33 109 34
f 35 110 111
f 26 34 29
f 29 34 35
f 29 35 58
f 34 110 35
f 35 111 65
f 11 37 36
f 36 41 40
f 36 40 38
f 36 37 41
f 13 36 38
f 38 40 44
f 12 39 37
f 14 56 39
f 37 39 47
f 37 47 41
f 39 59 47
f 40 42 44
f 40 41 43
f 40 43 42
f 42 43 46
f 42 45 44
f 42 46 45
f 43 49 46
f 41 47 48
f 41 48 43
f 43 48 49
f 47 60 48
f 48 66 49
f 20 38 50
f 38 44 50
f 44 51 50
f 50 51 112
f 44 45 51
f 45 46 53
f 45 52 51
f 45 53 52
f 46 54 53
f 51 52 114
f 52 53 116
f 53 54 117
f 46 49 54
f 49 55 54
f 49 66 55
f 54 55 119
f 55 66 68
f 27 57 56
f 39 56 59
f 56 61 59
f 56 57 61
f 28 58 57
f 57 62 61
f 57 58 62
f 47 59 60
f 59 63 60
f 48 60 66
f 60 67 66
f 60 63 67
f 59 61 63
f 61 62 64
f 61 64 63
f 63 64 70
f 65 111 581
f 69 581 582
f 35 65 58
f 58 65 62
f 62 65 69
f 65 581 69
f 66 67 68
f 67 583 68
f 67 70 583
f 70 582 583
f 62 69 64
f 63 70 67
f 64 69 70
f 69 582 70
f 16 71 72
f 18 72 73
f 17 74 71
f 71 81 72
f 72 82 73
f 71 74 81
f 72 81 82
f 73 82 83
f 73 83 75
f 75 83 84
f 74 86 81
f 19 73 75
f 19 75 32
f 32 75 76
f 75 84 76
f 76 85 77
f 76 77 109
f 77 99 78
f 20 79 74
f 74 79 86
f 79 101 86
f 79 112 101
f 78 100 80
f 80 108 113
f 81 87 82
f 82 88 83
f 83 89 84
f 81 86 87
f 76 84 85
f 82 87 88
f 83 88 89
f 84 89 90
f 85 90 91
f 91 92 99
f 87 93 88
f 88 94 89
f 89 95 90
f 90 96 91
f 91 97 92
f 84 90 85
f 85 91 99
f 92 100 99
f 86 93 87
f 88 93 94
f 89 94 95
f 90 95 96
f 91 96 97
f 92 97 98
f 92 98 100
f 77 85 99
f 78 99 100
f 86 101 93
f 101 122 102
f 93 101 102
f 93 102 94
f 94 103 95
f 95 104 96
f 96 105 97
f 97 106 98
f 94 102 103
f 95 103 104
f 96 104 105
f 97 105 106
f 98 106 107
f 98 108 100
f 98 107 108
f 102 123 103
f 103 124 104
f 104 125 105
f 105 126 106
f 106 127 107
f 107 129 108
f 80 100 108
f 32 76 109
f 77 110 109
f 77 78 110
f 78 111 110
f 80 581 111
f 78 80 111
f 50 112 79
f 51 114 112
f 101 112 122
f 112 114 122
f 114 130 122
f 113 129 118
f 52 115 114
f 52 116 115
f 53 117 116
f 54 119 117
f 114 115 130
f 115 116 175
f 116 117 175
f 115 175 130
f 117 211 175
f 117 119 212
f 117 212 211
f 119 213 212
f 55 120 119
f 55 68 120
f 68 121 120
f 118 540 572
f 119 120 213
f 120 572 213
f 118 572 121
f 120 121 572
f 122 130 273
f 128 540 129
f 102 122 123
f 103 123 124
f 104 124 125
f 105 125 126
f 106 126 127
f 107 127 128
f 107 128 129
f 122 273 123
f 123 277 124
f 124 288 125
f 125 326 126
f 126 327 127
f 127 379 128
f 123 273 277
f 124 277 288
f 125 288 326
f 126 326 327
f 127 327 379
f 128 379 540
f 108 129 113
f 118 129 540
f 192 211 212
f 212 213 214
f 113 582 581
f 80 113 581
f 113 118 582
f 118 583 582
f 68 583 121
f 118 121 583
f 192 214 211
f 192 212 214
f 211 214 213
f 131 130 139
f 131 136 130
f 131 139 132
f 132 140 133
f 132 139 140
f 131 132 144
f 131 144 136
f 132 145 144
f 132 133 145
f 133 141 137
f 133 137 146
f 139 130 166
f 133 140 141
f 139 166 140
f 166 130 172
f 140 167 141
f 137 141 142
f 137 142 146
f 141 168 142
f 142 169 155
f 136 144 152
f 133 146 145
f 144 145 252
f 136 273 130
f 136 152 151
f 144 252 152
f 145 146 253
f 145 253 252
f 142 155 146
f 146 155 253
f 155 269 253
f 155 193 269
f 550 410 416
f 552 416 417
f 551 418 555
f 553 411 165
f 553 417 411
f 551 165 418
f 555 418 556
f 556 418 419
f 556 419 575
f 172 130 175
f 140 166 167
f 141 167 168
f 166 172 167
f 167 173 168
f 167 172 173
f 168 173 174
f 142 168 169
f 168 174 169
f 169 174 179
f 169 179 193
f 172 176 173
f 173 177 174
f 172 175 176
f 176 175 185
f 173 176 177
f 174 177 178
f 176 186 177
f 176 185 186
f 174 178 179
f 179 180 194
f 178 180 179
f 177 187 178
f 178 188 180
f 180 181 196
f 181 182 197
f 177 186 187
f 178 187 188
f 180 188 181
f 182 204 183
f 183 184 199
f 182 183 198
f 181 189 182
f 185 218 186
f 183 204 231
f 186 219 187
f 187 220 188
f 181 188 189
f 183 231 184
f 182 189 204
f 190 184 231
f 155 169 193
f 179 194 193
f 193 420 269
f 193 194 420
f 194 424 420
f 180 195 194
f 180 196 195
f 181 197 196
f 182 198 197
f 183 199 198
f 190 200 184
f 184 200 199
f 190 201 200
f 194 195 424
f 195 196 426
f 196 197 427
f 197 198 428
f 195 425 424
f 195 426 425
f 196 427 426
f 197 428 427
f 198 429 428
f 199 200 430
f 199 429 198
f 201 431 200
f 200 431 430
f 199 430 429
f 201 432 431
f 190 232 191
f 190 231 232
f 191 235 202
f 221 203 202
f 206 203 205
f 210 202 203
f 206 210 203
f 205 233 207
f 190 191 201
f 191 202 209
f 191 209 201
f 210 209 202
f 206 205 207
f 233 208 207
f 237 238 448
f 207 208 453
f 237 447 208
f 210 450 209
f 201 209 432
f 206 451 210
f 206 207 452
f 186 218 219
f 188 220 189
f 561 219 218
f 562 220 219
f 562 228 220
f 561 562 219
f 565 241 228
f 565 243 241
f 575 419 528
f 575 528 576
f 576 528 529
f 580 529 536
f 576 529 580
f 189 228 204
f 191 232 235
f 221 205 203
f 187 219 220
f 231 204 241
f 221 202 235
f 205 222 233
f 189 220 228
f 231 241 232
f 204 228 241
f 232 243 235
f 221 222 205
f 233 229 234
f 233 222 229
f 234 242 236
f 234 229 242
f 223 236 242
f 233 234 208
f 237 236 238
f 234 237 208
f 234 236 237
f 223 238 236
f 223 239 238
f 238 239 446
f 223 224 239
f 224 230 240
f 224 240 239
f 230 225 240
f 248 226 225
f 232 241 243
f 221 235 244
f 221 244 222
f 235 243 244
f 222 215 229
f 223 245 224
f 223 242 245
f 224 246 230
f 224 245 246
f 230 247 248
f 222 244 215
f 229 563 242
f 242 563 245
f 229 215 563
f 564 246 245
f 230 246 247
f 247 577 249
f 230 248 225
f 248 249 226
f 249 250 227
f 249 227 226
f 250 530 227
f 251 536 530
f 247 249 248
f 577 250 249
f 578 251 250
f 250 251 530
f 251 580 536
f 136 151 273
f 151 152 261
f 152 252 262
f 252 253 263
f 151 261 258
f 152 262 261
f 151 258 273
f 252 263 262
f 408 378 409
f 409 380 414
f 253 269 263
f 269 420 270
f 269 270 263
f 414 381 415
f 258 261 293
f 258 279 273
f 258 293 279
f 261 330 293
f 261 262 330
f 262 263 340
f 262 340 330
f 274 273 280
f 274 281 275
f 275 282 276
f 276 283 278
f 279 280 273
f 274 280 281
f 275 281 282
f 276 282 283
f 278 283 290
f 278 290 284
f 284 291 285
f 285 292 286
f 286 298 287
f 284 290 291
f 285 291 292
f 286 292 298
f 287 299 289
f 287 298 299
f 279 294 280
f 280 295 281
f 279 293 294
f 280 294 295
f 281 296 282
f 282 297 283
f 281 295 296
f 282 296 297
f 283 297 300
f 293 331 294
f 294 332 295
f 295 333 296
f 296 334 297
f 283 300 290
f 290 301 291
f 291 302 292
f 290 300 301
f 291 301 302
f 292 303 298
f 292 302 303
f 298 304 299
f 297 335 300
f 300 336 301
f 301 337 302
f 298 303 304
f 325 313 305
f 305 313 314
f 305 314 306
f 306 315 307
f 307 316 308
f 308 319 309
f 328 317 313
f 306 314 315
f 307 315 316
f 313 318 314
f 313 317 318
f 314 350 315
f 315 351 316
f 314 318 350
f 315 350 351
f 308 316 319
f 309 319 321
f 309 321 310
f 310 321 322
f 310 322 311
f 311 323 312
f 311 322 323
f 312 324 320
f 312 323 324
f 316 356 319
f 319 357 321
f 316 351 356
f 319 356 357
f 320 324 378
f 321 358 322
f 322 359 323
f 323 360 324
f 289 328 325
f 289 299 328
f 325 328 313
f 299 329 328
f 299 304 329
f 328 329 317
f 293 330 331
f 294 331 332
f 295 332 333
f 296 333 334
f 297 334 335
f 330 341 331
f 331 342 332
f 330 340 341
f 331 341 342
f 332 343 333
f 333 344 334
f 332 342 343
f 333 343 344
f 334 344 345
f 300 335 336
f 301 336 337
f 302 338 303
f 303 339 304
f 302 337 338
f 303 338 339
f 334 345 335
f 335 346 336
f 335 345 346
f 336 347 337
f 337 348 338
f 338 349 339
f 336 346 347
f 337 347 348
f 338 348 349
f 329 352 317
f 317 352 353
f 317 353 318
f 318 354 350
f 350 355 351
f 375 363 352
f 318 353 354
f 350 354 355
f 352 364 353
f 321 357 358
f 351 361 356
f 356 362 357
f 322 358 359
f 324 360 380
f 323 359 360
f 351 355 361
f 356 361 362
f 357 362 367
f 357 367 358
f 358 368 359
f 359 369 360
f 358 367 368
f 360 369 381
f 359 368 369
f 352 363 364
f 353 365 354
f 354 366 355
f 353 364 365
f 354 365 366
f 355 370 361
f 361 371 362
f 355 366 370
f 361 370 371
f 362 371 372
f 362 372 367
f 367 373 368
f 368 374 369
f 367 372 373
f 369 374 382
f 368 373 374
f 304 375 329
f 304 339 375
f 329 375 352
f 339 376 375
f 339 349 376
f 375 376 363
f 408 377 378
f 409 378 380
f 414 380 381
f 415 381 382
f 320 378 377
f 324 380 378
f 360 381 380
f 369 382 381
f 263 270 340
f 270 421 383
f 340 270 383
f 340 383 341
f 341 384 342
f 342 385 343
f 343 386 344
f 344 387 345
f 345 388 346
f 346 389 347
f 347 390 348
f 348 391 349
f 341 383 384
f 342 384 385
f 343 385 386
f 344 386 387
f 345 387 388
f 346 388 389
f 347 389 390
f 348 390 391
f 349 391 392
f 363 393 364
f 364 394 365
f 365 395 366
f 366 396 370
f 370 397 371
f 371 398 372
f 372 399 373
f 373 400 374
f 374 401 382
f 363 402 393
f 364 393 394
f 365 394 395
f 366 395 396
f 370 396 397
f 371 397 398
f 372 398 399
f 373 399 400
f 374 400 401
f 349 392 376
f 376 402 363
f 376 392 402
f 383 463 384
f 384 464 385
f 385 465 386
f 386 466 387
f 387 467 388
f 388 468 389
f 389 469 390
f 390 470 391
f 391 471 392
f 393 475 394
f 394 476 395
f 395 473 396
f 396 474 397
f 397 477 398
f 398 478 399
f 399 479 400
f 401 481 403
f 400 480 401
f 392 472 402
f 402 482 393
f 382 403 272
f 415 382 271
f 382 272 271
f 403 422 272
f 382 401 403
f 408 409 410
f 409 416 410
f 412 411 271
f 415 411 417
f 409 414 416
f 414 415 417
f 412 413 419
f 415 271 411
f 412 271 413
f 413 271 272
f 413 272 526
f 414 417 416
f 165 412 418
f 165 411 412
f 412 419 418
f 413 528 419
f 420 424 421
f 270 420 421
f 424 433 421
f 424 425 433
f 425 426 435
f 426 427 436
f 427 428 437
f 428 429 439
f 431 432 441
f 429 430 440
f 430 431 438
f 450 443 432
f 425 434 433
f 425 435 434
f 426 436 435
f 427 437 436
f 428 439 437
f 429 440 439
f 452 445 442
f 432 443 441
f 430 438 440
f 431 441 438
f 451 442 444
f 450 444 443
f 239 449 446
f 208 447 453
f 238 446 448
f 237 448 447
f 209 450 432
f 210 451 450
f 206 452 451
f 207 453 452
f 452 442 451
f 450 451 444
f 453 445 452
f 453 447 460
f 448 461 447
f 531 533 455
f 446 449 462
f 446 459 448
f 532 457 454
f 531 455 457
f 449 454 462
f 532 454 449
f 532 531 457
f 533 456 455
f 534 458 456
f 453 460 445
f 448 459 461
f 447 461 460
f 446 462 459
f 421 433 463
f 383 421 463
f 384 463 464
f 385 464 465
f 386 465 466
f 387 466 467
f 388 467 468
f 389 468 469
f 390 469 470
f 391 470 471
f 392 471 472
f 396 473 474
f 393 482 475
f 394 475 476
f 395 476 473
f 397 474 477
f 398 477 478
f 399 478 479
f 400 479 480
f 401 480 481
f 402 472 482
f 463 433 484
f 463 484 464
f 464 485 465
f 465 486 466
f 466 487 467
f 467 488 468
f 468 489 469
f 469 490 470
f 470 491 471
f 471 492 472
f 464 484 485
f 465 485 486
f 466 486 487
f 467 487 488
f 468 488 489
f 469 489 490
f 470 490 491
f 471 491 492
f 472 492 493
f 473 494 474
f 475 496 476
f 473 476 497
f 474 495 477
f 477 498 478
f 478 499 479
f 479 502 480
f 481 501 483
f 480 500 481
f 473 497 494
f 474 494 495
f 475 503 496
f 476 496 497
f 477 495 498
f 478 498 499
f 479 499 502
f 480 502 500
f 481 500 501
f 472 493 482
f 482 503 475
f 482 493 503
f 403 483 422
f 483 423 422
f 483 524 423
f 403 481 483
f 483 501 524
f 433 434 484
f 434 435 505
f 435 436 506
f 436 437 507
f 437 439 508
f 439 440 509
f 441 512 438
f 438 510 440
f 441 513 512
f 461 516 460
f 443 444 511
f 442 523 444
f 441 443 513
f 445 517 442
f 460 518 445
f 462 519 520
f 442 517 523
f 445 518 517
f 443 511 513
f 444 523 511
f 460 516 518
f 461 515 516
f 459 520 515
f 484 504 485
f 485 505 486
f 486 506 487
f 487 507 488
f 489 488 508
f 489 509 490
f 490 510 491
f 491 512 492
f 492 513 493
f 494 497 518
f 494 516 495
f 496 517 497
f 498 520 499
f 498 495 515
f 499 519 502
f 502 521 500
f 501 514 524
f 500 522 501
f 503 523 496
f 503 493 511
f 434 504 484
f 434 505 504
f 435 506 505
f 436 507 506
f 437 508 507
f 439 509 508
f 440 510 509
f 438 512 510
f 485 504 505
f 486 505 506
f 487 506 507
f 488 507 508
f 489 508 509
f 490 509 510
f 491 510 512
f 493 513 511
f 492 512 513
f 494 518 516
f 495 516 515
f 496 523 517
f 497 517 518
f 498 515 520
f 499 520 519
f 502 519 521
f 500 521 522
f 501 522 514
f 503 511 523
f 525 456 458
f 524 525 458
f 423 524 458
f 462 520 459
f 459 515 461
f 454 519 462
f 522 457 455
f 454 457 521
f 514 455 456
f 514 456 525
f 521 457 522
f 454 521 519
f 514 522 455
f 524 514 525
f 413 526 528
f 526 527 529
f 527 535 536
f 272 422 526
f 526 422 527
f 527 422 423
f 527 423 535
f 526 529 528
f 527 536 529
f 239 240 449
f 532 449 240
f 225 532 240
f 225 531 532
f 226 533 531
f 227 534 533
f 225 226 531
f 226 227 533
f 227 530 534
f 535 530 536
f 534 530 535
f 533 534 456
f 534 535 458
f 535 423 458
f 539 553 538
f 539 545 540
f 539 540 552
f 550 552 540
f 539 538 542
f 539 542 545
f 545 572 540
f 545 542 544
f 545 544 546
f 550 416 552
f 538 165 551
f 538 553 165
f 539 552 553
f 553 552 417
f 551 556 554
f 538 551 554
f 538 554 542
f 554 575 573
f 542 554 573
f 542 573 544
f 551 555 556
f 556 575 554
f 545 546 572
f 546 559 572
f 546 544 558
f 546 558 559
f 561 572 562
f 562 572 565
f 560 243 565
f 562 565 228
f 560 244 243
f 560 215 244
f 569 563 215
f 560 569 215
f 564 570 566
f 564 569 570
f 570 567 566
f 564 563 569
f 560 565 572
f 560 572 569
f 569 572 570
f 570 572 571
f 559 571 572
f 559 558 568
f 559 568 571
f 570 571 567
f 571 568 567
f 544 573 574
f 576 574 573
f 544 574 558
f 575 576 573
f 576 580 574
f 564 245 563
f 564 566 246
f 566 247 246
f 566 577 247
f 567 578 577
f 574 580 579
f 577 578 250
f 578 579 251
f 558 574 579
f 558 579 568
f 566 567 577
f 567 568 578
f 568 579 578
f 251 579 580
f 130 572 540
f 288 130 540
f 211 130 175
f 211 213 130
f 213 572 130
f 277 273 130
f 277 130 288
f 288 540 326
f 326 540 327
f 327 540 379
f 138 130 135
f 138 143 130
f 134 135 130
f 134 130 147
f 138 135 153
f 138 153 161
f 143 175 130
f 138 162 143
f 143 216 170
f 134 149 135
f 135 150 153
f 147 130 254
f 134 147 148
f 134 148 149
f 135 149 150
f 153 150 154
f 537 541 161
f 138 161 162
f 143 162 216
f 541 162 161
f 543 216 162
f 541 543 162
f 153 163 161
f 153 154 163
f 163 154 164
f 537 161 163
f 537 163 547
f 547 163 164
f 547 164 156
f 548 156 157
f 548 157 158
f 549 158 159
f 549 159 160
f 550 160 410
f 143 170 175
f 170 171 175
f 170 217 171
f 171 185 175
f 171 218 185
f 170 216 217
f 171 217 218
f 557 217 216
f 543 557 216
f 561 218 217
f 557 561 217
f 254 130 274
f 147 255 148
f 148 257 149
f 149 259 150
f 150 260 154
f 274 130 273
f 147 254 255
f 148 255 256
f 148 256 257
f 149 257 259
f 150 259 260
f 154 260 264
f 264 289 265
f 265 325 266
f 266 305 267
f 267 307 268
f 268 308 404
f 404 309 405
f 405 311 406
f 406 312 407
f 407 320 408
f 254 275 255
f 255 276 256
f 256 284 257
f 257 285 259
f 259 286 260
f 254 274 275
f 255 275 276
f 256 276 278
f 256 278 284
f 257 284 285
f 259 285 286
f 260 286 287
f 264 260 287
f 264 287 289
f 265 289 325
f 266 325 305
f 267 305 306
f 267 306 307
f 268 307 308
f 404 308 309
f 405 309 310
f 405 310 311
f 406 311 312
f 407 312 320
f 408 320 377
f 154 264 164
f 264 265 164
f 265 266 156
f 266 267 157
f 267 268 157
f 268 404 158
f 404 405 159
f 265 156 164
f 266 157 156
f 268 158 157
f 404 159 158
f 406 160 159
f 405 406 159
f 406 407 160
f 407 408 410
f 407 410 160
f 537 540 541
f 537 547 540
f 548 549 540
f 548 540 547
f 549 550 540
f 541 540 543
f 543 540 557
f 548 158 549
f 549 160 550
f 548 547 156
f 557 540 572
f 557 572 561
