# MAAS exact compiled indexed mesh
# program_hash 11c7957e43c6a8f2784dc56631b75b3ed16c16b711c47954bc4deef940e5db97
# geometry_hash a2f1d06e00fc530e02e0f8bba4df3b267d89ddb71cc6e60dba5c8087f5367dce
v -11.83706181 -12.48297812 0
v -11.83706181 -12.48297812 4.63313285
v -16.5789794 -4.59110199 0
v -13.39071413 -4.59110199 0
v -8.45458758 -6.12146932 0
v -16.5789794 -4.59110199 4.63313285
v -13.39071413 -4.59110199 4.44
v -8.45458758 -6.12146932 4.44
v -3.72965692 -16.79376177 0
v -3.72965692 -16.79376177 4.63313285
v -4.46357138 -6.12146932 0
v -4.46357138 -2.68198426 0
v -7.64087684 -4.59110199 4.44
v -4.46357138 -6.12146932 4.44
v -7.64087684 -4.59110199 8.09070582
v -13.39071413 0.25506122 0
v -16.5789794 4.59110199 0
v -13.39071413 0.25506122 4.44
v -16.5789794 4.59110199 4.63313285
v -4.46357138 0.25506122 0
v -4.53238448 1.25512186 0
v -2.75861238 4.59110199 0
v -4.46357138 0.25506122 4.44
v -2.75861238 4.59110199 9.97933772
v 2.75861238 -4.59110199 0
v 4.53238448 -1.25512186 0
v 16.5789794 -4.59110199 0
v 2.75861238 -4.59110199 9.97933772
v 9.703185 -4.59110199 14.8
v 16.5789794 -4.59110199 14.8
v 0 -0 0
v 7.64087684 4.59110199 0
v 3.72965692 16.79376177 0
v 16.5789794 4.59110199 0
v 11.83706181 12.48297812 0
v 7.64087684 4.59110199 14.00222654
v 0.50166698 10.72279567 14.8
v 3.72965692 16.79376177 14.8
v 9.703185 4.59110199 14.8
v 8.60907187 6.41201202 14.8
v 16.5789794 4.59110199 14.8
v 11.83706181 12.48297812 14.8
f 3 4 7
f 3 7 6
f 3 16 4
f 3 6 19
f 6 7 15
f 15 7 13
f 31 12 20
f 3 17 16
f 3 19 17
f 17 21 16
f 17 19 22
f 21 20 16
f 17 22 21
f 21 31 20
f 19 24 22
f 25 27 28
f 25 26 27
f 26 32 27
f 27 34 30
f 15 28 29
f 27 29 28
f 27 30 29
f 29 30 41
f 27 32 34
f 32 36 34
f 30 34 41
f 34 36 41
f 29 41 39
f 36 39 41
f 1 9 2
f 1 2 15
f 1 8 5
f 1 15 8
f 2 9 10
f 1 25 9
f 9 25 10
f 1 5 11
f 1 11 26
f 1 26 25
f 26 11 12
f 15 13 8
f 21 22 31
f 15 37 24
f 22 24 37
f 10 25 28
f 31 26 12
f 26 31 32
f 22 33 31
f 31 35 32
f 31 33 35
f 22 38 33
f 32 35 36
f 33 42 35
f 22 37 38
f 33 38 42
f 37 40 38
f 38 40 42
f 35 40 36
f 35 42 40
f 4 16 7
f 18 7 16
f 18 13 7
f 18 14 13
f 14 11 5
f 14 12 11
f 14 5 8
f 14 20 12
f 14 23 20
f 14 8 13
f 18 23 14
f 18 16 23
f 23 16 20
f 6 15 24
f 6 24 19
f 15 29 39
f 15 39 36
f 2 10 15
f 10 28 15
f 15 36 37
f 36 40 37
