# MAAS exact compiled indexed mesh
# program_hash 34a49c811f198aed30ced09888fc3ba6b9a99770ae16fa97176d4284b020b58d
# geometry_hash 25a5e083a0da56cf26c6f3668bebd70723e7c1ad0ef694f4cb214e26d73cb1e7
v -25.34409445 -18.78344451 0
v -25.34409445 -16.28712111 0
v -25.34409445 -18.78344451 3.54982897
v -25.34409445 -16.28712111 3.54982897
v -25.34409445 -13.79079771 0
v -25.34409445 -11.29447431 0
v -25.34409445 -13.79079771 3.54982897
v -25.34409445 -11.29447431 3.54982897
v -12.76297989 -17.35000757 0
v -13.32453047 -14.91766478 0
v -12.76297989 -17.35000757 3.54982897
v -13.88608105 -12.48532198 0
v -14.44763163 -10.05297919 0
v -25.34409445 -18.78344451 5.91638162
v -16.0835399 -17.7283376 5.91638162
v -12.76297989 -17.35000757 7.09965794
v -25.34409445 -8.79815091 0
v -25.34409445 -6.30182751 0
v -25.34409445 -8.79815091 3.54982897
v -25.34409445 -6.30182751 3.54982897
v -15.00918221 -7.62063639 0
v -15.57073279 -5.1882936 0
v -15.57073279 -5.1882936 3.54982897
v -25.34409445 -6.30182751 5.91638162
v -16.0835399 -5.24672059 5.91638162
v -15.57073279 -5.1882936 7.09965794
v -0.82677162 -13.12317454 0
v -1.92108778 -10.87949393 0
v -0.82677162 -13.12317454 3.54982897
v -0.82677162 -13.12317454 7.09965794
v -4.10972008 -6.39213271 0
v -3.01540393 -8.63581332 0
v -5.20403623 -4.1484521 0
v -6.29835238 -1.90477149 0
v -6.29835238 -1.90477149 3.54982897
v -6.29835238 -1.90477149 7.09965794
v -12.76297989 -17.35000757 10.64948691
v -16.0835399 -17.7283376 11.83276324
v -12.76297989 -17.35000757 11.83276324
v -15.57073279 -5.1882936 10.64948691
v -16.0835399 -5.24672059 11.83276324
v -15.57073279 -5.1882936 11.83276324
v -8.03088377 -15.67428445 11.83276324
v -0.82677162 -13.12317454 10.64948691
v -8.03088377 -15.67428445 17.74914485
v -0.82677162 -13.12317454 14.19931588
v -0.82677162 -13.12317454 17.74914485
v -1.92108778 -10.87949393 17.74914485
v -8.03088377 -2.51829303 11.83276324
v -6.29835238 -1.90477149 10.64948691
v -8.03088377 -2.51829303 17.74914485
v -4.10972008 -6.39213271 17.74914485
v -3.01540393 -8.63581332 17.74914485
v -6.29835238 -1.90477149 14.19931588
v -5.20403623 -4.1484521 17.74914485
v -6.29835238 -1.90477149 17.74914485
v 5.13972019 -0.49958938 0
v 9.85268185 -6.31961233 0
v 9.85268185 -6.31961233 3.54982897
v 6.71070741 -2.43959703 0
v 8.28169463 -4.37960468 0
v 9.85268185 -6.31961233 7.09965794
v 9.85268185 -6.31961233 10.64948691
v 5.13972019 -0.49958938 17.74914485
v 9.85268185 -6.31961233 14.19931588
v 9.85268185 -6.31961233 17.74914485
v 6.71070741 -2.43959703 17.74914485
v 8.28169463 -4.37960468 17.74914485
v 1.99774575 3.38042592 0
v 3.56873297 1.44041827 0
v 1.99774575 3.38042592 3.54982897
v 5.65863166 5.7771567 0
v 5.65863166 7.10577049 0
v 12.10075657 5.7771567 0
v 1.99774575 3.38042592 7.09965794
v 12.10075657 15.63209767 0
v 16.76082344 4.24881949 0
v 18.72795313 2.71192934 0
v 18.72795313 2.71192934 3.54982897
v 14.79369376 5.78570963 0
v 12.82656407 7.32259978 0
v 18.72795313 2.71192934 7.09965794
v 14.03191027 18.78345409 0
v 16.29434761 17.72846224 0
v 18.55678495 16.67347038 0
v 14.03191027 18.78345409 3.54982897
v 16.29434761 17.72846224 3.54982897
v 18.55678495 16.67347038 3.54982897
v 25.34409696 13.50849481 0
v 25.34409696 13.50849481 3.54982897
v 20.81922229 15.61847852 0
v 23.08165962 14.56348667 0
v 20.81922229 15.61847852 3.54982897
v 23.08165962 14.56348667 3.54982897
v 14.03191027 18.78345409 7.09965794
v 16.29434761 17.72846224 7.09965794
v 18.55678495 16.67347038 7.09965794
v 25.34409696 13.50849481 7.09965794
v 20.81922229 15.61847852 7.09965794
v 23.08165962 14.56348667 7.09965794
v 1.99774575 3.38042592 10.64948691
v 1.99774575 3.38042592 14.19931588
v 1.99774575 3.38042592 17.74914485
v 3.56873297 1.44041827 17.74914485
v 5.65863166 5.7771567 17.74914485
v 5.65863166 7.10577049 17.74914485
v 12.10075657 5.7771567 17.74914485
v 12.10075657 15.63209767 17.74914485
v 18.72795313 2.71192934 10.64948691
v 18.72795313 2.71192934 14.19931588
v 16.76082344 4.24881949 17.74914485
v 18.72795313 2.71192934 17.74914485
v 14.79369376 5.78570963 17.74914485
v 12.82656407 7.32259978 17.74914485
v 14.03191027 18.78345409 10.64948691
v 16.29434761 17.72846224 10.64948691
v 18.55678495 16.67347038 10.64948691
v 25.34409696 13.50849481 10.64948691
v 20.81922229 15.61847852 10.64948691
v 23.08165962 14.56348667 10.64948691
v 14.03191027 18.78345409 14.19931588
v 16.29434761 17.72846224 14.19931588
v 18.55678495 16.67347038 14.19931588
v 14.03191027 18.78345409 17.74914485
v 16.29434761 17.72846224 17.74914485
v 18.55678495 16.67347038 17.74914485
v 25.34409696 13.50849481 14.19931588
v 25.34409696 13.50849481 17.74914485
v 20.81922229 15.61847852 14.19931588
v 23.08165962 14.56348667 14.19931588
v 20.81922229 15.61847852 17.74914485
v 23.08165962 14.56348667 17.74914485
f 1 4 2
f 2 7 5
f 1 2 9
f 1 9 3
f 2 5 10
f 1 3 4
f 2 4 7
f 3 11 14
f 5 8 6
f 6 19 17
f 5 6 12
f 6 17 13
f 5 7 8
f 3 24 4
f 4 24 7
f 6 8 19
f 7 24 8
f 2 10 9
f 3 9 11
f 5 12 10
f 6 13 12
f 3 14 24
f 11 15 14
f 11 16 15
f 15 16 37
f 17 20 18
f 17 18 21
f 17 19 20
f 8 24 19
f 19 24 20
f 18 20 23
f 13 17 21
f 18 22 21
f 18 23 22
f 20 25 23
f 20 24 25
f 23 25 26
f 25 41 26
f 9 10 27
f 9 27 11
f 10 12 28
f 12 13 32
f 11 27 29
f 10 28 27
f 12 32 28
f 11 29 16
f 16 30 37
f 16 29 30
f 13 21 31
f 21 22 33
f 13 31 32
f 21 33 31
f 22 34 33
f 22 35 34
f 22 23 35
f 31 60 32
f 31 33 57
f 33 34 70
f 34 35 71
f 23 26 36
f 23 36 35
f 26 50 36
f 35 36 75
f 15 39 38
f 15 37 39
f 26 41 40
f 40 41 42
f 40 42 49
f 37 44 39
f 39 44 43
f 30 44 37
f 43 44 46
f 43 47 45
f 43 46 47
f 45 47 48
f 45 53 52
f 45 48 53
f 26 40 50
f 40 49 50
f 49 54 50
f 36 50 101
f 50 54 102
f 45 55 56
f 45 56 51
f 49 51 54
f 51 56 54
f 45 52 55
f 52 53 67
f 54 56 103
f 52 64 55
f 55 104 56
f 34 69 70
f 34 71 69
f 35 75 71
f 36 101 75
f 50 102 101
f 54 103 102
f 56 104 103
f 27 28 58
f 27 58 29
f 29 59 30
f 30 62 44
f 28 32 61
f 28 61 58
f 32 60 61
f 29 58 59
f 31 57 60
f 33 70 57
f 58 61 78
f 60 77 61
f 30 59 62
f 58 78 59
f 59 78 79
f 59 79 62
f 62 79 82
f 62 82 63
f 44 63 46
f 46 65 47
f 47 66 48
f 44 62 63
f 46 63 65
f 48 68 53
f 47 65 66
f 48 66 68
f 53 68 67
f 52 67 64
f 55 64 104
f 66 112 68
f 67 68 111
f 63 82 109
f 63 109 65
f 65 109 110
f 65 110 66
f 66 110 112
f 69 74 70
f 69 71 73
f 71 75 73
f 69 73 72
f 57 70 74
f 57 80 60
f 57 74 80
f 69 72 74
f 75 101 73
f 101 102 73
f 81 74 76
f 61 77 78
f 60 80 77
f 80 74 81
f 77 80 92
f 77 89 78
f 78 89 79
f 79 90 82
f 82 98 109
f 81 76 85
f 80 81 91
f 81 85 91
f 83 84 76
f 84 85 76
f 83 87 84
f 84 88 85
f 83 86 87
f 84 87 88
f 77 92 89
f 80 91 92
f 89 92 90
f 79 89 90
f 85 93 91
f 91 94 92
f 85 88 93
f 91 93 94
f 90 92 94
f 86 96 87
f 83 76 108
f 86 95 96
f 87 97 88
f 87 96 97
f 83 108 86
f 95 116 96
f 96 117 97
f 82 90 98
f 90 94 98
f 98 100 118
f 88 99 93
f 88 97 99
f 93 99 100
f 93 100 94
f 94 100 98
f 97 119 99
f 99 120 100
f 102 103 73
f 103 106 73
f 64 105 104
f 103 104 105
f 103 105 106
f 64 67 113
f 64 107 105
f 64 113 107
f 114 108 107
f 109 118 110
f 68 112 111
f 67 111 113
f 113 114 107
f 111 132 113
f 110 127 112
f 111 112 128
f 86 108 95
f 95 115 116
f 96 116 117
f 95 108 115
f 115 122 116
f 115 121 122
f 116 123 117
f 116 122 123
f 98 118 109
f 110 118 127
f 118 120 127
f 97 117 119
f 99 119 120
f 100 120 118
f 117 129 119
f 117 123 129
f 119 129 130
f 119 130 120
f 120 130 127
f 114 126 108
f 113 131 114
f 114 131 126
f 115 108 121
f 121 125 122
f 122 126 123
f 121 108 124
f 121 124 125
f 124 108 125
f 125 108 126
f 122 125 126
f 127 130 128
f 111 128 132
f 113 132 131
f 112 127 128
f 123 131 129
f 129 132 130
f 123 126 131
f 129 131 132
f 128 130 132
f 14 25 24
f 14 15 25
f 15 41 25
f 15 38 41
f 38 39 42
f 38 42 41
f 39 43 49
f 43 45 49
f 39 49 42
f 45 51 49
f 73 105 72
f 74 72 105
f 74 108 76
f 106 105 73
f 105 107 74
f 74 107 108
