# MAAS exact compiled indexed mesh
# program_hash c4009ad072952c4150d010b4313ce591c76a38eee4526500067739c31a3471c5
# geometry_hash 663c8dba291bca8481e5b253c28d3ee36249da2d147636232c022fbcbed224f5
v -15.75204802 -12.7057937 0
v -4.10922992 -12.7057937 0
v -15.75204802 -12.7057937 7.3220339
v -15.06717636 -9.96630708 7.3220339
v -15.06717636 -9.96630708 10.86101695
v -8.21845984 -5.6002503 10.86101695
v -4.10922992 -12.7057937 7.3220339
v -4.10922992 -9.96630708 7.2
v -4.10922992 -9.96630708 7.3220339
v -4.10922992 -6.54194882 7.2
v -4.10922992 -9.96630708 10.86101695
v -4.10922992 -6.54194882 10.86101695
v -15.75204802 5.78574093 0
v -4.10922992 5.78574093 0
v -15.06717636 1.67651102 7.3220339
v -15.75204802 5.78574093 7.3220339
v -8.21845984 1.67651102 7.3220339
v -8.21845984 2.36138267 7.3220339
v -15.06717636 1.67651102 10.86101695
v -8.21845984 1.67651102 10.86101695
v -8.21845984 2.36138267 10.86101695
v -4.10922992 2.36138267 7.2
v -4.10922992 2.36138267 7.3220339
v -4.10922992 5.78574093 7.3220339
v 4.10922992 -7.22682047 0
v 15.75204802 -7.22682047 0
v 4.10922992 -7.22682047 7.3220339
v 4.10922992 -6.54194882 7.2
v 4.10922992 -6.54194882 7.3220339
v 5.06805023 -3.80246221 10.86101695
v 5.06805023 -3.80246221 14.4
v 8.21845984 -6.54194882 7.3220339
v 15.75204802 -7.22682047 7.3220339
v 8.21845984 -6.54194882 10.86101695
v 8.21845984 -5.17220551 7.3220339
v 15.75204802 -5.17220551 7.3220339
v 8.21845984 -5.17220551 10.86101695
v 8.21845984 -3.80246221 10.86101695
v 15.75204802 -5.17220551 10.86101695
v 13.97138172 -3.80246221 10.86101695
v 13.97138172 -3.80246221 14.4
v 4.10922992 9.89497085 0
v 7.87602401 4.24477972 0
v 9.07097028 4.24477972 0.3456
v 9.07097028 4.32653029 0.3456
v 9.07097028 5.17405896 0.3456
v 9.83125658 5.37473517 0.3456
v 9.83125658 6.22226384 0.3456
v 10.25237388 4.32653029 0.3456
v 11.43377748 4.32653029 0.3456
v 10.25237388 5.17405896 0.3456
v 11.01266019 5.37473517 0.3456
v 11.43377748 5.17405896 0.3456
v 11.01266019 6.22226384 0.3456
v 8.99712593 4.24477972 2.08824407
v 8.99712593 4.35301794 2.08824407
v 8.99712593 5.22703426 2.08824407
v 9.67337475 5.26147212 2.56119731
v 9.75741223 5.66606933 2.08824407
v 9.75741223 6.19577619 2.08824407
v 9.67899185 5.40219047 2.93052203
v 9.63934253 5.31480872 3.29369693
v 10.2154517 5.22703426 2.08824407
v 11.43377748 5.22703426 2.08824407
v 12.61518108 4.32653029 0.3456
v 12.19406379 5.37473517 0.3456
v 12.61518108 5.17405896 0.3456
v 12.19406379 6.22226384 0.3456
v 13.37546739 5.37473517 0.3456
v 13.37546739 6.22226384 0.3456
v 13.79658469 4.24477972 0.3456
v 13.79658469 4.32653029 0.3456
v 15.75204802 4.24477972 0
v 13.79658469 5.17405896 0.3456
v 14.55687099 5.37473517 0.3456
v 14.55687099 6.22226384 0.3456
v 12.65210326 5.22703426 2.08824407
v 13.87042904 4.24477972 2.08824407
v 13.87042904 4.6973274 2.08824407
v 13.90413992 4.52390011 2.42037417
v 13.90793397 4.4467157 2.45775439
v 14.09547132 4.72184491 2.32451002
v 14.58982056 4.4467157 2.45775439
v 14.85575762 4.72184491 2.32451002
v 13.87042904 5.22703426 2.08824407
v 14.63071535 5.32175987 2.08824407
v 13.8733586 5.25234114 2.43579676
v 13.90413992 5.25121815 2.42037417
v 13.88876226 5.26827723 2.42807895
v 13.91768913 5.26901815 2.41358552
v 14.09547132 5.27873318 2.32451002
v 13.88411022 5.26346439 2.52222549
v 13.87206464 5.26147212 2.56119731
v 13.88240514 5.26170037 2.56433203
v 14.45578066 5.29111058 2.32451002
v 14.5729609 5.30597901 2.32451002
v 14.62729155 5.3041659 2.32451002
v 14.65469611 5.30455628 2.32451002
v 14.65469611 5.48213121 2.32451002
v 14.63071535 5.66606933 2.08824407
v 14.85575762 5.48213121 2.32451002
v 8.82024927 4.24477972 3.83088814
v 8.82024927 4.41646282 3.83088814
v 8.82024927 5.35392403 3.83088814
v 9.60034429 5.35004372 3.77759773
v 9.59395034 5.35392403 3.83088814
v 9.53604247 5.38837945 4.31483971
v 9.58053558 5.9334759 3.83088814
v 9.43400938 5.45677295 5.2754762
v 9.48909159 5.65850267 4.6731661
v 8.64730417 4.24477972 5.5735322
v 8.64730417 4.47849748 5.5735322
v 8.64730417 5.47799334 5.5735322
v 9.41831338 5.47799334 5.5735322
v 9.39006657 5.49115345 6.06971555
v 9.40759047 6.25202317 5.5735322
v 9.35842244 5.99101591 6.41581017
v 14.0473057 4.24477972 3.83088814
v 14.0473057 4.4467157 3.83088814
v 14.807592 5.48213121 3.83088814
v 14.85575762 5.1603165 4.31621865
v 14.85575762 5.48213121 4.31621865
v 14.807592 5.564173 3.83088814
v 14.807592 5.9334759 3.83088814
v 14.2202508 4.26648321 5.5735322
v 14.2202508 4.24477972 5.5735322
v 14.2202508 4.4467157 5.5735322
v 14.9805371 5.07080079 5.5735322
v 14.9805371 5.46454158 5.5735322
v 14.85575762 5.05458269 5.96080448
v 14.9805371 5.85828238 5.5735322
v 14.9805371 6.25202317 5.5735322
v 14.85575762 5.05741546 6.73331627
v 9.83125658 7.06979251 0.3456
v 9.83125658 7.91732118 0.3456
v 9.07097028 8.96552607 0.3456
v 9.83125658 8.76484985 0.3456
v 11.01266019 7.06979251 0.3456
v 11.01266019 7.91732118 0.3456
v 10.25237388 8.96552607 0.3456
v 11.01266019 8.76484985 0.3456
v 11.43377748 8.96552607 0.3456
v 9.75741223 7.06979251 2.08824407
v 9.75741223 7.94380883 2.08824407
v 8.99712593 9.25686023 2.08824407
v 9.75741223 8.81782515 2.08824407
v 9.70940794 8.85226301 2.56119731
v 8.91870555 8.99298136 2.93052203
v 10.97573801 8.81782515 2.08824407
v 7.87602401 9.89497085 0
v 9.07097028 9.81305474 0.3456
v 9.07097028 10.66058341 0.3456
v 9.07097028 11.50811208 0.3456
v 9.07097028 12.35564075 0.3456
v 10.25237388 9.81305474 0.3456
v 10.25237388 10.66058341 0.3456
v 11.43377748 9.81305474 0.3456
v 11.43377748 10.66058341 0.3456
v 10.25237388 11.50811208 0.3456
v 10.25237388 12.35564075 0.3456
v 11.43377748 11.50811208 0.3456
v 11.43377748 12.35564075 0.3456
v 8.99712593 9.78656709 2.08824407
v 8.99712593 10.66058341 2.08824407
v 8.99712593 11.53459973 2.08824407
v 8.99712593 12.40861605 2.08824407
v 10.2154517 12.40861605 2.08824407
v 11.43377748 12.40861605 2.08824407
v 12.19406379 7.06979251 0.3456
v 12.19406379 7.91732118 0.3456
v 13.37546739 7.06979251 0.3456
v 13.37546739 7.91732118 0.3456
v 12.19406379 8.76484985 0.3456
v 12.61518108 8.96552607 0.3456
v 13.37546739 8.76484985 0.3456
v 14.55687099 7.06979251 0.3456
v 14.55687099 7.91732118 0.3456
v 13.79658469 8.96552607 0.3456
v 14.55687099 8.76484985 0.3456
v 12.19406379 8.81782515 2.08824407
v 13.41238957 8.81782515 2.08824407
v 13.27616554 8.83451732 2.31748637
v 13.27616554 8.8677811 2.31748637
v 13.23377398 8.84313203 2.43579676
v 13.23705085 8.86201591 2.42665135
v 13.11177833 8.85226301 2.56119731
v 13.23583363 8.85500137 2.59880459
v 13.69585315 8.88219828 2.31748637
v 14.63071535 6.54008565 2.08824407
v 14.63071535 7.41410197 2.08824407
v 14.63071535 8.28811829 2.08824407
v 13.87042904 8.91255077 2.08824407
v 13.87042904 9.25686023 2.08824407
v 14.63071535 8.81782515 2.08824407
v 13.81439151 8.89723903 2.31748637
v 13.86710703 8.89547983 2.31748637
v 13.89369691 8.8958586 2.31748637
v 13.89369691 9.08742486 2.31748637
v 14.03645184 8.83451732 2.31748637
v 14.03645184 9.08742486 2.31748637
v 12.61518108 9.81305474 0.3456
v 12.61518108 10.66058341 0.3456
v 12.61518108 11.50811208 0.3456
v 12.61518108 12.35564075 0.3456
v 13.79658469 9.81305474 0.3456
v 13.79658469 10.66058341 0.3456
v 13.79658469 11.50811208 0.3456
v 13.79658469 12.35564075 0.3456
v 12.65210326 12.40861605 2.08824407
v 13.87042904 10.13087655 2.08824407
v 13.87042904 11.00489287 2.08824407
v 13.87042904 11.87890919 2.08824407
v 13.87042904 12.40861605 2.08824407
v 9.58053558 6.50163421 3.83088814
v 9.58053558 7.06979251 3.83088814
v 8.82675053 8.79032494 3.7728
v 8.82024927 9.52426679 3.83088814
v 9.58053558 8.00725372 3.83088814
v 9.58053558 8.78735543 3.83088814
v 8.72880529 9.24929357 4.6731661
v 9.40759047 6.85777824 5.5735322
v 9.40759047 7.46353331 5.5735322
v 8.65177764 8.9671922 5.51544407
v 9.40759047 8.06928838 5.5735322
v 9.40759047 8.69827011 5.5735322
v 8.60050385 8.7819998 6.35772203
v 8.82024927 10.0924251 3.83088814
v 8.82024927 10.66058341 3.83088814
v 8.82024927 11.59804461 3.83088814
v 8.82024927 12.53550582 3.83088814
v 10.12701338 12.53550582 3.83088814
v 11.43377748 12.53550582 3.83088814
v 8.64730417 9.84281406 5.5735322
v 8.64730417 10.44856913 5.5735322
v 8.64730417 11.0543242 5.5735322
v 8.59813613 9.58180681 6.41581017
v 8.64730417 11.66007927 5.5735322
v 8.64730417 12.65957513 5.5735322
v 10.04054083 12.65957513 5.5735322
v 11.43377748 12.65957513 5.5735322
v 14.807592 6.87093711 3.83088814
v 14.807592 7.80839831 3.83088814
v 14.03645184 8.93692846 3.72395256
v 14.03645184 9.08742486 3.72395256
v 14.0473057 8.94471493 3.83088814
v 14.0473057 9.15496389 3.83088814
v 14.0473057 9.52426679 3.83088814
v 14.807592 8.37655662 3.83088814
v 14.807592 8.94471493 3.83088814
v 14.9805371 7.25151903 5.5735322
v 14.9805371 7.8572741 5.5735322
v 14.2202508 9.06878424 5.5735322
v 14.2202508 9.44907327 5.5735322
v 14.9805371 8.46302917 5.5735322
v 14.9805371 9.06878424 5.5735322
v 12.74054159 12.53550582 3.83088814
v 14.0473057 10.461728 3.83088814
v 14.0473057 11.39918921 3.83088814
v 14.0473057 11.96734751 3.83088814
v 14.0473057 12.53550582 3.83088814
v 12.82701414 12.65957513 5.5735322
v 14.2202508 9.84281406 5.5735322
v 14.2202508 10.84230993 5.5735322
v 14.2202508 11.448065 5.5735322
v 14.2202508 12.05382007 5.5735322
v 14.2202508 12.65957513 5.5735322
v 4.10922992 2.36138267 7.2
v 4.10922992 2.36138267 7.3220339
v 4.10922992 2.36138267 10.86101695
v 5.06805023 2.36138267 10.86101695
v 5.06805023 5.10086928 10.86101695
v 5.06805023 5.10086928 14.4
v 4.10922992 6.47061259 7.3220339
v 4.10922992 9.89497085 7.3220339
v 4.10922992 6.47061259 10.86101695
v 8.58287691 4.24477972 7.31617627
v 8.58287691 4.28469091 7.31617627
v 8.58287691 4.9044519 7.31617627
v 8.58287691 5.5242129 7.31617627
v 9.35109572 5.03027194 7.31617627
v 9.34966044 5.03583481 7.31617627
v 9.38150647 5.26091339 7.31617627
v 9.39834629 5.21611026 7.31617627
v 9.41447958 5.37787169 7.31617627
v 9.37810625 5.46290423 7.31617627
v 9.37007444 5.5242129 7.31617627
v 9.34290363 5.73718505 7.25808814
v 9.36331822 5.50057486 8.1003661
v 9.41666144 5.37919978 8.94264407
v 10.0083272 4.28469091 7.31617627
v 11.43377748 4.28469091 7.31617627
v 10.0083272 4.9044519 7.31617627
v 11.43377748 4.9044519 7.31617627
v 9.49508181 5.28025011 9.78492203
v 9.42137968 6.16565639 9.0007322
v 9.5011372 5.95749675 9.84301017
v 9.5011372 6.19166428 9.84301017
v 9.58703683 5.19953404 10.6272
v 9.59353809 5.76952966 10.68528814
v 9.59353809 5.99566233 10.68528814
v 9.59353809 6.221795 10.68528814
v 10.59982847 5.76952966 10.68528814
v 10.59982847 5.99566233 10.68528814
v 10.59982847 6.221795 10.68528814
v 10.89055031 5.19953404 10.6272
v 11.60611885 5.76952966 10.68528814
v 11.60611885 5.99566233 10.68528814
v 11.60611885 6.221795 10.68528814
v 12.85922777 4.28469091 7.31617627
v 12.14987689 5.03027194 7.31617627
v 12.18035132 5.02924228 7.31617627
v 12.85922777 4.9044519 7.31617627
v 12.89848488 5.06416909 7.31617627
v 13.16598637 5.05208835 7.31617627
v 13.61556371 5.07574297 7.31617627
v 12.95483052 5.07730822 8.94264407
v 13.82953426 4.4467157 7.31617627
v 14.28467806 4.24477972 7.31617627
v 14.28467806 4.28469091 7.31617627
v 14.28467806 4.4467157 7.31617627
v 15.75204802 4.24477972 7.3220339
v 13.82953426 5.06530463 7.31617627
v 15.04496436 5.02458123 7.31617627
v 15.04496436 5.42742588 7.31617627
v 14.85575762 5.03363261 7.78142667
v 15.04496436 5.83027052 7.31617627
v 15.04496436 6.23311517 7.31617627
v 13.82953426 5.04715189 8.27890316
v 13.82953426 5.07604726 8.64998919
v 14.85575762 5.04096763 8.15845424
v 15.02212272 5.04096763 8.15845424
v 15.02212272 5.44058465 8.15845424
v 15.02212272 5.84020167 8.15845424
v 15.02212272 6.2398187 8.15845424
v 11.88896148 5.13356631 9.78492203
v 12.61240923 5.76952966 10.68528814
v 12.61240923 5.99566233 10.68528814
v 13.6186996 5.20419799 10.68528814
v 13.6186996 5.34553091 10.68528814
v 13.6186996 5.48686383 10.68528814
v 12.9063817 6.221795 10.68528814
v 13.6186996 5.62819675 10.68528814
v 13.6186996 5.76952966 10.68528814
v 13.82953426 5.12614467 9.4636575
v 14.85575762 5.08069305 9.0007322
v 14.96674789 5.08069305 9.0007322
v 14.96674789 5.47248537 9.0007322
v 14.85575762 5.1379104 9.84301017
v 14.88699037 5.1379104 9.84301017
v 14.88699037 5.51843263 9.84301017
v 14.96674789 5.86427768 9.0007322
v 14.96674789 6.25607 9.0007322
v 14.88699037 5.89895487 9.84301017
v 14.88699037 6.2794771 9.84301017
v 13.82953426 5.16483391 10.18511159
v 13.82953426 5.20419799 10.68528814
v 13.82953426 5.207002 10.68528814
v 13.91267208 5.34553091 10.68528814
v 13.91267208 5.48686383 10.68528814
v 14.09547132 5.48213121 10.68528814
v 14.20664455 5.48686383 10.68528814
v 13.91267208 5.62819675 10.68528814
v 14.20664455 5.85432941 10.68528814
v 13.91267208 5.99566233 10.68528814
v 14.20664455 6.221795 10.68528814
v 14.50061702 5.7129965 10.68528814
v 14.50061702 6.08046208 10.68528814
v 14.85575762 5.1603165 10.12771152
v 14.85575762 5.48213121 10.12771152
v 14.79458949 5.48213121 10.68528814
v 14.79458949 5.57166358 10.68528814
v 14.79458949 5.93912917 10.68528814
v 14.79458949 6.30659475 10.68528814
v 7.87602401 5.10086928 10.86101695
v 9.68498207 5.67888852 11.5275661
v 9.68498207 5.81525165 11.5275661
v 9.76200972 5.58941178 12.36984407
v 9.76200972 5.72158863 12.36984407
v 9.76200972 5.85376548 12.36984407
v 10.65588761 5.81525165 11.5275661
v 11.62679314 5.81525165 11.5275661
v 10.7031089 5.85376548 12.36984407
v 11.64420809 5.32505807 12.36984407
v 11.64420809 5.85376548 12.36984407
v 7.87602401 4.24477972 14.4
v 9.81328352 5.49123168 13.21212203
v 9.81328352 5.62062191 13.21212203
v 9.81328352 5.75001214 13.21212203
v 9.81328352 5.87940238 13.21212203
v 7.87602401 5.10086928 14.4
v 9.83125658 5.37473517 14.0544
v 9.83125658 5.50314861 14.0544
v 9.83125658 5.63156204 14.0544
v 9.83125658 5.75997548 14.0544
v 9.83125658 5.88838891 14.0544
v 10.73454197 5.36184145 13.21212203
v 10.73454197 5.87940238 13.21212203
v 11.65580042 5.36184145 13.21212203
v 11.65580042 5.87940238 13.21212203
v 10.74556024 5.37473517 14.0544
v 10.74556024 5.50314861 14.0544
v 10.74556024 5.63156204 14.0544
v 10.74556024 5.75997548 14.0544
v 10.74556024 5.88838891 14.0544
v 11.6598639 5.37473517 14.0544
v 11.6598639 5.50314861 14.0544
v 11.6598639 5.63156204 14.0544
v 11.6598639 5.75997548 14.0544
v 11.6598639 5.88838891 14.0544
v 12.59769867 5.26979911 11.5275661
v 12.59769867 5.81525165 11.5275661
v 13.56860421 5.26979911 11.5275661
v 13.56860421 5.40616224 11.5275661
v 13.56860421 5.54252538 11.5275661
v 13.56860421 5.67888852 11.5275661
v 13.56860421 5.81525165 11.5275661
v 12.58530727 5.32505807 12.36984407
v 12.58530727 5.85376548 12.36984407
v 13.52640645 5.32505807 12.36984407
v 13.52640645 5.45723492 12.36984407
v 13.52640645 5.58941178 12.36984407
v 13.52640645 5.72158863 12.36984407
v 13.52640645 5.85376548 12.36984407
v 13.97138172 4.24477972 10.86101695
v 15.75204802 4.24477972 10.86101695
v 13.82953426 4.4467157 12.24975439
v 14.58982056 4.4467157 12.24975439
v 14.85575762 4.72184491 12.11651002
v 14.09547132 5.48213121 12.11651002
v 13.82953426 5.207002 12.24975439
v 14.58982056 5.207002 12.24975439
v 14.85575762 5.48213121 12.11651002
v 12.57705887 5.36184145 13.21212203
v 12.57705887 5.87940238 13.21212203
v 13.49831733 5.36184145 13.21212203
v 13.49831733 5.49123168 13.21212203
v 13.49831733 5.62062191 13.21212203
v 13.49831733 5.75001214 13.21212203
v 13.49831733 5.87940238 13.21212203
v 12.57416756 5.37473517 14.0544
v 12.57416756 5.50314861 14.0544
v 12.57416756 5.63156204 14.0544
v 12.57416756 5.75997548 14.0544
v 12.57416756 5.88838891 14.0544
v 13.48847121 5.37473517 14.0544
v 13.48847121 5.50314861 14.0544
v 13.48847121 5.63156204 14.0544
v 13.48847121 5.75997548 14.0544
v 13.48847121 5.88838891 14.0544
v 13.97138172 4.24477972 14.4
v 7.87602401 6.47061259 7.3220339
v 9.34316321 6.63595982 7.31617627
v 9.34316321 7.25572081 7.31617627
v 9.34316321 7.87548181 7.31617627
v 9.36600486 6.39351755 8.15845424
v 9.36600486 6.63943572 8.15845424
v 8.58253078 8.61512381 7.2
v 8.58261732 9.32797594 7.25808814
v 9.34316321 8.4952428 7.31617627
v 9.34745836 8.61512381 7.2
v 9.34316321 8.62106283 7.31617627
v 8.60303192 9.09136576 8.1003661
v 8.65637513 8.96999067 8.94264407
v 10.7686135 6.63595982 7.31617627
v 10.7686135 7.25572081 7.31617627
v 10.7686135 7.87548181 7.31617627
v 10.78003432 6.63943572 8.15845424
v 10.7686135 8.4952428 7.31617627
v 11.38959059 8.62106283 7.31617627
v 11.42006502 8.62003318 7.31617627
v 9.42137968 6.40675936 9.0007322
v 9.42137968 6.64786232 9.0007322
v 9.5011372 6.42583181 9.84301017
v 9.5011372 6.65999934 9.84301017
v 9.59353809 6.44792767 10.68528814
v 9.59353809 6.67406034 10.68528814
v 8.73479551 8.87104101 9.78492203
v 8.82675053 8.79032494 10.6272
v 8.83325179 9.36032056 10.68528814
v 9.83954216 9.36032056 10.68528814
v 10.80772174 6.64786232 9.0007322
v 10.8476005 6.65999934 9.84301017
v 10.59982847 6.44792767 10.68528814
v 10.89380094 6.67406034 10.68528814
v 11.12867517 8.72435721 9.78492203
v 10.13026401 8.79032494 10.6272
v 10.84583254 9.36032056 10.68528814
v 7.87602401 9.89497085 7.3220339
v 8.58287691 10.22675071 7.31617627
v 8.58287691 10.84651171 7.31617627
v 8.60571855 9.98430845 8.15845424
v 8.60571855 10.23022661 8.15845424
v 8.58287691 11.4662727 7.31617627
v 8.58287691 12.08603369 7.31617627
v 8.58287691 12.70579469 7.31617627
v 10.0083272 10.22675071 7.31617627
v 10.0083272 10.84651171 7.31617627
v 11.43377748 10.22675071 7.31617627
v 11.43377748 10.84651171 7.31617627
v 10.01974802 10.23022661 8.15845424
v 11.43377748 10.23022661 8.15845424
v 10.0083272 11.4662727 7.31617627
v 10.0083272 12.08603369 7.31617627
v 10.0083272 12.70579469 7.31617627
v 11.43377748 11.4662727 7.31617627
v 11.43377748 12.08603369 7.31617627
v 11.43377748 12.70579469 7.31617627
v 8.66109338 9.75644729 9.0007322
v 8.66109338 9.99755025 9.0007322
v 8.66109338 10.23865322 9.0007322
v 8.7408509 9.54828764 9.84301017
v 8.7408509 9.78245517 9.84301017
v 8.7408509 10.0166227 9.84301017
v 8.7408509 10.25079023 9.84301017
v 8.83325179 9.58645323 10.68528814
v 8.83325179 9.8125859 10.68528814
v 8.83325179 10.03871857 10.68528814
v 8.83325179 10.26485124 10.68528814
v 9.83954216 9.58645323 10.68528814
v 9.83954216 9.8125859 10.68528814
v 9.83954216 10.03871857 10.68528814
v 10.04743543 10.23865322 9.0007322
v 10.08731419 10.25079023 9.84301017
v 11.43377748 10.23865322 9.0007322
v 11.43377748 10.25079023 9.84301017
v 10.13351463 10.26485124 10.68528814
v 10.84583254 9.58645323 10.68528814
v 10.84583254 9.8125859 10.68528814
v 11.13980501 10.03871857 10.68528814
v 11.43377748 10.26485124 10.68528814
v 12.19406379 6.63595982 7.31617627
v 12.19406379 7.25572081 7.31617627
v 12.19406379 7.87548181 7.31617627
v 13.61951407 6.63595982 7.31617627
v 13.61951407 7.25572081 7.31617627
v 13.61951407 7.87548181 7.31617627
v 12.19406379 6.63943572 8.15845424
v 13.60809325 6.63943572 8.15845424
v 12.19406379 8.4952428 7.31617627
v 12.13819858 8.65495999 7.31617627
v 12.40570007 8.64287924 7.31617627
v 13.22338975 8.02300384 7.31617627
v 12.85527741 8.66653386 7.31617627
v 13.22338975 8.64857588 7.31617627
v 12.19454421 8.66809911 8.94264407
v 13.22338975 8.63262858 8.16193759
v 13.22338975 8.64259364 8.28991282
v 13.22338975 8.65987057 8.57051996
v 15.04496436 6.63595982 7.31617627
v 15.04496436 7.25572081 7.31617627
v 15.04496436 7.87548181 7.31617627
v 15.02212272 6.63943572 8.15845424
v 13.98367606 8.02300384 7.31617627
v 14.03645184 8.32713856 7.31617627
v 14.03645184 8.64109707 7.31617627
v 14.28467806 8.61537213 7.31617627
v 14.03645184 8.62724691 7.92655277
v 14.28467806 9.11500379 7.31617627
v 14.28467806 9.42106142 7.31617627
v 15.04496436 8.4952428 7.31617627
v 15.04496436 9.11500379 7.31617627
v 14.03645184 8.63175852 8.15845424
v 14.26183641 8.63175852 8.15845424
v 14.26183641 9.03137554 8.15845424
v 14.26183641 9.43099257 8.15845424
v 12.19406379 6.64786232 9.0007322
v 12.19406379 6.65999934 9.84301017
v 13.58040584 6.64786232 9.0007322
v 13.54052708 6.65999934 9.84301017
v 11.90009132 6.44792767 10.68528814
v 12.19406379 6.67406034 10.68528814
v 13.20035417 6.44792767 10.68528814
v 13.49432664 6.67406034 10.68528814
v 13.22338975 8.71791219 9.65284599
v 13.22338975 8.72605829 9.78282497
v 13.22338975 8.72714811 9.82014632
v 13.2134507 8.72870129 9.84301017
v 13.22338975 8.72870129 9.84301017
v 11.85212292 9.36032056 10.68528814
v 13.22338975 8.78329014 10.53663903
v 12.8584133 8.79498888 10.68528814
v 12.8584133 8.9363218 10.68528814
v 12.8584133 9.07765472 10.68528814
v 13.15238577 8.79498888 10.68528814
v 13.22541981 8.79498888 10.68528814
v 13.15238577 8.9363218 10.68528814
v 13.15238577 9.07765472 10.68528814
v 13.27616554 9.08742486 10.68528814
v 12.8584133 9.21898764 10.68528814
v 12.8584133 9.36032056 10.68528814
v 13.15238577 9.21898764 10.68528814
v 13.44635824 9.44512031 10.68528814
v 13.74033071 9.30378739 10.68528814
v 14.96674789 6.64786232 9.0007322
v 14.88699037 6.65999934 9.84301017
v 14.50061702 6.44792767 10.68528814
v 14.79458949 6.67406034 10.68528814
v 14.03645184 8.67148394 9.0007322
v 14.20646159 8.67148394 9.0007322
v 14.03645184 8.72870129 9.84301017
v 14.12670407 8.72870129 9.84301017
v 14.20646159 9.06327626 9.0007322
v 14.20646159 9.45506858 9.0007322
v 14.12670407 9.10922353 9.84301017
v 14.12670407 9.48974576 9.84301017
v 14.03645184 8.79344746 10.66570209
v 14.03645184 9.08742486 10.66570209
v 14.03430318 9.08742486 10.68528814
v 14.03430318 9.16245447 10.68528814
v 12.85922777 10.22675071 7.31617627
v 12.85922777 10.84651171 7.31617627
v 12.84780695 10.23022661 8.15845424
v 12.85922777 11.4662727 7.31617627
v 12.85922777 12.08603369 7.31617627
v 12.85922777 12.70579469 7.31617627
v 14.28467806 9.82390607 7.31617627
v 14.28467806 10.22675071 7.31617627
v 14.28467806 10.84651171 7.31617627
v 14.26183641 9.83060959 8.15845424
v 14.26183641 10.23022661 8.15845424
v 14.28467806 11.4662727 7.31617627
v 14.28467806 12.08603369 7.31617627
v 14.28467806 12.70579469 7.31617627
v 12.78024078 10.25079023 9.84301017
v 12.82011954 10.23865322 9.0007322
v 11.85212292 9.58645323 10.68528814
v 12.14609539 9.8125859 10.68528814
v 12.44006786 10.03871857 10.68528814
v 12.73404033 10.26485124 10.68528814
v 13.15238577 9.58645323 10.68528814
v 13.44635824 9.8125859 10.68528814
v 13.74033071 9.67125298 10.68528814
v 13.74033071 10.03871857 10.68528814
v 14.20646159 9.8468609 9.0007322
v 14.20646159 10.23865322 9.0007322
v 14.12670407 9.870268 9.84301017
v 14.12670407 10.25079023 9.84301017
v 14.03430318 9.52992006 10.68528814
v 14.03430318 9.89738565 10.68528814
v 14.03430318 10.26485124 10.68528814
v 7.87602401 6.47061259 10.86101695
v 8.92469577 9.26967941 11.5275661
v 8.92469577 9.40604255 11.5275661
v 9.00172342 9.18020267 12.36984407
v 9.00172342 9.31237952 12.36984407
v 9.00172342 9.44455637 12.36984407
v 9.8956013 9.40604255 11.5275661
v 10.86650683 9.40604255 11.5275661
v 9.9428226 9.44455637 12.36984407
v 10.88392178 8.91584897 12.36984407
v 10.88392178 9.44455637 12.36984407
v 9.05299721 9.08202257 13.21212203
v 9.05299721 9.21141281 13.21212203
v 9.05299721 9.34080304 13.21212203
v 9.05299721 9.47019327 13.21212203
v 9.07097028 8.96552607 14.0544
v 9.07097028 9.0939395 14.0544
v 9.07097028 9.22235294 14.0544
v 9.07097028 9.35076637 14.0544
v 9.07097028 9.47917981 14.0544
v 9.97425566 8.95263234 13.21212203
v 9.97425566 9.47019327 13.21212203
v 10.89551412 8.95263234 13.21212203
v 10.89551412 9.47019327 13.21212203
v 9.98527394 8.96552607 14.0544
v 9.98527394 9.0939395 14.0544
v 9.98527394 9.22235294 14.0544
v 9.98527394 9.35076637 14.0544
v 9.98527394 9.47917981 14.0544
v 10.89957759 8.96552607 14.0544
v 10.89957759 9.0939395 14.0544
v 10.89957759 9.22235294 14.0544
v 10.89957759 9.35076637 14.0544
v 10.89957759 9.47917981 14.0544
v 11.81388125 8.96552607 14.0544
v 11.81388125 9.0939395 14.0544
v 11.81388125 9.22235294 14.0544
v 11.81388125 9.35076637 14.0544
v 11.81388125 9.47917981 14.0544
v 11.83741237 8.86059 11.5275661
v 11.83741237 9.40604255 11.5275661
v 12.8083179 8.86059 11.5275661
v 12.8083179 8.99695314 11.5275661
v 12.8083179 9.13331628 11.5275661
v 12.8083179 9.26967941 11.5275661
v 12.8083179 9.40604255 11.5275661
v 11.82502096 8.91584897 12.36984407
v 11.82502096 9.44455637 12.36984407
v 12.76612015 8.91584897 12.36984407
v 12.76612015 9.04802582 12.36984407
v 12.76612015 9.18020267 12.36984407
v 12.76612015 9.31237952 12.36984407
v 12.76612015 9.44455637 12.36984407
v 13.22338975 8.02300384 12.25677803
v 13.27616554 9.08742486 12.10948637
v 13.22338975 8.78329014 12.25677803
v 14.03645184 8.32713856 12.10948637
v 13.98367606 8.02300384 12.25677803
v 14.03645184 9.08742486 12.10948637
v 13.98367606 8.78329014 12.25677803
v 11.81677257 8.95263234 13.21212203
v 11.81677257 9.47019327 13.21212203
v 12.73803102 8.95263234 13.21212203
v 12.73803102 9.08202257 13.21212203
v 12.73803102 9.21141281 13.21212203
v 12.73803102 9.34080304 13.21212203
v 12.73803102 9.47019327 13.21212203
v 12.72818491 8.96552607 14.0544
v 12.72818491 9.0939395 14.0544
v 12.72818491 9.22235294 14.0544
v 12.72818491 9.35076637 14.0544
v 12.72818491 9.47917981 14.0544
f 1 2 3
f 1 13 2
f 1 3 16
f 2 7 3
f 1 16 13
f 2 13 14
f 2 14 7
f 7 14 8
f 8 14 10
f 3 4 15
f 3 7 4
f 3 15 16
f 4 7 9
f 7 8 9
f 13 24 14
f 13 16 24
f 10 14 22
f 14 24 22
f 15 17 16
f 17 18 16
f 18 23 16
f 16 23 24
f 22 24 23
f 25 27 28
f 25 28 267
f 25 26 27
f 26 33 27
f 26 36 33
f 25 73 26
f 26 321 36
f 27 29 28
f 27 33 29
f 29 33 32
f 33 35 32
f 33 36 35
f 25 42 43
f 25 274 42
f 25 267 274
f 42 150 43
f 42 274 150
f 150 274 488
f 25 43 73
f 26 73 321
f 267 268 273
f 267 273 274
f 273 488 274
f 273 451 488
f 10 22 267
f 6 12 20
f 12 21 20
f 12 34 21
f 17 20 18
f 18 20 21
f 18 21 23
f 21 268 23
f 22 23 268
f 10 28 29
f 10 29 34
f 10 34 12
f 29 32 34
f 10 267 28
f 21 34 30
f 30 34 37
f 30 37 38
f 32 35 37
f 32 37 34
f 22 268 267
f 21 269 268
f 21 30 269
f 30 270 269
f 4 11 5
f 5 11 6
f 4 5 15
f 5 19 15
f 5 6 19
f 6 20 19
f 4 9 11
f 8 10 9
f 9 10 11
f 11 10 12
f 6 11 12
f 15 19 17
f 17 19 20
f 35 39 37
f 35 36 39
f 36 425 39
f 37 40 38
f 37 39 40
f 39 425 40
f 268 275 273
f 268 269 275
f 269 270 271
f 269 271 275
f 271 641 275
f 271 374 641
f 273 275 451
f 275 641 451
f 36 321 425
f 40 425 424
f 30 38 31
f 30 31 270
f 31 38 41
f 31 41 272
f 38 40 41
f 40 450 41
f 31 272 270
f 270 272 271
f 271 272 374
f 272 390 374
f 272 385 390
f 41 385 272
f 40 424 450
f 41 450 385
f 45 46 51
f 46 57 51
f 57 63 51
f 45 51 49
f 45 71 44
f 45 49 71
f 49 53 50
f 49 51 53
f 51 63 53
f 63 64 53
f 57 104 58
f 58 104 62
f 57 93 63
f 57 58 93
f 49 50 71
f 50 67 65
f 50 65 71
f 65 72 71
f 65 74 72
f 50 53 67
f 65 67 74
f 53 64 67
f 64 77 67
f 67 77 74
f 77 85 74
f 72 78 71
f 72 74 79
f 72 79 78
f 74 85 79
f 63 93 64
f 64 93 77
f 77 93 85
f 80 78 79
f 81 78 80
f 81 118 78
f 81 119 118
f 80 79 85
f 80 85 88
f 85 87 88
f 85 93 87
f 87 93 94
f 104 106 105
f 104 107 106
f 62 104 105
f 104 113 107
f 113 109 107
f 113 114 109
f 113 115 114
f 113 279 115
f 115 279 286
f 119 126 118
f 119 125 126
f 125 119 127
f 125 318 126
f 125 127 320
f 125 319 318
f 125 320 319
f 277 276 290
f 277 292 278
f 277 290 292
f 278 282 279
f 278 280 281
f 278 292 280
f 278 281 283
f 278 283 282
f 279 282 284
f 279 284 285
f 279 285 286
f 290 276 291
f 290 293 292
f 291 276 309
f 290 291 293
f 280 292 293
f 280 293 310
f 309 276 319
f 291 312 293
f 319 276 318
f 291 309 312
f 309 317 312
f 309 319 317
f 293 312 310
f 310 312 311
f 311 312 313
f 312 314 313
f 312 317 314
f 314 317 322
f 314 322 315
f 317 319 320
f 136 155 140
f 140 157 142
f 136 151 155
f 151 152 156
f 152 153 159
f 153 154 160
f 154 166 160
f 166 167 160
f 151 156 155
f 140 155 157
f 152 159 156
f 155 156 158
f 155 158 157
f 156 161 158
f 153 160 159
f 156 159 161
f 159 160 162
f 159 162 161
f 160 167 162
f 167 168 162
f 166 230 167
f 230 231 167
f 231 168 167
f 231 232 168
f 142 201 174
f 174 205 178
f 178 205 193
f 178 193 192
f 192 198 197
f 192 193 198
f 198 193 246
f 198 246 244
f 193 247 246
f 142 157 201
f 157 202 201
f 157 158 202
f 158 203 202
f 174 201 205
f 201 206 205
f 201 202 206
f 202 207 206
f 158 161 203
f 161 204 203
f 161 162 204
f 202 203 207
f 203 208 207
f 203 204 208
f 162 168 204
f 168 209 204
f 204 209 208
f 209 213 208
f 205 206 210
f 205 210 193
f 206 207 211
f 206 211 210
f 211 207 212
f 207 208 212
f 208 213 212
f 168 232 209
f 209 256 213
f 232 256 209
f 256 260 213
f 193 210 247
f 210 211 257
f 247 210 257
f 211 258 257
f 211 212 258
f 212 213 259
f 212 259 258
f 213 260 259
f 230 238 231
f 238 239 231
f 231 239 232
f 239 240 232
f 238 495 239
f 239 495 504
f 239 504 240
f 240 504 507
f 243 244 245
f 244 246 245
f 245 246 253
f 246 247 253
f 245 253 252
f 252 253 559
f 252 559 558
f 232 240 256
f 256 261 260
f 240 261 256
f 261 266 260
f 247 257 262
f 257 258 263
f 247 262 253
f 262 257 263
f 258 259 264
f 259 260 265
f 263 258 264
f 259 265 264
f 260 266 265
f 240 507 261
f 261 615 266
f 507 615 261
f 253 262 616
f 262 263 617
f 263 264 618
f 253 616 559
f 262 617 616
f 263 618 617
f 264 265 621
f 265 266 622
f 264 621 618
f 265 622 621
f 266 615 623
f 266 623 622
f 489 497 490
f 489 496 497
f 490 497 502
f 490 502 493
f 493 503 494
f 493 502 503
f 494 504 495
f 494 503 504
f 496 499 497
f 496 498 499
f 497 499 505
f 497 505 502
f 502 506 503
f 503 507 504
f 502 505 506
f 503 506 507
f 498 611 499
f 498 610 611
f 499 611 613
f 610 618 611
f 499 613 505
f 505 614 506
f 505 613 614
f 506 615 507
f 506 614 615
f 611 621 613
f 613 622 614
f 614 623 615
f 610 617 618
f 611 618 621
f 613 621 622
f 614 622 623
f 479 480 515
f 515 480 519
f 480 487 519
f 519 487 527
f 487 579 527
f 527 579 626
f 489 492 496
f 492 500 496
f 492 510 500
f 510 522 500
f 496 500 498
f 500 501 498
f 500 522 501
f 522 524 501
f 510 514 522
f 514 523 522
f 514 518 523
f 515 519 516
f 516 520 517
f 517 521 518
f 516 519 520
f 523 518 526
f 520 521 517
f 518 521 526
f 522 523 524
f 523 525 524
f 523 526 525
f 519 527 520
f 520 528 521
f 520 527 528
f 521 529 526
f 521 528 529
f 527 626 528
f 526 530 525
f 526 529 530
f 528 627 529
f 528 626 627
f 529 628 530
f 556 558 564
f 558 559 565
f 556 564 563
f 558 565 564
f 602 563 564
f 603 564 565
f 599 563 602
f 602 564 603
f 579 590 626
f 626 590 630
f 581 584 582
f 582 586 583
f 583 587 589
f 582 584 586
f 584 585 588
f 583 586 587
f 584 588 586
f 586 588 587
f 587 588 591
f 589 591 590
f 589 587 591
f 590 591 630
f 591 592 630
f 588 608 591
f 591 608 592
f 592 608 593
f 592 593 632
f 599 602 604
f 602 603 605
f 599 604 601
f 602 605 604
f 601 604 609
f 604 605 638
f 601 607 606
f 601 609 607
f 608 607 609
f 604 638 609
f 593 608 609
f 593 638 632
f 593 609 638
f 498 501 610
f 501 612 610
f 610 612 617
f 501 524 612
f 524 625 612
f 612 625 620
f 625 635 620
f 559 616 619
f 616 617 620
f 559 619 565
f 612 620 617
f 616 620 619
f 634 565 619
f 619 620 635
f 603 565 634
f 634 619 635
f 524 525 625
f 525 624 625
f 625 624 635
f 624 637 635
f 525 530 624
f 529 627 628
f 530 628 629
f 626 630 627
f 627 631 628
f 530 629 624
f 624 629 637
f 627 630 631
f 628 633 629
f 628 631 633
f 630 592 631
f 592 632 631
f 631 632 633
f 629 640 637
f 629 633 640
f 603 634 636
f 634 635 637
f 603 636 605
f 634 637 636
f 605 636 639
f 636 637 640
f 605 639 638
f 632 638 639
f 632 639 633
f 636 640 639
f 633 639 640
f 479 643 480
f 643 647 480
f 643 646 647
f 646 649 647
f 480 647 487
f 647 648 487
f 487 648 579
f 648 681 579
f 647 649 648
f 649 651 648
f 648 651 681
f 651 688 681
f 646 655 649
f 655 662 649
f 655 660 662
f 660 669 662
f 656 665 657
f 657 665 666
f 657 666 658
f 658 667 659
f 659 668 660
f 658 666 667
f 659 667 668
f 660 668 669
f 649 662 651
f 662 664 651
f 662 669 664
f 651 664 688
f 664 702 688
f 664 674 702
f 669 674 664
f 665 670 666
f 666 671 667
f 667 672 668
f 668 673 669
f 666 670 671
f 667 671 672
f 668 672 673
f 669 673 674
f 674 679 702
f 670 675 671
f 671 676 672
f 672 677 673
f 673 678 674
f 671 675 676
f 672 676 677
f 673 677 678
f 674 678 679
f 579 681 590
f 681 686 590
f 581 582 683
f 582 583 684
f 581 683 682
f 582 684 683
f 583 589 685
f 589 590 686
f 583 685 684
f 589 686 685
f 681 688 686
f 682 683 690
f 683 684 691
f 682 690 689
f 683 691 690
f 684 685 692
f 685 686 693
f 688 693 686
f 684 692 691
f 685 693 692
f 688 702 693
f 689 690 704
f 689 704 703
f 690 705 704
f 690 691 705
f 691 692 706
f 692 693 707
f 702 707 693
f 691 706 705
f 692 707 706
f 702 679 707
f 703 704 709
f 704 705 710
f 705 706 711
f 706 707 712
f 703 709 708
f 679 712 707
f 704 710 709
f 705 711 710
f 706 712 711
f 675 708 676
f 676 709 677
f 677 710 678
f 678 711 679
f 676 708 709
f 677 709 710
f 678 710 711
f 679 711 712
f 47 48 54
f 47 54 52
f 52 54 68
f 52 68 66
f 66 68 70
f 66 70 69
f 69 70 76
f 69 76 75
f 75 100 86
f 75 76 100
f 76 189 100
f 86 100 99
f 86 99 98
f 100 189 124
f 99 123 120
f 99 100 123
f 100 124 123
f 120 123 122
f 123 124 131
f 124 241 132
f 123 129 122
f 121 122 128
f 122 129 128
f 123 131 129
f 124 132 131
f 128 129 324
f 129 131 326
f 131 132 327
f 128 324 323
f 129 326 324
f 131 327 326
f 48 134 138
f 48 138 54
f 134 135 139
f 134 139 138
f 54 169 68
f 54 138 169
f 138 170 169
f 138 139 170
f 135 137 141
f 135 141 139
f 139 173 170
f 139 141 173
f 137 146 141
f 146 149 141
f 149 173 141
f 149 180 173
f 146 147 149
f 147 180 149
f 147 181 180
f 68 169 171
f 169 170 172
f 68 171 70
f 70 171 176
f 169 172 171
f 171 172 177
f 170 173 175
f 170 175 172
f 172 175 179
f 173 180 175
f 175 181 179
f 180 181 175
f 70 176 76
f 171 177 176
f 76 176 189
f 189 176 190
f 176 177 190
f 177 191 190
f 172 179 177
f 177 179 191
f 191 179 194
f 181 194 179
f 147 186 181
f 181 182 199
f 186 182 181
f 186 184 182
f 186 187 184
f 189 190 241
f 190 191 242
f 189 241 124
f 241 190 242
f 191 194 248
f 181 199 194
f 191 248 242
f 194 249 248
f 199 243 194
f 243 249 194
f 241 242 250
f 241 250 132
f 242 251 250
f 243 245 249
f 245 255 249
f 242 248 251
f 248 249 254
f 245 252 255
f 248 254 251
f 254 249 255
f 132 250 549
f 250 251 550
f 132 549 327
f 549 250 550
f 251 551 550
f 252 561 255
f 251 254 551
f 254 255 560
f 252 558 561
f 254 560 551
f 255 561 560
f 452 465 453
f 453 466 454
f 454 468 459
f 452 464 465
f 453 465 466
f 464 532 465
f 464 531 532
f 465 533 466
f 465 532 533
f 454 466 468
f 459 469 461
f 459 468 469
f 466 539 468
f 466 533 539
f 468 539 469
f 469 539 470
f 531 535 532
f 532 536 533
f 531 534 535
f 532 535 536
f 533 536 542
f 470 539 540
f 539 541 540
f 533 542 539
f 539 543 541
f 539 542 543
f 542 544 543
f 534 550 535
f 534 549 550
f 542 536 551
f 535 551 536
f 535 550 551
f 542 551 553
f 554 556 555
f 553 560 554
f 553 551 560
f 554 560 556
f 556 560 558
f 558 560 561
f 299 302 300
f 300 302 303
f 300 303 301
f 301 304 475
f 301 303 304
f 302 306 303
f 303 306 307
f 303 307 304
f 304 308 483
f 304 307 308
f 323 324 332
f 323 332 331
f 324 326 333
f 326 327 334
f 324 333 332
f 326 334 333
f 331 332 347
f 331 347 346
f 332 333 351
f 333 334 352
f 332 351 347
f 333 352 351
f 306 336 307
f 307 336 337
f 307 337 308
f 308 341 570
f 308 337 341
f 338 357 339
f 338 356 357
f 339 358 340
f 340 359 342
f 336 343 337
f 337 364 341
f 337 343 364
f 342 362 343
f 341 365 572
f 341 364 365
f 346 347 350
f 346 350 349
f 347 351 353
f 351 352 354
f 347 353 350
f 351 354 353
f 339 357 358
f 357 360 358
f 340 358 359
f 358 360 359
f 359 361 362
f 359 360 361
f 360 370 361
f 342 359 362
f 362 364 343
f 362 363 364
f 362 361 363
f 364 363 365
f 361 366 363
f 361 370 366
f 363 366 367
f 370 371 366
f 371 372 366
f 366 372 367
f 363 367 365
f 365 367 596
f 367 372 373
f 367 373 596
f 349 350 368
f 368 350 369
f 369 350 371
f 369 371 370
f 350 353 372
f 353 354 373
f 350 372 371
f 353 373 372
f 452 456 464
f 456 467 464
f 464 467 531
f 467 537 531
f 456 472 467
f 472 481 467
f 467 481 537
f 481 566 537
f 472 474 481
f 474 482 481
f 481 482 566
f 482 567 566
f 474 476 482
f 475 483 476
f 475 304 483
f 476 484 482
f 476 483 484
f 482 484 567
f 483 570 484
f 484 571 567
f 483 308 570
f 484 570 571
f 531 537 534
f 537 538 534
f 537 566 538
f 566 568 538
f 534 538 549
f 538 552 549
f 327 549 552
f 327 552 334
f 538 568 552
f 568 594 552
f 334 552 594
f 334 594 352
f 566 567 568
f 567 569 568
f 567 571 569
f 570 572 571
f 570 341 572
f 571 573 569
f 571 572 573
f 572 596 573
f 568 569 594
f 569 595 594
f 352 594 595
f 352 595 354
f 569 573 595
f 572 365 596
f 573 596 597
f 595 573 597
f 596 373 597
f 354 595 597
f 354 597 373
f 299 376 302
f 376 380 302
f 302 380 306
f 380 381 306
f 376 379 380
f 379 382 380
f 380 382 381
f 382 384 381
f 379 389 382
f 389 397 382
f 389 395 397
f 382 397 384
f 397 399 384
f 397 404 399
f 391 400 392
f 392 401 393
f 392 400 401
f 395 404 397
f 393 402 394
f 394 403 395
f 393 401 402
f 394 402 403
f 395 403 404
f 400 405 401
f 401 406 402
f 401 405 406
f 404 409 399
f 402 407 403
f 403 408 404
f 402 406 407
f 403 407 408
f 404 408 409
f 306 381 336
f 381 411 336
f 338 339 413
f 339 340 414
f 338 413 412
f 339 414 413
f 336 411 343
f 411 416 343
f 340 342 415
f 342 343 416
f 340 415 414
f 342 416 415
f 381 384 411
f 384 418 411
f 412 413 420
f 413 414 421
f 412 420 419
f 413 421 420
f 411 418 416
f 418 423 416
f 414 415 422
f 415 416 423
f 414 422 421
f 415 423 422
f 384 399 418
f 399 434 418
f 399 409 434
f 419 420 436
f 420 421 437
f 419 436 435
f 420 437 436
f 435 436 446
f 418 434 423
f 434 439 423
f 421 422 438
f 422 423 439
f 421 438 437
f 422 439 438
f 434 444 439
f 436 437 447
f 437 438 448
f 438 439 449
f 405 440 406
f 406 441 407
f 406 440 441
f 409 444 434
f 407 442 408
f 408 443 409
f 407 441 442
f 408 442 443
f 409 443 444
f 435 446 445
f 436 447 446
f 440 445 441
f 441 446 442
f 441 445 446
f 444 449 439
f 437 448 447
f 438 449 448
f 442 447 443
f 443 448 444
f 442 446 447
f 443 447 448
f 444 448 449
f 43 55 44
f 43 44 71
f 43 102 55
f 43 111 102
f 43 71 73
f 73 71 78
f 73 78 118
f 73 118 126
f 43 276 111
f 43 451 374
f 73 126 318
f 73 318 424
f 73 424 321
f 43 150 488
f 43 488 451
f 43 385 276
f 43 374 385
f 451 641 374
f 424 318 276
f 321 424 425
f 385 424 276
f 374 390 385
f 385 450 424
f 45 44 56
f 56 44 55
f 45 56 57
f 45 57 46
f 56 55 103
f 103 55 102
f 56 103 104
f 56 104 57
f 103 102 112
f 112 102 111
f 103 113 104
f 103 112 113
f 112 111 278
f 277 111 276
f 277 278 111
f 112 279 113
f 112 278 279
f 136 163 151
f 136 148 145
f 136 145 163
f 136 140 216
f 147 140 142
f 147 142 174
f 147 216 140
f 136 216 148
f 145 220 217
f 148 220 145
f 147 219 216
f 147 174 186
f 151 163 164
f 151 164 152
f 152 164 165
f 152 165 153
f 153 165 166
f 153 166 154
f 145 227 163
f 163 228 164
f 145 217 227
f 163 227 228
f 164 228 229
f 164 229 165
f 165 230 166
f 165 229 230
f 174 178 186
f 186 178 185
f 183 185 178
f 183 178 188
f 178 192 188
f 186 185 187
f 188 192 195
f 195 192 196
f 192 197 196
f 148 216 226
f 148 223 220
f 216 219 225
f 148 226 223
f 217 220 236
f 216 457 226
f 220 223 458
f 220 458 236
f 216 225 457
f 223 462 458
f 223 226 463
f 225 460 457
f 217 234 227
f 227 235 228
f 217 236 233
f 217 233 234
f 227 234 235
f 228 237 229
f 229 238 230
f 228 235 237
f 229 237 238
f 233 490 234
f 234 493 235
f 233 236 491
f 233 489 490
f 233 491 489
f 234 490 493
f 235 494 237
f 237 495 238
f 235 493 494
f 237 494 495
f 223 463 462
f 226 457 477
f 457 460 461
f 226 477 463
f 462 511 458
f 457 461 478
f 461 469 478
f 469 470 485
f 470 540 485
f 457 478 477
f 462 463 642
f 462 479 511
f 462 642 479
f 463 477 644
f 511 479 515
f 478 469 486
f 486 469 485
f 485 545 650
f 236 458 508
f 236 508 491
f 489 491 492
f 491 509 492
f 458 511 508
f 508 509 491
f 492 509 510
f 508 512 509
f 509 513 510
f 508 511 512
f 512 513 509
f 510 513 514
f 511 515 512
f 512 516 513
f 513 517 514
f 512 515 516
f 516 517 513
f 514 517 518
f 540 541 545
f 541 543 545
f 543 544 546
f 545 543 546
f 485 540 545
f 545 546 547
f 555 556 557
f 557 556 563
f 557 563 562
f 562 563 599
f 562 599 598
f 545 547 680
f 547 548 581
f 548 574 581
f 574 575 577
f 575 576 577
f 576 578 577
f 547 581 680
f 574 577 581
f 577 578 580
f 577 584 581
f 577 580 584
f 580 585 584
f 598 599 601
f 598 601 600
f 600 601 606
f 477 478 652
f 463 644 642
f 479 642 643
f 477 652 644
f 478 486 656
f 642 645 643
f 642 644 645
f 643 645 646
f 486 485 661
f 650 545 680
f 661 485 650
f 650 680 687
f 478 656 652
f 644 653 645
f 645 654 646
f 644 652 653
f 645 653 654
f 646 654 655
f 656 486 661
f 652 657 653
f 653 658 654
f 654 659 655
f 652 656 657
f 657 658 653
f 654 658 659
f 655 659 660
f 656 661 665
f 661 650 663
f 661 663 665
f 650 687 663
f 663 687 701
f 663 701 670
f 665 663 670
f 670 701 675
f 680 581 682
f 680 682 687
f 687 682 689
f 687 689 701
f 701 689 703
f 701 703 675
f 675 703 708
f 47 61 59
f 47 60 48
f 47 59 60
f 47 52 93
f 47 58 61
f 59 214 60
f 58 62 61
f 61 62 105
f 61 105 106
f 61 110 59
f 59 110 108
f 59 108 214
f 47 93 58
f 52 66 93
f 66 69 93
f 69 90 89
f 69 89 92
f 69 75 90
f 90 75 91
f 91 75 95
f 75 86 95
f 69 92 93
f 95 86 96
f 97 86 98
f 96 86 97
f 93 92 94
f 61 106 107
f 61 107 110
f 107 109 110
f 117 108 110
f 108 116 221
f 117 116 108
f 109 114 287
f 110 109 287
f 117 110 287
f 115 287 114
f 117 455 116
f 115 286 287
f 121 128 130
f 128 133 130
f 128 323 133
f 48 143 134
f 48 60 143
f 134 144 135
f 134 143 144
f 135 146 137
f 135 144 146
f 60 215 143
f 143 218 144
f 60 214 215
f 143 215 218
f 144 147 146
f 144 219 147
f 144 218 219
f 108 221 214
f 214 222 215
f 215 224 218
f 214 221 222
f 215 222 224
f 218 225 219
f 218 224 225
f 116 453 221
f 221 454 222
f 116 452 453
f 116 455 452
f 221 453 454
f 222 459 224
f 224 460 225
f 222 454 459
f 224 459 460
f 285 284 288
f 285 288 286
f 282 283 289
f 282 289 284
f 286 288 287
f 117 287 295
f 117 295 455
f 280 294 281
f 281 294 283
f 288 284 289
f 283 294 289
f 288 296 287
f 287 296 295
f 455 295 471
f 280 310 305
f 280 298 294
f 288 289 375
f 295 297 471
f 288 299 296
f 295 296 297
f 297 473 471
f 289 294 377
f 288 375 299
f 296 300 297
f 297 301 473
f 296 299 300
f 297 300 301
f 280 305 298
f 305 310 335
f 315 322 328
f 313 314 316
f 314 315 316
f 310 311 335
f 311 313 335
f 335 313 316
f 316 315 328
f 316 328 329
f 133 323 325
f 323 331 325
f 325 331 330
f 330 331 346
f 330 346 345
f 316 329 410
f 329 344 338
f 383 335 316
f 344 355 338
f 410 329 338
f 355 356 338
f 345 346 349
f 345 349 348
f 348 349 368
f 289 377 375
f 294 298 386
f 299 375 376
f 294 386 377
f 375 378 376
f 377 378 375
f 376 378 379
f 305 335 396
f 298 305 391
f 396 335 383
f 298 391 386
f 386 392 387
f 377 387 378
f 378 388 379
f 377 386 387
f 387 388 378
f 379 388 389
f 387 393 388
f 388 394 389
f 386 391 392
f 387 392 393
f 393 394 388
f 389 394 395
f 391 305 396
f 396 383 398
f 396 398 400
f 391 396 400
f 400 398 405
f 383 316 410
f 410 338 412
f 383 410 417
f 410 412 417
f 417 412 419
f 383 417 398
f 398 417 433
f 398 433 405
f 417 419 433
f 433 419 435
f 433 435 440
f 405 433 440
f 440 435 445
f 452 455 456
f 455 471 456
f 456 471 472
f 459 461 460
f 471 473 472
f 472 473 474
f 473 475 474
f 473 301 475
f 474 475 476
f 81 80 82
f 81 84 83
f 81 82 84
f 81 83 119
f 80 90 82
f 80 88 90
f 82 90 91
f 87 89 88
f 88 89 90
f 87 92 89
f 87 94 92
f 82 91 84
f 91 95 84
f 95 96 84
f 96 97 84
f 97 98 84
f 98 99 101
f 84 98 101
f 99 120 101
f 84 101 122
f 101 120 122
f 83 127 119
f 84 122 121
f 84 121 130
f 84 130 133
f 83 84 427
f 83 427 127
f 84 133 325
f 84 325 330
f 84 330 345
f 127 427 320
f 317 320 427
f 84 428 427
f 317 328 322
f 84 345 428
f 317 355 328
f 328 344 329
f 317 426 430
f 317 427 426
f 317 356 355
f 328 355 344
f 317 430 356
f 345 348 428
f 348 368 428
f 368 369 432
f 426 427 430
f 356 430 357
f 357 429 360
f 360 429 370
f 357 430 429
f 429 432 370
f 369 370 432
f 368 432 428
f 430 432 429
f 430 427 431
f 427 428 432
f 427 432 431
f 430 431 432
f 182 185 183
f 182 184 185
f 185 184 187
f 182 183 199
f 183 188 199
f 188 195 199
f 195 196 199
f 196 197 199
f 197 198 200
f 197 200 199
f 198 244 200
f 199 200 243
f 200 244 243
f 542 546 544
f 542 547 546
f 542 548 547
f 542 574 548
f 542 575 574
f 542 576 575
f 542 578 576
f 542 553 698
f 554 555 557
f 554 557 562
f 553 554 697
f 542 580 578
f 542 696 580
f 542 694 696
f 542 698 694
f 554 562 697
f 562 598 697
f 598 600 697
f 553 697 698
f 580 696 585
f 585 696 588
f 588 695 608
f 588 696 695
f 695 699 608
f 694 698 696
f 696 698 700
f 696 699 695
f 696 700 699
f 600 606 697
f 606 607 699
f 608 699 607
f 697 606 699
f 698 697 700
f 697 699 700
