# MAAS exact compiled indexed mesh
# program_hash 103a1fe842e2a1b0e7b909f62337ab2e5b07ab0dbe43616eb87c49d7cef202fe
# geometry_hash c92892aa3a61c08d729650bc8b05e6cff07d7a24661e5e1d84c3384202596769
v -15.7313001 -11.2854979 0
v -4.10381742 -11.2854979 0
v -15.7313001 -11.2854979 7.3220339
v -15.04733053 -8.54961962 7.3220339
v -15.04733053 -8.54961962 10.86101695
v -8.20763484 -4.18931361 10.86101695
v -4.10381742 -11.2854979 7.3220339
v -4.10381742 -8.54961962 7.2
v -4.10381742 -8.54961962 7.3220339
v -4.10381742 -8.54961962 10.86101695
v -4.10381742 -5.12977177 7.2
v -4.10381742 -5.12977177 10.86101695
v -15.7313001 7.18168048 0
v -4.10381742 7.18168048 0
v -15.04733053 3.07786306 7.3220339
v -8.20763484 3.07786306 7.3220339
v -8.20763484 3.76183263 7.3220339
v -15.04733053 3.07786306 10.86101695
v -8.20763484 3.07786306 10.86101695
v -8.20763484 3.76183263 10.86101695
v -15.7313001 7.18168048 7.3220339
v -4.10381742 3.76183263 7.2
v -4.10381742 3.76183263 7.3220339
v -4.10381742 7.18168048 7.3220339
v 4.10381742 -5.81374134 0
v 15.7313001 -5.81374134 0
v 4.10381742 -5.81374134 7.3220339
v 4.10381742 -5.12977177 7.2
v 4.10381742 -5.12977177 7.3220339
v 5.06137482 -2.39389349 10.86101695
v 5.06137482 -2.39389349 14.4
v 15.7313001 -5.81374134 7.3220339
v 8.20763484 -5.12977177 7.3220339
v 8.20763484 -3.76183263 7.3220339
v 15.7313001 -3.76183263 7.3220339
v 8.20763484 -5.12977177 10.86101695
v 8.20763484 -3.76183263 10.86101695
v 8.20763484 -2.39389349 10.86101695
v 15.7313001 -3.76183263 10.86101695
v 13.95297922 -2.39389349 10.86101695
v 13.95297922 -2.39389349 14.4
v 4.10381742 11.2854979 0
v 15.7313001 11.2854979 0
v 4.10381742 3.76183263 7.2
v 4.10381742 3.76183263 7.3220339
v 4.10381742 3.76183263 10.86101695
v 5.06137482 3.76183263 10.86101695
v 4.10381742 7.86565005 7.3220339
v 4.10381742 11.2854979 7.3220339
v 5.06137482 6.49771091 10.86101695
v 4.10381742 7.86565005 10.86101695
v 5.06137482 6.49771091 14.4
v 15.7313001 7.86565005 7.3220339
v 15.7313001 11.2854979 7.3220339
v 13.95297922 6.49771091 10.86101695
v 15.7313001 7.86565005 10.86101695
v 13.95297922 6.49771091 14.4
f 1 2 3
f 2 7 3
f 1 13 2
f 1 3 21
f 2 14 7
f 7 14 8
f 8 14 11
f 3 7 4
f 3 4 15
f 3 15 21
f 4 7 9
f 7 8 9
f 1 21 13
f 2 13 14
f 13 24 14
f 13 21 24
f 11 14 22
f 14 24 22
f 15 16 21
f 16 17 21
f 17 23 21
f 21 23 24
f 22 24 23
f 25 27 28
f 25 28 44
f 25 26 27
f 26 32 27
f 25 42 26
f 26 43 32
f 27 29 28
f 27 32 29
f 29 32 33
f 32 34 33
f 32 35 34
f 25 49 42
f 25 44 49
f 26 42 43
f 32 43 35
f 35 43 53
f 42 54 43
f 42 49 54
f 43 54 53
f 44 45 48
f 44 48 49
f 48 53 49
f 49 53 54
f 6 12 19
f 12 36 20
f 16 19 17
f 17 19 20
f 17 20 23
f 11 22 44
f 20 45 23
f 22 23 45
f 12 20 19
f 11 28 29
f 11 29 36
f 11 36 12
f 11 44 28
f 29 33 36
f 20 36 30
f 36 37 30
f 37 38 30
f 33 34 37
f 33 37 36
f 22 45 44
f 20 46 45
f 20 30 46
f 30 47 46
f 4 10 5
f 5 10 6
f 4 5 15
f 5 18 15
f 5 6 18
f 4 9 10
f 8 11 9
f 9 11 10
f 10 11 12
f 6 10 12
f 15 18 16
f 16 18 19
f 6 19 18
f 34 39 37
f 34 35 39
f 37 40 38
f 37 39 40
f 45 46 51
f 46 47 50
f 45 51 48
f 46 50 51
f 51 50 55
f 35 56 39
f 35 53 56
f 39 56 40
f 56 55 40
f 48 51 53
f 51 56 53
f 51 55 56
f 31 47 30
f 31 30 38
f 31 38 41
f 41 38 40
f 31 52 47
f 52 50 47
f 31 41 52
f 52 41 57
f 41 40 57
f 57 40 55
f 52 55 50
f 52 57 55
