# MAAS exact compiled indexed mesh
# program_hash 8b63868f4abf387ce0dc01c2fa60669717105a6db78ced53ada10a8b52462dcc
# geometry_hash 58cbd5077f52219d7bc70b33e01284d95b962413fb2779016afd29545c90b27b
v -13.00128667 -14.37893255 0
v -13.00128667 -14.37893255 3.68181818
v -14.77418939 -11.42409467 3.55909091
v -13.00128667 -11.42409467 3.55909091
v -13.00128667 -11.42409467 3.68181818
v -14.77418939 -2.55958103 3.55909091
v -13.00128667 -2.55958103 3.55909091
v -13.00128667 -2.55958103 3.68181818
v -7.09161091 -14.37893255 0
v -6.3290721 -9.34617642 0
v -6.42005684 -9.06022437 0
v -4.72774061 -9.06022437 0
v -7.09161091 -14.37893255 3.68181818
v -6.6439082 -11.42409467 3.68181818
v -4.72774061 -11.42409467 3.68181818
v -4.72774061 -9.06022437 3.55909091
v -4.72774061 -9.06022437 3.68181818
v -4.72774061 -2.55958103 3.55909091
v -4.72774061 -2.55958103 3.68181818
v -14.77418939 -11.42409467 7.24090909
v -14.18322182 -9.41480491 7.24090909
v -14.18322182 -9.41480491 10.8
v -14.18322182 -2.91416158 7.24090909
v -14.77418939 -2.55958103 7.24090909
v -14.18322182 -2.91416158 10.8
v -4.72774061 -11.42409467 7.24090909
v -6.50064333 -9.41480491 7.24090909
v -6.50064333 -9.41480491 10.8
v -6.50064333 -2.91416158 7.24090909
v -4.72774061 -2.55958103 7.24090909
v -6.50064333 -2.91416158 10.8
v -12.41031909 1.577192 3.68181818
v -13.00128667 11.62364078 0
v -12.41031909 10.44170563 3.68181818
v -13.00128667 11.62364078 3.68181818
v -4.72774061 4.53202987 0
v -4.72774061 1.577192 3.55909091
v -4.72774061 1.577192 3.68181818
v -4.72774061 4.53202987 3.55909091
v -2.95483788 1.577192 3.55909091
v -2.95483788 4.53202987 3.55909091
v -2.95483788 4.53202987 3.68181818
v -4.72774061 10.44170563 0
v -7.09161091 11.62364078 0
v -4.72774061 10.44170563 3.68181818
v -7.09161091 11.62364078 3.68181818
v -2.95483788 10.44170563 3.68181818
v -12.41031909 1.577192 7.24090909
v -12.41031909 10.44170563 7.24090909
v -6.50064333 4.7684169 7.24090909
v -2.95483788 1.577192 7.24090909
v -2.95483788 4.7684169 7.11818182
v -2.95483788 4.7684169 7.24090909
v -6.50064333 4.7684169 10.8
v -6.50064333 10.44170563 7.11818182
v -6.50064333 10.44170563 7.24090909
v -6.50064333 10.67809266 7.11818182
v -2.95483788 10.44170563 7.11818182
v -6.50064333 10.67809266 10.8
v 7.09161091 -14.37893255 0
v 7.09161091 -12.01506225 0
v 4.72774061 -9.06022437 0
v 3.54580545 -10.24215952 3.68181818
v 3.54580545 -9.06022437 3.55909091
v 3.54580545 -9.06022437 3.68181818
v 7.09161091 -14.37893255 3.68181818
v 7.09161091 -12.01506225 3.68181818
v 4.72774061 -9.06022437 3.55909091
v 5.67328873 -10.24215952 3.68181818
v 3.54580545 -2.55958103 3.55909091
v 4.72774061 -2.55958103 3.55909091
v 4.72774061 -2.55958103 3.68181818
v 13.00128667 -12.01506225 0
v 13.00128667 -12.01506225 3.68181818
v 13.00128667 -10.24215952 3.55909091
v 13.00128667 -10.24215952 3.68181818
v 14.77418939 -10.24215952 3.55909091
v 13.00128667 -2.55958103 3.55909091
v 13.00128667 -2.55958103 3.68181818
v 14.77418939 -2.55958103 3.55909091
v 3.54580545 -10.24215952 7.24090909
v 3.54580545 -2.55958103 7.24090909
v 14.77418939 -10.24215952 7.24090909
v 14.77418939 -2.55958103 7.24090909
v 4.72774061 4.53202987 0
v 4.13677303 3.35009472 3.55909091
v 4.72774061 3.35009472 3.55909091
v 4.72774061 3.35009472 3.68181818
v 4.13677303 4.53202987 3.55909091
v 4.13677303 4.53202987 3.68181818
v 4.72774061 4.53202987 3.55909091
v 4.72774061 11.62364078 0
v 4.72774061 12.80557593 0
v 4.13677303 11.62364078 3.55909091
v 4.13677303 11.62364078 3.68181818
v 4.72774061 11.62364078 3.55909091
v 4.13677303 12.80557593 3.55909091
v 4.72774061 12.80557593 3.55909091
v 4.72774061 12.80557593 3.68181818
v 13.00128667 3.35009472 3.55909091
v 13.00128667 3.35009472 3.68181818
v 13.59225424 3.35009472 3.55909091
v 13.00128667 12.80557593 0
v 13.00128667 12.80557593 3.55909091
v 13.00128667 12.80557593 3.68181818
v 13.59225424 12.80557593 3.55909091
v -0 6.20565005 5.4
v -0 4.7684169 7.11818182
v -0 6.20565005 7.11818182
v 4.13677303 3.35009472 5.4
v 5.94399238 1.77673865 5.4
v 5.73126629 3.35009472 5.4
v 4.13677303 6.20565005 5.4
v 5.34518006 6.20565005 5.4
v -0 4.7684169 10.8
v -0 6.20565005 10.8
v 5.94399238 1.77673865 10.8
v 5.34518006 6.20565005 10.8
v 6.54294038 6.20565005 10.8
v -0 9.95002061 5.4
v -0 9.95002061 7.11818182
v -0 10.67809266 7.11818182
v 4.13677303 9.95002061 5.4
v 4.8389213 9.95002061 5.4
v 4.13677303 12.80557593 5.4
v 4.45283507 12.80557593 5.4
v 4.30129316 13.92640408 5.4
v -0 9.95002061 10.8
v -0 10.67809266 10.8
v 4.8389213 9.95002061 10.8
v 7.04931386 9.95002061 10.8
v 4.30129316 13.92640408 10.8
v 9.13941917 3.35009472 5.4
v 9.29096108 2.22926657 5.4
v 8.75333294 6.20565005 5.4
v 13.59225424 3.35009472 5.4
v 13.59225424 6.20565005 5.4
v 9.29096108 2.22926657 10.8
v 8.75333294 6.20565005 10.8
v 13.59225424 6.20565005 10.8
v 8.24707418 9.95002061 5.4
v 7.86098795 12.80557593 5.4
v 7.64826186 14.378932 5.4
v 13.59225424 9.95002061 5.4
v 13.59225424 12.80557593 5.4
v 8.24707418 9.95002061 10.8
v 7.64826186 14.378932 10.8
v 13.59225424 9.95002061 10.8
f 1 2 4
f 1 4 7
f 1 10 9
f 1 9 13
f 1 11 10
f 1 13 2
f 2 5 4
f 2 13 5
f 5 13 14
f 1 7 35
f 1 33 11
f 8 19 32
f 11 36 12
f 12 18 16
f 12 36 37
f 12 37 18
f 18 37 19
f 1 35 33
f 11 33 36
f 7 8 35
f 8 32 35
f 33 44 36
f 33 35 44
f 35 46 44
f 32 34 35
f 35 34 46
f 34 45 46
f 36 39 37
f 19 38 32
f 19 37 38
f 36 44 43
f 62 68 71
f 62 71 85
f 71 72 87
f 61 62 73
f 61 73 74
f 61 74 67
f 67 74 69
f 69 74 76
f 74 75 76
f 62 85 73
f 73 103 74
f 74 103 75
f 72 79 88
f 78 101 79
f 71 87 85
f 85 87 91
f 72 88 87
f 92 98 93
f 92 96 98
f 73 85 92
f 73 92 93
f 73 93 103
f 75 103 78
f 78 103 100
f 79 101 88
f 78 100 101
f 93 104 103
f 93 98 105
f 93 105 104
f 100 103 104
f 98 99 105
f 36 85 39
f 39 85 41
f 41 90 42
f 36 43 92
f 44 92 43
f 44 46 94
f 42 95 47
f 46 45 95
f 45 47 95
f 36 92 85
f 41 85 89
f 85 91 89
f 41 89 90
f 42 90 95
f 44 96 92
f 44 94 96
f 46 95 94
f 10 11 12
f 9 10 60
f 9 60 13
f 10 12 62
f 12 16 64
f 13 66 14
f 14 66 15
f 15 65 17
f 16 17 65
f 10 61 60
f 13 60 66
f 10 62 61
f 12 68 62
f 12 64 68
f 60 61 66
f 61 67 66
f 15 66 67
f 15 67 63
f 15 63 65
f 16 65 64
f 63 67 69
f 3 4 5
f 3 5 20
f 5 14 20
f 3 7 4
f 3 6 7
f 3 24 6
f 6 8 7
f 6 30 8
f 8 30 19
f 14 15 26
f 15 17 26
f 17 18 26
f 16 18 17
f 18 19 26
f 3 20 24
f 20 21 24
f 20 26 21
f 14 26 20
f 21 26 27
f 21 23 24
f 6 24 30
f 24 23 29
f 24 29 30
f 26 30 27
f 19 30 26
f 27 30 29
f 32 48 34
f 32 38 48
f 34 49 45
f 37 40 38
f 37 39 41
f 38 40 48
f 37 41 40
f 40 41 42
f 40 42 51
f 42 47 52
f 45 58 47
f 48 50 56
f 34 48 49
f 45 49 55
f 48 56 49
f 49 56 55
f 40 51 48
f 48 51 50
f 50 51 53
f 42 52 51
f 51 52 53
f 45 55 58
f 47 58 52
f 63 81 65
f 63 69 81
f 64 65 70
f 65 82 70
f 64 71 68
f 64 70 71
f 70 72 71
f 69 76 81
f 76 77 81
f 75 77 76
f 75 80 77
f 77 80 83
f 70 84 72
f 72 84 79
f 75 78 80
f 78 79 80
f 79 84 80
f 65 81 82
f 81 83 82
f 70 82 84
f 77 83 81
f 82 83 84
f 80 84 83
f 86 87 110
f 87 88 110
f 88 101 110
f 86 90 89
f 86 89 87
f 87 89 91
f 86 110 113
f 86 125 90
f 86 113 123
f 86 123 125
f 90 125 95
f 94 95 97
f 94 97 96
f 97 98 96
f 97 99 98
f 95 125 97
f 97 125 99
f 99 125 105
f 105 125 126
f 101 112 110
f 101 133 112
f 100 102 101
f 101 136 133
f 101 102 136
f 100 106 102
f 102 106 136
f 105 126 142
f 100 104 106
f 106 137 136
f 106 144 137
f 104 105 106
f 105 142 145
f 106 145 144
f 105 145 106
f 21 22 23
f 21 28 22
f 22 28 25
f 21 27 28
f 22 25 23
f 23 25 29
f 25 28 31
f 25 31 29
f 27 31 28
f 27 29 31
f 52 58 108
f 58 109 108
f 50 54 56
f 50 53 54
f 52 115 53
f 52 108 115
f 53 115 54
f 115 116 54
f 54 116 128
f 55 56 57
f 55 57 58
f 57 122 58
f 58 121 109
f 58 122 121
f 56 59 57
f 57 59 122
f 54 59 56
f 54 129 59
f 54 128 129
f 59 129 122
f 110 114 113
f 110 112 114
f 108 109 116
f 108 116 115
f 123 124 126
f 125 123 126
f 122 129 121
f 129 128 121
f 136 135 133
f 136 137 135
f 145 142 141
f 145 141 144
f 107 118 109
f 107 113 118
f 118 113 114
f 118 116 109
f 107 109 120
f 107 120 123
f 120 109 121
f 120 121 123
f 107 123 113
f 121 124 123
f 121 128 124
f 130 124 128
f 118 128 116
f 118 119 128
f 119 139 128
f 130 128 140
f 137 140 135
f 139 135 140
f 146 144 141
f 137 144 140
f 139 140 128
f 130 140 131
f 140 146 131
f 144 146 148
f 140 144 148
f 140 148 146
f 111 112 134
f 111 134 117
f 118 114 112
f 111 118 112
f 111 117 118
f 117 138 119
f 117 119 118
f 127 142 126
f 127 143 142
f 132 126 124
f 127 126 132
f 127 147 143
f 130 132 124
f 127 132 147
f 130 131 132
f 132 131 147
f 134 112 133
f 134 133 138
f 138 133 135
f 117 134 138
f 138 135 139
f 119 138 139
f 146 141 142
f 143 146 142
f 143 147 146
f 131 146 147
