# MAAS exact compiled indexed mesh
# program_hash e6fd1baa777ab85c89a31e4996c768b4bad9005e4285a1e3682961a200b0cd62
# geometry_hash 85891875a4afb477e604dd895cca8b0db27f19f9f33497d3ccfc6066339ee73b
v -15.27445993 -10.18297329 0
v -15.27445993 -10.18297329 5.68606684
v -15.27445993 10.18297329 0
v -15.27445993 10.18297329 5.68606684
v 15.27445993 -10.18297329 0
v 10.79973699 -10.18297329 15.2
v 15.27445993 -10.18297329 15.2
v 15.27445993 10.18297329 0
v 10.79973699 10.18297329 15.2
v 15.27445993 10.18297329 15.2
f 1 2 4
f 1 5 2
f 1 3 5
f 1 4 3
f 3 4 9
f 5 7 2
f 5 8 7
f 7 6 2
f 7 10 6
f 3 8 5
f 3 10 8
f 3 9 10
f 7 8 10
f 10 9 6
f 2 9 4
f 2 6 9
