# MAAS exact compiled indexed mesh
# program_hash c318c10f28159226489cb9c8834927c7a4291bfd9b7ac43de73e727f8b9ace4e
# geometry_hash fe2b4d4a9621e9fa30c1d72706b07ec836e1965a0fcde3d91e5b98e28655ab23
v -26.2674161 -19.46775229 0
v -26.2674161 -16.88048425 0
v -26.2674161 -19.46775229 3.54982897
v -26.2674161 -16.88048425 3.54982897
v -26.2674161 -14.29321622 0
v -26.2674161 -11.70594818 0
v -26.2674161 -14.29321622 3.54982897
v -26.2674161 -11.70594818 3.54982897
v -13.22795352 -17.98209319 0
v -13.80996219 -15.46113667 0
v -13.22795352 -17.98209319 3.54982897
v -14.39197086 -12.94018014 0
v -14.97397954 -10.41922361 0
v -26.2674161 -19.46775229 7.09965794
v -26.2674161 -16.88048425 7.09965794
v -26.2674161 -14.29321622 7.09965794
v -26.2674161 -11.70594818 7.09965794
v -13.22795352 -17.98209319 7.09965794
v -26.2674161 -9.11868014 0
v -26.2674161 -6.5314121 0
v -26.2674161 -9.11868014 3.54982897
v -26.2674161 -6.5314121 3.54982897
v -15.55598821 -7.89826709 0
v -16.13799688 -5.37731056 0
v -16.13799688 -5.37731056 3.54982897
v -26.2674161 -9.11868014 7.09965794
v -26.2674161 -6.5314121 7.09965794
v -16.13799688 -5.37731056 7.09965794
v -0.8568921 -13.60127058 0
v -1.99107575 -11.27584947 0
v -0.8568921 -13.60127058 3.54982897
v -0.8568921 -13.60127058 7.09965794
v -4.25944307 -6.62500725 0
v -3.12525941 -8.95042836 0
v -5.39362672 -4.29958615 0
v -6.52781038 -1.97416504 0
v -6.52781038 -1.97416504 3.54982897
v -6.52781038 -1.97416504 7.09965794
v -26.2674161 -19.46775229 10.64948691
v -26.2674161 -16.88048425 10.64948691
v -26.2674161 -14.29321622 10.64948691
v -26.2674161 -11.70594818 10.64948691
v -13.22795352 -17.98209319 10.64948691
v -26.2674161 -19.46775229 14.19931589
v -26.2674161 -16.88048425 14.19931589
v -26.2674161 -19.46775229 17.74914486
v -26.2674161 -16.88048425 17.74914486
v -26.2674161 -14.29321622 14.19931589
v -26.2674161 -11.70594818 14.19931589
v -26.2674161 -14.29321622 17.74914486
v -26.2674161 -11.70594818 17.74914486
v -13.22795352 -17.98209319 14.19931589
v -13.22795352 -17.98209319 17.74914486
v -13.80996219 -15.46113667 17.74914486
v -14.39197086 -12.94018014 17.74914486
v -14.97397954 -10.41922361 17.74914486
v -26.2674161 -9.11868014 10.64948691
v -26.2674161 -6.5314121 10.64948691
v -16.13799688 -5.37731056 10.64948691
v -26.2674161 -9.11868014 14.19931589
v -26.2674161 -6.5314121 14.19931589
v -26.2674161 -9.11868014 17.74914486
v -26.2674161 -6.5314121 17.74914486
v -16.13799688 -5.37731056 14.19931589
v -15.55598821 -7.89826709 17.74914486
v -16.13799688 -5.37731056 17.74914486
v -8.93092065 -16.46043404 9.22955533
v -0.8568921 -13.60127058 9.22955533
v -8.93092065 -16.46043404 17.74914486
v -8.93092065 -2.82515102 9.22955533
v -6.52781038 -1.97416504 9.22955533
v -8.93092065 -2.82515102 17.74914486
v 5.32696756 -0.51779014 0
v 10.21162916 -6.54984486 0
v 10.21162916 -6.54984486 3.54982897
v 6.95518809 -2.52847504 0
v 8.58340862 -4.53915995 0
v 10.21162916 -6.54984486 7.09965794
v 8.93092315 -7.36574457 9.22955533
v 10.21162916 -6.54984486 10.64948691
v 10.21162916 -6.54984486 14.19931589
v 8.93092315 -7.36574457 17.74914486
v 10.21162916 -6.54984486 17.74914486
v 2.07052649 3.50357967 0
v 3.69874702 1.49289477 0
v 2.07052649 3.50357967 3.54982897
v 11.25505913 9.18225383 0
v 2.07052649 3.50357967 7.09965794
v 9.2162641 10.77513509 0
v 9.2162641 10.77513509 3.54982897
v 9.2162641 10.77513509 7.09965794
v 17.37144424 4.40361006 0
v 19.41023928 2.81072881 0
v 19.41023928 2.81072881 3.54982897
v 15.3326492 5.99649132 0
v 13.29385417 7.58937258 0
v 19.41023928 2.81072881 7.09965794
v 14.54311285 19.46776222 0
v 16.88797402 18.3743355 0
v 19.23283519 17.28090878 0
v 14.54311285 19.46776222 3.54982897
v 16.88797402 18.3743355 3.54982897
v 19.23283519 17.28090878 3.54982897
v 26.2674187 14.00062862 0
v 26.2674187 14.00062862 3.54982897
v 21.57769636 16.18748206 0
v 23.92255753 15.09405534 0
v 21.57769636 16.18748206 3.54982897
v 23.92255753 15.09405534 3.54982897
v 14.54311285 19.46776222 7.09965794
v 16.88797402 18.3743355 7.09965794
v 19.23283519 17.28090878 7.09965794
v 26.2674187 14.00062862 7.09965794
v 21.57769636 16.18748206 7.09965794
v 23.92255753 15.09405534 7.09965794
v 2.07052649 3.50357967 9.22955533
v 11.25505913 9.18225383 17.74914486
v 8.93092315 10.48477004 9.22955533
v 9.2162641 10.77513509 10.64948691
v 9.2162641 10.77513509 14.19931589
v 8.93092315 10.48477004 17.74914486
v 9.2162641 10.77513509 17.74914486
v 19.41023928 2.81072881 10.64948691
v 19.41023928 2.81072881 14.19931589
v 17.37144424 4.40361006 17.74914486
v 19.41023928 2.81072881 17.74914486
v 15.3326492 5.99649132 17.74914486
v 13.29385417 7.58937258 17.74914486
v 14.54311285 19.46776222 10.64948691
v 16.88797402 18.3743355 10.64948691
v 19.23283519 17.28090878 10.64948691
v 26.2674187 14.00062862 10.64948691
v 21.57769636 16.18748206 10.64948691
v 23.92255753 15.09405534 10.64948691
v 14.54311285 19.46776222 14.19931589
v 16.88797402 18.3743355 14.19931589
v 19.23283519 17.28090878 14.19931589
v 14.54311285 19.46776222 17.74914486
v 16.88797402 18.3743355 17.74914486
v 19.23283519 17.28090878 17.74914486
v 26.2674187 14.00062862 14.19931589
v 26.2674187 14.00062862 17.74914486
v 21.57769636 16.18748206 14.19931589
v 23.92255753 15.09405534 14.19931589
v 21.57769636 16.18748206 17.74914486
v 23.92255753 15.09405534 17.74914486
f 1 4 2
f 2 7 5
f 1 2 9
f 1 9 3
f 2 5 10
f 1 3 4
f 2 4 7
f 5 8 6
f 6 21 19
f 5 6 12
f 6 19 13
f 5 7 8
f 6 8 21
f 2 10 9
f 3 9 11
f 5 12 10
f 6 13 12
f 3 15 4
f 3 14 15
f 4 16 7
f 4 15 16
f 3 11 14
f 14 40 15
f 15 41 16
f 14 18 39
f 7 17 8
f 7 16 17
f 8 26 21
f 8 17 26
f 16 42 17
f 17 57 26
f 11 18 14
f 19 22 20
f 19 20 23
f 19 21 22
f 20 22 25
f 13 19 23
f 20 24 23
f 20 25 24
f 21 27 22
f 21 26 27
f 22 27 28
f 26 58 27
f 22 28 25
f 27 59 28
f 9 10 29
f 9 29 11
f 10 12 30
f 12 13 34
f 11 29 31
f 10 30 29
f 12 34 30
f 11 31 18
f 18 32 67
f 18 31 32
f 32 68 67
f 13 23 33
f 23 24 35
f 13 33 34
f 23 35 33
f 24 36 35
f 24 37 36
f 24 25 37
f 33 76 34
f 33 35 73
f 35 36 85
f 36 37 86
f 25 28 38
f 25 38 37
f 28 70 38
f 38 70 71
f 37 38 88
f 38 71 116
f 14 39 40
f 15 40 41
f 39 45 40
f 39 44 45
f 40 48 41
f 40 45 48
f 39 43 44
f 16 41 42
f 17 42 57
f 41 49 42
f 41 48 49
f 42 60 57
f 42 49 60
f 18 43 39
f 43 52 44
f 44 47 45
f 45 50 48
f 44 52 46
f 44 46 47
f 45 47 50
f 46 53 47
f 47 54 50
f 48 51 49
f 49 62 60
f 48 50 51
f 49 51 62
f 50 55 51
f 51 56 62
f 46 52 53
f 47 53 54
f 50 54 55
f 51 55 56
f 26 57 58
f 27 58 59
f 57 61 58
f 57 60 61
f 58 61 64
f 58 64 59
f 28 59 70
f 59 64 70
f 60 63 61
f 60 62 63
f 62 65 63
f 61 63 66
f 61 66 64
f 56 65 62
f 63 65 66
f 56 72 65
f 65 72 66
f 64 66 70
f 18 69 43
f 18 67 69
f 43 69 52
f 52 69 53
f 53 69 54
f 54 72 55
f 54 69 72
f 55 72 56
f 66 72 70
f 36 84 85
f 36 86 84
f 37 88 86
f 38 116 88
f 29 30 74
f 29 74 31
f 31 75 32
f 32 78 68
f 30 34 77
f 30 77 74
f 34 76 77
f 31 74 75
f 33 73 76
f 35 85 73
f 74 77 93
f 76 92 77
f 32 75 78
f 78 79 68
f 74 93 75
f 75 93 94
f 75 94 78
f 78 94 97
f 78 97 80
f 78 80 79
f 80 81 79
f 81 83 79
f 83 82 79
f 83 126 82
f 80 97 123
f 80 123 81
f 81 123 124
f 81 124 83
f 83 124 126
f 125 82 126
f 84 87 85
f 84 86 90
f 73 95 76
f 73 85 96
f 73 96 95
f 85 87 96
f 84 89 87
f 84 90 89
f 86 88 91
f 88 116 118
f 86 91 90
f 88 118 91
f 87 89 99
f 89 90 101
f 89 101 98
f 90 91 110
f 90 110 101
f 91 129 110
f 77 92 93
f 76 95 92
f 92 95 107
f 92 104 93
f 93 104 94
f 94 105 97
f 97 113 123
f 87 100 96
f 95 96 106
f 96 100 106
f 89 98 99
f 87 99 100
f 98 102 99
f 99 103 100
f 98 101 102
f 99 102 103
f 92 107 104
f 95 106 107
f 104 107 105
f 94 104 105
f 100 108 106
f 106 109 107
f 100 103 108
f 106 108 109
f 105 107 109
f 101 111 102
f 101 110 111
f 102 112 103
f 102 111 112
f 110 130 111
f 111 131 112
f 97 105 113
f 105 109 113
f 113 115 132
f 103 114 108
f 103 112 114
f 108 114 115
f 108 115 109
f 109 115 113
f 112 133 114
f 114 134 115
f 117 121 82
f 127 128 82
f 117 82 128
f 91 118 119
f 91 119 129
f 119 118 121
f 119 120 135
f 119 135 129
f 119 121 120
f 120 121 122
f 117 122 121
f 120 122 138
f 117 139 122
f 120 138 135
f 123 132 124
f 125 127 82
f 125 146 127
f 124 141 126
f 125 126 142
f 110 129 130
f 111 130 131
f 129 136 130
f 129 135 136
f 130 137 131
f 130 136 137
f 113 132 123
f 124 132 141
f 132 134 141
f 112 131 133
f 114 133 134
f 115 134 132
f 131 143 133
f 131 137 143
f 133 143 144
f 133 144 134
f 134 144 141
f 117 128 140
f 127 145 128
f 128 145 140
f 135 139 136
f 136 140 137
f 122 139 138
f 117 140 139
f 135 138 139
f 136 139 140
f 141 144 142
f 125 142 146
f 127 146 145
f 126 141 142
f 137 145 143
f 143 146 144
f 137 140 145
f 143 145 146
f 142 144 146
f 69 67 70
f 67 68 70
f 68 71 70
f 71 68 116
f 69 70 72
f 68 79 116
f 82 118 79
f 118 116 79
f 121 118 82
