# MAAS exact compiled indexed mesh
# program_hash f6ef506b8ea0881e836748b263699575c72698ca0c79def67d1706c0dceeda5d
# geometry_hash 6de5f1f4d2ccfc107839c81527bbdf0bd5f2b03c52e1f313db8a4b3866eee456
v -16.47896511 -11.16438359 0
v -16.47896511 -11.16438359 4.75306527
v -3.28266371 -11.16438359 0
v -3.28266371 -7.68138124 0.396
v -7.54745824 -11.16438359 4.75306527
v -3.28266371 -11.16438359 4.75093473
v -3.28266371 -11.16438359 4.75306527
v -3.28266371 -7.68138124 4.75093473
v -7.54745824 -11.16438359 9.9
v -16.47896511 11.16438359 0
v -16.47896511 11.16438359 4.75306527
v -1.01213894 2.31053727 0.396
v -3.28266371 3.89285749 0.396
v -3.28266371 7.68138124 0.396
v -3.28266371 11.16438359 0
v -7.54745824 11.16438359 4.75306527
v -3.28266371 7.68138124 4.75093473
v -3.28266371 11.16438359 4.75093473
v -3.28266371 11.16438359 4.75306527
v -7.54745824 11.16438359 9.9
v 3.18170367 -9.78178153 0.396
v 3.18170367 -9.78178153 4.75093473
v 5.64884316 -11.16438359 4.75093473
v 5.64884316 -7.68138124 4.75093473
v 4.89222254 -4.51734575 0.396
v 7.54745175 -3.65460948 0.396
v 5.61101926 -2.30511692 0.396
v 4.89222254 -4.51734575 4.75093473
v 7.54745175 -3.65460948 4.75093473
v 12.11321054 -9.78178153 4.75093473
v 13.82372942 -4.51734575 4.75093473
v 16.47895862 -3.65460948 4.75093473
v 5.64884316 -11.16438359 9.9
v 5.64884316 -7.68138124 9.504
v 5.64884316 -3.89285749 9.504
v 7.91936793 -2.31053727 9.504
v 12.11321054 -9.78178153 9.504
v 13.82372942 -4.51734575 9.504
v 16.47895862 -3.65460948 9.504
v 6.35999715 0 0.396
v 4.89222254 4.51734575 0.396
v 7.54745175 3.65460948 0.396
v 6.35999715 0 4.75093473
v 4.89222254 4.51734575 4.75093473
v 7.54745175 3.65460948 4.75093473
v 3.18170367 9.78178153 0.396
v 3.18170367 9.78178153 4.75093473
v 5.64884316 7.68138124 4.75093473
v 5.64884316 11.16438359 4.75093473
v 15.29150402 0 4.75093473
v 13.82372942 4.51734575 4.75093473
v 16.47895862 3.65460948 4.75093473
v 12.11321054 9.78178153 4.75093473
v 5.64884316 7.68138124 9.504
v 5.64884316 11.16438359 9.9
v 15.29150402 0 9.504
v 14.54252614 2.30511692 9.504
v 13.82372942 4.51734575 9.504
v 16.47895862 3.65460948 9.504
v 12.11321054 9.78178153 9.504
f 31 32 38
f 32 50 39
f 36 38 57
f 32 39 38
f 39 50 56
f 38 39 56
f 38 56 57
f 35 36 54
f 48 54 60
f 36 57 58
f 36 60 54
f 36 58 60
f 48 60 53
f 51 53 58
f 53 60 58
f 24 30 34
f 34 36 35
f 30 31 37
f 30 37 34
f 34 37 36
f 31 38 37
f 36 37 38
f 50 52 56
f 51 59 52
f 52 59 56
f 57 56 59
f 51 58 59
f 57 59 58
f 23 7 6
f 9 5 7
f 9 7 23
f 9 20 5
f 49 18 19
f 20 16 5
f 9 55 20
f 55 19 16
f 20 55 16
f 9 23 33
f 9 33 55
f 49 19 55
f 13 14 12
f 12 14 46
f 14 17 46
f 25 27 26
f 25 26 29
f 26 27 40
f 26 40 43
f 25 29 28
f 26 43 29
f 12 46 41
f 41 46 47
f 46 17 47
f 41 47 44
f 4 22 8
f 4 12 21
f 4 13 12
f 4 21 22
f 21 25 28
f 21 28 22
f 21 12 25
f 25 12 27
f 27 12 40
f 12 41 40
f 40 41 42
f 40 42 45
f 41 44 42
f 40 45 43
f 42 44 45
f 1 3 2
f 2 6 5
f 1 10 3
f 1 2 11
f 2 3 6
f 6 7 5
f 1 11 10
f 11 16 10
f 10 16 19
f 10 15 3
f 10 18 15
f 10 19 18
f 23 24 33
f 24 34 33
f 33 34 55
f 34 35 55
f 35 54 55
f 48 49 54
f 49 55 54
f 3 4 6
f 4 8 6
f 3 13 4
f 3 14 13
f 3 15 14
f 14 15 18
f 14 18 17
f 22 6 8
f 49 17 18
f 23 6 22
f 23 22 28
f 23 28 24
f 24 28 29
f 24 29 30
f 30 29 31
f 31 29 43
f 31 43 45
f 31 50 32
f 49 47 17
f 44 47 45
f 48 45 47
f 48 47 49
f 31 45 48
f 31 48 50
f 48 51 50
f 50 51 52
f 48 53 51
f 2 5 11
f 11 5 16
