# MAAS exact compiled indexed mesh
# program_hash cb705546f031c52eca2995c4061d249f11936c1dd645056c613118f5a7e6043d
# geometry_hash bb64766bdf126b1202e7688022ac06f9d22975abf438c1bef416c7f976c4fc9d
v -13.67597959 -16.41117551 0
v -13.67597959 -16.41117551 5.30526316
v -2.73519592 -16.41117551 0
v -2.73519592 -16.41117551 5.30526316
v -15.38547704 2.05139694 4.92631579
v -13.67597959 2.05139694 4.92631579
v -13.67597959 2.05139694 5.30526316
v -13.67597959 16.41117551 0
v -15.38547704 12.99218061 4.92631579
v -13.67597959 12.99218061 4.92631579
v -13.67597959 12.99218061 5.30526316
v -13.67597959 16.41117551 5.30526316
v -2.73519592 2.05139694 4.92631579
v -2.73519592 2.05139694 5.30526316
v -2.73519592 16.41117551 0
v -2.73519592 12.99218061 4.92631579
v -2.73519592 12.99218061 5.30526316
v -2.73519592 16.41117551 5.30526316
v -15.38547704 2.05139694 10.23157895
v -11.62458265 0 9.85263158
v -11.62458265 2.05139694 9.85263158
v -11.62458265 2.05139694 10.23157895
v -11.62458265 0 14.4
v -15.38547704 12.99218061 10.23157895
v -11.62458265 12.99218061 9.85263158
v -11.62458265 12.99218061 10.23157895
v -11.62458265 15.04357755 9.85263158
v -11.62458265 15.04357755 14.4
v -0.68379898 0 9.85263158
v -0.68379898 2.05139694 9.85263158
v -0.68379898 2.05139694 10.23157895
v -0.68379898 0 14.4
v -0.68379898 12.99218061 9.85263158
v -0.68379898 12.99218061 10.23157895
v -0.68379898 15.04357755 9.85263158
v -0.68379898 15.04357755 14.4
v -0 -8.20558776 0
v -0 -8.20558776 5.30526316
v 12.30838163 -8.20558776 0
v 12.30838163 -8.20558776 5.30526316
v -0 2.05139694 4.92631579
v -0 2.05139694 5.30526316
v -0 16.41117551 0
v -0 12.99218061 4.92631579
v -0 12.99218061 5.30526316
v -0 16.41117551 5.30526316
v 12.30838163 2.05139694 4.92631579
v 12.30838163 2.05139694 5.30526316
v 15.38547704 2.05139694 4.92631579
v 12.30838163 16.41117551 0
v 12.30838163 12.99218061 4.92631579
v 12.30838163 12.99218061 5.30526316
v 12.30838163 16.41117551 5.30526316
v 15.38547704 12.99218061 4.92631579
v 15.38547704 2.05139694 10.23157895
v 15.38547704 12.99218061 10.23157895
f 1 2 6
f 1 3 2
f 2 4 7
f 1 6 10
f 1 8 3
f 2 7 6
f 3 4 2
f 3 15 4
f 4 14 7
f 4 13 14
f 1 12 8
f 1 10 12
f 8 12 18
f 10 11 12
f 11 17 12
f 3 8 15
f 4 15 13
f 8 18 15
f 13 15 16
f 15 18 16
f 12 17 18
f 16 18 17
f 37 39 38
f 37 38 41
f 38 42 41
f 38 40 42
f 39 40 38
f 40 48 42
f 40 47 48
f 37 41 44
f 37 44 46
f 37 43 39
f 37 46 43
f 43 46 53
f 44 45 46
f 45 52 46
f 39 50 40
f 40 50 47
f 39 43 50
f 43 53 50
f 47 50 51
f 50 53 51
f 46 52 53
f 51 53 52
f 5 6 7
f 5 7 19
f 5 10 6
f 7 14 19
f 5 9 10
f 5 24 9
f 9 11 10
f 9 24 11
f 11 24 17
f 19 14 42
f 13 41 14
f 14 41 42
f 19 42 48
f 13 44 41
f 13 16 44
f 16 17 45
f 16 45 44
f 19 21 22
f 5 19 24
f 19 22 26
f 19 26 24
f 24 26 25
f 24 25 17
f 19 49 21
f 17 25 33
f 19 48 49
f 17 56 45
f 47 49 48
f 47 54 49
f 49 54 55
f 45 56 52
f 47 51 54
f 51 52 54
f 54 52 56
f 49 30 21
f 55 31 30
f 56 34 31
f 17 33 56
f 56 33 34
f 49 55 30
f 55 56 31
f 54 56 55
f 20 22 21
f 20 21 29
f 20 28 22
f 20 23 28
f 20 29 23
f 23 32 28
f 27 25 26
f 27 33 25
f 28 26 22
f 27 26 28
f 27 28 36
f 29 21 30
f 29 30 31
f 23 29 32
f 29 31 32
f 32 31 34
f 27 35 33
f 35 34 33
f 28 32 36
f 27 36 35
f 32 34 35
f 32 35 36
