# MAAS exact compiled indexed mesh
# program_hash 2acb8e7ee85bc66af94a4aa752b8da3e3f582725540d3a7fef8ce71e88f6fa03
# geometry_hash 319e6e674ded4212f6b13c1cba9f8f5175b2add590d1914fff7056c2cee4a4fc
v -19.61878273 -11.39106118 0
v -19.63108533 -9.87146807 0
v -19.63108533 -9.87146807 0.96548891
v -19.64338793 -8.35187496 0
v -19.64338793 -8.35187496 0.96548891
v -19.65569053 -6.83228184 0
v -19.65569053 -6.83228184 0.96548891
v -19.64338793 -8.35187496 1.93097781
v -19.65569053 -6.83228184 1.93097781
v -19.61878273 -11.39106118 2
v -19.637071 -9.13213025 2
v -19.64937359 -7.61253714 2.96548891
v -19.65569053 -6.83228184 2.89646672
v -19.66167619 -6.09294403 3.93097781
v -22.31547491 -5.32340554 0
v -21.65359769 -5.32273573 0
v -20.99172317 -5.32072632 0
v -20.32985408 -5.31737732 0
v -19.66799312 -5.31268873 0
v -22.31547491 -5.32340554 0.96548891
v -21.65359769 -5.32273573 0.96548891
v -20.99172317 -5.32072632 0.96548891
v -20.32985408 -5.31737732 0.96548891
v -19.66799312 -5.31268873 0.96548891
v -21.49588825 -4.10862159 0
v -22.31547491 -3.3702904 0
v -20.83647137 -4.10629548 0
v -20.17706054 -4.10263474 0
v -20.68241326 -2.89179131 0
v -20.02546085 -2.88782125 0
v -22.31547491 -3.3702904 0.96548891
v -19.01215965 -4.71213699 0
v -19.01362504 -4.56733639 0
v -19.51765847 -4.09763939 0
v -18.35874628 -4.11027249 0
v -18.36050474 -3.96547516 0
v -18.3622632 -3.82067783 0
v -18.86611335 -3.35198904 0
v -19.36851781 -2.88252156 0
v -17.70775563 -3.50710259 0
v -17.70980715 -3.36230911 0
v -17.71185868 -3.21751563 0
v -17.7139102 -3.07272216 0
v -17.05919031 -2.90263461 0
v -22.31547491 -5.32340554 1.93097781
v -21.65359769 -5.32273573 1.93097781
v -20.99172317 -5.32072632 1.93097781
v -20.32985408 -5.31737732 1.93097781
v -19.66799312 -5.31268873 1.93097781
v -22.31547491 -3.3702904 1.93097781
v -21.5008014 -2.15551264 0
v -19.87505503 -1.67293774 0
v -22.31547491 -1.41717527 0
v -21.50571455 -0.20240369 0
v -20.69223953 -0.93870089 0
v -22.31547491 -1.41717527 0.96548891
v -18.21757505 -2.60503891 0
v -18.71979578 -2.13657579 0
v -19.22057117 -1.66733613 0
v -17.06153489 -2.75784558 0
v -17.06387946 -2.61305655 0
v -17.06622403 -2.46826753 0
v -17.0685686 -2.3234785 0
v -17.57204617 -1.85679812 0
v -17.07624942 -1.84914964 0
v -17.0685686 -2.3234785 0.96548891
v -17.07624942 -1.84914964 0.96548891
v -18.57467235 -0.92109753 0
v -19.07381857 -0.45208397 0
v -18.58017258 -0.44673838 0
v -18.07408115 -1.3893367 0
v -17.57900014 -1.38245805 0
v -18.08030826 -0.91498653 0
v -17.58595411 -0.90811798 0
v -17.08393024 -1.37482078 0
v -17.09161106 -0.90049192 0
v -18.08653536 -0.44063636 0
v -17.59290807 -0.43377791 0
v -17.09929188 -0.42616307 0
v -17.08393024 -1.37482078 0.96548891
v -17.09161106 -0.90049192 0.96548891
v -17.09929188 -0.42616307 0.96548891
v -22.31547491 -1.41717527 1.93097781
v -17.0685686 -2.3234785 1.93097781
v -17.07624942 -1.84914964 1.93097781
v -17.08393024 -1.37482078 1.93097781
v -17.09161106 -0.90049192 1.93097781
v -17.09929188 -0.42616307 1.93097781
v -22.31547491 -5.32340554 2.89646672
v -21.65359769 -5.32273573 2.89646672
v -20.99172317 -5.32072632 2.89646672
v -20.32985408 -5.31737732 2.89646672
v -19.66799312 -5.31268873 2.89646672
v -22.31547491 -3.3702904 2.89646672
v -22.31547491 -5.32340554 3.86195563
v -21.65359769 -5.32273573 3.86195563
v -20.99172317 -5.32072632 3.86195563
v -21.65509412 -4.5833752 3.86195563
v -20.99471603 -4.58137034 3.86195563
v -20.32985408 -5.31737732 3.86195563
v -19.66799312 -5.31268873 3.86195563
v -20.33434335 -4.5780289 3.86195563
v -19.67397879 -4.57335091 3.86195563
v -21.65605426 -4.10898513 3.86195563
v -20.99770889 -3.84201435 3.86195563
v -22.31547491 -3.3702904 3.86195563
v -20.99962917 -3.36762719 3.86195563
v -21.00154945 -2.89324004 3.86195563
v -20.33883262 -3.83868049 3.86195563
v -19.67996445 -3.8340131 3.86195563
v -20.34332189 -3.09933207 3.86195563
v -19.68595012 -3.09467528 3.86195563
v -22.31547491 -1.41717527 2.89646672
v -17.0685686 -2.3234785 2.89646672
v -17.07624942 -1.84914964 2.89646672
v -17.08393024 -1.37482078 2.89646672
v -17.09161106 -0.90049192 2.89646672
v -17.09929188 -0.42616307 2.89646672
v -21.66000727 -2.155874 3.86195563
v -20.34620231 -2.62494977 3.86195563
v -20.34908272 -2.15056747 3.86195563
v -19.69193578 -2.35533746 3.86195563
v -20.35196314 -1.67618518 3.86195563
v -19.69577632 -1.88096197 3.86195563
v -22.31547491 -1.41717527 3.86195563
v -21.00945545 -0.94014091 3.86195563
v -21.66396028 -0.20276286 3.86195563
v -19.69961685 -1.40658647 3.86195563
v -19.70345739 -0.93221098 3.86195563
v -19.70729792 -0.45783548 3.86195563
v -19.03607115 -2.34936383 3.86195563
v -18.38021995 -2.34206277 3.86195563
v -19.04087179 -1.87499708 3.86195563
v -18.38598068 -1.86770671 3.86195563
v -17.72438487 -2.33343431 3.86195563
v -17.0685686 -2.3234785 3.86195563
v -17.73110566 -1.85909088 3.86195563
v -17.07624942 -1.84914964 3.86195563
v -19.04567243 -1.40063033 3.86195563
v -19.05047307 -0.92626358 3.86195563
v -18.3917414 -1.39335064 3.86195563
v -18.39750212 -0.91899458 3.86195563
v -19.05527371 -0.45189683 3.86195563
v -18.40326285 -0.44463852 3.86195563
v -17.73782644 -1.38474745 3.86195563
v -17.74454723 -0.91040402 3.86195563
v -17.08393024 -1.37482078 3.86195563
v -17.09161106 -0.90049192 3.86195563
v -17.75126801 -0.43606059 3.86195563
v -17.09929188 -0.42616307 3.86195563
v -9.10500433 -11.13991682 0
v -9.16527191 -9.62146946 0
v -9.22553948 -8.10302209 0
v -9.28580706 -6.58457473 0
v -8.64618577 -5.96349361 0
v -9.10500433 -11.13991682 2
v -8.00902508 -5.34117057 0
v -7.37432739 -4.71761303 0
v -7.47762117 -2.46097088 0
v -7.48424257 -2.31631433 0
v -7.49086396 -2.17165779 0
v -7.49748536 -2.02700124 0
v -7.49748536 -2.02700124 0.96548891
v -7.58425214 -0.13142183 0
v -7.58425214 -0.13142183 0.96548891
v -7.49748536 -2.02700124 1.93097781
v -7.58425214 -0.13142183 1.93097781
v -7.49748536 -2.02700124 2.89646672
v -7.58425214 -0.13142183 2.89646672
v -8.23565122 -0.16057792 3.93097781
v -19.61878273 -11.39106118 4
v -19.637071 -9.13213025 4
v -19.65535926 -6.87319932 4
v -19.61878273 -11.39106118 6
v -19.637071 -9.13213025 6
v -19.61878273 -11.39106118 8
v -19.637071 -9.13213025 8
v -19.65535926 -6.87319932 6
v -19.65535926 -6.87319932 8
v -19.66766186 -5.35360621 4.96548891
v -19.67397879 -4.57335091 4.89646672
v -19.67996445 -3.8340131 4.89646672
v -19.68595012 -3.09467528 4.89646672
v -19.67996445 -3.8340131 5.93097781
v -19.68595012 -3.09467528 5.93097781
v -19.69193578 -2.35533746 4.89646672
v -19.70729792 -0.45783548 4.89646672
v -19.03607115 -2.34936383 4.89646672
v -18.38021995 -2.34206277 4.89646672
v -17.72438487 -2.33343431 4.89646672
v -19.05527371 -0.45189683 4.89646672
v -18.40326285 -0.44463852 4.89646672
v -17.75126801 -0.43606059 4.89646672
v -19.69193578 -2.35533746 5.93097781
v -19.70729792 -0.45783548 5.93097781
v -19.03607115 -2.34936383 5.93097781
v -18.38021995 -2.34206277 5.93097781
v -19.05527371 -0.45189683 5.93097781
v -18.40326285 -0.44463852 5.93097781
v -19.67364752 -4.61426839 6
v -19.68595012 -3.09467528 6.96548891
v -19.67364752 -4.61426839 8
v -19.69193578 -2.35533746 6.96548891
v -19.70729792 -0.45783548 6.96548891
v -19.03607115 -2.34936383 6.96548891
v -19.05527371 -0.45189683 6.96548891
v -19.69193578 -2.35533746 8
v -19.70729792 -0.45783548 8
v -9.10500433 -11.13991682 4
v -9.10500433 -11.13991682 6
v -9.10500433 -11.13991682 8
v -9.19459429 -8.88268909 8
v -9.28418426 -6.62546136 8
v -8.88710798 -0.18841554 4.96548891
v -7.49748536 -2.02700124 4.89646672
v -8.15272118 -2.05632905 5.93097781
v -9.37377422 -4.36823362 8
v -8.80801502 -2.08433064 6.96548891
v -9.53861975 -0.21493459 6
v -9.46336418 -2.11100589 8
v -9.53861975 -0.21493459 8
v -22.31547491 0.53593986 0
v -19.88979435 0.28012177 0
v -20.7020658 1.01438952 0
v -20.05301925 1.0183118 0
v -22.31547491 0.53593986 0.96548891
v -21.5106277 1.75070527 0
v -22.31547491 2.489055 0
v -21.66940971 2.4897088 0
v -21.02334716 2.4916702 0
v -20.86306977 1.75298955 0
v -20.21551778 1.75658446 0
v -19.5679744 1.76148997 0
v -20.3772899 2.4949392 0
v -19.73124058 2.49951578 0
v -22.31547491 2.489055 0.96548891
v -21.66940971 2.4897088 0.96548891
v -21.02334716 2.4916702 0.96548891
v -20.3772899 2.4949392 0.96548891
v -19.73124058 2.49951578 0.96548891
v -19.23926335 0.28568956 0
v -18.7467477 0.29078076 0
v -18.25424043 0.29662666 0
v -19.40398198 1.02354771 0
v -18.91259679 1.02838564 0
v -18.4212196 1.03397654 0
v -17.76174269 0.30322726 0
v -19.07771981 1.76607574 0
v -22.31547491 0.53593986 1.93097781
v -22.31547491 2.489055 1.93097781
v -21.66940971 2.4897088 1.93097781
v -21.02334716 2.4916702 1.93097781
v -20.3772899 2.4949392 1.93097781
v -19.73124058 2.49951578 1.93097781
v -19.74354318 4.0191089 0
v -19.74354318 4.0191089 0.96548891
v -19.75584578 5.53870201 0
v -19.75584578 5.53870201 0.96548891
v -19.74354318 4.0191089 1.93097781
v -19.75584578 5.53870201 1.93097781
v -22.31547491 0.53593986 2.89646672
v -22.31547491 2.489055 2.89646672
v -21.66940971 2.4897088 2.89646672
v -21.02334716 2.4916702 2.89646672
v -20.3772899 2.4949392 2.89646672
v -19.73124058 2.49951578 2.89646672
v -22.31547491 0.53593986 3.86195563
v -21.01736145 1.01295823 3.86195563
v -20.36382209 0.27689395 3.86195563
v -19.71328359 0.28150233 3.86195563
v -20.36831136 1.01624237 3.86195563
v -19.71926925 1.02084015 3.86195563
v -21.66791328 1.75034827 3.86195563
v -21.02035431 1.75231422 3.86195563
v -22.31547491 2.489055 3.86195563
v -21.66940971 2.4897088 3.86195563
v -21.02334716 2.4916702 3.86195563
v -20.37280063 1.75559079 3.86195563
v -19.72525492 1.76017797 3.86195563
v -20.3772899 2.4949392 3.86195563
v -19.73124058 2.49951578 3.86195563
v -19.74354318 4.0191089 2.89646672
v -19.75584578 5.53870201 3.93097781
v -19.76814838 7.05829512 0
v -19.76814838 7.05829512 0.96548891
v -19.78045097 8.57788823 0
v -19.76814838 7.05829512 2.96548891
v -19.78045097 8.57788823 2
v -8.94874315 1.28902348 0
v -9.62658691 2.00140651 0
v -8.26796387 0.57807771 0
v -9.68685449 3.51985388 0
v -9.74712207 5.03830124 0
v -9.80738964 6.55674861 0
v -9.8969796 8.81397634 0
v -0.02588714 9.36195207 0
v -9.8969796 8.81397634 2
v -0.02588714 9.36195207 2
v -19.71328359 0.28150233 4.89646672
v -19.71926925 1.02084015 4.89646672
v -19.72525492 1.76017797 4.89646672
v -19.71328359 0.28150233 5.93097781
v -19.71926925 1.02084015 5.93097781
v -19.74354318 4.0191089 4.89646672
v -19.73755752 3.27977108 5.93097781
v -19.75584578 5.53870201 5.93097781
v -19.71328359 0.28150233 6.96548891
v -19.73157185 2.54043326 6.96548891
v -19.72558619 1.80109545 8
v -19.74986011 4.79936419 6.96548891
v -19.74387445 4.06002637 8
v -19.76814838 7.05829512 4.96548891
v -19.78045097 8.57788823 4
v -19.76814838 7.05829512 6.96548891
v -19.76216271 6.3189573 8
v -19.78045097 8.57788823 6
v -19.78045097 8.57788823 8
v -9.62820972 2.04229314 8
v -9.71779968 4.29952087 8
v -9.8969796 8.81397634 4
v -0.02588714 9.36195207 4
v -9.80738964 6.55674861 8
v -9.8969796 8.81397634 6
v -9.8969796 8.81397634 8
v -0.02588714 9.36195207 6
v -0.02588714 9.36195207 8
v 1.39560572 -10.55699457 0
v 1.28743324 -9.04120656 0
v 1.17926076 -7.52541855 0
v 1.80202438 -6.88423312 0
v 2.42228897 -6.24187787 0
v 1.39560572 -10.55699457 2
v 2.25236692 -3.98927273 0
v 2.08244487 -1.73666759 0
v 2.07155243 -1.59226983 0
v 2.06065999 -1.44787206 0
v 2.06065999 -1.44787206 0.96548891
v 2.06065999 -1.44787206 1.93097781
v 2.06065999 -1.44787206 3.93097781
v 11.87258029 -9.64287548 0
v 11.71661073 -8.13125778 0
v 12.32188189 -7.4704135 0
v 22.3154758 -8.39847076 0
v 22.01280034 -6.1598348 0
v 11.87258029 -9.64287548 2
v 22.3154758 -8.39847076 2
v 22.01280034 -6.1598348 2
v 12.08547993 -5.22381218 0
v 11.84907797 -2.97721085 0
v 11.61267602 -0.73060953 0
v 11.59752204 -0.58659662 0
v 11.59752204 -0.58659662 0.96548891
v 21.71012488 -3.92119883 0
v 21.40744943 -1.68256287 0
v 11.59752204 -0.58659662 2.96548891
v 21.71012488 -3.92119883 2
v 21.40744943 -1.68256287 2
v 1.39560572 -10.55699457 4
v 1.39560572 -10.55699457 6
v 1.39560572 -10.55699457 8
v 1.23480336 -8.30372006 8
v 1.074001 -6.05044556 8
v 2.06065999 -1.44787206 5.93097781
v 0.91319864 -3.79717105 8
v 1.40657672 -1.49654627 6.96548891
v 0.75239628 -1.54389654 8
v 10.94516242 -0.65457472 8
v 11.87258029 -9.64287548 4
v 22.3154758 -8.39847076 4
v 22.01280034 -6.1598348 4
v 11.87258029 -9.64287548 6
v 11.87258029 -9.64287548 8
v 11.64072582 -7.39580029 8
v 22.3154758 -8.39847076 6
v 22.01280034 -6.1598348 6
v 22.3154758 -8.39847076 8
v 22.01280034 -6.1598348 8
v 11.59752204 -0.58659662 4.96548891
v 21.71012488 -3.92119883 4
v 21.40744943 -1.68256287 4
v 11.40887135 -5.1487251 8
v 11.17701689 -2.90164991 8
v 11.59752204 -0.58659662 6.96548891
v 21.71012488 -3.92119883 6
v 21.71012488 -3.92119883 8
v 21.40744943 -1.68256287 6
v 21.40744943 -1.68256287 8
v 1.21354978 1.13330552 0
v 1.91792547 0.44431625 0
v 1.91792547 0.44431625 0.96548891
v 0.51206254 1.82382703 0
v 1.91792547 0.44431625 1.93097781
v 0.40389006 3.33961505 0
v 0.29571758 4.85540306 0
v 10.67451976 1.96842593 0
v 10.5185502 3.48004363 0
v 1.26767219 0.39592706 2.96548891
v 10.75040467 1.23296844 2
v 0.13491522 7.10867756 0
v 10.28669574 5.72711882 0
v 10.05484127 7.97419401 0
v 9.82298681 10.2212692 0
v 9.82298681 10.2212692 2
v 11.3989444 1.30054849 0
v 11.3989444 1.30054849 0.96548891
v 21.10477397 0.55607309 0
v 20.85052658 2.4365273 0
v 20.54785113 4.67516326 0
v 21.10477397 0.55607309 2
v 20.85052658 2.4365273 2
v 20.54785113 4.67516326 2
v 20.24517567 6.91379922 0
v 19.94250021 9.15243518 0
v 19.63982476 11.39107115 0
v 20.24517567 6.91379922 2
v 19.94250021 9.15243518 2
v 19.63982476 11.39107115 2
v 0.6173223 0.34885404 4
v 10.75040467 1.23296844 4
v 0.6173223 0.34885404 6
v 0.6173223 0.34885404 8
v 0.45651994 2.60212855 8
v 0.29571758 4.85540306 8
v 10.75040467 1.23296844 6
v 10.75040467 1.23296844 8
v 10.5185502 3.48004363 8
v 9.82298681 10.2212692 4
v 0.13491522 7.10867756 8
v 10.28669574 5.72711882 8
v 10.05484127 7.97419401 8
v 9.82298681 10.2212692 6
v 9.82298681 10.2212692 8
v 21.10477397 0.55607309 4
v 20.85052658 2.4365273 4
v 20.54785113 4.67516326 4
v 21.10477397 0.55607309 6
v 20.85052658 2.4365273 6
v 21.10477397 0.55607309 8
v 20.85052658 2.4365273 8
v 20.54785113 4.67516326 6
v 20.54785113 4.67516326 8
v 20.24517567 6.91379922 4
v 19.94250021 9.15243518 4
v 19.63982476 11.39107115 4
v 20.24517567 6.91379922 6
v 20.24517567 6.91379922 8
v 19.94250021 9.15243518 6
v 19.63982476 11.39107115 6
v 19.94250021 9.15243518 8
v 19.63982476 11.39107115 8
f 2 1 3
f 3 1 11
f 4 2 5
f 2 3 5
f 11 1 10
f 5 3 8
f 3 11 12
f 8 3 12
f 7 6 4
f 4 5 7
f 24 19 6
f 7 24 6
f 9 7 5
f 5 8 9
f 49 24 7
f 9 49 7
f 151 1 2
f 10 1 151
f 152 2 4
f 151 2 152
f 152 4 153
f 10 151 156
f 6 153 4
f 6 19 154
f 6 154 153
f 154 32 155
f 11 10 172
f 172 10 171
f 13 9 8
f 12 11 173
f 8 12 14
f 93 49 9
f 14 13 8
f 13 93 9
f 173 11 172
f 13 101 93
f 12 173 180
f 180 14 12
f 14 181 13
f 171 10 156
f 171 156 209
f 154 19 32
f 155 32 35
f 40 157 35
f 40 44 158
f 155 35 157
f 159 44 60
f 160 60 61
f 62 161 61
f 62 63 162
f 162 63 66
f 163 66 84
f 181 101 13
f 114 166 84
f 114 136 168
f 327 151 152
f 156 151 327
f 153 328 152
f 154 329 153
f 329 154 155
f 327 152 328
f 156 327 332
f 157 330 155
f 153 329 328
f 329 155 330
f 157 331 330
f 332 209 156
f 332 358 209
f 40 158 157
f 158 44 159
f 159 60 160
f 160 61 161
f 62 162 161
f 162 66 163
f 163 84 166
f 158 331 157
f 158 159 333
f 331 158 333
f 334 159 160
f 161 335 160
f 162 336 161
f 336 162 163
f 333 159 334
f 334 160 335
f 161 336 335
f 336 163 337
f 166 337 163
f 166 338 337
f 114 168 166
f 168 136 215
f 168 338 166
f 338 168 339
f 168 215 339
f 172 171 175
f 174 175 171
f 173 172 178
f 175 178 172
f 178 200 173
f 209 174 171
f 209 210 174
f 174 177 175
f 174 176 177
f 175 179 178
f 177 179 175
f 179 202 178
f 210 176 174
f 177 176 211
f 211 176 210
f 177 211 212
f 179 177 212
f 213 202 179
f 179 212 213
f 103 101 181
f 200 180 173
f 180 184 14
f 103 181 182
f 184 181 14
f 110 103 182
f 183 112 110
f 110 182 183
f 183 186 112
f 200 201 180
f 182 181 184
f 185 183 182
f 182 184 185
f 201 184 180
f 185 194 183
f 186 122 112
f 131 122 186
f 132 131 188
f 189 135 132
f 190 136 135
f 131 186 188
f 132 188 189
f 189 190 135
f 194 186 183
f 188 186 194
f 196 189 188
f 197 190 189
f 188 194 196
f 196 197 189
f 215 136 190
f 216 190 197
f 178 202 200
f 201 185 184
f 201 203 185
f 200 207 201
f 202 207 200
f 203 194 185
f 203 196 194
f 205 197 196
f 203 205 196
f 201 207 203
f 203 207 205
f 217 207 202
f 213 217 202
f 220 207 217
f 205 218 197
f 216 197 218
f 205 207 220
f 205 220 218
f 358 210 209
f 359 210 358
f 211 210 359
f 212 211 360
f 361 213 212
f 360 211 359
f 212 360 361
f 361 362 213
f 215 190 216
f 339 215 363
f 363 215 216
f 362 217 213
f 220 217 364
f 220 366 218
f 364 217 362
f 218 365 216
f 363 216 365
f 218 366 365
f 366 220 364
f 340 332 327
f 328 340 327
f 329 341 328
f 330 341 329
f 331 342 330
f 328 341 340
f 340 345 332
f 330 342 341
f 348 342 331
f 345 358 332
f 345 368 358
f 333 334 349
f 335 350 334
f 336 351 335
f 337 351 336
f 338 352 337
f 331 333 348
f 349 348 333
f 350 349 334
f 335 351 350
f 337 352 351
f 355 352 338
f 338 339 355
f 378 355 339
f 341 343 340
f 340 343 345
f 342 343 341
f 348 344 342
f 345 343 346
f 344 343 342
f 346 343 344
f 346 344 347
f 345 346 368
f 346 369 368
f 369 346 347
f 369 347 370
f 349 353 348
f 350 354 349
f 351 406 350
f 352 406 351
f 355 409 352
f 353 344 348
f 354 353 349
f 347 344 353
f 354 356 353
f 347 353 356
f 350 406 354
f 354 406 357
f 354 357 356
f 357 406 409
f 378 433 355
f 356 370 347
f 357 379 356
f 356 379 370
f 357 409 380
f 379 357 380
f 380 409 433
f 359 358 368
f 368 371 359
f 360 359 371
f 372 361 360
f 373 362 361
f 371 372 360
f 372 373 361
f 373 381 362
f 339 363 378
f 383 378 363
f 364 362 381
f 365 383 363
f 366 364 382
f 366 367 365
f 381 382 364
f 382 367 366
f 365 367 383
f 368 369 371
f 369 374 371
f 370 374 369
f 370 375 374
f 371 374 372
f 372 376 373
f 373 377 381
f 374 376 372
f 375 376 374
f 373 376 377
f 377 376 375
f 383 436 378
f 379 375 370
f 379 380 384
f 384 375 379
f 380 433 386
f 386 384 380
f 436 386 433
f 381 385 382
f 382 387 367
f 367 438 383
f 384 377 375
f 386 385 384
f 377 385 381
f 385 377 384
f 436 387 386
f 385 387 382
f 387 438 367
f 387 385 386
f 436 438 387
f 409 406 352
f 433 409 355
f 436 433 378
f 383 438 436
f 70 69 241
f 77 70 242
f 243 78 77
f 247 79 78
f 164 79 247
f 82 79 164
f 88 82 165
f 167 118 88
f 193 150 169
f 169 150 118
f 193 169 170
f 82 164 165
f 88 165 167
f 167 169 118
f 270 130 187
f 187 130 143
f 191 143 144
f 149 192 144
f 149 150 193
f 187 143 191
f 191 144 192
f 149 193 192
f 299 187 195
f 195 187 191
f 192 198 191
f 193 199 192
f 195 191 198
f 192 199 198
f 199 193 170
f 199 170 214
f 214 206 199
f 214 219 206
f 204 302 195
f 198 204 195
f 199 206 198
f 198 206 204
f 204 208 307
f 206 208 204
f 219 208 206
f 221 208 219
f 418 219 214
f 221 219 420
f 70 241 242
f 242 241 244
f 77 242 243
f 245 243 242
f 246 247 243
f 242 244 245
f 233 245 244
f 245 246 243
f 248 246 245
f 243 247 78
f 233 248 245
f 233 235 248
f 255 235 240
f 255 240 256
f 257 255 256
f 257 256 258
f 256 240 254
f 256 254 259
f 259 258 256
f 259 260 258
f 248 289 246
f 291 247 246
f 248 235 290
f 290 235 255
f 164 247 291
f 291 246 289
f 248 290 289
f 292 255 257
f 290 255 292
f 292 257 293
f 266 259 254
f 266 282 259
f 282 260 259
f 260 282 283
f 266 281 282
f 282 281 304
f 282 304 283
f 258 284 257
f 258 285 284
f 285 286 284
f 288 286 285
f 260 285 258
f 287 285 260
f 287 288 285
f 284 293 257
f 284 286 294
f 284 294 293
f 294 286 295
f 295 286 297
f 297 286 288
f 260 283 287
f 313 288 287
f 312 287 283
f 312 313 287
f 297 288 320
f 320 288 313
f 290 391 289
f 391 290 292
f 293 393 292
f 294 394 293
f 389 164 291
f 165 164 389
f 289 388 291
f 289 391 388
f 389 291 388
f 165 389 390
f 390 167 165
f 390 392 167
f 391 292 393
f 293 394 393
f 392 169 167
f 170 169 392
f 170 392 397
f 397 214 170
f 397 418 214
f 294 295 399
f 295 297 298
f 394 294 399
f 399 295 296
f 296 295 298
f 321 297 320
f 298 297 321
f 272 270 299
f 300 279 272
f 270 187 299
f 272 299 300
f 301 281 279
f 300 301 279
f 304 281 301
f 302 300 299
f 303 301 300
f 299 195 302
f 302 303 300
f 305 301 303
f 283 304 306
f 304 301 305
f 306 304 305
f 307 303 302
f 204 307 302
f 307 308 303
f 305 303 308
f 307 208 309
f 307 309 308
f 309 311 308
f 308 310 305
f 306 305 310
f 308 311 310
f 311 315 310
f 309 208 221
f 311 309 318
f 309 221 318
f 319 315 311
f 311 318 319
f 283 306 312
f 316 313 312
f 314 312 306
f 314 316 312
f 320 313 323
f 316 323 313
f 310 314 306
f 314 317 316
f 310 315 314
f 315 317 314
f 322 317 315
f 319 322 315
f 324 317 322
f 316 324 323
f 316 317 324
f 420 219 418
f 318 221 421
f 422 319 318
f 423 322 319
f 318 421 422
f 421 221 420
f 422 423 319
f 323 325 320
f 321 320 325
f 324 322 428
f 324 326 323
f 428 322 423
f 326 324 428
f 323 326 325
f 388 404 389
f 404 390 389
f 391 395 388
f 393 395 391
f 405 392 390
f 405 397 392
f 394 396 393
f 404 405 390
f 388 395 404
f 405 398 397
f 393 396 395
f 400 396 394
f 398 418 397
f 398 419 418
f 394 399 400
f 399 296 401
f 296 298 403
f 401 400 399
f 402 401 296
f 403 402 296
f 298 321 427
f 427 403 298
f 395 407 404
f 404 407 405
f 396 407 395
f 405 407 398
f 400 408 396
f 398 407 410
f 408 407 396
f 410 407 408
f 411 408 412
f 410 408 411
f 398 410 419
f 410 434 419
f 434 410 411
f 415 435 411
f 434 411 435
f 401 412 400
f 402 413 401
f 402 414 413
f 417 414 402
f 403 417 402
f 412 408 400
f 413 412 401
f 413 415 412
f 411 412 415
f 413 416 415
f 413 414 416
f 416 414 417
f 444 417 403
f 427 444 403
f 416 442 415
f 415 442 435
f 442 416 443
f 416 417 443
f 443 417 444
f 420 418 419
f 419 424 420
f 421 420 424
f 425 422 421
f 426 423 422
f 424 425 421
f 425 426 422
f 426 429 423
f 325 431 321
f 431 427 321
f 428 423 429
f 326 428 430
f 326 432 325
f 429 430 428
f 325 432 431
f 430 432 326
f 419 434 424
f 434 437 424
f 435 437 434
f 442 440 435
f 435 440 437
f 424 437 425
f 425 439 426
f 426 441 429
f 437 439 425
f 440 439 437
f 445 441 440
f 426 439 441
f 441 439 440
f 448 444 427
f 431 448 427
f 442 443 445
f 445 440 442
f 447 445 443
f 443 444 447
f 448 447 444
f 429 446 430
f 431 450 448
f 430 449 432
f 432 450 431
f 449 450 432
f 447 446 445
f 441 446 429
f 446 449 430
f 446 441 445
f 449 446 447
f 448 449 447
f 448 450 449
f 20 15 16
f 21 16 17
f 18 22 17
f 18 19 23
f 20 16 21
f 21 17 22
f 31 15 20
f 18 23 22
f 23 19 24
f 26 15 31
f 45 20 21
f 22 46 21
f 23 47 22
f 23 24 48
f 45 21 46
f 22 47 46
f 50 20 45
f 47 23 48
f 48 24 49
f 31 20 50
f 53 26 56
f 26 31 56
f 226 222 53
f 53 56 226
f 66 63 65
f 67 65 75
f 66 65 67
f 67 75 80
f 76 80 75
f 76 79 81
f 76 81 80
f 81 79 82
f 56 31 83
f 83 31 50
f 249 226 56
f 56 83 249
f 84 66 67
f 80 85 67
f 84 67 85
f 80 86 85
f 81 86 80
f 81 82 87
f 81 87 86
f 82 88 87
f 46 89 45
f 47 90 46
f 47 48 91
f 48 49 92
f 46 90 89
f 91 90 47
f 89 94 45
f 92 91 48
f 93 92 49
f 50 45 94
f 90 95 89
f 91 96 90
f 92 97 91
f 93 100 92
f 96 95 90
f 97 96 91
f 98 95 96
f 99 96 97
f 89 95 106
f 104 95 98
f 98 96 99
f 105 98 99
f 100 97 92
f 93 101 100
f 100 102 97
f 100 101 103
f 99 97 102
f 102 109 99
f 100 103 102
f 103 110 102
f 89 106 94
f 106 95 104
f 104 98 107
f 107 98 105
f 106 104 119
f 108 104 107
f 119 104 108
f 105 99 109
f 109 111 105
f 102 110 109
f 110 112 109
f 107 105 120
f 111 120 105
f 109 112 111
f 112 122 111
f 83 50 113
f 94 113 50
f 261 249 83
f 113 261 83
f 85 114 84
f 86 115 85
f 85 115 114
f 116 115 86
f 116 86 87
f 87 88 117
f 87 117 116
f 88 118 117
f 94 125 113
f 106 125 94
f 125 106 119
f 119 108 126
f 108 107 121
f 120 121 107
f 121 123 108
f 111 124 120
f 111 122 124
f 123 126 108
f 120 128 121
f 124 128 120
f 121 129 123
f 128 129 121
f 113 267 261
f 125 267 113
f 125 119 127
f 126 127 119
f 127 267 125
f 126 268 127
f 123 269 126
f 129 130 123
f 123 130 269
f 115 136 114
f 138 115 116
f 124 122 131
f 133 131 132
f 135 134 132
f 124 131 133
f 128 124 133
f 128 133 139
f 133 132 134
f 134 139 133
f 134 141 139
f 137 141 134
f 135 136 137
f 138 136 115
f 147 138 116
f 135 137 134
f 141 137 145
f 137 138 145
f 137 136 138
f 145 138 147
f 147 116 117
f 117 118 148
f 139 129 128
f 139 140 129
f 141 140 139
f 140 130 129
f 142 143 140
f 142 140 141
f 141 145 142
f 146 144 142
f 143 130 140
f 144 143 142
f 117 148 147
f 146 142 145
f 145 147 146
f 148 149 146
f 148 146 147
f 118 150 148
f 149 144 146
f 148 150 149
f 226 236 222
f 236 228 222
f 229 228 237
f 230 229 238
f 239 234 230
f 240 235 234
f 237 228 236
f 229 237 238
f 230 238 239
f 239 240 234
f 249 250 226
f 250 236 226
f 237 236 251
f 238 237 252
f 253 239 238
f 254 240 239
f 251 236 250
f 252 237 251
f 238 252 253
f 253 254 239
f 261 262 249
f 262 250 249
f 251 250 263
f 252 251 264
f 265 253 252
f 266 254 253
f 262 263 250
f 263 264 251
f 264 265 252
f 265 266 253
f 127 273 267
f 267 275 261
f 268 273 127
f 269 268 126
f 269 130 270
f 269 270 271
f 268 269 271
f 268 271 274
f 271 270 272
f 271 272 278
f 261 275 262
f 262 276 263
f 263 277 264
f 264 280 265
f 265 281 266
f 273 275 267
f 274 273 268
f 274 276 273
f 262 275 276
f 276 277 263
f 276 275 273
f 277 276 274
f 278 274 271
f 278 277 274
f 279 278 272
f 279 280 278
f 277 280 264
f 280 281 265
f 280 277 278
f 279 281 280
f 16 15 25
f 17 16 27
f 16 25 27
f 28 18 17
f 17 27 28
f 34 19 18
f 28 34 18
f 25 15 26
f 27 25 29
f 25 26 51
f 29 25 51
f 30 28 27
f 39 34 28
f 27 29 30
f 30 39 28
f 32 19 33
f 33 19 34
f 32 33 36
f 33 34 38
f 35 32 36
f 36 33 37
f 37 33 38
f 35 36 41
f 36 37 42
f 38 34 39
f 37 38 57
f 41 40 35
f 42 41 36
f 43 42 37
f 41 60 40
f 57 43 37
f 42 61 41
f 43 62 42
f 60 44 40
f 61 60 41
f 51 26 53
f 29 51 55
f 52 30 29
f 59 39 30
f 55 52 29
f 52 59 30
f 51 53 54
f 54 55 51
f 222 54 53
f 54 224 55
f 55 223 52
f 223 69 52
f 38 39 58
f 59 58 39
f 58 57 38
f 59 68 58
f 58 71 57
f 68 71 58
f 57 64 43
f 64 63 43
f 62 61 42
f 43 63 62
f 71 64 57
f 72 64 71
f 65 63 64
f 65 64 72
f 75 65 72
f 52 69 59
f 59 69 68
f 68 73 71
f 68 70 73
f 68 69 70
f 70 77 73
f 72 71 73
f 73 74 72
f 73 77 74
f 75 72 74
f 74 76 75
f 74 78 76
f 77 78 74
f 78 79 76
f 222 227 54
f 227 224 54
f 224 223 55
f 241 223 225
f 225 224 231
f 225 223 224
f 244 241 225
f 244 225 232
f 222 228 227
f 227 231 224
f 227 229 231
f 227 228 229
f 229 230 231
f 231 232 225
f 231 230 232
f 232 233 244
f 232 234 233
f 230 234 232
f 234 235 233
f 241 69 223
