# MAAS exact compiled indexed mesh
# program_hash 2d1b280d2c8bbb83902cbbee977edb6a04aa648ad5e3e583089843c470a3aaef
# geometry_hash 6999b9b730b7522ba2cc313922da512439d04288b847d48b9e84ef05c27da05a
v -12.58134104 -12.58134104 0
v -12.58134104 -12.58134104 2.5245
v -6.54229734 -9.56181919 2.5245
v -6.54229734 -9.56181919 4.9995
v -0.50325364 -6.54229734 4.9995
v -0.50325364 -6.54229734 7.4745
v -12.58134104 12.58134104 0
v -12.58134104 12.58134104 2.5245
v -6.54229734 9.56181919 2.5245
v -6.54229734 9.56181919 4.9995
v -0.50325364 6.54229734 4.9995
v -0.50325364 6.54229734 7.4745
v 12.58134104 -12.58134104 0
v 12.58134104 -9.56181919 2.4255
v 12.58134104 -12.58134104 2.5245
v 12.58134104 -9.56181919 2.5245
v 12.58134104 -6.54229734 4.9005
v 5.53579006 -3.52277549 7.4745
v 5.53579006 -3.52277549 9.9
v 12.58134104 -9.56181919 4.9995
v 12.58134104 -6.54229734 4.9995
v 12.58134104 -6.54229734 7.4745
v 12.58134104 -3.52277549 7.4745
v 12.58134104 -3.52277549 9.9
v 6.29067052 6.29067052 0
v 6.29067052 12.58134104 0
v 6.29067052 7.27830579 3.0421215
v 6.29067052 8.44837051 3.0421215
v 6.29067052 8.85097342 3.0421215
v 6.29067052 7.27830579 4.4323785
v 6.29067052 8.44837051 4.4323785
v 6.29067052 8.85097342 4.4323785
v 6.29067052 9.56181919 2.5245
v 6.29067052 9.56181919 3.0421215
v 6.29067052 12.58134104 2.5245
v 6.29067052 9.56181919 4.4323785
v 12.58134104 6.29067052 0
v 12.58134104 6.29067052 2.4255
v 12.58134104 6.29067052 4.9005
v 12.58134104 12.58134104 0
v 12.58134104 9.56181919 2.4255
v 12.58134104 7.27830579 3.0421215
v 12.58134104 8.44837051 3.0421215
v 12.58134104 8.85097342 3.0421215
v 12.58134104 6.54229734 4.9005
v 12.58134104 7.27830579 4.4323785
v 12.58134104 8.44837051 4.4323785
v 12.58134104 8.85097342 4.4323785
v 12.58134104 9.56181919 2.5245
v 12.58134104 9.56181919 3.0421215
v 12.58134104 12.58134104 2.5245
v 12.58134104 9.56181919 4.4323785
v 5.53579006 3.52277549 7.4745
v 6.29067052 6.29067052 7.4745
v 5.53579006 3.52277549 9.9
v 6.29067052 6.54229734 4.9995
v 6.29067052 9.56181919 4.9995
v 6.29067052 6.54229734 7.4745
v 12.58134104 3.52277549 7.4745
v 12.58134104 6.29067052 7.4745
v 12.58134104 3.52277549 9.9
v 12.58134104 6.54229734 4.9995
v 12.58134104 9.56181919 4.9995
v 12.58134104 6.54229734 7.4745
f 1 2 8
f 1 13 2
f 1 7 13
f 1 8 7
f 7 8 26
f 7 26 25
f 8 35 26
f 2 13 15
f 13 37 15
f 14 16 15
f 14 15 37
f 13 25 37
f 7 25 13
f 14 37 38
f 5 6 12
f 5 12 11
f 5 21 6
f 6 21 22
f 21 23 22
f 17 60 21
f 21 59 23
f 11 12 56
f 12 58 56
f 17 39 60
f 21 60 59
f 3 4 9
f 3 20 4
f 4 10 9
f 9 10 33
f 3 16 20
f 14 38 16
f 16 38 20
f 17 20 38
f 17 21 20
f 10 34 33
f 10 36 34
f 10 57 36
f 17 38 39
f 18 19 53
f 18 24 19
f 19 24 55
f 18 23 24
f 23 61 24
f 19 55 53
f 53 55 59
f 23 59 61
f 24 61 55
f 55 61 59
f 25 26 37
f 40 26 35
f 38 37 41
f 40 37 26
f 41 37 40
f 40 35 51
f 41 40 51
f 41 51 49
f 45 62 39
f 62 56 58
f 62 64 39
f 62 58 64
f 64 60 39
f 50 33 34
f 63 36 57
f 38 43 42
f 38 42 45
f 38 41 43
f 44 41 49
f 43 41 44
f 44 49 50
f 43 44 48
f 38 45 39
f 42 46 45
f 45 46 47
f 43 48 47
f 45 47 63
f 47 48 63
f 48 52 63
f 49 33 50
f 52 36 63
f 45 63 62
f 2 3 9
f 2 15 3
f 2 9 8
f 8 9 35
f 3 15 16
f 9 33 35
f 51 35 33
f 49 51 33
f 4 5 10
f 5 11 10
f 10 11 57
f 4 20 5
f 5 20 21
f 11 56 57
f 63 57 56
f 62 63 56
f 6 22 18
f 6 18 53
f 18 22 23
f 6 53 12
f 12 53 59
f 12 59 54
f 12 54 58
f 59 60 54
f 54 60 58
f 64 58 60
f 28 31 27
f 29 34 36
f 31 30 27
f 29 36 32
f 42 28 27
f 43 31 28
f 46 27 30
f 47 30 31
f 42 27 46
f 42 43 28
f 46 30 47
f 43 47 31
f 44 34 29
f 48 29 32
f 52 32 36
f 44 50 34
f 44 29 48
f 48 32 52
