# MAAS exact compiled indexed mesh
# program_hash a1dbf629d2875be561adbb84846a8da8eb1269b4beffb1cd0038dd462fc1870f
# geometry_hash 774849005a0b9cd31aa81c37b22be4d3350a39a427ff6682f0bd0beb37626b0c
v -6.38805708 -9.10992773 0
v -6.75564929 -8.03377884 0
v -6.97988867 -6.90114761 0
v -11.18909928 -0.59456859 0
v -10.42258806 -1.34960883 0
v -7.05525371 -5.73992318 0
v -6.97988867 -4.57869875 0
v -6.75564929 -3.44606751 0
v -9.52511873 -1.99447412 0
v -8.51878996 -2.51328573 0
v -7.42838091 -2.8932688 0
v -6.62242789 -3.05605364 0
v -6.38805708 -3.1033914 0
v -5.88616339 -10.10309593 0
v -5.2623265 -10.98882833 0
v -4.53190736 -11.74531527 0
v -3.71289129 -12.35392952 0
v -2.8254452 -12.79968499 0
v -1.89142096 -13.07160569 0
v -0.93381733 -13.16299603 0
v -0.00636476 -13.0744832 8.02824831
v -4.81787886 -4.14077959 0
v -5.30889288 -3.70834023 0
v -5.2623265 -3.68939567 0
v -4.20992703 -4.57436618 0
v -3.87677288 -4.7785233 0
v -3.71289129 -4.86622081 0
v -3.71289129 -4.02521414 0
v -6.00083432 -3.14359998 0
v -6.056506 -2.74599526 0
v -5.77866279 -3.15831033 0
v -6.33295805 -2.29486651 0
v -6.30204421 -2.34531332 0
v -6.3453493 -2.19897529 0
v -6.3506269 -2.20235857 0
v -5.81818786 -2.42382115 0
v -5.86778133 -2.35524049 0
v -5.26762062 -3.25114382 0
v -6.28074107 -1.37804997 0
v -5.72731175 -1.26913066 0
v -6.18687727 -0.18539732 0
v -5.26762062 -0.57429619 0
v -4.56492272 -3.16727058 0
v -4.47081238 -3.16103937 0
v -3.77699037 -1.30924988 0
v -3.40534838 -0.11751091 0
v -3.03615186 -5.14653546 0
v -2.8254452 -5.21678614 0
v -2.14705122 -5.37965412 0
v -1.89142096 -5.41952551 0
v -2.92322508 -3.94384544 0
v -2.8254452 -3.95090008 0
v -2.0246494 -4.0408668 0
v -1.89142096 -3.7162123 0
v -1.11385587 -5.48072121 0
v -0.93381733 -5.46819935 0
v -0.43185063 -5.42869371 0
v -0.11693029 -5.39338736 0
v -0.93381733 -3.32692959 0
v -1.10338924 -2.21113335 0
v -0.18212908 -1.83580723 0
v -6.38805708 -9.10992773 13.99208992
v -6.75564929 -8.03377884 13.99208992
v -6.97988867 -6.90114761 13.99208992
v -11.18909928 -0.59456859 16.05649663
v -10.42258806 -1.34960883 16.05649663
v -7.05525371 -5.73992318 13.99208992
v -6.97988867 -4.57869875 13.99208992
v -6.75564929 -3.44606751 13.99208992
v -6.62242789 -3.05605364 13.99208992
v -9.52511873 -1.99447412 16.05649663
v -8.51878996 -2.51328573 16.05649663
v -7.42838091 -2.8932688 16.05649663
v -0.00636476 -13.0744832 11.01016911
v -0.00636476 -6.819561 12.12658894
v -5.88616339 -10.10309593 13.99208992
v -5.2623265 -10.98882833 13.99208992
v -4.53190736 -11.74531527 13.99208992
v -3.71289129 -12.35392952 13.99208992
v -2.8254452 -12.79968499 13.99208992
v -1.89142096 -13.07160569 13.99208992
v -0.93381733 -13.16299603 13.99208992
v -0.00636476 -13.0744832 13.99208992
v -0.00636476 -10.94039066 13.99177458
v -0.00636476 -9.95746025 13.99208992
v -0.01708612 -7.2898959 13.99223439
v -0.01926272 -7.29010381 13.99208992
v -0.01874054 -7.05558606 13.99208992
v -0.00636476 -1.02599394 12.0854295
v -0.00636476 -0.75409368 12.04237247
v -6.28074107 -3.12506688 13.99208992
v -5.10412914 -3.20297234 13.99208992
v -3.92751721 -3.12506688 13.99208992
v -6.28074107 -3.12506688 16.05649663
v -5.10412914 -3.20297234 16.05649663
v -3.92751721 -3.12506688 16.05649663
v -0.00636476 -4.21827229 12.59084471
v -2.77987737 -2.8932688 13.99208992
v -1.68946832 -2.51328573 13.99208992
v -0.68313956 -1.99447412 13.99208992
v -0.0322454 -1.52678232 13.99208992
v -0.00636476 -1.50818611 13.99555146
v -0.00636476 -1.47096379 13.9955636
v -2.77987737 -2.8932688 16.05649663
v -1.68946832 -2.51328573 16.05649663
v -0.68313956 -1.99447412 16.05649663
v -0.00636476 -1.45854074 14.64301352
v -0.00636476 -1.45116081 15.02960602
v -0.05983545 -1.47003494 16.05649663
v -0.00636476 -1.50818611 16.05649663
v -0.00636476 -1.43208517 16.02207615
v -0.0030626 -1.42889747 16.06409016
v -0.00636476 -1.43142697 16.05649663
v -0.05974922 -1.10008364 16.05649663
v -0.06330036 -0.71343652 16.05649663
v -0.00999864 -0.67480504 16.06408873
v -0.0632243 -0.36599313 16.05649663
v -12.25744055 1.1694153 0
v -11.80577834 0.25205502 0
v -12.5329645 2.13492379 0
v -12.62556587 3.12480649 0
v -12.5329645 4.11468919 0
v -12.25744055 5.08019769 0
v -11.80577834 5.99755797 0
v -12.25744055 1.1694153 8.02824831
v -12.15912022 1.1694153 8.02824831
v -12.04446675 0.93278744 8.02824831
v -12.22933328 1.41487329 8.02824831
v -11.80577834 0.25205502 8.02824831
v -11.66990318 0.19606003 8.02824831
v -11.62218103 -1.24e-06 8.02824831
v -11.57923882 0.07099047 8.02824831
v -11.61942012 0.12602689 8.02824831
v -11.71078611 0.25205502 8.02824831
v -11.8146514 0.46255298 8.02824831
v -11.93488264 0.71073516 8.02824831
v -11.528067 -1.24e-06 8.02824831
v -12.36852767 1.90890099 8.02824831
v -12.5329645 2.13492379 8.02824831
v -12.43115975 2.13492379 8.02824831
v -12.4568421 2.40886732 8.02824831
v -12.29507658 1.65216954 8.02824831
v -12.47556561 2.62986514 8.02824831
v -12.62556587 3.12480649 8.02824831
v -12.50218984 2.9137991 8.02824831
v -12.52007071 3.12480649 8.02824831
v -12.49257342 3.41747817 8.02824831
v -12.47173504 3.61974784 8.02824831
v -12.44350113 3.92019646 8.02824831
v -12.5329645 4.11468919 8.02824831
v -12.42345947 4.11468919 8.02824831
v -12.33777045 4.4137208 8.02824831
v -12.28344765 4.59744344 8.02824831
v -12.19634446 4.90134374 8.02824831
v -12.25744055 5.08019769 8.02824831
v -12.14344904 5.08019769 8.02824831
v -11.99925412 5.37176036 8.02824831
v -11.91506965 5.53887783 8.02824831
v -11.77003443 5.83207531 8.02824831
v -11.80577834 5.99755797 8.02824831
v -11.6866543 5.99755797 8.02824831
v -11.48882498 6.26783443 8.02824831
v -11.37539436 6.42086977 8.02824831
v -11.18909928 6.84418157 0
v -10.42258806 7.59922181 0
v -9.52511873 8.2440871 0
v -8.51878996 8.76289871 0
v -7.42838091 9.14288178 0
v -11.17860868 6.68966328 8.02824831
v -11.18909928 6.84418157 8.02824831
v -11.06405346 6.84418157 8.02824831
v -10.82243706 7.08093205 8.02824831
v -10.67746154 7.22170169 8.02824831
v -10.43992829 7.45440518 8.02824831
v -10.42258806 7.59922181 8.02824831
v -10.2907542 7.59922181 8.02824831
v -10.01927136 7.79319386 8.02824831
v -9.83827133 7.92165446 8.02824831
v -9.5747193 8.10992695 8.02824831
v -9.52511873 8.2440871 8.02824831
v -9.38565443 8.2440871 8.02824831
v -9.1008321 8.39005005 8.02824831
v -8.87839419 8.50349291 8.02824831
v -8.60567353 8.64323375 8.02824831
v -8.51878996 8.76289871 8.02824831
v -8.37100035 8.76289871 8.02824831
v -8.09015894 8.8601534 8.02824831
v -7.82148124 8.95289025 8.02824831
v -7.55669098 9.04457644 8.02824831
v -7.42838091 9.14288178 8.02824831
v -7.27184852 9.14288178 8.02824831
v -7.01120674 9.19518509 8.02824831
v -6.69368383 9.25878082 8.02824831
v -6.45230212 9.3072159 8.02824831
v -5.86778133 1.28935715 0
v -4.85398042 1.49913325 0
v -4.56492272 2.56099344 0
v -3.77699037 2.2171331 0
v -5.59676768 4.18641725 0
v -5.10412914 4.71143385 0
v -3.92751721 3.74218029 0
v -3.83404132 4.92990412 0
v -4.3058191 5.33073855 0
v -2.92322508 1.00064737 0
v -2.40090181 1.44343514 0
v -3.07913842 5.94386495 0
v -2.77987737 6.04286111 0
v -2.0246494 5.1799068 0
v -2.06342175 6.21486689 0
v -1.9262358 6.23192062 0
v -1.68946832 6.25055463 0
v -1.23791404 4.58738038 0
v -0.38729346 3.61731466 0
v -0.98006149 6.28697395 0
v -0.68313956 6.26360569 0
v -3.025e-05 6.18045725 0
v -0.00636476 -1.24e-06 8.02824831
v -6.28074107 9.37467987 0
v -5.10412914 9.45258532 0
v -3.92751721 9.37467987 0
v -2.77987737 9.14288178 0
v -1.68946832 8.76289871 0
v -0.15858294 7.86717355 0
v -0.13454683 8.15016376 0
v -0.68313956 8.2440871 0
v -4.983654 9.44460846 6.70994554
v -4.86388048 9.45258532 6.74051136
v -4.8552244 9.43610492 6.74324741
v -6.28074107 9.37467987 8.02824831
v -6.1154427 9.37467987 8.02824831
v -5.88840238 9.38961331 8.02824831
v -5.52299558 9.41363259 8.02824831
v -5.31726762 9.42716392 8.02824831
v -5.10412914 9.45258532 8.02824831
v -5.01764116 9.44685881 8.02824831
v -4.27994519 9.41363259 6.89411215
v -4.27344528 9.39758435 6.8962727
v -4.27144113 9.39745165 6.89668606
v -3.92751721 9.37467987 6.98683784
v -3.69598275 9.37467987 7.04719087
v -3.67533654 9.3237449 7.05369702
v -3.11308425 9.21018227 7.20353951
v -3.10702464 9.20895836 7.20479697
v -3.12723655 9.25878082 7.198786
v -2.77987737 9.14288178 7.29110416
v -2.55841149 9.14288178 7.34886701
v -2.53336788 9.05697876 7.35667356
v -1.99426054 8.86911196 7.4989432
v -2.00417326 8.87256632 7.49689807
v -2.01871164 8.95289025 7.49190425
v -1.68946832 8.76289871 7.57836421
v -0.47285879 8.0929925 7.89028176
v -0.22342091 7.91376206 7.95238716
v -0.21406611 7.90704029 7.95424304
v -0.22482956 8.05563033 7.95146091
v -0.15858294 7.86717355 7.96781527
v -0.14736357 7.99926526 7.97041129
v -0.14752365 7.99738059 8.02824831
v -0.00636476 7.89586587 8.02824831
v -0.13454683 8.15016376 8.02824831
v -1.45717794 8.64314168 7.63923738
v -1.47889042 8.76289871 7.63258441
v -0.97350928 8.39378687 7.76431831
v -0.96024767 8.38694986 7.76700711
v -0.98141103 8.50349291 7.76126493
v -0.68313956 8.2440871 7.83700466
v -0.48378245 8.2440871 7.88697669
v -0.00636476 8.64488997 8.02824831
v -12.00164523 0.71073516 10.14232954
v -12.22484928 1.1694153 10.04235166
v -11.77830012 0.25205502 10.23994733
v -11.68722829 0.12602689 10.27085697
v -11.59614358 -1.24e-06 10.30150252
v -12.35997398 1.65216954 9.95144262
v -12.4949718 2.13492379 9.8590249
v -12.53861119 2.62986514 9.77979362
v -12.58215118 3.12480649 9.70005282
v -11.62218103 -1.24e-06 11.17096084
v -12.53332786 3.61974784 9.63751527
v -12.48444407 4.11468919 9.57551702
v -12.34448432 4.59744344 9.53431188
v -12.20451072 5.08019769 9.49464164
v -11.97699889 5.53887783 9.47861243
v -11.749522 5.99755797 9.46496309
v -11.4401956 6.42086977 9.47678688
v -12.12809522 0.71073516 14.1464514
v -12.35549933 1.1694153 14.04579712
v -11.80832318 0.12602689 14.27580902
v -11.90054935 0.25205502 14.24472348
v -11.71608409 -1.24e-06 14.30662881
v -11.62218103 -1.24e-06 14.32073374
v -12.63446049 2.13492379 13.86097437
v -12.49504376 1.65216954 13.95415233
v -12.68262945 2.62986514 13.78093826
v -12.73069809 3.12480649 13.70036692
v -12.6384153 3.12480649 13.71755517
v -12.36383926 3.12480649 13.76869669
v -11.91373092 3.12480649 13.85253221
v -11.62218103 -1.24e-06 16.05649663
v -12.68640245 3.61974784 13.63697311
v -12.50296685 3.60756074 13.67392641
v -12.14060653 3.58348663 13.74677238
v -12.64204538 4.11468919 13.5740929
v -12.5064999 4.59744344 13.53200276
v -11.60823281 3.54811829 13.85343064
v -12.37093957 5.08019769 13.49142308
v -12.14762 5.53887783 13.47450714
v -11.92433442 5.99755797 13.45994902
v -11.61887529 6.42086977 13.47091453
v -11.13094873 6.84418157 9.49160239
v -10.74753911 7.22170169 9.53250126
v -10.36424313 7.59922181 9.57671111
v -9.91626857 7.92165446 9.64627512
v -9.46842608 8.2440871 9.719146
v -8.96694513 8.50349291 9.81528609
v -8.46559584 8.76289871 9.91440642
v -7.92292912 8.95289025 10.0334437
v -7.38037438 9.14288178 10.15484429
v -6.80980316 9.25878082 10.29172951
v -11.31349485 6.84418157 13.48485299
v -10.93353268 7.22170169 13.52495384
v -10.55368346 7.59922181 13.56835075
v -10.10865216 7.92165446 13.63720862
v -9.66375239 8.2440871 13.70936248
v -9.16463856 8.50349291 13.80491781
v -8.66565603 8.76289871 13.90344633
v -8.12472254 8.95289025 14.02204569
v -7.58390083 9.14288178 14.14300459
v -7.01438671 9.25878082 14.27961851
v -6.44494787 9.37467987 14.41774749
v -0.00636476 -1.24e-06 12.04237247
v -6.01368587 0.12602689 15.1546216
v -5.92119468 -1.24e-06 15.17706378
v -4.010929 4.50462622 13.01464164
v -5.72905012 3.42209016 14.98532955
v -5.34975539 3.79961029 15.03463522
v -4.9049596 4.12204293 15.10327399
v -4.40561672 4.38144874 15.18931582
v -3.86400295 4.57144027 15.28993836
v -3.29341626 4.68733931 15.40156535
v -0.12630527 -1.24e-06 16.04749876
v -0.06590798 -1.24e-06 16.05649663
v -2.35827529 6.37435666 12.65511984
v -1.9160665 6.05192402 12.87216396
v -2.40141877 6.37435666 13.6218521
v -1.95117994 6.05192402 13.67231543
v -0.93887396 4.50462622 13.63582318
v -1.01767519 4.79241195 13.51765148
v -1.0237772 4.79241195 13.66656489
v -1.23747382 5.25109209 13.30831015
v -1.53939988 5.6744039 13.09160886
v -1.25370652 5.25109209 13.69448115
v -1.56542376 5.6744039 13.69664782
v -2.70785316 4.72629204 15.52006217
v -2.12167031 4.68733931 15.64097314
v -1.54923839 4.57144027 15.75978147
v -1.00459565 4.38144874 15.87217097
v -0.05114912 3.79961029 16.06284607
v -0.50110889 4.12204293 15.9742682
v -4.39958728 9.41456461 8.93584414
v -3.81544327 9.37561189 9.08898253
v -3.80148253 9.37467987 9.09295779
v -4.46454656 9.41456461 10.19322826
v -3.23421982 9.25878082 9.28418052
v -6.23930731 9.37467987 10.43013119
v -5.65475604 9.41363259 10.57877621
v -5.07023152 9.45258532 10.72794357
v -3.97785953 6.94058506 12.07164221
v -3.96387161 6.93965304 12.07522876
v -3.39482576 6.823754 12.25078553
v -4.48594099 9.41363259 10.88163648
v -3.9349125 9.37654391 11.13077163
v -3.92094741 9.37561189 11.13474832
v -3.90698231 9.37467987 11.13872471
v -3.33917732 9.25878082 11.33008735
v -2.66484198 9.14288178 9.43440339
v -2.12751139 8.95289025 9.64241476
v -0.32993018 8.05563033 10.11780665
v -0.06998863 7.86717355 10.18139349
v -0.05743834 8.00866865 10.18419167
v -0.04488991 8.15016376 10.18702962
v -1.58675567 8.76289871 9.78333102
v -1.09238159 8.50349291 10.00075079
v -0.59342428 8.2440871 10.12679081
v -2.77127246 9.14288178 11.51993978
v -2.23303561 8.95289025 11.72818212
v -1.69462092 8.76289871 11.93407764
v -0.43860658 8.05563033 12.35785675
v -0.17415548 7.86717355 12.34796544
v -0.16230629 8.00866865 12.35059397
v -0.15045888 8.15016376 12.35326113
v -1.19897076 8.50349291 12.15181649
v -0.70306611 8.2440871 12.36660492
v -0.09471998 8.27180864 12.3667848
v -0.0828796 8.41330374 12.36959772
v -0.03081356 8.60351932 12.31682878
v -4.03569936 6.94058506 13.33076886
v -4.02168662 6.93965304 13.33387429
v -3.44957122 6.823754 13.44959678
v -3.99976243 9.37654391 12.38818405
v -4.06461237 9.37654391 13.64559648
v -4.03662184 9.37467987 13.65259013
v -4.05061711 9.37561189 13.64909345
v -4.08593959 9.37561189 14.33400974
v -4.07194286 9.37467987 14.3375068
v -3.46508114 9.25878082 13.78429485
v -5.86075184 9.41363259 14.56630054
v -5.27658255 9.45258532 14.71537577
v -4.69193679 9.41363259 14.86916082
v -4.10726387 9.37467987 15.02242347
v -3.50126418 9.25878082 14.4896005
v -3.53640364 9.25878082 15.17456401
v -2.85523652 6.63376247 12.44604753
v -2.90501877 6.63376247 13.54675675
v -2.89347224 9.14288178 13.91448033
v -2.34923196 8.95289025 14.0248922
v -1.80489896 8.76289871 14.13293342
v -0.26198349 7.92165446 12.58699245
v -0.34707995 7.92165446 14.35229023
v -0.01532037 8.67644373 12.38634283
v -1.30130574 8.50349291 14.21702854
v -0.79761679 8.2440871 14.29813007
v -2.92946832 9.14288178 14.61983397
v -2.96546439 9.14288178 15.3251876
v -2.38660891 8.95289025 14.76367648
v -1.84195489 8.76289871 14.87179882
v -2.42229848 8.95289025 15.46910823
v -1.87901081 8.76289871 15.61066421
v -0.38764055 7.92165446 15.19370633
v -0.42547103 7.92165446 15.97848711
v -1.34018035 8.50349291 15.00155334
v -0.83602593 8.2440871 15.08276986
v -1.37679789 8.50349291 15.74052835
v -0.87443508 8.2440871 15.86740964
v 0.02378629 -13.07160569 0
v 0.95781054 -12.79968499 0
v 1.84525663 -12.35392952 0
v 2.66427269 -11.74531527 0
v 3.39469184 -10.98882833 0
v 4.01852872 -10.10309593 0
v 4.52042241 -9.10992773 0
v 4.88801462 -8.03377884 0
v 5.112254 -6.90114761 0
v 0.02378629 -13.07160569 8.02824831
v 0.00872397 -13.07304444 8.02824856
v 0.02381271 -13.07160569 8.02824931
v 0.49207289 -12.93564534 8.02904114
v 0.95781054 -12.79968499 8.02824831
v 0.96033236 -12.79968499 8.03129168
v 1.40609791 -12.57680726 8.0362991
v 1.84525663 -12.35392952 8.02824831
v 1.85185904 -12.35392952 8.04358069
v 2.26414219 -12.0496224 8.05488669
v 2.66427269 -11.74531527 8.02824831
v 2.67641312 -11.74531527 8.06906138
v 3.04504085 -11.3670718 8.08786242
v 3.39469184 -10.98882833 8.02824831
v 3.41364475 -10.98882833 8.10984746
v 3.72951131 -10.54596213 8.13627939
v 4.01852872 -10.10309593 8.02824831
v 4.04534033 -10.10309593 8.16590044
v 4.30063702 -9.60651183 8.19897634
v 4.52042241 -9.10992773 8.02824831
v 4.55588318 -9.10992773 8.2349357
v 4.88801462 -8.03377884 8.02824831
v 5.112254 -6.90114761 8.02824831
v 0.53222789 -5.23753827 0
v 0.87231323 -5.12874919 0
v 1.47178015 -4.88044187 0
v 0.8536082 -3.45050795 0
v 1.57021189 -3.36380579 0
v 1.84004433 -4.67431657 0
v 1.87024998 -4.65580653 0
v 2.36463963 -4.35127696 0
v 2.39313334 -3.91224581 0
v 2.66427269 -4.09536614 0
v 0.71644661 -2.39909651 0
v 1.83784848 -1.43902479 0
v 2.94118716 -0.0213283 0
v 3.19277234 -3.60219342 0
v 3.39469184 -3.36577606 0
v 5.18761904 -5.73992318 0
v 5.112254 -4.57869875 0
v 4.88801462 -3.44606751 0
v 3.93913161 -2.60010104 0
v 4.01852872 -2.47053673 0
v 4.28982776 -1.91360828 0
v 4.52042241 -2.36991862 0
v 3.3236451 -0.41743571 0
v 3.58645888 -0.76329158 0
v 4.01852872 -1.46406014 0
v 4.14384842 -1.62473827 0
v 4.49748958 -1.41226829 0
v 4.71321851 -0.51369261 0
v 0.05363913 -6.53724222 8.03049841
v 0.0687194 -6.53580347 8.03162997
v 0.53670574 -6.39984312 8.06749905
v 0.98217766 -6.17696538 8.10399207
v 1.39414688 -5.87265826 8.14127155
v 1.76245328 -5.49441479 8.17910415
v 2.07801677 -5.05154859 8.21679934
v 5.18761904 -5.73992318 8.02824831
v 5.112254 -4.57869875 8.02824831
v 4.88801462 -3.44606751 8.02824831
v 4.28982776 -1.91360828 8.02824831
v 4.52042241 -2.36991862 8.02824831
v 4.49748958 -1.41226829 8.02824831
v 4.71321851 -0.51369261 8.02824831
v 0.00871416 -13.07304444 11.01016936
v 0.02379309 -13.07160569 11.01017011
v 0.49112604 -12.93564534 11.01096119
v 0.9584583 -12.79968499 11.01320953
v 1.40270387 -12.57680726 11.01821021
v 1.84694502 -12.35392952 11.02548118
v 2.25715288 -12.0496224 11.0367664
v 2.66734854 -11.74531527 11.05091308
v 3.0333968 -11.3670718 11.06966919
v 3.39942128 -10.98882833 11.09159811
v 3.7122678 -10.54596213 11.11795011
v 4.02507685 -10.10309593 11.14747588
v 4.74429851 -8.57185329 8.27260298
v 4.9326544 -8.03377884 8.31256724
v 5.04953788 -7.46746322 8.35187951
v 5.16636014 -6.90114761 8.39267899
v 4.27698741 -9.60651183 11.18042671
v 4.52884758 -9.10992773 11.21624171
v 4.71359422 -8.57185329 11.25373079
v 4.89828164 -8.03377884 11.2934942
v 5.0113044 -7.46746322 11.33257063
v 5.12426626 -6.90114761 11.37310919
v 0.00870435 -13.07304444 13.99209017
v 0.02377346 -13.07160569 13.99209091
v 0.4901792 -12.93564534 13.99288124
v 0.95658423 -12.79968499 13.99512738
v 1.39930982 -12.57680726 14.00012133
v 1.842031 -12.35392952 14.00738167
v 2.25016357 -12.0496224 14.01864612
v 2.65828396 -11.74531527 14.03276477
v 3.02175275 -11.3670718 14.05147596
v 0.0928578 -7.21060726 13.99964608
v 0.55904078 -7.07464691 14.03193815
v 0.94037307 -6.69712679 14.06241597
v 3.38519781 -10.98882833 14.07334876
v 3.69502428 -10.54596213 14.09962083
v 4.00481338 -10.10309593 14.12905133
v 4.2533378 -9.60651183 14.16187708
v 4.50181198 -9.10992773 14.19754771
v 4.68288992 -8.57185329 14.23485859
v 4.86390889 -8.03377884 14.27442116
v 4.97307093 -7.46746322 14.31326175
v 5.08217239 -6.90114761 14.35353939
v 2.33306272 -4.55496449 8.2532029
v 2.52131513 -4.01689004 8.28674751
v 2.63815224 -3.45057442 8.31555718
v 0.00906481 -6.53724222 11.01074771
v 2.68072038 -2.86996221 8.3375964
v 2.64800299 -2.28934999 8.35085019
v 2.54084281 -1.72303438 8.35351795
v 2.36191726 -1.18495993 8.34420213
v 2.24877004 -0.95680476 8.33438623
v 2.35451657 -0.70613477 8.35559594
v 2.46593072 -0.25684693 8.3836222
v 0.02270067 -0.75409368 11.01222374
v 3.07375446 -0.11277455 10.77688928
v 5.20884361 -6.32053539 8.43006666
v 5.25127321 -5.73992318 8.46798795
v 5.21834478 -5.15931096 8.49960132
v 5.18537923 -4.57869875 8.53074447
v 5.07790668 -4.01238313 8.55283582
v 4.97042153 -3.44606751 8.57350134
v 5.16279225 -6.32053539 11.41020332
v 5.16437971 -5.15931096 11.47907182
v 5.20126478 -5.73992318 11.4478047
v 5.127458 -4.57869875 11.50984237
v 5.01612719 -4.01238313 11.5315449
v 4.90478431 -3.44606751 11.55179654
v 4.49852544 -2.14176345 8.58751258
v 4.61184368 -2.36991862 8.58987548
v 4.38521614 -1.91360828 8.58455182
v 4.49084846 -1.66293829 8.61076723
v 4.35595712 -1.91360828 9.7295709
v 4.46986392 -2.14176345 9.73260745
v 4.46093304 -1.66293829 9.75570123
v 4.59645779 -1.41226829 8.63758442
v 4.70760114 -0.96298045 8.67629284
v 4.56588601 -1.41226829 9.78243145
v 4.67585306 -0.96298045 9.82097928
v 4.79112446 -2.90799307 8.58280821
v 4.81868875 -0.51369261 8.71612882
v 4.84080912 -0.25684693 8.73331823
v 4.78576454 -0.51369261 9.86064859
v 4.80721262 -0.25684693 9.87774
v 4.32669811 -1.91360828 10.87458997
v 4.43101761 -1.66293829 10.90063522
v 4.7218224 -2.90799307 11.56068695
v 4.53887731 -2.36991862 11.56731515
v 3.74716997 -0.93388422 10.84213074
v 3.43710521 -0.49101802 10.81620861
v 4.05730335 -1.37675042 10.8648959
v 4.19199379 -1.64517935 10.87015881
v 4.29630751 -1.39450936 10.89613588
v 4.53531422 -1.41226829 10.92727848
v 4.64410498 -0.96298045 10.96566571
v 4.75284033 -0.51369261 11.00516836
v 4.64632178 -0.04172029 11.01482439
v 4.79009153 -0.05306253 11.03573038
v 1.24656766 -6.27381499 14.09105827
v 1.6889585 -6.05093725 14.13000337
v 2.22195702 -6.0442303 14.17313966
v 2.99654305 -6.11816665 14.23305797
v 2.62969046 -5.73992318 14.21536274
v 0.05188824 -1.42889747 14.00335502
v 0.16168097 -1.34960883 14.01824072
v 0.54249416 -0.97208871 14.07213867
v 0.92321347 -0.59456859 14.12934217
v 1.22885718 -0.17125678 14.17945792
v 3.01939674 -0.11277455 12.60787478
v 0.02441282 -1.42889747 15.03372259
v 0.13401871 -1.34960883 15.04858322
v 0.51394235 -0.97208871 15.10235944
v 0.89377222 -0.59456859 15.15943737
v 1.19841872 -0.17125678 15.20940773
v 0.10635645 -1.34960883 16.07892571
v 0.48539053 -0.97208871 16.13258022
v 0.86433096 -0.59456859 16.18953257
v 1.16798026 -0.17125678 16.23935754
v 2.96503903 -0.11277455 14.43886028
v 3.67357285 -6.18278938 14.28435264
v 3.35959423 -5.73992318 14.2768041
v 4.23636823 -6.23650727 14.32622772
v 4.6710644 -6.27799762 14.35809633
v 3.98299093 -5.73992318 14.32927998
v 4.48453048 -5.73992318 14.37149825
v 4.96695191 -6.30623879 14.37955166
v 5.1167409 -6.32053539 14.39033998
v 4.85186332 -5.73992318 14.40241935
v 5.07594448 -5.73992318 14.42128191
v 5.15125634 -5.73992318 14.42762146
v 5.11041464 -5.15931096 14.45854232
v 5.06953676 -4.57869875 14.48894026
v 4.95434771 -4.01238313 14.51025398
v 4.8391471 -3.44606751 14.53009175
v 4.39534396 -2.14176345 12.70985412
v 3.69625116 -0.93388422 12.67361206
v 3.38433151 -0.49101802 12.64742653
v 4.14405471 -1.64517935 12.70204345
v 4.00823971 -1.37675042 12.69663118
v 4.65252034 -2.90799307 14.5385657
v 4.21252054 -1.87333452 14.53799589
v 4.46591093 -2.36991862 14.54475482
v 3.95917606 -1.37675042 14.52836647
v 3.64533236 -0.93388422 14.50509337
v 3.33155781 -0.49101802 14.47864445
v 1.21872826 1.18878222 0
v 1.57021189 1.01223544 0
v 2.2161353 0.59848168 0
v 2.35814424 0.49295425 0
v 2.04918227 1.24622562 0
v 2.164459 2.40169128 0
v 1.63637407 3.06583771 0
v 2.18375759 2.60798782 0
v 2.35814424 2.46998006 0
v 3.06084214 2.05488709 0
v 2.87123034 2.16255247 0
v 0.54432251 3.82140235 0
v 0.71644661 4.01787958 0
v 0.61690849 4.32404177 0
v 0.74833722 4.35878135 0
v 1.2657039 3.47439582 0
v 1.33338282 3.98903285 0
v 0.21432977 5.26821725 0
v 0.21432977 6.12899396 0
v 0.98084099 5.09192258 0
v 0.98084099 5.70936394 0
v 1.55157618 5.64819631 0
v 0.85105992 5.94548071 0
v 0.98084099 5.89756059 0
v 1.24518188 6.48127442 0
v 2.04918227 3.71291162 0
v 1.61879903 4.39195772 0
v 2.32196983 4.12427822 0
v 2.64371611 4.92805823 0
v 1.60889712 5.13910431 0
v 1.60245605 5.62511376 0
v 1.85098794 5.48274542 0
v 1.87301644 5.46924634 0
v 1.6648704 5.86076429 0
v 2.43009965 5.11050392 0
v 4.14384842 1.59739232 0
v 4.44175083 1.5191755 0
v 4.71321851 1.32882772 0
v 4.68025803 1.46611802 0
v 3.5016151 1.84388755 0
v 4.31187357 2.67552009 0
v 4.21788787 2.90242164 0
v 4.78572326 0.40756755 0
v 5.19642556 1.35129319 0
v 6.19966638 1.27813201 0
v 3.47199912 4.09039597 0
v 3.28814814 4.30565781 0
v 0.05424647 0.00126929 8.02824831
v 0.05367279 -1.24e-06 8.02824831
v 0.05821177 0.00947415 8.02824831
v 0.06009392 0.01330968 8.02824831
v 0.06185428 0.01709075 8.02824831
v 0.06346517 0.02092464 8.02824831
v 0.05624598 0.00548936 8.02824831
v 0.06490756 0.02493697 8.02824831
v 0.06616924 0.02928156 8.02824831
v 0.06724304 0.0341567 8.02824831
v 0.06812535 0.03983305 8.02824831
v 0.06881496 0.04670321 8.02824831
v 0.06931213 0.05537569 8.02824831
v 0.06961814 0.06686766 8.02824831
v 0.06973528 0.08304463 8.02824831
v 0.06966777 0.10777777 8.02824831
v 0.06942563 0.15070132 8.02824831
v 0.11357575 -1.24e-06 8.03724618
v 0.06904312 0.24447931 8.02824831
v 0.06876131 0.61709792 8.02824831
v 0.07375984 3.93358615 8.02864029
v 0.07224338 3.95452094 8.02824831
v 0.0717844 3.9350206 8.02824831
v 0.07263709 4.04516394 8.02824831
v 0.07280869 4.08079284 8.02824831
v 0.0870304 4.07508126 8.03113266
v 0.15313636 4.32244436 8.04417445
v 0.0784701 4.92538514 8.02824831
v 0.07967581 5.21242744 8.02824831
v 4.7536469 -1.24e-06 8.02824831
v 4.71321851 1.32882772 8.02824831
v 4.68025803 1.46611802 8.02824831
v 4.78572326 0.40756755 8.02824831
v 5.19642556 1.35129319 8.02824831
v 6.19966638 1.27813201 8.02824831
v 0.57375259 7.24517782 0
v 0.70568419 7.11522061 0
v 0.12216837 7.66544323 0
v 1.01130288 6.80236118 0
v 0.10037929 9.05687488 0
v 0.48549009 9.9183699 0
v 1.01130288 10.71343595 0
v 1.6648704 11.42249587 0
v 2.43009965 12.02809026 0
v 3.28814814 12.51530737 0
v 4.21788787 12.87215029 0
v 5.19642556 13.08983237 0
v 6.19966638 13.16299355 0
v 0.03353267 7.86717355 8.02824831
v 0.03361118 7.86804929 8.02824831
v 0.04698448 8.00935087 8.02824831
v 0.04692332 8.00866865 8.02824831
v 0.06031599 8.15016376 8.02824831
v 0.09150112 8.26571949 8.02824831
v 0.12665795 8.39752686 8.03674631
v 0.19261879 8.64488997 8.05306247
v 0.24753392 8.85088242 8.06693055
v 0.10037929 9.05687488 8.02824831
v 0.30243613 9.05687488 8.0810537
v 0.49760886 9.48762239 8.13231538
v 0.48549009 9.9183699 8.02824831
v 0.69268115 9.9183699 8.18548634
v 1.01130288 10.71343595 8.02824831
v 1.6648704 11.42249587 8.02824831
v 2.43009965 12.02809026 8.02824831
v 3.28814814 12.51530737 8.02824831
v 4.21788787 12.87215029 8.02824831
v 5.19642556 13.08983237 8.02824831
v 6.19966638 13.16299355 8.02824831
v 7.20290719 1.35129319 0
v 8.18144489 1.56897527 0
v 9.11118462 1.92581819 0
v 9.96923311 2.4130353 0
v 10.73446235 3.01862969 0
v 11.38802987 3.72768961 0
v 11.91384266 4.52275566 0
v 12.29895347 5.38425068 0
v 12.53387958 6.2909618 0
v 7.20290719 1.35129319 8.02824831
v 8.18144489 1.56897527 8.02824831
v 9.11118462 1.92581819 8.02824831
v 9.96923311 2.4130353 8.02824831
v 10.73446235 3.01862969 8.02824831
v 11.38802987 3.72768961 8.02824831
v 11.91384266 4.52275566 8.02824831
v 12.29895347 5.38425068 8.02824831
v 12.53387958 6.2909618 8.02824831
v 7.20290719 13.08983237 0
v 8.18144489 12.87215029 0
v 9.11118462 12.51530737 0
v 12.61283635 7.22056278 0
v 12.53387958 8.15016376 0
v 12.29895347 9.05687488 0
v 10.73446235 11.42249587 0
v 9.96923311 12.02809026 0
v 11.91384266 9.9183699 0
v 11.38802987 10.71343595 0
v 7.20290719 13.08983237 8.02824831
v 8.18144489 12.87215029 8.02824831
v 9.11118462 12.51530737 8.02824831
v 12.61283635 7.22056278 8.02824831
v 12.53387958 8.15016376 8.02824831
v 12.29895347 9.05687488 8.02824831
v 10.73446235 11.42249587 8.02824831
v 9.96923311 12.02809026 8.02824831
v 11.91384266 9.9183699 8.02824831
v 11.38802987 10.71343595 8.02824831
v 2.48824668 -1.24e-06 8.3939392
v 2.50594683 0.20378316 8.40221389
v 2.47361203 0.66441324 8.40979043
v 2.45774313 0.73305839 8.40913537
v 2.32420474 0.55385735 10.6827791
v 1.93799834 0.84224578 10.62858726
v 2.01885815 1.00583054 10.64523422
v 2.09970682 1.1694153 10.66218366
v 2.71048603 0.26546892 10.73441241
v 2.40505263 0.71744211 10.69988501
v 2.59688943 1.33925211 10.74855547
v 3.02406127 1.09564355 10.81095885
v 2.23859446 1.65216954 10.69710184
v 2.29156575 1.7912253 10.70966099
v 2.37741703 2.13492379 10.73354973
v 2.39361518 2.30322348 10.74092687
v 2.43036662 2.27397955 10.74662126
v 2.48330908 2.4130353 10.75986105
v 2.44655883 2.44227924 10.75412566
v 2.91030972 2.16942675 10.82785147
v 2.40980941 2.47152317 10.74836558
v 2.35735058 2.30322348 11.76992996
v 2.37314874 2.47152317 11.77729827
v 2.40996699 2.44227924 11.78307064
v 2.44678605 2.4130353 11.7888183
v 2.87436 2.16942675 11.85690997
v 2.49305317 5.05550399 8.53219747
v 2.74957095 4.99809158 8.58398051
v 2.804337 5.20408403 8.60166952
v 4.76252754 1.46611802 9.96410123
v 4.8629176 -1.24e-06 8.75063223
v 4.88045021 0.20378316 8.76445797
v 4.89797523 0.40756755 8.7783621
v 4.86524019 0.86819763 8.79849271
v 4.83249023 1.32882772 8.81825923
v 4.81656112 1.39747287 8.81933638
v 4.80063226 1.46611802 8.82038804
v 5.05758293 1.40870561 8.86006167
v 5.31454442 1.35129319 8.89939656
v 5.81453998 1.3147126 8.97988851
v 6.31454919 1.27813201 9.05996071
v 4.84564819 0.20378316 9.90869903
v 4.86263993 0.40756755 9.92252118
v 4.82869964 0.86819763 9.94246189
v 4.79474463 1.32882772 9.96203215
v 4.77863595 1.39747287 9.9630795
v 5.01962839 1.40870561 10.00379991
v 3.85054348 0.53897863 10.92113722
v 3.48723408 0.91722209 10.87930674
v 4.16060686 0.09611242 10.94863642
v 4.39114139 0.0446838 10.98094422
v 4.63003967 0.02692486 11.01601325
v 4.75497269 0.40756755 11.05547573
v 4.26357182 1.56897527 11.03579984
v 4.49399293 1.51754665 11.0719431
v 4.75699903 1.32882772 11.10580507
v 4.74071079 1.39747287 11.10682263
v 4.72442281 1.46611802 11.10781442
v 4.22903543 1.56897527 12.0651011
v 4.4595776 1.51754665 12.10126471
v 3.33738934 1.92581819 10.89345323
v 3.80044995 1.74739673 10.96557482
v 3.30201298 1.92581819 11.9226114
v 3.76549356 1.74739673 11.99480496
v 4.82730463 0.40756755 11.06668027
v 4.79215908 0.86819763 11.08643108
v 5.24271612 1.35129319 11.07254661
v 5.7428935 1.3147126 11.15306866
v 6.24308451 1.27813201 11.23317089
v 4.94751475 1.40870561 12.17690255
v 3.30348141 5.16750344 8.70530719
v 3.49843619 5.59825095 8.76285319
v 3.99802935 5.63483154 8.87181814
v 4.262552 6.03236457 8.94761833
v 4.7502226 6.14120561 9.0606248
v 5.21401541 6.31962707 9.17361476
v 5.6424654 6.56323562 9.28468991
v 1.53440676 0.25205502 14.23255166
v 2.26705579 0.55385735 12.51333824
v 1.87964209 0.84224578 12.45895534
v 1.95981714 1.00583054 12.47549216
v 2.6545445 0.26546892 12.56515862
v 1.67786354 0.5471504 14.26044944
v 2.06650612 0.25876197 14.3141873
v 2.20990685 0.55385735 14.34389738
v 2.00638535 1.1694153 13.52178757
v 1.82128585 0.84224578 14.28932343
v 2.59860298 0.26546892 14.39590482
v 2.37337514 2.44227924 12.81201562
v 2.33648808 2.47152317 12.80623097
v 2.36636985 2.79816483 12.82056633
v 2.41026303 2.4130353 12.81777554
v 2.83841028 2.16942675 12.88596848
v 2.40325291 2.76892089 12.82647898
v 2.39623667 3.12480649 12.83512775
v 2.14211604 1.65216954 13.5561802
v 2.27778226 2.13492379 13.59208506
v 1.50297125 0.25205502 15.26235124
v 1.47153573 0.25205502 16.29215082
v 0.0650236 3.12480649 16.0836509
v 0.4505105 2.74728637 16.15281819
v 1.14027943 2.70149469 16.27760176
v 0.82889774 3.12480649 16.22592728
v 1.44345519 3.12480649 16.34039249
v 1.72485764 0.71073516 15.30596637
v 1.86756556 1.00583054 15.33527018
v 1.69234193 0.71073516 16.3355977
v 1.91306389 1.1694153 16.38139147
v 2.25661556 2.30322348 14.62827187
v 2.29982892 2.79816483 14.64953324
v 2.32832951 3.12480649 14.66384277
v 2.04563763 1.65216954 16.41525857
v 2.17814748 2.13492379 16.4506204
v 1.67305743 2.66612635 16.37348558
v 1.89356353 3.12480649 16.42422801
v 2.03571148 2.64205224 16.43850346
v 2.2193015 2.62986514 16.47134129
v 2.16813957 3.12480649 16.47536953
v 2.26042236 3.12480649 16.49255778
v 1.57488925 5.99755797 12.73514502
v 1.26741131 6.42086977 12.67397967
v 1.5548844 5.99755797 13.19231563
v 1.24696391 6.42086977 13.13105207
v 1.53487955 5.99755797 13.64948624
v 1.23297861 6.42086977 13.44367326
v 1.18865646 6.42086977 14.4344312
v 1.50109585 5.99755797 14.42154459
v 2.34920007 3.61974784 12.8399103
v 2.30216838 4.11468919 12.84416389
v 2.16407809 4.59744344 12.82905654
v 2.21798862 4.30965771 13.55077253
v 2.07913093 4.79241195 13.53489
v 2.13318108 4.50462622 14.25700471
v 2.05396766 4.79241195 14.14897414
v 2.04786565 4.79241195 14.29788754
v 1.80041716 5.53887783 12.7749698
v 2.0260361 5.08019769 12.81242481
v 1.77420571 5.53887783 13.38883397
v 1.7546805 5.53887783 13.84610858
v 2.00046869 5.08019769 13.42642521
v 1.97490127 5.08019769 14.04042561
v 1.96250124 5.08019769 14.33821181
v 1.73183746 5.53887783 14.38108564
v 1.14468726 6.42086977 15.41729949
v 1.4580783 5.99755797 15.40462409
v 1.10404702 6.42086977 16.32575352
v 1.41506075 5.99755797 16.38770358
v 2.27922311 3.61974784 14.66823389
v 2.23012207 4.11468919 14.6720843
v 2.14512727 4.30965771 15.37853088
v 2.05908878 4.59744344 15.41963946
v 2.20924615 3.61974784 16.49655747
v 2.15807576 4.11468919 16.5000047
v 2.01594956 4.59744344 16.4840882
v 1.91818691 5.08019769 15.4024184
v 1.68640687 5.53887783 15.44505612
v 1.87387258 5.08019769 16.46662498
v 1.64442072 5.53887783 16.42835925
v 4.19449904 1.56897527 13.09440237
v 4.68267387 1.46013423 13.17065888
v 3.26663662 1.92581819 12.95176957
v 3.73053717 1.74739673 13.02403511
v 5.17088782 1.35129319 13.24569666
v 5.67124701 1.3147126 13.32624881
v 6.17161984 1.27813201 13.40638107
v 6.33798224 6.39556646 13.80987766
v 0.01986356 8.39752686 10.20267651
v 0.14175833 8.85088242 10.1674762
v 0.19567101 9.05687488 10.18134823
v 0.39638063 9.48762239 10.08533813
v 0.03676997 8.8666593 12.33387895
v 0.08890589 9.05687488 12.28164277
v 0.23531713 9.29740681 12.23664452
v 0.28754669 9.48762239 12.18509999
v 0.50334388 9.69493984 12.17085369
v 0.95720809 10.31590292 8.25905676
v 1.22160307 10.71343595 8.33502351
v 1.54889547 11.06796591 8.43029532
v 0.58952917 9.9183699 10.13800414
v 0.85955686 10.31590292 10.0757438
v 1.12230036 10.71343595 10.15126147
v 1.45481652 11.06796591 10.12546914
v 1.87603635 11.42249587 8.52821677
v 1.78058306 11.42249587 10.22300518
v 2.25799958 11.72529307 8.64331646
v 2.639807 12.02809026 8.76106094
v 3.06704692 12.27169881 8.89284974
v 2.16724677 11.72529307 10.23476392
v 0.48637719 9.9183699 12.09052194
v 0.75462992 10.31590292 12.02778715
v 1.02299764 10.71343595 11.96749943
v 1.35404132 11.06796591 11.94130024
v 1.68512978 11.42249587 11.91779359
v 2.54795221 12.02809026 10.35219125
v 2.97913507 12.27169881 10.40087987
v 2.07061994 11.72529307 11.92921873
v 2.45609742 12.02809026 11.94332157
v 2.88639386 12.27169881 11.99175226
v 6.02498899 6.86603282 9.3916839
v 6.352148 7.22056278 9.49216001
v 3.49414345 12.51530737 9.02702112
v 3.95619903 12.69372883 9.17120287
v 4.41813949 12.87215029 9.31727341
v 4.90373525 12.98099133 9.4686034
v 5.3892569 13.08983237 9.6211451
v 5.88656935 13.12641296 9.77372478
v 3.40539147 12.51530737 10.5348044
v 3.87042746 12.69372883 10.6181466
v 4.33177751 12.87215029 10.76404098
v 3.3166395 12.51530737 12.04258769
v 3.78106026 12.69372883 12.1257476
v 4.24541553 12.87215029 12.21080854
v 4.73250877 12.98099133 12.32492742
v 4.81923087 12.98099133 10.87826791
v 5.30440164 13.08983237 11.03070387
v 5.80234566 13.12641296 11.17081545
v 6.29951587 13.16299355 11.32377705
v 0.57838245 7.22170169 12.52494475
v 0.77923169 7.33700085 12.57294865
v 0.5638247 7.22170169 12.83743483
v 0.55526591 7.22170169 13.02115371
v 0.19685584 7.59922181 12.4367544
v 0.18813845 7.59922181 12.62043588
v 0.01133657 7.73319768 12.39264494
v 0.0025629 7.73319768 12.57631297
v 0.17942106 7.59922181 12.80411735
v 0.09073632 8.13783277 12.41220269
v 0.47213076 7.76031265 12.50320752
v 0.96006068 6.84418157 12.60983169
v 0.94577276 6.84418157 12.92238424
v 0.93148484 6.84418157 13.23493678
v 0.48984832 7.22170169 14.42537769
v 0.10353338 7.59922181 14.40312355
v 0.44754456 7.22170169 15.33345074
v 0.06359331 7.59922181 15.24468852
v 0.87620066 6.84418157 14.44429456
v 0.83468102 6.84418157 15.35254911
v 0.79316137 6.84418157 16.26080367
v 0.40833118 7.22170169 16.17518711
v 0.02365325 7.59922181 16.08625349
v 6.19896822 6.87832071 13.81352937
v 5.97249511 7.33700085 13.79339336
v 5.17408218 8.67644373 13.68655423
v 5.68964718 9.69493984 13.53167795
v 6.0193396 10.0494698 13.52058858
v 5.21954637 13.08983237 12.44026265
v 5.71737246 13.12641296 12.58033859
v 6.21517529 13.16299355 12.72083235
v 6.8150572 1.3147126 9.14533792
v 7.31555112 1.35129319 9.23113508
v 7.80416338 1.46013423 9.32177907
v 8.29273263 1.56897527 9.41364229
v 8.75733267 1.74739673 9.50959444
v 9.22186095 1.92581819 9.60744617
v 6.74341071 1.3147126 11.31851807
v 7.24372283 1.35129319 11.40428513
v 7.73179414 1.46013423 11.4948391
v 8.21982248 1.56897527 11.58661162
v 8.68353585 1.74739673 11.68241364
v 9.14717752 1.92581819 11.78011342
v 9.6509275 2.16942675 9.70818353
v 10.07989549 2.4130353 9.81131507
v 10.46279227 2.71583249 9.91558267
v 10.84556798 3.01862969 10.02250472
v 9.57503364 2.16942675 11.88064039
v 10.00279132 2.4130353 11.98355814
v 10.38418389 2.71583249 12.0875553
v 10.76545558 3.01862969 12.1942017
v 11.17281264 3.37315965 10.12822627
v 11.49992057 3.72768961 10.23660273
v 11.0909395 3.37315965 12.29959385
v 11.76342529 4.12522264 10.34088377
v 12.026787 4.52275566 10.44756041
v 12.22006387 4.95350317 10.54678855
v 12.41320288 5.38425068 10.6479188
v 12.5315276 5.83760624 10.73795562
v 12.64973195 6.2909618 10.82921551
v 6.67176422 1.3147126 13.49169822
v 7.17189453 1.35129319 13.57743517
v 7.6594249 1.46013423 13.66789913
v 8.14691232 1.56897527 13.75958096
v 8.60973903 1.74739673 13.85523284
v 9.07249409 1.92581819 13.95278067
v 9.49913978 2.16942675 14.05309724
v 6.39381859 5.54473951 13.75917745
v 6.82189544 5.30113096 13.83159294
v 6.38604476 5.90062511 13.78391335
v 7.28547471 5.1227095 13.91451643
v 7.77311001 5.01386846 14.0067894
v 8.2727519 4.97728787 14.10725209
v 8.77204799 5.01386846 14.21466305
v 9.25865098 5.1227095 14.32760889
v 9.92568715 2.4130353 14.15580121
v 10.30557551 2.71583249 14.25952794
v 10.68534318 3.01862969 14.36589868
v 11.41628696 3.72768961 12.40763375
v 11.677818 4.12522264 12.51152891
v 11.9392064 4.52275566 12.61781066
v 12.13034548 4.95350317 12.71660075
v 12.32134713 5.38425068 12.8172824
v 12.43742281 5.83760624 12.90683567
v 12.55337862 6.2909618 12.9976003
v 11.00906636 3.37315965 14.47096143
v 9.72052689 5.30113096 14.44441832
v 10.14625571 5.54473951 14.56309446
v 11.33265335 3.72768961 14.57866478
v 11.59221071 4.12522264 14.68217404
v 11.85162579 4.52275566 14.7880609
v 12.04062709 4.95350317 14.88641296
v 12.22949139 5.38425068 14.986646
v 12.34331802 5.83760624 15.07571571
v 12.45702529 6.2909618 15.16598509
v 6.73439355 7.52335997 9.60448839
v 7.16232857 7.76696853 9.72570432
v 7.62544903 7.94538999 9.85225428
v 8.11239946 8.05423103 9.98013914
v 8.61124742 8.09081162 10.10509894
v 9.10977093 8.05423103 10.22282638
v 6.38385644 13.16299355 9.92672176
v 6.88078931 13.12641296 10.07435573
v 7.37774709 13.08983237 10.22157257
v 7.86221081 12.98099133 10.35815866
v 6.79581612 13.12641296 11.48387887
v 7.29289183 13.08983237 11.63113135
v 7.77548871 12.98099133 11.80481818
v 8.34674468 12.87215029 10.49353438
v 8.80693578 12.69372883 10.61345418
v 9.26723134 12.51530737 10.73148878
v 8.2603827 12.87215029 11.94030194
v 8.71756858 12.69372883 12.12105518
v 9.17847937 12.51530737 12.23927206
v 9.5957524 7.94538999 10.32919303
v 10.0572729 7.76696853 10.42047115
v 10.86246412 7.22056278 10.54601803
v 10.48300015 7.52335997 10.49353384
v 11.51250354 7.22056278 10.697903
v 11.18861708 7.57509274 10.66748775
v 11.7751331 7.61809581 10.81272495
v 12.03547787 7.22056278 10.82009858
v 12.6902606 6.75576229 10.90566528
v 12.41850976 7.22056278 10.90959591
v 12.6521677 7.22056278 10.96419126
v 12.73069823 7.22056278 10.98254031
v 12.22812407 7.65131029 10.92529852
v 12.53645113 7.67391834 11.00212123
v 12.69253335 7.68536327 11.04107235
v 12.65431645 8.15016376 11.09919145
v 12.53852055 8.60351932 11.13588701
v 12.23227424 9.48762239 11.18306471
v 12.42271746 9.05687488 11.17137322
v 10.87432576 11.42249587 11.07022445
v 9.69190759 12.27169881 10.82996587
v 10.11670734 12.02809026 10.92606719
v 10.49545401 11.72529307 10.99946287
v 11.78159499 10.31590292 11.1774404
v 11.19780799 11.06796591 11.11624637
v 11.52139966 10.71343595 11.1596336
v 12.04186942 9.9183699 11.19287014
v 6.40372249 10.352267 13.54099628
v 6.83326912 10.59587555 13.59218504
v 7.29736883 10.77429701 13.6723125
v 7.78459172 10.88313805 13.77851256
v 6.71159242 13.12641296 12.88096954
v 7.20803656 13.08983237 13.04069012
v 7.69098433 12.98099133 13.21448268
v 8.28296986 10.91971864 13.90705355
v 8.7802884 10.88313805 14.05353944
v 9.26437976 10.77429701 14.21313835
v 8.17402072 12.87215029 13.38706951
v 8.631797 12.69372883 13.5679989
v 9.51125452 12.27169881 13.92886839
v 9.08972739 12.51530737 13.74705534
v 12.59160251 6.75576229 13.07353018
v 12.62973594 7.22056278 13.14987303
v 12.58926743 7.68536327 13.2078606
v 12.54874748 8.15016376 13.26542296
v 12.43070582 8.60351932 13.30156366
v 12.31265754 9.05687488 13.33648333
v 12.12008166 9.48762239 13.34762571
v 10.28188196 6.91776559 14.75603318
v 10.66053953 7.22056278 14.88068346
v 10.98790407 6.86603282 14.91191748
v 10.36348473 8.67644373 14.98676563
v 11.31057895 7.22056278 15.03256844
v 11.57481628 6.82302975 15.04085924
v 11.83355328 7.22056278 15.15476402
v 12.02815017 6.78981527 15.14005435
v 12.21658517 7.22056278 15.24426135
v 12.33672903 6.76720722 15.20737578
v 12.49294442 6.75576229 15.24139508
v 12.4502431 7.22056278 15.2988567
v 12.52877364 7.22056278 15.31720575
v 12.4860015 7.68536327 15.37464886
v 12.4431785 8.15016376 15.43165447
v 12.32289108 8.60351932 15.4672403
v 12.20259762 9.05687488 15.50159343
v 12.00788907 9.48762239 15.5121867
v 11.07779575 11.06796591 13.27870256
v 10.75256034 11.42249587 13.23218899
v 9.72341467 10.59587555 14.38082109
v 9.59916638 12.27169881 12.42083826
v 10.25750969 11.83968841 12.62745884
v 10.02485255 12.02809026 12.51719751
v 10.37219155 11.72529307 13.16100186
v 9.93299775 12.02809026 14.10832783
v 10.16634053 11.83968841 14.21878694
v 10.39978753 11.65128657 14.32823923
v 11.92754471 9.9183699 13.35687149
v 11.66530306 10.31590292 13.34091592
v 11.40314099 10.71343595 13.32257431
v 10.14618378 10.352267 14.55159224
v 10.38021457 10.16386515 14.65711682
v 10.49751971 10.0494698 15.18827661
v 10.35316763 10.16386515 15.16361734
v 10.63079492 11.42249587 15.39415353
v 10.9577835 11.06796591 15.44115875
v 10.34224921 11.65128657 15.34028788
v 10.37101837 11.65128657 14.83426355
v 10.51514998 11.53689122 14.86134747
v 10.48651322 11.53689122 15.36740946
v 11.81322001 9.9183699 15.52087284
v 11.54901114 10.31590292 15.50439144
v 11.28488232 10.71343595 15.48551502
f 23 31 38
f 22 24 43
f 25 44 26
f 27 51 47
f 27 28 51
f 30 33 37
f 31 36 38
f 32 34 39
f 34 35 39
f 36 40 38
f 37 40 36
f 24 38 42
f 38 40 42
f 24 196 43
f 32 41 33
f 32 39 41
f 33 41 37
f 37 41 195
f 37 195 40
f 24 42 196
f 26 44 45
f 28 46 51
f 28 45 46
f 43 197 44
f 44 198 45
f 48 52 53
f 48 53 49
f 50 54 55
f 54 60 55
f 56 59 57
f 57 59 61
f 51 204 52
f 52 205 53
f 46 204 51
f 52 204 205
f 53 212 54
f 54 212 60
f 59 60 213
f 59 213 61
f 40 195 199
f 42 200 196
f 43 196 197
f 44 197 201
f 44 201 198
f 45 198 46
f 46 198 206
f 197 203 201
f 198 201 202
f 53 205 208
f 204 207 205
f 53 208 212
f 60 212 213
f 61 213 665
f 205 207 209
f 208 211 212
f 208 210 211
f 212 215 213
f 212 214 215
f 213 216 672
f 58 477 467
f 468 470 469
f 469 470 471
f 472 478 473
f 474 475 476
f 470 654 471
f 58 665 477
f 58 61 665
f 470 477 654
f 471 654 655
f 473 478 656
f 475 479 476
f 471 655 478
f 475 657 664
f 475 664 479
f 480 490 481
f 485 491 486
f 480 489 490
f 485 490 491
f 490 693 491
f 491 689 492
f 487 492 690
f 487 690 493
f 493 691 494
f 487 493 505
f 493 494 507
f 494 696 508
f 493 507 505
f 494 508 507
f 508 696 730
f 477 666 654
f 477 665 666
f 654 666 669
f 478 655 658
f 478 658 656
f 656 662 657
f 656 658 659
f 479 663 489
f 479 664 663
f 655 679 658
f 656 659 662
f 655 660 679
f 659 661 662
f 657 662 664
f 662 682 664
f 665 667 666
f 213 671 665
f 666 670 669
f 666 668 673
f 666 673 670
f 213 672 671
f 668 674 673
f 660 686 679
f 660 680 686
f 662 688 682
f 680 685 686
f 489 693 490
f 491 693 689
f 489 663 693
f 492 689 690
f 494 691 696
f 493 690 691
f 690 692 691
f 663 699 693
f 689 694 690
f 689 695 694
f 691 733 696
f 691 692 731
f 663 700 699
f 691 731 733
f 692 732 731
f 696 733 730
f 579 580 581
f 580 583 581
f 581 583 593
f 580 584 583
f 584 585 586
f 585 589 587
f 584 586 583
f 585 587 586
f 583 586 594
f 586 587 602
f 589 591 587
f 587 591 603
f 589 590 591
f 590 838 592
f 590 592 591
f 838 849 592
f 591 592 604
f 592 849 606
f 583 594 593
f 593 594 600
f 564 598 855
f 597 855 598
f 597 857 855
f 594 586 602
f 587 603 602
f 600 601 599
f 600 594 601
f 599 601 858
f 594 602 601
f 601 602 859
f 603 591 604
f 597 599 857
f 599 858 857
f 601 859 858
f 602 603 605
f 602 605 859
f 603 604 860
f 603 860 605
f 604 606 860
f 592 606 604
f 813 812 814
f 812 817 814
f 814 817 815
f 815 817 821
f 815 821 820
f 812 816 817
f 816 818 817
f 564 856 816
f 816 856 819
f 816 819 818
f 817 818 821
f 818 819 827
f 820 821 824
f 820 824 822
f 818 825 821
f 818 827 825
f 821 825 824
f 822 824 823
f 824 826 823
f 823 826 828
f 824 825 826
f 819 868 827
f 838 839 849
f 839 840 850
f 840 841 850
f 841 842 851
f 842 843 852
f 843 844 853
f 839 850 849
f 841 851 850
f 849 850 872
f 850 851 872
f 842 852 851
f 843 853 852
f 844 837 853
f 564 855 856
f 819 856 869
f 819 869 868
f 855 861 856
f 856 861 869
f 855 857 861
f 857 858 862
f 859 865 858
f 605 864 859
f 605 860 863
f 837 864 853
f 853 864 863
f 837 865 864
f 857 862 861
f 858 865 862
f 605 863 864
f 860 873 863
f 859 864 865
f 606 849 872
f 851 873 872
f 606 873 860
f 606 872 873
f 851 852 873
f 852 863 873
f 852 853 863
f 4 131 119
f 11 32 12
f 12 33 13
f 12 32 33
f 11 35 32
f 4 5 65
f 9 66 5
f 4 65 131
f 9 10 71
f 10 11 72
f 11 12 73
f 29 30 31
f 30 36 31
f 30 37 36
f 32 35 34
f 65 278 131
f 9 71 66
f 5 66 65
f 12 70 73
f 10 72 71
f 11 73 72
f 65 291 278
f 65 299 291
f 71 299 66
f 65 66 299
f 71 72 299
f 72 73 299
f 73 94 299
f 70 91 94
f 70 94 73
f 94 95 299
f 95 96 299
f 91 95 94
f 91 92 95
f 96 104 299
f 104 105 299
f 92 93 96
f 92 96 95
f 93 104 96
f 105 106 299
f 106 110 299
f 299 110 109
f 299 109 114
f 299 114 115
f 299 115 117
f 299 117 342
f 100 101 102
f 93 98 104
f 98 105 104
f 98 99 105
f 99 100 106
f 99 106 105
f 100 102 110
f 100 110 106
f 110 113 109
f 118 120 123
f 120 121 122
f 118 124 119
f 4 119 164
f 9 5 166
f 4 165 5
f 118 119 125
f 118 139 120
f 120 144 121
f 120 122 123
f 118 123 124
f 119 124 164
f 4 164 165
f 5 165 166
f 121 150 122
f 122 155 123
f 123 160 124
f 124 170 164
f 9 167 10
f 10 168 11
f 11 218 35
f 9 166 167
f 10 167 168
f 11 168 218
f 119 129 125
f 118 125 139
f 119 131 129
f 120 139 144
f 121 144 150
f 122 150 155
f 123 155 160
f 124 160 170
f 164 175 165
f 165 180 166
f 166 185 167
f 167 190 168
f 168 229 218
f 164 170 175
f 165 175 180
f 166 180 185
f 167 185 190
f 168 190 229
f 40 199 42
f 35 218 39
f 41 199 195
f 39 218 41
f 42 199 200
f 196 203 197
f 41 218 199
f 196 200 219
f 199 219 200
f 198 202 206
f 196 219 203
f 201 203 220
f 201 220 202
f 46 206 204
f 204 206 207
f 205 209 208
f 208 209 210
f 211 214 212
f 213 215 216
f 199 218 219
f 203 219 220
f 202 220 206
f 206 220 221
f 218 234 219
f 219 239 220
f 206 221 207
f 207 221 222
f 207 222 209
f 209 222 210
f 210 222 211
f 211 225 214
f 211 222 225
f 214 225 215
f 215 738 216
f 215 223 738
f 215 225 223
f 220 245 221
f 221 251 222
f 223 225 256
f 222 266 225
f 219 226 228
f 219 234 226
f 218 229 234
f 219 228 237
f 219 237 238
f 219 238 239
f 220 239 241
f 220 241 243
f 220 243 245
f 234 235 226
f 242 243 241
f 221 247 249
f 221 245 247
f 221 249 248
f 221 248 251
f 222 251 261
f 225 266 252
f 225 252 253
f 225 254 256
f 225 253 254
f 222 261 263
f 222 263 264
f 222 264 266
f 654 660 655
f 654 669 660
f 658 661 659
f 658 679 661
f 665 671 667
f 666 667 668
f 660 669 670
f 660 670 680
f 670 683 680
f 670 673 675
f 667 671 672
f 667 672 676
f 672 737 676
f 673 674 675
f 674 677 675
f 677 739 678
f 675 677 678
f 661 679 681
f 680 683 685
f 683 684 685
f 684 687 685
f 672 736 737
f 112 109 113
f 112 113 111
f 112 114 109
f 112 116 114
f 116 115 114
f 116 117 115
f 227 226 235
f 227 360 236
f 236 361 240
f 240 364 244
f 244 376 246
f 246 377 250
f 255 258 257
f 269 127 136
f 270 126 127
f 270 128 126
f 274 142 128
f 271 135 134
f 271 134 130
f 269 136 135
f 272 130 133
f 137 273 132
f 272 133 132
f 269 270 127
f 274 128 270
f 271 130 272
f 272 132 273
f 269 135 271
f 274 138 142
f 275 141 140
f 275 140 138
f 274 275 138
f 275 276 141
f 276 143 141
f 276 145 143
f 277 146 145
f 277 147 146
f 276 277 145
f 274 270 293
f 272 273 278
f 269 271 286
f 269 287 270
f 271 272 288
f 290 272 278
f 274 292 275
f 275 294 276
f 276 295 277
f 277 295 300
f 279 148 147
f 279 149 148
f 280 151 149
f 277 279 147
f 280 149 279
f 280 152 151
f 281 153 152
f 281 154 153
f 280 281 152
f 281 282 154
f 282 156 154
f 282 157 156
f 283 158 157
f 282 283 157
f 283 159 158
f 284 161 159
f 284 162 161
f 285 163 162
f 285 169 163
f 283 284 159
f 284 285 162
f 277 300 279
f 280 279 303
f 280 304 281
f 281 306 282
f 279 300 303
f 280 303 304
f 281 304 306
f 282 307 283
f 283 308 284
f 284 309 285
f 282 306 307
f 283 307 308
f 284 308 309
f 285 309 320
f 271 289 286
f 270 287 293
f 269 286 287
f 290 288 272
f 271 288 289
f 286 289 298
f 290 291 288
f 274 293 292
f 275 292 294
f 276 294 295
f 301 292 293
f 287 297 293
f 286 302 287
f 296 294 292
f 301 293 297
f 296 292 301
f 295 294 300
f 296 300 294
f 287 302 297
f 286 298 302
f 289 305 298
f 289 332 305
f 289 288 332
f 288 291 333
f 296 303 300
f 296 301 304
f 296 304 303
f 301 297 306
f 307 297 302
f 301 306 304
f 308 302 298
f 306 297 307
f 309 298 305
f 307 302 308
f 308 298 309
f 309 305 320
f 305 335 320
f 288 333 332
f 305 332 335
f 320 335 321
f 321 336 322
f 322 336 323
f 321 335 336
f 323 336 337
f 285 310 169
f 310 171 169
f 310 172 171
f 311 173 172
f 311 174 173
f 310 311 172
f 312 176 174
f 311 312 174
f 312 177 176
f 313 178 177
f 313 179 178
f 312 313 177
f 313 314 179
f 285 320 310
f 310 321 311
f 311 322 312
f 312 323 313
f 313 324 314
f 310 320 321
f 311 321 322
f 312 322 323
f 313 323 324
f 314 181 179
f 314 182 181
f 315 183 182
f 315 184 183
f 314 315 182
f 316 186 184
f 316 187 186
f 315 316 184
f 316 317 187
f 317 188 187
f 317 189 188
f 318 191 189
f 318 192 191
f 319 193 192
f 319 194 193
f 317 318 189
f 318 319 192
f 319 365 194
f 314 325 315
f 315 326 316
f 316 327 317
f 317 328 318
f 318 329 319
f 319 330 365
f 323 337 324
f 314 324 325
f 315 325 326
f 316 326 327
f 324 337 325
f 325 338 326
f 326 338 327
f 317 327 328
f 318 328 329
f 319 329 330
f 327 339 328
f 332 333 341
f 332 341 335
f 335 341 336
f 336 341 337
f 325 337 338
f 327 338 339
f 329 339 340
f 340 354 407
f 337 341 338
f 338 341 339
f 339 341 340
f 340 341 354
f 354 341 355
f 116 358 117
f 358 342 117
f 358 341 342
f 355 341 356
f 356 341 357
f 357 341 359
f 359 341 358
f 354 355 409
f 355 356 412
f 356 357 427
f 357 359 433
f 359 358 430
f 358 1047 430
f 365 230 194
f 365 231 230
f 366 232 231
f 227 235 367
f 366 233 232
f 367 235 233
f 365 366 231
f 366 367 233
f 227 367 371
f 227 363 360
f 236 360 361
f 227 371 363
f 240 361 362
f 240 362 364
f 360 372 361
f 361 373 362
f 362 375 364
f 365 407 366
f 366 408 367
f 360 363 400
f 360 400 372
f 361 372 373
f 362 373 374
f 362 374 375
f 363 371 404
f 367 409 371
f 363 401 400
f 244 364 376
f 246 376 377
f 250 382 262
f 250 377 382
f 364 385 376
f 376 386 377
f 255 267 378
f 255 379 258
f 379 749 259
f 379 259 258
f 267 384 378
f 255 378 379
f 262 383 265
f 262 382 383
f 265 384 267
f 265 383 384
f 364 375 385
f 376 385 386
f 377 387 382
f 377 386 387
f 378 384 388
f 378 389 379
f 384 393 388
f 378 388 389
f 382 392 383
f 382 387 392
f 383 393 384
f 383 392 393
f 365 330 407
f 366 407 408
f 367 408 409
f 363 404 401
f 371 409 410
f 371 410 404
f 402 403 405
f 401 404 403
f 403 404 405
f 402 405 411
f 402 411 406
f 406 411 423
f 328 339 329
f 329 340 330
f 330 340 407
f 354 408 407
f 354 409 408
f 355 410 409
f 355 412 410
f 404 410 405
f 405 412 411
f 405 410 412
f 411 412 424
f 415 425 416
f 406 423 415
f 415 423 425
f 416 426 417
f 388 393 418
f 389 1032 1031
f 418 1033 1032
f 388 1032 389
f 388 418 1032
f 356 424 412
f 357 428 427
f 356 427 424
f 423 427 425
f 411 424 423
f 423 424 427
f 416 425 426
f 417 426 431
f 425 428 426
f 425 427 428
f 426 428 433
f 419 422 429
f 422 432 429
f 419 1042 1040
f 419 429 1042
f 432 430 429
f 357 433 428
f 359 434 433
f 359 430 434
f 432 434 430
f 429 1047 1042
f 429 430 1047
f 417 431 421
f 421 432 422
f 421 431 432
f 426 433 431
f 431 434 432
f 431 433 434
f 612 107 103
f 612 613 619
f 613 614 620
f 612 618 107
f 612 619 618
f 618 108 107
f 613 620 619
f 614 621 620
f 618 111 108
f 618 619 623
f 619 620 624
f 614 615 621
f 615 622 621
f 615 616 622
f 616 905 622
f 112 111 618
f 112 618 623
f 619 624 623
f 620 625 624
f 112 623 116
f 620 621 625
f 621 626 625
f 621 622 626
f 622 906 626
f 813 814 887
f 814 815 888
f 815 820 893
f 814 888 887
f 815 893 888
f 822 823 829
f 823 828 830
f 820 822 903
f 823 830 829
f 822 829 904
f 829 830 897
f 820 903 893
f 887 888 894
f 888 893 913
f 888 913 894
f 822 904 903
f 829 897 916
f 829 916 904
f 897 898 917
f 898 902 918
f 902 935 918
f 897 917 916
f 898 918 917
f 616 885 905
f 885 912 905
f 116 623 907
f 623 624 908
f 624 625 910
f 623 908 907
f 624 910 908
f 622 905 906
f 905 914 906
f 625 626 909
f 626 906 911
f 116 907 358
f 625 909 910
f 626 911 909
f 906 921 911
f 885 890 912
f 890 894 913
f 890 913 912
f 893 903 915
f 893 915 913
f 903 919 915
f 905 912 914
f 912 913 915
f 912 915 914
f 906 914 921
f 903 904 919
f 904 916 920
f 916 917 924
f 917 918 926
f 918 955 926
f 904 920 919
f 916 924 920
f 914 915 922
f 914 922 921
f 915 923 922
f 915 919 923
f 919 920 925
f 917 926 924
f 919 925 923
f 920 924 925
f 924 959 925
f 924 926 959
f 928 1036 930
f 928 929 927
f 930 1037 932
f 929 930 931
f 928 930 929
f 930 932 931
f 936 937 938
f 937 944 939
f 937 939 938
f 935 936 955
f 935 955 918
f 936 956 955
f 936 938 956
f 938 939 940
f 939 947 941
f 938 940 957
f 939 941 940
f 943 947 944
f 927 945 943
f 943 945 947
f 939 944 947
f 927 929 945
f 945 948 947
f 929 946 945
f 945 946 948
f 947 948 941
f 929 931 946
f 907 908 1046
f 358 907 1047
f 908 910 1045
f 909 953 910
f 909 911 954
f 911 921 965
f 911 965 954
f 933 1043 951
f 934 933 952
f 934 952 963
f 933 951 952
f 908 1045 1046
f 907 1046 1047
f 910 953 1045
f 909 954 953
f 951 1044 953
f 951 954 952
f 952 954 965
f 951 953 954
f 955 956 959
f 938 957 956
f 940 942 957
f 942 949 958
f 949 962 958
f 942 958 957
f 926 955 959
f 956 960 959
f 922 923 961
f 921 922 964
f 923 925 960
f 925 959 960
f 923 960 961
f 956 957 960
f 957 958 960
f 958 962 961
f 921 964 965
f 922 961 964
f 961 962 964
f 958 961 960
f 949 950 962
f 934 963 950
f 950 963 962
f 962 963 964
f 952 965 963
f 963 965 964
f 1025 1029 1027
f 1027 1030 1028
f 1025 1027 1037
f 1027 1028 1038
f 1029 1031 1030
f 1031 1032 1030
f 1027 1029 1030
f 1030 1032 1033
f 1028 1030 1033
f 1025 1037 1036
f 930 1036 1037
f 1027 1038 1037
f 932 1037 1038
f 1039 1040 1041
f 1039 1044 1043
f 1039 1041 1044
f 1040 1042 1041
f 951 1043 1044
f 1041 1042 1046
f 1041 1045 1044
f 1041 1046 1045
f 1042 1047 1046
f 953 1044 1045
f 223 224 738
f 223 260 224
f 223 256 257
f 223 257 260
f 224 260 268
f 224 268 758
f 260 257 258
f 661 681 662
f 663 664 700
f 667 674 668
f 670 675 683
f 672 216 736
f 667 677 674
f 667 676 677
f 675 684 683
f 676 739 677
f 675 678 687
f 662 681 688
f 679 686 681
f 681 686 688
f 664 682 700
f 675 687 684
f 685 687 686
f 689 693 695
f 693 699 695
f 690 694 692
f 692 697 732
f 697 698 734
f 692 694 747
f 694 695 746
f 692 747 697
f 697 748 698
f 697 734 732
f 698 735 734
f 216 738 736
f 736 741 737
f 676 737 739
f 737 742 739
f 678 739 742
f 678 743 687
f 224 740 738
f 736 738 741
f 738 740 741
f 737 741 742
f 678 742 743
f 686 687 743
f 686 744 688
f 682 688 744
f 682 745 700
f 686 743 744
f 682 744 745
f 224 758 740
f 740 761 741
f 741 763 742
f 742 764 743
f 743 765 744
f 744 766 745
f 699 700 745
f 695 699 746
f 699 745 746
f 694 746 747
f 697 747 748
f 745 767 746
f 746 768 747
f 747 769 748
f 740 758 761
f 741 761 763
f 742 763 764
f 743 764 765
f 744 765 766
f 745 766 767
f 746 767 768
f 747 768 769
f 698 770 735
f 770 771 779
f 771 772 780
f 772 773 781
f 698 788 770
f 770 789 771
f 771 790 772
f 773 774 782
f 774 775 783
f 772 795 773
f 773 794 774
f 774 797 775
f 775 796 776
f 776 793 777
f 775 776 784
f 776 777 785
f 777 778 786
f 770 779 735
f 771 780 779
f 772 781 780
f 773 782 781
f 774 783 782
f 775 784 783
f 776 785 784
f 777 786 785
f 778 787 786
f 698 748 788
f 770 788 789
f 771 789 790
f 772 790 795
f 748 798 788
f 788 799 789
f 789 800 790
f 773 795 794
f 774 794 797
f 775 797 796
f 777 792 778
f 778 792 791
f 776 796 793
f 777 793 792
f 778 791 787
f 791 792 801
f 792 793 802
f 793 796 803
f 790 805 795
f 794 795 804
f 797 806 796
f 794 807 797
f 748 769 798
f 788 798 799
f 789 799 800
f 790 800 805
f 791 801 787
f 792 802 801
f 793 803 802
f 796 806 803
f 794 804 807
f 795 805 804
f 797 807 806
f 379 750 749
f 379 380 750
f 380 381 751
f 379 390 380
f 380 391 381
f 379 389 390
f 380 390 391
f 389 1031 394
f 389 394 390
f 390 395 391
f 381 391 974
f 391 396 974
f 390 394 395
f 391 395 396
f 394 420 395
f 396 395 978
f 395 420 978
f 394 1034 420
f 755 754 753
f 828 826 830
f 826 825 831
f 825 827 832
f 827 868 833
f 830 831 897
f 826 831 830
f 825 832 831
f 827 833 832
f 868 870 833
f 831 832 896
f 832 833 899
f 833 870 900
f 844 845 837
f 845 846 854
f 845 854 837
f 846 847 874
f 846 874 854
f 847 848 875
f 861 862 866
f 861 866 871
f 862 865 867
f 862 867 866
f 865 877 867
f 868 869 870
f 869 861 871
f 869 871 870
f 870 871 968
f 866 969 871
f 837 854 865
f 854 874 877
f 854 877 865
f 847 875 874
f 848 876 875
f 874 875 970
f 874 970 877
f 875 876 971
f 831 896 897
f 897 896 898
f 896 901 898
f 832 899 896
f 833 900 899
f 900 870 968
f 896 899 901
f 898 901 902
f 927 943 1049
f 866 867 966
f 866 966 969
f 867 877 967
f 867 967 966
f 871 969 968
f 900 968 1093
f 968 969 1093
f 877 970 967
f 875 971 970
f 876 972 971
f 966 1095 969
f 966 967 1095
f 967 970 1096
f 970 971 1096
f 899 1092 901
f 899 900 1092
f 901 1094 902
f 902 1094 935
f 935 973 936
f 937 1048 944
f 936 973 937
f 943 944 1048
f 901 1092 1094
f 900 1093 1092
f 969 1095 1093
f 935 1094 973
f 937 973 1048
f 380 752 750
f 380 751 752
f 381 753 751
f 381 755 753
f 755 974 756
f 756 975 757
f 757 976 759
f 759 977 760
f 760 986 762
f 381 974 755
f 756 974 975
f 757 975 976
f 759 976 977
f 760 977 986
f 396 975 974
f 975 979 976
f 976 981 977
f 977 996 986
f 396 979 975
f 396 978 979
f 976 979 981
f 977 981 996
f 762 987 983
f 983 988 984
f 984 989 985
f 762 986 987
f 983 987 988
f 984 988 989
f 985 991 990
f 985 989 991
f 990 995 992
f 992 1001 993
f 990 991 995
f 992 995 1001
f 993 1002 994
f 993 1001 1002
f 994 1002 1014
f 986 997 987
f 987 998 988
f 988 999 989
f 989 999 1000
f 986 996 997
f 987 997 998
f 988 998 999
f 989 1000 991
f 991 1003 995
f 995 1004 1001
f 1001 1005 1002
f 991 1000 1003
f 995 1003 1004
f 1001 1004 1005
f 1002 1005 1017
f 994 1014 1008
f 1008 1015 1009
f 1008 1014 1015
f 1009 1016 1010
f 1009 1015 1016
f 1010 1021 1011
f 1011 1022 1012
f 1012 1023 1013
f 1002 1017 1014
f 1014 1018 1015
f 1010 1016 1021
f 1015 1019 1016
f 1016 1020 1021
f 1014 1017 1018
f 1015 1018 1019
f 1016 1019 1020
f 1011 1021 1022
f 1012 1022 1023
f 1013 1024 1126
f 1013 1023 1024
f 1021 1053 1022
f 1021 1020 1053
f 1022 1053 1054
f 1022 1054 1023
f 1023 1055 1024
f 1023 1054 1055
f 1025 1036 1035
f 1025 1034 1029
f 1025 1035 1034
f 1029 1034 1031
f 394 1031 1034
f 420 1034 1035
f 420 1035 1026
f 928 1026 1035
f 928 1035 1036
f 928 927 1026
f 927 1049 1026
f 420 1026 1050
f 1026 1049 1050
f 943 1048 1049
f 848 1056 876
f 1056 1057 1062
f 1057 1058 1063
f 1058 1059 1064
f 1059 1060 1065
f 1060 1061 1066
f 1056 1062 876
f 1057 1063 1062
f 1058 1064 1063
f 876 1062 972
f 1062 1063 1085
f 1063 1064 1086
f 1064 1065 1087
f 1059 1065 1064
f 1065 1066 1088
f 1060 1066 1065
f 1061 1068 1067
f 1061 1067 1066
f 1068 1072 1067
f 1068 1069 1072
f 1069 1073 1072
f 1069 1070 1073
f 1070 1074 1073
f 1070 1071 1074
f 1071 1076 1075
f 1071 1075 1074
f 1076 1078 1075
f 1076 1077 1078
f 1077 1079 1103
f 1079 1080 1104
f 1080 1081 1105
f 1077 1103 1078
f 1079 1104 1103
f 1080 1105 1104
f 1081 1106 1105
f 1081 1082 1106
f 1082 1083 1107
f 1082 1107 1106
f 1083 1108 1107
f 1083 1084 1108
f 1084 1147 1109
f 1084 1109 1108
f 972 1062 1085
f 1063 1086 1085
f 1064 1087 1086
f 971 972 1097
f 972 1085 1097
f 1085 1086 1098
f 1086 1087 1098
f 1065 1088 1087
f 1066 1089 1088
f 1066 1067 1089
f 1067 1072 1090
f 1067 1090 1089
f 1072 1091 1090
f 1087 1088 1099
f 1088 1089 1099
f 1089 1090 1111
f 1090 1091 1111
f 967 1096 1095
f 971 1097 1096
f 1085 1098 1097
f 1092 1093 1190
f 1087 1099 1098
f 1089 1111 1099
f 1093 1095 1190
f 1095 1096 1190
f 1096 1097 1190
f 1097 1098 1190
f 1098 1099 1190
f 1072 1073 1091
f 1073 1100 1091
f 1073 1074 1100
f 1074 1075 1101
f 1075 1078 1102
f 1074 1101 1100
f 1075 1102 1101
f 1078 1110 1102
f 1091 1100 1112
f 1100 1101 1187
f 1091 1112 1111
f 1078 1103 1110
f 1103 1104 1113
f 1104 1105 1114
f 1105 1106 1115
f 1103 1113 1110
f 1104 1114 1113
f 1105 1115 1114
f 1106 1116 1115
f 1106 1107 1116
f 1107 1108 1117
f 1107 1117 1116
f 1108 1118 1117
f 1108 1109 1118
f 1109 1180 1119
f 1109 1119 1118
f 1101 1102 1188
f 1102 1110 1189
f 1100 1187 1112
f 1099 1111 1190
f 1111 1112 1190
f 1101 1188 1187
f 1102 1189 1188
f 1110 1191 1189
f 1110 1113 1191
f 1113 1114 1192
f 1114 1115 1193
f 1113 1192 1191
f 1114 1193 1192
f 1115 1194 1193
f 1115 1116 1194
f 1116 1117 1195
f 1117 1118 1196
f 1116 1195 1194
f 1117 1196 1195
f 1118 1119 1198
f 1126 1130 1127
f 1126 1024 1130
f 1127 1130 1131
f 1127 1131 1128
f 1128 1132 1129
f 1128 1131 1132
f 1024 1170 1130
f 1024 1055 1170
f 1130 1171 1131
f 1131 1172 1132
f 1129 1136 1133
f 1133 1137 1134
f 1134 1138 1135
f 1135 1208 1159
f 1129 1132 1136
f 1133 1136 1137
f 1134 1137 1138
f 1135 1138 1208
f 1147 1150 1180
f 1150 1153 1181
f 1147 1180 1109
f 1153 1154 1182
f 1154 1155 1183
f 1155 1157 1184
f 1157 1156 1185
f 1156 1165 1186
f 1158 1205 1163
f 1159 1210 1160
f 1160 1211 1161
f 1159 1208 1210
f 1160 1209 1211
f 1160 1210 1209
f 1158 1161 1206
f 1162 1215 1165
f 1162 1164 1216
f 1163 1217 1164
f 1092 1190 1094
f 973 1094 1190
f 973 1190 1048
f 1048 1190 1049
f 1050 1049 1190
f 1130 1170 1171
f 1131 1171 1172
f 1132 1172 1176
f 1132 1176 1136
f 1136 1177 1137
f 1136 1176 1177
f 1137 1179 1138
f 1138 1178 1208
f 1137 1177 1179
f 1138 1179 1178
f 1150 1181 1180
f 1153 1182 1181
f 1154 1183 1182
f 1180 1181 1197
f 1181 1182 1199
f 1182 1183 1200
f 1155 1184 1183
f 1157 1185 1184
f 1156 1186 1185
f 1186 1165 1215
f 1183 1184 1201
f 1185 1202 1184
f 1185 1186 1203
f 1186 1215 1204
f 1112 1187 1220
f 1112 1220 1190
f 1187 1188 1222
f 1188 1189 1223
f 1190 1220 1221
f 1187 1222 1220
f 1189 1230 1223
f 1191 1192 1229
f 1192 1193 1228
f 1119 1180 1197
f 1181 1199 1197
f 1118 1198 1196
f 1119 1197 1198
f 1196 1198 1201
f 1197 1200 1198
f 1197 1199 1200
f 1182 1200 1199
f 1183 1201 1200
f 1195 1196 1202
f 1194 1195 1203
f 1193 1194 1204
f 1198 1200 1201
f 1196 1201 1202
f 1189 1191 1230
f 1192 1228 1229
f 1193 1204 1228
f 1215 1228 1204
f 1191 1229 1230
f 1185 1203 1202
f 1184 1202 1201
f 1194 1203 1204
f 1195 1202 1203
f 1186 1204 1203
f 1158 1206 1205
f 1205 1206 1223
f 1208 1212 1210
f 1209 1210 1213
f 1161 1211 1206
f 1208 1178 1212
f 1209 1213 1214
f 1210 1212 1213
f 1209 1226 1211
f 1209 1214 1226
f 1206 1211 1222
f 1164 1217 1216
f 1162 1216 1215
f 1163 1205 1217
f 1215 1216 1228
f 1216 1217 1229
f 1205 1230 1217
f 1220 1227 1221
f 1188 1223 1222
f 1205 1223 1230
f 1206 1222 1223
f 1220 1222 1227
f 1226 1227 1222
f 1221 1227 1224
f 1211 1226 1222
f 1214 1225 1226
f 1225 1227 1226
f 1225 1224 1227
f 1217 1230 1229
f 1216 1229 1228
f 1 2 13
f 1 63 2
f 2 64 3
f 2 3 8
f 3 6 7
f 3 7 8
f 2 8 13
f 8 12 13
f 3 67 6
f 6 68 7
f 7 69 8
f 8 69 12
f 14 24 15
f 1 23 14
f 15 26 16
f 16 26 17
f 15 25 26
f 17 27 47
f 17 47 48
f 17 26 27
f 17 48 18
f 18 50 19
f 19 55 20
f 20 57 435
f 18 48 49
f 18 49 50
f 19 50 55
f 20 55 56
f 20 56 57
f 57 58 435
f 14 15 76
f 15 16 77
f 16 17 78
f 17 18 79
f 1 14 62
f 18 19 80
f 19 20 81
f 20 435 82
f 82 435 21
f 1 13 29
f 1 29 23
f 14 23 24
f 15 24 22
f 23 29 31
f 23 38 24
f 15 22 25
f 22 44 25
f 22 43 44
f 26 28 27
f 26 45 28
f 13 30 29
f 13 33 30
f 49 53 50
f 47 52 48
f 47 51 52
f 50 53 54
f 55 59 56
f 55 60 59
f 57 61 58
f 1 62 63
f 2 63 64
f 62 70 63
f 3 64 67
f 6 67 68
f 7 68 69
f 12 69 70
f 63 69 64
f 64 68 67
f 64 69 68
f 62 91 70
f 63 70 69
f 16 78 77
f 15 77 76
f 17 79 78
f 14 76 62
f 18 80 79
f 19 81 80
f 20 82 81
f 82 21 74
f 77 78 92
f 62 76 91
f 76 77 91
f 78 79 93
f 79 80 93
f 82 74 83
f 82 83 85
f 82 85 87
f 80 81 98
f 81 82 99
f 82 87 88
f 82 88 100
f 77 92 91
f 78 93 92
f 80 98 93
f 81 99 98
f 82 100 99
f 100 88 101
f 435 467 436
f 436 469 437
f 435 436 444
f 436 437 448
f 437 438 451
f 438 439 454
f 58 467 435
f 436 467 468
f 436 468 469
f 437 474 438
f 438 480 439
f 437 469 472
f 437 472 473
f 437 473 474
f 438 474 476
f 439 440 457
f 439 485 440
f 440 488 441
f 441 484 442
f 440 441 460
f 441 442 463
f 442 443 465
f 435 444 21
f 436 448 444
f 437 451 448
f 438 454 451
f 439 457 454
f 440 460 457
f 441 463 460
f 442 465 463
f 443 466 465
f 467 470 468
f 467 477 470
f 438 476 480
f 469 471 472
f 471 478 472
f 473 656 474
f 474 656 475
f 476 479 480
f 475 656 657
f 479 489 480
f 439 480 481
f 439 481 485
f 440 485 486
f 440 486 488
f 441 488 484
f 442 483 443
f 442 484 483
f 443 483 482
f 443 482 466
f 482 483 502
f 483 484 503
f 481 490 485
f 486 487 488
f 486 491 492
f 486 492 487
f 484 488 504
f 487 506 488
f 482 502 466
f 483 503 502
f 484 504 503
f 488 506 504
f 487 505 506
f 509 74 21
f 531 83 74
f 531 84 83
f 531 85 84
f 86 85 531
f 86 87 85
f 86 88 87
f 88 102 101
f 445 509 21
f 445 446 510
f 446 447 510
f 447 449 511
f 449 450 512
f 450 452 513
f 445 510 509
f 447 511 510
f 449 512 511
f 450 513 512
f 452 453 514
f 453 455 515
f 455 456 516
f 452 514 513
f 453 515 514
f 455 516 515
f 456 458 517
f 456 517 516
f 509 531 74
f 509 510 532
f 510 511 532
f 511 512 533
f 512 513 534
f 513 514 535
f 514 515 536
f 515 516 537
f 516 517 538
f 517 518 539
f 458 459 518
f 459 461 519
f 461 462 520
f 458 518 517
f 459 519 518
f 461 520 519
f 518 519 543
f 519 520 544
f 520 525 545
f 462 464 525
f 464 521 526
f 462 525 520
f 464 526 525
f 521 527 526
f 521 522 527
f 522 523 528
f 522 528 527
f 523 524 529
f 524 565 530
f 525 526 546
f 526 527 547
f 527 528 548
f 523 529 528
f 524 530 529
f 528 529 549
f 529 530 550
f 509 532 531
f 511 533 532
f 512 534 533
f 513 535 534
f 86 531 532
f 532 533 540
f 533 534 541
f 534 535 607
f 514 536 535
f 515 537 536
f 516 538 537
f 517 539 538
f 535 536 608
f 536 537 609
f 86 532 540
f 533 541 540
f 534 542 541
f 534 607 542
f 535 608 607
f 537 538 611
f 538 539 610
f 536 609 608
f 537 611 609
f 538 610 611
f 539 629 610
f 518 543 539
f 519 544 543
f 520 545 544
f 525 546 545
f 526 547 546
f 527 548 547
f 539 543 629
f 543 544 628
f 544 545 632
f 545 546 630
f 543 628 629
f 544 632 628
f 546 547 633
f 547 548 631
f 545 630 632
f 546 633 630
f 547 631 633
f 548 636 631
f 528 549 548
f 529 550 549
f 530 571 551
f 530 551 550
f 548 549 636
f 549 550 634
f 549 634 636
f 550 551 637
f 564 617 645
f 565 566 571
f 566 567 573
f 567 568 572
f 568 569 574
f 569 570 575
f 565 571 530
f 566 573 571
f 567 572 573
f 568 574 572
f 569 575 574
f 570 576 575
f 577 582 578
f 577 579 581
f 578 595 588
f 577 581 582
f 578 582 596
f 581 593 582
f 570 588 576
f 578 596 595
f 582 593 643
f 582 643 596
f 593 600 646
f 593 646 643
f 597 647 599
f 597 644 647
f 564 645 598
f 597 598 644
f 598 645 644
f 600 599 647
f 600 647 646
f 588 595 576
f 86 540 612
f 86 612 88
f 540 541 613
f 541 542 614
f 612 102 88
f 540 613 612
f 542 607 616
f 607 608 885
f 608 609 891
f 609 611 895
f 611 610 627
f 541 614 613
f 542 615 614
f 542 616 615
f 607 885 616
f 612 103 102
f 608 891 885
f 609 895 891
f 611 627 895
f 610 653 627
f 617 627 653
f 631 648 633
f 610 629 653
f 629 628 652
f 628 632 651
f 630 649 632
f 630 633 650
f 571 573 635
f 551 571 635
f 572 574 639
f 573 572 638
f 573 638 635
f 550 637 634
f 551 635 637
f 572 639 638
f 634 641 636
f 635 639 637
f 635 638 639
f 634 637 640
f 631 636 642
f 574 575 640
f 575 576 641
f 574 640 639
f 575 641 640
f 576 642 641
f 631 642 648
f 630 650 649
f 633 648 650
f 637 639 640
f 634 640 641
f 636 641 642
f 595 596 648
f 646 649 643
f 596 643 650
f 629 652 653
f 595 648 642
f 596 650 648
f 643 649 650
f 644 651 647
f 644 645 652
f 617 653 645
f 646 647 651
f 644 652 651
f 645 653 652
f 646 651 649
f 576 595 642
f 628 651 652
f 632 649 651
f 813 887 812
f 812 886 816
f 812 887 886
f 564 816 617
f 816 886 889
f 617 816 889
f 887 894 886
f 886 892 889
f 617 889 627
f 886 894 892
f 885 891 890
f 890 891 892
f 890 892 894
f 891 895 892
f 889 892 895
f 627 889 895
f 21 217 74
f 83 74 217
f 83 217 75
f 83 84 85
f 217 97 75
f 217 89 97
f 217 90 89
f 217 331 90
f 102 103 107
f 110 102 107
f 110 107 108
f 110 108 111
f 110 111 113
f 444 217 21
f 444 448 217
f 448 451 217
f 451 454 217
f 454 457 217
f 457 460 217
f 460 463 217
f 463 465 217
f 508 702 217
f 504 506 217
f 505 217 506
f 505 507 217
f 507 508 217
f 508 730 702
f 465 466 217
f 466 502 217
f 502 503 217
f 503 504 217
f 555 74 83
f 555 83 75
f 555 75 97
f 445 21 495
f 445 496 446
f 446 496 447
f 447 497 449
f 449 497 450
f 450 498 452
f 452 498 453
f 453 499 455
f 445 495 496
f 447 496 497
f 450 497 498
f 453 498 499
f 455 499 456
f 456 500 458
f 458 500 459
f 456 499 500
f 459 500 501
f 459 501 461
f 461 501 462
f 462 552 464
f 495 718 496
f 496 718 497
f 497 718 498
f 498 718 499
f 499 718 500
f 500 718 501
f 462 501 552
f 501 718 552
f 718 560 559
f 718 561 560
f 718 553 552
f 718 554 553
f 718 556 554
f 718 557 556
f 718 558 557
f 718 559 558
f 495 21 74
f 495 74 555
f 464 552 521
f 521 553 522
f 495 555 718
f 555 97 563
f 718 555 563
f 718 562 561
f 718 808 562
f 559 560 577
f 560 561 580
f 561 562 585
f 563 97 89
f 718 563 331
f 563 89 90
f 563 90 331
f 521 552 553
f 523 553 554
f 522 553 523
f 523 554 524
f 524 554 565
f 556 566 565
f 554 556 565
f 556 557 567
f 556 567 566
f 557 568 567
f 557 569 568
f 557 558 569
f 558 559 588
f 559 578 588
f 560 579 577
f 559 577 578
f 558 570 569
f 558 588 570
f 560 580 579
f 561 584 580
f 561 585 584
f 562 808 590
f 562 589 585
f 562 590 589
f 808 838 590
f 125 129 127
f 125 128 139
f 125 127 126
f 125 126 128
f 129 134 135
f 129 131 130
f 131 133 130
f 131 132 133
f 131 137 132
f 129 130 134
f 129 135 136
f 129 136 127
f 139 128 142
f 139 142 138
f 139 138 140
f 139 140 141
f 139 141 144
f 144 141 143
f 144 143 145
f 144 145 146
f 144 146 147
f 144 147 150
f 150 147 148
f 150 148 149
f 150 149 151
f 150 151 152
f 150 152 155
f 155 152 153
f 155 153 154
f 155 154 156
f 155 156 157
f 155 157 160
f 160 157 158
f 160 158 159
f 160 159 161
f 160 161 162
f 160 162 170
f 170 162 163
f 170 163 169
f 170 169 171
f 170 171 172
f 170 172 175
f 175 172 173
f 175 173 174
f 175 174 176
f 175 176 177
f 175 177 180
f 180 177 178
f 180 178 179
f 180 179 181
f 180 181 182
f 180 182 183
f 180 183 185
f 185 183 184
f 185 184 186
f 185 186 187
f 185 187 188
f 185 188 190
f 190 188 189
f 190 189 191
f 190 191 229
f 229 191 192
f 229 192 193
f 229 193 194
f 229 194 230
f 229 230 231
f 229 231 233
f 231 232 233
f 229 233 234
f 234 233 235
f 260 258 259
f 260 259 268
f 131 273 137
f 131 278 273
f 299 333 291
f 299 341 333
f 299 342 341
f 227 228 226
f 227 236 228
f 236 237 228
f 236 238 237
f 236 239 238
f 236 240 239
f 240 241 239
f 240 244 241
f 244 242 241
f 244 243 242
f 244 245 243
f 244 246 245
f 246 247 245
f 250 249 247
f 250 248 249
f 250 251 248
f 250 262 251
f 246 250 247
f 267 252 266
f 255 253 252
f 255 254 253
f 255 252 267
f 256 254 257
f 255 257 254
f 262 265 261
f 262 261 251
f 265 263 261
f 265 264 263
f 265 266 264
f 265 267 266
f 290 278 291
f 718 702 701
f 718 707 703
f 718 703 704
f 718 704 705
f 718 705 706
f 718 701 707
f 718 706 708
f 718 708 709
f 718 709 710
f 718 710 711
f 718 711 712
f 718 712 713
f 718 713 714
f 718 714 715
f 718 715 716
f 718 716 717
f 718 717 719
f 718 719 720
f 718 720 721
f 718 721 726
f 721 720 723
f 718 726 727
f 721 723 722
f 721 722 724
f 721 724 725
f 721 725 726
f 726 725 728
f 726 728 729
f 726 755 727
f 726 729 755
f 727 755 756
f 755 729 754
f 217 702 331
f 718 331 702
f 730 701 702
f 733 707 701
f 733 703 707
f 733 704 703
f 733 705 704
f 731 706 705
f 732 708 706
f 732 709 708
f 732 710 709
f 732 711 710
f 732 712 711
f 732 713 712
f 732 714 713
f 732 715 714
f 732 716 715
f 732 717 716
f 732 719 717
f 732 720 719
f 731 732 706
f 732 723 720
f 732 722 723
f 732 724 722
f 732 725 724
f 732 268 754
f 732 728 725
f 732 729 728
f 732 754 729
f 734 758 268
f 730 733 701
f 731 705 733
f 732 734 268
f 734 735 758
f 735 779 761
f 763 779 780
f 763 780 781
f 259 749 750
f 259 750 752
f 268 259 752
f 268 752 751
f 268 751 753
f 268 753 754
f 735 761 758
f 761 779 763
f 763 783 764
f 764 783 765
f 765 783 766
f 766 783 767
f 763 781 782
f 763 782 783
f 783 784 804
f 784 785 807
f 767 783 768
f 768 783 769
f 769 783 798
f 783 799 798
f 783 800 799
f 783 805 800
f 783 804 805
f 785 786 806
f 786 787 803
f 787 801 802
f 786 803 806
f 787 802 803
f 784 807 804
f 785 806 807
f 718 727 811
f 727 756 834
f 835 756 757
f 836 757 759
f 718 809 808
f 718 810 809
f 718 811 810
f 727 834 811
f 834 756 835
f 835 757 836
f 836 759 878
f 808 809 839
f 809 810 841
f 810 811 843
f 808 839 838
f 809 840 839
f 809 841 840
f 810 842 841
f 810 843 842
f 811 844 843
f 811 834 844
f 834 845 844
f 835 846 845
f 836 847 846
f 847 878 848
f 848 879 1056
f 880 1057 1056
f 834 835 845
f 835 836 846
f 836 878 847
f 848 878 879
f 879 880 1056
f 880 881 1057
f 881 882 1058
f 882 883 1060
f 878 759 760
f 879 760 762
f 878 760 879
f 879 762 880
f 880 983 881
f 880 762 983
f 881 983 984
f 984 985 1006
f 881 984 882
f 882 984 883
f 883 984 884
f 884 984 1006
f 985 1007 1006
f 992 1120 1007
f 994 1121 1120
f 1009 1122 1121
f 985 990 1007
f 990 992 1007
f 992 993 1120
f 993 994 1120
f 994 1008 1121
f 1008 1009 1121
f 1009 1010 1122
f 1010 1011 1122
f 1011 1012 1123
f 881 1058 1057
f 882 1059 1058
f 882 1060 1059
f 883 1061 1060
f 883 884 1068
f 884 1006 1070
f 1006 1007 1071
f 883 1068 1061
f 884 1069 1068
f 884 1070 1069
f 1006 1071 1070
f 1007 1120 1071
f 1071 1120 1121
f 1071 1121 1122
f 1071 1122 1123
f 1071 1123 1124
f 1071 1124 1125
f 1071 1141 1076
f 1071 1125 1139
f 1071 1139 1140
f 1071 1140 1142
f 1071 1142 1141
f 1076 1141 1144
f 1076 1144 1077
f 1077 1143 1079
f 1079 1145 1080
f 1077 1144 1143
f 1079 1143 1145
f 1080 1146 1081
f 1081 1151 1082
f 1080 1145 1146
f 1082 1148 1083
f 1011 1123 1122
f 1013 1124 1123
f 1124 1127 1125
f 1125 1129 1139
f 1134 1140 1139
f 1012 1013 1123
f 1013 1126 1124
f 1124 1126 1127
f 1125 1127 1128
f 1125 1128 1129
f 1129 1133 1139
f 1133 1134 1139
f 1134 1135 1140
f 1140 1159 1142
f 1141 1142 1161
f 1141 1158 1144
f 1081 1146 1151
f 1082 1151 1148
f 1083 1148 1152
f 1083 1152 1084
f 1084 1149 1147
f 1084 1152 1149
f 1147 1149 1153
f 1147 1153 1150
f 1148 1151 1156
f 1149 1154 1153
f 1148 1157 1152
f 1149 1152 1155
f 1149 1155 1154
f 1143 1144 1163
f 1143 1164 1145
f 1145 1162 1146
f 1143 1163 1164
f 1145 1164 1162
f 1146 1165 1151
f 1151 1165 1156
f 1148 1156 1157
f 1152 1157 1155
f 1146 1162 1165
f 1142 1159 1160
f 1135 1159 1140
f 1142 1160 1161
f 1141 1161 1158
f 1144 1158 1163
f 334 369 368
f 334 368 397
f 334 397 398
f 334 370 369
f 334 413 370
f 334 398 399
f 334 399 414
f 334 348 350
f 334 347 348
f 334 349 347
f 334 352 349
f 334 344 343
f 334 351 344
f 334 343 413
f 334 414 345
f 334 350 351
f 334 345 346
f 334 346 353
f 334 353 352
f 344 351 1028
f 350 932 351
f 351 1038 1028
f 346 1039 353
f 348 946 350
f 349 352 950
f 352 353 933
f 353 1039 1043
f 368 369 373
f 369 370 375
f 368 373 372
f 369 374 373
f 369 375 374
f 368 372 400
f 370 413 386
f 386 413 387
f 387 413 392
f 370 385 375
f 370 386 385
f 368 400 397
f 397 403 398
f 398 406 399
f 397 400 401
f 397 401 403
f 398 403 402
f 398 402 406
f 399 406 415
f 343 392 413
f 399 416 414
f 345 414 421
f 414 416 417
f 414 417 421
f 399 415 416
f 343 344 418
f 343 393 392
f 343 418 393
f 344 1033 418
f 344 1028 1033
f 345 419 346
f 345 421 422
f 345 422 419
f 346 1040 1039
f 346 419 1040
f 347 941 348
f 347 349 942
f 348 941 948
f 347 940 941
f 347 942 940
f 349 949 942
f 351 932 1038
f 350 946 931
f 352 934 950
f 350 931 932
f 353 1043 933
f 352 933 934
f 348 948 946
f 349 950 949
f 420 980 978
f 978 981 979
f 978 980 981
f 420 982 980
f 980 996 981
f 980 997 996
f 980 982 997
f 982 998 997
f 420 1050 982
f 982 1051 998
f 998 1051 999
f 999 1052 1000
f 982 1050 1051
f 1000 1052 1003
f 1003 1166 1004
f 999 1051 1052
f 1004 1166 1005
f 1005 1167 1017
f 1017 1167 1018
f 1003 1052 1166
f 1005 1166 1167
f 1018 1167 1168
f 1018 1168 1019
f 1019 1168 1020
f 1020 1169 1053
f 1053 1169 1054
f 1050 1190 1051
f 1051 1190 1052
f 1052 1190 1166
f 1166 1190 1167
f 1020 1168 1169
f 1054 1173 1055
f 1055 1173 1170
f 1170 1174 1171
f 1054 1169 1173
f 1170 1173 1174
f 1171 1174 1172
f 1167 1190 1168
f 1168 1190 1169
f 1169 1190 1173
f 1173 1190 1174
f 1174 1190 1175
f 1177 1175 1207
f 1172 1174 1175
f 1172 1175 1176
f 1176 1175 1177
f 1177 1207 1179
f 1178 1179 1207
f 1190 1219 1218
f 1190 1221 1219
f 1178 1207 1218
f 1218 1213 1212
f 1219 1214 1213
f 1178 1218 1212
f 1175 1190 1207
f 1190 1218 1207
f 1218 1219 1213
f 1219 1221 1225
f 1219 1225 1214
f 1225 1221 1224
