# MAAS exact compiled indexed mesh
# program_hash 9793f745753787fb550fb4ed90ef441ae5633456fcbe6994ac462d315f3b7c89
# geometry_hash 7b721c33578c31dc94ad6b81de82c7a34227250dc0bef17cd3978f02f2cd0022
v -17.93971614 -13.29578626 0
v -17.93971614 -11.5287737 0
v -17.93971614 -13.29578626 1.98
v -17.93971614 -11.5287737 1.98
v -17.93971614 -9.76176114 0
v -17.93971614 -7.99474858 0
v -17.93971614 -9.76176114 1.98
v -17.93971614 -7.99474858 1.98
v -9.03422439 -12.28113364 0
v -9.43171573 -10.5594095 0
v -9.03422439 -12.28113364 1.98
v -9.82920707 -8.83768535 0
v -10.22669841 -7.11596121 0
v -17.93971614 -13.29578626 3.96
v -17.93971614 -11.5287737 3.96
v -17.93971614 -9.76176114 3.96
v -17.93971614 -7.99474858 3.96
v -9.03422439 -12.28113364 3.96
v -17.93971614 -6.22773602 0
v -17.93971614 -4.46072346 0
v -17.93971614 -6.22773602 1.98
v -17.93971614 -4.46072346 1.98
v -10.62418975 -5.39423707 0
v -11.02168108 -3.67251292 0
v -11.02168108 -3.67251292 1.98
v -17.93971614 -6.22773602 3.96
v -17.93971614 -4.46072346 3.96
v -11.02168108 -3.67251292 3.96
v -0.58522699 -9.28918674 0
v -1.35983432 -7.70100637 0
v -0.58522699 -9.28918674 1.98
v -0.58522699 -9.28918674 3.96
v -2.90904896 -4.52464563 0
v -2.13444164 -6.112826 0
v -3.68365628 -2.93646527 0
v -4.45826361 -1.3482849 0
v -4.45826361 -1.3482849 1.98
v -4.45826361 -1.3482849 3.96
v -17.93971614 -13.29578626 5.94
v -17.93971614 -11.5287737 5.94
v -17.93971614 -9.76176114 5.94
v -17.93971614 -7.99474858 5.94
v -9.03422439 -12.28113364 5.94
v -17.93971614 -13.29578626 7.92
v -17.93971614 -11.5287737 7.92
v -17.93971614 -13.29578626 9.9
v -17.93971614 -11.5287737 9.9
v -17.93971614 -9.76176114 7.92
v -17.93971614 -7.99474858 7.92
v -17.93971614 -9.76176114 9.9
v -17.93971614 -7.99474858 9.9
v -9.03422439 -12.28113364 7.92
v -9.03422439 -12.28113364 9.9
v -9.43171573 -10.5594095 9.9
v -9.82920707 -8.83768535 9.9
v -10.22669841 -7.11596121 9.9
v -17.93971614 -6.22773602 5.94
v -17.93971614 -4.46072346 5.94
v -11.02168108 -3.67251292 5.94
v -17.93971614 -6.22773602 7.92
v -17.93971614 -4.46072346 7.92
v -17.93971614 -6.22773602 9.9
v -17.93971614 -4.46072346 9.9
v -11.02168108 -3.67251292 7.92
v -10.62418975 -5.39423707 9.9
v -11.02168108 -3.67251292 9.9
v -0.58522699 -9.28918674 5.94
v -0.58522699 -9.28918674 7.92
v -0.58522699 -9.28918674 9.9
v -1.35983432 -7.70100637 9.9
v -4.45826361 -1.3482849 5.94
v -2.90904896 -4.52464563 9.9
v -2.13444164 -6.112826 9.9
v -4.45826361 -1.3482849 7.92
v -3.68365628 -2.93646527 9.9
v -4.45826361 -1.3482849 9.9
v 3.63813043 -0.35363235 0
v 6.97418154 -4.47331238 0
v 6.97418154 -4.47331238 1.98
v 4.75014747 -1.72685903 0
v 5.8621645 -3.1000857 0
v 6.97418154 -4.47331238 3.96
v 6.97418154 -4.47331238 5.94
v 3.63813043 -0.35363235 9.9
v 6.97418154 -4.47331238 7.92
v 6.97418154 -4.47331238 9.9
v 4.75014747 -1.72685903 9.9
v 5.8621645 -3.1000857 9.9
v 1.41409636 2.392821 0
v 2.5261134 1.01959432 0
v 1.41409636 2.392821 1.98
v 7.68680731 6.2711546 0
v 1.41409636 2.392821 3.96
v 6.29438241 7.35903616 0
v 6.29438241 7.35903616 1.98
v 6.29438241 7.35903616 3.96
v 11.864082 3.00750992 0
v 13.2565069 1.91962836 0
v 13.2565069 1.91962836 1.98
v 10.47165711 4.09539148 0
v 9.07923221 5.18327304 0
v 13.2565069 1.91962836 3.96
v 9.9324317 13.29579304 0
v 11.53388895 12.54902126 0
v 13.13534619 11.80224949 0
v 9.9324317 13.29579304 1.98
v 11.53388895 12.54902126 1.98
v 13.13534619 11.80224949 1.98
v 17.93971792 9.56193416 0
v 17.93971792 9.56193416 1.98
v 14.73680343 11.05547771 0
v 16.33826067 10.30870593 0
v 14.73680343 11.05547771 1.98
v 16.33826067 10.30870593 1.98
v 9.9324317 13.29579304 3.96
v 11.53388895 12.54902126 3.96
v 13.13534619 11.80224949 3.96
v 17.93971792 9.56193416 3.96
v 14.73680343 11.05547771 3.96
v 16.33826067 10.30870593 3.96
v 1.41409636 2.392821 5.94
v 1.41409636 2.392821 7.92
v 1.41409636 2.392821 9.9
v 2.5261134 1.01959432 9.9
v 7.68680731 6.2711546 9.9
v 6.29438241 7.35903616 5.94
v 6.29438241 7.35903616 7.92
v 6.29438241 7.35903616 9.9
v 13.2565069 1.91962836 5.94
v 13.2565069 1.91962836 7.92
v 11.864082 3.00750992 9.9
v 13.2565069 1.91962836 9.9
v 10.47165711 4.09539148 9.9
v 9.07923221 5.18327304 9.9
v 9.9324317 13.29579304 5.94
v 11.53388895 12.54902126 5.94
v 13.13534619 11.80224949 5.94
v 17.93971792 9.56193416 5.94
v 14.73680343 11.05547771 5.94
v 16.33826067 10.30870593 5.94
v 9.9324317 13.29579304 7.92
v 11.53388895 12.54902126 7.92
v 13.13534619 11.80224949 7.92
v 9.9324317 13.29579304 9.9
v 11.53388895 12.54902126 9.9
v 13.13534619 11.80224949 9.9
v 17.93971792 9.56193416 7.92
v 17.93971792 9.56193416 9.9
v 14.73680343 11.05547771 7.92
v 16.33826067 10.30870593 7.92
v 14.73680343 11.05547771 9.9
v 16.33826067 10.30870593 9.9
f 2 1 4
f 5 2 7
f 9 1 2
f 3 1 9
f 10 2 5
f 4 1 3
f 7 2 4
f 6 5 8
f 19 6 21
f 5 6 12
f 6 19 13
f 8 5 7
f 21 6 8
f 10 9 2
f 3 9 11
f 5 12 10
f 6 13 12
f 15 4 3
f 15 3 14
f 7 4 16
f 16 4 15
f 3 11 14
f 14 40 15
f 41 16 15
f 18 39 14
f 8 7 17
f 16 17 7
f 21 8 26
f 17 26 8
f 16 42 17
f 17 57 26
f 18 14 11
f 22 20 19
f 19 20 23
f 22 19 21
f 25 20 22
f 19 23 13
f 23 20 24
f 24 20 25
f 22 21 27
f 26 27 21
f 28 22 27
f 26 58 27
f 28 25 22
f 27 59 28
f 29 9 10
f 9 29 11
f 30 10 12
f 12 13 34
f 11 29 31
f 30 29 10
f 12 34 30
f 11 31 18
f 32 43 18
f 32 18 31
f 13 23 33
f 35 23 24
f 13 33 34
f 33 23 35
f 35 24 36
f 36 24 37
f 37 24 25
f 34 33 80
f 77 33 35
f 36 90 35
f 91 36 37
f 38 25 28
f 37 25 38
f 71 38 28
f 38 93 37
f 14 39 40
f 41 15 40
f 39 45 40
f 39 44 45
f 40 48 41
f 40 45 48
f 43 44 39
f 42 16 41
f 42 57 17
f 49 42 41
f 49 41 48
f 42 60 57
f 60 42 49
f 43 39 18
f 52 44 43
f 44 47 45
f 45 50 48
f 52 46 44
f 44 46 47
f 45 47 50
f 47 46 53
f 47 54 50
f 48 51 49
f 62 60 49
f 48 50 51
f 62 49 51
f 55 51 50
f 56 62 51
f 53 46 52
f 47 53 54
f 55 50 54
f 56 51 55
f 57 58 26
f 27 58 59
f 57 61 58
f 60 61 57
f 58 61 64
f 58 64 59
f 60 63 61
f 62 63 60
f 65 63 62
f 61 63 66
f 61 66 64
f 65 62 56
f 66 63 65
f 67 52 43
f 67 43 32
f 52 67 68
f 53 52 68
f 53 69 54
f 54 70 55
f 73 56 55
f 53 68 69
f 54 69 70
f 73 55 70
f 71 28 59
f 59 64 74
f 59 74 71
f 121 38 71
f 122 71 74
f 72 65 56
f 66 65 75
f 72 56 73
f 65 72 75
f 64 76 74
f 64 66 76
f 66 75 76
f 87 72 73
f 74 76 123
f 75 72 84
f 124 76 75
f 36 89 90
f 89 36 91
f 91 37 93
f 38 121 93
f 122 121 71
f 74 123 122
f 124 123 76
f 78 29 30
f 29 78 31
f 31 79 32
f 82 67 32
f 81 30 34
f 81 78 30
f 34 80 81
f 31 78 79
f 80 33 77
f 77 35 90
f 98 78 81
f 97 81 80
f 82 32 79
f 78 98 79
f 79 98 99
f 79 99 82
f 82 99 102
f 83 82 102
f 68 67 83
f 85 69 68
f 69 86 70
f 67 82 83
f 68 83 85
f 70 88 73
f 85 86 69
f 70 86 88
f 87 73 88
f 72 87 84
f 75 84 124
f 86 132 88
f 88 131 87
f 83 102 129
f 129 85 83
f 129 130 85
f 130 86 85
f 130 132 86
f 89 92 90
f 95 89 91
f 100 80 77
f 90 101 77
f 100 77 101
f 90 92 101
f 89 94 92
f 94 89 95
f 93 96 91
f 95 91 96
f 93 126 96
f 94 104 92
f 106 94 95
f 106 103 94
f 96 115 95
f 106 95 115
f 96 135 115
f 97 98 81
f 97 80 100
f 112 97 100
f 97 109 98
f 98 109 99
f 102 99 110
f 118 129 102
f 92 105 101
f 101 111 100
f 101 105 111
f 94 103 104
f 92 104 105
f 104 103 107
f 105 104 108
f 107 103 106
f 108 104 107
f 112 109 97
f 112 100 111
f 110 109 112
f 99 109 110
f 111 105 113
f 112 111 114
f 113 105 108
f 114 111 113
f 110 112 114
f 116 107 106
f 116 106 115
f 108 107 117
f 117 107 116
f 115 136 116
f 137 117 116
f 102 110 118
f 110 114 118
f 120 138 118
f 113 108 119
f 117 119 108
f 119 120 113
f 114 113 120
f 120 118 114
f 117 139 119
f 119 140 120
f 121 126 93
f 127 121 122
f 121 127 126
f 125 123 124
f 128 122 123
f 84 87 133
f 134 124 84
f 84 133 134
f 128 127 122
f 134 125 124
f 125 128 123
f 126 135 96
f 127 141 126
f 126 141 135
f 128 144 127
f 145 128 125
f 127 144 141
f 138 130 129
f 88 132 131
f 87 131 133
f 133 131 152
f 147 132 130
f 132 148 131
f 115 135 136
f 137 116 136
f 135 142 136
f 135 141 142
f 136 143 137
f 136 142 143
f 118 138 129
f 138 147 130
f 140 147 138
f 139 117 137
f 139 140 119
f 140 138 120
f 149 139 137
f 149 137 143
f 150 139 149
f 139 150 140
f 150 147 140
f 146 125 134
f 151 134 133
f 151 146 134
f 141 145 142
f 142 146 143
f 145 144 128
f 146 145 125
f 141 144 145
f 142 145 146
f 150 148 147
f 131 148 152
f 133 152 151
f 147 148 132
f 143 151 149
f 152 150 149
f 143 146 151
f 152 149 151
f 152 148 150
