# MAAS exact compiled indexed mesh
# program_hash de6e6547d24095a1c2ebc725f9ef274e9b33e7a9f342406882e48f3bdd876116
# geometry_hash 46113a91a8eaaf7b79e8659df5a31970fb478feb67b00f054e04bee91b1fa9a2
v -12.00956481 -11.32272647 0
v -4.32344298 -11.32272647 0
v -4.32344298 -3.62327289 0
v -12.00956481 -11.32272647 9.9
v -4.32344298 -11.32272647 6.25263158
v -4.32344298 -3.62327289 6.25263158
v -12.00956481 10.23000308 0
v -12.00956481 10.23000308 9.9
v 4.32344409 -11.32272647 0
v 4.32344409 -3.62327289 0
v 10.89021033 -11.32272647 0
v 4.32344409 -11.32272647 6.25263158
v 4.32344409 -3.62327289 6.25263158
v 10.89021033 -11.32272647 9.9
v 5.16526655 4.84182069 0
v 5.61460163 4.85361813 0
v 5.60649786 5.19028201 0
v 5.5983941 5.52694589 0
v 5.61460163 4.85361813 0.61875
v 5.61460163 4.85361813 1.2375
v 5.61460163 4.85361813 1.85625
v 5.61460163 4.85361813 2.475
v 5.61460163 4.85361813 3.09375
v 5.61460163 4.85361813 3.7125
v 5.61460163 4.85361813 4.33125
v 5.59029033 5.86360977 0
v 5.56979392 6.19978969 0
v 6.00214691 5.88454013 0
v 5.9738113 6.22015005 0
v 5.56193112 6.53645928 0
v 5.55406833 6.87312888 0
v 5.95808998 6.55654429 0
v 5.94236867 6.89293852 0
v 5.54620553 7.20979847 0
v 5.52691348 7.54601513 0
v 5.91499546 7.22860213 0
v 5.88810315 7.56429623 0
v 5.51929165 7.88269027 0
v 5.51166982 8.21936541 0
v 5.8728634 7.90071263 0
v 5.85762364 8.23712902 0
v 5.50404799 8.55604054 0
v 5.48596034 8.8922924 0
v 5.83169384 8.57287474 0
v 5.80624501 8.90864958 0
v 5.47857948 9.2289729 0
v 5.47119862 9.56565341 0
v 5.46381777 9.90233392 0
v 5.79148684 9.24508745 0
v 5.77672866 9.58152531 0
v 5.16526655 10.23000308 0
v 5.44693456 10.23861941 0
v 5.75224245 9.9173497 0
v 5.72823727 10.25320183 0
v 5.44693456 10.23861941 0.61875
v 5.72823727 10.25320183 0.61875
v 5.44693456 10.23861941 1.2375
v 5.72823727 10.25320183 1.2375
v 5.44693456 10.23861941 1.85625
v 5.72823727 10.25320183 1.85625
v 5.44693456 10.23861941 2.475
v 5.72823727 10.25320183 2.475
v 5.44693456 10.23861941 3.09375
v 5.72823727 10.25320183 3.09375
v 5.72823727 10.25320183 3.7125
v 5.44693456 10.23861941 3.7125
v 5.44693456 10.23861941 4.33125
v 5.72823727 10.25320183 4.33125
v 6.06336901 4.87621931 0
v 6.51130907 4.90960376 0
v 6.04716618 5.2125907 0
v 6.03096334 5.54896208 0
v 6.48701655 5.24548784 0
v 6.44989732 5.58025831 0
v 6.91276311 5.28750241 0
v 6.95816281 4.95374475 0
v 6.86784211 5.62131537 0
v 7.40163624 5.0212296 0
v 7.34824085 5.35380121 0
v 6.06336901 4.87621931 0.61875
v 6.51130907 4.90960376 0.61875
v 6.95816281 4.95374475 0.61875
v 7.40163624 5.0212296 0.61875
v 7.8429028 5.0992938 0
v 7.7815425 5.43048784 0
v 8.21242057 5.51749603 0
v 8.28171041 5.18787028 0
v 8.62793523 5.61171398 0
v 8.71780898 5.28688598 0
v 7.8429028 5.0992938 0.61875
v 8.28171041 5.18787028 0.61875
v 8.71780898 5.28688598 0.61875
v 6.06336901 4.87621931 1.2375
v 6.51130907 4.90960376 1.2375
v 6.06336901 4.87621931 1.85625
v 6.51130907 4.90960376 1.85625
v 6.95816281 4.95374475 1.2375
v 7.40163624 5.0212296 1.2375
v 6.95816281 4.95374475 1.85625
v 7.40163624 5.0212296 1.85625
v 7.8429028 5.0992938 1.2375
v 7.8429028 5.0992938 1.85625
v 8.28171041 5.18787028 1.2375
v 8.71780898 5.28688598 1.2375
v 8.28171041 5.18787028 1.85625
v 8.71780898 5.28688598 1.85625
v 9.14722831 5.40849984 0
v 9.57286197 5.54020391 0
v 9.14722831 5.40849984 0.61875
v 9.57286197 5.54020391 0.61875
v 10.89021033 4.84182069 0
v 9.14722831 5.40849984 1.2375
v 9.57286197 5.54020391 1.2375
v 9.14722831 5.40849984 1.85625
v 9.57286197 5.54020391 1.85625
v 6.06336901 4.87621931 2.475
v 6.51130907 4.90960376 2.475
v 6.95816281 4.95374475 2.475
v 7.40163624 5.0212296 2.475
v 6.06336901 4.87621931 3.09375
v 6.51130907 4.90960376 3.09375
v 6.06336901 4.87621931 3.7125
v 6.51130907 4.90960376 3.7125
v 6.95816281 4.95374475 3.09375
v 7.40163624 5.0212296 3.09375
v 6.95816281 4.95374475 3.7125
v 7.8429028 5.0992938 2.475
v 8.28171041 5.18787028 2.475
v 8.71780898 5.28688598 2.475
v 7.8429028 5.0992938 3.09375
v 7.8429028 5.0992938 3.7125
v 8.28171041 5.18787028 3.09375
v 8.71780898 5.28688598 3.09375
v 8.28171041 5.18787028 3.7125
v 8.71780898 5.28688598 3.7125
v 7.40163624 5.0212296 3.7125
v 6.06336901 4.87621931 4.33125
v 6.51130907 4.90960376 4.33125
v 6.95816281 4.95374475 4.33125
v 7.40163624 5.0212296 4.33125
v 7.8429028 5.0992938 4.33125
v 8.28171041 5.18787028 4.33125
v 8.71780898 5.28688598 4.33125
v 9.14722831 5.40849984 2.475
v 9.57286197 5.54020391 2.475
v 9.14722831 5.40849984 3.09375
v 9.57286197 5.54020391 3.09375
v 9.57286197 5.54020391 3.7125
v 9.14722831 5.40849984 3.7125
v 9.14722831 5.40849984 4.33125
v 9.57286197 5.54020391 4.33125
v 6.37709862 6.24992954 0
v 6.413258 5.91507238 0
v 6.35352737 6.585865 0
v 6.31808843 6.92078151 0
v 6.73595185 6.62308094 0
v 6.6929462 6.95710998 0
v 6.82339986 5.95518312 0
v 6.77943642 6.28910515 0
v 7.2953227 5.68643961 0
v 7.24288185 6.01914428 0
v 7.17870965 6.34990484 0
v 7.12746116 6.68277719 0
v 7.07669022 7.01571394 0
v 6.28312954 7.25573991 0
v 6.24865074 7.59073967 0
v 6.65041952 7.29119175 0
v 6.60837187 7.62532574 0
v 6.22580086 7.92672497 0
v 6.19204267 8.26178185 0
v 6.5668033 7.95951143 0
v 6.52571386 8.29374832 0
v 7.0263969 7.34871456 0
v 6.96532134 7.67992135 0
v 7.45853294 7.0831967 0
v 7.38906305 7.41277715 0
v 7.32054098 7.74252205 0
v 6.91622121 8.01308334 0
v 6.86759894 8.34630732 0
v 7.26393433 8.07449061 0
v 7.207804 8.40653196 0
v 7.72065769 5.76176011 0
v 7.64786859 6.09076658 0
v 8.13106235 5.84452454 0
v 8.05064621 6.17174832 0
v 7.57602621 6.41994429 0
v 7.51704161 6.75153274 0
v 7.97117256 6.49916534 0
v 7.90448385 6.82929013 0
v 8.53899832 5.93676114 0
v 8.4509987 6.26202546 0
v 8.95297275 6.05391927 0
v 8.3639368 6.5875049 0
v 8.27781305 6.91319745 0
v 8.75064305 6.69680672 0
v 8.85724245 6.37698923 0
v 8.65700733 7.02041625 0
v 7.82666279 7.15703212 0
v 7.74978522 7.48496194 0
v 8.1926279 7.23910109 0
v 8.10838175 7.56521381 0
v 7.67385152 7.81307756 0
v 7.60976719 8.14368359 0
v 7.53548834 8.47211183 0
v 8.02507505 7.89153359 0
v 7.9427082 8.21805839 0
v 8.56430505 7.34425859 0
v 8.47253668 7.66833175 0
v 8.9327312 7.4578799 0
v 8.82247534 7.77620286 0
v 8.37081723 7.98941373 0
v 8.28114826 8.31400624 0
v 8.61667625 8.41742018 0
v 8.7136021 8.09492325 0
v 6.15876465 8.59687889 0
v 6.12596686 8.93201558 0
v 6.48510361 8.62803588 0
v 6.4449726 8.9623736 0
v 6.10383846 9.26804917 0
v 6.07176144 9.60324075 0
v 6.36614847 9.63119746 0
v 6.40532087 9.29676096 0
v 6.71452763 9.3446684 0
v 6.66805541 9.67816851 0
v 6.81945458 8.6795928 0
v 6.76147799 9.01122789 0
v 7.07645863 9.0669536 0
v 7.14165687 8.73666395 0
v 7.46215433 8.80072045 0
v 7.38976554 9.12950742 0
v 7.02223208 9.39928797 0
v 6.96848225 9.73169239 0
v 7.32828872 9.46057689 0
v 7.25755695 9.78966411 0
v 6.04016474 9.93847077 0
v 6.32745547 9.96568257 0
v 6.00904838 10.27373872 0
v 6.2892419 10.30021578 0
v 6.6220614 10.01172772 0
v 6.56718605 10.34377317 0
v 6.9056613 10.06235347 0
v 6.84379026 10.3931654 0
v 7.11893223 10.44835529 0
v 7.18777134 10.11892425 0
v 7.46826708 10.18139968 0
v 7.39249063 10.50930307 0
v 6.00904838 10.27373872 0.61875
v 6.2892419 10.30021578 0.61875
v 6.56718605 10.34377317 0.61875
v 6.84379026 10.3931654 0.61875
v 7.11893223 10.44835529 0.61875
v 7.39249063 10.50930307 0.61875
v 7.86128163 8.54478621 0
v 7.78079573 8.87171502 0
v 7.70125093 9.19884279 0
v 8.19241476 8.63882285 0
v 8.10461718 8.96386156 0
v 7.62264762 9.52616751 0
v 7.5449862 9.85368715 0
v 8.00778943 9.28615845 0
v 7.92209591 9.61169625 0
v 8.21898308 9.70361519 0
v 8.52068059 8.7401622 0
v 8.41551004 9.05989927 0
v 8.9491279 8.52821775 0
v 8.83568201 8.84518031 0
v 8.72361302 9.1625589 0
v 8.31172628 9.38001786 0
v 8.61292217 9.48034909 0
v 8.51317316 9.80185332 0
v 8.79506416 9.90282711 0
v 8.91123971 9.58707727 0
v 7.8373398 9.93744945 0
v 7.66159682 10.58687812 0
v 7.75352157 10.26341601 0
v 8.12717238 10.02744828 0
v 8.0271016 10.34854299 0
v 7.92842159 10.67000326 0
v 8.19285082 10.75861678 0
v 8.40501708 10.12037675 0
v 8.29824256 10.43929939 0
v 8.56682898 10.53562021 0
v 8.68026014 10.21900956 0
v 8.95775582 10.33774405 0
v 8.45477197 10.85265461 0
v 8.71012972 10.96257776 0
v 8.83754304 10.6518344 0
v 8.96232152 11.07762058 0
v 7.66159682 10.58687812 0.61875
v 7.92842159 10.67000326 0.61875
v 8.19285082 10.75861678 0.61875
v 8.45477197 10.85265461 0.61875
v 8.71012972 10.96257776 0.61875
v 8.96232152 11.07762058 0.61875
v 6.00904838 10.27373872 1.2375
v 6.2892419 10.30021578 1.2375
v 6.56718605 10.34377317 1.2375
v 6.00904838 10.27373872 1.85625
v 6.2892419 10.30021578 1.85625
v 6.56718605 10.34377317 1.85625
v 6.84379026 10.3931654 1.2375
v 7.11893223 10.44835529 1.2375
v 7.39249063 10.50930307 1.2375
v 6.84379026 10.3931654 1.85625
v 7.11893223 10.44835529 1.85625
v 7.39249063 10.50930307 1.85625
v 7.66159682 10.58687812 1.2375
v 7.66159682 10.58687812 1.85625
v 7.92842159 10.67000326 1.2375
v 8.19285082 10.75861678 1.2375
v 7.92842159 10.67000326 1.85625
v 8.19285082 10.75861678 1.85625
v 8.45477197 10.85265461 1.2375
v 8.71012972 10.96257776 1.2375
v 8.96232152 11.07762058 1.2375
v 8.45477197 10.85265461 1.85625
v 8.71012972 10.96257776 1.85625
v 8.96232152 11.07762058 1.85625
v 9.04963487 5.7310888 0
v 9.36327231 6.1808006 0
v 9.46760449 5.8603704 0
v 9.75764122 6.3130993 0
v 9.24794612 6.49765311 0
v 9.13399823 6.81491893 0
v 9.63503749 6.62719951 0
v 9.51380212 6.94174485 0
v 9.88161194 5.99944864 0
v 9.99447341 5.68188666 0
v 10.41182928 5.83343104 0
v 10.27930268 6.14364525 0
v 10.01831516 6.76552574 0
v 10.14813082 6.45434494 0
v 10.40396076 6.92886527 0
v 9.99447341 5.68188666 0.61875
v 10.41182928 5.83343104 0.61875
v 9.03290083 7.13627221 0
v 9.28657964 7.5760081 0
v 9.40529729 7.26066986 0
v 9.63701993 7.70191087 0
v 9.16923402 7.89177916 0
v 9.05326174 8.2079786 0
v 9.51264354 8.01497216 0
v 9.38963051 8.32849258 0
v 9.71793017 8.46747293 0
v 9.88985717 7.07718326 0
v 9.76275828 7.3893131 0
v 10.12278626 7.54162782 0
v 10.25700072 7.23250178 0
v 10.47822951 7.70194205 0
v 9.98992118 7.85125302 0
v 9.858407 8.16137301 0
v 10.33830789 8.00843226 0
v 10.189331 8.31061278 0
v 10.81936703 6.00635492 0
v 10.67955494 6.31334229 0
v 11.22164406 6.18863014 0
v 10.54108566 6.62084719 0
v 11.07462496 6.49221962 0
v 10.92893599 6.79635839 0
v 11.6184468 6.3801042 0
v 11.46430318 6.68012666 0
v 11.30017788 6.97512018 0
v 12.00956592 6.58061978 0
v 11.83704419 6.8709292 0
v 10.81936703 6.00635492 0.61875
v 11.22164406 6.18863014 0.61875
v 11.6184468 6.3801042 0.61875
v 12.00956592 6.58061978 0.61875
v 11.83704419 6.8709292 0.61875
v 10.61948864 7.39598197 0
v 10.77333353 7.0957954 0
v 11.13778921 7.270911 0
v 10.97714035 7.56749162 0
v 10.82891117 7.87012525 0
v 10.67154314 8.16815235 0
v 10.51592385 8.46694785 0
v 11.1641351 8.04053718 0
v 11.0002191 8.33499453 0
v 11.32977894 7.74689452 0
v 11.49714731 7.454074 0
v 11.66623686 7.16208308 0
v 11.1641351 8.04053718 0.61875
v 11.0002191 8.33499453 0.61875
v 11.32977894 7.74689452 0.61875
v 11.49714731 7.454074 0.61875
v 11.66623686 7.16208308 0.61875
v 9.99447341 5.68188666 1.2375
v 10.41182928 5.83343104 1.2375
v 9.99447341 5.68188666 1.85625
v 10.41182928 5.83343104 1.85625
v 10.81936703 6.00635492 1.2375
v 11.22164406 6.18863014 1.2375
v 10.81936703 6.00635492 1.85625
v 11.22164406 6.18863014 1.85625
v 11.6184468 6.3801042 1.2375
v 12.00956592 6.58061978 1.2375
v 11.83704419 6.8709292 1.2375
v 11.6184468 6.3801042 1.85625
v 12.00956592 6.58061978 1.85625
v 11.83704419 6.8709292 1.85625
v 11.1641351 8.04053718 1.2375
v 11.0002191 8.33499453 1.2375
v 11.1641351 8.04053718 1.85625
v 11.0002191 8.33499453 1.85625
v 11.32977894 7.74689452 1.2375
v 11.49714731 7.454074 1.2375
v 11.66623686 7.16208308 1.2375
v 11.32977894 7.74689452 1.85625
v 11.49714731 7.454074 1.85625
v 11.66623686 7.16208308 1.85625
v 9.26798224 8.64246771 0
v 9.1477001 8.95689315 0
v 9.58934076 8.77866007 0
v 9.46210708 9.09032793 0
v 9.02878548 9.27176447 0
v 9.3362306 9.40247212 0
v 9.20226973 9.71094112 0
v 9.63022132 9.53533865 0
v 9.48968776 9.84085351 0
v 10.0421225 8.6135149 0
v 9.90665578 8.92176066 0
v 10.36205639 8.76650421 0
v 10.21977958 9.07165664 0
v 9.7725337 9.2305173 0
v 10.06921456 9.37260627 0
v 9.92040997 9.67429525 0
v 10.36189906 9.52082109 0
v 10.20667115 9.81923949 0
v 10.36189906 9.52082109 0.61875
v 10.20667115 9.81923949 0.61875
v 9.07933185 10.02411149 0
v 9.36004477 10.15129961 0
v 9.23175328 10.46223727 0
v 9.49336312 10.58805482 0
v 9.63708099 10.28429432 0
v 9.09614296 10.76959629 0
v 9.35141695 10.89252544 0
v 9.21124536 11.19769856 0
v 9.75148298 10.71908243 0
v 9.45680137 11.32272522 0
v 9.60326242 11.02053412 0
v 9.77336881 9.97671598 0
v 10.05319042 10.11842755 0
v 9.90146 10.41837771 0
v 9.21124536 11.19769856 0.61875
v 9.75148298 10.71908243 0.61875
v 9.45680137 11.32272522 0.61875
v 9.60326242 11.02053412 0.61875
v 10.05319042 10.11842755 0.61875
v 9.90146 10.41837771 0.61875
v 10.83803425 8.63025909 0
v 10.6775838 8.92632337 0
v 10.518871 9.22317987 0
v 10.83803425 8.63025909 0.61875
v 10.6775838 8.92632337 0.61875
v 10.518871 9.22317987 0.61875
v 10.36189906 9.52082109 1.2375
v 10.20667115 9.81923949 1.2375
v 10.36189906 9.52082109 1.85625
v 10.20667115 9.81923949 1.85625
v 9.21124536 11.19769856 1.2375
v 9.75148298 10.71908243 1.2375
v 9.45680137 11.32272522 1.2375
v 9.60326242 11.02053412 1.2375
v 9.21124536 11.19769856 1.85625
v 9.75148298 10.71908243 1.85625
v 9.45680137 11.32272522 1.85625
v 9.60326242 11.02053412 1.85625
v 10.05319042 10.11842755 1.2375
v 9.90146 10.41837771 1.2375
v 10.05319042 10.11842755 1.85625
v 9.90146 10.41837771 1.85625
v 10.83803425 8.63025909 1.2375
v 10.6775838 8.92632337 1.2375
v 10.83803425 8.63025909 1.85625
v 10.6775838 8.92632337 1.85625
v 10.518871 9.22317987 1.2375
v 10.518871 9.22317987 1.85625
v 6.00904838 10.27373872 2.475
v 6.2892419 10.30021578 2.475
v 6.56718605 10.34377317 2.475
v 6.84379026 10.3931654 2.475
v 7.11893223 10.44835529 2.475
v 7.39249063 10.50930307 2.475
v 6.00904838 10.27373872 3.09375
v 6.2892419 10.30021578 3.09375
v 6.56718605 10.34377317 3.09375
v 6.00904838 10.27373872 3.7125
v 6.2892419 10.30021578 3.7125
v 6.84379026 10.3931654 3.09375
v 7.11893223 10.44835529 3.09375
v 7.39249063 10.50930307 3.09375
v 6.84379026 10.3931654 3.7125
v 7.11893223 10.44835529 3.7125
v 7.39249063 10.50930307 3.7125
v 7.66159682 10.58687812 2.475
v 7.92842159 10.67000326 2.475
v 8.19285082 10.75861678 2.475
v 8.45477197 10.85265461 2.475
v 8.71012972 10.96257776 2.475
v 8.96232152 11.07762058 2.475
v 7.66159682 10.58687812 3.09375
v 7.92842159 10.67000326 3.09375
v 8.19285082 10.75861678 3.09375
v 7.92842159 10.67000326 3.7125
v 8.19285082 10.75861678 3.7125
v 8.45477197 10.85265461 3.09375
v 8.71012972 10.96257776 3.09375
v 8.96232152 11.07762058 3.09375
v 8.45477197 10.85265461 3.7125
v 8.71012972 10.96257776 3.7125
v 8.96232152 11.07762058 3.7125
v 6.56718605 10.34377317 3.7125
v 6.00904838 10.27373872 4.33125
v 6.2892419 10.30021578 4.33125
v 6.56718605 10.34377317 4.33125
v 6.84379026 10.3931654 4.33125
v 7.11893223 10.44835529 4.33125
v 7.39249063 10.50930307 4.33125
v 7.66159682 10.58687812 3.7125
v 7.66159682 10.58687812 4.33125
v 7.92842159 10.67000326 4.33125
v 8.19285082 10.75861678 4.33125
v 8.45477197 10.85265461 4.33125
v 8.71012972 10.96257776 4.33125
v 8.96232152 11.07762058 4.33125
v 9.99447341 5.68188666 2.475
v 10.41182928 5.83343104 2.475
v 9.99447341 5.68188666 3.09375
v 10.41182928 5.83343104 3.09375
v 9.99447341 5.68188666 3.7125
v 10.41182928 5.83343104 3.7125
v 10.81936703 6.00635492 2.475
v 11.22164406 6.18863014 2.475
v 11.6184468 6.3801042 2.475
v 12.00956592 6.58061978 2.475
v 11.83704419 6.8709292 2.475
v 10.81936703 6.00635492 3.09375
v 11.22164406 6.18863014 3.09375
v 11.22164406 6.18863014 3.7125
v 11.6184468 6.3801042 3.09375
v 12.00956592 6.58061978 3.09375
v 11.83704419 6.8709292 3.09375
v 11.6184468 6.3801042 3.7125
v 12.00956592 6.58061978 3.7125
v 11.83704419 6.8709292 3.7125
v 11.1641351 8.04053718 2.475
v 11.0002191 8.33499453 2.475
v 11.32977894 7.74689452 2.475
v 11.49714731 7.454074 2.475
v 11.66623686 7.16208308 2.475
v 11.1641351 8.04053718 3.09375
v 11.0002191 8.33499453 3.09375
v 11.1641351 8.04053718 3.7125
v 11.0002191 8.33499453 3.7125
v 11.32977894 7.74689452 3.09375
v 11.49714731 7.454074 3.09375
v 11.66623686 7.16208308 3.09375
v 11.32977894 7.74689452 3.7125
v 11.66623686 7.16208308 3.7125
v 9.99447341 5.68188666 4.33125
v 10.41182928 5.83343104 4.33125
v 10.81936703 6.00635492 3.7125
v 10.81936703 6.00635492 4.33125
v 11.22164406 6.18863014 4.33125
v 11.6184468 6.3801042 4.33125
v 12.00956592 6.58061978 4.33125
v 11.83704419 6.8709292 4.33125
v 11.49714731 7.454074 3.7125
v 11.1641351 8.04053718 4.33125
v 11.0002191 8.33499453 4.33125
v 11.32977894 7.74689452 4.33125
v 11.49714731 7.454074 4.33125
v 11.66623686 7.16208308 4.33125
v 10.36189906 9.52082109 2.475
v 10.20667115 9.81923949 2.475
v 10.36189906 9.52082109 3.09375
v 10.20667115 9.81923949 3.09375
v 10.36189906 9.52082109 3.7125
v 9.21124536 11.19769856 2.475
v 9.75148298 10.71908243 2.475
v 9.45680137 11.32272522 2.475
v 9.60326242 11.02053412 2.475
v 10.05319042 10.11842755 2.475
v 9.90146 10.41837771 2.475
v 9.21124536 11.19769856 3.09375
v 9.75148298 10.71908243 3.09375
v 9.45680137 11.32272522 3.09375
v 9.60326242 11.02053412 3.09375
v 9.21124536 11.19769856 3.7125
v 9.75148298 10.71908243 3.7125
v 9.45680137 11.32272522 3.7125
v 9.60326242 11.02053412 3.7125
v 10.05319042 10.11842755 3.09375
v 9.90146 10.41837771 3.09375
v 10.05319042 10.11842755 3.7125
v 9.90146 10.41837771 3.7125
v 10.83803425 8.63025909 2.475
v 10.6775838 8.92632337 2.475
v 10.518871 9.22317987 2.475
v 10.83803425 8.63025909 3.09375
v 10.6775838 8.92632337 3.09375
v 10.6775838 8.92632337 3.7125
v 10.518871 9.22317987 3.09375
v 10.518871 9.22317987 3.7125
v 10.20667115 9.81923949 3.7125
v 10.36189906 9.52082109 4.33125
v 10.20667115 9.81923949 4.33125
v 9.21124536 11.19769856 4.33125
v 9.75148298 10.71908243 4.33125
v 9.45680137 11.32272522 4.33125
v 9.60326242 11.02053412 4.33125
v 10.05319042 10.11842755 4.33125
v 9.90146 10.41837771 4.33125
v 10.83803425 8.63025909 3.7125
v 10.83803425 8.63025909 4.33125
v 10.6775838 8.92632337 4.33125
v 10.518871 9.22317987 4.33125
v 5.61460163 4.85361813 4.95
v 5.61460163 4.85361813 5.56875
v 5.61460163 4.85361813 6.1875
v 5.61460163 4.85361813 6.80625
v 5.61460163 4.85361813 7.425
v 5.61460163 4.85361813 8.04375
v 5.61460163 4.85361813 8.6625
v 5.61460163 4.85361813 9.28125
v 5.16526655 4.84182069 9.9
v 5.61460163 4.85361813 9.9
v 5.59338232 5.1897809 9.9
v 5.58551952 5.5264505 9.9
v 5.44693456 10.23861941 4.95
v 5.72823727 10.25320183 4.95
v 5.44693456 10.23861941 5.56875
v 5.72823727 10.25320183 5.56875
v 5.44693456 10.23861941 6.1875
v 5.72823727 10.25320183 6.1875
v 5.44693456 10.23861941 6.80625
v 5.72823727 10.25320183 6.80625
v 5.44693456 10.23861941 7.425
v 5.72823727 10.25320183 7.425
v 5.57765672 5.86312009 9.9
v 5.56979392 6.19978969 9.9
v 5.98953261 5.88375582 9.9
v 5.9738113 6.22015005 9.9
v 5.54977897 6.53598972 9.9
v 5.54215714 6.87266486 9.9
v 5.94595654 6.55579133 9.9
v 5.91858267 6.89146345 9.9
v 5.53453531 7.20934 9.9
v 5.52691348 7.54601513 9.9
v 5.90334291 7.22787984 9.9
v 5.88810315 7.56429623 9.9
v 5.50810292 7.88225088 9.9
v 5.50072206 8.21893139 9.9
v 5.86169177 7.90002031 9.9
v 5.83576135 8.23577385 9.9
v 5.72823727 10.25320183 8.04375
v 5.44693456 10.23861941 8.04375
v 5.4933412 8.55561189 9.9
v 5.48596034 8.8922924 9.9
v 5.82100318 8.57221172 9.9
v 5.80624501 8.90864958 9.9
v 5.46835421 9.22856231 9.9
v 5.46121433 9.56524801 9.9
v 5.45407444 9.90193371 9.9
v 5.78127718 9.24445302 9.9
v 5.75679038 9.58028454 9.9
v 5.44693456 10.23861941 8.6625
v 5.72823727 10.25320183 8.6625
v 5.44693456 10.23861941 9.28125
v 5.16526655 10.23000308 9.9
v 5.72823727 10.25320183 9.28125
v 5.44693456 10.23861941 9.9
v 5.74251383 9.91674319 9.9
v 5.72823727 10.25320183 9.9
v 6.06336901 4.87621931 4.95
v 6.51130907 4.90960376 4.95
v 6.95816281 4.95374475 4.95
v 7.40163624 5.0212296 4.95
v 6.06336901 4.87621931 5.56875
v 6.51130907 4.90960376 5.56875
v 6.95816281 4.95374475 5.56875
v 7.40163624 5.0212296 5.56875
v 7.8429028 5.0992938 4.95
v 8.28171041 5.18787028 4.95
v 8.71780898 5.28688598 4.95
v 7.8429028 5.0992938 5.56875
v 8.28171041 5.18787028 5.56875
v 8.71780898 5.28688598 5.56875
v 6.06336901 4.87621931 6.1875
v 6.51130907 4.90960376 6.1875
v 6.95816281 4.95374475 6.1875
v 7.40163624 5.0212296 6.1875
v 6.06336901 4.87621931 6.80625
v 6.51130907 4.90960376 6.80625
v 6.06336901 4.87621931 7.425
v 6.51130907 4.90960376 7.425
v 6.95816281 4.95374475 6.80625
v 7.40163624 5.0212296 6.80625
v 6.95816281 4.95374475 7.425
v 7.40163624 5.0212296 7.425
v 7.8429028 5.0992938 6.1875
v 8.28171041 5.18787028 6.1875
v 8.71780898 5.28688598 6.1875
v 7.8429028 5.0992938 6.80625
v 7.8429028 5.0992938 7.425
v 8.28171041 5.18787028 6.80625
v 8.71780898 5.28688598 6.80625
v 8.28171041 5.18787028 7.425
v 8.71780898 5.28688598 7.425
v 9.14722831 5.40849984 4.95
v 9.57286197 5.54020391 4.95
v 9.14722831 5.40849984 5.56875
v 9.57286197 5.54020391 5.56875
v 9.14722831 5.40849984 6.1875
v 9.57286197 5.54020391 6.1875
v 9.14722831 5.40849984 6.80625
v 9.57286197 5.54020391 6.80625
v 9.14722831 5.40849984 7.425
v 9.57286197 5.54020391 7.425
v 6.51130907 4.90960376 8.04375
v 6.95816281 4.95374475 8.04375
v 6.06336901 4.87621931 8.04375
v 7.40163624 5.0212296 8.04375
v 7.8429028 5.0992938 8.04375
v 8.28171041 5.18787028 8.04375
v 8.71780898 5.28688598 8.04375
v 6.06336901 4.87621931 8.6625
v 6.51130907 4.90960376 8.6625
v 6.06336901 4.87621931 9.28125
v 6.51130907 4.90960376 9.28125
v 6.95816281 4.95374475 8.6625
v 7.40163624 5.0212296 8.6625
v 6.95816281 4.95374475 9.28125
v 7.40163624 5.0212296 9.28125
v 6.06336901 4.87621931 9.9
v 6.51130907 4.90960376 9.9
v 6.03407106 5.21177434 9.9
v 6.00525392 5.54736159 9.9
v 6.47394943 5.24435693 9.9
v 6.43706969 5.57915387 9.9
v 6.91276311 5.28750241 9.9
v 6.95816281 4.95374475 9.9
v 6.86784211 5.62131537 9.9
v 7.40163624 5.0212296 9.9
v 7.33531974 5.35167927 9.9
v 7.8429028 5.0992938 8.6625
v 8.28171041 5.18787028 8.6625
v 8.71780898 5.28688598 8.6625
v 8.71780898 5.28688598 9.28125
v 7.8429028 5.0992938 9.28125
v 7.8429028 5.0992938 9.9
v 7.76868968 5.42805789 9.9
v 8.19964338 5.51476012 9.9
v 8.28171041 5.18787028 9.28125
v 8.28171041 5.18787028 9.9
v 8.62793523 5.61171398 9.9
v 8.71780898 5.28688598 9.9
v 9.14722831 5.40849984 8.04375
v 9.57286197 5.54020391 8.04375
v 9.14722831 5.40849984 8.6625
v 9.57286197 5.54020391 8.6625
v 9.14722831 5.40849984 9.28125
v 9.57286197 5.54020391 9.28125
v 9.14722831 5.40849984 9.9
v 9.57286197 5.54020391 9.9
v 10.89021033 4.84182069 9.9
v 6.00904838 10.27373872 4.95
v 6.2892419 10.30021578 4.95
v 6.56718605 10.34377317 4.95
v 6.84379026 10.3931654 4.95
v 7.11893223 10.44835529 4.95
v 7.39249063 10.50930307 4.95
v 6.00904838 10.27373872 5.56875
v 6.2892419 10.30021578 5.56875
v 6.56718605 10.34377317 5.56875
v 6.84379026 10.3931654 5.56875
v 7.11893223 10.44835529 5.56875
v 7.39249063 10.50930307 5.56875
v 7.66159682 10.58687812 4.95
v 7.92842159 10.67000326 4.95
v 8.19285082 10.75861678 4.95
v 8.45477197 10.85265461 4.95
v 8.71012972 10.96257776 4.95
v 8.96232152 11.07762058 4.95
v 7.66159682 10.58687812 5.56875
v 7.92842159 10.67000326 5.56875
v 8.19285082 10.75861678 5.56875
v 8.45477197 10.85265461 5.56875
v 8.71012972 10.96257776 5.56875
v 8.96232152 11.07762058 5.56875
v 6.00904838 10.27373872 6.1875
v 6.2892419 10.30021578 6.1875
v 6.56718605 10.34377317 6.1875
v 6.84379026 10.3931654 6.1875
v 7.11893223 10.44835529 6.1875
v 7.39249063 10.50930307 6.1875
v 6.00904838 10.27373872 6.80625
v 6.2892419 10.30021578 6.80625
v 6.56718605 10.34377317 6.80625
v 6.00904838 10.27373872 7.425
v 6.2892419 10.30021578 7.425
v 6.56718605 10.34377317 7.425
v 6.84379026 10.3931654 6.80625
v 7.11893223 10.44835529 6.80625
v 7.39249063 10.50930307 6.80625
v 6.84379026 10.3931654 7.425
v 7.11893223 10.44835529 7.425
v 7.39249063 10.50930307 7.425
v 7.66159682 10.58687812 6.1875
v 7.92842159 10.67000326 6.1875
v 8.19285082 10.75861678 6.1875
v 8.45477197 10.85265461 6.1875
v 8.71012972 10.96257776 6.1875
v 8.96232152 11.07762058 6.1875
v 7.66159682 10.58687812 6.80625
v 7.66159682 10.58687812 7.425
v 7.92842159 10.67000326 6.80625
v 8.19285082 10.75861678 6.80625
v 7.92842159 10.67000326 7.425
v 8.19285082 10.75861678 7.425
v 8.45477197 10.85265461 6.80625
v 8.71012972 10.96257776 6.80625
v 8.96232152 11.07762058 6.80625
v 8.45477197 10.85265461 7.425
v 8.71012972 10.96257776 7.425
v 8.96232152 11.07762058 7.425
v 9.99447341 5.68188666 4.95
v 10.41182928 5.83343104 4.95
v 9.99447341 5.68188666 5.56875
v 10.41182928 5.83343104 5.56875
v 10.81936703 6.00635492 4.95
v 11.22164406 6.18863014 4.95
v 11.6184468 6.3801042 4.95
v 12.00956592 6.58061978 4.95
v 11.83704419 6.8709292 4.95
v 10.81936703 6.00635492 5.56875
v 11.22164406 6.18863014 5.56875
v 11.6184468 6.3801042 5.56875
v 12.00956592 6.58061978 5.56875
v 11.83704419 6.8709292 5.56875
v 11.1641351 8.04053718 4.95
v 11.0002191 8.33499453 4.95
v 11.32977894 7.74689452 4.95
v 11.49714731 7.454074 4.95
v 11.66623686 7.16208308 4.95
v 11.1641351 8.04053718 5.56875
v 11.0002191 8.33499453 5.56875
v 11.32977894 7.74689452 5.56875
v 11.49714731 7.454074 5.56875
v 11.66623686 7.16208308 5.56875
v 9.99447341 5.68188666 6.1875
v 10.41182928 5.83343104 6.1875
v 9.99447341 5.68188666 6.80625
v 10.41182928 5.83343104 6.80625
v 9.99447341 5.68188666 7.425
v 10.41182928 5.83343104 7.425
v 10.81936703 6.00635492 6.1875
v 11.22164406 6.18863014 6.1875
v 11.6184468 6.3801042 6.1875
v 12.00956592 6.58061978 6.1875
v 11.83704419 6.8709292 6.1875
v 10.81936703 6.00635492 6.80625
v 11.22164406 6.18863014 6.80625
v 10.81936703 6.00635492 7.425
v 11.22164406 6.18863014 7.425
v 11.6184468 6.3801042 6.80625
v 12.00956592 6.58061978 6.80625
v 11.83704419 6.8709292 6.80625
v 11.6184468 6.3801042 7.425
v 12.00956592 6.58061978 7.425
v 11.83704419 6.8709292 7.425
v 11.1641351 8.04053718 6.1875
v 11.0002191 8.33499453 6.1875
v 11.32977894 7.74689452 6.1875
v 11.49714731 7.454074 6.1875
v 11.66623686 7.16208308 6.1875
v 11.1641351 8.04053718 6.80625
v 11.0002191 8.33499453 6.80625
v 11.1641351 8.04053718 7.425
v 11.0002191 8.33499453 7.425
v 11.32977894 7.74689452 6.80625
v 11.49714731 7.454074 6.80625
v 11.66623686 7.16208308 6.80625
v 11.32977894 7.74689452 7.425
v 11.49714731 7.454074 7.425
v 11.66623686 7.16208308 7.425
v 10.36189906 9.52082109 4.95
v 10.20667115 9.81923949 4.95
v 10.36189906 9.52082109 5.56875
v 10.20667115 9.81923949 5.56875
v 9.21124536 11.19769856 4.95
v 9.75148298 10.71908243 4.95
v 9.45680137 11.32272522 4.95
v 9.60326242 11.02053412 4.95
v 10.05319042 10.11842755 4.95
v 9.90146 10.41837771 4.95
v 9.21124536 11.19769856 5.56875
v 9.75148298 10.71908243 5.56875
v 9.45680137 11.32272522 5.56875
v 9.60326242 11.02053412 5.56875
v 10.05319042 10.11842755 5.56875
v 9.90146 10.41837771 5.56875
v 10.83803425 8.63025909 4.95
v 10.6775838 8.92632337 4.95
v 10.518871 9.22317987 4.95
v 10.83803425 8.63025909 5.56875
v 10.6775838 8.92632337 5.56875
v 10.518871 9.22317987 5.56875
v 10.36189906 9.52082109 6.1875
v 10.20667115 9.81923949 6.1875
v 10.36189906 9.52082109 6.80625
v 10.20667115 9.81923949 6.80625
v 10.36189906 9.52082109 7.425
v 10.20667115 9.81923949 7.425
v 9.21124536 11.19769856 6.1875
v 9.75148298 10.71908243 6.1875
v 9.45680137 11.32272522 6.1875
v 9.60326242 11.02053412 6.1875
v 10.05319042 10.11842755 6.1875
v 9.90146 10.41837771 6.1875
v 9.21124536 11.19769856 6.80625
v 9.75148298 10.71908243 6.80625
v 9.45680137 11.32272522 6.80625
v 9.60326242 11.02053412 6.80625
v 9.21124536 11.19769856 7.425
v 9.75148298 10.71908243 7.425
v 9.45680137 11.32272522 7.425
v 9.60326242 11.02053412 7.425
v 10.05319042 10.11842755 6.80625
v 9.90146 10.41837771 6.80625
v 10.05319042 10.11842755 7.425
v 9.90146 10.41837771 7.425
v 10.83803425 8.63025909 6.1875
v 10.6775838 8.92632337 6.1875
v 10.518871 9.22317987 6.1875
v 10.83803425 8.63025909 6.80625
v 10.6775838 8.92632337 6.80625
v 10.83803425 8.63025909 7.425
v 10.6775838 8.92632337 7.425
v 10.518871 9.22317987 6.80625
v 10.518871 9.22317987 7.425
v 6.37709862 6.24992954 9.9
v 6.40066988 5.91399407 9.9
v 6.34141924 6.58482926 9.9
v 6.30621989 6.91977104 9.9
v 6.73595185 6.62308094 9.9
v 6.6929462 6.95710998 9.9
v 6.82339986 5.95518312 9.9
v 6.77943642 6.28910515 9.9
v 7.282639 5.68435537 9.9
v 7.23043562 6.01709739 9.9
v 7.17870965 6.34990484 9.9
v 7.1154882 6.68081251 9.9
v 7.0649549 7.01378542 9.9
v 7.50513089 6.74929121 9.9
v 6.27150061 7.25475436 9.9
v 6.24865074 7.59073967 9.9
v 6.65041952 7.29119175 9.9
v 6.60837187 7.62532574 9.9
v 6.21465206 7.92578028 9.9
v 6.18113355 8.26086123 9.9
v 6.5668033 7.95951143 9.9
v 6.52571386 8.29374832 9.9
v 7.01489925 7.34682187 9.9
v 6.96532134 7.67992135 9.9
v 7.43518298 7.0788053 9.9
v 7.37762389 7.41062677 9.9
v 7.32054098 7.74252205 9.9
v 6.90519735 8.01126911 9.9
v 6.85681291 8.34452773 9.9
v 7.25296707 8.07242936 9.9
v 7.18634163 8.40249705 9.9
v 7.69542284 5.75699594 9.9
v 7.63548665 6.08843185 9.9
v 8.11851818 5.84184658 9.9
v 8.0383352 6.16912763 9.9
v 7.57602621 6.41994429 9.9
v 7.97117256 6.49916534 9.9
v 7.89264177 6.82677357 9.9
v 8.53899832 5.93676114 9.9
v 8.4509987 6.26202546 9.9
v 8.94071287 6.05029413 9.9
v 8.3639368 6.5875049 9.9
v 8.27781305 6.91319745 9.9
v 8.75064305 6.69680672 9.9
v 8.84521172 6.37343201 9.9
v 8.6454323 7.01700099 9.9
v 7.81505423 7.15457098 9.9
v 7.73841032 7.48255555 9.9
v 8.1926279 7.23910109 9.9
v 8.10838175 7.56521381 9.9
v 7.67385152 7.81307756 9.9
v 7.59886206 8.14137695 9.9
v 7.52481722 8.46985808 9.9
v 8.02507505 7.89153359 9.9
v 7.9427082 8.21805839 9.9
v 8.55295971 7.3409091 9.9
v 8.4614212 7.66504735 9.9
v 8.81145763 7.77267341 9.9
v 8.91024233 7.45067266 9.9
v 8.37081723 7.98941373 9.9
v 8.27049008 8.31085751 9.9
v 8.60611267 8.41403661 9.9
v 8.7136021 8.09492325 9.9
v 6.00904838 10.27373872 8.04375
v 6.2892419 10.30021578 8.04375
v 6.84379026 10.3931654 8.04375
v 7.11893223 10.44835529 8.04375
v 7.39249063 10.50930307 8.04375
v 6.56718605 10.34377317 8.04375
v 7.92842159 10.67000326 8.04375
v 8.19285082 10.75861678 8.04375
v 8.45477197 10.85265461 8.04375
v 8.96232152 11.07762058 8.04375
v 7.66159682 10.58687812 8.04375
v 8.71012972 10.96257776 8.04375
v 6.14809525 8.59598199 9.9
v 6.12596686 8.93201558 9.9
v 6.48510361 8.62803588 9.9
v 6.4449726 8.9623736 9.9
v 6.09364932 9.26719141 9.9
v 6.06181208 9.60240585 9.9
v 6.36614847 9.63119746 9.9
v 6.40532087 9.29676096 9.9
v 6.70445378 9.3429978 9.9
v 6.6582196 9.67653101 9.9
v 6.80890644 8.67784749 9.9
v 6.76147799 9.01122789 9.9
v 7.07645863 9.0669536 9.9
v 7.13116184 8.73468979 9.9
v 7.45171736 8.79851892 9.9
v 7.38976554 9.12950742 9.9
v 7.01220959 9.39739886 9.9
v 6.94891006 9.72799769 9.9
v 7.31832233 9.45847071 9.9
v 7.24782504 9.78760829 9.9
v 6.00904838 10.27373872 8.6625
v 6.2892419 10.30021578 8.6625
v 6.56718605 10.34377317 8.6625
v 6.2892419 10.30021578 9.28125
v 6.56718605 10.34377317 9.28125
v 6.84379026 10.3931654 8.6625
v 7.11893223 10.44835529 8.6625
v 7.39249063 10.50930307 8.6625
v 6.84379026 10.3931654 9.28125
v 7.11893223 10.44835529 9.28125
v 7.39249063 10.50930307 9.28125
v 6.00904838 10.27373872 9.28125
v 6.03045518 9.93765839 9.9
v 6.32745547 9.96568257 9.9
v 6.00904838 10.27373872 9.9
v 6.2892419 10.30021578 9.9
v 6.61246367 10.01012297 9.9
v 6.56718605 10.34377317 9.9
v 6.89611168 10.06054737 9.9
v 6.84379026 10.3931654 9.9
v 7.11893223 10.44835529 9.9
v 7.17827404 10.11691811 9.9
v 7.46826708 10.18139968 9.9
v 7.39249063 10.50930307 9.9
v 7.86128163 8.54478621 9.9
v 7.78079573 8.87171502 9.9
v 7.70125093 9.19884279 9.9
v 8.18198696 8.63573706 9.9
v 8.09441993 8.96083805 9.9
v 7.62264762 9.52616751 9.9
v 7.5449862 9.85368715 9.9
v 8.00778943 9.28615845 9.9
v 7.91235748 9.60880211 9.9
v 8.20933044 9.70051349 9.9
v 8.50000825 8.73353847 9.9
v 8.4054015 9.05665828 9.9
v 8.93866409 8.524602 9.9
v 8.82544236 8.8416449 9.9
v 8.71359781 9.15910287 9.9
v 8.31172628 9.38001786 9.9
v 8.61292217 9.48034909 9.9
v 8.50361072 9.79854642 9.9
v 8.79506416 9.90282711 9.9
v 8.91123971 9.58707727 9.9
v 7.66159682 10.58687812 8.6625
v 7.66159682 10.58687812 9.28125
v 7.92842159 10.67000326 8.6625
v 8.19285082 10.75861678 8.6625
v 7.92842159 10.67000326 9.28125
v 8.19285082 10.75861678 9.28125
v 8.45477197 10.85265461 8.6625
v 8.71012972 10.96257776 8.6625
v 8.96232152 11.07762058 8.6625
v 8.45477197 10.85265461 9.28125
v 8.71012972 10.96257776 9.28125
v 8.96232152 11.07762058 9.28125
v 7.82783244 9.93461542 9.9
v 7.7442454 10.26064142 9.9
v 7.66159682 10.58687812 9.9
v 8.10832367 10.02138169 9.9
v 8.01790573 10.34557727 9.9
v 7.92842159 10.67000326 9.9
v 8.19285082 10.75861678 9.9
v 8.3956799 10.11714644 9.9
v 8.28913092 10.43614469 9.9
v 8.56682898 10.53562021 9.9
v 8.68026014 10.21900956 9.9
v 8.94874912 10.33377545 9.9
v 8.45477197 10.85265461 9.9
v 8.71012972 10.96257776 9.9
v 8.82875693 10.64795039 9.9
v 8.96232152 11.07762058 9.9
v 9.99447341 5.68188666 8.04375
v 10.41182928 5.83343104 8.04375
v 10.81936703 6.00635492 8.04375
v 11.6184468 6.3801042 8.04375
v 12.00956592 6.58061978 8.04375
v 11.83704419 6.8709292 8.04375
v 11.22164406 6.18863014 8.04375
v 11.1641351 8.04053718 8.04375
v 11.0002191 8.33499453 8.04375
v 11.32977894 7.74689452 8.04375
v 11.49714731 7.454074 8.04375
v 11.66623686 7.16208308 8.04375
v 9.99447341 5.68188666 8.6625
v 10.41182928 5.83343104 8.6625
v 10.41182928 5.83343104 9.28125
v 9.03714601 5.72739508 9.9
v 9.33897429 6.17298357 9.9
v 9.45522993 5.85638361 9.9
v 9.74560961 6.30891062 9.9
v 9.2360229 6.49382205 9.9
v 9.13399823 6.81491893 9.9
v 9.623228 6.62309768 9.9
v 9.51380212 6.94174485 9.9
v 9.99447341 5.68188666 9.28125
v 9.86935853 5.99517214 9.9
v 9.99447341 5.68188666 9.9
v 10.41182928 5.83343104 9.9
v 10.27930268 6.14364525 9.9
v 10.01831516 6.76552574 9.9
v 10.14813082 6.45434494 9.9
v 10.39256303 6.92387927 9.9
v 9.02142989 7.1325936 9.9
v 9.27544179 7.57215322 9.9
v 9.39393644 7.25673089 9.9
v 9.63701993 7.70191087 9.9
v 9.15831947 7.8880074 9.9
v 9.05326174 8.2079786 9.9
v 9.51264354 8.01497216 9.9
v 9.38963051 8.32849258 9.9
v 9.71793017 8.46747293 9.9
v 9.88985717 7.07718326 9.9
v 9.76275828 7.3893131 9.9
v 10.11181788 7.53683957 9.9
v 10.25700072 7.23250178 9.9
v 10.46740431 7.69691052 9.9
v 9.97917023 7.8465583 9.9
v 9.84787382 8.15677088 9.9
v 10.31708352 7.99857343 9.9
v 10.17893228 8.30578438 9.9
v 10.50566442 8.46189689 9.9
v 10.81936703 6.00635492 8.6625
v 11.22164406 6.18863014 8.6625
v 10.81936703 6.00635492 9.28125
v 11.6184468 6.3801042 8.6625
v 12.00956592 6.58061978 8.6625
v 11.83704419 6.8709292 8.6625
v 12.00956592 6.58061978 9.28125
v 11.83704419 6.8709292 9.28125
v 11.22164406 6.18863014 9.28125
v 10.81936703 6.00635492 9.9
v 10.667725 6.30816224 9.9
v 11.22164406 6.18863014 9.9
v 10.52947164 6.61576464 9.9
v 11.06295219 6.4867687 9.9
v 10.90601286 6.78566951 9.9
v 11.6184468 6.3801042 9.28125
v 11.6184468 6.3801042 9.9
v 11.45279375 6.67440941 9.9
v 11.28887464 6.96951821 9.9
v 12.00956592 6.58061978 9.9
v 11.83704419 6.8709292 9.9
v 11.1641351 8.04053718 8.6625
v 11.0002191 8.33499453 8.6625
v 11.32977894 7.74689452 8.6625
v 11.49714731 7.454074 8.6625
v 11.66623686 7.16208308 8.6625
v 11.32977894 7.74689452 9.28125
v 11.49714731 7.454074 9.28125
v 11.66623686 7.16208308 9.28125
v 10.61948864 7.39598197 9.9
v 10.76208363 7.09055635 9.9
v 11.12669273 7.26542309 9.9
v 10.97714035 7.56749162 9.9
v 11.1641351 8.04053718 9.28125
v 11.0002191 8.33499453 9.28125
v 10.81823451 7.8648545 9.9
v 10.66107482 8.16299211 9.9
v 11.1641351 8.04053718 9.9
v 11.0002191 8.33499453 9.9
v 11.32977894 7.74689452 9.9
v 11.49714731 7.454074 9.9
v 11.66623686 7.16208308 9.9
v 10.36189906 9.52082109 8.04375
v 10.20667115 9.81923949 8.04375
v 9.21124536 11.19769856 8.04375
v 9.75148298 10.71908243 8.04375
v 9.45680137 11.32272522 8.04375
v 10.05319042 10.11842755 8.04375
v 9.90146 10.41837771 8.04375
v 9.60326242 11.02053412 8.04375
v 10.6775838 8.92632337 8.04375
v 10.518871 9.22317987 8.04375
v 10.83803425 8.63025909 8.04375
v 10.36189906 9.52082109 8.6625
v 10.20667115 9.81923949 8.6625
v 10.20667115 9.81923949 9.28125
v 9.26798224 8.64246771 9.9
v 9.1477001 8.95689315 9.9
v 9.57924012 8.77424714 9.9
v 9.45222531 9.08600456 9.9
v 9.02878548 9.27176447 9.9
v 9.32656803 9.39823735 9.9
v 9.20226973 9.71094112 9.9
v 9.75302222 9.2214534 9.9
v 9.62068076 9.53090332 9.9
v 9.48968776 9.84085351 9.9
v 10.0421225 8.6135149 9.9
v 9.89668528 8.91713099 9.9
v 10.36205639 8.76650421 9.9
v 10.20994384 9.06681385 9.9
v 10.36189906 9.52082109 9.28125
v 10.05958922 9.3678692 9.9
v 9.91099556 9.66966266 9.9
v 10.36189906 9.52082109 9.9
v 10.20667115 9.81923949 9.9
v 9.21124536 11.19769856 8.6625
v 9.75148298 10.71908243 8.6625
v 9.45680137 11.32272522 8.6625
v 9.60326242 11.02053412 8.6625
v 9.21124536 11.19769856 9.28125
v 9.45680137 11.32272522 9.28125
v 9.60326242 11.02053412 9.28125
v 10.05319042 10.11842755 8.6625
v 9.90146 10.41837771 8.6625
v 10.05319042 10.11842755 9.28125
v 9.0701049 10.02005733 9.9
v 9.35093583 10.14705419 9.9
v 9.21396828 10.45393303 9.9
v 9.48458853 10.58372224 9.9
v 9.62809401 10.27986085 9.9
v 9.75148298 10.71908243 9.28125
v 9.0874673 10.76553635 9.9
v 9.34285524 10.8882925 9.9
v 9.21124536 11.19769856 9.9
v 9.75148298 10.71908243 9.9
v 9.45680137 11.32272522 9.9
v 9.60326242 11.02053412 9.9
v 9.90146 10.41837771 9.28125
v 9.77336881 9.97671598 9.9
v 10.05319042 10.11842755 9.9
v 9.90146 10.41837771 9.9
v 10.83803425 8.63025909 8.6625
v 10.6775838 8.92632337 8.6625
v 10.83803425 8.63025909 9.28125
v 10.6775838 8.92632337 9.28125
v 10.518871 9.22317987 8.6625
v 10.83803425 8.63025909 9.9
v 10.6775838 8.92632337 9.9
v 10.518871 9.22317987 9.28125
v 10.518871 9.22317987 9.9
f 1 3 2
f 1 2 5
f 1 7 3
f 1 5 4
f 1 4 8
f 4 5 12
f 4 14 8
f 1 8 7
f 7 8 51
f 7 15 3
f 7 51 15
f 8 671 51
f 8 627 671
f 15 10 3
f 11 9 10
f 11 12 9
f 11 10 15
f 11 15 111
f 11 111 767
f 4 12 14
f 11 14 12
f 11 767 14
f 14 767 627
f 8 14 627
f 15 17 16
f 15 18 17
f 15 27 26
f 15 26 18
f 16 17 69
f 17 71 69
f 17 18 71
f 18 26 72
f 18 72 71
f 15 30 27
f 15 31 30
f 15 34 31
f 26 27 28
f 26 28 72
f 27 30 29
f 27 29 28
f 15 35 34
f 15 38 35
f 15 39 38
f 30 31 32
f 29 30 32
f 31 34 33
f 31 33 32
f 15 42 39
f 15 43 42
f 15 46 43
f 33 34 36
f 34 35 36
f 35 37 36
f 35 38 37
f 37 38 40
f 37 40 166
f 15 47 46
f 15 48 47
f 15 51 48
f 39 42 41
f 38 39 40
f 39 41 40
f 40 41 169
f 41 42 44
f 41 44 170
f 42 43 44
f 43 46 45
f 43 45 44
f 44 45 215
f 45 46 49
f 45 49 216
f 46 47 49
f 47 48 50
f 47 50 49
f 49 50 219
f 50 220 219
f 48 53 50
f 50 53 220
f 53 235 220
f 48 51 52
f 48 52 53
f 51 55 52
f 52 55 54
f 52 54 53
f 53 54 235
f 54 237 235
f 54 56 237
f 51 57 55
f 54 55 56
f 56 247 237
f 55 57 56
f 56 58 247
f 51 59 57
f 56 57 58
f 58 295 247
f 51 61 59
f 57 59 58
f 58 60 295
f 58 59 60
f 60 298 295
f 51 63 61
f 59 61 60
f 60 62 298
f 51 66 63
f 60 61 62
f 62 479 298
f 51 67 66
f 61 63 62
f 62 64 479
f 62 63 64
f 64 485 479
f 51 631 67
f 63 66 64
f 64 65 485
f 51 633 631
f 64 66 65
f 65 488 485
f 51 635 633
f 65 66 67
f 65 68 488
f 65 67 68
f 68 514 488
f 51 637 635
f 67 631 68
f 68 632 514
f 51 639 637
f 68 631 632
f 514 632 768
f 69 71 70
f 70 71 73
f 71 72 73
f 72 74 73
f 70 73 76
f 73 74 75
f 74 77 75
f 73 75 76
f 75 78 76
f 75 77 79
f 75 79 78
f 77 160 79
f 79 160 85
f 78 79 84
f 79 85 84
f 85 160 182
f 84 85 87
f 85 182 86
f 85 86 87
f 86 89 87
f 86 184 88
f 86 88 89
f 88 107 89
f 88 319 107
f 107 319 108
f 28 74 72
f 28 29 153
f 28 153 74
f 29 32 152
f 29 152 153
f 74 153 77
f 77 153 158
f 152 158 153
f 152 159 158
f 32 33 154
f 32 154 152
f 33 36 155
f 33 155 154
f 152 154 159
f 154 155 156
f 154 156 159
f 155 165 157
f 155 157 156
f 77 158 160
f 158 161 160
f 158 159 161
f 159 162 161
f 160 161 182
f 161 162 183
f 162 186 183
f 156 162 159
f 156 163 162
f 156 157 163
f 157 164 163
f 162 163 186
f 163 187 186
f 163 164 187
f 164 175 187
f 36 165 155
f 36 37 165
f 37 166 165
f 166 169 168
f 157 165 167
f 165 166 167
f 166 168 167
f 168 171 174
f 40 169 166
f 169 170 171
f 41 170 169
f 44 215 170
f 170 215 172
f 168 169 171
f 171 172 178
f 170 172 171
f 172 217 179
f 157 167 164
f 164 167 173
f 167 168 173
f 168 174 173
f 173 174 176
f 164 173 175
f 173 176 175
f 174 177 176
f 176 177 199
f 171 178 174
f 174 178 177
f 172 179 178
f 178 179 180
f 179 181 180
f 179 225 181
f 177 178 180
f 177 180 202
f 180 181 203
f 181 204 203
f 161 183 182
f 182 183 184
f 183 186 185
f 185 186 188
f 86 182 184
f 184 185 190
f 183 185 184
f 185 188 191
f 186 187 188
f 187 189 188
f 175 189 187
f 175 198 189
f 188 189 193
f 189 198 194
f 189 194 193
f 88 184 190
f 185 191 190
f 88 190 319
f 190 192 319
f 190 191 192
f 191 196 192
f 188 193 191
f 191 193 196
f 194 200 197
f 193 194 195
f 194 197 195
f 193 195 196
f 195 323 196
f 195 197 324
f 197 336 324
f 175 176 198
f 176 199 198
f 177 202 199
f 199 202 201
f 198 199 200
f 199 201 200
f 194 198 200
f 201 202 205
f 201 205 208
f 180 203 202
f 202 203 205
f 203 206 205
f 203 204 206
f 204 253 206
f 205 206 211
f 206 253 212
f 206 212 211
f 200 201 207
f 197 200 207
f 201 208 207
f 197 207 336
f 207 209 336
f 207 208 209
f 208 210 209
f 205 211 208
f 208 211 210
f 211 212 214
f 212 256 213
f 212 213 214
f 210 211 214
f 210 214 340
f 214 341 340
f 213 341 214
f 213 265 341
f 45 216 215
f 215 216 217
f 216 218 217
f 49 219 216
f 216 219 218
f 218 219 222
f 172 215 217
f 179 217 225
f 217 218 225
f 218 222 226
f 218 226 225
f 219 220 222
f 220 221 222
f 220 235 221
f 221 235 236
f 221 223 222
f 222 223 226
f 221 224 223
f 221 236 224
f 224 236 239
f 224 239 232
f 225 226 228
f 181 225 228
f 223 227 226
f 226 227 228
f 181 228 204
f 204 228 229
f 227 229 228
f 227 230 229
f 227 231 230
f 223 231 227
f 223 224 231
f 231 232 233
f 224 232 231
f 232 241 234
f 230 231 233
f 230 233 255
f 232 234 233
f 233 234 258
f 234 259 258
f 235 237 236
f 236 237 238
f 237 247 238
f 236 238 239
f 238 240 239
f 239 240 241
f 238 248 240
f 240 249 242
f 238 247 248
f 240 248 249
f 242 249 250
f 232 239 241
f 234 241 244
f 241 242 244
f 240 242 241
f 242 243 244
f 242 250 243
f 243 245 244
f 234 244 259
f 244 245 259
f 243 246 245
f 243 251 246
f 246 252 274
f 243 250 251
f 246 251 252
f 247 295 248
f 248 296 249
f 249 297 250
f 248 295 296
f 249 296 297
f 250 297 301
f 250 301 251
f 251 302 252
f 252 303 289
f 251 301 302
f 252 302 303
f 204 229 253
f 229 254 253
f 229 230 254
f 230 255 254
f 254 255 257
f 253 254 256
f 254 257 256
f 212 253 256
f 255 260 257
f 257 260 264
f 233 258 255
f 255 258 260
f 258 261 260
f 258 259 261
f 259 273 261
f 260 268 264
f 260 261 268
f 261 273 262
f 262 273 276
f 261 262 268
f 213 256 263
f 256 257 263
f 257 264 263
f 263 264 266
f 213 263 265
f 263 266 265
f 264 267 266
f 266 267 412
f 267 415 412
f 262 269 268
f 264 268 267
f 267 268 269
f 262 276 270
f 262 270 269
f 267 269 415
f 269 272 415
f 269 270 272
f 270 271 272
f 271 417 272
f 245 273 259
f 245 275 273
f 245 246 275
f 246 274 275
f 274 277 275
f 274 278 277
f 274 289 278
f 273 275 276
f 275 277 276
f 276 277 280
f 277 281 280
f 277 278 281
f 252 289 274
f 278 279 281
f 278 290 279
f 278 289 290
f 279 290 291
f 270 276 280
f 270 280 271
f 271 280 283
f 280 281 283
f 279 282 281
f 281 282 283
f 271 283 431
f 283 284 431
f 282 284 283
f 282 287 284
f 279 285 282
f 282 285 287
f 279 291 285
f 285 292 286
f 285 286 287
f 286 436 287
f 286 288 436
f 286 293 288
f 285 291 292
f 286 292 293
f 288 293 294
f 289 307 290
f 289 303 307
f 290 309 291
f 290 307 309
f 291 309 310
f 291 310 292
f 292 313 293
f 293 314 294
f 292 310 313
f 293 313 314
f 294 314 315
f 295 298 296
f 296 299 297
f 297 300 301
f 296 298 299
f 297 299 300
f 300 304 301
f 301 304 302
f 302 305 303
f 303 306 307
f 302 304 305
f 303 305 306
f 298 479 299
f 299 480 300
f 300 481 304
f 299 479 480
f 300 480 481
f 304 481 482
f 304 482 305
f 305 483 306
f 306 484 308
f 305 482 483
f 306 483 484
f 307 308 309
f 306 308 307
f 309 311 310
f 308 311 309
f 310 311 312
f 310 312 313
f 313 316 314
f 314 317 315
f 312 316 313
f 314 316 317
f 315 317 318
f 308 496 311
f 308 484 496
f 311 497 312
f 311 496 497
f 312 497 498
f 312 498 316
f 316 499 317
f 317 500 318
f 316 498 499
f 317 499 500
f 318 500 501
f 192 321 319
f 108 319 321
f 192 196 320
f 196 323 320
f 192 320 321
f 108 321 328
f 320 327 321
f 320 323 322
f 320 322 327
f 195 324 323
f 323 324 325
f 324 336 326
f 322 323 325
f 324 326 325
f 325 326 331
f 321 327 328
f 327 329 328
f 322 330 327
f 322 332 330
f 327 330 329
f 329 330 354
f 330 332 355
f 322 325 332
f 325 331 332
f 326 345 331
f 331 345 333
f 331 357 332
f 332 357 355
f 331 333 357
f 209 338 336
f 326 336 338
f 209 210 337
f 210 340 337
f 209 337 338
f 337 340 339
f 337 346 338
f 326 338 345
f 338 346 345
f 337 339 346
f 340 341 342
f 265 343 341
f 341 343 342
f 339 340 342
f 339 342 350
f 343 411 344
f 342 343 351
f 343 344 351
f 345 346 348
f 346 347 348
f 339 347 346
f 339 350 347
f 333 345 348
f 333 348 371
f 347 370 348
f 347 350 349
f 347 349 370
f 342 351 350
f 350 351 352
f 344 353 351
f 351 353 352
f 344 420 353
f 349 350 352
f 353 420 376
f 352 353 375
f 353 376 375
f 330 355 354
f 354 355 356
f 355 358 356
f 355 357 358
f 357 359 358
f 333 359 357
f 333 371 359
f 358 359 361
f 359 371 362
f 359 362 361
f 356 358 360
f 358 361 360
f 361 362 364
f 362 381 364
f 360 361 363
f 361 364 363
f 364 381 386
f 363 364 369
f 363 369 368
f 364 386 369
f 369 386 407
f 368 369 397
f 368 397 396
f 369 407 397
f 348 370 371
f 370 372 371
f 349 373 370
f 349 374 373
f 362 371 372
f 370 373 372
f 373 374 379
f 372 373 380
f 349 352 374
f 352 375 374
f 375 376 378
f 376 451 378
f 374 375 377
f 374 377 379
f 377 382 379
f 375 378 377
f 377 378 383
f 378 454 383
f 377 383 382
f 362 372 381
f 372 380 381
f 380 385 381
f 373 379 380
f 379 384 380
f 381 385 386
f 380 384 385
f 379 382 384
f 382 401 384
f 382 383 402
f 383 473 402
f 382 402 401
f 385 406 386
f 384 405 385
f 386 406 407
f 385 405 406
f 384 401 405
f 397 407 410
f 396 397 400
f 396 400 399
f 397 410 400
f 400 410 551
f 399 400 537
f 399 537 536
f 400 551 537
f 401 403 405
f 401 402 404
f 402 475 404
f 401 404 403
f 406 409 407
f 405 408 406
f 407 409 410
f 406 408 409
f 403 408 405
f 403 547 408
f 403 404 548
f 404 598 548
f 403 548 547
f 409 550 410
f 408 549 409
f 410 550 551
f 409 549 550
f 408 547 549
f 265 266 411
f 266 412 411
f 265 411 343
f 411 412 413
f 412 415 414
f 344 411 413
f 412 414 413
f 413 414 421
f 414 424 421
f 272 416 415
f 414 415 416
f 272 417 416
f 271 431 417
f 417 431 419
f 414 416 424
f 416 417 418
f 416 418 424
f 417 419 418
f 418 419 426
f 419 442 426
f 344 413 420
f 413 421 420
f 420 421 422
f 421 424 423
f 376 420 422
f 421 423 422
f 422 423 452
f 423 453 452
f 418 425 424
f 418 426 425
f 423 424 425
f 425 426 427
f 426 442 428
f 423 425 453
f 425 427 453
f 427 429 453
f 426 428 427
f 427 428 430
f 429 456 453
f 427 430 429
f 429 457 456
f 429 430 458
f 456 457 477
f 429 458 457
f 284 432 431
f 419 431 432
f 284 433 432
f 284 287 433
f 433 436 434
f 419 432 442
f 432 435 442
f 432 433 435
f 433 434 435
f 434 444 435
f 434 439 444
f 287 436 433
f 288 437 436
f 434 436 437
f 288 438 437
f 288 294 438
f 438 445 440
f 434 437 439
f 437 441 439
f 439 441 448
f 437 438 441
f 438 440 441
f 440 447 441
f 294 445 438
f 440 445 447
f 439 448 446
f 441 447 448
f 435 443 442
f 428 442 443
f 428 443 449
f 435 444 443
f 443 444 450
f 443 450 449
f 444 446 450
f 428 449 430
f 439 446 444
f 294 315 445
f 445 461 447
f 446 448 464
f 447 463 448
f 315 461 445
f 447 461 463
f 446 464 462
f 448 463 464
f 430 449 469
f 449 450 470
f 449 470 469
f 450 462 470
f 430 469 458
f 446 462 450
f 376 422 451
f 422 452 451
f 451 452 455
f 452 453 456
f 378 451 454
f 451 455 454
f 452 456 455
f 454 455 474
f 455 456 477
f 383 454 473
f 454 474 473
f 455 477 474
f 457 459 477
f 457 458 460
f 459 478 477
f 457 460 459
f 459 575 478
f 459 460 576
f 478 575 600
f 459 576 575
f 315 318 461
f 461 465 463
f 462 464 468
f 463 467 464
f 318 465 461
f 463 465 467
f 462 468 466
f 464 467 468
f 458 469 471
f 469 470 472
f 469 472 471
f 466 472 470
f 458 471 460
f 462 466 470
f 318 501 465
f 465 580 467
f 466 468 583
f 467 582 468
f 465 501 580
f 467 580 582
f 466 583 581
f 468 582 583
f 460 471 584
f 471 472 585
f 471 585 584
f 472 581 585
f 460 584 576
f 466 581 472
f 473 474 476
f 474 477 478
f 402 473 475
f 473 476 475
f 474 478 476
f 475 476 599
f 476 478 600
f 404 475 598
f 475 599 598
f 476 600 599
f 479 485 480
f 480 486 481
f 481 487 482
f 480 485 486
f 481 486 487
f 482 487 490
f 482 490 483
f 483 491 484
f 484 492 496
f 483 490 491
f 484 491 492
f 485 488 486
f 486 489 487
f 487 513 490
f 486 488 489
f 487 489 513
f 490 513 493
f 490 493 491
f 491 494 492
f 492 495 502
f 491 493 494
f 492 494 495
f 496 502 497
f 492 502 496
f 497 503 498
f 497 502 503
f 498 503 504
f 498 504 499
f 499 507 500
f 500 508 501
f 499 504 507
f 500 507 508
f 501 508 509
f 502 520 503
f 495 520 502
f 503 505 504
f 503 520 505
f 504 505 506
f 504 506 507
f 507 510 508
f 508 511 509
f 506 510 507
f 508 510 511
f 509 511 512
f 488 514 489
f 489 515 513
f 493 513 516
f 489 514 515
f 513 515 516
f 493 516 517
f 493 517 494
f 494 518 495
f 495 519 520
f 494 517 518
f 495 518 519
f 514 768 515
f 515 769 516
f 516 770 517
f 515 768 769
f 516 769 770
f 517 770 771
f 517 771 518
f 518 772 519
f 519 773 521
f 518 771 772
f 519 772 773
f 505 520 521
f 519 521 520
f 505 522 506
f 505 521 522
f 506 522 523
f 506 523 510
f 510 524 511
f 511 525 512
f 510 523 524
f 511 524 525
f 512 525 526
f 521 780 522
f 521 773 780
f 522 781 523
f 522 780 781
f 523 781 782
f 523 782 524
f 524 783 525
f 525 784 526
f 524 782 783
f 525 783 784
f 526 784 785
f 537 551 558
f 536 537 543
f 536 543 542
f 537 558 543
f 543 558 560
f 542 543 546
f 542 546 545
f 543 560 546
f 547 552 549
f 547 548 553
f 548 601 553
f 547 553 552
f 550 557 551
f 549 556 550
f 551 557 558
f 550 556 557
f 549 552 556
f 552 554 556
f 552 553 555
f 553 615 555
f 552 555 554
f 557 569 558
f 556 559 557
f 558 569 560
f 557 559 569
f 554 559 556
f 546 560 574
f 545 546 568
f 545 568 567
f 546 574 568
f 568 574 846
f 567 568 836
f 567 836 835
f 568 846 836
f 554 570 559
f 554 555 571
f 555 616 571
f 554 571 570
f 560 569 573
f 559 572 569
f 560 573 574
f 569 572 573
f 559 570 572
f 570 842 572
f 570 571 843
f 571 904 843
f 570 843 842
f 573 845 574
f 572 844 573
f 574 845 846
f 573 844 845
f 572 842 844
f 575 577 600
f 575 576 578
f 577 604 600
f 575 578 577
f 577 579 604
f 577 578 606
f 579 605 604
f 577 606 579
f 501 509 580
f 580 586 582
f 581 583 589
f 582 588 583
f 509 586 580
f 582 586 588
f 581 589 587
f 583 588 589
f 576 584 594
f 584 585 595
f 584 595 594
f 585 587 595
f 576 594 578
f 581 587 585
f 509 512 586
f 586 590 588
f 587 589 593
f 588 592 589
f 512 590 586
f 588 590 592
f 587 593 591
f 589 592 593
f 578 594 596
f 594 595 597
f 594 597 596
f 591 597 595
f 578 596 606
f 587 591 595
f 598 599 602
f 599 600 604
f 548 598 601
f 598 602 601
f 599 604 602
f 601 602 603
f 602 604 605
f 553 601 615
f 601 603 615
f 602 605 603
f 579 607 605
f 579 606 608
f 605 607 618
f 579 608 607
f 607 888 618
f 607 608 889
f 618 888 906
f 607 889 888
f 512 526 590
f 590 609 592
f 591 593 612
f 592 611 593
f 526 609 590
f 592 609 611
f 591 612 610
f 593 611 612
f 596 613 606
f 596 597 614
f 596 614 613
f 597 610 614
f 606 613 608
f 591 610 597
f 526 785 609
f 609 892 611
f 610 612 895
f 611 894 612
f 609 785 892
f 611 892 894
f 610 895 893
f 612 894 895
f 608 613 896
f 613 614 897
f 613 897 896
f 614 893 897
f 608 896 889
f 610 893 614
f 603 617 615
f 603 605 618
f 555 615 616
f 615 617 616
f 603 618 617
f 616 617 905
f 617 618 906
f 571 616 904
f 616 905 904
f 617 906 905
f 627 628 629
f 628 738 629
f 628 736 738
f 629 739 630
f 629 738 739
f 630 739 643
f 51 658 639
f 631 633 632
f 632 634 768
f 632 633 634
f 634 774 768
f 51 668 658
f 633 635 634
f 634 636 774
f 51 670 668
f 634 635 636
f 636 792 774
f 51 671 670
f 635 637 636
f 636 638 792
f 636 637 638
f 638 798 792
f 637 639 638
f 638 640 798
f 638 639 640
f 640 801 798
f 630 643 641
f 641 643 644
f 641 644 642
f 642 644 647
f 627 629 671
f 629 630 671
f 642 647 645
f 645 647 648
f 645 648 646
f 646 648 651
f 630 641 671
f 641 642 671
f 642 645 671
f 646 651 649
f 649 651 652
f 649 652 650
f 650 655 653
f 650 652 655
f 645 646 671
f 646 649 671
f 653 656 654
f 649 650 671
f 654 661 659
f 653 655 656
f 652 961 655
f 655 962 656
f 654 656 661
f 656 1018 661
f 639 658 640
f 640 657 801
f 640 658 657
f 657 1006 801
f 657 658 668
f 657 669 1006
f 657 668 669
f 669 1038 1006
f 650 653 671
f 653 654 671
f 659 662 660
f 654 659 671
f 660 666 663
f 659 661 662
f 661 1019 662
f 660 662 666
f 662 1022 666
f 659 660 671
f 660 663 671
f 663 667 664
f 663 664 671
f 664 665 671
f 664 674 665
f 663 666 667
f 666 1022 1023
f 666 1023 667
f 664 667 674
f 667 1023 1050
f 667 1050 674
f 668 670 669
f 669 672 1038
f 669 670 672
f 672 1049 1038
f 670 673 672
f 672 675 1049
f 670 671 673
f 665 673 671
f 665 675 673
f 672 673 675
f 665 674 675
f 674 1050 1052
f 674 1052 675
f 675 1052 1049
f 736 740 738
f 736 737 740
f 738 741 739
f 738 740 741
f 737 742 740
f 740 744 741
f 740 742 744
f 737 743 742
f 742 743 746
f 742 951 744
f 743 745 746
f 745 753 746
f 742 746 951
f 746 974 951
f 745 752 753
f 746 753 974
f 752 756 754
f 752 754 753
f 753 754 976
f 754 756 757
f 756 758 757
f 757 758 1125
f 758 765 1125
f 765 766 1127
f 768 774 769
f 769 775 770
f 770 776 771
f 769 774 775
f 770 775 776
f 771 776 777
f 771 777 772
f 772 778 773
f 773 779 780
f 772 777 778
f 773 778 779
f 774 792 775
f 775 793 776
f 776 794 777
f 775 792 793
f 776 793 794
f 777 794 795
f 777 795 778
f 778 796 779
f 779 797 786
f 778 795 796
f 779 796 797
f 780 786 781
f 779 786 780
f 781 787 782
f 781 786 787
f 782 787 788
f 782 788 783
f 783 789 784
f 784 790 785
f 783 788 789
f 784 789 790
f 785 790 791
f 786 810 787
f 786 797 810
f 787 811 788
f 787 810 811
f 788 811 812
f 788 812 789
f 789 813 790
f 790 814 791
f 789 812 813
f 790 813 814
f 791 814 815
f 792 798 793
f 793 799 794
f 794 800 795
f 793 798 799
f 794 799 800
f 795 800 804
f 795 804 796
f 796 805 797
f 797 806 810
f 796 804 805
f 797 805 806
f 798 801 799
f 799 802 800
f 800 803 804
f 799 801 802
f 800 802 803
f 803 807 804
f 804 807 805
f 805 808 806
f 806 809 816
f 805 807 808
f 806 808 809
f 810 816 811
f 806 816 810
f 811 818 812
f 811 816 818
f 812 818 819
f 812 819 813
f 813 822 814
f 814 823 815
f 813 819 822
f 814 822 823
f 815 823 824
f 816 817 818
f 809 817 816
f 818 820 819
f 817 820 818
f 819 820 821
f 819 821 822
f 822 825 823
f 823 826 824
f 821 825 822
f 823 825 826
f 824 826 827
f 836 846 851
f 835 836 841
f 835 841 840
f 836 851 841
f 841 851 877
f 840 841 862
f 840 862 861
f 841 877 862
f 842 847 844
f 842 843 848
f 843 907 848
f 842 848 847
f 845 850 846
f 844 849 845
f 846 850 851
f 845 849 850
f 844 847 849
f 847 873 849
f 847 848 874
f 848 934 874
f 847 874 873
f 850 876 851
f 849 875 850
f 851 876 877
f 850 875 876
f 849 873 875
f 862 877 884
f 861 862 869
f 861 869 868
f 862 884 869
f 869 884 887
f 868 869 872
f 868 872 871
f 869 887 872
f 873 878 875
f 873 874 879
f 874 937 879
f 873 879 878
f 876 883 877
f 875 882 876
f 877 883 884
f 876 882 883
f 875 878 882
f 878 880 882
f 878 879 881
f 879 939 881
f 878 881 880
f 883 886 884
f 882 885 883
f 884 886 887
f 883 885 886
f 880 885 882
f 888 890 906
f 888 889 891
f 890 909 906
f 888 891 890
f 890 910 909
f 890 891 911
f 909 910 936
f 890 911 910
f 785 791 892
f 892 898 894
f 893 895 901
f 894 900 895
f 791 898 892
f 894 898 900
f 893 901 899
f 895 900 901
f 889 896 902
f 896 897 903
f 896 903 902
f 897 899 903
f 889 902 891
f 893 899 897
f 791 815 898
f 898 916 900
f 899 901 919
f 900 918 901
f 815 916 898
f 900 916 918
f 899 919 917
f 901 918 919
f 891 902 920
f 902 903 921
f 902 921 920
f 903 917 921
f 891 920 911
f 899 917 903
f 904 905 908
f 905 906 909
f 843 904 907
f 904 908 907
f 905 909 908
f 907 908 935
f 908 909 936
f 848 907 934
f 907 935 934
f 908 936 935
f 910 912 936
f 910 911 913
f 912 941 936
f 910 913 912
f 912 914 941
f 912 913 915
f 914 942 941
f 912 915 914
f 815 824 916
f 916 922 918
f 917 919 925
f 918 924 919
f 824 922 916
f 918 922 924
f 917 925 923
f 919 924 925
f 911 920 930
f 920 921 931
f 920 931 930
f 921 923 931
f 911 930 913
f 917 923 921
f 824 827 922
f 922 926 924
f 923 925 929
f 924 928 925
f 827 926 922
f 924 926 928
f 923 929 927
f 925 928 929
f 913 930 932
f 930 931 933
f 930 933 932
f 927 933 931
f 913 932 915
f 923 927 931
f 934 935 938
f 935 936 941
f 874 934 937
f 934 938 937
f 935 941 938
f 937 938 940
f 938 941 942
f 879 937 939
f 937 940 939
f 938 942 940
f 643 739 944
f 739 741 944
f 643 943 644
f 643 944 943
f 644 943 945
f 741 949 944
f 741 744 949
f 943 944 950
f 944 949 950
f 644 945 647
f 647 945 946
f 647 946 648
f 648 946 957
f 943 947 945
f 943 950 947
f 945 947 948
f 945 948 946
f 946 948 959
f 744 951 952
f 744 952 949
f 949 953 950
f 949 952 953
f 951 975 952
f 952 975 978
f 952 978 953
f 947 950 954
f 950 953 954
f 947 955 948
f 947 954 955
f 953 956 954
f 953 978 956
f 954 967 955
f 954 956 967
f 648 957 651
f 651 957 958
f 651 958 652
f 652 958 961
f 957 960 958
f 946 959 957
f 957 959 960
f 958 960 963
f 959 966 960
f 655 961 962
f 958 963 961
f 656 962 1018
f 961 964 962
f 961 963 964
f 960 970 963
f 962 964 1020
f 963 971 964
f 964 971 1028
f 948 965 959
f 948 955 965
f 959 965 966
f 960 966 970
f 965 969 966
f 955 967 968
f 955 968 965
f 965 968 969
f 968 993 969
f 963 970 971
f 966 972 970
f 970 973 971
f 970 972 973
f 966 969 972
f 969 994 972
f 972 995 973
f 972 994 995
f 951 974 975
f 753 976 974
f 974 977 975
f 975 979 978
f 974 976 977
f 975 977 979
f 976 982 977
f 956 978 980
f 978 979 980
f 956 989 967
f 956 980 989
f 977 984 979
f 979 984 985
f 979 985 980
f 980 991 989
f 980 985 991
f 754 981 976
f 976 981 982
f 754 757 981
f 977 982 984
f 981 987 982
f 757 983 981
f 757 1125 983
f 981 983 987
f 982 986 984
f 984 988 985
f 984 986 988
f 982 987 986
f 986 987 1130
f 986 1141 988
f 986 1130 1141
f 967 989 990
f 967 990 968
f 968 990 993
f 990 996 993
f 989 992 990
f 989 991 992
f 990 992 996
f 991 999 992
f 969 993 994
f 993 997 994
f 993 996 997
f 994 1062 995
f 994 997 1062
f 992 1002 996
f 996 1002 1003
f 997 1065 1062
f 996 1003 997
f 997 1003 1065
f 985 998 991
f 991 998 999
f 985 988 998
f 992 999 1002
f 998 1000 999
f 988 1001 998
f 988 1141 1001
f 998 1001 1000
f 1000 1001 1145
f 999 1005 1002
f 1002 1004 1003
f 1002 1005 1004
f 1003 1004 1072
f 999 1000 1005
f 1000 1146 1005
f 1004 1005 1074
f 1005 1146 1074
f 801 1006 802
f 802 1007 803
f 803 1011 807
f 802 1006 1007
f 803 1007 1011
f 807 1011 1008
f 807 1008 808
f 808 1009 809
f 809 1010 817
f 808 1008 1009
f 809 1009 1010
f 1006 1038 1007
f 1007 1039 1011
f 1008 1011 1040
f 1007 1038 1039
f 1011 1039 1040
f 1008 1040 1043
f 1008 1043 1009
f 1009 1044 1010
f 1010 1045 1016
f 1009 1043 1044
f 1010 1044 1045
f 817 1016 820
f 817 1010 1016
f 820 1012 821
f 820 1016 1012
f 821 1012 1013
f 821 1013 825
f 825 1014 826
f 826 1017 827
f 825 1013 1014
f 826 1014 1017
f 827 1017 1015
f 1012 1016 1082
f 1016 1045 1082
f 1012 1084 1013
f 1012 1082 1084
f 1013 1084 1085
f 1013 1085 1014
f 1014 1088 1017
f 1015 1017 1089
f 1014 1085 1088
f 1017 1088 1089
f 1015 1089 1090
f 661 1018 1019
f 962 1020 1018
f 1018 1021 1019
f 1018 1020 1021
f 662 1019 1022
f 1019 1025 1022
f 1019 1021 1025
f 964 1028 1020
f 1020 1028 1029
f 1020 1029 1021
f 1021 1029 1026
f 1022 1024 1023
f 1022 1025 1024
f 1023 1051 1050
f 1023 1024 1051
f 1021 1026 1025
f 1024 1025 1027
f 1025 1026 1027
f 1024 1054 1051
f 1024 1027 1054
f 971 1031 1028
f 971 973 1031
f 1028 1031 1030
f 1028 1030 1029
f 1029 1030 1034
f 973 1032 1031
f 973 995 1032
f 1030 1031 1033
f 1031 1032 1033
f 1026 1029 1034
f 1026 1034 1035
f 1026 1035 1027
f 1027 1035 1056
f 1034 1037 1035
f 1035 1037 1059
f 1030 1036 1034
f 1030 1033 1036
f 1034 1036 1037
f 1033 1067 1036
f 1036 1068 1037
f 1036 1067 1068
f 1038 1049 1039
f 1039 1041 1040
f 1040 1042 1043
f 1039 1049 1041
f 1040 1041 1042
f 1042 1046 1043
f 1043 1046 1044
f 1044 1047 1045
f 1045 1048 1082
f 1044 1046 1047
f 1045 1047 1048
f 1041 1049 1052
f 1041 1053 1042
f 1042 1055 1046
f 1050 1053 1052
f 1050 1051 1053
f 1041 1052 1053
f 1051 1055 1053
f 1051 1054 1055
f 1027 1056 1054
f 1054 1057 1055
f 1042 1053 1055
f 1046 1055 1057
f 1046 1057 1047
f 1047 1058 1048
f 1048 1061 1083
f 1054 1056 1057
f 1035 1059 1056
f 1056 1059 1058
f 1047 1057 1058
f 1056 1058 1057
f 1037 1060 1059
f 1037 1068 1060
f 1048 1058 1061
f 1058 1059 1061
f 1059 1060 1061
f 995 1063 1032
f 995 1062 1063
f 1032 1063 1064
f 1032 1064 1033
f 1063 1069 1064
f 1062 1066 1063
f 1062 1065 1066
f 1063 1066 1069
f 1065 1073 1066
f 1033 1064 1067
f 1064 1069 1070
f 1064 1070 1067
f 1067 1094 1068
f 1067 1070 1094
f 1069 1071 1070
f 1066 1077 1069
f 1069 1077 1071
f 1070 1097 1094
f 1070 1071 1097
f 1003 1072 1065
f 1065 1072 1073
f 1066 1073 1077
f 1072 1076 1073
f 1004 1075 1072
f 1004 1074 1075
f 1074 1217 1075
f 1072 1075 1076
f 1075 1220 1076
f 1075 1217 1220
f 1073 1078 1077
f 1073 1076 1078
f 1077 1078 1079
f 1071 1077 1079
f 1071 1079 1101
f 1076 1081 1078
f 1076 1220 1081
f 1078 1080 1079
f 1078 1081 1080
f 1080 1081 1245
f 1082 1083 1084
f 1048 1083 1082
f 1084 1086 1085
f 1083 1086 1084
f 1085 1086 1087
f 1085 1087 1088
f 1088 1091 1089
f 1089 1092 1090
f 1087 1091 1088
f 1089 1091 1092
f 1090 1092 1093
f 1083 1096 1086
f 1060 1068 1095
f 1068 1094 1095
f 1094 1098 1095
f 1061 1096 1083
f 1060 1096 1061
f 1060 1095 1096
f 1095 1099 1096
f 1094 1097 1098
f 1071 1101 1097
f 1095 1098 1099
f 1098 1100 1099
f 1097 1102 1098
f 1098 1102 1100
f 1086 1099 1087
f 1086 1096 1099
f 1087 1099 1100
f 1097 1101 1102
f 1079 1104 1101
f 1101 1103 1102
f 1102 1103 1106
f 1101 1104 1103
f 1079 1080 1104
f 1080 1105 1104
f 1080 1245 1105
f 1104 1105 1108
f 1103 1104 1108
f 1105 1251 1108
f 1087 1100 1091
f 1091 1106 1092
f 1092 1107 1093
f 1091 1100 1106
f 1092 1106 1107
f 1100 1102 1106
f 1103 1107 1106
f 1103 1108 1107
f 1107 1108 1109
f 1108 1251 1109
f 1093 1107 1109
f 872 887 1121
f 871 872 1115
f 871 1115 1114
f 872 1121 1115
f 1115 1121 1185
f 1114 1115 1165
f 1114 1165 1164
f 1115 1185 1165
f 880 1117 885
f 880 881 1118
f 881 1212 1118
f 880 1118 1117
f 886 1120 887
f 885 1119 886
f 887 1120 1121
f 886 1119 1120
f 885 1117 1119
f 1117 1181 1119
f 1117 1118 1182
f 1118 1261 1182
f 1117 1182 1181
f 1120 1184 1121
f 1119 1183 1120
f 1121 1184 1185
f 1120 1183 1184
f 1119 1181 1183
f 983 1125 1126
f 765 1127 1125
f 1125 1127 1126
f 983 1129 987
f 983 1126 1129
f 766 1134 1127
f 1126 1127 1128
f 1126 1128 1131
f 1127 1134 1128
f 987 1129 1130
f 1130 1143 1141
f 1129 1132 1130
f 1130 1132 1143
f 1126 1131 1129
f 1129 1131 1132
f 1131 1150 1132
f 766 1135 1134
f 1134 1135 1137
f 1128 1134 1139
f 1134 1137 1139
f 1135 1136 1137
f 1136 1170 1137
f 1137 1170 1172
f 1128 1138 1131
f 1128 1139 1138
f 1131 1138 1150
f 1138 1153 1150
f 1137 1172 1139
f 1138 1139 1140
f 1139 1172 1140
f 1138 1140 1153
f 1001 1141 1142
f 1141 1143 1142
f 1001 1142 1145
f 1132 1151 1143
f 1132 1150 1151
f 1142 1143 1144
f 1142 1144 1147
f 1143 1151 1144
f 1000 1145 1146
f 1142 1147 1145
f 1145 1147 1148
f 1074 1146 1216
f 1145 1148 1146
f 1146 1148 1216
f 1144 1156 1147
f 1147 1149 1148
f 1147 1156 1149
f 1150 1152 1151
f 1150 1153 1152
f 1144 1151 1155
f 1151 1152 1155
f 1140 1189 1153
f 1152 1153 1154
f 1152 1154 1157
f 1153 1189 1154
f 1144 1155 1156
f 1155 1158 1156
f 1149 1156 1226
f 1156 1158 1226
f 1152 1157 1155
f 1155 1157 1158
f 1154 1196 1157
f 1157 1159 1158
f 1157 1196 1159
f 1165 1185 1188
f 1164 1165 1167
f 1164 1167 1166
f 1165 1188 1167
f 1136 1169 1170
f 1169 1173 1170
f 1169 1171 1173
f 1170 1173 1174
f 1170 1174 1172
f 1140 1172 1190
f 1172 1174 1190
f 1171 1177 1173
f 1174 1191 1190
f 1173 1178 1174
f 1174 1178 1191
f 1167 1188 1201
f 1166 1167 1180
f 1171 1176 1177
f 1173 1177 1178
f 1177 1201 1178
f 1166 1180 1179
f 1176 1180 1177
f 1176 1179 1180
f 1167 1201 1180
f 1177 1180 1201
f 1181 1193 1183
f 1181 1182 1194
f 1182 1263 1194
f 1181 1194 1193
f 1184 1187 1185
f 1183 1186 1184
f 1185 1187 1188
f 1184 1186 1187
f 1183 1193 1186
f 1140 1190 1189
f 1189 1190 1192
f 1154 1189 1195
f 1189 1192 1195
f 1190 1191 1192
f 1191 1199 1192
f 1186 1193 1197
f 1193 1194 1198
f 1154 1195 1196
f 1195 1198 1196
f 1159 1196 1266
f 1196 1198 1266
f 1192 1197 1195
f 1195 1197 1198
f 1192 1199 1197
f 1194 1266 1198
f 1193 1198 1197
f 1187 1200 1188
f 1186 1199 1187
f 1188 1200 1201
f 1178 1200 1191
f 1178 1201 1200
f 1187 1199 1200
f 1191 1200 1199
f 1186 1197 1199
f 914 1202 942
f 914 915 1203
f 942 1202 1211
f 914 1203 1202
f 1202 1213 1211
f 1202 1203 1214
f 1211 1213 1265
f 1202 1214 1213
f 827 1015 926
f 926 1204 928
f 927 929 1209
f 928 1206 929
f 926 1015 1204
f 928 1204 1206
f 927 1209 1205
f 929 1206 1209
f 915 932 1207
f 932 933 1208
f 932 1208 1207
f 933 1205 1208
f 915 1207 1203
f 927 1205 933
f 1015 1090 1204
f 1204 1235 1206
f 1205 1209 1238
f 1206 1237 1209
f 1090 1235 1204
f 1206 1235 1237
f 1205 1238 1236
f 1209 1237 1238
f 1203 1207 1242
f 1207 1208 1243
f 1207 1243 1242
f 1208 1236 1243
f 1203 1242 1214
f 1205 1236 1208
f 939 940 1210
f 940 942 1211
f 881 939 1212
f 939 1210 1212
f 940 1211 1210
f 1210 1262 1212
f 1210 1211 1265
f 1118 1212 1261
f 1212 1262 1261
f 1210 1265 1262
f 1213 1230 1265
f 1213 1214 1215
f 1230 1268 1265
f 1213 1215 1230
f 1074 1216 1217
f 1216 1219 1217
f 1217 1219 1221
f 1148 1218 1216
f 1148 1149 1218
f 1216 1218 1219
f 1149 1227 1218
f 1218 1227 1223
f 1218 1223 1219
f 1217 1221 1220
f 1081 1220 1222
f 1220 1221 1222
f 1081 1222 1245
f 1221 1225 1222
f 1222 1225 1246
f 1219 1224 1221
f 1219 1223 1224
f 1221 1224 1225
f 1224 1258 1225
f 1149 1226 1227
f 1223 1227 1231
f 1226 1229 1227
f 1227 1229 1231
f 1158 1228 1226
f 1226 1228 1229
f 1158 1159 1228
f 1228 1269 1229
f 1230 1233 1268
f 1215 1234 1230
f 1223 1232 1224
f 1223 1231 1232
f 1224 1232 1258
f 1231 1234 1232
f 1232 1234 1259
f 1233 1269 1268
f 1229 1233 1231
f 1229 1269 1233
f 1230 1234 1233
f 1231 1233 1234
f 1090 1093 1235
f 1235 1239 1237
f 1236 1238 1241
f 1237 1240 1238
f 1093 1239 1235
f 1237 1239 1240
f 1236 1241 1250
f 1238 1240 1241
f 1214 1242 1244
f 1242 1243 1257
f 1242 1257 1244
f 1243 1250 1257
f 1214 1244 1215
f 1236 1250 1243
f 1222 1246 1245
f 1245 1246 1247
f 1105 1245 1247
f 1105 1247 1251
f 1246 1248 1247
f 1225 1249 1246
f 1225 1258 1249
f 1246 1249 1248
f 1248 1249 1254
f 1093 1109 1239
f 1239 1253 1240
f 1241 1256 1250
f 1240 1255 1241
f 1247 1252 1251
f 1247 1248 1252
f 1251 1252 1253
f 1109 1253 1239
f 1240 1253 1255
f 1109 1251 1253
f 1252 1255 1253
f 1250 1256 1254
f 1248 1256 1252
f 1248 1254 1256
f 1241 1255 1256
f 1252 1256 1255
f 1215 1244 1259
f 1244 1257 1260
f 1244 1260 1259
f 1232 1259 1258
f 1249 1258 1260
f 1258 1259 1260
f 1254 1260 1257
f 1249 1260 1254
f 1215 1259 1234
f 1250 1254 1257
f 1261 1262 1264
f 1262 1265 1268
f 1182 1261 1263
f 1261 1264 1263
f 1262 1268 1264
f 1263 1264 1267
f 1264 1268 1269
f 1194 1263 1266
f 1263 1267 1266
f 1159 1267 1228
f 1159 1266 1267
f 1264 1269 1267
f 1228 1267 1269
f 15 627 111
f 111 627 767
f 16 69 19
f 19 69 80
f 19 80 20
f 20 80 93
f 20 93 21
f 21 93 95
f 21 95 22
f 22 95 116
f 22 116 23
f 23 116 120
f 15 16 627
f 23 120 24
f 16 19 627
f 24 120 122
f 19 20 627
f 24 122 25
f 25 122 137
f 20 21 627
f 25 137 619
f 21 22 627
f 137 676 619
f 69 70 80
f 70 76 81
f 70 81 80
f 76 82 81
f 76 78 82
f 78 83 82
f 80 81 93
f 81 82 94
f 81 94 93
f 82 97 94
f 82 83 97
f 83 98 97
f 78 84 83
f 84 87 90
f 83 84 90
f 87 91 90
f 87 89 91
f 89 107 92
f 89 92 91
f 92 107 109
f 83 90 98
f 90 91 101
f 90 101 98
f 91 103 101
f 91 92 103
f 92 109 104
f 92 104 103
f 104 109 112
f 93 94 95
f 94 97 96
f 94 96 95
f 96 97 99
f 97 98 99
f 98 100 99
f 95 96 116
f 96 99 117
f 96 117 116
f 99 118 117
f 99 100 118
f 100 119 118
f 98 101 100
f 101 103 102
f 100 101 102
f 102 103 105
f 103 104 105
f 104 112 106
f 104 106 105
f 106 112 114
f 100 102 119
f 102 105 127
f 102 127 119
f 105 128 127
f 105 106 128
f 106 114 129
f 106 129 128
f 114 144 129
f 107 108 109
f 108 328 110
f 108 110 109
f 110 328 334
f 109 110 112
f 110 334 113
f 110 113 112
f 113 334 387
f 112 113 114
f 113 387 115
f 113 115 114
f 115 387 389
f 114 115 144
f 115 389 145
f 115 145 144
f 145 389 527
f 116 117 120
f 117 118 121
f 117 121 120
f 118 124 121
f 118 119 124
f 119 125 124
f 120 121 122
f 121 124 123
f 121 123 122
f 123 124 126
f 124 125 126
f 125 136 126
f 119 127 125
f 127 128 130
f 125 127 130
f 128 132 130
f 128 129 132
f 129 144 133
f 129 133 132
f 133 144 146
f 125 130 136
f 130 132 131
f 130 131 136
f 131 132 134
f 132 133 134
f 133 146 135
f 133 135 134
f 135 146 149
f 122 123 137
f 123 126 138
f 123 138 137
f 126 139 138
f 126 136 139
f 136 140 139
f 137 138 676
f 138 139 677
f 138 677 676
f 139 678 677
f 139 140 678
f 140 679 678
f 131 140 136
f 131 134 141
f 131 141 140
f 134 142 141
f 134 135 142
f 135 149 143
f 135 143 142
f 143 149 150
f 140 141 679
f 141 142 684
f 141 684 679
f 142 685 684
f 142 143 685
f 143 150 686
f 143 686 685
f 150 711 686
f 144 145 146
f 145 527 147
f 145 147 146
f 147 527 529
f 146 147 149
f 147 529 148
f 147 148 149
f 148 529 531
f 148 150 149
f 148 531 151
f 148 151 150
f 151 531 561
f 150 151 711
f 151 561 712
f 151 712 711
f 561 828 712
f 328 329 334
f 329 335 334
f 334 335 387
f 335 388 387
f 329 354 335
f 354 356 365
f 335 354 365
f 356 366 365
f 356 360 366
f 360 367 366
f 360 363 367
f 363 368 367
f 335 365 388
f 365 366 391
f 365 391 388
f 366 392 391
f 366 367 392
f 367 395 392
f 367 368 395
f 368 396 395
f 387 388 389
f 388 390 389
f 389 390 527
f 390 528 527
f 388 391 390
f 391 392 393
f 390 391 393
f 392 394 393
f 392 395 394
f 394 395 398
f 395 396 398
f 396 399 398
f 390 393 528
f 393 394 533
f 393 533 528
f 394 534 533
f 394 398 534
f 398 535 534
f 398 399 535
f 399 536 535
f 527 528 529
f 528 530 529
f 529 530 531
f 530 532 531
f 528 533 530
f 533 534 538
f 530 533 538
f 534 539 538
f 534 535 539
f 535 541 539
f 535 536 541
f 536 542 541
f 530 538 532
f 538 539 563
f 532 538 563
f 539 540 563
f 539 541 540
f 540 541 544
f 541 542 544
f 542 545 544
f 531 532 561
f 532 562 561
f 561 562 828
f 562 829 828
f 532 563 562
f 540 564 563
f 562 563 564
f 540 565 564
f 540 544 565
f 544 566 565
f 544 545 566
f 545 567 566
f 562 564 829
f 564 565 832
f 564 832 829
f 565 833 832
f 565 566 833
f 566 834 833
f 566 567 834
f 567 835 834
f 22 23 627
f 619 676 620
f 620 676 680
f 23 24 627
f 620 680 621
f 24 25 627
f 621 680 690
f 25 619 627
f 621 690 622
f 622 690 694
f 619 620 627
f 622 694 623
f 620 621 627
f 623 694 696
f 621 622 627
f 623 696 624
f 624 696 723
f 622 623 627
f 624 723 625
f 623 624 627
f 625 723 728
f 624 625 627
f 625 728 626
f 626 728 730
f 625 626 627
f 626 730 628
f 626 628 627
f 628 730 736
f 676 677 680
f 677 678 681
f 677 681 680
f 678 682 681
f 678 679 682
f 679 683 682
f 680 681 690
f 681 682 691
f 681 691 690
f 682 692 691
f 682 683 692
f 683 693 692
f 679 684 683
f 684 685 687
f 683 684 687
f 685 688 687
f 685 686 688
f 686 711 689
f 686 689 688
f 689 711 713
f 683 687 693
f 687 688 702
f 687 702 693
f 688 703 702
f 688 689 703
f 689 713 704
f 689 704 703
f 704 713 715
f 690 691 694
f 691 692 695
f 691 695 694
f 692 698 695
f 692 693 698
f 693 699 698
f 694 695 696
f 695 698 697
f 695 697 696
f 697 698 700
f 698 699 700
f 699 701 700
f 693 702 699
f 702 703 705
f 699 702 705
f 703 707 705
f 703 704 707
f 704 715 708
f 704 708 707
f 708 715 717
f 699 705 701
f 705 707 706
f 701 705 706
f 706 707 709
f 707 708 709
f 708 717 710
f 708 710 709
f 710 717 719
f 711 712 713
f 712 828 714
f 712 714 713
f 714 828 830
f 713 714 715
f 714 830 716
f 714 716 715
f 716 830 852
f 715 716 717
f 716 852 718
f 716 718 717
f 718 852 854
f 717 718 719
f 718 854 720
f 718 720 719
f 720 854 856
f 696 697 723
f 697 700 721
f 697 721 723
f 700 722 721
f 700 701 722
f 701 724 722
f 721 728 723
f 721 722 729
f 721 729 728
f 722 732 729
f 722 724 732
f 724 733 732
f 701 706 724
f 706 709 725
f 706 725 724
f 709 726 725
f 709 710 726
f 710 719 727
f 710 727 726
f 719 759 727
f 724 725 733
f 725 726 747
f 725 747 733
f 726 748 747
f 726 727 748
f 727 759 749
f 727 749 748
f 749 759 761
f 728 729 730
f 729 732 731
f 729 731 730
f 731 732 734
f 732 733 734
f 733 735 734
f 730 731 736
f 731 734 737
f 731 737 736
f 734 743 737
f 734 735 743
f 735 745 743
f 733 747 735
f 747 748 751
f 735 747 751
f 748 755 751
f 748 749 755
f 749 761 750
f 749 750 755
f 750 761 763
f 735 751 745
f 751 755 752
f 745 751 752
f 752 755 756
f 750 756 755
f 750 763 758
f 750 758 756
f 758 763 765
f 719 720 759
f 720 856 760
f 720 760 759
f 760 856 1110
f 759 760 761
f 760 1110 762
f 760 762 761
f 762 1110 1122
f 761 762 763
f 762 1122 764
f 762 764 763
f 764 1122 1133
f 763 764 765
f 764 1133 766
f 764 766 765
f 766 1133 1135
f 828 829 830
f 829 831 830
f 830 831 852
f 831 853 852
f 829 832 831
f 832 833 837
f 831 832 837
f 833 838 837
f 833 834 838
f 834 839 838
f 834 835 839
f 835 840 839
f 831 837 853
f 837 838 858
f 837 858 853
f 838 859 858
f 838 839 859
f 839 860 859
f 839 840 860
f 840 861 860
f 852 853 854
f 853 855 854
f 854 855 856
f 855 857 856
f 853 858 855
f 858 859 863
f 855 858 863
f 859 864 863
f 859 860 864
f 860 867 864
f 860 861 867
f 861 868 867
f 855 863 857
f 863 864 865
f 857 863 865
f 864 866 865
f 864 867 866
f 866 867 870
f 867 868 870
f 868 871 870
f 856 857 1110
f 857 1111 1110
f 1110 1111 1122
f 1111 1123 1122
f 857 865 1111
f 865 866 1112
f 865 1112 1111
f 866 1116 1112
f 866 870 1116
f 870 1113 1116
f 870 871 1113
f 871 1114 1113
f 1111 1112 1123
f 1112 1116 1160
f 1112 1160 1123
f 1116 1161 1160
f 1113 1161 1116
f 1113 1163 1161
f 1113 1114 1163
f 1114 1164 1163
f 1122 1123 1133
f 1123 1124 1133
f 1124 1135 1133
f 1124 1136 1135
f 1123 1160 1124
f 1160 1161 1162
f 1124 1160 1162
f 1161 1168 1162
f 1161 1163 1168
f 1163 1175 1168
f 1163 1164 1175
f 1164 1166 1175
f 1124 1162 1136
f 1162 1168 1169
f 1136 1162 1169
f 1168 1171 1169
f 1168 1175 1171
f 1171 1175 1176
f 1166 1176 1175
f 1166 1179 1176
f 6 2 3
f 6 5 2
f 6 3 13
f 6 12 5
f 9 12 10
f 13 10 12
f 13 3 10
f 6 13 12
