# MAAS exact compiled indexed mesh
# program_hash c001ce30525c973bc1fb9a3027418bbb979427a755483e2a06062188bcf468ca
# geometry_hash 754a2e4c65b4b058deb7ebf744b6e9be4e5f08edd6f618ac84634c56efea5ec0
v -14.2177973 -10.93657261 0
v -7.47813443 -4.5933605 3.96
v -14.2177973 -10.93657261 9.9
v -7.47813443 -4.5933605 9.9
v -2.5976889 -10.93657261 4.95
v -2.5976889 -6.51382265 4.95
v -2.5976889 -10.93657261 9.9
v -2.5976889 -6.51382265 9.9
v -2.5976889 -4.5933605 4.95
v -2.5976889 -4.5933605 9.9
v -7.47813443 4.5933605 3.96
v -14.2177973 10.93657261 0
v -7.47813443 4.5933605 9.9
v -14.2177973 10.93657261 9.9
v -2.5976889 4.5933605 4.95
v -2.5976889 4.5933605 9.9
v -2.5976889 6.51382265 4.95
v -2.5976889 10.93657261 4.95
v -2.5976889 6.51382265 9.9
v -2.5976889 10.93657261 9.9
v 2.28275662 -4.5933605 3.96
v 9.0224195 -10.93657261 0
v 2.28275662 -4.5933605 4.95
v 9.0224195 -10.93657261 4.95
v 9.0224195 -6.51382265 4.95
v 9.0224195 -6.51382265 9.9
v 9.0224195 -5.34153143 4.95
v 14.21780373 -5.34153143 4.95
v 9.0224195 -5.34153143 9.9
v 14.21780373 -5.34153143 9.9
v 2.28275662 4.5933605 3.96
v 9.0224195 10.93657261 0
v 1.19015843 2.26715559 4.95
v 2.28275662 1.04221162 4.95
v 2.28275662 2.82674773 4.95
v 2.28275662 4.5933605 4.95
v 9.0224195 1.64451405 9.9
v 9.0224195 6.27857697 4.95
v 9.0224195 6.51382265 4.95
v 9.0224195 10.93657261 4.95
v 14.21780373 6.27857697 4.95
v 9.0224195 6.27857697 9.9
v 9.0224195 6.51382265 9.9
v 14.21780373 6.27857697 9.9
f 1 5 3
f 1 22 5
f 1 12 22
f 3 7 4
f 1 3 14
f 3 4 13
f 3 5 7
f 4 7 8
f 4 8 10
f 1 14 12
f 12 14 18
f 12 18 32
f 3 13 14
f 14 13 20
f 13 16 19
f 13 19 20
f 14 20 18
f 22 24 5
f 22 32 24
f 24 32 25
f 32 27 25
f 12 32 22
f 32 18 40
f 32 38 27
f 32 39 38
f 40 39 32
f 2 21 11
f 2 9 21
f 2 13 4
f 2 4 9
f 4 10 9
f 11 21 31
f 11 31 15
f 2 11 13
f 11 15 16
f 11 16 13
f 21 9 23
f 21 23 34
f 21 34 35
f 21 35 36
f 21 36 31
f 31 36 15
f 5 6 8
f 5 8 7
f 18 20 17
f 20 19 17
f 5 24 6
f 24 25 6
f 18 17 39
f 18 39 40
f 15 23 9
f 10 16 9
f 15 9 16
f 33 34 23
f 6 25 8
f 26 10 8
f 26 8 25
f 26 16 10
f 26 29 19
f 29 25 27
f 26 25 29
f 33 23 15
f 33 15 36
f 33 36 35
f 26 19 16
f 29 37 19
f 37 42 19
f 43 39 17
f 43 17 19
f 42 43 19
f 43 38 39
f 42 38 43
f 28 27 41
f 28 29 27
f 28 41 30
f 28 30 29
f 29 30 37
f 33 35 34
f 41 27 38
f 30 41 44
f 30 44 37
f 37 44 42
f 41 38 44
f 42 44 38
