# MAAS exact compiled indexed mesh
# program_hash ed694b7f0988d8929385f9434a9e29d0c10db99a689c0e6f04b5fa82ac49cd0f
# geometry_hash b6db918542d59844a6d1857f9478b73d7b47230f933580a57c2500084f62db08
v -12.98241827 -12.98241827 0
v -11.83996546 -11.83996546 3.3
v -12.98241827 -7.78945096 0
v -11.83996546 -7.10397928 3.3
v -7.78945096 -12.98241827 0
v -7.10397928 -11.83996546 3.3
v -7.78945096 -7.78945096 0
v -10.69751265 -10.69751265 6.6
v -12.98241827 -2.59648365 0
v -11.83996546 -2.36799309 3.3
v -7.78945096 -2.59648365 0
v -10.69751265 -6.41850759 6.6
v -10.69751265 -2.13950253 6.6
v -5.71226404 -12.98241827 0
v -6.41850759 -10.69751265 6.6
v -9.55505985 -9.55505985 9.9
v -8.41260704 -8.41260704 13.2
v -7.27015423 -7.27015423 16.5
v -9.55505985 -5.73303591 9.9
v -9.55505985 -1.91101197 9.9
v -8.41260704 -5.04756422 13.2
v -7.27015423 -4.36209254 16.5
v -8.41260704 -1.68252141 13.2
v -7.27015423 -1.45403085 16.5
v -5.73303591 -9.55505985 9.9
v -5.71226404 -7.27015423 16.5
v -12.98241827 2.59648365 0
v -11.83996546 2.36799309 3.3
v -7.78945096 2.59648365 0
v -10.69751265 2.13950253 6.6
v -10.69751265 6.41850759 6.6
v -12.98241827 7.78945096 0
v -11.83996546 7.10397928 3.3
v -12.98241827 12.98241827 0
v -11.83996546 11.83996546 3.3
v -7.78945096 7.78945096 0
v -7.78945096 12.98241827 0
v -7.10397928 11.83996546 3.3
v -10.69751265 10.69751265 6.6
v -5.71226404 5.71226404 0
v -2.59648365 7.78945096 0
v -2.59648365 12.98241827 0
v -2.36799309 11.83996546 3.3
v -6.41850759 10.69751265 6.6
v -2.13950253 10.69751265 6.6
v -9.55505985 1.91101197 9.9
v -9.55505985 5.73303591 9.9
v -8.41260704 1.68252141 13.2
v -7.27015423 1.45403085 16.5
v -8.41260704 5.04756422 13.2
v -7.27015423 4.36209254 16.5
v -9.55505985 9.55505985 9.9
v -8.41260704 8.41260704 13.2
v -7.27015423 7.27015423 16.5
v -5.71226404 5.71226404 16.5
v -5.73303591 9.55505985 9.9
v -1.91101197 9.55505985 9.9
v -5.04756422 8.41260704 13.2
v -4.36209254 7.27015423 16.5
v -1.68252141 8.41260704 13.2
v -1.45403085 7.27015423 16.5
v 5.71226404 -12.98241827 0
v 6.41850759 -10.69751265 6.6
v 7.78945096 -12.98241827 0
v 7.10397928 -11.83996546 3.3
v 7.78945096 -7.78945096 0
v 12.98241827 -12.98241827 0
v 11.83996546 -11.83996546 3.3
v 12.98241827 -7.78945096 0
v 11.83996546 -7.10397928 3.3
v 10.69751265 -10.69751265 6.6
v 7.78945096 -2.59648365 0
v 12.98241827 -2.59648365 0
v 11.83996546 -2.36799309 3.3
v 10.69751265 -6.41850759 6.6
v 10.69751265 -2.13950253 6.6
v 5.73303591 -9.55505985 9.9
v 5.71226404 -7.27015423 16.5
v 9.55505985 -9.55505985 9.9
v 8.41260704 -8.41260704 13.2
v 7.27015423 -7.27015423 16.5
v 9.55505985 -5.73303591 9.9
v 9.55505985 -1.91101197 9.9
v 8.41260704 -5.04756422 13.2
v 7.27015423 -4.36209254 16.5
v 8.41260704 -1.68252141 13.2
v 7.27015423 -1.45403085 16.5
v 5.71226404 5.71226404 0
v 2.59648365 7.78945096 0
v 2.59648365 12.98241827 0
v 2.36799309 11.83996546 3.3
v 2.13950253 10.69751265 6.6
v 6.41850759 10.69751265 6.6
v 7.78945096 2.59648365 0
v 12.98241827 2.59648365 0
v 11.83996546 2.36799309 3.3
v 10.69751265 2.13950253 6.6
v 10.69751265 6.41850759 6.6
v 7.78945096 7.78945096 0
v 7.78945096 12.98241827 0
v 7.10397928 11.83996546 3.3
v 12.98241827 7.78945096 0
v 11.83996546 7.10397928 3.3
v 12.98241827 12.98241827 0
v 11.83996546 11.83996546 3.3
v 10.69751265 10.69751265 6.6
v 5.71226404 5.71226404 16.5
v 1.91101197 9.55505985 9.9
v 5.73303591 9.55505985 9.9
v 1.68252141 8.41260704 13.2
v 1.45403085 7.27015423 16.5
v 5.04756422 8.41260704 13.2
v 4.36209254 7.27015423 16.5
v 9.55505985 1.91101197 9.9
v 9.55505985 5.73303591 9.9
v 8.41260704 1.68252141 13.2
v 7.27015423 1.45403085 16.5
v 8.41260704 5.04756422 13.2
v 7.27015423 4.36209254 16.5
v 9.55505985 9.55505985 9.9
v 8.41260704 8.41260704 13.2
v 7.27015423 7.27015423 16.5
f 1 5 2
f 1 3 5
f 1 2 4
f 1 4 3
f 5 14 6
f 5 7 14
f 2 5 6
f 3 7 5
f 7 11 14
f 2 6 8
f 2 12 4
f 2 8 12
f 8 19 12
f 6 15 8
f 8 15 16
f 3 10 9
f 3 9 7
f 3 4 10
f 9 27 11
f 9 10 28
f 7 9 11
f 11 29 14
f 4 13 10
f 4 12 13
f 12 20 13
f 10 13 30
f 6 14 15
f 15 14 25
f 29 40 14
f 8 16 19
f 15 25 16
f 16 21 19
f 16 17 21
f 16 25 17
f 17 25 26
f 17 18 22
f 17 26 18
f 12 19 20
f 13 20 46
f 19 21 23
f 19 23 20
f 20 23 48
f 17 22 21
f 21 22 24
f 21 24 23
f 18 55 22
f 23 24 49
f 22 55 24
f 25 14 26
f 18 26 55
f 9 28 27
f 27 33 32
f 27 32 29
f 27 28 33
f 11 27 29
f 29 32 36
f 29 36 40
f 10 30 28
f 13 46 30
f 28 31 33
f 28 30 31
f 30 47 31
f 32 34 36
f 32 33 35
f 32 35 34
f 34 35 38
f 34 37 36
f 34 38 37
f 31 39 33
f 31 52 39
f 33 39 35
f 35 39 44
f 35 44 38
f 39 56 44
f 36 41 40
f 36 37 41
f 37 42 41
f 37 43 42
f 37 38 43
f 41 89 40
f 41 42 89
f 42 43 91
f 38 44 45
f 38 45 43
f 44 57 45
f 43 45 92
f 30 46 47
f 20 48 46
f 46 48 50
f 46 50 47
f 47 50 53
f 23 49 48
f 48 49 51
f 24 55 49
f 48 51 50
f 49 55 51
f 50 51 54
f 51 55 54
f 31 47 52
f 47 53 52
f 52 58 56
f 52 53 58
f 39 52 56
f 50 54 53
f 53 54 59
f 59 55 107
f 56 58 60
f 44 56 57
f 56 60 57
f 57 60 110
f 45 57 108
f 53 59 58
f 54 55 59
f 58 59 61
f 58 61 60
f 60 61 111
f 59 107 61
f 63 62 65
f 64 62 88
f 63 77 62
f 64 65 62
f 64 67 65
f 64 66 67
f 67 69 68
f 65 67 68
f 66 69 67
f 68 69 70
f 63 65 68
f 63 68 71
f 63 71 77
f 68 70 71
f 70 75 71
f 71 75 79
f 64 88 66
f 66 72 69
f 66 88 72
f 72 94 73
f 69 72 73
f 69 73 70
f 70 73 74
f 73 95 74
f 74 76 75
f 70 74 75
f 75 76 82
f 74 96 76
f 76 97 83
f 77 78 62
f 71 79 77
f 77 79 78
f 79 82 80
f 75 82 79
f 79 80 78
f 80 84 81
f 80 81 78
f 80 82 84
f 82 83 84
f 83 86 84
f 83 114 86
f 76 83 82
f 84 86 85
f 81 84 85
f 81 85 78
f 85 87 78
f 86 116 87
f 85 86 87
f 87 117 78
f 117 119 78
f 99 88 40
f 89 99 40
f 42 90 89
f 42 91 90
f 89 90 99
f 90 100 99
f 90 101 100
f 90 91 101
f 43 92 91
f 45 108 92
f 91 92 93
f 91 93 101
f 92 109 93
f 72 88 94
f 94 88 99
f 94 99 95
f 73 94 95
f 74 95 96
f 95 99 102
f 95 102 96
f 96 102 103
f 76 96 97
f 97 103 98
f 96 103 97
f 97 98 114
f 99 100 102
f 100 101 105
f 102 104 103
f 100 104 102
f 100 105 104
f 103 104 105
f 93 106 101
f 93 120 106
f 98 105 106
f 98 103 105
f 98 106 115
f 101 106 105
f 119 107 78
f 113 107 119
f 113 119 122
f 57 110 108
f 108 110 112
f 108 112 109
f 109 112 121
f 92 108 109
f 60 111 110
f 110 111 113
f 61 107 111
f 110 113 112
f 111 107 113
f 112 113 122
f 86 114 116
f 114 115 116
f 115 118 116
f 83 97 114
f 98 115 114
f 116 118 117
f 87 116 117
f 118 121 119
f 117 118 119
f 109 121 120
f 115 120 118
f 118 120 121
f 93 109 120
f 106 120 115
f 112 122 121
f 119 121 122
f 14 40 55
f 26 14 55
f 40 107 55
f 62 78 88
f 40 88 107
f 88 78 107
