# MAAS exact compiled indexed mesh
# program_hash 47cd9e52d8be492a4c310c697443a0db57755c991be08ad4ce9c01f99959cdf5
# geometry_hash 2068caa92e735e04cf3fb199328c0513521b9668b5d3b86616ac34a9a3e18cfe
v -15.67650442 -12.01278204 0
v -25.25767724 -7.5176765 5.04041451
v -15.67650442 -12.01278204 4.5003701
v -14.90148622 -11.23776384 4.5003701
v -14.90148622 -11.23776384 4.92227979
v -18.91661928 -7.5176765 5.04041451
v -13.26684579 -7.5176765 5.04041451
v -14.90148622 -1.00936164 0
v -15.67650442 -0.7397901 0
v -14.90148622 -0.7397901 0
v -17.24502814 -2.87422716 2.51064397
v -15.67650442 -2.87422716 2.51064397
v -15.67650442 -0.7397901 2.51064397
v -14.90148622 -0.7397901 2.51064397
v -15.67650442 -2.87422716 4.5003701
v -14.90148622 -2.87422716 4.5003701
v -14.90148622 -2.87422716 4.92227979
v -13.12326655 -2.87422716 4.92227979
v -13.26684579 -2.87422716 5.04041451
v -13.12326655 -2.87422716 5.04041451
v -6.92578782 -7.5176765 5.04041451
v -4.33305628 -11.23776384 4.5003701
v -4.33305628 -11.23776384 4.92227979
v -7.87075137 -3.45483463 0
v -4.33305628 -0.7397901 0
v -7.77126222 -5.65763283 5.04041451
v -6.92578782 -5.65763283 5.04041451
v -8.46860346 -4.12348209 5.04041451
v -10.98760472 -2.31846866 4.92227979
v -10.98760472 -2.31846866 5.04041451
v -2.82488674 -5.65763283 5.04041451
v -4.33305628 -0.7397901 4.5003701
v -24.80757129 -7.5176765 9.72642487
v -18.46651332 -7.5176765 9.72642487
v -13.71695174 -7.5176765 9.72642487
v -25.03262426 -0.33114414 7.38341969
v -17.24502814 -2.87422716 6.05468542
v -18.85231842 -0.33114414 5.70984456
v -17.24502814 -0.33114414 5.70984456
v -17.24502814 -0.33114414 6.05468542
v -13.36426968 -2.87422716 6.05468542
v -15.10936631 -2.31846866 7.69957069
v -13.52226606 -2.31846866 7.69957069
v -15.10936631 -0.33114414 7.69957069
v -13.52226606 -0.33114414 7.69957069
v -25.25767724 -0.33114414 9.72642487
v -24.80757129 -0.33114414 9.72642487
v -21.73311894 -0.33114414 9.72642487
v -18.46651332 -0.33114414 9.72642487
v -13.71695174 -0.33114414 9.72642487
v -7.37589378 -7.5176765 9.72642487
v -7.37589378 -5.65763283 9.72642487
v -11.54693806 -0.73664236 9.72642487
v -8.71583876 -1.84974845 9.72642487
v -8.71583876 -0.73664236 9.72642487
v -8.49162316 -0.73664236 9.72642487
v -7.16115627 -0.23307395 9.72642487
v -7.36549867 -0.00148589 9.72642487
v -11.54693806 -0.73664236 11.4
v -8.49162316 -0.73664236 11.4
v -2.37478079 -5.65763283 9.72642487
v -17.24502814 1.24753443 2.51064397
v -14.90148622 1.24753443 2.51064397
v -15.10936631 1.80329293 4.15552924
v -14.90148622 1.80329293 4.15552924
v -14.90148622 1.80329293 4.92227979
v -13.26684579 1.80329293 5.04041451
v -14.90148622 12.01278204 0
v -25.25767724 6.43265103 5.04041451
v -18.91661928 6.43265103 5.04041451
v -13.26684579 6.43265103 5.04041451
v -14.90148622 12.01278204 4.92227979
v -10.98760472 1.80329293 4.92227979
v -10.98760472 1.80329293 5.04041451
v -4.33305628 12.01278204 0
v -9.16594471 6.43265103 5.04041451
v -9.16594471 8.2926947 5.04041451
v -2.82488674 8.2926947 5.04041451
v -4.33305628 12.01278204 4.92227979
v -17.24502814 1.24753443 5.70984456
v -15.10936631 1.80329293 5.70984456
v -14.96764296 1.80329293 5.70984456
v -13.33114664 1.80329293 5.70984456
v -13.33114664 2.70246673 5.70984456
v -20.37414364 1.70366153 9.72642487
v -24.80757129 5.95014701 9.72642487
v -22.05903512 5.58518571 9.72642487
v -18.46651332 2.4985075 9.72642487
v -16.09173253 3.48799949 9.72642487
v -18.46651332 5.10815671 9.72642487
v -16.09173253 4.7928241 9.72642487
v -25.03262426 6.00991383 7.38341969
v -18.85231842 6.00991383 5.70984456
v -13.33114664 6.00991383 5.70984456
v -25.25767724 6.00991383 9.72642487
v -24.80757129 6.00991383 9.72642487
v -24.80757129 6.43265103 9.72642487
v -18.46651332 6.00991383 9.72642487
v -18.46651332 6.43265103 9.72642487
v -13.71695174 6.00991383 9.72642487
v -13.71695174 6.43265103 9.72642487
v -2.76058589 1.52889953 5.70984456
v -11.54693806 0.36882085 9.72642487
v -11.54693806 2.31867255 9.72642487
v -7.5689307 0.0612151 9.72642487
v -7.50811737 0.11380072 9.72642487
v -11.54693806 2.31867255 11.4
v -7.50811737 0.11380072 11.4
v -10.56343228 3.16911563 9.72642487
v -7.50811737 3.16911563 9.72642487
v -7.05251183 4.27743739 9.72642487
v -7.03008525 4.58403698 9.72642487
v -10.56343228 3.16911563 11.4
v -7.50811737 3.16911563 11.4
v -5.64138641 1.52889953 9.72642487
v -2.37478079 1.52889953 9.72642487
v -4.2824111 3.5637052 9.72642487
v -2.37478079 4.35855117 9.72642487
v -8.94089173 6.43265103 7.38341969
v -8.94089173 7.8699575 7.38341969
v -2.76058589 7.8699575 5.70984456
v -9.05597026 6.32064593 9.72642487
v -8.71583876 6.34332136 9.72642487
v -9.16594471 6.43265103 9.72642487
v -7.67821109 6.00991383 9.72642487
v -7.85582111 6.40065587 9.72642487
v -9.16594471 7.8699575 9.72642487
v -8.71583876 7.81019068 9.72642487
v -8.71583876 7.8699575 9.72642487
v -8.71583876 8.2926947 9.72642487
v -5.96730259 7.44522938 9.72642487
v -2.37478079 6.96820038 9.72642487
v -2.37478079 7.8699575 9.72642487
v -2.37478079 8.2926947 9.72642487
v 6.92578782 -7.5176765 5.04041451
v 2.82488674 -5.65763283 5.04041451
v 6.92578782 -5.65763283 5.04041451
v 7.77126222 -5.65763283 5.04041451
v 9.16594471 -2.58933135 5.04041451
v 16.73334741 -12.01278204 0
v 16.73334741 -12.01278204 4.5003701
v 13.26684579 -7.5176765 5.04041451
v 18.91661928 -7.5176765 5.04041451
v 25.25767724 -7.5176765 5.04041451
v 16.73334741 -0.7397901 0
v 16.73334741 -0.7397901 4.5003701
v 7.37589378 -7.5176765 9.72642487
v 2.37478079 -5.65763283 9.72642487
v 7.37589378 -5.65763283 9.72642487
v 8.71583876 -1.84974845 9.72642487
v 7.35346203 -0.01512742 9.72642487
v 10.45034612 -0.33114414 9.72642487
v 13.71695174 -7.5176765 9.72642487
v 18.46651332 -7.5176765 9.72642487
v 24.80757129 -7.5176765 9.72642487
v 13.33114664 -0.33114414 5.70984456
v 18.85231842 -0.33114414 5.70984456
v 25.03262426 -0.33114414 7.38341969
v 13.71695174 -0.33114414 9.72642487
v 18.46651332 -0.33114414 9.72642487
v 24.80757129 -0.33114414 9.72642487
v 24.80757129 -0.14359999 9.72642487
v 25.25767724 -0.33114414 9.72642487
v 2.82488674 8.2926947 5.04041451
v 9.16594471 6.43265103 5.04041451
v 9.16594471 8.2926947 5.04041451
v 13.26684579 6.43265103 5.04041451
v 18.91661928 6.43265103 5.04041451
v 25.25767724 6.43265103 5.04041451
v 2.76058589 1.52889953 5.70984456
v 0 3.04570497 5.70984456
v 2.76058589 4.5625104 5.70984456
v 2.37478079 1.52889953 9.72642487
v 6.20262181 2.76361741 9.72642487
v 0 5.34804316 9.72642487
v 5.60704623 4.64627841 9.72642487
v 5.60704623 4.64627841 11.4
v 7.37589378 0.01029522 9.72642487
v 7.3438068 0.12089469 9.72642487
v 6.92578782 2.46229823 9.72642487
v 11.80932143 1.70366153 9.72642487
v 6.92578782 4.00976295 9.72642487
v 7.29517192 4.64627841 9.72642487
v 7.37589378 4.64627841 9.72642487
v 8.66236113 4.64627841 9.72642487
v 10.12442994 5.58518571 9.72642487
v 8.66236113 4.64627841 11.4
v 2.76058589 7.8699575 5.70984456
v 6.15810708 8.2926947 8.05284974
v 8.94089173 6.43265103 7.38341969
v 9.00519258 6.43265103 8.05284974
v 8.94089173 7.8699575 7.38341969
v 8.87659088 7.8699575 8.05284974
v 9.00519258 7.8699575 8.05284974
v 8.87659088 8.2926947 8.05284974
v 10.32772691 6.43265103 8.05284974
v 10.4846863 6.60101521 8.05284974
v 7.4293714 9.65633011 8.05284974
v 10.4846863 9.65633011 8.05284974
v 0 6.65286777 9.72642487
v 2.37478079 7.8699575 9.72642487
v 2.37478079 8.2926947 9.72642487
v 5.60704623 7.70159331 9.72642487
v 5.76400562 7.8699575 9.72642487
v 6.15810708 8.2926947 9.72642487
v 5.60704623 7.70159331 11.4
v 10.32772691 6.43265103 9.72642487
v 7.4293714 6.60101521 11.4
v 10.4846863 6.60101521 11.4
v 7.4293714 9.65633011 11.4
v 10.4846863 9.65633011 11.4
v 16.09173253 1.1856613 5.70984456
v 18.85231842 2.70246673 5.70984456
v 13.71695174 2.4985075 9.72642487
v 13.71695174 5.10815671 9.72642487
v 16.09173253 3.48799949 9.72642487
v 16.09173253 4.7928241 9.72642487
v 22.29435434 0.90357374 9.72642487
v 13.33114664 6.00991383 5.70984456
v 18.85231842 6.00991383 5.70984456
v 25.03262426 6.00991383 7.38341969
v 13.71695174 6.00991383 9.72642487
v 13.71695174 6.43265103 9.72642487
v 18.46651332 6.00991383 9.72642487
v 18.46651332 6.43265103 9.72642487
v 24.80757129 6.00991383 9.72642487
v 25.25767724 6.00991383 9.72642487
v 24.80757129 6.43265103 9.72642487
f 1 3 12
f 3 4 15
f 1 9 8
f 1 8 24
f 1 12 9
f 8 9 10
f 9 14 10
f 9 12 13
f 9 13 14
f 3 15 12
f 4 16 15
f 1 24 140
f 1 140 3
f 3 141 4
f 4 141 22
f 3 140 141
f 22 141 146
f 24 25 140
f 25 32 145
f 25 145 140
f 22 146 32
f 32 146 145
f 140 145 141
f 141 145 146
f 4 5 16
f 10 14 63
f 5 17 16
f 4 22 5
f 5 22 23
f 22 32 23
f 8 10 24
f 10 63 72
f 72 63 65
f 72 65 66
f 10 72 68
f 10 68 24
f 24 68 25
f 25 75 32
f 23 32 79
f 25 68 75
f 68 79 75
f 68 72 79
f 32 75 79
f 6 70 38
f 2 6 33
f 6 34 33
f 2 33 36
f 2 36 69
f 6 38 34
f 34 38 49
f 33 34 47
f 33 47 36
f 34 86 47
f 34 49 48
f 34 48 96
f 38 70 93
f 36 92 69
f 34 96 86
f 48 85 97
f 48 97 96
f 85 87 97
f 85 88 87
f 87 90 98
f 69 99 70
f 69 92 97
f 69 97 99
f 70 99 93
f 93 99 98
f 92 96 97
f 87 98 97
f 97 98 99
f 84 83 82
f 50 89 88
f 50 103 89
f 89 103 104
f 89 104 109
f 90 91 100
f 89 125 91
f 58 106 105
f 58 111 106
f 57 111 58
f 106 111 110
f 89 109 125
f 91 125 100
f 109 110 125
f 110 111 112
f 110 112 125
f 7 41 19
f 7 35 41
f 35 43 41
f 50 45 43
f 35 50 43
f 35 53 50
f 7 21 51
f 21 27 52
f 7 51 35
f 21 52 51
f 35 51 54
f 35 54 53
f 51 52 54
f 50 53 103
f 53 54 55
f 71 67 83
f 71 83 84
f 71 84 94
f 71 94 101
f 94 100 101
f 71 101 76
f 76 101 119
f 101 124 119
f 100 124 101
f 100 122 124
f 100 125 122
f 122 125 123
f 123 125 126
f 38 39 40
f 38 40 49
f 49 40 44
f 50 44 45
f 36 47 46
f 49 44 50
f 36 46 92
f 38 80 39
f 38 94 80
f 38 93 94
f 94 81 80
f 94 82 81
f 84 82 94
f 46 47 95
f 48 49 85
f 46 95 92
f 47 86 95
f 86 96 95
f 87 88 90
f 49 50 85
f 50 88 85
f 88 89 90
f 89 91 90
f 90 100 98
f 93 100 94
f 93 98 100
f 92 95 96
f 142 167 156
f 135 142 147
f 135 147 137
f 137 147 149
f 142 153 147
f 147 150 149
f 147 153 150
f 150 153 184
f 152 153 159
f 152 184 153
f 142 156 153
f 153 156 159
f 156 167 219
f 150 184 178
f 152 181 184
f 181 185 184
f 181 186 185
f 181 214 186
f 185 186 207
f 186 215 222
f 165 190 167
f 167 190 196
f 190 191 196
f 167 196 207
f 167 207 223
f 186 222 207
f 207 222 223
f 167 223 219
f 219 223 222
f 158 163 161
f 161 163 162
f 157 212 213
f 158 221 163
f 160 216 214
f 215 217 224
f 160 218 216
f 162 163 227
f 162 227 218
f 216 218 227
f 216 227 217
f 217 226 224
f 217 227 226
f 163 221 227
f 221 226 227
f 143 157 168
f 143 144 155
f 143 155 154
f 143 154 157
f 154 160 157
f 144 158 155
f 144 169 158
f 154 155 161
f 154 218 160
f 154 162 218
f 155 158 161
f 154 161 162
f 157 213 168
f 168 213 220
f 158 169 221
f 168 220 225
f 220 224 225
f 168 225 169
f 169 228 221
f 169 225 228
f 224 228 225
f 221 228 226
f 224 226 228
f 156 157 159
f 157 160 159
f 151 178 183
f 151 183 179
f 179 183 180
f 152 159 181
f 180 183 182
f 178 184 183
f 186 214 215
f 156 212 157
f 156 220 212
f 156 219 220
f 212 220 213
f 159 160 181
f 160 214 181
f 214 216 215
f 215 216 217
f 215 224 222
f 219 224 220
f 219 222 224
f 27 31 52
f 31 102 61
f 31 61 52
f 61 102 116
f 54 56 55
f 54 57 56
f 56 58 105
f 56 57 58
f 52 61 54
f 54 61 57
f 57 61 111
f 61 116 115
f 31 78 102
f 78 121 102
f 111 115 112
f 112 117 125
f 117 126 125
f 61 115 111
f 112 115 117
f 117 118 131
f 76 119 120
f 76 120 77
f 77 120 130
f 77 130 134
f 77 134 78
f 78 134 121
f 121 134 133
f 123 126 128
f 126 129 128
f 117 130 126
f 117 131 130
f 120 129 130
f 126 130 129
f 131 132 133
f 130 131 133
f 130 133 134
f 170 171 172
f 118 173 175
f 173 174 175
f 174 182 175
f 175 182 176
f 175 176 203
f 174 180 182
f 176 182 183
f 190 192 191
f 191 192 194
f 192 193 194
f 132 200 201
f 175 203 200
f 200 203 201
f 201 203 204
f 136 148 170
f 136 137 148
f 137 149 148
f 148 173 170
f 148 149 150
f 148 150 151
f 148 151 179
f 148 174 173
f 148 179 174
f 150 178 151
f 136 170 164
f 164 170 172
f 164 172 188
f 174 179 180
f 164 188 202
f 164 202 166
f 188 201 202
f 166 202 189
f 165 166 190
f 166 192 190
f 166 195 192
f 166 189 195
f 192 195 193
f 189 202 205
f 201 205 202
f 201 204 205
f 102 170 116
f 102 121 188
f 115 116 117
f 116 173 117
f 117 173 118
f 118 175 132
f 119 127 120
f 121 133 201
f 119 124 127
f 122 127 124
f 122 123 128
f 122 128 127
f 120 127 129
f 127 128 129
f 118 132 131
f 132 175 200
f 132 201 133
f 102 171 170
f 116 170 173
f 102 188 171
f 171 188 172
f 121 201 188
f 5 18 17
f 5 29 18
f 5 23 79
f 5 79 29
f 72 66 73
f 79 73 29
f 72 73 79
f 2 70 6
f 2 69 70
f 7 19 20
f 7 26 21
f 21 26 27
f 7 28 26
f 7 30 28
f 7 20 30
f 28 30 74
f 28 74 76
f 76 74 67
f 71 76 67
f 135 137 138
f 135 138 142
f 138 139 142
f 139 167 142
f 139 165 167
f 143 168 144
f 144 168 169
f 26 28 78
f 26 78 27
f 27 78 31
f 28 76 78
f 76 77 78
f 136 164 137
f 137 164 138
f 138 164 139
f 139 164 165
f 164 166 165
f 53 59 103
f 53 55 60
f 53 60 59
f 55 56 60
f 56 105 108
f 56 108 60
f 59 60 108
f 59 104 103
f 59 107 104
f 104 107 109
f 59 114 107
f 107 113 109
f 107 114 113
f 105 106 108
f 59 108 114
f 106 114 108
f 106 110 114
f 109 113 110
f 110 113 114
f 176 177 203
f 176 183 187
f 183 184 187
f 184 185 187
f 176 187 177
f 177 187 206
f 185 209 187
f 185 207 209
f 189 198 195
f 194 195 197
f 193 195 194
f 191 197 196
f 191 194 197
f 195 199 197
f 195 198 199
f 177 206 203
f 203 206 204
f 204 206 205
f 189 205 198
f 198 205 206
f 196 197 207
f 197 209 207
f 197 199 211
f 187 208 206
f 187 211 208
f 198 206 210
f 206 208 211
f 206 211 210
f 187 209 211
f 197 211 209
f 198 211 199
f 198 210 211
f 11 13 12
f 11 62 13
f 62 14 13
f 11 12 37
f 11 39 62
f 37 12 15
f 11 37 39
f 37 15 16
f 17 18 19
f 37 16 17
f 37 17 19
f 19 18 20
f 29 30 18
f 20 18 30
f 30 29 74
f 37 40 39
f 37 44 40
f 37 19 41
f 37 41 42
f 37 42 44
f 42 43 44
f 42 41 43
f 45 44 43
f 62 63 14
f 62 80 64
f 62 65 63
f 62 64 65
f 62 39 80
f 64 80 81
f 64 66 65
f 64 81 66
f 66 67 73
f 66 82 67
f 66 81 82
f 83 67 82
f 74 29 73
f 67 74 73
