# MAAS exact compiled indexed mesh
# program_hash 1d562ecd6b2901e06e9b2e8ae63c008796caae0a5c3517261fb84b883bbe7aa1
# geometry_hash ebd988ada4bedfa4758874c5d07e4395c25ac62ea05bca34a6dc80ac739e3482
v -19.01526436 -14.24772148 0
v -19.01526436 -14.24772148 5.21142857
v -18.12048121 -13.35293834 5.21142857
v -19.01526436 -1.23269393 0
v -18.12048121 -1.54392285 0
v -18.12048121 -1.23269393 0
v -10.00327433 -4.36729916 0
v -19.01526436 -1.23269393 5.21142857
v -18.12048121 -1.23269393 5.21142857
v -5.91889289 -13.35293834 5.21142857
v -5.91889289 -1.23269393 0
v -5.91889289 -1.23269393 5.21142857
v -18.12048121 -13.35293834 11.4
v -5.91889289 -13.35293834 11.4
v -18.12048121 13.49055599 0
v -5.91889289 13.49055599 0
v -18.12048121 13.49055599 11.4
v -5.91889289 0.47552843 6.51428571
v -0.30616225 0.47552843 6.51428571
v -5.91889289 0.47552843 11.4
v -0.30616225 0.47552843 11.4
v -5.91889289 12.67711676 6.51428571
v -0.30616225 12.67711676 6.51428571
v -5.91889289 9.72839958 11.4
v -5.91889289 12.67711676 11.4
v -5.91889289 13.49055599 11.4
v -0.30616225 12.67711676 11.4
v 18.40293985 -14.24772148 0
v 18.40293985 -14.24772148 5.21142857
v 18.40293985 -1.23269393 0
v 18.40293985 -1.23269393 5.21142857
v 2.36010311 2.43601767 11.4
v 1.07718537 11.92468189 6.51428571
v 0.97545218 12.67711676 6.51428571
v 0.93589027 12.96972298 6.51428571
v 0.97545218 12.67711676 11.4
v 0.93589027 12.96972298 11.4
v 9.3198655 7.40182348 11.4
v 16.28799787 0.47552843 6.51428571
v 14.28899872 2.46252541 6.51428571
v 16.28799787 2.7328007 6.51428571
v 19.01526845 3.10154215 6.51428571
v 16.28799787 0.47552843 11.4
v 16.28799787 2.7328007 11.4
v 19.01526845 3.10154215 11.4
v 16.28799787 5.1662175 11.4
v 11.08334414 9.10639137 6.51428571
v 10.38820836 14.24772652 6.51428571
v 18.07555996 10.05177604 6.51428571
v 11.08334414 9.10639137 11.4
v 10.38820836 14.24772652 11.4
v 18.07555996 10.05177604 11.4
f 1 2 8
f 2 3 9
f 1 4 5
f 1 5 7
f 1 8 4
f 5 4 6
f 4 8 6
f 2 9 8
f 6 8 9
f 1 28 2
f 1 7 28
f 2 29 3
f 3 29 10
f 2 28 29
f 7 11 28
f 11 12 30
f 10 31 12
f 28 30 29
f 10 29 31
f 11 30 28
f 12 31 30
f 29 30 31
f 5 6 7
f 12 16 14
f 3 13 9
f 3 10 14
f 3 14 13
f 9 13 17
f 13 14 17
f 10 12 14
f 14 18 20
f 6 15 7
f 7 15 11
f 6 9 17
f 11 15 16
f 6 17 15
f 15 26 16
f 11 16 12
f 16 22 18
f 14 20 17
f 15 17 26
f 17 20 24
f 17 24 25
f 17 25 26
f 14 16 18
f 16 26 22
f 22 26 25
f 18 19 21
f 18 22 19
f 18 21 20
f 20 21 27
f 22 23 19
f 22 25 23
f 20 27 24
f 25 27 23
f 24 27 25
f 39 19 23
f 32 21 38
f 32 27 21
f 43 21 19
f 38 21 43
f 33 23 34
f 34 23 27
f 33 40 23
f 32 36 27
f 34 27 36
f 39 43 19
f 39 23 40
f 39 40 41
f 39 41 44
f 38 43 44
f 38 44 46
f 39 44 43
f 35 37 48
f 33 34 40
f 34 35 40
f 35 48 47
f 32 38 36
f 36 50 37
f 36 38 50
f 37 51 48
f 37 50 51
f 35 41 40
f 35 42 41
f 41 42 44
f 42 45 44
f 42 52 45
f 44 45 46
f 45 52 46
f 35 47 42
f 42 47 49
f 42 49 52
f 38 46 50
f 46 52 50
f 34 37 35
f 34 36 37
f 47 50 49
f 47 48 51
f 47 51 50
f 49 50 52
