# MAAS exact compiled indexed mesh
# program_hash e793530f1b091b3c8adf70517d829c4906c0a88db85f7fef93fd74c216a32b9e
# geometry_hash 270841e3ba92a5616592a345295c16c5baf9c1ee7901448006c0bdc81da7ad61
v -18.75209448 -13.90100917 0
v -18.75209448 -13.90100917 5.21142857
v -17.85525518 -13.00416987 5.21142857
v -17.85525518 -1.16801798 0
v -18.75209448 -0.85607388 0
v -17.85525518 -0.85607388 0
v -9.71939545 -3.99788224 0
v -18.75209448 -0.85607388 5.21142857
v -17.85525518 -0.85607388 5.21142857
v -5.62562834 -13.00416987 5.21142857
v -5.62562834 -0.85607388 0
v -5.62562834 -0.85607388 5.21142857
v -17.85525518 -13.00416987 11.4
v -5.62562834 -13.00416987 11.4
v -17.85525518 13.90100917 0
v -5.62562834 13.90100917 0
v -17.85525518 13.90100917 11.4
v -5.62562834 0.85607388 6.51428571
v -5.62562834 0.85607388 11.4
v -5.62562834 13.08570071 6.51428571
v -5.62562834 10.13020756 11.4
v -5.62562834 13.08570071 11.4
v -5.62562834 13.90100917 11.4
v 18.75209448 -13.90100917 0
v 18.75209448 -13.90100917 5.21142857
v 18.75209448 -0.85607388 0
v 18.75209448 -0.85607388 5.21142857
v 16.6322925 0.85607388 6.51428571
v 16.6322925 0.85607388 11.4
v 16.6322925 13.08570071 6.51428571
v 16.6322925 13.08570071 11.4
f 1 2 8
f 2 3 9
f 1 5 4
f 1 4 7
f 1 8 5
f 4 5 6
f 5 8 6
f 2 9 8
f 6 8 9
f 1 24 2
f 1 7 24
f 2 25 3
f 3 25 10
f 2 24 25
f 7 11 24
f 11 12 26
f 10 27 12
f 24 26 25
f 10 25 27
f 11 26 24
f 12 27 26
f 25 26 27
f 4 6 7
f 3 13 9
f 3 10 14
f 3 14 13
f 13 14 17
f 10 12 14
f 14 18 19
f 6 15 7
f 7 15 11
f 6 9 17
f 11 15 16
f 6 17 15
f 15 23 16
f 11 16 12
f 12 16 14
f 16 20 18
f 9 13 17
f 14 19 17
f 15 17 23
f 19 21 17
f 17 21 22
f 17 22 23
f 14 16 18
f 16 23 20
f 23 22 20
f 28 19 18
f 28 18 30
f 29 21 19
f 28 29 19
f 30 18 20
f 30 20 31
f 31 20 22
f 31 22 21
f 29 31 21
f 28 30 29
f 29 30 31
