# MAAS exact compiled indexed mesh
# program_hash efcf7a79aa999d2abef97f36883662c24695c21d9720b2b049923d5b87c64201
# geometry_hash 921f9fa0d4162c25848544e3f4f913bf20b4859fee1bcf152536aad26230040b
v -12.79330827 -10.87431203 0
v -10.55447932 -8.78473835 0
v -11.22821069 -12.48385691 4.8
v -12.79330827 -3.62477068 0
v -8.31565038 -6.69516466 0
v -10.55447932 -1.53519699 0
v -12.19536934 -5.29911934 4.8
v -6.50326504 -8.78473835 0
v -4.26443609 -10.87431203 0
v -2.77557825 -11.34602321 4.8
v -6.07682143 -4.60559098 0
v -4.26443609 -6.69516466 0
v -6.07682143 -1.53519699 0
v -2.02560714 -4.60559098 0
v -0.2132218 -6.69516466 0
v -5.40807041 -5.37512803 4.8
v -5.81769055 -2.33218035 4.8
v -1.39307001 -4.83465702 4.8
v -9.46237476 -13.87021495 9.6
v -10.35999162 -8.33536278 14.4
v -11.37940115 -6.87873015 9.6
v -13.19261309 -1.66212478 14.4
v -9.11560019 -5.5371199 14.4
v -1.23709853 -11.61488978 9.6
v -7.52737014 -15.00860078 14.4
v -6.28297872 -12.2103579 14.4
v -5.03858729 -9.41211502 14.4
v -4.64263372 -6.04856835 9.6
v -6.26646784 -0.12636946 9.6
v -5.45455078 -3.0874689 9.6
v -0.73562751 -4.97728889 9.6
v -4.99389437 -3.78755958 14.4
v -7.87120876 -2.73887702 14.4
v -6.19359287 -0.96124701 14.4
v -3.79419586 -6.61387214 14.4
v -0.06503345 -5.03093661 14.4
v -12.79330827 3.62477068 0
v -8.31565038 0.55437669 0
v -8.31565038 3.62477068 0
v -10.55447932 5.71434436 0
v -8.31565038 6.69516466 0
v -13.16252798 1.88561824 4.8
v -12.79330827 10.87431203 0
v -10.55447932 8.78473835 0
v -14.12968663 9.07035581 4.8
v -6.07682143 1.53519699 0
v -6.07682143 4.60559098 0
v -2.02560714 4.60559098 0
v -6.22731068 0.71076733 4.8
v -6.63693081 3.75371501 4.8
v -2.6219304 4.29418601 4.8
v -4.26443609 10.87431203 0
v -2.02560714 8.78473835 0
v -5.67705419 10.20818951 4.8
v -13.29642754 0.11275465 9.6
v -15.21345394 7.10423944 9.6
v -16.02523457 5.01111322 14.4
v -13.14792017 3.96243067 14.4
v -11.94822166 1.1361181 14.4
v -10.27060578 2.91374811 14.4
v -9.07090727 0.08743555 14.4
v -9.41875776 5.5453662 14.4
v -8.17436633 8.34360908 14.4
v -7.07838491 2.83472998 9.6
v -3.1713787 3.90600944 9.6
v -7.39329138 1.86506555 14.4
v -6.54144336 4.49668364 14.4
v -3.66412897 3.44800108 14.4
v -2.81228095 6.07961917 14.4
v -6.9881777 9.35956461 9.6
v -1.56788952 8.87786205 14.4
v -0.32349809 11.67610493 14.4
v 2.02560714 -8.78473835 0
v 4.26443609 -10.87431203 0
v 5.67705419 -10.20818951 4.8
v 2.02560714 -4.60559098 0
v 6.07682143 -4.60559098 0
v 6.07682143 -1.53519699 0
v 2.6219304 -4.29418601 4.8
v 6.63693081 -3.75371501 4.8
v 6.22731068 -0.71076733 4.8
v 10.55447932 -8.78473835 0
v 12.79330827 -10.87431203 0
v 14.12968663 -9.07035581 4.8
v 8.31565038 -6.69516466 0
v 10.55447932 -5.71434436 0
v 8.31565038 -3.62477068 0
v 8.31565038 -0.55437669 0
v 12.79330827 -3.62477068 0
v 13.16252798 -1.88561824 4.8
v 6.9881777 -9.35956461 9.6
v 0.32349809 -11.67610493 14.4
v 1.56788952 -8.87786205 14.4
v 3.1713787 -3.90600944 9.6
v 7.07838491 -2.83472998 9.6
v 2.81228095 -6.07961917 14.4
v 3.66412897 -3.44800108 14.4
v 6.54144336 -4.49668364 14.4
v 7.39329138 -1.86506555 14.4
v 8.17436633 -8.34360908 14.4
v 15.21345394 -7.10423944 9.6
v 13.29642754 -0.11275465 9.6
v 9.41875776 -5.5453662 14.4
v 9.07090727 -0.08743555 14.4
v 10.27060578 -2.91374811 14.4
v 11.94822166 -1.1361181 14.4
v 13.14792017 -3.96243067 14.4
v 16.02523457 -5.01111322 14.4
v 0.2132218 6.69516466 0
v 2.02560714 4.60559098 0
v 6.07682143 1.53519699 0
v 4.26443609 6.69516466 0
v 6.07682143 4.60559098 0
v 1.39307001 4.83465702 4.8
v 5.81769055 2.33218035 4.8
v 5.40807041 5.37512803 4.8
v 4.26443609 10.87431203 0
v 6.50326504 8.78473835 0
v 2.77557825 11.34602321 4.8
v 10.55447932 1.53519699 0
v 8.31565038 6.69516466 0
v 12.79330827 3.62477068 0
v 12.19536934 5.29911934 4.8
v 10.55447932 8.78473835 0
v 12.79330827 10.87431203 0
v 11.22821069 12.48385691 4.8
v 0.73562751 4.97728889 9.6
v 5.45455078 3.0874689 9.6
v 6.26646784 0.12636946 9.6
v 4.64263372 6.04856835 9.6
v 0.06503345 5.03093661 14.4
v 3.79419586 6.61387214 14.4
v 6.19359287 0.96124701 14.4
v 7.87120876 2.73887702 14.4
v 4.99389437 3.78755958 14.4
v 1.23709853 11.61488978 9.6
v 5.03858729 9.41211502 14.4
v 6.28297872 12.2103579 14.4
v 7.52737014 15.00860078 14.4
v 11.37940115 6.87873015 9.6
v 9.11560019 5.5371199 14.4
v 13.19261309 1.66212478 14.4
v 9.46237476 13.87021495 9.6
v 10.35999162 8.33536278 14.4
f 2 1 4
f 7 1 3
f 3 1 9
f 8 1 2
f 7 3 21
f 4 1 7
f 37 6 4
f 4 7 42
f 2 4 6
f 6 5 2
f 6 38 5
f 55 42 7
f 3 9 10
f 9 1 8
f 8 2 12
f 9 8 73
f 74 10 9
f 15 73 8
f 10 19 3
f 5 12 2
f 5 14 12
f 5 11 14
f 38 11 5
f 13 11 38
f 12 15 8
f 12 76 15
f 14 76 12
f 19 21 3
f 19 25 20
f 20 25 26
f 19 20 21
f 20 26 23
f 21 55 7
f 21 22 55
f 20 22 21
f 23 22 20
f 23 59 22
f 33 59 23
f 33 61 59
f 10 24 19
f 24 25 19
f 26 25 92
f 27 23 26
f 92 25 24
f 93 27 26
f 26 92 93
f 93 96 27
f 27 33 23
f 27 35 33
f 33 35 32
f 33 32 61
f 32 34 61
f 96 35 27
f 36 35 96
f 42 37 4
f 37 43 40
f 42 45 37
f 37 40 6
f 40 38 6
f 39 38 40
f 40 44 39
f 41 39 44
f 56 45 42
f 45 43 37
f 40 43 44
f 44 43 52
f 54 43 45
f 54 45 70
f 39 13 38
f 46 13 39
f 41 46 39
f 41 47 46
f 109 47 41
f 48 47 109
f 53 109 41
f 53 41 44
f 52 43 54
f 44 52 53
f 117 53 52
f 52 54 119
f 136 119 54
f 55 56 42
f 22 57 55
f 59 57 22
f 58 57 59
f 55 57 56
f 62 57 58
f 56 57 63
f 58 59 61
f 61 60 58
f 61 34 60
f 63 57 62
f 60 67 58
f 62 58 67
f 56 70 45
f 56 63 70
f 34 66 60
f 60 66 68
f 60 68 67
f 67 69 62
f 69 71 62
f 68 131 67
f 67 131 69
f 70 136 54
f 63 62 71
f 63 72 70
f 70 72 136
f 71 72 63
f 73 74 9
f 74 75 10
f 73 82 74
f 74 83 75
f 85 82 73
f 75 24 10
f 15 85 73
f 76 77 15
f 15 77 85
f 85 77 78
f 85 78 87
f 78 111 87
f 87 111 88
f 82 83 74
f 86 83 82
f 75 83 84
f 84 83 89
f 75 84 91
f 85 87 82
f 86 82 87
f 87 88 86
f 88 120 86
f 89 86 120
f 89 83 86
f 84 89 90
f 122 90 89
f 90 101 84
f 75 91 24
f 92 24 91
f 100 93 92
f 91 100 92
f 100 103 93
f 98 36 96
f 97 36 98
f 103 96 93
f 98 96 103
f 105 97 98
f 105 99 97
f 133 99 105
f 84 101 91
f 91 101 100
f 90 102 101
f 103 107 98
f 105 98 107
f 100 108 103
f 104 133 105
f 104 105 107
f 107 106 104
f 102 108 101
f 101 108 100
f 103 108 107
f 107 108 106
f 106 108 142
f 142 108 102
f 110 48 112
f 112 48 109
f 112 109 118
f 111 113 88
f 88 113 121
f 121 113 110
f 121 110 112
f 121 112 124
f 118 109 53
f 119 117 52
f 117 118 53
f 118 124 112
f 117 125 118
f 119 126 117
f 143 126 119
f 88 121 120
f 121 124 120
f 120 124 122
f 120 122 89
f 122 123 90
f 122 125 123
f 123 102 90
f 118 125 124
f 126 125 117
f 124 125 122
f 123 125 126
f 123 126 140
f 131 132 69
f 69 132 137
f 135 133 104
f 134 135 104
f 134 132 135
f 137 132 134
f 141 137 134
f 136 143 119
f 69 137 71
f 71 138 72
f 137 138 71
f 72 139 136
f 138 137 141
f 136 139 143
f 138 139 72
f 123 140 102
f 134 104 106
f 141 134 106
f 106 142 141
f 140 144 142
f 144 141 142
f 142 102 140
f 126 143 140
f 140 143 144
f 144 138 141
f 143 139 144
f 144 139 138
f 14 11 16
f 16 11 17
f 17 11 13
f 17 13 49
f 14 18 76
f 14 16 18
f 49 29 17
f 16 17 30
f 16 28 18
f 16 30 28
f 17 29 30
f 18 28 31
f 32 28 30
f 32 35 28
f 30 29 34
f 30 34 32
f 28 35 31
f 31 35 36
f 46 49 13
f 46 47 50
f 46 50 49
f 50 47 51
f 51 47 48
f 51 48 114
f 50 64 49
f 65 50 51
f 114 127 51
f 49 64 29
f 64 50 65
f 65 51 127
f 64 66 29
f 68 64 65
f 29 66 34
f 68 66 64
f 127 131 65
f 68 65 131
f 79 77 76
f 79 76 18
f 80 77 79
f 78 77 80
f 81 111 78
f 78 80 81
f 18 31 79
f 94 80 79
f 95 81 80
f 94 79 31
f 95 80 94
f 95 129 81
f 31 36 94
f 97 94 36
f 97 95 94
f 95 99 129
f 97 99 95
f 129 99 133
f 110 114 48
f 110 116 114
f 115 113 111
f 81 115 111
f 110 113 116
f 116 113 115
f 116 130 114
f 116 115 128
f 129 115 81
f 114 130 127
f 129 128 115
f 128 130 116
f 130 132 127
f 127 132 131
f 129 133 128
f 133 135 128
f 128 135 130
f 135 132 130
