# MAAS exact compiled indexed mesh
# program_hash 9c23f2b06064bc40552bee41ef44590b418302b2aa444f295b9dd13fffaa361a
# geometry_hash 6cd50676a9bb644eaf7aa03c09d09a3a44f9a4a419aa7d81113480a832e71a98
v -11.40823544 -4.51766123 0
v -2.65943915 -10.74342782 0
v -3.50119582 -4.51766123 0
v -11.40823544 -4.51766123 16.5
v -2.65943915 -10.74342782 16.5
v -3.50119582 -4.51766123 16.5
v -1.1183065 -4.51766123 16.5
v -11.40823544 4.51766123 0
v -4.72281935 4.51766123 0
v -5.41693604 9.65145905 0
v -11.40823544 4.51766123 16.5
v -4.72281935 4.51766123 16.5
v -5.41693604 9.65145905 16.5
v 5.41693604 -9.65145905 0
v 4.72281935 -4.51766123 0
v 11.40823544 -4.51766123 0
v 5.41693604 -9.65145905 16.5
v 4.72281935 -4.51766123 16.5
v 11.40823544 -4.51766123 16.5
v 3.50119582 4.51766123 0
v 2.65943915 10.74342782 0
v 11.40823544 4.51766123 0
v 1.1183065 4.51766123 16.5
v 3.50119582 4.51766123 16.5
v 2.65943915 10.74342782 16.5
v 11.40823544 4.51766123 16.5
f 1 8 3
f 1 3 6
f 1 6 4
f 1 4 11
f 4 6 11
f 6 7 11
f 11 7 18
f 8 9 3
f 1 11 8
f 8 11 9
f 11 12 9
f 11 19 12
f 16 15 20
f 16 19 15
f 16 22 19
f 11 18 19
f 19 18 15
f 16 20 22
f 22 20 24
f 19 23 12
f 19 24 23
f 19 22 26
f 22 24 26
f 26 24 19
f 2 6 3
f 2 3 21
f 2 5 6
f 5 7 6
f 21 3 9
f 21 9 10
f 10 9 13
f 21 10 25
f 13 9 12
f 25 10 13
f 13 12 23
f 25 13 23
f 14 2 15
f 14 5 2
f 14 15 17
f 2 20 15
f 14 17 5
f 17 15 18
f 17 7 5
f 17 18 7
f 2 21 20
f 21 24 20
f 21 25 24
f 25 23 24
