# MAAS exact compiled indexed mesh
# program_hash 399ab3235f8d5b4dd2a0cd8caec676a8e8a427a913114fae1b21640af37834d2
# geometry_hash 6f814398d877defc5ae4fa14fb6b08e65b3bb840427d5ee6e1fe65dfc2e12392
v -11.64296748 -12.27829259 0
v -11.64296748 -12.27829259 4.63313285
v -16.30713102 -4.5158209 0
v -16.30713102 -4.5158209 4.63313285
v -3.66850109 -16.51839158 0
v -3.66850109 -16.51839158 4.63313285
v -7.51558807 -4.5158209 0
v -7.51558807 -4.5158209 8.09070582
v -16.30713102 4.5158209 0
v -16.30713102 4.5158209 4.63313285
v -4.45806619 1.23454141 0
v -2.71337894 4.5158209 0
v -2.71337894 4.5158209 9.97933772
v 2.71337894 -4.5158209 0
v 4.45806619 -1.23454141 0
v 16.30713102 -4.5158209 0
v 2.71337894 -4.5158209 9.97933772
v 9.54408021 -4.5158209 14.8
v 16.30713102 -4.5158209 14.8
v 0 -0 0
v 7.51558807 4.5158209 0
v 3.66850109 16.51839158 0
v 16.30713102 4.5158209 0
v 11.64296748 12.27829259 0
v 7.51558807 4.5158209 14.00222654
v 0.49344106 10.54697214 14.8
v 3.66850109 16.51839158 14.8
v 9.54408021 4.5158209 14.8
v 8.46790744 6.30687315 14.8
v 16.30713102 4.5158209 14.8
v 11.64296748 12.27829259 14.8
f 3 9 7
f 3 4 10
f 3 7 8
f 3 8 4
f 11 20 7
f 3 10 9
f 9 11 7
f 9 10 12
f 9 12 11
f 10 13 12
f 16 17 14
f 16 14 15
f 16 15 21
f 16 23 19
f 18 8 17
f 16 18 17
f 16 19 18
f 18 19 30
f 16 21 23
f 23 21 25
f 19 23 30
f 23 25 30
f 18 30 28
f 28 30 25
f 5 2 1
f 1 2 8
f 1 8 7
f 5 6 2
f 5 1 14
f 5 14 6
f 1 7 20
f 1 15 14
f 1 20 21
f 20 11 12
f 26 13 8
f 26 12 13
f 6 14 17
f 1 21 15
f 22 20 12
f 24 21 20
f 24 20 22
f 22 12 27
f 24 25 21
f 24 22 31
f 26 27 12
f 31 22 27
f 29 27 26
f 29 31 27
f 24 29 25
f 24 31 29
f 4 8 13
f 4 13 10
f 18 28 8
f 28 25 8
f 6 8 2
f 6 17 8
f 26 8 25
f 29 26 25
