# MAAS exact compiled indexed mesh
# program_hash 07f422f746b07d32bdb10c63208decd8fdb79b48077d2e588afcd8d285bdde6c
# geometry_hash d9dd9b128222816bdc32d7951b32b0e2df86e0a556da5252454032a573c24aa4
v -16.45877953 -11.39547181 1.24031891
v -16.45877953 -4.76148822 1.24031891
v -16.45877953 -11.39547181 9.9
v -16.45877953 -4.76148822 9.9
v -15.38878218 5.18948716 1.24031891
v -15.38878218 11.39547181 1.24031891
v -15.38878218 5.18948716 5.75056948
v -15.38878218 11.39547181 5.75056948
v 11.01875249 -9.22765717 0
v 11.01875249 -9.22765717 1.24031891
v 16.36873925 -9.22765717 0
v 13.50114635 -11.39547181 1.24031891
v 13.50114635 -9.22765717 1.24031891
v 13.50114635 -9.22765717 2.48063781
v 16.36873925 -9.22765717 2.48063781
v 10.53851927 -4.76148822 1.24031891
v 16.36873925 -3.87767041 0
v 10.53851927 -4.76148822 2.48063781
v 13.50114635 -4.76148822 2.48063781
v 16.36873925 -3.87767041 2.48063781
v 13.50114635 -11.39547181 9.9
v 13.50114635 -4.76148822 9.9
v 8.16185956 5.6977359 0
v 8.16185956 5.6977359 1.24031891
v 8.16185956 8.68904725 0
v 8.16185956 8.68904725 1.24031891
v 8.16185956 11.39547181 1.24031891
v 9.56355609 4.30566935 0
v 9.56355609 5.18948716 1.24031891
v 9.56355609 4.30566935 2.48063781
v 9.56355609 5.18948716 2.48063781
v 12.43114899 5.18948716 2.48063781
v 9.56355609 5.6977359 0
v 9.56355609 5.6977359 1.24031891
v 9.28151307 8.68904725 0
v 9.28151307 11.39547181 0
v 15.33912567 5.6977359 0
v 15.33912567 8.40416046 0
v 16.45877918 8.40416046 0
v 16.45877918 11.39547181 0
v 12.43114899 5.6977359 2.48063781
v 15.33912567 5.6977359 2.48063781
v 8.16185956 5.6977359 5.75056948
v 8.16185956 8.68904725 5.75056948
v 8.16185956 11.39547181 5.75056948
v 12.43114899 5.18948716 5.75056948
v 9.28151307 8.68904725 5.75056948
v 9.28151307 11.39547181 5.75056948
v 12.43114899 5.6977359 5.75056948
v 15.33912567 5.6977359 5.75056948
v 15.33912567 8.40416046 5.75056948
v 16.45877918 8.40416046 5.75056948
v 16.45877918 11.39547181 5.75056948
f 1 4 2
f 1 2 12
f 1 12 3
f 1 3 4
f 3 21 4
f 2 4 22
f 2 16 10
f 2 10 12
f 2 18 16
f 2 22 18
f 10 13 12
f 12 13 14
f 12 14 21
f 3 12 21
f 4 21 22
f 14 19 21
f 19 22 21
f 18 22 19
f 5 7 8
f 5 8 6
f 5 31 7
f 5 6 29
f 6 8 27
f 7 45 8
f 5 29 31
f 7 31 32
f 7 32 46
f 6 24 29
f 6 26 24
f 6 27 26
f 8 45 27
f 29 24 34
f 32 41 49
f 32 49 46
f 7 46 43
f 7 43 44
f 7 44 45
f 46 49 43
f 9 13 10
f 9 10 16
f 9 11 13
f 11 14 13
f 11 15 14
f 11 17 15
f 14 15 19
f 9 16 28
f 16 18 30
f 9 37 11
f 15 17 20
f 11 37 17
f 17 42 20
f 18 19 42
f 15 42 19
f 15 20 42
f 9 28 37
f 16 30 28
f 28 29 33
f 29 34 33
f 28 33 37
f 28 31 29
f 28 30 31
f 17 37 42
f 18 32 30
f 30 32 31
f 18 42 32
f 32 42 41
f 27 45 26
f 45 44 26
f 23 24 25
f 25 24 26
f 23 33 34
f 23 25 33
f 23 34 24
f 25 37 33
f 25 35 37
f 25 26 35
f 35 26 44
f 35 38 37
f 38 51 37
f 35 44 47
f 50 41 42
f 51 42 37
f 50 49 41
f 50 42 51
f 43 49 44
f 50 44 49
f 47 44 50
f 47 50 51
f 35 36 38
f 35 48 36
f 38 39 51
f 36 39 38
f 36 40 39
f 36 53 40
f 39 40 52
f 35 47 48
f 36 48 53
f 39 52 51
f 52 40 53
f 47 51 48
f 48 51 52
f 48 52 53
