# MAAS exact compiled indexed mesh
# program_hash 9f10db5e3a050b5134e4e9e2523a70e68e315936a7367c37ba28ce482c9d65f2
# geometry_hash 9835f1ae3f901a8e32a937e31b6704b201245e6cb34a5b74f8809133bc83e784
v -21.73299001 -9.01532611 2.78599317
v -12.54754763 -15.37447852 2.78599317
v -17.74491204 -12.61350146 2.78599317
v -19.63207473 -9.93915917 5.42437173
v -13.88197317 -13.91999871 5.42437173
v -24.24000063 -4.82516216 2.78599317
v -25.09509526 -0.32856236 2.78599317
v -23.11530287 -5.1111655 5.32243478
v -24.24000063 -0.32856236 5.17075362
v -6.49508859 -17.11010126 2.78599317
v -6.90820453 -16.33146435 5.32243478
v -14.48866001 -10.35917313 8.1057025
v -19.63207473 -5.30337334 7.88294914
v -21.73299001 -0.32856236 7.39299659
v -13.88197317 -5.30337334 9.99417743
v -17.74491204 -0.32856236 9.30127988
v -12.54754763 -0.32856236 10.76555716
v -7.18583808 -13.91999871 7.88294914
v -7.18583808 -9.93915917 9.99417743
v -6.90820453 -5.1111655 11.27309219
v -6.49508859 -0.32856236 11.68604033
v -24.24000063 4.16803743 2.78599317
v -21.73299001 8.35820138 2.78599317
v -23.11530287 4.45404077 5.32243478
v -17.74491204 11.95637674 2.78599317
v -12.54754763 14.7173538 2.78599317
v -19.63207473 9.28203445 5.42437173
v -13.88197317 13.26287399 5.42437173
v -6.49508859 16.45297654 2.78599317
v -6.90820453 15.67433963 5.32243478
v -19.63207473 4.64624862 7.88294914
v -13.88197317 4.64624862 9.99417743
v -14.48866001 9.70204841 8.1057025
v -6.90820453 4.45404077 11.27309219
v -7.18583808 13.26287399 7.88294914
v -7.18583808 9.28203445 9.99417743
v 0 -17.70208985 2.78599317
v 6.49508859 -17.11010126 2.78599317
v 0 -17.11010126 5.17075362
v 6.90820453 -16.33146435 5.32243478
v 12.54754763 -15.37447852 2.78599317
v 17.74491204 -12.61350146 2.78599317
v 21.73299001 -9.01532611 2.78599317
v 13.88197317 -13.91999871 5.42437173
v 19.63207473 -9.93915917 5.42437173
v 24.24000063 -4.82516216 2.78599317
v 25.09509526 -0.32856236 2.78599317
v 23.11530287 -5.1111655 5.32243478
v 24.24000063 -0.32856236 5.17075362
v 0 -15.37447852 7.39299659
v 7.18583808 -13.91999871 7.88294914
v 0 -12.61350146 9.30127988
v 0 -9.01532611 10.76555716
v 7.18583808 -9.93915917 9.99417743
v 0 -4.82516216 11.68604033
v 0 -0.32856236 12
v 6.90820453 -5.1111655 11.27309219
v 6.49508859 -0.32856236 11.68604033
v 14.48866001 -10.35917313 8.1057025
v 19.63207473 -5.30337334 7.88294914
v 21.73299001 -0.32856236 7.39299659
v 13.88197317 -5.30337334 9.99417743
v 17.74491204 -0.32856236 9.30127988
v 12.54754763 -0.32856236 10.76555716
v 0 17.04496513 2.78599317
v 6.49508859 16.45297654 2.78599317
v 0 16.45297654 5.17075362
v 6.90820453 15.67433963 5.32243478
v 13.87590391 8.48718967 -3.63e-06
v 14.8933683 8.48718967 -3.63e-06
v 12.54754763 8.35820138 2.78599317
v 14.38463611 8.35820138 2.93591228
v 14.38463611 8.48718967 2.93591228
v 14.8933683 8.48718967 2.93591228
v 15.16424077 8.7748145 2.93591228
v 15.94384543 8.36066794 2.93591228
v 15.94848856 8.35820138 2.93591228
v 24.24000063 4.16803743 2.78599317
v 21.73299001 8.35820138 2.78599317
v 14.5350551 8.35820138 3.55920406
v 14.5350551 8.48718967 3.55920406
v 14.8933683 8.78848627 3.56384638
v 15.46272371 8.48602966 3.56384638
v 14.8933683 8.74454673 3.76598314
v 14.8933683 8.71027129 3.85728234
v 14.8933683 8.66750627 3.97118219
v 14.8933683 8.48718967 4.14458928
v 14.8933683 8.6024117 4.14458928
v 14.91657083 8.35820138 4.18249583
v 15.08119349 8.52257095 4.18713815
v 15.24533428 8.46501531 4.19178048
v 14.91657083 8.58029228 4.18249583
v 15.44640472 8.35820138 4.19178048
v 15.27895766 8.35820138 4.48143741
v 15.38967313 8.35820138 4.36724046
v 15.36781911 8.35820138 4.38963394
v 15.3106157 8.35820138 4.44906861
v 15.70335233 8.35820138 3.56384638
v 15.23586673 8.35820138 4.52612745
v 15.1955198 8.35820138 4.56729103
v 13.87590391 8.48718967 5.8718282
v 14.8933683 8.48718967 5.8718282
v 20.29858789 8.35820138 5.40486617
v 19.63207473 8.35820138 5.91432428
v 23.11530287 4.45404077 5.32243478
v 13.87590391 10.33180326 -3.63e-06
v 14.8933683 10.33180326 -3.63e-06
v 13.87590391 12.74375193 -3.63e-06
v 14.8933683 12.74375193 -3.63e-06
v 14.8933683 8.9187091 2.93591228
v 14.8933683 9.63003187 2.93591228
v 14.38463611 10.33180326 2.93591228
v 14.8933683 10.33180326 2.93591228
v 14.38463611 10.58390473 2.93591228
v 15.16424077 10.16975817 2.93591228
v 14.38463611 11.53777759 2.93591228
v 15.16424077 11.12363103 2.93591228
v 15.16424077 12.0775039 2.93591228
v 14.38463611 12.49165045 2.93591228
v 14.38463611 12.74375193 2.93591228
v 14.8933683 12.74375193 2.93591228
v 14.8933683 13.17527136 2.93591228
v 15.16424077 13.03137676 2.93591228
v 15.76245246 9.63003187 2.93591228
v 17.14026882 9.63003187 2.93591228
v 15.94384543 10.70948447 2.93591228
v 16.54205712 10.16975817 2.93591228
v 18.51808518 9.63003187 2.93591228
v 17.91987348 10.16975817 2.93591228
v 17.32166179 10.70948447 2.93591228
v 18.69947814 10.70948447 2.93591228
v 15.94384543 11.66335734 2.93591228
v 16.72345009 11.24921078 2.93591228
v 15.94384543 12.6172302 2.93591228
v 16.72345009 12.20308364 2.93591228
v 17.50305475 11.78893708 2.93591228
v 18.10126645 11.24921078 2.93591228
v 13.87590391 14.58836552 -3.63e-06
v 14.8933683 14.58836552 -3.63e-06
v 12.54754763 14.7173538 2.78599317
v 14.8933683 13.88659413 2.93591228
v 14.38463611 14.58836552 2.93591228
v 14.38463611 14.84046699 2.93591228
v 14.8933683 14.58836552 2.93591228
v 15.16424077 14.42632043 2.93591228
v 15.16424077 15.38019329 2.93591228
v 14.38463611 15.79433985 2.93591228
v 15.16424077 16.33406616 2.93591228
v 14.38463611 16.74821271 2.93591228
v 14.38463611 17.70208558 2.93591228
v 15.16424077 17.28793902 2.93591228
v 15.76245246 13.88659413 2.93591228
v 17.14026882 13.88659413 2.93591228
v 15.94384543 14.96604674 2.93591228
v 16.54205712 14.42632043 2.93591228
v 18.51808518 13.88659413 2.93591228
v 17.91987348 14.42632043 2.93591228
v 17.32166179 14.96604674 2.93591228
v 18.69947814 14.96604674 2.93591228
v 15.94384543 15.9199196 2.93591228
v 16.72345009 15.50577304 2.93591228
v 16.72345009 16.4596459 2.93591228
v 15.94384543 16.87379246 2.93591228
v 17.50305475 16.04549934 2.93591228
v 18.10126645 15.50577304 2.93591228
v 19.89590153 9.63003187 2.93591228
v 19.29768984 10.16975817 2.93591228
v 19.89590153 13.88659413 2.93591228
v 19.29768984 14.42632043 2.93591228
v 14.8933683 9.67242705 3.18966227
v 14.8933683 9.69225491 3.2536575
v 14.8933683 9.83174669 3.6167041
v 15.63424639 9.73416809 3.55920406
v 15.57670092 9.77583332 3.68045509
v 14.5066543 10.33180326 3.44151955
v 14.5350551 10.49514668 3.55920406
v 14.56372116 10.33180326 3.56903268
v 14.59523821 10.45530751 3.68045509
v 14.8933683 9.89590845 3.77611812
v 14.8933683 9.98223108 4.00398208
v 14.8933683 10.09658022 4.04890925
v 14.82144408 10.33180326 4.03340459
v 14.8933683 10.24498064 4.12459209
v 14.8933683 10.29253395 4.1456281
v 14.8933683 10.33180326 4.14245576
v 14.92046778 10.27773813 4.18791147
v 15.32021182 10.00099226 4.18791147
v 15.01795131 10.21083287 4.32147016
v 15.22357088 10.06848085 4.32147016
v 15.09276498 10.12027493 4.42261013
v 14.5350551 11.39695143 3.55920406
v 14.5350551 12.29875617 3.55920406
v 14.5350551 12.74375193 3.55920406
v 14.8933683 13.04504853 3.56384638
v 15.46272371 12.74259192 3.56384638
v 14.91657083 11.29737132 4.18249583
v 15.00489627 11.25328488 4.30374686
v 15.09453358 11.21384321 4.42499789
v 14.91657083 12.06711293 4.18249583
v 14.8933683 12.96683355 3.85728234
v 14.8933683 13.00110899 3.76598314
v 14.8933683 12.92406853 3.97118219
v 14.8933683 12.74375193 4.14458928
v 14.8933683 12.85897396 4.14458928
v 15.24533428 12.72157757 4.19178048
v 14.91657083 12.83685454 4.18249583
v 15.08119349 12.77913321 4.18713815
v 16.93685325 9.73416809 3.55920406
v 18.23946011 9.73416809 3.55920406
v 18.31546393 10.88624506 3.56384638
v 16.79301531 9.99829437 4.18249583
v 16.7293349 10.05944275 4.30374686
v 16.6723636 10.12149935 4.42499789
v 17.90486431 9.99829437 4.18249583
v 18.36891754 10.66013064 4.19178048
v 16.93560882 11.9601565 3.56384638
v 16.19916627 12.35137421 3.56384638
v 17.75037168 11.3960899 3.56384638
v 17.1937059 11.57477249 4.19178048
v 16.49977884 12.05518353 4.19178048
v 15.87255656 12.38838055 4.19178048
v 17.88763295 11.09436145 4.19178048
v 15.4516128 11.03007393 4.93245428
v 13.87590391 10.33180326 5.8718282
v 14.8933683 10.33180326 5.8718282
v 15.36841273 11.86377662 4.8057876
v 15.44817782 11.80659962 4.92703863
v 15.52207258 11.7542148 5.04828966
v 15.58890238 11.7063096 5.1695407
v 15.50003512 12.43101749 4.81042992
v 15.63119454 12.3850849 4.81507225
v 15.36841273 12.47711142 4.8057876
v 12.54754763 13.26287399 5.91432428
v 13.87590391 12.74375193 5.8718282
v 14.8933683 12.74375193 5.8718282
v 16.40691909 10.36870804 4.93245428
v 17.6111563 10.31110799 4.8057876
v 17.91544066 10.92871295 4.81971457
v 18.36415716 10.49303386 4.81507225
v 18.49708435 10.31110799 4.8057876
v 18.43050423 10.40223118 4.81042992
v 18.29804245 10.58351702 4.81971457
v 17.52856731 10.36632997 4.92703863
v 17.45290035 10.41748789 5.04828966
v 17.38370395 10.46375467 5.1695407
v 15.70720444 10.90298061 5.43991067
v 15.74773304 10.84072659 5.57346935
v 16.22333984 10.5456561 5.43991067
v 16.13341738 10.57371436 5.57346935
v 15.7752702 10.77588998 5.70702803
v 16.0397645 10.59277855 5.70702803
v 15.78713968 10.69175546 5.808168
v 15.91823686 10.60099588 5.808168
v 15.79111104 10.60374529 5.90930798
v 17.07362903 10.58929784 5.67699708
v 18.02210531 10.68946663 5.43836402
v 17.96915292 10.76243876 5.44300634
v 17.99982701 10.64062622 5.55497273
v 17.89709122 10.78250556 5.56425737
v 17.94840983 10.71163255 5.55961505
v 17.91632636 10.83524035 5.44764867
v 18.12839392 10.54300189 5.42907937
v 18.07518512 10.61632174 5.4337217
v 18.05134444 10.56948422 5.5503304
v 17.98359811 10.58861992 5.67158144
v 17.93337007 10.65810467 5.67622376
v 17.88321186 10.72749525 5.68086608
v 17.92425825 10.60010001 5.79283247
v 17.87489556 10.6684749 5.79747479
v 17.87226653 10.60373915 5.9140835
v 16.26050879 12.07443502 4.81971457
v 16.81215274 11.69252766 4.81971457
v 15.76189243 12.33931318 4.81971457
v 17.3637967 11.31062031 4.81971457
v 15.91493077 12.14827978 5.43836402
v 16.02033496 12.11162043 5.44300634
v 15.74162284 12.16852225 5.5503304
v 15.8443835 12.13285634 5.55497273
v 15.9469482 12.09725983 5.55961505
v 16.04932033 12.06173156 5.56425737
v 16.1254928 12.07504819 5.44764867
v 17.02090958 11.45514427 5.44764867
v 16.57320119 11.76509623 5.44764867
v 15.77024251 11.49164235 5.67699708
v 15.7692633 12.12162094 5.67158144
v 15.86963016 12.08684769 5.67622376
v 15.96986099 12.05212277 5.68086608
v 15.78584565 12.08053951 5.79283247
v 15.88460937 12.04636534 5.79747479
v 15.79110218 12.04454524 5.9140835
v 15.70337059 12.2218642 5.42907937
v 15.80927703 12.18502734 5.4337217
v 17.46861797 11.14519231 5.44764867
v 14.8933683 13.92898931 3.18966227
v 14.8933683 13.94881717 3.2536575
v 14.8933683 14.08830895 3.6167041
v 15.63424639 13.99073035 3.55920406
v 15.57670092 14.03239558 3.68045509
v 14.5066543 14.58836552 3.44151955
v 14.5350551 14.75170894 3.55920406
v 14.56372116 14.58836552 3.56903268
v 14.59523821 14.71186977 3.68045509
v 14.8933683 14.15247071 3.77611812
v 14.8933683 14.23879334 4.00398208
v 14.8933683 14.35314248 4.04890925
v 15.32021182 14.25755452 4.18791147
v 15.22357088 14.32504311 4.32147016
v 15.09276498 14.37683719 4.42261013
v 14.8933683 14.5015429 4.12459209
v 14.82144408 14.58836552 4.03340459
v 14.8933683 14.54909621 4.1456281
v 14.8933683 14.58836552 4.14245576
v 14.92046778 14.53430039 4.18791147
v 15.01795131 14.46739513 4.32147016
v 15.09453358 15.47040547 4.42499789
v 14.5350551 15.65351369 3.55920406
v 14.5350551 16.55531843 3.55920406
v 14.5350551 17.45712318 3.55920406
v 14.72628116 17.39037189 3.56384638
v 15.46272371 16.99915418 3.56384638
v 14.91657083 15.55393358 4.18249583
v 15.00489627 15.50984714 4.30374686
v 14.91657083 16.32367519 4.18249583
v 14.91657083 17.0934168 4.18249583
v 15.08119349 17.03569547 4.18713815
v 15.24533428 16.97813983 4.19178048
v 16.93685325 13.99073035 3.55920406
v 18.23946011 13.99073035 3.55920406
v 18.31546393 15.14280732 3.56384638
v 16.79301531 14.25485663 4.18249583
v 16.7293349 14.31600501 4.30374686
v 16.6723636 14.37806161 4.42499789
v 17.90486431 14.25485663 4.18249583
v 17.88763295 15.35092371 4.19178048
v 18.36891754 14.9166929 4.19178048
v 16.93560882 16.21671876 3.56384638
v 16.19916627 16.60793647 3.56384638
v 17.75037168 15.65265216 3.56384638
v 17.1937059 15.83133475 4.19178048
v 16.49977884 16.31174579 4.19178048
v 15.87255656 16.64494281 4.19178048
v 15.4516128 15.28663619 4.93245428
v 12.54754763 13.72430618 5.40486617
v 13.87590391 14.58836552 5.8718282
v 14.8933683 14.58836552 5.8718282
v 15.36841273 16.12033888 4.8057876
v 15.52207258 16.01077707 5.04828966
v 15.58890238 15.96287186 5.1695407
v 15.44817782 16.06316188 4.92703863
v 15.36841273 16.73367368 4.8057876
v 15.50003512 16.68757975 4.81042992
v 15.63119454 16.64164716 4.81507225
v 16.40691909 14.6252703 4.93245428
v 17.6111563 14.56767025 4.8057876
v 17.91544066 15.18527521 4.81971457
v 18.36415716 14.74959612 4.81507225
v 18.29804245 14.84007928 4.81971457
v 18.49708435 14.56767025 4.8057876
v 18.43050423 14.65879344 4.81042992
v 17.52856731 14.62289223 4.92703863
v 17.45290035 14.67405015 5.04828966
v 17.38370395 14.72031693 5.1695407
v 16.22333984 14.80221836 5.43991067
v 16.13341738 14.83027662 5.57346935
v 15.70720444 15.15954287 5.43991067
v 15.74773304 15.09728885 5.57346935
v 16.0397645 14.84934081 5.70702803
v 15.91823686 14.85755814 5.808168
v 15.79111104 14.86030755 5.90930798
v 15.7752702 15.03245224 5.70702803
v 15.78713968 14.94831772 5.808168
v 17.07362903 14.8458601 5.67699708
v 17.99982701 14.89718848 5.55497273
v 17.46861797 15.40175457 5.44764867
v 18.02210531 14.94602889 5.43836402
v 17.96915292 15.01900103 5.44300634
v 17.91632636 15.09180261 5.44764867
v 17.89709122 15.03906782 5.56425737
v 17.94840983 14.96819481 5.55961505
v 18.12839392 14.79956415 5.42907937
v 18.07518512 14.872884 5.4337217
v 18.05134444 14.82604648 5.5503304
v 17.98359811 14.84518218 5.67158144
v 17.93337007 14.91466693 5.67622376
v 17.92425825 14.85666227 5.79283247
v 17.87489556 14.92503716 5.79747479
v 17.87226653 14.86030141 5.9140835
v 17.88321186 14.98405751 5.68086608
v 16.26050879 16.33099728 4.81971457
v 16.81215274 15.94908992 4.81971457
v 15.76189243 16.59587544 4.81971457
v 17.3637967 15.56718257 4.81971457
v 15.80927703 16.4415896 5.4337217
v 15.70337059 16.47842646 5.42907937
v 16.04932033 16.31829382 5.56425737
v 15.91493077 16.40484204 5.43836402
v 16.02033496 16.36818269 5.44300634
v 15.74162284 16.42508451 5.5503304
v 15.8443835 16.3894186 5.55497273
v 15.9469482 16.35382209 5.55961505
v 16.1254928 16.33161045 5.44764867
v 16.57320119 16.02165849 5.44764867
v 17.02090958 15.71170653 5.44764867
v 15.77024251 15.74820461 5.67699708
v 15.96986099 16.30868503 5.68086608
v 15.88460937 16.3029276 5.79747479
v 15.7692633 16.3781832 5.67158144
v 15.86963016 16.34340995 5.67622376
v 15.78584565 16.33710177 5.79283247
v 15.79110218 16.3011075 5.9140835
v 19.54206697 9.73416809 3.55920406
v 19.44564842 9.86655536 3.56384638
v 18.88055618 10.37640021 3.56384638
v 19.0167133 9.99829437 4.18249583
v 18.85020212 10.22589983 4.19178048
v 18.93333805 10.1122639 4.18713815
v 19.54206697 13.99073035 3.55920406
v 19.44564842 14.12311762 3.56384638
v 18.88055618 14.63296247 3.56384638
v 19.0167133 14.25485663 4.18249583
v 18.93333805 14.36882616 4.18713815
v 18.85020212 14.48246209 4.19178048
v 0 4.16803743 11.68604033
v 0 8.35820138 10.76555716
v 6.90820453 4.45404077 11.27309219
v 0 14.7173538 7.39299659
v 7.18583808 13.26287399 7.88294914
v 0 11.95637674 9.30127988
v 7.18583808 9.28203445 9.99417743
v 14.32740079 8.35820138 8.6076649
v 15.85579535 8.35820138 8.04649397
v 19.63207473 4.64624862 7.88294914
v 13.88197317 4.64624862 9.99417743
v 12.54754763 8.35820138 9.03262278
v 15.56617071 11.03675277 6.69190986
v 15.48927343 10.91718348 6.82546854
v 15.40444971 10.78531996 6.95902722
v 15.31336334 10.64060965 7.0925859
v 15.24130901 10.47785421 7.19372587
v 15.16749875 10.30433499 7.29486585
v 15.60926839 10.22311311 7.19372587
v 15.3586295 10.17201369 7.29486585
v 15.09276498 10.12027493 7.39600582
v 15.61653145 11.68729329 6.81238756
v 15.42412966 11.6939407 6.92899627
v 15.06280848 11.43117789 7.43645266
v 15.49557495 11.3319494 7.33393558
v 15.29373044 11.43560549 7.31984395
v 16.78988762 10.58351926 6.18445347
v 16.4165663 10.44801736 6.69190986
v 17.23058589 10.71638605 6.70987048
v 17.11257656 10.82876604 6.72396211
v 17.4976989 10.90032361 6.08580539
v 17.5983775 10.80174803 6.07171376
v 17.60505412 10.72166411 6.18832247
v 17.61513654 10.63309914 6.30493118
v 17.62847416 10.53483781 6.42153989
v 17.34744417 10.60508983 6.69577886
v 16.2438551 10.39478078 6.82546854
v 16.05338557 10.33605667 6.95902722
v 15.84435956 10.27299687 7.0925859
v 16.84296143 10.39914337 7.33393558
v 16.98629147 10.09953581 7.43645266
v 16.9926869 10.25940487 7.31984395
v 16.53885598 10.68317231 7.36211884
v 16.6916851 10.54039801 7.34802721
v 17.35623595 10.48288249 6.81238756
v 17.36583776 10.34968125 6.92899627
v 15.76189567 11.29520599 6.18445347
v 16.07711501 11.85492975 6.07171376
v 16.21950196 11.78522919 6.08580539
v 15.96143823 11.85955203 6.18832247
v 15.83351105 11.86653217 6.30493118
v 16.64556761 11.49026066 6.08580539
v 17.07163326 11.19529214 6.08580539
v 15.95381436 11.60030479 6.70987048
v 16.11614102 11.51860603 6.72396211
v 15.69157802 11.8757659 6.42153989
v 15.79305316 11.68120668 6.69577886
v 16.61435879 11.17368603 6.72396211
v 15.69960943 11.22721963 7.34802721
v 15.90583897 11.12141486 7.36211884
v 12.54754763 10.64852673 8.04649397
v 14.48866001 9.70204841 8.1057025
v 14.88679914 10.77496122 8.09155935
v 14.5580428 10.74034222 8.21102641
v 14.82477003 10.60483986 8.22511804
v 14.6284419 10.90675792 8.07746773
v 15.09303602 10.46868147 8.23920966
v 15.59601887 10.12046257 8.23920966
v 15.40872183 10.50905729 8.11974261
v 15.6543395 10.33901429 8.11974261
v 15.34452744 10.29457202 8.23920966
v 14.95706935 10.93935183 7.95800067
v 15.2081605 10.81100829 7.9720923
v 15.46114533 10.68180077 7.98618393
v 15.1469029 10.64238881 8.10565098
v 12.54754763 9.59040742 8.6076649
v 15.54182884 9.8983692 8.35867672
v 15.21193513 9.65576366 8.57928374
v 15.23186536 9.8556685 8.47814377
v 14.94855817 9.83810155 8.57928374
v 15.49252019 9.67521516 8.47814377
v 14.38888961 9.81752221 8.7815637
v 14.65545549 9.6329766 8.7815637
v 14.66672538 9.82532444 8.68042372
v 14.38463611 9.63003187 8.88270367
v 14.93208224 9.64161584 8.68042372
v 14.77223448 10.4311653 8.35867672
v 14.42180425 10.20277734 8.57928374
v 14.44990086 10.39702854 8.47814377
v 14.71055569 10.2165752 8.47814377
v 14.68518121 10.02043945 8.57928374
v 14.49811992 10.56965552 8.34458509
v 15.28529739 10.0759679 8.35867672
v 15.02876593 10.2535666 8.35867672
v 14.97121053 10.03612185 8.47814377
v 14.40136851 10.00903304 8.68042372
v 14.70789759 11.06681754 7.94390905
v 16.45999319 9.85382828 7.94390905
v 15.7926921 9.93473997 8.22511804
v 15.98841773 9.75008265 8.21102641
v 16.22879597 9.79882049 8.07746773
v 15.90385785 10.37530748 7.98618393
v 16.27587606 10.0263318 7.95800067
v 16.09049095 10.20016414 7.9720923
v 15.84692947 10.15775503 8.10565098
v 16.03842294 9.97768319 8.09155935
v 15.71599734 10.55174349 8.00027556
v 15.74187027 9.70859758 8.34458509
v 15.56617071 15.29331503 6.69190986
v 15.09276498 14.37683719 7.39600582
v 15.31336334 14.89717191 7.0925859
v 15.48927343 15.17374574 6.82546854
v 15.40444971 15.04188222 6.95902722
v 15.16749875 14.56089725 7.29486585
v 15.24130901 14.73441648 7.19372587
v 15.60926839 14.47967537 7.19372587
v 15.3586295 14.42857595 7.29486585
v 15.61653145 15.94385555 6.81238756
v 15.42412966 15.95050296 6.92899627
v 15.06280848 15.68774015 7.43645266
v 15.29373044 15.69216775 7.31984395
v 15.49557495 15.58851166 7.33393558
v 16.78988762 14.84008152 6.18445347
v 17.07163326 15.4518544 6.08580539
v 16.4165663 14.70457962 6.69190986
v 16.61435879 15.4302483 6.72396211
v 17.23058589 14.97294831 6.70987048
v 17.11257656 15.0853283 6.72396211
v 17.61513654 14.8896614 6.30493118
v 17.5983775 15.05831029 6.07171376
v 17.4976989 15.15688587 6.08580539
v 17.60505412 14.97822637 6.18832247
v 17.62847416 14.79140007 6.42153989
v 17.34744417 14.86165209 6.69577886
v 16.98629147 14.35609808 7.43645266
v 16.2438551 14.65134304 6.82546854
v 16.05338557 14.59261893 6.95902722
v 15.84435956 14.52955913 7.0925859
v 15.69960943 15.48378189 7.34802721
v 15.90583897 15.37797712 7.36211884
v 16.84296143 14.65570563 7.33393558
v 16.6916851 14.79696027 7.34802721
v 16.9926869 14.51596713 7.31984395
v 16.53885598 14.93973457 7.36211884
v 17.36583776 14.60624351 6.92899627
v 17.35623595 14.73944475 6.81238756
v 15.76189567 15.55176825 6.18445347
v 16.21950196 16.04179145 6.08580539
v 16.07711501 16.11149201 6.07171376
v 15.96143823 16.11611429 6.18832247
v 15.83351105 16.12309443 6.30493118
v 16.64556761 15.74682292 6.08580539
v 15.79305316 15.93776894 6.69577886
v 15.95381436 15.85686705 6.70987048
v 16.11614102 15.77516829 6.72396211
v 15.69157802 16.13232816 6.42153989
v 15.59601887 14.37702484 8.23920966
v 14.82477003 14.86140212 8.22511804
v 14.70789759 15.3233798 7.94390905
v 14.6284419 15.16332018 8.07746773
v 14.88679914 15.03152348 8.09155935
v 14.5580428 14.99690448 8.21102641
v 15.1469029 14.89895107 8.10565098
v 15.09303602 14.72524373 8.23920966
v 15.6543395 14.59557655 8.11974261
v 15.34452744 14.55113428 8.23920966
v 15.40872183 14.76561955 8.11974261
v 14.95706935 15.19591409 7.95800067
v 15.2081605 15.06757056 7.9720923
v 15.46114533 14.93836303 7.98618393
v 14.68518121 14.27700171 8.57928374
v 15.28529739 14.33253016 8.35867672
v 15.54182884 14.15493146 8.35867672
v 14.94855817 14.09466381 8.57928374
v 15.21193513 13.91232592 8.57928374
v 14.97121053 14.29268411 8.47814377
v 15.23186536 14.11223076 8.47814377
v 15.49252019 13.93177742 8.47814377
v 14.38888961 14.07408447 8.7815637
v 14.40136851 14.2655953 8.68042372
v 14.66672538 14.0818867 8.68042372
v 14.65545549 13.88953886 8.7815637
v 14.38463611 13.88659413 8.88270367
v 14.93208224 13.8981781 8.68042372
v 14.49811992 14.82621778 8.34458509
v 14.77223448 14.68772756 8.35867672
v 14.44990086 14.6535908 8.47814377
v 14.42180425 14.4593396 8.57928374
v 14.71055569 14.47313746 8.47814377
v 15.02876593 14.51012886 8.35867672
v 16.45999319 14.11039054 7.94390905
v 16.27587606 14.28289407 7.95800067
v 15.98841773 14.00664492 8.21102641
v 16.03842294 14.23424545 8.09155935
v 15.7926921 14.19130223 8.22511804
v 16.22879597 14.05538275 8.07746773
v 15.90385785 14.63186975 7.98618393
v 15.71599734 14.80830575 8.00027556
v 16.09049095 14.4567264 7.9720923
v 15.84692947 14.4143173 8.10565098
v 15.74187027 13.96515984 8.34458509
f 3 4 1
f 2 5 3
f 3 5 4
f 6 1 8
f 4 8 1
f 6 8 9
f 6 9 7
f 8 14 9
f 2 10 11
f 2 11 5
f 10 39 11
f 10 37 39
f 11 39 50
f 4 5 12
f 4 13 8
f 8 13 14
f 13 16 14
f 4 12 13
f 12 15 13
f 13 15 16
f 15 17 16
f 5 11 18
f 5 18 12
f 12 18 19
f 11 50 18
f 18 50 52
f 18 52 19
f 19 52 53
f 12 19 15
f 15 19 20
f 15 20 17
f 20 21 17
f 19 53 20
f 20 53 55
f 20 55 21
f 21 55 56
f 7 9 22
f 22 9 24
f 9 14 24
f 22 24 23
f 23 24 27
f 23 27 25
f 25 27 28
f 25 28 26
f 26 30 29
f 26 28 30
f 29 30 67
f 29 67 65
f 30 426 67
f 24 14 31
f 14 16 31
f 24 31 27
f 27 31 33
f 31 32 33
f 31 16 32
f 16 17 32
f 27 33 28
f 17 34 32
f 17 21 34
f 32 36 33
f 32 34 36
f 21 423 34
f 21 56 423
f 34 424 36
f 34 423 424
f 28 33 35
f 33 36 35
f 28 35 30
f 30 35 426
f 35 428 426
f 35 36 428
f 36 424 428
f 37 38 39
f 38 40 39
f 39 40 50
f 38 41 40
f 40 41 44
f 41 42 44
f 42 45 44
f 42 43 45
f 43 46 48
f 43 48 45
f 46 49 48
f 46 47 49
f 48 49 61
f 40 51 50
f 50 51 52
f 40 44 51
f 44 59 51
f 51 59 54
f 52 54 53
f 52 51 54
f 53 57 55
f 53 54 57
f 55 58 56
f 55 57 58
f 54 62 57
f 54 59 62
f 57 64 58
f 57 62 64
f 44 45 59
f 45 60 59
f 59 60 62
f 45 48 60
f 48 61 60
f 60 61 63
f 62 63 64
f 60 63 62
f 65 67 66
f 66 67 68
f 67 426 68
f 66 68 140
f 68 343 140
f 68 233 343
f 47 78 49
f 78 105 49
f 49 105 61
f 78 79 105
f 105 79 103
f 105 103 104
f 56 58 423
f 423 58 425
f 424 423 425
f 424 425 429
f 58 64 425
f 425 64 433
f 425 433 429
f 429 433 498
f 68 426 427
f 428 427 426
f 233 427 483
f 427 429 498
f 427 498 483
f 68 427 233
f 424 429 428
f 428 429 427
f 104 431 432
f 433 484 498
f 433 431 484
f 432 431 433
f 105 432 61
f 63 61 432
f 105 104 432
f 63 433 64
f 63 432 433
f 434 498 430
f 484 431 430
f 484 430 498
f 110 82 75
f 75 83 76
f 75 82 83
f 82 84 83
f 84 91 83
f 83 93 98
f 85 90 91
f 84 85 91
f 85 86 90
f 88 90 86
f 91 93 83
f 88 92 90
f 92 99 90
f 90 96 91
f 91 95 93
f 90 97 96
f 90 94 97
f 90 99 94
f 92 100 99
f 91 96 95
f 76 98 77
f 76 83 98
f 123 122 194
f 123 195 134
f 123 194 195
f 194 201 195
f 205 221 195
f 201 205 195
f 200 205 201
f 200 202 207
f 204 207 202
f 200 207 205
f 206 230 207
f 207 231 205
f 205 273 221
f 204 206 207
f 137 210 131
f 210 413 131
f 215 415 413
f 215 413 210
f 222 215 210
f 416 241 414
f 215 242 415
f 415 239 416
f 222 238 215
f 135 216 136
f 134 217 135
f 134 195 217
f 135 217 216
f 137 136 218
f 218 136 216
f 137 218 210
f 220 216 217
f 220 219 216
f 220 272 219
f 195 221 217
f 221 220 217
f 221 271 220
f 218 222 210
f 218 219 222
f 218 216 219
f 222 219 274
f 206 232 230
f 207 230 231
f 205 231 273
f 232 292 230
f 230 275 231
f 232 291 292
f 416 239 241
f 415 242 239
f 414 241 240
f 215 238 242
f 293 261 238
f 263 240 241
f 263 262 240
f 257 239 242
f 238 261 242
f 239 256 241
f 257 256 239
f 256 263 241
f 257 242 261
f 256 258 263
f 257 260 256
f 257 259 260
f 256 260 258
f 264 258 265
f 267 260 259
f 266 258 260
f 257 261 259
f 264 262 263
f 264 263 258
f 293 453 261
f 266 265 258
f 266 268 265
f 267 266 260
f 267 269 266
f 455 267 259
f 269 268 266
f 454 259 261
f 269 270 268
f 455 259 454
f 456 269 267
f 453 454 261
f 272 274 219
f 220 271 272
f 281 271 273
f 281 283 271
f 272 282 274
f 271 283 272
f 272 283 282
f 221 273 271
f 231 276 273
f 230 292 275
f 231 275 276
f 276 281 273
f 222 274 238
f 274 293 238
f 282 293 274
f 292 278 275
f 277 278 292
f 275 279 276
f 275 278 279
f 276 280 281
f 276 279 280
f 277 285 278
f 278 286 279
f 279 287 280
f 285 286 278
f 288 286 285
f 286 287 279
f 286 289 287
f 288 289 286
f 287 472 280
f 281 471 283
f 281 280 470
f 288 290 289
f 289 473 287
f 470 280 472
f 281 470 471
f 474 282 283
f 282 475 293
f 474 475 282
f 474 283 471
f 291 277 292
f 293 475 453
f 166 167 412
f 166 412 411
f 131 413 167
f 413 412 167
f 416 411 412
f 416 414 411
f 413 415 412
f 415 416 412
f 478 445 473
f 473 445 444
f 448 479 444
f 446 444 445
f 448 447 479
f 446 448 444
f 475 452 453
f 457 270 269
f 455 456 267
f 456 457 269
f 455 454 458
f 453 451 454
f 456 468 457
f 456 467 468
f 455 467 456
f 454 451 458
f 453 452 451
f 455 458 467
f 464 467 458
f 463 468 467
f 462 464 458
f 465 452 480
f 466 451 452
f 462 458 451
f 482 465 480
f 463 467 464
f 465 466 452
f 466 462 451
f 474 471 477
f 478 289 290
f 287 473 472
f 478 473 289
f 470 472 479
f 470 476 471
f 474 480 475
f 474 477 480
f 473 444 472
f 470 479 476
f 477 471 476
f 472 444 479
f 480 452 475
f 447 476 479
f 481 477 476
f 477 482 480
f 481 482 477
f 447 481 476
f 494 495 447
f 495 496 481
f 488 485 494
f 519 488 494
f 486 487 485
f 486 485 488
f 489 493 491
f 491 492 529
f 493 492 491
f 493 490 492
f 485 497 495
f 497 496 495
f 494 485 495
f 496 491 529
f 487 497 485
f 489 491 497
f 487 489 497
f 497 491 496
f 506 502 513
f 501 499 515
f 503 530 499
f 502 501 517
f 502 508 500
f 502 500 501
f 501 503 499
f 500 503 501
f 504 506 518
f 518 506 513
f 506 508 502
f 505 508 506
f 504 505 506
f 507 505 504
f 487 509 489
f 514 511 509
f 512 516 509
f 510 518 513
f 513 517 512
f 510 513 512
f 502 517 513
f 511 512 509
f 510 512 511
f 486 514 487
f 514 509 487
f 493 516 515
f 517 515 516
f 509 516 489
f 489 516 493
f 515 499 490
f 493 515 490
f 499 521 490
f 512 517 516
f 501 515 517
f 446 519 448
f 448 494 447
f 495 481 447
f 448 519 494
f 528 523 525
f 523 520 525
f 521 522 528
f 522 523 528
f 526 525 462
f 524 526 466
f 482 529 465
f 481 496 482
f 524 466 465
f 482 496 529
f 529 524 465
f 520 463 464
f 462 525 464
f 526 462 466
f 520 464 525
f 528 526 527
f 492 524 529
f 524 527 526
f 528 525 526
f 490 527 492
f 521 528 527
f 521 527 490
f 492 527 524
f 530 522 521
f 499 530 521
f 150 319 151
f 150 318 319
f 151 320 163
f 151 319 320
f 318 325 319
f 318 324 325
f 319 326 320
f 319 325 326
f 326 341 320
f 324 351 325
f 326 391 341
f 325 352 326
f 329 419 159
f 165 329 159
f 165 338 329
f 334 329 338
f 329 335 419
f 335 422 419
f 334 335 329
f 421 359 420
f 422 356 421
f 335 357 422
f 334 355 335
f 162 336 164
f 162 337 336
f 163 337 162
f 163 320 337
f 164 338 165
f 164 336 338
f 341 340 337
f 337 340 336
f 340 339 336
f 341 389 340
f 340 390 339
f 320 341 337
f 339 338 336
f 339 334 338
f 339 392 334
f 351 396 352
f 350 394 393
f 324 350 351
f 325 351 352
f 326 352 391
f 350 393 351
f 334 392 355
f 421 356 359
f 420 359 358
f 422 357 356
f 335 355 357
f 392 374 355
f 374 377 355
f 376 356 357
f 356 375 359
f 381 358 359
f 376 375 356
f 375 381 359
f 381 380 358
f 355 377 357
f 377 376 357
f 375 373 381
f 382 373 383
f 379 384 373
f 376 379 375
f 377 378 376
f 376 378 379
f 375 379 373
f 388 379 378
f 382 380 381
f 382 381 373
f 384 383 373
f 384 385 383
f 386 385 384
f 386 387 385
f 551 386 388
f 374 553 377
f 552 378 377
f 388 384 379
f 388 386 384
f 554 388 378
f 374 546 553
f 553 552 377
f 552 554 378
f 341 391 389
f 390 392 339
f 340 389 390
f 352 397 391
f 391 401 389
f 351 393 396
f 352 396 397
f 391 397 401
f 401 402 389
f 390 403 392
f 390 402 403
f 390 389 402
f 403 374 392
f 394 398 393
f 393 399 396
f 398 399 393
f 396 400 397
f 396 399 400
f 397 395 401
f 397 400 395
f 398 407 399
f 399 408 400
f 405 395 400
f 408 406 405
f 572 395 405
f 407 408 399
f 409 408 407
f 408 405 400
f 409 406 408
f 571 401 395
f 401 570 402
f 409 410 406
f 573 405 406
f 571 395 572
f 571 570 401
f 402 574 403
f 403 546 374
f 402 570 574
f 574 546 403
f 169 418 168
f 168 418 417
f 169 159 419
f 169 419 418
f 421 417 418
f 421 420 417
f 422 421 418
f 422 418 419
f 573 541 540
f 578 541 573
f 543 544 575
f 543 575 540
f 542 540 541
f 542 543 540
f 546 550 553
f 548 550 546
f 555 387 386
f 551 555 386
f 554 551 388
f 553 549 552
f 552 556 554
f 554 568 551
f 567 555 551
f 554 556 568
f 567 551 568
f 553 550 549
f 552 549 556
f 563 556 549
f 557 567 568
f 565 568 556
f 563 565 556
f 566 550 548
f 564 549 550
f 562 566 548
f 557 568 565
f 564 563 549
f 566 564 550
f 571 576 570
f 570 577 574
f 578 406 410
f 573 572 405
f 578 573 406
f 571 572 575
f 574 548 546
f 571 575 576
f 574 577 548
f 570 576 577
f 572 540 575
f 573 540 572
f 561 577 576
f 544 576 575
f 562 548 577
f 544 561 576
f 561 562 577
f 591 561 544
f 543 581 590
f 590 591 544
f 591 592 561
f 582 583 590
f 581 582 590
f 584 583 582
f 584 580 583
f 592 589 620
f 580 585 583
f 586 589 585
f 580 586 585
f 588 589 586
f 588 587 589
f 588 579 587
f 585 589 592
f 587 620 589
f 583 585 591
f 590 583 591
f 585 592 591
f 610 602 593
f 593 598 611
f 593 596 598
f 603 596 593
f 598 594 612
f 600 623 595
f 594 595 579
f 579 595 617
f 599 595 594
f 596 606 597
f 596 597 599
f 596 599 598
f 598 599 594
f 599 600 595
f 597 600 599
f 601 603 602
f 604 606 603
f 603 606 596
f 601 604 603
f 602 603 593
f 605 604 601
f 611 612 608
f 607 608 580
f 584 607 580
f 580 608 586
f 609 608 607
f 611 608 609
f 610 611 609
f 610 593 611
f 612 586 608
f 588 612 594
f 588 586 612
f 588 594 579
f 611 598 612
f 542 581 543
f 543 590 544
f 613 557 565
f 614 613 565
f 622 616 621
f 616 618 614
f 616 614 621
f 618 613 614
f 617 616 622
f 579 617 622
f 617 615 616
f 615 618 616
f 619 564 566
f 620 619 566
f 621 564 619
f 621 614 563
f 562 620 566
f 561 592 562
f 562 592 620
f 621 563 564
f 614 565 563
f 622 621 619
f 587 619 620
f 579 622 587
f 587 622 619
f 623 615 617
f 595 623 617
f 6 7 22
f 6 23 1
f 3 1 23
f 2 3 25
f 2 29 10
f 10 29 37
f 6 22 23
f 3 23 25
f 2 25 26
f 2 26 29
f 29 65 37
f 37 66 38
f 38 66 41
f 41 71 42
f 42 79 43
f 43 79 46
f 46 78 47
f 37 65 66
f 41 66 71
f 66 140 71
f 42 71 79
f 46 79 78
f 73 77 72
f 73 74 77
f 110 75 74
f 75 76 74
f 74 76 77
f 111 115 124
f 112 114 117
f 112 117 113
f 111 113 115
f 113 117 115
f 115 117 126
f 114 116 117
f 116 119 118
f 117 116 118
f 117 132 126
f 117 118 132
f 118 134 132
f 119 121 118
f 119 120 121
f 121 122 118
f 118 123 134
f 118 122 123
f 124 127 125
f 115 127 124
f 115 126 127
f 127 129 125
f 126 130 127
f 126 133 130
f 125 129 128
f 127 130 129
f 130 131 129
f 129 167 128
f 129 131 167
f 130 137 131
f 126 132 133
f 133 132 135
f 132 134 135
f 133 135 136
f 133 137 130
f 133 136 137
f 128 167 166
f 141 145 152
f 141 144 145
f 142 146 144
f 142 143 146
f 143 147 146
f 144 146 145
f 145 146 154
f 146 160 154
f 147 149 148
f 147 148 146
f 146 148 160
f 148 163 160
f 149 150 151
f 149 151 148
f 148 151 163
f 145 155 152
f 152 155 153
f 155 157 153
f 145 154 155
f 154 160 161
f 155 154 158
f 154 161 158
f 153 157 156
f 157 169 156
f 155 158 157
f 157 158 159
f 161 165 158
f 157 159 169
f 158 165 159
f 160 162 161
f 160 163 162
f 161 162 164
f 161 164 165
f 156 169 168
f 71 72 79
f 79 72 77
f 71 80 72
f 79 77 98
f 79 98 93
f 71 431 80
f 431 89 80
f 431 100 89
f 104 93 95
f 104 95 96
f 104 96 97
f 104 97 94
f 104 94 99
f 104 99 100
f 103 93 104
f 79 93 103
f 71 140 343
f 71 233 483
f 71 343 233
f 71 430 431
f 71 498 434
f 71 434 430
f 104 100 431
f 71 483 498
f 73 72 81
f 81 72 80
f 81 80 87
f 87 80 89
f 87 89 92
f 87 92 88
f 92 89 100
f 111 124 170
f 170 173 171
f 170 124 173
f 171 174 172
f 171 173 174
f 112 175 114
f 114 175 176
f 114 176 191
f 175 177 176
f 177 178 176
f 172 174 187
f 172 187 179
f 177 182 178
f 176 178 197
f 176 196 191
f 176 197 196
f 179 189 180
f 180 188 181
f 181 186 183
f 179 187 189
f 178 198 197
f 181 188 186
f 180 189 190
f 180 190 188
f 183 186 184
f 184 186 185
f 178 182 223
f 182 185 223
f 185 186 223
f 178 223 198
f 114 191 116
f 116 192 119
f 191 192 116
f 119 192 120
f 120 192 193
f 191 196 199
f 191 199 192
f 196 197 227
f 196 226 199
f 192 199 193
f 193 199 203
f 199 206 203
f 199 232 206
f 203 206 204
f 124 208 173
f 124 125 208
f 125 128 209
f 125 209 208
f 209 128 411
f 173 212 174
f 173 208 211
f 173 211 212
f 211 208 214
f 187 174 236
f 174 212 213
f 174 213 236
f 212 211 243
f 208 209 214
f 209 414 214
f 211 214 237
f 214 414 240
f 186 188 247
f 189 187 249
f 190 252 188
f 190 189 253
f 186 246 223
f 186 247 246
f 188 250 247
f 190 254 252
f 190 253 254
f 188 252 250
f 246 247 436
f 197 198 228
f 197 228 227
f 196 227 226
f 199 226 232
f 198 223 284
f 198 229 228
f 198 284 229
f 226 227 277
f 227 228 285
f 226 291 232
f 223 246 469
f 223 469 284
f 228 229 288
f 226 277 291
f 227 285 277
f 284 478 229
f 187 236 248
f 213 212 244
f 212 243 244
f 187 248 249
f 189 249 251
f 213 255 236
f 213 244 245
f 213 245 255
f 211 237 243
f 214 240 237
f 243 237 264
f 243 265 244
f 237 240 262
f 189 251 253
f 236 449 248
f 236 255 449
f 248 459 249
f 245 244 268
f 237 262 264
f 243 264 265
f 244 265 268
f 245 457 255
f 245 268 270
f 245 270 457
f 228 288 285
f 229 290 288
f 229 478 290
f 128 166 411
f 209 411 414
f 247 250 437
f 439 250 252
f 440 252 254
f 246 436 435
f 247 437 436
f 438 437 250
f 439 438 250
f 439 252 440
f 442 253 441
f 443 440 254
f 443 254 442
f 488 435 436
f 514 437 438
f 486 436 437
f 246 435 469
f 284 469 445
f 284 445 478
f 446 469 435
f 446 445 469
f 446 435 519
f 251 249 460
f 253 251 441
f 442 254 253
f 248 450 459
f 449 255 468
f 248 449 450
f 249 459 460
f 251 460 461
f 251 461 441
f 255 457 468
f 449 463 450
f 449 468 463
f 523 459 450
f 530 461 460
f 522 460 459
f 520 450 463
f 500 461 503
f 508 441 500
f 504 440 443
f 486 437 514
f 486 488 436
f 510 438 439
f 500 441 461
f 505 443 442
f 518 439 440
f 508 442 441
f 519 435 488
f 510 511 438
f 510 439 518
f 514 438 511
f 507 504 443
f 507 443 505
f 505 442 508
f 504 518 440
f 530 460 522
f 503 461 530
f 523 450 520
f 522 459 523
f 141 152 294
f 294 297 295
f 294 152 297
f 295 298 296
f 295 297 298
f 142 299 143
f 299 300 143
f 143 316 147
f 143 300 316
f 299 301 300
f 301 302 300
f 296 298 306
f 296 306 303
f 303 307 304
f 304 314 305
f 303 306 307
f 304 307 308
f 304 308 314
f 301 310 302
f 300 302 322
f 300 321 316
f 300 322 321
f 305 313 309
f 302 315 322
f 305 314 313
f 309 313 311
f 311 313 312
f 310 342 302
f 310 312 342
f 312 313 342
f 302 342 315
f 147 316 317
f 147 317 149
f 149 317 318
f 149 318 150
f 316 321 323
f 316 323 317
f 321 322 349
f 321 346 323
f 317 324 318
f 317 323 324
f 323 350 324
f 152 327 297
f 152 153 327
f 153 156 328
f 153 328 327
f 328 156 417
f 297 331 298
f 297 327 330
f 297 330 331
f 330 327 333
f 306 298 353
f 298 331 332
f 298 332 353
f 331 330 360
f 327 328 333
f 333 328 420
f 330 333 354
f 333 420 358
f 313 314 366
f 307 306 364
f 308 307 368
f 308 371 314
f 313 365 342
f 313 366 365
f 314 370 366
f 314 371 370
f 308 369 371
f 308 368 369
f 342 365 569
f 365 366 534
f 322 315 347
f 321 349 346
f 322 347 349
f 323 346 350
f 315 342 404
f 315 348 347
f 315 404 348
f 346 394 350
f 346 349 398
f 349 347 407
f 342 569 404
f 347 348 409
f 349 407 398
f 346 398 394
f 348 404 578
f 306 353 363
f 332 331 361
f 331 360 361
f 306 363 364
f 307 364 367
f 332 372 353
f 332 361 362
f 332 362 372
f 330 354 360
f 333 358 354
f 354 382 360
f 360 383 361
f 354 358 380
f 307 367 368
f 353 545 363
f 353 372 545
f 363 558 364
f 362 361 385
f 354 380 382
f 360 382 383
f 361 383 385
f 362 555 372
f 362 385 387
f 362 387 555
f 347 409 407
f 348 410 409
f 348 578 410
f 156 168 417
f 328 417 420
f 537 370 371
f 536 371 369
f 366 370 535
f 365 531 569
f 365 534 531
f 537 533 370
f 366 535 534
f 533 535 370
f 539 368 538
f 532 536 369
f 532 369 539
f 536 537 371
f 607 535 533
f 582 531 534
f 584 534 535
f 542 531 581
f 404 569 541
f 578 404 541
f 542 569 531
f 542 541 569
f 559 367 364
f 538 368 367
f 539 369 368
f 363 547 558
f 363 545 547
f 545 372 567
f 559 364 558
f 560 367 559
f 538 367 560
f 567 372 555
f 560 559 623
f 545 557 547
f 545 567 557
f 618 558 547
f 559 558 615
f 613 547 557
f 601 536 532
f 597 538 560
f 532 539 604
f 539 538 606
f 597 560 600
f 606 538 597
f 584 582 534
f 584 535 607
f 610 533 537
f 602 537 536
f 581 531 582
f 609 607 533
f 610 609 533
f 610 537 602
f 605 532 604
f 601 602 536
f 605 601 532
f 539 606 604
f 618 547 613
f 559 615 623
f 615 558 618
f 560 623 600
f 69 70 73
f 70 74 73
f 70 110 74
f 69 73 101
f 73 81 101
f 81 87 101
f 87 88 102
f 87 102 101
f 69 106 70
f 106 107 70
f 70 107 113
f 106 112 107
f 69 101 106
f 70 111 170
f 70 113 111
f 107 112 113
f 106 224 112
f 70 225 110
f 70 170 225
f 106 101 224
f 110 225 82
f 170 171 225
f 82 225 84
f 84 225 85
f 171 172 225
f 112 225 175
f 175 225 177
f 172 179 225
f 177 225 182
f 85 225 86
f 88 86 225
f 179 180 225
f 180 181 225
f 181 183 225
f 182 225 185
f 183 184 225
f 184 185 225
f 112 224 225
f 88 225 102
f 101 102 225
f 101 225 224
f 108 109 120
f 109 121 120
f 109 122 121
f 108 120 234
f 108 138 109
f 138 139 109
f 109 139 144
f 138 142 139
f 108 234 138
f 109 141 294
f 109 144 141
f 139 142 144
f 138 344 142
f 109 345 122
f 120 193 234
f 193 203 234
f 203 204 235
f 203 235 234
f 109 294 345
f 138 234 344
f 194 122 345
f 294 295 345
f 194 345 201
f 200 201 345
f 295 296 345
f 296 303 345
f 142 345 299
f 299 345 301
f 301 345 310
f 200 345 202
f 204 202 345
f 303 304 345
f 304 305 345
f 305 309 345
f 310 345 312
f 309 311 345
f 311 312 345
f 142 344 345
f 204 345 235
f 234 235 345
f 234 345 344
