# MAAS exact compiled indexed mesh
# program_hash ab839e98474f21dd170d339eb49bbeb796c3c6fc91854c7eb37d8360d18369b2
# geometry_hash 036f94a20b14eec61c477cb1584b2563f662c2971fa830a28941f104b1a787ae
v -15.3658229 -10.02982924 0
v -1.51774143 -10.02982924 0
v -1.51774143 -9.15638993 0
v -15.3658229 -10.02982924 11.4
v -1.51774143 -10.02982924 11.4
v -1.51774143 -9.15638993 10.488
v -0.1103912 -4.89499914 10.488
v -1.51774143 -3.09367299 10.488
v -15.3658229 10.02982924 0
v -1.51774143 3.09367299 0
v -1.51774143 4.82188615 0
v -0.1103912 4.89499914 0
v -1.51774143 9.15638993 0
v -1.51774143 10.02982924 0
v -15.3658229 10.02982924 11.4
v -1.51774143 9.15638993 10.488
v -1.51774143 10.02982924 11.4
v 7.28894437 -16.03692696 0
v 15.36581751 -5.69900077 0
v 7.28894437 -16.03692696 10.488
v 1.68662516 -4.9883556 10.488
v 6.88427728 -0.9275047 10.488
v 8.90831194 -0.65384448 5.7
v 10.79667628 -0.39852761 5.7
v 8.90831194 -0.65384448 10.488
v 10.79667628 -0.39852761 10.488
v 15.36581751 -5.69900077 10.488
v 1.68662516 4.9883556 0
v 7.28894437 16.03692696 0
v 8.07142917 0 0
v 15.36581751 5.69900077 0
v -2.7e-06 0 5.7
v -2.7e-06 3.7288025 5.7
v 6.29240529 0 5.7
v 5.78825141 3.7288025 5.7
v -2.7e-06 0 10.488
v -2.7e-06 3.7288025 10.488
v 6.29240529 0 10.488
v 6.5997783 0 10.488
v 5.78825141 3.7288025 10.488
v 7.25398828 3.7288025 10.488
v -2.7e-06 8.61822566 5.7
v -2.7e-06 10.34217739 5.7
v 5.12717546 8.61822566 5.7
v 4.56913854 12.74555577 5.7
v 7.28894437 16.03692696 5.7
v -2.7e-06 8.61822566 10.488
v -2.7e-06 10.34217739 10.488
v 5.12717546 8.61822566 10.488
v 4.56913854 12.74555577 10.488
v 8.07142917 0 5.7
v 10.48756702 1.88769377 5.7
v 10.23863935 3.7288025 5.7
v 12.84407873 3.7288025 5.7
v 15.36581751 3.7288025 5.7
v 15.36581751 5.69900077 5.7
v 10.23863935 3.7288025 10.488
v 15.36581751 3.7288025 10.488
v 9.57756341 8.61822566 5.7
v 8.93963179 13.33646964 5.7
v 13.08506906 8.61822566 5.7
v 15.36581751 8.61822566 5.7
v 8.11182653 8.61822566 10.488
v 9.57756341 8.61822566 10.488
v 8.93963179 13.33646964 10.488
v 15.36581751 8.61822566 10.488
f 7 36 8
f 10 11 12
f 11 13 12
f 13 16 43
f 36 37 8
f 8 37 47
f 8 48 16
f 8 47 48
f 16 48 43
f 7 21 36
f 21 38 36
f 21 22 38
f 22 39 38
f 12 13 29
f 12 29 28
f 13 46 29
f 13 43 46
f 28 31 30
f 30 31 51
f 31 52 51
f 31 54 52
f 31 56 54
f 28 29 31
f 29 56 31
f 29 46 61
f 29 61 56
f 6 7 8
f 3 18 20
f 3 10 18
f 10 12 18
f 12 28 18
f 18 28 30
f 18 19 20
f 18 30 19
f 30 51 23
f 27 30 23
f 19 30 27
f 3 20 6
f 6 20 7
f 7 20 21
f 21 25 22
f 19 27 20
f 20 27 21
f 27 23 25
f 21 27 25
f 1 9 2
f 1 2 5
f 2 9 3
f 1 5 4
f 1 4 15
f 4 5 17
f 1 15 9
f 9 15 14
f 3 9 10
f 9 11 10
f 9 13 11
f 9 14 13
f 4 17 15
f 14 15 17
f 2 3 5
f 3 6 5
f 5 6 17
f 6 8 17
f 13 14 16
f 8 16 17
f 14 17 16
f 32 35 33
f 32 33 37
f 32 36 34
f 32 34 35
f 32 37 36
f 36 38 34
f 43 42 44
f 43 44 45
f 43 48 42
f 43 45 46
f 46 45 60
f 48 47 42
f 52 54 53
f 61 60 59
f 46 60 61
f 40 33 35
f 40 37 33
f 40 47 37
f 40 41 47
f 41 57 47
f 49 47 58
f 42 47 44
f 49 44 47
f 58 53 54
f 55 58 54
f 55 54 56
f 62 56 61
f 55 56 58
f 58 56 62
f 57 58 47
f 49 58 63
f 58 64 63
f 57 53 58
f 58 62 66
f 58 66 64
f 64 61 59
f 62 61 64
f 62 64 66
f 22 25 39
f 24 25 23
f 24 26 25
f 40 35 34
f 40 34 38
f 40 38 39
f 41 39 25
f 40 39 41
f 50 45 44
f 65 60 45
f 49 50 44
f 49 63 50
f 50 63 65
f 50 65 45
f 51 52 23
f 24 23 52
f 26 52 53
f 24 52 26
f 26 53 57
f 41 25 26
f 41 26 57
f 64 59 60
f 64 60 65
f 63 64 65
