# MAAS exact compiled indexed mesh
# program_hash 0f84b2b65a71f00bdddb9141574bc7fd838eef2350b652d64e9a6ebdce172723
# geometry_hash 1ca8d06a3bc743a6c5ccfe15085a999a70049a5b8d477a23112abde6ba1f1261
v -12.17820132 -10.77509625 0
v -12.17820132 -10.77509625 4.63313285
v -15.2311645 -4.21786094 0
v -8.69165746 -4.21786094 0
v -15.2311645 -4.21786094 4.63313285
v -8.69165746 -4.21786094 7.38670028
v -2.12299588 -16.12154382 0
v -2.12299588 -16.12154382 4.63313285
v -7.01969942 -4.21786094 8.09070582
v -15.2311645 4.21786094 0
v -15.2311645 4.21786094 4.63313285
v -5.62128791 1.55666434 0
v -4.20630458 4.21786094 0
v -4.20630458 4.21786094 9.27533218
v -0.8425694 10.5441267 14.8
v 4.20630458 -4.21786094 0
v 5.62128791 -1.55666434 0
v 15.2311645 -4.21786094 0
v 4.20630458 -4.21786094 10.30984831
v 8.91434892 -4.21786094 14.8
v 15.2311645 -4.21786094 14.8
v 0 0 0
v 2.12299588 16.12154382 0
v 8.69165746 4.21786094 0
v 15.2311645 4.21786094 0
v 12.17820132 10.77509625 0
v 7.01969942 4.21786094 14.00222654
v 2.12299588 16.12154382 14.8
v 8.69165746 4.21786094 14.33273713
v 8.91434892 4.21786094 14.8
v 9.21263604 5.19767913 14.8
v 15.2311645 4.21786094 14.8
v 12.17820132 10.77509625 14.8
f 3 10 4
f 3 5 11
f 3 4 6
f 3 6 5
f 12 22 4
f 3 11 10
f 10 11 13
f 10 12 4
f 10 13 12
f 11 14 13
f 18 19 16
f 18 16 17
f 18 17 24
f 18 25 21
f 20 9 19
f 18 20 19
f 18 21 20
f 20 21 32
f 18 24 25
f 25 24 29
f 21 25 32
f 25 29 32
f 20 32 30
f 30 29 27
f 30 32 29
f 7 2 1
f 1 2 6
f 1 6 4
f 7 8 2
f 7 16 8
f 7 1 16
f 1 4 22
f 1 17 16
f 1 22 24
f 2 15 6
f 22 12 13
f 23 22 13
f 15 14 6
f 15 13 14
f 15 28 13
f 8 16 19
f 1 24 17
f 26 24 22
f 26 22 23
f 23 13 28
f 26 29 24
f 26 23 33
f 33 23 28
f 31 28 15
f 26 31 29
f 26 33 31
f 31 33 28
f 5 6 14
f 5 14 11
f 20 30 9
f 30 27 9
f 8 9 2
f 8 19 9
f 2 9 15
f 15 9 27
f 15 27 29
f 31 15 29
