# MAAS exact compiled indexed mesh
# program_hash 1b0e66dad7b994e4d2822e008e09655d31efddf04b9df0159c3b60f1afcc820b
# geometry_hash ce4fd71b0152edf4a6b9762fcfa7f6e50f4d424675e3779fa52ab06c88e4e7be
v -9.15190288 -9.74760856 0
v -9.15190288 -9.74760856 16.38391725
v -9.15190288 2.31626342 0
v -6.58937007 2.31626342 2.29374841
v -6.58937007 9.74760856 2.29374841
v -9.15190288 2.31626342 16.38391725
v -6.58937007 2.31626342 14.09016883
v -6.58937007 9.74760856 14.09016883
v 9.15190288 -9.74760856 0
v 9.15190288 -9.74760856 16.38391725
v 0 9.74760856 8.19195862
v 6.58937007 2.31626342 2.29374841
v 9.15190288 2.31626342 0
v 6.58937007 2.31626342 7.72915402
v 8.77541627 0 8.19195862
v 9.15190288 0 8.19195862
v 8.71345443 2.31626342 6.95231123
v 8.77541627 2.31626342 8.19195862
v 9.15190288 2.31626342 8.19195862
v 6.58937007 9.74760856 2.29374841
v 5.32394542 9.74760856 8.19195862
v 6.58937007 9.74760856 7.72915402
v 8.71345443 9.74760856 6.95231123
v 0 2.31626342 14.09016883
v 0 0 16.38391725
v 0 2.31626342 16.38391725
v 0 9.74760856 14.09016883
v 0 9.74760856 16.38391725
v 5.20451823 0 16.38391725
v 5.21032097 0 16.50001054
v 5.52774934 0 16.38391725
v 5.84806594 0 16.26676764
v 5.84806594 0 16.38391725
v 9.11922461 0 15.07040459
v 9.15190288 0 16.38391725
v 4.80455079 9.74760856 8.38191717
v 5.20451823 9.74760856 16.38391725
v 5.21032097 9.74760856 16.50001054
v 5.52774934 9.74760856 16.38391725
v 5.84806594 9.74760856 16.26676764
v 5.84806594 9.74760856 16.38391725
v 9.11922461 9.74760856 15.07040459
f 1 6 3
f 1 3 9
f 1 9 2
f 1 2 6
f 2 10 6
f 3 6 4
f 3 4 12
f 4 6 7
f 6 24 7
f 6 25 26
f 6 26 24
f 3 13 9
f 9 13 10
f 10 13 16
f 2 9 10
f 6 10 25
f 10 29 25
f 10 31 29
f 10 33 31
f 10 16 35
f 35 33 10
f 3 12 13
f 12 17 13
f 12 14 17
f 13 17 18
f 13 19 16
f 13 18 19
f 4 8 5
f 4 5 12
f 5 8 11
f 4 7 8
f 7 24 27
f 8 27 11
f 7 27 8
f 5 20 12
f 5 11 20
f 20 11 21
f 12 20 14
f 20 22 14
f 20 21 22
f 16 19 15
f 19 18 15
f 16 15 34
f 16 34 35
f 35 32 33
f 35 34 32
f 24 26 27
f 37 26 25
f 37 25 29
f 36 11 27
f 36 21 11
f 28 27 26
f 28 26 37
f 28 36 27
f 28 37 36
f 40 33 32
f 41 31 33
f 39 31 41
f 40 41 33
f 39 41 40
f 23 17 14
f 23 18 17
f 23 14 22
f 18 34 15
f 23 34 18
f 30 29 31
f 30 37 29
f 30 31 38
f 40 32 34
f 36 42 21
f 23 42 34
f 23 22 42
f 22 21 42
f 30 38 37
f 38 31 39
f 36 37 42
f 37 38 39
f 37 39 40
f 37 40 42
f 40 34 42
