# MAAS exact compiled indexed mesh
# program_hash bfa654b79cb6d00a8f4375a8f4820a600ebefb81cc84b0296a342afcfc0cddf1
# geometry_hash 4fcb0f825f59c07ca0abf1b9d698526c1801c6dce7b9b49f0a4648f5861a04ce
v -9.69214504 -6.32641417 0
v -0.95733044 -6.32641417 0
v -0.95733044 -5.77548367 0.66
v -9.69214504 -6.32641417 16.5
v -0.95733044 -6.32641417 16.5
v -0.95733044 -5.77548367 15.84
v -0.06963034 -3.0875692 15.84
v -0.95733044 -1.95136489 15.84
v -9.69214504 6.32641417 0
v -0.95733044 1.95136489 0.66
v -0.06963034 3.0875692 0.66
v -0.95733044 5.77548367 0.66
v -0.95733044 6.32641417 0
v -9.69214504 6.32641417 16.5
v -0.95733044 5.77548367 15.84
v -0.95733044 6.32641417 16.5
v 4.59757388 -10.11545057 0.66
v 9.69214164 -3.5947012 0.66
v -1.7e-06 -6.52343085 8.25
v 4.59757388 -10.11545057 8.25
v -1.7e-06 -6.52343085 15.84
v 4.59757388 -10.11545057 15.84
v -1.7e-06 -3.09118647 15.84
v 1.06385553 -3.14645472 15.84
v 9.69214164 -3.5947012 8.25
v 9.69214164 -3.5947012 15.84
v 1.06385553 3.14645472 0.66
v 4.59757388 10.11545057 0.66
v 5.09113392 0 0.66
v 9.69214164 3.5947012 0.66
v -1.7e-06 1.841012 8.25
v 1.39200006 1.841012 8.5536
v -1.7e-06 1.841012 15.84
v 1.39200006 1.841012 15.5364
v 4.1615674 1.841012 15.5364
v 2.74901236 3.09905678 15.5364
v 3.89587777 4.70776616 15.5364
v 0.2641781 5.31209108 8.5536
v -1.7e-06 6.52343085 8.25
v 1.92078546 9.62722848 8.5536
v 4.01629935 7.48023554 8.5536
v 4.59757388 10.11545057 8.25
v 0.2641781 5.31209108 15.5364
v -1.7e-06 6.52343085 15.84
v 1.92078546 9.62722848 15.5364
v 4.01629935 7.48023554 15.5364
v 5.09113392 0 8.25
v 6.01072586 1.841012 8.5536
v 6.18675094 3.59742883 8.5536
v 6.45145277 4.49441186 8.5536
v 6.77218924 4.18974311 8.5536
v 7.44752183 1.841012 8.25
v 7.35176218 1.76619637 8.5536
v 7.44752183 1.841012 8.5536
v 8.5229346 2.52670366 8.5536
v 9.69214164 3.5947012 8.25
v 5.09113392 0 15.84
v 7.35176218 1.76619637 15.5364
v 7.44752183 1.841012 15.5364
v 7.44752183 1.841012 15.84
v 8.5229346 2.52670366 15.5364
v 7.47228819 9.724401 8.5536
v 7.47228819 9.724401 15.5364
f 7 23 33
f 10 12 11
f 7 44 8
f 7 33 44
f 8 44 15
f 12 15 39
f 15 44 39
f 11 12 28
f 11 28 27
f 12 42 28
f 12 39 42
f 27 30 29
f 29 30 47
f 30 52 47
f 56 52 30
f 27 28 30
f 28 56 30
f 28 42 56
f 3 19 6
f 6 19 21
f 6 21 23
f 6 23 7
f 6 7 8
f 3 17 19
f 17 20 19
f 3 10 17
f 10 11 17
f 11 27 17
f 17 27 29
f 17 18 20
f 18 25 20
f 17 29 18
f 18 29 25
f 29 47 25
f 1 9 2
f 1 2 5
f 1 5 4
f 1 4 14
f 4 5 16
f 1 14 9
f 9 14 13
f 2 9 13
f 4 16 14
f 13 14 16
f 24 33 23
f 24 57 33
f 57 60 33
f 53 47 52
f 53 58 47
f 53 52 54
f 57 47 58
f 57 58 59
f 57 59 60
f 19 20 21
f 24 21 22
f 22 21 20
f 24 23 21
f 26 20 25
f 22 20 26
f 24 22 26
f 26 25 47
f 26 47 57
f 24 26 57
f 36 35 37
f 53 55 58
f 55 62 61
f 35 59 63
f 55 61 58
f 58 61 59
f 59 61 63
f 41 46 62
f 35 63 37
f 37 63 46
f 46 63 62
f 62 63 61
f 34 36 43
f 43 36 37
f 34 35 36
f 38 45 40
f 40 46 41
f 38 43 45
f 43 37 45
f 45 37 46
f 40 45 46
f 2 3 5
f 2 10 3
f 3 6 5
f 5 6 16
f 6 8 16
f 2 12 10
f 2 13 12
f 12 13 15
f 8 15 16
f 13 16 15
f 39 44 31
f 39 31 52
f 44 33 31
f 39 56 42
f 39 52 56
f 48 49 54
f 49 51 54
f 53 54 55
f 51 55 54
f 41 62 50
f 50 62 51
f 51 62 55
f 32 43 38
f 32 49 48
f 32 38 50
f 32 51 49
f 32 34 43
f 38 40 41
f 38 41 50
f 32 50 51
f 32 31 33
f 32 48 31
f 48 54 31
f 32 33 34
f 34 33 60
f 34 60 35
f 54 52 31
f 35 60 59
