# MAAS exact compiled indexed mesh
# program_hash 8bd1273ac97abcbc69578510ea71f2454bedd12211f86be980843b3026139800
# geometry_hash da483e9549193ec87f7d6d2be2cf550ccea03bb9d2aae03f90521369b89bf4f6
v -17.54757848 -13.94913378 0.00206164
v -17.54757848 -12.22081434 0.00206164
v -17.54757848 -10.4924949 0.00206164
v -17.54757848 -13.94913378 1.98123698
v -17.54757848 -12.22081434 1.98123698
v -17.54757848 -10.4924949 1.98123698
v -17.54757848 -8.76417546 0.00206164
v -17.54757848 -7.03585602 0.00206164
v -17.54757848 -8.76417546 1.98123698
v -17.54757848 -7.03585602 1.98123698
v -8.83709455 -12.95669949 0.00206164
v -9.22588183 -11.27267677 0.00206164
v -8.83709455 -12.95669949 1.98123698
v -9.61466911 -9.58865405 0.00206164
v -10.00345639 -7.90463132 0.00206164
v -17.54757848 -13.94913378 3.96041233
v -17.54757848 -12.22081434 3.96041233
v -17.54757848 -10.4924949 3.96041233
v -17.54757848 -8.76417546 3.96041233
v -17.54757848 -7.03585602 3.96041233
v -8.83709455 -12.95669949 3.96041233
v -17.54757848 -5.30753659 0.00206164
v -17.54757848 -5.30753659 1.98123698
v -10.39224367 -6.2206086 0.00206164
v -10.78103095 -4.53658588 0.00206164
v -10.78103095 -4.53658588 1.98123698
v -17.54757848 -5.30753659 3.96041233
v -10.78103095 -4.53658588 3.96041233
v -0.5731089 -10.03026869 0.00206164
v -1.33075428 -8.47686547 0.00206164
v -0.5731089 -10.03026869 1.98123698
v -0.5731089 -10.03026869 3.96041233
v -2.84604502 -5.37005903 0.00206164
v -3.6036904 -3.81665581 0.00206164
v -2.08839965 -6.92346225 0.00206164
v -4.36133577 -2.26325258 0.00206164
v -4.36133577 -2.26325258 1.98123698
v -4.36133577 -2.26325258 3.96041233
v -17.54757848 -13.94913378 5.93958767
v -17.54757848 -12.22081434 5.93958767
v -17.54757848 -10.4924949 5.93958767
v -17.54757848 -8.76417546 5.93958767
v -17.54757848 -7.03585602 5.93958767
v -8.83709455 -12.95669949 5.93958767
v -17.54757848 -13.94913378 7.91876302
v -17.54757848 -12.22081434 7.91876302
v -17.54757848 -10.4924949 7.91876302
v -17.54757848 -13.94913378 9.89793836
v -17.54757848 -12.22081434 9.89793836
v -17.54757848 -10.4924949 9.89793836
v -17.54757848 -8.76417546 7.91876302
v -17.54757848 -7.03585602 7.91876302
v -17.54757848 -8.76417546 9.89793836
v -17.54757848 -7.03585602 9.89793836
v -8.83709455 -12.95669949 7.91876302
v -8.83709455 -12.95669949 9.89793836
v -9.22588183 -11.27267677 9.89793836
v -9.61466911 -9.58865405 9.89793836
v -10.00345639 -7.90463132 9.89793836
v -17.54757848 -5.30753659 5.93958767
v -10.78103095 -4.53658588 5.93958767
v -17.54757848 -5.30753659 7.91876302
v -17.54757848 -5.30753659 9.89793836
v -10.78103095 -4.53658588 7.91876302
v -10.39224367 -6.2206086 9.89793836
v -10.78103095 -4.53658588 9.89793836
v -0.5731089 -10.03026869 5.93958767
v -0.5731089 -10.03026869 7.91876302
v -0.5731089 -10.03026869 9.89793836
v -1.33075428 -8.47686547 9.89793836
v -4.36133577 -2.26325258 5.93958767
v -2.84604502 -5.37005903 9.89793836
v -3.6036904 -3.81665581 9.89793836
v -2.08839965 -6.92346225 9.89793836
v -4.36133577 -2.26325258 7.91876302
v -4.36133577 -2.26325258 9.89793836
v 3.55776764 -1.29038042 0.00206164
v 5.73310097 -3.97669337 0.00206164
v 6.82076764 -5.31984984 0.00206164
v 6.82076764 -5.31984984 1.98123698
v 4.64543431 -2.63353689 0.00206164
v 6.82076764 -5.31984984 3.96041233
v 6.82076764 -5.31984984 5.93958767
v 3.55776764 -1.29038042 9.89793836
v 6.82076764 -5.31984984 7.91876302
v 5.73310097 -3.97669337 9.89793836
v 6.82076764 -5.31984984 9.89793836
v 4.64543431 -2.63353689 9.89793836
v 1.38243431 1.39593252 0.00206164
v 2.47010098 0.05277605 0.00206164
v 1.38243431 1.39593252 1.98123698
v 6.15585439 6.25340009 0.00206164
v 7.5177887 5.18934039 0.00206164
v 8.77274519 5.55783427 0.00206164
v 6.15585439 6.25340009 1.98123698
v 1.38243431 1.39593252 3.96041233
v 6.15585439 6.25340009 3.96041233
v 8.77274519 10.52377774 0.00206164
v 10.24165731 3.061221 0.00206164
v 12.96552591 0.93310161 0.00206164
v 11.60359161 1.99716131 0.00206164
v 12.96552591 0.93310161 1.98123698
v 8.879723 4.1252807 0.00206164
v 10.40597029 5.55644047 0
v 10.40597029 5.55783427 0.00206164
v 10.40597029 5.55644047 0.00206164
v 15.79871161 5.55644047 0.00206164
v 17.54758022 5.55644047 0
v 12.96552591 0.93310161 3.96041233
v 10.60848123 8.71676459 0
v 10.40597029 8.7321076 0.00206164
v 10.40597029 8.7321076 0
v 10.89380239 8.80899561 0.00206164
v 10.89380239 8.80899561 0
v 11.38163449 8.80899561 0.00206164
v 11.38163449 8.96668897 0.00206164
v 9.42961942 11.75249667 0
v 9.46280128 11.64984695 0.00206164
v 9.54944045 11.79122922 0.00206164
v 9.71423958 12.06015696 0.00206164
v 9.98737347 11.93279253 0.00206164
v 9.71423958 12.06015696 1.98123698
v 17.54758022 8.80899561 0
v 17.22501452 10.85558113 0
v 16.22501424 13.94913079 0
v 9.71423958 12.06015696 3.96041233
v 1.38243431 1.39593252 5.93958767
v 6.15585439 6.25340009 5.93958767
v 1.38243431 1.39593252 7.91876302
v 1.38243431 1.39593252 9.89793836
v 2.47010098 0.05277605 9.89793836
v 6.15585439 6.25340009 7.91876302
v 6.15585439 6.25340009 9.89793836
v 7.5177887 5.18934039 9.89793836
v 8.77274519 5.55783427 9.89793836
v 8.77274519 10.52377774 9.89793836
v 12.96552591 0.93310161 5.93958767
v 12.96552591 0.93310161 7.91876302
v 10.24165731 3.061221 9.89793836
v 12.96552591 0.93310161 9.89793836
v 11.60359161 1.99716131 9.89793836
v 8.879723 4.1252807 9.89793836
v 10.40597029 5.55644047 9.9
v 10.40597029 5.55644047 9.89793836
v 10.40597029 5.55783427 9.89793836
v 15.79871161 5.55644047 9.89793836
v 17.54758022 5.55644047 9.9
v 9.71423958 12.06015696 5.93958767
v 10.60848123 8.71676459 9.9
v 10.40597029 8.7321076 9.89793836
v 10.40597029 8.7321076 9.9
v 10.89380239 8.80899561 9.89793836
v 10.89380239 8.80899561 9.9
v 11.38163449 8.80899561 9.89793836
v 11.38163449 8.96668897 9.89793836
v 9.71423958 12.06015696 7.91876302
v 9.42961942 11.75249667 9.9
v 9.46280128 11.64984695 9.89793836
v 9.54944045 11.79122922 9.89793836
v 9.71423958 12.06015696 9.89793836
v 9.98737347 11.93279253 9.89793836
v 17.54758022 8.80899561 9.9
v 17.22501452 10.85558113 9.9
v 16.22501424 13.94913079 9.9
f 1 5 2
f 2 6 3
f 1 2 11
f 1 11 4
f 2 3 12
f 1 4 5
f 2 5 6
f 3 9 7
f 7 10 8
f 3 7 14
f 7 8 15
f 3 6 9
f 7 9 10
f 2 12 11
f 4 11 13
f 3 14 12
f 7 15 14
f 15 8 24
f 4 17 5
f 4 16 17
f 5 18 6
f 5 17 18
f 4 13 16
f 16 40 17
f 17 41 18
f 16 21 39
f 6 19 9
f 6 18 19
f 9 20 10
f 9 19 20
f 18 42 19
f 19 43 20
f 13 21 16
f 8 23 22
f 8 22 24
f 8 10 23
f 22 23 26
f 22 25 24
f 22 26 25
f 10 27 23
f 10 20 27
f 23 27 28
f 20 60 27
f 23 28 26
f 27 61 28
f 11 12 29
f 11 29 13
f 12 14 30
f 14 15 35
f 13 29 31
f 12 30 29
f 14 35 30
f 13 31 21
f 21 32 44
f 21 31 32
f 15 24 33
f 24 25 34
f 15 33 35
f 24 34 33
f 25 36 34
f 25 26 37
f 25 37 36
f 33 81 35
f 33 34 77
f 34 36 90
f 36 89 90
f 36 37 91
f 26 28 38
f 26 38 37
f 28 71 38
f 37 38 96
f 16 39 40
f 17 40 41
f 39 46 40
f 39 45 46
f 40 47 41
f 40 46 47
f 39 44 45
f 18 41 42
f 19 42 43
f 41 51 42
f 41 47 51
f 42 52 43
f 42 51 52
f 21 44 39
f 44 55 45
f 45 49 46
f 46 50 47
f 45 55 48
f 45 48 49
f 46 49 50
f 48 56 49
f 49 57 50
f 47 53 51
f 51 54 52
f 47 50 53
f 51 53 54
f 50 58 53
f 53 59 54
f 48 55 56
f 49 56 57
f 50 57 58
f 53 58 59
f 59 65 54
f 20 43 60
f 27 60 61
f 43 62 60
f 43 52 62
f 60 62 64
f 60 64 61
f 52 63 62
f 52 54 63
f 54 65 63
f 62 63 66
f 62 66 64
f 63 65 66
f 44 67 55
f 32 67 44
f 55 67 68
f 55 68 56
f 56 69 57
f 57 70 58
f 58 74 59
f 56 68 69
f 57 69 70
f 58 70 74
f 28 61 71
f 61 64 75
f 61 75 71
f 38 71 127
f 71 75 129
f 59 72 65
f 64 66 76
f 65 73 66
f 59 74 72
f 65 72 73
f 66 73 76
f 64 76 75
f 72 74 88
f 72 84 73
f 75 76 130
f 73 131 76
f 76 131 130
f 36 91 89
f 37 96 91
f 38 127 96
f 71 129 127
f 75 130 129
f 29 30 79
f 29 79 31
f 31 80 32
f 32 82 67
f 30 35 78
f 30 78 79
f 35 81 78
f 31 79 80
f 33 77 81
f 34 90 77
f 81 77 99
f 79 78 100
f 78 81 101
f 32 80 82
f 79 100 80
f 78 101 100
f 80 100 102
f 80 102 82
f 82 102 109
f 82 109 83
f 67 83 68
f 68 85 69
f 69 87 70
f 67 82 83
f 68 83 85
f 70 86 74
f 69 85 87
f 70 87 86
f 74 86 88
f 72 88 84
f 73 84 131
f 88 139 84
f 87 140 86
f 86 141 88
f 83 109 137
f 83 137 85
f 85 137 138
f 85 138 87
f 87 138 140
f 86 140 141
f 90 89 93
f 89 91 95
f 77 90 103
f 90 93 103
f 77 103 99
f 89 92 93
f 89 95 92
f 93 94 103
f 92 94 93
f 91 96 97
f 91 97 95
f 96 128 97
f 92 98 94
f 92 95 98
f 95 97 98
f 97 128 98
f 128 132 98
f 81 99 101
f 103 94 106
f 94 105 106
f 103 107 99
f 103 106 107
f 99 107 101
f 100 101 107
f 100 146 102
f 100 107 146
f 96 127 128
f 127 129 132
f 127 132 128
f 129 130 133
f 131 134 130
f 84 142 131
f 131 142 134
f 84 139 142
f 129 133 132
f 130 134 133
f 134 142 135
f 132 133 98
f 133 136 98
f 133 134 136
f 134 135 136
f 102 146 109
f 109 146 137
f 88 141 139
f 140 135 141
f 142 139 135
f 139 141 135
f 140 144 135
f 135 144 145
f 140 146 144
f 137 146 138
f 138 146 140
f 94 98 105
f 111 105 98
f 111 98 118
f 113 116 115
f 119 120 121
f 120 122 121
f 122 126 121
f 118 98 136
f 119 159 120
f 121 126 148
f 120 159 122
f 121 148 156
f 150 135 145
f 122 159 126
f 121 156 160
f 118 136 158
f 126 159 148
f 121 160 161
f 150 158 135
f 158 136 135
f 152 154 155
f 159 156 148
f 159 160 156
f 159 161 160
f 111 117 112
f 112 117 110
f 110 117 114
f 113 114 116
f 111 118 117
f 114 117 124
f 117 119 125
f 119 121 125
f 114 124 116
f 117 125 124
f 117 118 157
f 117 159 119
f 116 124 155
f 121 164 125
f 124 125 163
f 118 158 157
f 117 157 159
f 121 161 164
f 155 124 163
f 125 164 163
f 150 151 158
f 151 149 157
f 149 153 157
f 152 155 153
f 151 157 158
f 157 161 159
f 153 163 157
f 157 164 161
f 153 155 163
f 157 163 164
f 115 116 155
f 115 155 154
f 104 106 105
f 104 105 112
f 104 107 106
f 104 110 108
f 104 108 107
f 108 146 107
f 108 123 147
f 111 112 105
f 104 112 110
f 113 115 114
f 110 114 123
f 110 123 108
f 114 115 123
f 115 162 123
f 108 147 146
f 143 145 144
f 143 150 145
f 143 144 146
f 143 147 149
f 143 146 147
f 115 154 162
f 123 162 147
f 143 151 150
f 143 149 151
f 149 147 153
f 152 153 154
f 153 147 162
f 153 162 154
