# MAAS exact compiled indexed mesh
# program_hash e602fdc67fdffd020c1170564e35b2f0410eaa82813e8812364b45536c9c098c
# geometry_hash 0e5e653ad31301a2489c497f2b52674395e9c7c3cc79b82cce577c2fcfe1405a
v -15.13602854 -10.40391283 0
v -15.13602854 -10.40391283 4.75304429
v -6.81289828 -10.40391283 4.75304429
v -6.81289828 -10.40391283 9.9
v -15.13602854 10.40391283 0
v -15.13602854 10.40391283 4.75304429
v -6.81289828 10.40391283 4.75304429
v -6.81289828 10.40391283 9.9
v 5.67179712 -10.40391283 0
v 5.67179712 -7.1849422 1.53153
v 6.81289828 -7.1849422 1.53153
v 5.67179712 -10.40391283 4.75095571
v 5.67179712 -10.40391283 4.75304429
v 5.67179712 -7.1849422 4.75095571
v 6.81289828 -7.1849422 4.75095571
v 13.99492739 -10.40391283 4.75095571
v 13.99492739 -7.1849422 4.75095571
v 15.13602854 -7.1849422 4.75095571
v 13.99492739 -10.40391283 9.9
v 13.99492739 -7.1849422 8.36847
v 15.13602854 -7.1849422 8.36847
v 5.67179712 7.1849422 1.53153
v 6.81289828 7.1849422 1.53153
v 5.67179712 10.40391283 0
v 5.67179712 7.1849422 4.75095571
v 6.81289828 7.1849422 4.75095571
v 5.67179712 10.40391283 4.75095571
v 5.67179712 10.40391283 4.75304429
v 13.99492739 7.1849422 4.75095571
v 15.13602854 7.1849422 4.75095571
v 13.99492739 10.40391283 4.75095571
v 13.99492739 7.1849422 8.36847
v 15.13602854 7.1849422 8.36847
v 13.99492739 10.40391283 9.9
f 4 3 13
f 4 8 3
f 8 7 3
f 16 13 12
f 4 13 16
f 4 16 19
f 4 19 8
f 16 17 20
f 16 20 19
f 20 34 19
f 31 27 28
f 8 19 34
f 34 28 7
f 8 34 7
f 20 32 34
f 31 28 34
f 29 31 32
f 31 34 32
f 17 18 20
f 18 21 20
f 18 33 21
f 20 21 32
f 18 30 33
f 21 33 32
f 29 33 30
f 29 32 33
f 1 9 2
f 1 5 9
f 1 2 6
f 2 12 3
f 2 9 12
f 1 6 5
f 6 7 5
f 5 24 9
f 5 27 24
f 5 7 28
f 5 28 27
f 9 10 12
f 12 13 3
f 10 14 12
f 9 24 10
f 10 24 22
f 24 27 22
f 22 27 25
f 10 11 15
f 10 15 14
f 10 23 11
f 11 26 15
f 10 22 23
f 11 23 26
f 22 25 23
f 23 25 26
f 16 12 14
f 16 14 15
f 16 15 26
f 16 26 17
f 17 26 18
f 27 26 25
f 18 26 29
f 18 29 30
f 29 26 27
f 29 27 31
f 2 3 6
f 6 3 7
