# MAAS exact compiled indexed mesh
# program_hash 2f7b8ecf9dd1e05db5f6640a12c68894dffc29361970e94f12be43d288d41953
# geometry_hash 67da91ae96d8580185c0d1ccbc9875396ca8112c54db1a79cd6d3451abe1288b
v -22.94879679 -4.89414183 3.80769175
v -11.8975088 -4.89414183 3.80769175
v -22.46254248 -4.89414183 7.12104845
v -11.50579979 -4.89414183 6.47681291
v -22.94879679 -2.44707091 3.80769175
v -11.8975088 -2.44707091 3.80769175
v -22.46254248 -2.44707091 7.12104845
v -0.8462208 -4.89414183 3.80769175
v -0.5490571 -4.89414183 5.83257737
v -0.8462208 -2.44707091 3.80769175
v -21.11180516 -4.89414183 10.15384466
v -21.01209951 -4.89414183 10.3777127
v -18.62228535 -4.89414183 13.52196207
v -15.33399039 -4.89414183 16.49999758
v -21.01209951 -2.44707091 10.3777127
v -18.62228535 -2.44707091 13.52196207
v -15.33399039 -2.44707091 16.49999758
v -10.33737502 -4.89414183 9.10026467
v -9.53659236 -4.89414183 10.15384466
v -8.41222656 -4.89414183 11.63315904
v -6.34262676 -2.91690853 12.35875203
v -5.76329424 -4.89414183 14.03215749
v -6.34262676 -2.91690853 14.18154056
v -22.94879679 0 3.80769175
v -11.8975088 0 3.80769175
v -22.46254248 0 7.12104845
v -22.94879679 2.44707091 3.80769175
v -22.94879679 4.89414183 3.80769175
v -16.52313405 2.74071942 0
v -16.52313405 2.74071942 3.80769175
v -11.8975088 2.44707091 3.80769175
v -16.52313405 4.89414183 0
v -16.52313405 4.89414183 3.80769175
v -22.46254248 2.44707091 7.12104845
v -22.46254248 4.89414183 7.12104845
v -16.52313405 4.89414183 4.82307622
v -11.50579979 4.89414183 6.47681291
v -0.8462208 0 3.80769175
v -0.8462208 2.44707091 3.80769175
v -0.5490571 4.89414183 5.83257737
v -21.01209951 0 10.3777127
v -18.62228535 0 13.52196207
v -15.33399039 0 16.49999758
v -21.01209951 2.44707091 10.3777127
v -21.11180516 4.89414183 10.15384466
v -21.01209951 4.89414183 10.3777127
v -18.62228535 2.44707091 13.52196207
v -18.62228535 4.89414183 13.52196207
v -15.33399039 2.44707091 16.49999758
v -15.33399039 4.89414183 16.49999758
v -6.34262676 2.91690853 12.35875203
v -10.33737502 4.89414183 9.10026467
v -8.41222656 4.89414183 11.63315904
v -6.34262676 2.91690853 14.18154056
v -5.76329424 4.89414183 14.03215749
v 10.20506719 -4.89414183 3.80769175
v 0.33734946 -4.89414183 7.82281664
v 10.4076856 -4.89414183 5.18834183
v 11.01207395 -4.89414183 6.5453686
v 10.20506719 -2.44707091 3.80769175
v 21.25635518 -4.89414183 3.80769175
v 12.00789101 -4.89414183 7.85555297
v 21.36442829 -4.89414183 4.54410629
v 21.68679844 -4.89414183 5.26792057
v 22.21794979 -4.89414183 5.96674994
v 22.9487942 -4.89414183 6.62863722
v 21.25635518 -2.44707091 3.80769175
v 21.36442829 -2.44707091 4.54410629
v 21.68679844 -2.44707091 5.26792057
v 22.21794979 -2.44707091 5.96674994
v 22.9487942 -2.44707091 6.62863722
v 1.79783222 -4.89414183 9.744356
v 3.80740191 -4.89414183 11.5643174
v 0.72645167 -2.91690853 12.35875203
v 9.2774508 -4.89414183 10.15384466
v 3.80740191 -2.44707091 11.5643174
v 6.20048924 -0.6118734 10.9472508
v 13.37809805 -4.89414183 9.09647731
v 13.37809805 -2.44707091 9.09647731
v 10.20506719 0 3.80769175
v 10.20506719 2.44707091 3.80769175
v 0.33734946 4.89414183 7.82281664
v 10.4076856 4.89414183 5.18834183
v 11.01207395 4.89414183 6.5453686
v 21.25635518 0 3.80769175
v 21.36442829 0 4.54410629
v 21.68679844 0 5.26792057
v 22.21794979 0 5.96674994
v 22.9487942 0 6.62863722
v 16.52313146 2.74071942 0
v 16.52313146 2.74071942 3.80769175
v 16.52313146 4.89414183 0
v 16.52313146 4.89414183 3.80769175
v 21.25635518 2.44707091 3.80769175
v 21.25635518 4.89414183 3.80769175
v 16.52313146 4.89414183 4.82307622
v 12.00789101 4.89414183 7.85555297
v 21.36442829 2.44707091 4.54410629
v 21.68679844 2.44707091 5.26792057
v 22.21794979 2.44707091 5.96674994
v 22.9487942 2.44707091 6.62863722
v 21.36442829 4.89414183 4.54410629
v 21.68679844 4.89414183 5.26792057
v 22.21794979 4.89414183 5.96674994
v 22.9487942 4.89414183 6.62863722
v 5.63075154 0 11.09415982
v 3.80740191 0 11.5643174
v 6.54242635 0 10.85908103
v 6.87053253 1.66387837 10.77447762
v 0.72645167 2.91690853 12.35875203
v 3.80740191 2.44707091 11.5643174
v 5.63075154 3.26276122 11.09415982
v 1.79783222 4.89414183 9.744356
v 3.80740191 4.89414183 11.5643174
v 6.54242635 2.44707091 10.85908103
v 9.2774508 4.89414183 10.15384466
v 13.37809805 0 9.09647731
v 13.37809805 2.44707091 9.09647731
v 13.37809805 4.89414183 9.09647731
f 1 5 2
f 2 5 6
f 1 3 7
f 1 2 3
f 4 11 3
f 1 7 5
f 2 4 3
f 5 24 6
f 6 24 25
f 5 7 26
f 5 26 24
f 3 45 7
f 2 6 8
f 6 10 8
f 2 8 4
f 4 9 18
f 4 8 9
f 9 57 18
f 6 25 10
f 10 25 38
f 4 18 11
f 18 19 11
f 3 11 45
f 18 57 19
f 19 57 72
f 24 27 25
f 25 27 31
f 24 26 34
f 7 45 26
f 24 34 27
f 27 28 30
f 28 33 30
f 27 30 31
f 27 34 35
f 26 45 34
f 27 35 28
f 28 36 33
f 28 35 37
f 34 45 35
f 28 37 36
f 37 35 52
f 25 31 38
f 31 39 38
f 31 30 91
f 37 40 36
f 37 52 82
f 40 83 36
f 37 82 40
f 35 45 52
f 52 45 116
f 52 113 82
f 8 10 56
f 10 60 56
f 8 56 9
f 9 58 57
f 59 72 57
f 9 56 58
f 58 59 57
f 59 62 72
f 10 38 60
f 38 80 60
f 56 60 61
f 61 67 63
f 60 67 61
f 56 61 58
f 58 63 59
f 59 64 62
f 65 78 62
f 58 61 63
f 59 63 64
f 63 68 64
f 64 69 65
f 65 70 66
f 64 65 62
f 65 66 78
f 63 67 68
f 64 68 69
f 65 69 70
f 66 71 79
f 66 70 71
f 60 80 67
f 67 85 68
f 67 80 85
f 68 86 69
f 69 87 70
f 70 88 71
f 68 85 86
f 69 86 87
f 70 87 88
f 71 89 117
f 71 88 89
f 19 72 75
f 72 62 75
f 79 73 75
f 79 117 73
f 73 117 77
f 77 117 108
f 62 78 75
f 78 79 75
f 66 79 78
f 71 117 79
f 38 39 80
f 39 81 80
f 31 91 39
f 39 91 81
f 83 96 36
f 40 82 84
f 40 84 83
f 84 82 97
f 80 81 85
f 85 94 86
f 81 94 85
f 86 98 87
f 87 99 88
f 88 100 89
f 86 94 98
f 87 98 99
f 88 99 100
f 89 101 118
f 89 100 101
f 81 91 94
f 94 91 93
f 94 95 98
f 94 93 95
f 83 102 96
f 83 84 103
f 84 97 104
f 105 97 119
f 98 102 99
f 99 103 100
f 100 104 101
f 95 93 96
f 83 103 102
f 95 96 102
f 84 104 103
f 98 95 102
f 99 102 103
f 100 103 104
f 101 105 119
f 104 97 105
f 101 104 105
f 117 109 108
f 106 108 109
f 117 115 109
f 117 118 115
f 111 115 112
f 52 116 113
f 82 113 97
f 118 112 115
f 118 114 112
f 113 116 119
f 118 116 114
f 113 119 97
f 89 118 117
f 101 119 118
f 118 119 116
f 75 77 109
f 77 106 109
f 75 109 116
f 109 115 116
f 111 116 115
f 11 12 15
f 11 13 12
f 12 16 15
f 11 20 13
f 11 19 20
f 12 13 16
f 13 17 16
f 13 20 14
f 13 14 17
f 14 22 17
f 11 15 41
f 11 41 44
f 15 42 41
f 15 16 42
f 16 43 42
f 16 17 43
f 19 75 20
f 14 20 22
f 17 22 23
f 20 73 22
f 22 73 23
f 23 73 74
f 17 23 54
f 11 44 46
f 11 46 45
f 41 47 44
f 41 42 47
f 42 49 47
f 42 43 49
f 17 54 43
f 43 54 49
f 44 48 46
f 45 46 53
f 46 48 53
f 44 47 48
f 47 50 48
f 47 49 50
f 49 54 50
f 48 50 55
f 45 53 114
f 45 114 116
f 48 55 53
f 50 54 55
f 54 110 55
f 55 110 111
f 53 55 114
f 20 75 73
f 73 76 74
f 73 77 76
f 74 76 107
f 74 107 111
f 77 108 106
f 75 116 77
f 74 111 110
f 76 116 107
f 76 77 116
f 107 116 111
f 111 112 114
f 55 111 114
f 21 23 74
f 21 74 51
f 21 54 23
f 51 74 110
f 21 51 54
f 51 110 54
f 29 30 32
f 32 30 33
f 29 32 90
f 29 91 30
f 32 33 96
f 33 36 96
f 29 90 91
f 32 92 90
f 32 93 92
f 32 96 93
f 90 93 91
f 90 92 93
