# MAAS exact compiled indexed mesh
# program_hash 4f9ff9b2e1e0214e93a2f414cb01913de60b5564660c1772af06aefdb39ac2d3
# geometry_hash 4f90c5623ad1b127ee1732f5237576ebd6851c5eca022966709e5440930963c5
v -18.98214981 -9.92528694 0
v -21.5824443 -3.88294696 0
v -18.98214981 -3.88294696 0
v -16.38185531 -1.51890631 0
v -16.38185531 -0.94312681 0
v -21.5824443 -3.88294696 3.46276492
v -18.98214981 -3.88294696 3.46276492
v -18.98214981 -0.94312681 3.46276492
v -16.38185531 -0.94312681 3.46276492
v -15.12356806 -0.94312681 2.94532431
v -13.73675672 -0.94312681 2.94532431
v -13.28880027 -0.53587015 2.94532431
v -13.28880027 -0.33273514 2.94532431
v -18.98214981 -9.92528694 7.17308069
v -15.12356806 -0.94312681 5.38543779
v -14.20618417 -0.94312681 5.38543779
v -14.20618417 -0.33273514 5.38543779
v -13.28880027 -0.33273514 5.38543779
v -18.98214981 -0.94312681 7.17308069
v -14.20618417 -3.50164123 7.17308069
v -14.20618417 -3.50164123 7.99999343
v -14.20618417 -0.94312681 7.17308069
v -14.20618417 -0.33273514 7.99999343
v -18.35056573 0.94312681 0
v -16.38185531 0.94312681 0
v -21.5824443 3.88294696 0
v -18.98214981 3.88294696 0
v -18.98214981 0.94312681 3.46276492
v -16.38185531 0.94312681 3.46276492
v -21.5824443 3.88294696 3.46276492
v -18.98214981 3.88294696 3.46276492
v -15.12356806 0.94312681 2.94532431
v -13.98336131 0.33273514 2.94532431
v -14.11449642 0.94312681 2.94532431
v -13.28880027 0.33273514 2.94532431
v -18.98214981 9.92528694 0
v -15.12356806 0.94312681 5.38543779
v -14.20618417 0.33273514 5.38543779
v -14.20618417 0.94312681 5.38543779
v -13.28880027 0.33273514 5.38543779
v -18.98214981 0.94312681 7.17308069
v -14.20618417 0.94312681 7.17308069
v -14.20618417 0.33273514 7.99999343
v -14.20618417 3.50164123 7.17308069
v -14.20618417 3.50164123 7.99999343
v -18.98214981 9.92528694 7.17308069
v 0.10500463 -0.94312681 2.94532431
v 0.10500463 -0.33273514 2.94532431
v 21.5824443 -9.92528694 0
v 21.5824443 -0.94312681 0
v 0.10500463 -3.50164123 7.17308069
v 0.10500463 -3.50164123 7.99999343
v 0.10500463 -0.94312681 7.17308069
v 0.10500463 -0.33273514 7.99999343
v 21.5824443 -9.92528694 7.17308069
v 21.5824443 -0.94312681 7.17308069
v 0.10500463 0.33273514 2.94532431
v 0.10500463 0.94312681 2.94532431
v 21.5824443 0.94312681 0
v 21.5824443 9.92528694 0
v 0.10500463 0.94312681 7.17308069
v 0.10500463 0.33273514 7.99999343
v 0.10500463 3.50164123 7.17308069
v 0.10500463 3.50164123 7.99999343
v 21.5824443 0.94312681 7.17308069
v 21.5824443 9.92528694 7.17308069
f 1 7 3
f 5 10 11
f 1 19 7
f 5 9 10
f 9 15 10
f 1 3 49
f 3 4 49
f 1 49 14
f 4 5 50
f 5 11 50
f 1 14 19
f 7 19 8
f 8 19 9
f 9 19 15
f 19 16 15
f 14 20 19
f 19 22 16
f 19 20 22
f 14 55 20
f 50 11 47
f 4 50 49
f 49 50 55
f 50 47 56
f 14 49 55
f 55 51 20
f 56 47 53
f 56 53 51
f 50 56 55
f 55 56 51
f 24 27 25
f 25 32 29
f 29 32 37
f 27 31 36
f 31 46 36
f 27 36 59
f 25 59 32
f 25 27 59
f 59 34 32
f 28 41 31
f 28 29 41
f 29 37 41
f 31 41 46
f 41 37 39
f 41 44 46
f 41 39 42
f 41 42 44
f 46 44 63
f 36 46 66
f 59 58 34
f 36 60 59
f 36 66 60
f 59 65 58
f 59 60 65
f 65 61 58
f 46 63 65
f 65 63 61
f 46 65 66
f 60 66 65
f 12 47 11
f 12 13 48
f 13 18 48
f 12 48 47
f 21 22 20
f 17 16 23
f 17 23 18
f 23 16 22
f 21 23 22
f 18 54 48
f 21 20 52
f 21 52 23
f 18 23 54
f 52 20 51
f 23 52 54
f 48 53 47
f 52 51 53
f 48 54 53
f 52 53 54
f 33 34 35
f 35 34 57
f 35 57 40
f 57 34 58
f 38 42 39
f 38 40 43
f 38 43 42
f 43 44 42
f 43 45 44
f 40 57 43
f 43 62 45
f 45 63 44
f 43 57 62
f 45 62 64
f 45 64 63
f 57 58 62
f 62 58 61
f 62 61 64
f 64 61 63
f 2 3 6
f 5 25 9
f 3 7 6
f 6 7 8
f 2 6 30
f 6 8 28
f 8 9 28
f 2 30 26
f 26 31 27
f 9 25 29
f 6 28 30
f 9 29 28
f 26 30 31
f 28 31 30
f 13 35 18
f 10 15 37
f 17 15 16
f 17 38 15
f 17 18 38
f 37 32 10
f 18 35 40
f 38 39 15
f 37 15 39
f 18 40 38
f 2 24 3
f 3 24 5
f 3 5 4
f 2 26 24
f 5 24 25
f 24 26 27
f 11 10 32
f 13 11 33
f 12 11 13
f 33 11 32
f 13 33 35
f 33 32 34
