# MAAS exact compiled indexed mesh
# program_hash 3246f4e905b265e09481d3bdbf7cc263cb8ac88949b14f14f728b424c1248b46
# geometry_hash b9eef34296c1e9fe8082997be4a5502b9e5142138bdcb6e2b2f30c6f4aaf6032
v -14.83304709 -10.32038155 0
v -14.98807433 -10.46781812 4.03724696
v -14.83304709 -10.32038155 4.03724696
v -8.55206949 -10.32038155 3.86680988
v -8.48642649 -10.46781812 4.03724696
v -8.55206949 -10.32038155 4.03724696
v -7.29308365 -13.14811003 3.86680988
v -0.9419015 -10.32038155 3.86680988
v -0.9419015 -10.32038155 4.1642568
v -14.98807433 -5.34747178 4.03724696
v -14.83304709 -5.34747178 4.03724696
v -14.83304709 -5.34747178 4.1642568
v -10.76615157 -5.34747178 4.1642568
v -30.35089698 -7.90764495 7.46234818
v -30.35089698 -7.90764495 7.560583
v -23.14576398 -7.13508122 7.560583
v -16.07005276 -7.13508122 7.46234818
v -23.14576398 -7.13508122 11.01483401
v -25.06092943 -0.71533651 7.46234818
v -20.70934435 -3.8224935 7.46234818
v -20.10146433 -2.99601195 7.46234818
v -21.28751587 -0.20515098 7.46234818
v -15.94063099 -6.36251748 11.01483401
v -15.94063099 -6.36251748 14.4
v -15.94063099 -0.0207796 11.01483401
v -15.94063099 -0.0207796 14.4
v -14.98807433 -10.46781812 7.560583
v -8.48642649 -10.46781812 7.28744939
v -14.98807433 -7.90764495 7.46234818
v -14.98807433 -7.90764495 7.560583
v -14.98807433 -7.13508122 7.46234818
v -9.58653672 -9.39469006 7.560583
v -9.81317385 -7.48789477 7.73361976
v -10.32010001 -7.31000294 7.560583
v -10.32010001 -7.31000294 7.62287623
v -10.32010001 -7.13508122 7.560583
v -10.32010001 -7.13508122 7.62287623
v -9.8923764 -7.31000294 7.560583
v -9.8923764 -7.31000294 7.62287623
v -9.97025657 -7.13508122 7.62287623
v -9.97025657 -7.13508122 7.73361976
v -9.58653672 -7.99693011 7.560583
v -9.58653672 -7.99693011 7.6934947
v -9.58653672 -7.31000294 7.560583
v -9.58653672 -7.31000294 7.62287623
v -9.58653672 -7.13508122 7.62287623
v -7.29308365 -13.14811003 7.28744939
v -7.29308365 -13.14811003 8.03106668
v -5.83616576 -10.46781812 7.28744939
v -5.83616576 -10.46781812 7.560583
v -3.36086982 -11.39737563 7.28744939
v -2.45941562 -10.99602237 7.28744939
v -5.83616576 -9.39469006 7.42241296
v -5.83616576 -9.39469006 7.560583
v -1.50906221 -9.39469006 7.42241296
v -1.50906221 -7.90764495 7.46234818
v -1.50906221 -7.90764495 7.560583
v -1.50906221 -7.13508122 7.560583
v -9.58653672 -9.39469006 10.88744939
v -9.58653672 -7.13508122 10.88744939
v -6.85598212 -7.13508122 10.88744939
v -6.85598212 -7.13508122 11.01483401
v -4.1849991 -7.18027887 10.88744939
v -4.23961681 -7.13508122 10.88744939
v -4.1849991 -7.13508122 10.88744939
v -4.23961681 -7.13508122 11.01483401
v -1.50906221 -9.39469006 10.88744939
v -1.50906221 -8.32156199 10.87666397
v -1.50906221 -8.32156199 10.88744939
v -3.27206574 -7.93575627 10.88744939
v -1.50906221 -7.13508122 10.87666397
v -14.98807433 -5.34747178 7.46234818
v -14.24552984 -3.80842604 7.46234818
v -10.76615157 -5.34747178 7.28744939
v -10.76615157 -5.34747178 7.46234818
v -9.58653672 -5.34747178 7.42241296
v -9.58653672 -5.34747178 7.46234818
v -9.58653672 -4.87547238 7.42241296
v -9.58653672 -4.87547238 7.46234818
v -8.39089769 -4.87547238 7.46234818
v -12.79236946 -0.79651187 7.46234818
v -13.13730756 -0.02176822 7.28744939
v -5.83616576 -5.34747178 7.28744939
v -5.83616576 -5.34747178 7.42241296
v -6.85598212 -4.87547238 7.560583
v -4.23961681 -4.87547238 7.560583
v -1.50906221 -4.87547238 7.42241296
v -1.50906221 -4.87547238 7.46234818
v -4.23961681 -1.98010405 7.46234818
v -6.85598212 -0.04940421 7.46234818
v -4.23961681 -0.59116741 7.46234818
v -4.23961681 -0.10607596 7.46234818
v -1.35329706 -2.34808002 7.46234818
v -0.27115143 -2.2645278 7.46234818
v -0.91811363 -1.96701369 7.46234818
v -1.38795751 -0.41085376 7.46234818
v -0.11098714 -0.23820059 7.46234818
v -11.89274782 -0.85896306 14.4
v -6.85598212 -6.36251748 10.88744939
v -6.85598212 -6.36251748 11.01483401
v -4.23961681 -6.36251748 10.88744939
v -4.23961681 -6.36251748 11.01483401
v -6.85598212 -4.87547238 10.87666397
v -4.23961681 -4.87547238 10.87666397
v -1.8176522 -6.36251748 11.01483401
v -1.8176522 -6.36251748 14.4
v -14.40779102 2.83178435 4.1642568
v -14.83304709 8.92100778 0
v -14.83304709 8.92100778 4.1642568
v -0.73117127 8.92100778 3.86680988
v -0.73117127 8.92100778 4.1642568
v -30.35089698 0.38004177 7.46234818
v -30.35089698 0.38004177 7.560583
v -31.0216209 5.34082287 7.46234818
v -31.0216209 5.34082287 7.560583
v -23.73774492 4.55801648 7.560583
v -23.14576398 0.17963109 7.560583
v -19.31248775 0.0618833 7.46234818
v -16.09561584 2.86016208 7.46234818
v -22.67078816 3.47397108 7.46234818
v -23.23439813 4.04660797 7.46234818
v -23.73774492 4.55801648 11.01483401
v -23.14576398 0.17963109 11.01483401
v -16.45386893 3.77521009 11.01483401
v -16.45386893 3.77521009 14.4
v -12.39084751 0.0357085 7.46234818
v -14.40779102 2.83178435 7.28744939
v -11.98225184 2.27252195 7.46234818
v -8.9463396 0.50142424 7.46234818
v -9.16740598 2.13646642 7.46234818
v -12.49675348 6.07785815 7.46234818
v -12.49675348 6.07785815 7.560583
v -7.22157595 0.02629824 7.46234818
v -6.85598212 0.78405166 7.560583
v -6.7906786 0.79288104 7.560583
v -6.85598212 1.27587626 7.560583
v -4.23961681 0.17963109 7.560583
v -6.92187982 1.76326618 7.560583
v -6.85598212 1.76326618 7.560583
v -7.05602738 2.75544294 7.46234818
v -4.47406846 4.19476093 7.46234818
v -4.48444918 4.4905241 7.46234818
v -4.82006912 4.54630321 7.46234818
v -4.83159774 4.55801648 7.560583
v -7.35512581 4.96762263 7.46234818
v -7.44499097 5.63227967 7.46234818
v -7.44499097 5.63227967 7.560583
v -6.85598212 0.78405166 10.87666397
v -6.7906786 0.79288104 10.87666397
v -6.85598212 1.27587626 10.87666397
v -4.23961681 0.17963109 10.87666397
v -6.92187982 1.76326618 10.87666397
v -6.85598212 1.76326618 10.87666397
v -1.8176522 0.50324331 11.01483401
v -1.7610351 0.51089824 11.01483401
v -1.8176522 0.92964733 11.01483401
v -1.87478444 1.35220655 11.01483401
v -1.8176522 1.35220655 11.01483401
v -1.8176522 0.50324331 14.4
v -1.7610351 0.51089824 14.4
v -1.8176522 0.52347688 14.4
v -1.8176522 0.92964733 14.4
v -1.87478444 1.35220655 14.4
v -1.8176522 1.35220655 14.4
v -4.83159774 4.55801648 10.87666397
v -7.36014294 5.00473009 10.87666397
v -7.36014294 5.00473009 11.01483401
v -2.35352726 4.89306475 10.87666397
v -2.35352726 4.89306475 11.01483401
v -0.06254351 3.77521009 11.01483401
v -2.45823422 5.66749415 10.87666397
v -0.06254351 3.77521009 14.4
v -2.45823422 5.66749415 14.4
v -12.7314553 7.81375028 7.46234818
v -12.7314553 7.81375028 7.560583
v -7.59484476 6.74062221 7.46234818
v -7.59484476 6.74062221 11.01483401
v 13.15442829 -10.32038155 0
v 6.4328946 -10.46781812 4.03724696
v 6.4328946 -10.32038155 4.03724696
v 6.4328946 -10.32038155 4.1642568
v 6.4328946 -7.03691078 4.1642568
v 6.4328946 -7.03691078 5.62866709
v 13.15442829 -10.32038155 4.03724696
v 10.22743671 -5.34747178 4.1642568
v 10.22743671 -5.34747178 4.87144103
v 13.15442829 -5.34747178 4.03724696
v 13.15442829 -5.34747178 4.1642568
v 13.15442829 -4.04429117 3.86680988
v 13.15442829 -4.04429117 4.1642568
v 15.58480317 -10.46781812 4.03724696
v 15.58480317 -5.34747178 4.03724696
v 15.87776319 -2.83178435 3.86680988
v 6.4328946 -10.46781812 7.560583
v 5.35091617 -7.13508122 7.46234818
v 6.4328946 -7.90764495 7.46234818
v 6.4328946 -7.90764495 7.560583
v 6.4328946 -7.03691078 7.28744939
v 6.4328946 -7.13508122 7.46234818
v 9.31961046 -9.39469006 7.560583
v 9.31961046 -7.13508122 7.560583
v 2.81804134 -8.32156199 10.87666397
v 2.81804134 -8.32156199 10.88744939
v 2.81804134 -7.13508122 10.87666397
v 2.81804134 -7.13508122 10.88744939
v 9.31961046 -9.39469006 10.88744939
v 9.31961046 -7.13508122 10.88744939
v 12.20632632 -8.17476367 10.88744939
v 12.56885635 -8.02155845 10.88744939
v 12.05016506 -7.13508122 10.88744939
v 12.05016506 -7.13508122 11.01483401
v 12.20632632 -7.13508122 10.88744939
v 14.16427174 -6.70130844 10.88744939
v 14.78395705 -7.23225501 10.88744939
v 14.66653037 -7.13508122 10.88744939
v 14.66653037 -7.13508122 11.01483401
v 6.4328946 -5.34747178 7.28744939
v 6.4328946 -5.34747178 7.46234818
v 6.53107144 -5.1439841 7.46234818
v 7.143447 -3.87473491 7.46234818
v 9.31961046 -5.34747178 7.42241296
v 9.31961046 -5.34747178 7.46234818
v 10.22743671 -5.34747178 7.28744939
v 10.22743671 -5.34747178 7.42241296
v 9.31961046 -4.87547238 7.42241296
v 9.31961046 -4.87547238 7.46234818
v 9.52665689 -4.87547238 7.46234818
v 9.52665689 -4.44633456 7.46234818
v 11.28756473 -4.87547238 7.42241296
v 11.28756473 -4.87547238 7.46234818
v 12.05016506 -4.87547238 7.46234818
v 12.05016506 -4.53594084 7.46234818
v 12.49104088 -4.87547238 7.46234818
v 12.49104088 -4.87547238 7.560583
v 12.49104088 -4.33965027 7.46234818
v 12.49104088 -4.33965027 7.560583
v 12.05016506 -4.53594084 7.66718305
v 12.05016506 -4.53594084 7.90480392
v 14.66653037 -4.87547238 7.560583
v 14.66653037 -3.44251461 7.46234818
v 14.66653037 -3.37105995 7.46234818
v 14.66653037 -3.37105995 7.560583
v 14.66653037 -3.37105995 7.99111118
v 15.35404494 -1.6554939 7.28744939
v 15.47722348 -1.93215741 7.46234818
v 14.90609745 -0.64938735 7.46234818
v 14.66653037 -0.07043055 7.46234818
v 0.45069444 -6.36251748 11.01483401
v 0.45069444 -6.36251748 14.4
v 0.45069444 -0.0207796 11.01483401
v 0.45069444 -0.0207796 14.4
v 4.4985776 -0.85896306 14.4
v 12.05016506 -6.36251748 10.88744939
v 12.05016506 -6.36251748 11.01483401
v 13.77199105 -6.36251748 10.88744939
v 14.57367323 -6.36251748 10.88744939
v 14.66653037 -6.36251748 10.88744939
v 12.05016506 -4.87547238 10.87666397
v 14.57367323 -4.87547238 10.88744939
v 14.66653037 -4.87547238 10.87666397
v 14.57367323 -4.40347297 10.87666397
v 14.57367323 -4.40347297 10.88744939
v 14.66653037 -4.40347297 10.87666397
v 14.66653037 -4.40347297 10.88744939
v 14.57367323 -6.36251748 14.4
v 15.58480317 -10.46781812 7.560583
v 15.58480317 -9.39469006 7.42241296
v 15.58480317 -9.39469006 7.560583
v 17.39708497 -9.39469006 7.42241296
v 17.39708497 -7.90764495 7.46234818
v 17.39708497 -7.90764495 7.560583
v 17.39708497 -7.13508122 7.560583
v 30.94762582 -7.90764495 7.46234818
v 30.94762582 -7.90764495 7.560583
v 29.53333009 -7.13508122 7.46234818
v 30.95631224 -7.13508122 7.46234818
v 30.94762582 -7.13508122 7.46234818
v 30.94762582 -7.13033623 7.46234818
v 30.94762582 -7.13508122 7.560583
v 17.39708497 -9.39469006 10.88744939
v 17.39708497 -8.32156199 10.87666397
v 17.39708497 -8.32156199 10.88744939
v 19.20936677 -8.32156199 10.87666397
v 19.20936677 -8.32156199 10.88744939
v 17.39708497 -7.13508122 10.87666397
v 19.20936677 -7.13508122 10.87666397
v 19.20936677 -7.13508122 10.88744939
v 30.95631224 -7.13508122 11.01483401
v 15.58480317 -5.34747178 7.42241296
v 15.80858929 -4.87547238 7.46234818
v 17.39708497 -4.87547238 7.42241296
v 17.39708497 -4.87547238 7.46234818
v 15.87776319 -2.83178435 7.28744939
v 16.61931602 -3.16552478 7.46234818
v 18.78878615 -1.26583844 7.46234818
v 19.042729 -1.40455556 7.46234818
v 17.47188933 -0.40126648 7.46234818
v 18.51160085 -0.61655654 7.46234818
v 19.09051348 -0.53828448 7.46234818
v 16.84201986 -6.36251748 11.01483401
v 16.84201986 -6.36251748 14.4
v 16.84201986 -0.0207796 11.01483401
v 16.84201986 -0.0207796 14.4
v 20.88990303 -0.85896306 14.4
v 30.95631224 -6.36251748 10.87666397
v 30.96499865 -6.36251748 10.87666397
v 30.95631224 -6.36251748 11.01483401
v 30.96499865 -6.36251748 14.4
v 13.15442829 3.284926 3.86680988
v 13.15442829 3.284926 4.1642568
v 13.15442829 8.92100778 0
v 10.64508301 8.92100778 3.86680988
v 10.64508301 8.92100778 4.1642568
v 13.15442829 8.92100778 4.1642568
v 8.76305583 13.14811003 3.86680988
v 9.20561788 0.39945379 7.46234818
v 9.45063864 2.18434827 7.46234818
v 12.49104088 0.38004177 7.46234818
v 12.49104088 0.38004177 7.560583
v 12.05016506 0.78405166 7.46234818
v 12.11546857 0.79288104 7.46234818
v 12.05016506 1.27587626 7.46234818
v 14.60727974 0.02176822 7.28744939
v 14.66653037 0.17963109 7.560583
v 11.98426735 1.76326618 7.46234818
v 12.05016506 1.76326618 7.46234818
v 8.87906862 6.4117713 7.46234818
v 8.87906862 6.4117713 7.560583
v 14.07454944 4.55801648 7.560583
v 11.82031696 5.34082287 7.46234818
v 11.82031696 5.34082287 7.560583
v 12.05016506 0.78405166 10.87666397
v 12.11546857 0.79288104 10.87666397
v 12.05016506 1.27587626 10.87666397
v 14.66653037 0.17963109 11.01483401
v 14.57367323 0.50324331 10.87666397
v 14.62189477 0.50976312 10.87666397
v 14.63029033 0.51089824 11.01483401
v 14.62189477 0.50976312 11.01483401
v 14.51654098 1.35220655 11.01483401
v 14.57367323 0.92964733 11.01483401
v 14.57367323 1.35220655 11.01483401
v 11.98426735 1.76326618 10.87666397
v 12.05016506 1.76326618 10.87666397
v 14.57367323 0.50324331 14.4
v 14.63029033 0.51089824 14.4
v 14.57367323 0.52347688 14.4
v 14.51654098 1.35220655 14.4
v 14.57367323 0.92964733 14.4
v 14.57367323 1.35220655 14.4
v 11.50085741 5.33864324 10.87666397
v 11.50085741 5.33864324 11.01483401
v 14.082945 4.5591516 10.87666397
v 14.07454944 4.55801648 10.87666397
v 14.082945 4.5591516 11.01483401
v 13.93309121 5.66749415 10.87666397
v 13.93309121 5.66749415 14.4
v 8.68951363 7.81375028 7.46234818
v 8.68951363 7.81375028 7.560583
v 11.31130242 6.74062221 7.46234818
v 8.76305583 13.14811003 7.28744939
v 11.31130242 6.74062221 11.01483401
v 18.93661694 3.7499543 7.46234818
v 23.64657498 2.69703014 7.46234818
v 24.23570558 2.58249179 7.46234818
v 26.28273989 2.52904897 7.46234818
v 30.95631224 0.78405166 7.46234818
v 30.94762582 0.78287721 7.46234818
v 31.02161575 0.79288104 7.46234818
v 30.23257821 0.96818178 7.46234818
v 31.02161575 1.07486384 7.46234818
v 30.98417462 1.0698016 7.46234818
v 30.98230948 1.08359653 7.46234818
v 31.02161575 1.07486384 7.560583
v 30.98417462 1.0698016 7.560583
v 30.95631224 1.27587626 7.560583
v 30.95631224 1.55785906 7.46234818
v 30.908471 1.62971765 7.46234818
v 30.95631224 1.55785906 7.560583
v 30.95631224 1.76326618 7.46234818
v 30.9285401 1.76326618 7.46234818
v 30.94762582 1.76326618 7.46234818
v 30.89041453 1.76326618 7.560583
v 30.94762582 1.76326618 7.560583
v 30.87296266 2.17432582 7.46234818
v 30.94762582 2.17432582 7.46234818
v 30.87296266 2.17432582 7.560583
v 30.94762582 2.17432582 7.560583
v 16.32878192 3.77521009 11.01483401
v 16.32878192 3.77521009 14.4
v 30.96499865 0.50324331 10.87666397
v 31.02161575 0.51089824 10.87666397
v 30.95631224 0.78405166 10.87666397
v 30.98417462 0.7878188 10.87666397
v 31.02161575 0.79288104 11.01483401
v 30.98417462 0.7878188 11.01483401
v 30.96499865 0.92964733 11.01483401
v 30.96499865 1.21163013 10.87666397
v 30.96499865 1.21163013 11.01483401
v 30.95631224 1.27587626 10.87666397
v 30.95631224 1.35220655 10.87666397
v 30.96499865 1.35220655 10.87666397
v 30.90786641 1.35220655 11.01483401
v 30.95631224 1.35220655 11.01483401
v 30.89041453 1.76326618 11.01483401
v 30.95631224 1.76326618 11.01483401
v 30.96499865 0.50324331 14.4
v 31.02161575 0.51089824 14.4
v 30.96499865 0.52347688 14.4
v 30.96499865 0.92964733 14.4
v 30.90786641 1.35220655 14.4
v 30.96499865 1.35220655 14.4
v 30.32441663 5.66749415 11.01483401
v 30.32441663 5.66749415 14.4
v 30.21744959 6.74062221 7.560583
v 30.11048256 7.81375028 7.46234818
v 30.11048256 7.81375028 7.560583
v 30.21744959 6.74062221 11.01483401
f 1 3 11
f 1 178 3
f 3 178 4
f 3 4 6
f 1 11 109
f 1 108 178
f 12 13 107
f 11 12 109
f 1 109 108
f 12 107 109
f 108 109 110
f 108 110 312
f 107 111 109
f 109 111 110
f 4 178 8
f 8 178 180
f 178 184 180
f 8 180 9
f 9 180 181
f 9 181 182
f 178 311 184
f 184 311 189
f 184 189 187
f 187 189 190
f 185 188 190
f 187 190 188
f 108 311 178
f 189 311 309
f 309 314 310
f 108 314 311
f 108 312 314
f 309 311 314
f 312 313 314
f 310 314 313
f 4 7 5
f 4 5 6
f 5 47 28
f 5 7 47
f 7 9 47
f 4 8 7
f 7 8 9
f 9 51 47
f 48 51 183
f 48 183 52
f 13 75 82
f 13 82 127
f 75 81 82
f 13 127 107
f 107 127 361
f 107 361 111
f 9 182 183
f 9 183 51
f 52 183 198
f 185 190 186
f 186 190 193
f 189 193 190
f 186 229 224
f 186 232 229
f 186 193 232
f 193 293 232
f 189 309 193
f 193 310 244
f 193 244 293
f 229 232 230
f 232 235 236
f 232 236 237
f 237 243 238
f 232 293 235
f 236 243 237
f 235 293 241
f 236 242 243
f 245 323 246
f 193 309 310
f 244 313 245
f 245 313 323
f 244 310 313
f 110 111 315
f 110 315 312
f 111 361 315
f 313 315 323
f 315 361 323
f 312 315 313
f 48 52 51
f 74 82 75
f 75 82 81
f 223 224 229
f 229 230 232
f 223 229 293
f 232 236 235
f 232 237 236
f 237 238 242
f 229 232 293
f 232 235 293
f 236 237 242
f 235 241 293
f 238 243 242
f 244 245 246
f 244 246 323
f 39 38 42
f 39 42 41
f 33 41 42
f 40 39 41
f 33 42 43
f 43 38 39
f 33 43 39
f 39 40 41
f 33 39 41
f 43 42 38
f 47 51 49
f 28 47 49
f 49 51 52
f 49 52 198
f 49 217 83
f 74 83 82
f 82 83 127
f 83 217 127
f 49 198 217
f 127 217 223
f 127 223 293
f 127 293 244
f 127 244 323
f 127 323 361
f 14 29 15
f 14 17 29
f 15 29 30
f 14 15 113
f 14 19 20
f 14 113 112
f 14 112 19
f 14 20 17
f 19 21 20
f 19 22 21
f 21 22 118
f 21 118 73
f 17 31 29
f 73 118 81
f 81 118 126
f 80 93 88
f 80 90 89
f 80 89 93
f 89 90 91
f 94 95 97
f 95 96 97
f 56 197 57
f 56 88 196
f 56 196 197
f 88 195 196
f 195 199 196
f 88 93 195
f 94 220 219
f 94 97 220
f 97 316 220
f 220 226 222
f 220 228 226
f 226 228 227
f 233 234 236
f 233 236 235
f 233 235 240
f 233 240 290
f 235 241 240
f 235 236 319
f 235 318 241
f 235 319 318
f 241 318 247
f 270 274 271
f 270 292 273
f 270 273 274
f 273 292 275
f 273 279 274
f 273 275 277
f 273 277 279
f 240 294 290
f 290 296 292
f 275 292 296
f 295 299 296
f 295 298 299
f 296 299 368
f 278 296 368
f 381 386 382
f 382 388 384
f 381 385 386
f 382 386 388
f 385 387 388
f 385 388 386
f 23 24 26
f 23 26 25
f 23 100 24
f 24 100 101
f 24 101 102
f 24 106 98
f 24 98 26
f 99 101 100
f 102 105 106
f 105 154 106
f 24 102 106
f 98 106 159
f 106 154 159
f 156 158 162
f 157 164 158
f 98 159 161
f 158 164 162
f 157 163 164
f 162 164 163
f 248 254 249
f 248 249 251
f 249 265 252
f 248 251 250
f 249 252 251
f 253 265 254
f 253 255 265
f 255 256 265
f 256 259 265
f 259 262 265
f 249 254 265
f 262 345 265
f 261 336 262
f 262 336 345
f 252 265 345
f 341 342 349
f 340 350 342
f 252 345 347
f 340 348 350
f 342 350 349
f 348 349 350
f 300 307 301
f 300 301 303
f 301 308 304
f 300 303 302
f 301 304 303
f 305 306 307
f 306 308 307
f 306 391 308
f 301 307 308
f 308 391 407
f 304 308 407
f 398 402 399
f 401 404 402
f 397 399 410
f 399 402 410
f 402 404 412
f 403 412 404
f 402 412 410
f 403 411 412
f 304 407 409
f 410 412 411
f 16 60 18
f 16 18 117
f 17 21 72
f 17 20 21
f 21 73 72
f 18 123 117
f 16 36 37
f 16 37 60
f 37 40 60
f 46 60 40
f 18 60 61
f 18 61 62
f 61 99 62
f 62 99 100
f 17 72 31
f 72 73 75
f 73 81 75
f 75 79 77
f 75 126 79
f 75 81 126
f 79 133 80
f 79 126 129
f 79 129 133
f 80 133 90
f 85 134 148
f 85 148 103
f 136 139 153
f 138 152 139
f 136 153 150
f 139 152 153
f 58 204 71
f 64 65 66
f 64 66 102
f 64 102 101
f 65 205 66
f 86 104 137
f 89 95 93
f 89 91 96
f 89 96 95
f 91 92 96
f 104 151 137
f 58 201 207
f 58 207 204
f 66 205 207
f 204 207 205
f 66 207 210
f 66 210 211
f 210 253 211
f 211 253 254
f 93 95 195
f 94 195 95
f 94 219 195
f 195 218 199
f 195 219 218
f 218 219 222
f 219 220 222
f 227 228 230
f 228 232 230
f 230 232 231
f 231 232 237
f 231 237 258
f 220 316 228
f 228 320 232
f 228 316 320
f 232 320 237
f 237 320 332
f 237 332 258
f 322 325 326
f 322 326 344
f 325 343 326
f 322 344 334
f 326 343 344
f 240 241 294
f 239 260 242
f 241 247 294
f 242 260 324
f 260 263 324
f 263 335 324
f 215 216 335
f 215 335 257
f 257 335 264
f 263 264 335
f 272 286 285
f 272 288 286
f 272 279 288
f 275 278 277
f 276 277 278
f 276 279 277
f 276 288 279
f 215 288 216
f 215 287 288
f 286 288 287
f 288 305 307
f 290 294 296
f 294 295 296
f 294 298 295
f 247 297 294
f 294 297 298
f 275 296 278
f 276 278 367
f 276 367 288
f 288 367 305
f 278 368 367
f 305 367 393
f 377 380 379
f 376 379 401
f 379 380 401
f 377 378 380
f 378 382 380
f 378 381 382
f 380 382 406
f 382 384 406
f 383 405 384
f 376 401 400
f 380 406 401
f 384 405 406
f 401 406 404
f 112 113 115
f 19 112 114
f 19 114 120
f 112 115 114
f 114 121 120
f 114 115 175
f 19 120 22
f 114 174 121
f 119 121 174
f 114 175 174
f 119 131 128
f 119 174 131
f 131 174 175
f 131 175 132
f 90 92 91
f 129 130 140
f 129 140 133
f 90 133 140
f 90 140 92
f 92 140 141
f 92 141 96
f 140 145 141
f 141 145 143
f 143 145 146
f 146 147 358
f 142 143 358
f 143 146 358
f 142 327 317
f 142 358 327
f 147 359 358
f 327 359 328
f 327 358 359
f 247 330 297
f 318 319 331
f 247 318 330
f 318 331 330
f 297 363 299
f 297 330 363
f 299 363 364
f 330 366 363
f 330 331 417
f 330 385 366
f 299 364 370
f 371 372 373
f 371 374 372
f 372 374 375
f 371 373 377
f 371 379 374
f 371 377 379
f 365 377 373
f 365 378 377
f 366 381 378
f 366 385 381
f 330 416 385
f 385 416 387
f 387 416 417
f 330 417 416
f 25 125 124
f 25 26 125
f 26 98 125
f 98 161 125
f 124 173 167
f 124 125 173
f 154 155 159
f 155 156 160
f 157 169 163
f 125 161 162
f 125 162 163
f 155 160 159
f 156 162 160
f 159 160 161
f 160 162 161
f 166 167 171
f 167 173 171
f 163 169 171
f 168 171 169
f 125 163 173
f 163 171 173
f 170 250 172
f 172 250 251
f 172 251 252
f 172 252 347
f 170 172 357
f 336 337 339
f 336 339 345
f 338 345 339
f 338 341 346
f 340 355 348
f 172 349 348
f 172 347 349
f 338 346 345
f 341 349 346
f 345 346 347
f 346 349 347
f 170 357 352
f 353 356 355
f 348 355 356
f 351 352 356
f 352 357 356
f 172 348 357
f 348 356 357
f 302 390 389
f 302 303 390
f 303 304 390
f 304 409 390
f 389 390 414
f 392 394 396
f 391 392 407
f 392 396 408
f 396 397 408
f 403 413 411
f 390 409 410
f 390 410 411
f 392 408 407
f 397 410 408
f 407 408 409
f 408 410 409
f 389 414 413
f 390 411 414
f 411 413 414
f 116 117 123
f 116 123 122
f 22 120 118
f 120 121 126
f 118 120 126
f 119 129 121
f 116 122 132
f 121 129 126
f 119 128 129
f 128 130 129
f 130 145 140
f 128 131 130
f 130 131 145
f 131 132 176
f 131 146 145
f 131 176 146
f 132 177 176
f 122 177 132
f 134 135 149
f 135 136 150
f 134 149 148
f 135 150 149
f 138 166 152
f 138 147 166
f 146 176 147
f 147 176 166
f 166 176 177
f 166 177 167
f 137 151 144
f 96 141 97
f 141 143 316
f 144 151 165
f 144 165 328
f 97 141 316
f 142 321 143
f 143 320 316
f 142 317 322
f 143 321 320
f 142 322 321
f 165 168 328
f 168 362 328
f 317 325 322
f 320 321 333
f 321 322 334
f 320 333 332
f 321 334 333
f 325 351 343
f 317 360 325
f 325 360 351
f 327 328 360
f 317 327 360
f 351 360 362
f 168 169 362
f 351 362 352
f 328 362 360
f 297 299 298
f 324 337 329
f 324 335 337
f 329 337 354
f 329 354 353
f 335 339 337
f 363 365 364
f 363 366 365
f 329 353 415
f 299 370 367
f 299 367 368
f 364 365 370
f 365 366 378
f 365 373 370
f 367 370 369
f 369 370 372
f 370 373 372
f 367 369 394
f 369 372 395
f 372 375 395
f 375 376 400
f 367 394 393
f 369 395 394
f 375 398 395
f 375 400 398
f 383 415 418
f 353 418 415
f 383 418 405
f 353 355 418
f 394 395 396
f 395 398 399
f 2 3 5
f 2 5 27
f 3 6 5
f 5 28 27
f 2 11 3
f 2 10 11
f 2 29 10
f 2 27 29
f 10 29 31
f 10 12 11
f 10 72 12
f 12 72 13
f 10 31 72
f 13 72 75
f 27 28 50
f 27 30 29
f 28 49 50
f 49 53 50
f 50 53 54
f 49 84 53
f 49 83 84
f 74 75 77
f 74 77 76
f 74 76 83
f 76 84 83
f 63 70 65
f 68 203 69
f 65 70 69
f 65 69 203
f 68 202 203
f 65 203 205
f 202 205 203
f 202 204 205
f 32 54 59
f 32 59 44
f 44 59 45
f 45 60 46
f 45 59 60
f 53 55 54
f 54 55 59
f 55 56 57
f 55 57 67
f 55 88 56
f 57 58 71
f 55 67 59
f 57 68 67
f 57 71 68
f 59 61 60
f 59 67 70
f 59 64 61
f 59 63 64
f 61 101 99
f 59 70 63
f 61 64 101
f 63 65 64
f 67 69 70
f 67 68 69
f 76 77 79
f 76 79 78
f 78 79 80
f 78 80 88
f 78 88 87
f 85 103 86
f 55 87 88
f 86 103 104
f 179 181 180
f 179 196 181
f 181 183 182
f 179 194 196
f 181 196 198
f 181 198 183
f 179 180 184
f 179 191 194
f 179 184 191
f 191 266 194
f 184 192 191
f 184 187 192
f 185 186 188
f 187 188 192
f 188 289 192
f 186 289 188
f 186 224 289
f 191 267 266
f 191 192 267
f 192 289 267
f 194 197 196
f 196 199 198
f 198 199 217
f 199 218 217
f 217 218 222
f 217 222 221
f 217 221 223
f 221 224 223
f 266 267 268
f 208 209 212
f 209 255 212
f 209 213 255
f 209 214 215
f 209 215 213
f 213 215 257
f 257 264 259
f 259 264 262
f 262 264 263
f 261 262 263
f 281 284 282
f 281 283 284
f 214 282 215
f 215 282 284
f 215 284 287
f 283 287 284
f 283 286 287
f 200 206 201
f 200 268 206
f 206 268 269
f 201 206 207
f 206 269 280
f 206 208 210
f 206 210 207
f 206 280 208
f 208 280 209
f 208 212 210
f 210 212 255
f 210 255 253
f 209 280 214
f 221 222 226
f 221 226 225
f 225 226 227
f 225 227 230
f 225 230 229
f 229 230 231
f 229 231 233
f 231 234 233
f 229 233 290
f 229 290 292
f 229 292 291
f 231 258 234
f 234 258 239
f 239 258 260
f 213 256 255
f 213 257 256
f 256 257 259
f 267 269 268
f 269 270 271
f 269 271 280
f 269 292 270
f 271 272 285
f 271 281 280
f 271 285 281
f 280 281 282
f 214 280 282
f 269 291 292
f 15 30 16
f 16 30 36
f 15 16 117
f 15 117 113
f 27 50 54
f 27 34 30
f 30 34 36
f 27 32 34
f 27 54 32
f 32 38 34
f 32 44 38
f 85 86 137
f 85 135 134
f 85 137 135
f 113 117 116
f 113 116 115
f 115 116 175
f 116 132 175
f 135 144 136
f 138 139 147
f 136 144 139
f 135 137 144
f 139 144 147
f 144 328 147
f 57 197 58
f 194 201 197
f 58 197 201
f 194 266 200
f 194 200 201
f 200 266 268
f 234 239 236
f 236 239 242
f 236 242 319
f 242 324 319
f 271 274 272
f 272 274 279
f 319 324 329
f 319 329 331
f 147 328 359
f 329 415 331
f 374 379 375
f 375 379 376
f 383 384 387
f 384 388 387
f 383 387 415
f 387 417 415
f 331 415 417
f 53 87 55
f 76 78 84
f 53 84 87
f 78 87 84
f 221 225 224
f 224 225 229
f 224 229 289
f 229 291 289
f 267 291 269
f 267 289 291
f 18 23 123
f 23 25 123
f 18 62 23
f 23 62 100
f 66 105 102
f 66 248 105
f 105 248 154
f 154 248 155
f 155 248 250
f 25 122 123
f 25 124 122
f 122 124 177
f 124 167 177
f 155 250 156
f 156 250 158
f 157 158 169
f 158 250 170
f 158 170 169
f 66 254 248
f 66 211 254
f 216 300 335
f 216 288 300
f 288 307 300
f 300 302 335
f 169 170 362
f 170 352 362
f 335 338 339
f 302 338 335
f 302 341 338
f 302 342 341
f 340 342 355
f 342 389 355
f 302 389 342
f 355 389 418
f 395 397 396
f 395 399 397
f 403 404 406
f 403 406 405
f 403 405 413
f 389 413 418
f 405 418 413
f 68 71 204
f 103 148 104
f 104 148 151
f 148 149 151
f 149 150 151
f 150 153 151
f 151 153 166
f 152 166 153
f 151 166 165
f 165 166 171
f 165 171 168
f 68 204 202
f 258 261 260
f 260 261 263
f 258 332 261
f 261 332 336
f 281 285 286
f 281 286 283
f 305 393 306
f 306 393 391
f 332 333 336
f 333 334 336
f 334 344 337
f 334 337 336
f 343 351 344
f 337 344 351
f 337 351 354
f 353 354 356
f 351 356 354
f 391 394 392
f 391 393 394
f 398 400 401
f 398 401 402
f 34 35 36
f 35 37 36
f 35 40 37
f 34 38 39
f 34 39 35
f 35 39 40
f 45 39 38
f 46 40 39
f 44 45 38
f 45 46 39
