# MAAS exact compiled indexed mesh
# program_hash e9d66601d1fd1e413222d7ed9be03fbb663125c137c52dd9c5dd95bb7a361588
# geometry_hash cbdcdca660558c547003bfd26f912bfe1e67ada7cc599e8eb1480d0e91b22fd8
v -9.35375941 -9.35375941 0
v -6.92178196 -9.35375941 6.27
v -2.43197745 -9.35375941 6.27
v -2.24490226 -9.35375941 6.27
v -6.92178196 -9.35375941 10.23
v -9.35375941 -9.35375941 16.5
v -2.43197745 -9.35375941 10.23
v -2.24490226 -9.35375941 10.23
v -9.35375941 9.35375941 0
v -6.92178196 9.35375941 6.27
v -2.43197745 9.35375941 6.27
v -2.24490226 9.35375941 6.27
v -6.92178196 9.35375941 10.23
v -9.35375941 9.35375941 16.5
v -2.43197745 9.35375941 10.23
v -2.24490226 9.35375941 10.23
v 2.24490226 -9.35375941 6.27
v 2.43197745 -9.35375941 6.27
v 9.35375941 -9.35375941 0
v 6.92178196 -9.35375941 6.27
v 2.24490226 -9.35375941 10.23
v 2.43197745 -9.35375941 10.23
v 6.92178196 -9.35375941 10.23
v 9.35375941 -9.35375941 16.5
v 2.24490226 9.35375941 6.27
v 2.43197745 9.35375941 6.27
v 9.35375941 9.35375941 0
v 6.92178196 9.35375941 6.27
v 2.24490226 9.35375941 10.23
v 2.43197745 9.35375941 10.23
v 6.92178196 9.35375941 10.23
v 9.35375941 9.35375941 16.5
f 1 2 6
f 1 3 2
f 1 19 3
f 4 8 3
f 1 9 19
f 6 2 5
f 6 5 7
f 1 6 14
f 8 7 3
f 6 7 8
f 6 8 24
f 6 24 14
f 1 14 9
f 9 13 10
f 9 10 11
f 9 11 12
f 9 12 25
f 12 11 15
f 9 14 13
f 14 15 13
f 14 16 15
f 14 29 16
f 16 12 15
f 19 4 3
f 19 17 4
f 17 18 22
f 19 18 17
f 19 20 18
f 19 24 20
f 19 27 24
f 22 21 17
f 24 8 21
f 24 21 22
f 24 22 23
f 24 23 20
f 9 27 19
f 9 25 27
f 25 29 26
f 27 25 26
f 27 26 28
f 27 28 31
f 14 24 32
f 29 30 26
f 14 32 29
f 24 27 32
f 32 30 29
f 32 31 30
f 27 31 32
f 2 10 5
f 3 11 2
f 5 13 7
f 7 15 3
f 2 11 10
f 3 15 11
f 5 10 13
f 7 13 15
f 12 8 4
f 8 16 21
f 25 12 4
f 8 12 16
f 4 17 25
f 29 17 21
f 17 29 25
f 16 29 21
f 18 26 22
f 20 28 18
f 22 30 23
f 20 23 31
f 18 28 26
f 20 31 28
f 22 26 30
f 23 30 31
