# MAAS exact compiled indexed mesh
# program_hash 229978f0960711b5ff7edaaeb326f6824440dd999af3d18f59979c3d0e297258
# geometry_hash 4ca37f33270387806c3926c5b16facb82d5f4d5f1a87b85d1eda51eb0d1bc38e
v -15.66540203 -4.53534762 0
v -6.04354484 -7.94597816 0
v -6.04354484 -4.53534762 0
v -0.17796824 -7.94597816 0
v -0.17796824 -4.53534762 0
v -15.66540203 -4.53534762 8.25
v -15.66540203 -4.53534762 16.5
v -6.04354484 -7.94597816 8.25
v -6.04354484 -4.53534762 8.25
v -0.17796824 -7.94597816 8.25
v -0.17796824 -6.11903886 9.245775
v -0.17796824 -4.53534762 8.25
v -0.17796824 -4.53534762 9.245775
v -6.04354484 -7.94597816 16.5
v -6.04354484 -4.53534762 16.5
v -4.78471212 -4.53534762 16.5
v -0.17796824 -7.94597816 16.5
v -0.17796824 -6.11903886 15.504225
v -0.17796824 -4.53534762 15.504225
v -0.17796824 -4.53534762 16.5
v -15.66540203 1.33022898 0
v -6.04354484 1.33022898 0
v -0.17796824 1.33022898 0
v -6.04354484 7.94597816 0
v -0.17796824 7.94597816 0
v -15.66540203 1.33022898 8.25
v -15.66540203 1.33022898 16.5
v -6.04354484 1.33022898 8.25
v -0.17796824 1.33022898 8.25
v -0.17796824 1.33022898 9.245775
v -0.17796824 3.3525671 9.245775
v -6.04354484 1.33022898 16.5
v -2.61978112 1.33022898 16.5
v -0.17796824 1.33022898 15.504225
v -0.17796824 1.33022898 16.5
v -0.17796824 3.3525671 15.504225
v -6.04354484 7.94597816 8.25
v -0.17796824 7.94597816 8.25
v -6.04354484 7.94597816 16.5
v -0.17796824 7.94597816 16.5
v 0.22655428 -4.53534762 0
v 2.12036693 -7.37132502 8.54832
v 2.12036693 -6.11903886 9.245775
v 0.22655428 -4.53534762 8.25
v 0.22655428 -4.53534762 9.245775
v 2.12036693 -7.37132502 16.20168
v 2.12036693 -6.11903886 15.504225
v 0.22655428 -4.53534762 15.504225
v 0.22655428 -4.53534762 16.5
v 15.66539914 -7.37132502 8.54832
v 15.66539914 -7.37132502 16.20168
v 0.22655428 1.33022898 0
v 0.22655428 1.33022898 8.25
v 0.22655428 1.33022898 9.245775
v 2.12036693 3.3525671 9.245775
v 0.22655428 1.33022898 15.504225
v 0.22655428 1.33022898 16.5
v 2.12036693 3.3525671 15.504225
v 2.12036693 7.37132502 8.54832
v 2.12036693 7.37132502 16.20168
v 15.66539914 7.37132502 8.54832
v 15.66539914 7.37132502 16.20168
f 1 3 6
f 6 3 9
f 1 21 3
f 1 26 21
f 21 22 3
f 1 6 26
f 5 41 12
f 5 23 41
f 21 28 22
f 21 26 28
f 23 29 53
f 41 44 12
f 41 52 44
f 41 23 52
f 44 52 53
f 23 53 52
f 2 4 8
f 2 9 3
f 2 5 4
f 4 5 10
f 2 8 9
f 4 10 8
f 5 12 10
f 2 3 25
f 2 23 5
f 3 22 25
f 2 25 23
f 23 25 29
f 22 28 37
f 22 24 25
f 22 37 24
f 24 38 25
f 24 37 38
f 25 38 29
f 7 6 9
f 7 9 15
f 27 26 6
f 7 27 6
f 7 15 27
f 15 16 27
f 13 12 44
f 19 48 20
f 16 20 27
f 20 49 27
f 27 49 32
f 32 49 33
f 33 49 35
f 26 32 28
f 26 27 32
f 30 54 29
f 34 35 57
f 13 44 45
f 20 48 49
f 45 44 53
f 45 53 54
f 48 56 49
f 49 56 57
f 35 49 57
f 54 53 29
f 34 57 56
f 8 10 14
f 8 15 9
f 10 12 11
f 10 11 18
f 11 12 13
f 8 14 15
f 14 16 15
f 10 17 14
f 10 18 17
f 14 17 16
f 17 18 20
f 16 17 20
f 18 19 20
f 30 29 31
f 32 39 28
f 32 33 39
f 34 36 35
f 33 35 40
f 37 28 39
f 31 29 38
f 37 40 38
f 31 38 40
f 37 39 40
f 31 40 36
f 33 40 39
f 35 36 40
f 42 46 43
f 42 50 46
f 43 46 47
f 42 43 59
f 42 59 50
f 46 60 47
f 46 51 60
f 50 51 46
f 50 61 51
f 43 55 59
f 47 60 58
f 55 58 59
f 59 58 60
f 59 60 62
f 50 59 61
f 51 62 60
f 51 61 62
f 59 62 61
f 18 48 19
f 30 31 54
f 11 43 18
f 11 13 43
f 13 45 43
f 18 43 47
f 18 47 48
f 43 45 55
f 47 56 48
f 47 58 56
f 45 54 55
f 31 55 54
f 31 58 55
f 31 36 58
f 34 56 58
f 34 58 36
