# MAAS exact compiled indexed mesh
# program_hash cd051010cd73c91bca3c77a119358255801b1464aa175cd4be31ca6171055198
# geometry_hash d62beac2ff1897088d83eb3947ad007302a2cc65230a951528893b7f9a90a538
v -15.11764156 -17.66629113 0
v -15.11764156 -17.66629113 3.64736842
v -3.34011414 -17.66629113 0
v -0.39573228 -8.83314557 0
v -3.34011414 -17.66629113 3.64736842
v -0.39573228 -8.83314557 3.64736842
v -16.95788022 2.20828639 3.38684211
v -15.11764156 2.20828639 3.38684211
v -15.11764156 2.20828639 3.64736842
v -15.11764156 17.66629113 0
v -16.95788022 13.98581381 3.38684211
v -15.11764156 13.98581381 3.38684211
v -15.11764156 13.98581381 3.64736842
v -15.11764156 17.66629113 3.64736842
v -3.34011414 2.20828639 3.38684211
v -3.34011414 2.20828639 3.64736842
v -0.39573228 2.20828639 3.38684211
v -0.39573228 2.20828639 3.64736842
v -3.34011414 17.66629113 0
v -0.39573228 17.66629113 0
v -3.34011414 13.98581381 3.38684211
v -3.34011414 13.98581381 3.64736842
v -3.34011414 17.66629113 3.64736842
v -0.39573228 13.98581381 3.38684211
v -0.39573228 13.98581381 3.64736842
v -0.39573228 17.66629113 3.64736842
v -16.95788022 2.20828639 7.03421053
v -12.90935517 0 6.77368421
v -12.90935517 2.20828639 6.77368421
v -12.90935517 2.20828639 7.03421053
v -12.90935517 0 9.9
v -16.95788022 13.98581381 7.03421053
v -12.90935517 13.98581381 6.77368421
v -12.90935517 13.98581381 7.03421053
v -12.90935517 16.19410021 6.77368421
v -12.90935517 16.19410021 9.9
v -0.39573228 2.20828639 4.95
v -1.13182775 0 6.77368421
v -1.13182775 2.20828639 6.77368421
v -1.13182775 2.20828639 7.03421053
v -0.39573228 2.20828639 7.03421053
v -1.13182775 0 9.9
v -0.39573228 13.98581381 4.95
v -1.13182775 13.98581381 6.77368421
v -1.13182775 13.98581381 7.03421053
v -0.39573228 13.98581381 7.03421053
v -1.13182775 16.19410021 6.77368421
v -1.13182775 16.19410021 9.9
v 12.85398607 -8.83314557 0
v 12.85398607 -8.83314557 3.64736842
v 12.85398607 2.20828639 3.38684211
v 12.85398607 2.20828639 3.64736842
v 16.16641566 2.20828639 3.38684211
v 12.85398607 17.66629113 0
v 12.85398607 13.98581381 3.38684211
v 12.85398607 13.98581381 3.64736842
v 12.85398607 17.66629113 3.64736842
v 16.16641566 13.98581381 3.38684211
v 9.39249715 2.20828639 4.95
v 9.39249715 3.99101856 5.03336842
v 9.39249715 2.20828639 7.03421053
v 9.39249715 3.99101856 6.95084211
v 9.39249715 5.80697853 6.95084211
v 14.65512682 2.28108652 5.03336842
v 16.16641566 2.20828639 4.95
v 14.65512682 2.28108652 6.95084211
v 16.03430791 6.52576946 5.03336842
v 16.24139865 7.16312922 5.03336842
v 16.9578835 6.82585736 5.03336842
v 16.54484794 8.0970501 5.03336842
v 16.03430791 6.52576946 6.95084211
v 16.9578835 6.82585736 6.95084211
v 16.54484794 8.0970501 6.95084211
v 9.39249715 10.38712168 5.03336842
v 10.4821312 9.8741968 5.03336842
v 9.39249715 12.20308165 5.03336842
v 9.39249715 12.20308165 6.95084211
v 9.39249715 13.98581381 4.95
v 9.39249715 13.98581381 7.03421053
v 16.03430791 9.66833075 5.03336842
v 16.9578835 9.36824285 5.03336842
v 16.24139865 9.03097099 6.95084211
v 16.03430791 9.66833075 6.95084211
v 16.9578835 9.36824285 6.95084211
v 14.65512682 13.91301368 5.03336842
v 16.16641566 13.98581381 4.95
v 14.65512682 13.91301368 6.95084211
f 1 2 8
f 1 3 2
f 2 5 9
f 1 8 12
f 1 10 3
f 2 9 8
f 2 3 5
f 3 19 5
f 5 16 9
f 5 15 16
f 1 14 10
f 1 12 14
f 10 14 23
f 12 13 14
f 13 22 14
f 3 10 19
f 5 19 15
f 10 23 19
f 15 19 21
f 19 23 21
f 14 22 23
f 21 23 22
f 4 6 17
f 6 18 17
f 4 17 24
f 4 24 26
f 4 26 20
f 24 25 26
f 4 49 6
f 6 49 50
f 6 50 18
f 50 52 18
f 50 51 52
f 4 20 49
f 20 26 57
f 49 20 54
f 20 57 54
f 25 56 26
f 26 56 57
f 49 54 50
f 50 54 51
f 51 54 55
f 54 57 55
f 55 57 56
f 7 8 9
f 7 9 27
f 7 12 8
f 9 16 27
f 7 11 12
f 7 32 11
f 11 13 12
f 11 32 13
f 13 32 22
f 16 18 27
f 15 17 16
f 16 17 18
f 15 24 17
f 15 21 24
f 21 22 25
f 21 25 24
f 27 29 30
f 7 27 32
f 27 30 34
f 27 37 29
f 27 34 32
f 32 34 33
f 22 32 33
f 27 18 37
f 29 37 39
f 39 37 41
f 39 41 40
f 40 41 46
f 22 33 44
f 40 46 45
f 22 44 43
f 44 45 43
f 45 46 43
f 18 52 37
f 53 59 37
f 22 43 78
f 22 86 25
f 22 78 86
f 52 53 37
f 51 53 52
f 53 65 59
f 51 58 53
f 53 58 65
f 25 86 56
f 51 55 58
f 58 86 65
f 55 56 58
f 56 86 58
f 28 30 29
f 28 29 38
f 28 36 30
f 28 31 36
f 28 38 31
f 31 42 36
f 33 34 35
f 33 35 44
f 30 36 34
f 34 36 35
f 35 36 48
f 29 39 38
f 38 39 40
f 31 38 42
f 38 40 42
f 40 45 42
f 35 47 44
f 44 47 45
f 36 42 48
f 35 48 47
f 42 45 47
f 42 47 48
f 67 69 72
f 69 70 73
f 63 82 83
f 67 72 71
f 69 73 72
f 71 72 73
f 71 73 82
f 76 77 85
f 63 87 77
f 80 85 87
f 63 83 87
f 80 87 83
f 85 77 87
f 60 66 62
f 62 66 63
f 60 64 66
f 64 67 66
f 70 81 73
f 63 66 82
f 67 71 66
f 66 71 82
f 73 84 82
f 81 80 84
f 80 83 84
f 73 81 84
f 82 84 83
f 61 41 37
f 61 37 59
f 61 79 41
f 79 46 41
f 43 46 78
f 79 78 46
f 65 86 59
f 86 78 59
f 67 68 69
f 68 70 69
f 74 76 75
f 75 76 85
f 75 85 80
f 60 74 75
f 60 75 64
f 64 75 67
f 67 75 68
f 68 75 70
f 70 75 80
f 70 80 81
f 60 61 59
f 60 62 61
f 61 62 63
f 60 59 74
f 74 59 76
f 61 63 77
f 76 59 78
f 76 78 77
f 61 77 79
f 77 78 79
