# MAAS exact compiled indexed mesh
# program_hash 8086e51c69d8c75adc78c7c5ab9ecd427561b386cd7c69226ca88d886f9c7da8
# geometry_hash 0d9fdfa6d51eaf3d5f8c336b045659471e29535c29e8336bf73f5e75e242fc8d
v -18.3181179 -12.07330498 0
v -13.91444236 -9.17088246 0
v -18.3181179 -12.07330498 14.60176991
v -13.91444236 -9.17088246 14.60176991
v -18.3181179 12.07330498 0
v -13.91444236 12.07330498 0
v -18.3181179 12.07330498 14.60176991
v -13.91444236 12.07330498 14.60176991
v 13.91444236 -9.17088246 0
v 18.3181179 -12.07330498 0
v 13.91444236 -9.17088246 14.60176991
v 18.3181179 -12.07330498 14.60176991
v 13.91444236 -6.03665249 14.60176991
v 15.94753794 -6.03665249 14.60176991
v 13.91444236 -6.03665249 16.5
v 15.94753794 -6.03665249 16.5
v 13.91444236 12.07330498 0
v 18.3181179 12.07330498 0
v 13.91444236 6.03665249 14.60176991
v 15.94753794 6.03665249 14.60176991
v 13.91444236 6.03665249 16.5
v 15.94753794 6.03665249 16.5
v 13.91444236 12.07330498 14.60176991
v 18.3181179 12.07330498 14.60176991
f 1 5 2
f 1 2 9
f 1 10 3
f 1 3 7
f 3 4 8
f 3 12 4
f 5 6 2
f 1 7 5
f 5 7 6
f 3 8 7
f 7 8 6
f 1 9 10
f 10 9 17
f 10 18 12
f 3 10 12
f 12 11 4
f 12 14 11
f 14 13 11
f 12 24 14
f 10 17 18
f 18 17 24
f 12 18 24
f 14 24 20
f 24 17 23
f 20 24 19
f 24 23 19
f 14 16 13
f 16 15 13
f 14 22 16
f 16 22 15
f 14 20 22
f 22 21 15
f 20 19 21
f 20 21 22
f 9 2 4
f 2 8 4
f 8 2 6
f 17 9 11
f 9 4 11
f 17 11 13
f 17 13 15
f 19 17 15
f 21 19 15
f 23 17 19
