# MAAS exact compiled indexed mesh
# program_hash bd40018fed8709386b8b85a98e2a3f3d455f70e1410e3f393abaa45e32cbfa46
# geometry_hash 891de55e4437bf993eb90b27e0c668c015b5f4667df56a685f5b8f6517cf21e8
v -14.07705015 -13.98521087 0
v -14.07705015 -13.98521087 5.68480986
v -9.24326439 -4.60128886 7.59831993
v -2.59530821 -13.98754267 7.59664162
v -2.59530821 -13.98521087 7.59664162
v -0.96304959 -4.60128886 7.59831993
v -0.96304959 -4.33747233 7.59831993
v -0.00116713 -4.60128886 7.59831993
v -0.00116713 -4.0265406 7.59831993
v -2.59530821 -13.98521087 10.22999036
v -2.59530821 -13.98754267 15.19831816
v -2.59530821 -4.72992034 10.22999036
v -2.63688877 -4.60128886 10.21353021
v -1.7791789 -4.60128886 10.5530646
v -0.96304959 -4.60128886 10.87613883
v -0.96304959 -4.33747233 10.87613883
v -2.59530821 -4.72992034 15.19831816
v -2.29762631 -4.76887872 15.19831816
v -1.7791789 -4.60128886 15.19831816
v -14.07705015 4.78263315 0
v -14.07705015 4.78263315 5.68480986
v -9.24326439 4.78263315 7.59831993
v -3.2581942 4.78263315 7.59664162
v -3.2581942 4.78263315 7.59831993
v -3.10648946 4.78263315 7.59664162
v -3.10648946 4.78263315 7.59496314
v -3.12146672 4.82683077 7.59664162
v -4.41232394 8.63612513 7.59496314
v -5.44207347 4.07668687 9.10306537
v -3.2581942 4.78263315 9.96757926
v -5.44207347 4.07668687 15.19831816
v -2.55146447 3.14476529 15.19999664
v -2.55146447 3.14476529 15.19831816
v -3.12146672 4.82683077 15.19831816
v -4.41232394 8.63612513 15.19999664
v 14.07471589 -13.98521087 0
v 14.07704769 -13.98754267 7.59664162
v 14.07471589 -13.98521087 7.59664162
v 14.07704769 -4.60128886 7.59664162
v 14.07471589 -4.60128886 7.59831993
v 14.07471589 -4.60128886 7.59664162
v 14.07704769 -13.98754267 15.19831816
v 14.07704769 -4.60128886 15.19831816
v 2.2818515 4.78263315 7.59664162
v 2.2818515 4.78263315 7.59496314
v 14.07471589 4.78263315 0
v 13.30836037 0.2758087 7.59831993
v 11.85151428 4.78263315 7.59831993
v 11.85151428 4.78263315 7.59664162
v 14.07471589 4.78263315 7.59831993
v 10.90673582 7.70535141 7.59664162
v 13.24047458 8.49618647 7.59496314
v 11.37961511 13.9875463 7.59496314
v 13.30836037 0.2758087 15.19831816
v 10.90673582 7.70535141 15.19831816
v 13.24047458 8.49618647 15.19999664
v 11.37961511 13.9875463 15.19999664
f 1 2 21
f 1 21 20
f 1 36 2
f 1 20 36
f 2 36 5
f 2 5 10
f 20 21 22
f 20 22 23
f 20 23 26
f 20 26 45
f 22 24 23
f 23 25 26
f 20 46 36
f 36 38 5
f 36 41 38
f 36 46 41
f 46 40 41
f 20 45 46
f 44 49 45
f 46 45 49
f 46 50 40
f 46 49 50
f 50 49 48
f 30 24 22
f 2 3 21
f 2 10 3
f 3 10 12
f 3 12 13
f 3 22 21
f 3 13 22
f 16 14 15
f 29 22 13
f 29 30 22
f 6 8 7
f 8 9 7
f 8 40 9
f 9 40 47
f 50 47 40
f 50 48 47
f 17 31 13
f 17 13 12
f 16 19 14
f 17 18 31
f 18 19 31
f 27 23 24
f 27 25 23
f 27 24 30
f 27 30 34
f 29 13 31
f 29 31 30
f 30 31 34
f 19 34 31
f 19 33 34
f 54 7 9
f 16 7 54
f 19 54 33
f 16 54 19
f 54 9 47
f 51 49 44
f 51 48 49
f 55 47 48
f 51 55 48
f 33 54 55
f 54 47 55
f 6 7 15
f 16 15 7
f 4 10 5
f 4 11 10
f 11 12 10
f 11 17 12
f 11 18 17
f 6 15 8
f 19 15 14
f 4 5 37
f 37 5 38
f 37 38 39
f 39 38 41
f 4 37 11
f 11 42 18
f 18 42 19
f 8 15 40
f 19 43 15
f 37 39 42
f 11 37 42
f 19 42 43
f 39 43 42
f 43 40 15
f 39 41 43
f 43 41 40
f 28 26 27
f 27 26 25
f 28 45 26
f 27 34 35
f 32 34 33
f 35 34 32
f 28 27 35
f 51 44 45
f 28 52 45
f 28 53 52
f 51 45 52
f 32 33 55
f 35 32 56
f 28 57 53
f 28 35 57
f 35 56 57
f 32 55 56
f 51 52 55
f 52 53 56
f 52 56 55
f 53 57 56
