# MAAS exact compiled indexed mesh
# program_hash 48b37e6b346cd49e285bb45580728b63d7753058d55d6964e5cd5a9f58f031fb
# geometry_hash 24fd988c9a795809418e20e14301581e6c6948fdb5dc6c37472887c8bd81a0c8
v -18.58774344 -11.85325427 0
v -18.58774344 -11.85325427 4.94840668
v -18.58774344 -3.62236241 0
v -18.58774344 -3.62236241 4.94840668
v -7.9900719 -11.85697145 4.94681449
v -7.9900719 -11.85325427 4.94840668
v -7.9900719 -11.85325427 4.94681449
v -5.38804802 -7.73780834 4.94840668
v -5.38804802 -7.31725187 4.94840668
v -8.6431344 -3.62236241 3.16473633
v -6.4337799 -3.62236241 3.16473633
v -6.12817894 -3.62236241 3.16640711
v -6.12817894 -3.09461175 3.16640711
v -8.6431344 -3.62236241 4.94840668
v -6.12817894 -3.62236241 4.94681449
v -6.12817894 -3.23137999 4.94681449
v -9.12970269 -0.94496528 3.16207615
v -6.92034819 -0.94496528 3.16207615
v -6.69047669 -0.00050471 4.94522214
v -18.58774344 -11.85325427 6.55071045
v -18.58774344 -3.62236241 6.55071045
v -7.9900719 -11.85325427 6.55071045
v -7.9900719 -7.94286296 6.55071045
v -6.68905996 -7.73780834 6.55071045
v -6.32105944 -7.73780834 6.55071045
v -6.32105944 -7.61885094 6.55071045
v -7.9900719 -11.85697145 9.89840554
v -7.9900719 -7.94286296 9.89840554
v -7.11068518 -7.8741001 9.89840554
v -6.68905996 -7.73780834 9.89840554
v -6.32105944 -7.73780834 9.89681335
v -6.32105944 -7.61885094 9.89681335
v -5.38804802 -7.73780834 9.89681335
v -5.38804802 -7.31725187 9.89681335
v -9.19283977 -4.22204186 6.55071045
v -8.57070134 -4.02093353 6.55071045
v -8.57070134 -4.02093353 6.73027789
v -8.33753345 -3.94556123 6.73155267
v -8.6431344 -3.62236241 6.55071045
v -8.33753345 -3.09461175 6.73155267
v -6.12817894 -3.23137999 6.73155267
v -6.12817894 -3.09461175 6.73155267
v -9.12970269 -0.94496528 6.72722171
v -7.92017951 -0.41721463 6.72889249
v -6.69047669 -0.00050471 6.72847846
v -9.19283977 -4.22204186 9.89840554
v -7.92017951 -0.41721463 9.89999788
v -9.12970269 1.26438922 3.16207615
v -6.92034819 1.26438922 3.16207615
v -8.49002533 1.26438922 4.94522214
v -6.92034819 1.26438922 4.94522214
v -9.18869309 3.32614408 4.94522214
v -9.12970269 1.26438922 6.72722171
v -8.49002533 1.26438922 6.72722171
v -9.18869309 3.32614408 9.89999788
v 6.04227282 -3.62236241 4.94840668
v 6.04227282 -3.62236241 4.94681449
v 18.58402627 -11.85325427 0
v 18.58774344 -11.85697145 4.94681449
v 18.58402627 -11.85325427 4.94681449
v 18.58774344 -7.73780834 4.94681449
v 18.58402627 -7.73780834 4.94840668
v 18.58402627 -7.73780834 4.94681449
v 18.58402627 -3.62236241 0
v 18.58402627 -3.62236241 4.94840668
v 18.58774344 -11.85697145 9.89840554
v 18.58774344 -7.73780834 9.89840554
v 17.36235994 0.03689364 4.94681449
v 16.09652086 3.95282861 4.94681449
v 17.25414153 8.11361836 4.94522214
v 15.98562795 11.85697707 4.94522214
v 17.36235994 0.03689364 9.89840554
v 16.09652086 3.95282861 9.89840554
v 17.25414153 8.11361836 9.89999788
v 15.98562795 11.85697707 9.89999788
f 1 4 3
f 1 2 4
f 2 7 6
f 3 10 11
f 3 11 12
f 3 4 10
f 4 14 10
f 1 3 58
f 1 58 2
f 58 7 2
f 3 12 65
f 12 15 57
f 3 64 58
f 3 65 64
f 65 12 57
f 58 64 60
f 58 60 7
f 64 63 60
f 65 62 63
f 65 57 56
f 64 65 63
f 2 20 21
f 2 22 20
f 2 21 4
f 20 35 21
f 2 6 22
f 20 22 23
f 20 23 35
f 4 21 14
f 21 39 14
f 21 35 39
f 24 25 26
f 35 36 39
f 25 31 26
f 26 31 32
f 31 33 32
f 32 33 34
f 9 8 62
f 56 9 62
f 65 56 62
f 16 57 15
f 34 9 56
f 23 28 35
f 24 26 32
f 28 29 30
f 24 32 30
f 35 37 36
f 35 46 37
f 37 46 38
f 38 46 41
f 28 46 35
f 16 68 57
f 68 56 57
f 16 41 69
f 34 56 68
f 28 30 72
f 30 32 72
f 32 34 72
f 28 72 46
f 41 46 73
f 46 72 73
f 34 68 72
f 16 69 68
f 41 73 69
f 68 69 72
f 69 73 72
f 34 8 9
f 33 8 34
f 5 6 7
f 5 22 6
f 5 27 22
f 22 27 23
f 23 27 28
f 27 29 28
f 24 31 25
f 24 30 31
f 5 7 59
f 59 7 60
f 59 60 61
f 61 60 63
f 61 63 62
f 5 59 27
f 27 66 29
f 29 66 30
f 33 67 8
f 30 67 31
f 31 67 33
f 67 62 8
f 59 61 66
f 61 62 67
f 27 59 66
f 30 66 67
f 61 67 66
f 44 45 47
f 50 52 70
f 50 54 52
f 52 54 55
f 44 47 54
f 47 55 54
f 52 55 75
f 50 70 51
f 19 51 70
f 52 71 70
f 19 70 45
f 45 70 47
f 47 74 55
f 47 70 74
f 52 75 71
f 55 74 75
f 70 71 74
f 71 75 74
f 13 12 11
f 13 15 12
f 13 16 15
f 13 42 16
f 17 11 10
f 17 18 11
f 17 48 18
f 13 11 18
f 13 18 49
f 43 10 14
f 17 10 43
f 17 43 48
f 13 49 42
f 19 42 49
f 16 42 41
f 36 37 39
f 37 38 40
f 38 42 40
f 38 41 42
f 39 43 14
f 19 45 42
f 37 43 39
f 37 40 53
f 40 42 53
f 37 53 43
f 42 44 53
f 42 45 44
f 18 48 49
f 48 51 49
f 48 50 51
f 48 53 50
f 19 49 51
f 43 53 48
f 50 53 54
f 44 54 53
