# MAAS exact compiled indexed mesh
# program_hash b96c6556debc82acc07be002add2245f2c2a8360ba0dc097a69ad4e60c33018d
# geometry_hash d7107a044214224358002182398d63392958ad9322d94ba74259bb6c863044dc
v -14.82820666 -11.86256533 0
v -11.86256533 -11.86256533 0
v -11.86256533 -11.44388655 6.35294118
v -11.86256533 -2.6690772 0
v -11.86256533 -2.6690772 6.35294118
v -1.18625653 -11.86256533 0
v -1.18625653 -11.44388655 6.35294118
v -1.18625653 -2.6690772 0
v -1.18625653 -2.6690772 6.35294118
v -12.60397566 -11.26943706 9
v -10.37974466 -10.6763088 18
v -14.82820666 0 0
v -14.82820666 11.86256533 0
v -0.35587696 11.86256533 0
v -12.60397566 0 9
v -10.37974466 0 18
v -12.60397566 11.26943706 9
v -10.37974466 10.6763088 18
v 0 -11.86256533 0
v 14.82820666 -11.86256533 0
v 14.82820666 -3.32151829 0
v 0 -11.26943706 9
v 0 -10.6763088 18
v 12.60397566 -11.26943706 9
v 12.25988713 -7.78267324 10.3923
v 13.29517769 -7.78267324 10.3923
v 10.37974466 -10.6763088 18
v 10.7238332 -7.37305886 16.6077
v 11.75912376 -7.37305886 16.6077
v 12.60397566 -1.09728729 9
v 12.25988713 -0.75319876 10.3923
v 13.29517769 -0.7577866 10.3923
v 0 0 0
v 0 11.26943706 9
v 0.23725131 11.26943706 9
v 4.5908721 6.91581627 10.3923
v 4.5908721 7.78267324 10.3923
v 4.75471785 7.78267324 10.3923
v 0 10.6763088 18
v 0.83037957 10.6763088 18
v 4.5908721 6.91581627 16.6077
v 4.5908721 7.37305886 16.6077
v 5.16433223 7.37305886 16.6077
v 10.7238332 0.78285517 16.6077
v 10.37974466 0 18
v 10.37974466 1.12694371 18
v 11.75912376 0 16.6077
v 11.75912376 0.77826732 16.6077
f 1 2 3
f 1 4 2
f 1 3 10
f 1 10 15
f 3 7 10
f 1 12 4
f 1 15 12
f 4 12 33
f 6 19 7
f 6 8 19
f 7 22 10
f 7 19 22
f 4 33 8
f 8 33 19
f 10 22 11
f 10 11 16
f 10 16 15
f 11 23 16
f 11 22 23
f 16 23 39
f 12 13 33
f 12 15 17
f 12 17 13
f 13 17 34
f 13 14 33
f 13 34 14
f 14 34 35
f 15 16 18
f 15 18 17
f 17 18 39
f 17 39 34
f 16 39 18
f 19 20 22
f 19 33 20
f 20 21 24
f 20 24 22
f 20 33 21
f 21 30 24
f 14 21 33
f 2 4 3
f 3 5 7
f 3 4 5
f 4 9 5
f 6 7 9
f 4 8 9
f 6 9 8
f 5 9 7
f 22 24 23
f 27 45 23
f 25 24 30
f 25 28 24
f 27 23 24
f 27 28 45
f 27 24 28
f 25 30 31
f 28 44 45
f 45 39 23
f 45 46 39
f 40 35 34
f 40 34 39
f 40 39 46
f 44 46 45
f 25 26 28
f 26 29 28
f 26 32 48
f 28 29 44
f 26 47 29
f 26 48 47
f 29 47 44
f 41 44 42
f 42 48 43
f 37 43 38
f 37 42 43
f 42 44 47
f 42 47 48
f 14 35 30
f 14 30 21
f 36 30 35
f 36 35 40
f 36 40 41
f 40 46 41
f 36 31 30
f 41 46 44
f 38 43 48
f 38 48 32
f 25 32 26
f 25 31 32
f 36 38 31
f 36 37 38
f 36 42 37
f 36 41 42
f 38 32 31
