# MAAS exact compiled indexed mesh
# program_hash 51ef94b7e3ec627fe9ea98eb576220270420e1c0b938c7ea3f7e1eb237fc2748
# geometry_hash a0a862254aba10882fe03d1c3008c175021a4dd418f36f9b46de1108a532e156
v -15.35425594 -11.68020184 0
v -15.35425594 -6.19653901 0
v -10.50265826 -5.95474227 0
v -15.35425594 -6.19653901 5.7924736
v -15.35425594 -1.26124245 0
v -15.35425594 -1.26124245 3.53984498
v -10.41895939 -4.88045993 0
v -10.41895939 -1.26124245 0
v -10.41895939 -1.26124245 3.53984498
v -15.35425594 -4.88045993 5.7924736
v -10.41895939 -4.88045993 5.7924736
v -15.35425594 -11.68020184 15.44659626
v -15.35425594 -4.88045993 15.44659626
v -15.35425594 2.02895525 0
v -15.35425594 2.02895525 3.53984498
v -10.41895939 2.02895525 0
v -10.41895939 2.02895525 3.53984498
v -10.41895939 5.31915295 0
v -14.25752338 5.31915295 5.7924736
v -10.41895939 5.31915295 5.7924736
v -15.35425594 8.06098437 0
v -14.25752338 8.06098437 0
v -14.25752338 11.68020184 0
v -15.35425594 8.06098437 5.7924736
v -14.25752338 8.06098437 5.7924736
v -14.25752338 5.31915295 10.29773084
v -14.25752338 11.68020184 10.29773084
v 15.35425594 -11.68020184 0
v 15.35425594 -4.88045993 0
v 15.35425594 -11.68020184 15.44659626
v 15.35425594 -4.88045993 15.44659626
v 14.25752338 5.31915295 0
v 14.25752338 11.68020184 0
v 14.25752338 5.31915295 10.29773084
v 14.25752338 11.68020184 10.29773084
f 1 2 3
f 1 4 2
f 1 13 4
f 1 3 28
f 1 28 12
f 3 7 29
f 7 11 29
f 1 12 13
f 4 13 10
f 12 30 13
f 10 31 11
f 10 13 31
f 3 29 28
f 11 31 29
f 28 29 30
f 12 28 30
f 13 30 31
f 29 31 30
f 19 20 26
f 22 25 23
f 19 26 25
f 23 25 27
f 18 32 20
f 20 32 26
f 22 23 32
f 18 22 32
f 23 27 35
f 25 26 27
f 26 34 27
f 26 32 34
f 23 33 32
f 23 35 33
f 32 33 34
f 33 35 34
f 27 34 35
f 2 8 3
f 2 10 5
f 2 5 8
f 10 6 5
f 3 8 7
f 7 9 11
f 7 8 9
f 2 4 10
f 10 11 20
f 11 9 17
f 21 14 15
f 18 16 14
f 18 14 22
f 18 20 16
f 20 17 16
f 10 24 6
f 10 19 24
f 10 20 19
f 24 15 6
f 11 17 20
f 21 22 14
f 21 15 24
f 21 25 22
f 21 24 25
f 19 25 24
f 9 8 5
f 9 5 6
f 17 9 6
f 15 14 16
f 15 17 6
f 15 16 17
