# MAAS exact compiled indexed mesh
# program_hash a9d14f37b828a7896efb86db065e6d45eb81ce13e5f07900efa9441a450b4586
# geometry_hash a7e36c4d86efad6a270ceaae045c1d3f6116b1d794574c76788a8353ae811054
v -7.40092257 -9.68000488 3.3
v -8.61615197 -8.61615197 0
v -7.85673903 -6.26381939 3.3
v -6.05566696 -10.57379057 6.6
v -6.95929168 -7.24789907 6.6
v -8.61615197 -5.16969118 0
v -8.61615197 -1.72323039 0
v -8.3125555 -2.8476339 3.3
v -7.86291641 -3.92200756 6.6
v -8.76654113 -0.59611605 6.6
v -3.98473708 -9.22418842 3.3
v -5.16969118 -8.61615197 0
v -1.72323039 -8.61615197 0
v -0.56855159 -8.76837196 3.3
v -2.72977545 -9.67016585 6.6
v -5.16969118 -5.16969118 0
v -5.16969118 -1.72323039 0
v -1.72323039 -5.16969118 0
v -1.72323039 -1.72323039 0
v -7.27513437 -4.92747578 9.9
v -8.61069164 -1.75031058 9.9
v -9.9724001 -1.23086059 16.5
v -6.55953608 -5.84637358 13.2
v -7.85054697 -3.94670875 16.5
v -8.30356161 -2.87375404 13.2
v -4.60401982 -11.28180619 9.9
v -5.9395771 -8.10464099 9.9
v -1.42685462 -9.94624892 9.9
v -3.07148504 -11.79161266 13.2
v -3.60684071 -9.37840507 16.5
v -4.81551056 -8.81899312 13.2
v -5.72869384 -6.66255691 16.5
v -0.0988655 -10.04758713 13.2
v -1.48498757 -12.09425324 16.5
v -0.89099254 -7.25655194 16.5
v -5.13469881 -1.82485562 16.5
v -3.01284568 -4.54070378 16.5
v -0.29699751 -2.41885065 16.5
v -9.22418842 3.98473708 3.3
v -8.61615197 1.72323039 0
v -8.76837196 0.56855159 3.3
v -8.61615197 5.16969118 0
v -9.67016585 2.72977545 6.6
v -9.68000488 7.40092257 3.3
v -8.61615197 8.61615197 0
v -6.26381939 7.85673903 3.3
v -10.57379057 6.05566696 6.6
v -7.24789907 6.95929168 6.6
v -5.16969118 1.72323039 0
v -5.16969118 5.16969118 0
v -1.72323039 1.72323039 0
v -1.72323039 5.16969118 0
v -5.16969118 8.61615197 0
v -1.72323039 8.61615197 0
v -2.8476339 8.3125555 3.3
v -3.92200756 7.86291641 6.6
v -0.59611605 8.76654113 6.6
v -9.94624892 1.42685462 9.9
v -11.28180619 4.60401982 9.9
v -8.10464099 5.9395771 9.9
v -10.04758713 0.0988655 13.2
v -12.09425324 1.48498757 16.5
v -11.79161266 3.07148504 13.2
v -9.37840507 3.60684071 16.5
v -7.25655194 0.89099254 16.5
v -8.81899312 4.81551056 13.2
v -6.66255691 5.72869384 16.5
v -4.54070378 3.01284568 16.5
v -2.41885065 0.29699751 16.5
v -1.82485562 5.13469881 16.5
v -4.92747578 7.27513437 9.9
v -1.75031058 8.61069164 9.9
v -5.84637358 6.55953608 13.2
v -3.94670875 7.85054697 16.5
v -2.87375404 8.30356161 13.2
v -1.23086059 9.9724001 16.5
v 1.72323039 -8.61615197 0
v 2.8476339 -8.3125555 3.3
v 5.16969118 -8.61615197 0
v 0.59611605 -8.76654113 6.6
v 3.92200756 -7.86291641 6.6
v 1.72323039 -5.16969118 0
v 1.72323039 -1.72323039 0
v 5.16969118 -5.16969118 0
v 5.16969118 -1.72323039 0
v 8.61615197 -8.61615197 0
v 6.26381939 -7.85673903 3.3
v 9.68000488 -7.40092257 3.3
v 7.24789907 -6.95929168 6.6
v 10.57379057 -6.05566696 6.6
v 8.61615197 -5.16969118 0
v 8.61615197 -1.72323039 0
v 8.76837196 -0.56855159 3.3
v 9.22418842 -3.98473708 3.3
v 9.67016585 -2.72977545 6.6
v 1.75031058 -8.61069164 9.9
v 4.92747578 -7.27513437 9.9
v 1.23086059 -9.9724001 16.5
v 2.87375404 -8.30356161 13.2
v 5.84637358 -6.55953608 13.2
v 3.94670875 -7.85054697 16.5
v 1.82485562 -5.13469881 16.5
v 2.41885065 -0.29699751 16.5
v 4.54070378 -3.01284568 16.5
v 8.10464099 -5.9395771 9.9
v 11.28180619 -4.60401982 9.9
v 9.94624892 -1.42685462 9.9
v 8.81899312 -4.81551056 13.2
v 6.66255691 -5.72869384 16.5
v 7.25655194 -0.89099254 16.5
v 11.79161266 -3.07148504 13.2
v 9.37840507 -3.60684071 16.5
v 10.04758713 -0.0988655 13.2
v 12.09425324 -1.48498757 16.5
v 1.72323039 1.72323039 0
v 1.72323039 5.16969118 0
v 5.16969118 1.72323039 0
v 5.16969118 5.16969118 0
v 1.72323039 8.61615197 0
v 0.56855159 8.76837196 3.3
v 5.16969118 8.61615197 0
v 3.98473708 9.22418842 3.3
v 2.72977545 9.67016585 6.6
v 8.61615197 1.72323039 0
v 8.3125555 2.8476339 3.3
v 8.61615197 5.16969118 0
v 8.76654113 0.59611605 6.6
v 7.86291641 3.92200756 6.6
v 8.61615197 8.61615197 0
v 7.85673903 6.26381939 3.3
v 7.40092257 9.68000488 3.3
v 6.95929168 7.24789907 6.6
v 6.05566696 10.57379057 6.6
v 0.29699751 2.41885065 16.5
v 3.01284568 4.54070378 16.5
v 5.13469881 1.82485562 16.5
v 1.42685462 9.94624892 9.9
v 5.9395771 8.10464099 9.9
v 4.60401982 11.28180619 9.9
v 0.89099254 7.25655194 16.5
v 0.0988655 10.04758713 13.2
v 1.48498757 12.09425324 16.5
v 4.81551056 8.81899312 13.2
v 5.72869384 6.66255691 16.5
v 3.07148504 11.79161266 13.2
v 3.60684071 9.37840507 16.5
v 8.61069164 1.75031058 9.9
v 7.27513437 4.92747578 9.9
v 8.30356161 2.87375404 13.2
v 6.55953608 5.84637358 13.2
v 7.85054697 3.94670875 16.5
v 9.9724001 1.23086059 16.5
f 6 2 3
f 1 2 12
f 12 2 6
f 16 12 6
f 3 2 1
f 5 1 4
f 5 3 1
f 4 27 5
f 7 6 8
f 16 6 7
f 8 6 3
f 7 17 16
f 7 40 17
f 41 7 8
f 9 3 5
f 8 3 9
f 20 9 5
f 9 10 8
f 41 8 10
f 9 21 10
f 1 12 11
f 12 13 11
f 13 12 16
f 18 13 16
f 13 77 14
f 77 13 18
f 11 13 14
f 1 11 4
f 15 4 11
f 15 26 4
f 11 14 15
f 80 28 15
f 80 15 14
f 18 16 17
f 17 49 19
f 82 18 19
f 17 19 18
f 19 51 83
f 20 5 27
f 27 23 20
f 21 58 10
f 21 61 58
f 21 9 20
f 25 21 20
f 25 20 23
f 61 21 25
f 22 61 25
f 23 24 25
f 23 32 24
f 22 25 24
f 36 22 24
f 65 22 36
f 4 26 27
f 26 31 27
f 28 29 26
f 26 29 31
f 27 31 23
f 28 26 15
f 33 29 28
f 29 30 31
f 31 32 23
f 31 30 32
f 30 35 32
f 37 32 35
f 33 34 29
f 29 34 30
f 98 34 33
f 30 34 98
f 30 98 35
f 37 24 32
f 36 24 37
f 69 65 36
f 35 102 37
f 38 37 102
f 38 36 37
f 69 36 38
f 103 69 38
f 44 42 39
f 40 7 41
f 40 49 17
f 40 42 49
f 39 40 41
f 42 40 39
f 42 50 49
f 39 41 43
f 10 58 43
f 43 47 39
f 44 39 47
f 43 59 47
f 10 43 41
f 44 45 42
f 42 45 50
f 50 45 53
f 53 45 46
f 46 45 44
f 48 44 47
f 48 46 44
f 47 60 48
f 49 50 51
f 49 51 19
f 115 51 52
f 51 50 52
f 52 50 53
f 54 53 55
f 55 53 46
f 52 53 54
f 54 116 52
f 120 54 55
f 56 46 48
f 55 46 56
f 71 56 48
f 56 57 55
f 120 55 57
f 56 72 57
f 58 59 43
f 61 63 58
f 47 59 60
f 58 63 59
f 59 63 66
f 59 66 60
f 60 66 73
f 61 62 63
f 22 62 61
f 63 62 64
f 65 62 22
f 64 62 65
f 63 64 66
f 64 65 68
f 66 67 73
f 66 64 67
f 64 68 67
f 71 48 60
f 60 73 71
f 65 69 68
f 70 67 68
f 68 69 134
f 68 134 70
f 72 56 71
f 75 71 73
f 75 72 71
f 141 72 75
f 72 137 57
f 72 141 137
f 73 74 75
f 73 67 74
f 70 74 67
f 140 74 70
f 76 75 74
f 140 76 74
f 76 141 75
f 82 77 18
f 79 77 82
f 14 77 78
f 77 79 78
f 84 79 82
f 78 79 87
f 14 78 80
f 81 80 78
f 81 96 80
f 78 87 81
f 81 87 89
f 97 81 89
f 84 82 83
f 19 83 82
f 85 83 115
f 84 83 85
f 79 86 87
f 84 86 79
f 91 86 84
f 88 86 91
f 87 86 88
f 89 87 88
f 90 105 89
f 89 88 90
f 91 84 85
f 91 92 94
f 91 85 92
f 117 92 85
f 92 124 93
f 94 92 93
f 88 91 94
f 127 95 93
f 88 94 90
f 95 90 94
f 95 106 90
f 94 93 95
f 127 107 95
f 96 28 80
f 96 33 28
f 33 96 99
f 96 81 97
f 99 96 97
f 99 97 100
f 98 33 99
f 98 101 35
f 98 99 101
f 35 101 102
f 100 101 99
f 101 109 102
f 100 109 101
f 102 104 38
f 103 38 104
f 102 109 104
f 104 110 103
f 97 89 105
f 105 100 97
f 105 108 100
f 90 106 105
f 106 108 105
f 107 111 106
f 106 111 108
f 107 106 95
f 113 111 107
f 108 109 100
f 109 112 104
f 108 112 109
f 104 112 110
f 111 112 108
f 113 114 111
f 112 114 110
f 110 114 152
f 111 114 112
f 152 114 113
f 83 51 115
f 116 117 115
f 115 52 116
f 85 115 117
f 116 118 117
f 54 119 116
f 119 54 120
f 119 118 116
f 122 119 120
f 119 121 118
f 121 119 122
f 131 121 122
f 57 123 120
f 122 120 123
f 57 137 123
f 123 133 122
f 131 122 133
f 123 139 133
f 117 124 92
f 118 124 117
f 93 124 125
f 118 126 124
f 124 126 125
f 125 126 130
f 93 125 127
f 128 127 125
f 128 147 127
f 125 130 128
f 128 130 132
f 148 128 132
f 121 126 118
f 121 129 126
f 131 129 121
f 126 129 130
f 130 129 131
f 132 130 131
f 133 138 132
f 132 131 133
f 69 103 134
f 134 103 136
f 134 136 135
f 135 70 134
f 135 140 70
f 103 110 136
f 151 135 136
f 151 144 135
f 137 139 123
f 141 145 137
f 138 143 150
f 133 139 138
f 137 145 139
f 139 145 143
f 139 143 138
f 146 76 140
f 141 142 145
f 146 142 76
f 76 142 141
f 145 142 146
f 143 144 150
f 144 140 135
f 144 146 140
f 143 146 144
f 145 146 143
f 113 147 149
f 147 128 148
f 149 148 150
f 149 147 148
f 147 107 127
f 147 113 107
f 136 110 152
f 152 149 151
f 136 152 151
f 150 151 149
f 150 144 151
f 152 113 149
f 148 132 138
f 138 150 148
