# MAAS exact compiled indexed mesh
# program_hash 420630c0150e827db92aff7514727e8da594e026ac469e48371928f1141472be
# geometry_hash 8cf67e277df7deb0567b458d4d9dcb89e86e26d85a680ce0ad4ae6de6a1a9e1a
v -13.16030252 -10.16569681 0
v -13.16030252 -6.40452937 0
v -9.14839057 -6.40452937 0
v -7.0309926 -5.68811652 0
v -6.71258689 -5.68811652 0
v -3.74625024 -5.68811652 0
v -13.16030252 -10.16569681 15.1056338
v -13.16030252 -6.40452937 15.1056338
v -13.16030252 -6.40452937 16.5
v -6.71258689 -6.40452937 15.1056338
v -6.71258689 -6.40452937 16.5
v -6.71258689 -5.68811652 15.1056338
v -3.74625024 -5.68811652 11.15492958
v -0.62307769 -10.16569681 8.25
v -0.62307769 -5.68811652 11.15492958
v -0.13512323 -5.68690658 11.15492958
v -0.13512323 -5.68690658 12.14260563
v -0.62307769 -10.16569681 15.1056338
v -0.13512323 -5.68690658 13.13028169
v -0.13512323 -5.68690658 14.11795775
v -0.62307769 -5.68811652 15.1056338
v -13.16030252 8.1028308 0
v -6.71258689 8.1028308 0
v -2.28903866 4.68048262 0
v -13.16030252 8.1028308 16.5
v -6.71258689 8.1028308 16.5
v -0.62307769 1.60632484 8.25
v -0.62307769 1.60632484 11.15492958
v -0.62307769 4.44634707 8.25
v -2.28903866 4.68048262 11.15492958
v -0.62307769 4.44634707 11.15492958
v 1.22749221 -5.68811652 0
v 5.28732831 -5.68811652 0
v 11.91414714 -10.16569681 0
v 11.91414714 -6.40452937 0
v 2.83251115 -10.10764163 8.25
v 2.83251115 -10.10764163 9.96390845
v 2.83251115 -10.10764163 11.6778169
v 1.22749221 -5.68811652 8.25
v 1.32862012 -5.66875814 8.25
v 1.32862012 -5.66875814 8.97623239
v 1.32862012 -5.66875814 9.70246479
v 2.39876648 -5.64170266 8.25
v 2.39876648 -5.64170266 9.55721831
v 2.39876648 -5.64170266 10.2834507
v 0.35281922 -5.6832768 11.15492958
v 1.32862012 -5.66875814 10.42869718
v 0.84073767 -5.67722727 11.15492958
v 1.32862012 -5.66875814 11.15492958
v 0.35281922 -5.6832768 12.14260563
v 0.84073767 -5.67722727 12.14260563
v 2.39876648 -5.64170266 11.0096831
v 2.39876648 -5.64170266 11.73591549
v 6.28419969 -9.9335416 8.25
v 6.28419969 -9.9335416 9.96390845
v 6.28419969 -9.9335416 11.6778169
v 3.46855516 -5.60300618 8.25
v 4.53785953 -5.55267329 8.25
v 3.46855516 -5.60300618 9.55721831
v 4.53785953 -5.55267329 9.55721831
v 5.28732831 -5.68811652 8.25
v 5.28732831 -5.50921875 8.25
v 5.60655302 -5.49070995 8.25
v 5.60655302 -5.49070995 9.55721831
v 3.46855516 -5.60300618 10.86443662
v 4.53785953 -5.55267329 10.86443662
v 3.46855516 -5.60300618 11.59066901
v 3.46855516 -5.60300618 12.31690141
v 4.53785953 -5.55267329 12.17165493
v 5.60655302 -5.49070995 10.86443662
v 5.60655302 -5.49070995 12.17165493
v 2.83251115 -10.10764163 13.39172535
v 2.83251115 -10.10764163 15.1056338
v 2.79490925 -8.98887828 15.1056338
v 2.75730735 -7.87011493 15.1056338
v 0.35281922 -5.6832768 13.13028169
v 1.42318128 -5.66683663 13.71126761
v 1.91100504 -5.65547918 12.72359155
v 2.98097247 -5.62208846 13.30457746
v 2.49330115 -5.63875249 14.29225352
v 0.9353072 -5.67577474 14.69894366
v 2.71970545 -6.75135158 15.1056338
v 2.68210355 -5.63258824 15.1056338
v 6.28419969 -9.9335416 13.39172535
v 6.28419969 -9.9335416 15.1056338
v 6.20903833 -8.81667271 15.1056338
v 6.13387697 -7.69980383 15.1056338
v 4.53785953 -5.55267329 12.89788732
v 4.0505133 -5.57705907 13.88556338
v 5.60655302 -5.49070995 13.47887324
v 5.79506547 -5.47856895 14.29225352
v 4.23919439 -5.5679053 14.69894366
v 6.05871561 -6.58293495 15.1056338
v 5.98355426 -5.46606606 15.1056338
v 1.63052602 -3.24087266 8.25
v 1.63052602 -3.24087266 8.97623239
v 1.63052602 -3.24087266 9.70246479
v 0.67879064 -3.25850512 11.15492958
v 1.63052602 -3.24087266 10.42869718
v 1.15468019 -3.25086885 11.15492958
v 1.63052602 -3.24087266 11.15492958
v 1.91475013 -0.8121257 8.25
v 1.92180314 -0.74783749 8.25
v 2.3369544 -1.10134268 8.52422535
v 1.91475013 -0.8121257 8.97623239
v 1.99760266 -0.05692542 8.52422535
v 2.157314 -0.54846638 8.52422535
v 1.91475013 -0.8121257 9.70246479
v 0.18106476 -0.7302592 11.15492958
v 0.98708969 -0.83269663 11.15492958
v 1.45094541 -0.82356128 11.15492958
v 1.91475013 -0.8121257 10.42869718
v 1.91475013 -0.8121257 11.15492958
v 2.3369544 -1.10134268 11.19676056
v 1.99760266 -0.05692542 11.15492958
v 3.93170968 -0.58317528 8.52422535
v 5.37409173 -1.82646041 9.55721831
v 5.28732831 -0.45882275 8.25
v 3.93170968 -0.58317528 11.19676056
v 5.37409173 -1.82646041 10.86443662
v 5.37409173 -1.82646041 12.17165493
v 5.37409173 -1.82646041 13.47887324
v 9.72809204 -9.64359322 8.25
v 9.72809204 -9.64359322 9.96390845
v 9.72809204 -9.64359322 11.6778169
v 11.91414714 -10.16569681 8.25
v 11.91414714 -9.38534014 8.25
v 13.16030111 -9.23812377 8.25
v 13.16030111 -9.23812377 9.96390845
v 13.03431499 -8.30631033 8.25
v 13.03431499 -8.30631033 9.96390845
v 13.16030111 -9.23812377 11.6778169
v 13.03431499 -8.30631033 11.6778169
v 11.91414714 -6.40452937 8.25
v 12.90832887 -7.37449689 8.25
v 12.78234275 -6.44268345 8.25
v 12.90832887 -7.37449689 9.96390845
v 12.78234275 -6.44268345 9.96390845
v 12.65635663 -5.51087002 8.25
v 12.65635663 -5.51087002 9.55721831
v 12.78234275 -6.44268345 11.27112676
v 12.90832887 -7.37449689 11.6778169
v 12.65635663 -5.51087002 10.86443662
v 12.65635663 -5.51087002 12.17165493
v 9.72809204 -9.64359322 13.39172535
v 9.72809204 -9.64359322 15.1056338
v 9.61545606 -8.5298794 15.1056338
v 7.34932646 -5.36460162 13.47887324
v 7.34932646 -5.36460162 13.88556338
v 9.08958568 -5.20756536 13.47887324
v 9.08958568 -5.20756536 13.88556338
v 9.08958568 -5.20756536 14.29225352
v 7.53759358 -5.34911497 14.69894366
v 9.50282008 -7.41616559 15.1056338
v 9.39018409 -6.30245177 15.1056338
v 9.27754811 -5.18873795 15.1056338
v 13.16030111 -9.23812377 13.39172535
v 13.03431499 -8.30631033 13.39172535
v 13.16030111 -9.23812377 15.1056338
v 13.03431499 -8.30631033 14.69894366
v 13.01031764 -8.12882206 15.1056338
v 12.90832887 -7.37449689 12.98503521
v 12.78234275 -6.44268345 12.57834507
v 12.90832887 -7.37449689 14.29225352
v 12.78234275 -6.44268345 13.88556338
v 12.7583454 -6.26519518 14.29225352
v 12.65635663 -5.51087002 13.47887324
v 12.63235928 -5.33338174 13.47887324
v 12.60836192 -5.15589347 13.47887324
v 12.63235928 -5.33338174 13.88556338
v 12.60836192 -5.15589347 13.88556338
v 12.60836192 -5.15589347 14.29225352
v 12.88433152 -7.19700862 14.69894366
v 12.86033416 -7.01952035 15.1056338
v 12.73434804 -6.08770691 14.69894366
v 12.71035069 -5.91021863 15.1056338
v 12.14041348 -1.69487213 8.25
v 12.14041348 -1.69487213 9.55721831
v 11.91414714 -0.02137023 8.25
v 12.14041348 -1.69487213 10.86443662
v 12.14041348 -1.69487213 12.17165493
v 12.11641612 -1.51738385 12.17165493
v 12.09241877 -1.33989558 12.17165493
v 12.06842141 -1.1624073 12.17165493
v 7.05183284 -1.70505787 13.47887324
v 8.72715356 -1.55388149 13.47887324
v 10.82678188 -5.01965071 13.47887324
v 10.82678188 -5.01965071 13.88556338
v 10.82678188 -5.01965071 14.29225352
v 12.58436457 -4.97840519 13.47887324
v 12.56036721 -4.80091692 13.47887324
v 12.58436457 -4.97840519 13.88556338
v 12.56036721 -4.80091692 13.88556338
v 12.58436457 -4.97840519 14.29225352
v 12.56036721 -4.80091692 14.29225352
v 10.82678188 -5.01965071 14.69894366
v 12.58436457 -4.97840519 14.69894366
v 12.56036721 -4.80091692 14.69894366
v 12.56036721 -4.80091692 15.1056338
v 10.39952555 -1.37297895 13.47887324
v 12.06842141 -1.1624073 13.47887324
v 2.58836661 3.99500801 0
v 5.28732831 8.99834685 0
v 11.91414714 8.99834685 0
v 1.45717989 1.60632484 8.52422535
v 2.08200222 0.6052389 8.52422535
v 2.58572526 0.65788749 8.52422535
v 3.08847335 0.71732578 8.52422535
v 2.18007677 1.60632484 8.25
v 2.18007677 1.60632484 8.52422535
v 1.45717989 1.60632484 11.15492958
v 1.8114019 0.5161416 11.19676056
v 2.31600337 0.56499478 11.19676056
v 2.81965293 0.62063539 11.19676056
v 2.19357718 2.47840536 11.19676056
v 3.18319784 1.70990321 11.19676056
v 3.11305944 2.227623 11.19676056
v 1.02847153 2.92575351 8.52422535
v 1.5199812 2.97025425 8.52422535
v 1.02847153 2.92575351 9.19235915
v 1.5199812 2.97025425 9.19235915
v 1.02847153 2.92575351 9.86049296
v 1.5199812 2.97025425 9.86049296
v 2.0105979 3.02136427 8.52422535
v 2.38431091 3.06542341 8.52422535
v 2.0105979 3.02136427 9.19235915
v 2.43163917 3.21108481 9.19235915
v 2.54956796 2.88119003 8.52422535
v 2.69031078 3.10412339 8.52422535
v 2.69631652 3.10491437 8.52422535
v 2.70292951 3.12411116 8.52422535
v 3.07930059 2.78895765 8.52422535
v 3.14139607 2.8706238 8.52422535
v 2.0105979 3.02136427 9.86049296
v 2.43163917 3.21108481 9.86049296
v 2.58836661 3.99500801 8.25
v 1.02847153 2.92575351 10.52862676
v 1.5199812 2.97025425 10.52862676
v 1.02847153 2.92575351 11.19676056
v 1.5199812 2.97025425 11.19676056
v 2.0105979 3.02136427 10.52862676
v 2.0105979 3.02136427 11.19676056
v 2.38431091 3.06542341 11.19676056
v 2.43163917 3.21108481 10.52862676
v 2.43163917 3.21108481 11.19676056
v 2.50117746 3.07218733 11.19676056
v 2.6275007 3.09585108 11.19676056
v 3.02688175 2.86373528 11.19676056
v 2.97198519 3.14122091 11.19676056
v 3.59020394 0.7835652 8.52422535
v 3.51003864 1.09822916 8.52422535
v 3.59020394 0.7835652 9.19235915
v 3.59020394 0.7835652 9.86049296
v 4.02790789 2.38188144 8.52422535
v 4.02790789 2.38188144 9.19235915
v 4.02790789 2.38188144 9.86049296
v 5.15631461 1.60632484 8.25
v 5.28732831 1.60632484 8.25
v 5.29078788 1.60632484 8.52422535
v 6.14870682 1.95761113 8.52422535
v 6.09231869 2.37859092 8.52422535
v 6.22715172 1.94168592 8.52422535
v 6.17983104 2.52758802 8.52422535
v 3.59020394 0.7835652 10.52862676
v 3.32230797 0.68307518 11.19676056
v 3.59020394 0.7835652 11.19676056
v 3.48789135 1.18516151 11.19676056
v 3.51003864 1.09822916 11.19676056
v 4.02790789 2.38188144 10.52862676
v 3.75210895 2.45804861 11.19676056
v 4.02790789 2.38188144 11.19676056
v 3.58306477 2.62320247 8.52422535
v 4.53383973 3.65277334 8.52422535
v 4.02614572 5.02535037 8.52422535
v 4.0290311 5.03237745 8.52422535
v 4.04546506 5.01791564 8.52422535
v 4.27848832 4.34312909 8.52422535
v 3.30875129 2.70298698 11.19676056
v 4.53383973 3.65277334 11.19676056
v 4.03128813 5.01144759 12.13214789
v 5.29078788 1.60632484 13.33478873
v 6.14870682 1.95761113 13.33478873
v 6.09231869 2.37859092 13.33478873
v 5.15631461 1.60632484 13.47887324
v 4.03128813 5.01144759 13.33478873
v 6.02771606 2.54737557 13.33478873
v 3.21456954 5.62069672 8.52422535
v 3.21456954 5.62069672 9.19235915
v 3.21456954 5.62069672 9.86049296
v 3.21456954 5.62069672 10.52862676
v 3.21456954 5.62069672 11.19676056
v 2.75908859 8.45090486 8.52422535
v 2.75908859 8.45090486 9.7268662
v 2.75908859 8.45090486 10.92950704
v 2.75908859 8.45090486 12.13214789
v 3.63836608 5.36779644 8.52422535
v 3.97057522 5.17558808 8.52422535
v 3.63836608 5.36779644 9.19235915
v 4.92799916 5.42056094 8.52422535
v 3.63836608 5.36779644 9.86049296
v 5.81487927 5.85535914 8.52422535
v 3.63836608 5.36779644 10.52862676
v 3.63836608 5.36779644 11.19676056
v 3.97057522 5.17558808 11.19676056
v 3.61812043 8.84282755 8.52422535
v 3.61812043 8.84282755 9.7268662
v 4.46773444 9.25935582 8.52422535
v 4.46773444 9.25935582 9.7268662
v 5.28732831 8.99834685 8.25
v 5.30766267 9.70035831 8.52422535
v 6.13764026 10.16569595 8.52422535
v 5.30766267 9.70035831 9.7268662
v 6.13764026 10.16569595 9.7268662
v 3.61812043 8.84282755 10.92950704
v 3.61812043 8.84282755 12.13214789
v 4.46773444 9.25935582 10.92950704
v 4.46773444 9.25935582 12.13214789
v 5.30766267 9.70035831 10.92950704
v 6.13764026 10.16569595 10.92950704
v 5.30766267 9.70035831 12.13214789
v 6.13764026 10.16569595 12.13214789
v 2.75908859 8.45090486 13.33478873
v 4.92799916 5.42056094 13.33478873
v 5.81487927 5.85535914 13.33478873
v 3.61812043 8.84282755 13.33478873
v 4.46773444 9.25935582 13.33478873
v 5.30766267 9.70035831 13.33478873
v 6.13764026 10.16569595 13.33478873
v 7.28386255 1.73867322 8.52422535
v 6.95174473 2.06049756 8.52422535
v 7.04091149 2.39198628 8.52422535
v 7.27132733 2.48640913 8.52422535
v 8.28064202 2.3205178 8.52422535
v 9.75142648 1.60632484 8.52422535
v 9.75013613 1.60938106 8.52422535
v 7.12926848 2.72046456 8.52422535
v 8.19387745 2.78381713 8.52422535
v 8.62186184 2.93457759 8.52422535
v 8.48385095 4.60861903 8.52422535
v 9.7887397 5.03449307 8.52422535
v 10.00383548 1.60632484 8.52422535
v 11.69407414 1.60632484 8.25
v 10.73476714 4.74473167 8.52422535
v 10.73476714 4.74473167 9.7268662
v 10.77517356 4.91822504 9.7268662
v 10.77517356 4.91822504 10.92950704
v 10.77517356 4.91822504 12.13214789
v 6.90271785 1.87823394 13.33478873
v 8.29439214 1.62691788 13.33478873
v 9.56074483 1.61166259 13.33478873
v 9.75142648 1.60632484 13.33478873
v 9.7887397 5.03449307 13.33478873
v 10.00383548 1.60632484 13.33478873
v 11.69407414 1.60632484 13.47887324
v 10.77517356 4.91822504 13.33478873
v 6.69164878 6.31570506 8.52422535
v 7.79823601 5.35457225 8.52422535
v 7.96666482 5.83359133 8.52422535
v 7.35726774 7.27696827 8.52422535
v 7.46584759 6.58183805 8.52422535
v 7.57236857 6.76749491 8.52422535
v 8.80883373 5.17741758 8.52422535
v 7.86227063 9.07340688 8.52422535
v 7.86227063 9.07340688 9.7268662
v 8.78760836 8.88555275 8.52422535
v 9.71978971 8.72314061 8.52422535
v 8.78760836 8.88555275 9.7268662
v 9.71978971 8.72314061 9.7268662
v 7.86227063 9.07340688 10.92950704
v 7.86227063 9.07340688 12.13214789
v 8.78760836 8.88555275 10.92950704
v 9.71978971 8.72314061 10.92950704
v 8.78760836 8.88555275 12.13214789
v 9.71978971 8.72314061 12.13214789
v 10.65852069 8.58622169 8.52422535
v 10.65852069 8.58622169 9.7268662
v 11.60350526 8.47483917 8.52422535
v 11.60350526 8.47483917 9.7268662
v 11.91414714 8.99834685 8.25
v 10.65852069 8.58622169 10.92950704
v 10.65852069 8.58622169 12.13214789
v 11.60350526 8.47483917 10.92950704
v 11.60350526 8.47483917 12.13214789
v 6.81112256 5.33417483 13.33478873
v 7.02005875 5.51255112 13.33478873
v 6.92595887 5.74268021 13.33478873
v 6.69164878 6.31570506 13.33478873
v 7.78018149 5.14031596 13.33478873
v 7.75022469 5.3643191 13.33478873
v 8.19883144 5.28369709 13.33478873
v 7.96666482 5.83359133 13.33478873
v 7.35726774 7.27696827 13.33478873
v 8.80883373 5.17741758 13.33478873
v 7.86227063 9.07340688 13.33478873
v 8.78760836 8.88555275 13.33478873
v 9.71978971 8.72314061 13.33478873
v 10.65852069 8.58622169 13.33478873
v 11.60350526 8.47483917 13.33478873
f 1 2 3
f 1 7 2
f 1 3 34
f 3 4 34
f 4 5 34
f 1 34 7
f 5 12 6
f 7 34 14
f 2 7 8
f 7 18 8
f 8 18 10
f 6 12 13
f 7 14 18
f 13 12 15
f 10 21 12
f 12 21 15
f 10 18 21
f 5 6 34
f 6 32 34
f 32 33 34
f 32 61 33
f 32 39 61
f 33 35 34
f 34 35 126
f 34 126 14
f 35 127 126
f 35 134 127
f 2 22 3
f 3 22 4
f 4 23 5
f 5 23 12
f 8 11 9
f 8 10 11
f 10 12 11
f 2 8 25
f 12 23 11
f 8 9 25
f 9 11 25
f 4 22 23
f 2 25 22
f 22 26 23
f 11 23 26
f 11 26 25
f 22 25 26
f 6 24 32
f 6 13 30
f 13 15 28
f 6 30 24
f 24 29 236
f 24 30 29
f 13 28 31
f 13 31 30
f 30 31 29
f 32 202 39
f 202 103 39
f 24 202 32
f 24 236 202
f 202 236 103
f 33 61 62
f 33 62 118
f 33 118 258
f 33 203 35
f 35 204 134
f 33 309 203
f 33 258 309
f 35 203 204
f 204 179 134
f 203 379 204
f 203 309 379
f 204 379 179
f 16 15 17
f 17 15 19
f 19 15 20
f 20 15 21
f 37 14 36
f 37 18 14
f 37 38 18
f 40 44 43
f 40 41 44
f 43 59 57
f 43 44 59
f 41 42 45
f 41 45 44
f 44 45 65
f 44 65 59
f 16 17 46
f 46 17 50
f 46 50 48
f 48 50 51
f 48 51 49
f 49 51 53
f 42 47 52
f 42 52 45
f 47 53 52
f 47 49 53
f 45 52 67
f 45 67 65
f 51 78 53
f 52 53 68
f 52 68 67
f 53 78 68
f 37 36 55
f 55 36 54
f 37 56 38
f 37 55 56
f 38 56 84
f 57 59 60
f 57 60 58
f 58 60 64
f 59 66 60
f 58 64 62
f 64 63 62
f 60 70 64
f 59 65 66
f 60 66 70
f 65 69 66
f 65 67 69
f 67 68 88
f 66 69 71
f 67 88 69
f 66 71 70
f 38 72 18
f 74 21 18
f 72 73 18
f 74 18 73
f 17 19 50
f 50 19 76
f 50 76 51
f 51 76 78
f 76 77 78
f 19 20 76
f 76 20 77
f 20 81 77
f 81 80 77
f 78 77 79
f 78 79 68
f 77 80 79
f 80 89 79
f 74 75 21
f 75 82 21
f 20 21 81
f 82 83 21
f 81 21 83
f 81 92 80
f 81 83 92
f 38 84 72
f 72 84 85
f 72 85 73
f 74 73 86
f 74 87 75
f 73 85 86
f 74 86 87
f 68 79 88
f 79 89 88
f 69 88 90
f 88 89 90
f 80 91 89
f 80 92 91
f 69 90 71
f 89 149 90
f 89 91 149
f 75 93 82
f 82 94 83
f 82 93 94
f 83 94 92
f 75 87 93
f 92 153 91
f 92 94 153
f 55 54 124
f 124 54 123
f 55 125 56
f 55 124 125
f 56 125 145
f 124 123 129
f 129 123 127
f 128 129 127
f 128 130 129
f 130 135 131
f 130 131 129
f 131 135 137
f 124 132 125
f 124 129 132
f 129 131 132
f 125 132 157
f 132 133 157
f 131 133 132
f 131 137 133
f 137 142 133
f 133 142 158
f 135 136 137
f 136 138 137
f 136 139 138
f 139 140 138
f 138 140 141
f 137 138 142
f 138 141 142
f 142 141 162
f 141 163 162
f 140 143 141
f 141 143 163
f 143 144 163
f 56 145 84
f 84 145 146
f 86 85 147
f 84 146 85
f 86 154 87
f 85 146 147
f 86 147 154
f 90 149 148
f 148 149 151
f 91 152 149
f 91 153 152
f 148 151 150
f 149 152 151
f 150 151 188
f 151 152 189
f 87 155 93
f 93 156 94
f 94 156 153
f 87 154 155
f 93 155 156
f 153 196 152
f 153 156 196
f 125 157 145
f 145 157 159
f 157 158 159
f 133 158 157
f 142 162 158
f 158 160 159
f 162 160 158
f 162 164 160
f 145 159 146
f 147 174 154
f 147 146 161
f 146 159 161
f 147 161 174
f 159 160 161
f 160 164 173
f 160 173 161
f 163 164 162
f 163 165 164
f 165 166 164
f 164 166 173
f 144 165 163
f 144 167 165
f 165 167 170
f 165 170 166
f 172 175 166
f 167 168 170
f 169 171 168
f 168 171 170
f 169 192 171
f 170 172 166
f 171 172 170
f 171 194 172
f 154 176 155
f 156 155 199
f 154 174 176
f 161 173 174
f 173 175 174
f 173 166 175
f 155 176 199
f 174 175 176
f 172 197 175
f 176 175 197
f 176 197 199
f 150 188 187
f 151 189 188
f 152 196 189
f 187 188 193
f 188 189 195
f 187 193 191
f 188 195 193
f 189 198 195
f 169 190 192
f 190 191 193
f 190 193 192
f 171 192 194
f 192 193 195
f 192 195 194
f 172 194 197
f 194 195 198
f 189 196 198
f 156 199 196
f 196 199 198
f 194 198 197
f 197 198 199
f 16 98 15
f 15 109 28
f 40 95 41
f 41 96 42
f 41 95 96
f 42 97 47
f 42 96 97
f 47 97 99
f 16 46 98
f 46 48 100
f 46 100 98
f 47 99 49
f 48 49 101
f 48 101 100
f 49 99 101
f 15 98 110
f 95 102 96
f 96 105 97
f 96 102 105
f 97 108 99
f 97 105 108
f 108 112 99
f 102 115 105
f 102 106 115
f 105 115 108
f 15 110 109
f 98 100 111
f 100 101 113
f 98 111 110
f 100 113 111
f 110 111 211
f 111 113 211
f 99 112 101
f 101 112 113
f 108 115 112
f 112 115 113
f 102 103 210
f 102 210 106
f 210 103 209
f 109 110 28
f 110 211 28
f 113 115 211
f 64 117 63
f 117 118 63
f 64 120 117
f 64 70 120
f 70 71 121
f 70 121 120
f 117 257 118
f 117 120 257
f 120 121 257
f 121 122 257
f 71 90 122
f 71 122 121
f 90 185 122
f 122 185 284
f 139 177 140
f 140 178 143
f 140 177 178
f 143 180 144
f 143 178 180
f 180 181 144
f 177 179 178
f 178 179 342
f 178 342 180
f 180 342 181
f 181 342 182
f 182 342 183
f 183 342 184
f 90 148 185
f 148 186 185
f 148 150 186
f 150 200 186
f 284 185 186
f 284 186 200
f 284 200 201
f 150 187 200
f 144 181 167
f 167 181 168
f 169 168 182
f 169 183 190
f 168 181 182
f 169 182 183
f 184 191 190
f 187 191 201
f 187 201 200
f 183 184 190
f 184 201 191
f 184 354 201
f 122 284 257
f 184 342 354
f 284 201 354
f 246 216 217
f 215 246 243
f 243 246 245
f 246 217 245
f 247 245 217
f 247 249 245
f 217 278 248
f 245 249 303
f 245 303 291
f 251 254 255
f 251 255 256
f 251 271 268
f 251 256 269
f 251 269 271
f 268 270 267
f 267 278 217
f 267 270 278
f 268 271 270
f 254 279 255
f 255 279 256
f 254 273 279
f 270 271 279
f 270 304 278
f 248 278 304
f 248 304 249
f 270 279 304
f 256 279 269
f 269 279 271
f 249 304 303
f 287 298 296
f 296 298 297
f 287 288 298
f 297 298 300
f 288 300 298
f 288 289 300
f 297 300 302
f 289 290 302
f 289 302 300
f 297 303 304
f 297 302 303
f 290 303 302
f 290 291 303
f 282 348 283
f 341 343 353
f 343 344 353
f 344 345 353
f 345 346 353
f 346 347 353
f 350 351 353
f 283 348 388
f 283 389 286
f 348 349 388
f 286 389 384
f 283 388 389
f 349 390 388
f 349 350 352
f 350 353 352
f 349 393 390
f 349 352 393
f 353 355 352
f 353 347 355
f 359 392 363
f 363 364 367
f 365 368 366
f 365 367 368
f 367 372 368
f 363 367 365
f 364 371 367
f 363 392 364
f 364 392 369
f 369 392 370
f 364 369 371
f 369 370 373
f 367 371 372
f 371 374 372
f 371 373 374
f 369 373 371
f 343 377 344
f 344 377 345
f 345 378 346
f 345 377 378
f 346 382 347
f 346 378 382
f 382 383 347
f 366 376 375
f 375 378 377
f 366 368 376
f 368 380 376
f 375 376 378
f 376 382 378
f 368 372 380
f 372 381 380
f 376 380 382
f 380 383 382
f 372 374 381
f 380 381 383
f 384 389 385
f 385 389 391
f 385 395 386
f 385 391 395
f 386 395 392
f 393 352 397
f 391 390 395
f 390 393 396
f 393 397 396
f 392 394 370
f 392 395 394
f 370 394 395
f 390 396 395
f 373 396 374
f 373 395 396
f 370 395 373
f 347 383 355
f 352 355 398
f 352 398 397
f 355 383 398
f 374 397 381
f 374 396 397
f 381 398 383
f 381 397 398
f 114 119 212
f 116 266 119
f 239 212 240
f 213 214 215
f 119 213 212
f 119 214 213
f 214 265 216
f 212 213 240
f 213 242 240
f 213 215 242
f 214 216 246
f 267 217 216
f 214 246 215
f 218 221 219
f 218 220 221
f 220 222 223
f 220 223 221
f 222 237 238
f 222 238 223
f 219 226 224
f 224 226 225
f 219 221 226
f 221 234 226
f 221 223 234
f 225 226 243
f 223 241 234
f 223 238 241
f 226 234 243
f 237 240 238
f 237 239 240
f 238 242 241
f 234 241 243
f 238 240 242
f 215 243 242
f 241 242 243
f 247 248 249
f 247 217 248
f 116 250 252
f 116 252 253
f 250 251 252
f 251 253 252
f 116 253 264
f 116 264 266
f 251 264 253
f 251 266 264
f 251 268 266
f 119 265 214
f 119 266 265
f 265 266 268
f 265 268 216
f 268 267 216
f 259 281 279
f 273 259 279
f 279 281 280
f 279 280 304
f 281 348 282
f 281 282 283
f 281 283 286
f 280 281 285
f 285 281 323
f 281 286 323
f 286 324 323
f 286 384 324
f 292 297 293
f 293 297 294
f 294 297 295
f 292 293 306
f 293 294 314
f 294 295 315
f 297 304 295
f 304 280 295
f 292 306 305
f 293 314 306
f 305 308 307
f 305 306 308
f 307 308 312
f 306 316 308
f 307 312 310
f 310 313 311
f 310 312 313
f 308 318 312
f 312 319 313
f 294 315 314
f 306 314 316
f 308 316 318
f 314 317 316
f 314 315 317
f 316 317 320
f 312 318 319
f 316 320 318
f 311 313 392
f 313 319 392
f 318 321 319
f 318 320 321
f 319 321 392
f 295 280 322
f 295 322 325
f 322 280 285
f 322 285 325
f 285 323 325
f 324 384 387
f 326 323 324
f 324 387 327
f 295 325 315
f 325 323 326
f 315 325 326
f 315 326 317
f 317 326 327
f 326 324 327
f 327 387 328
f 317 327 320
f 320 327 328
f 321 328 392
f 320 328 321
f 281 349 348
f 281 350 349
f 281 351 350
f 311 392 359
f 384 385 386
f 387 384 386
f 389 388 390
f 389 390 391
f 328 387 386
f 328 386 392
f 29 31 27
f 31 28 27
f 126 36 14
f 62 63 118
f 126 54 36
f 126 123 54
f 126 127 123
f 236 209 103
f 29 27 209
f 236 29 209
f 309 258 342
f 379 342 179
f 309 342 379
f 40 61 39
f 40 43 61
f 43 57 61
f 57 58 61
f 58 62 61
f 40 39 95
f 95 39 102
f 102 39 103
f 128 127 130
f 130 127 135
f 135 127 136
f 136 127 134
f 136 134 139
f 139 134 177
f 177 134 179
f 257 258 118
f 225 229 228
f 229 231 230
f 230 231 233
f 232 233 272
f 230 233 232
f 231 296 233
f 225 243 227
f 227 243 235
f 225 287 229
f 229 287 231
f 225 227 287
f 231 287 296
f 227 288 287
f 227 235 288
f 235 244 289
f 235 289 288
f 244 290 289
f 235 243 244
f 244 243 245
f 244 245 290
f 245 291 290
f 251 232 254
f 260 261 262
f 262 261 331
f 261 263 331
f 254 232 272
f 254 272 273
f 233 276 272
f 272 277 273
f 272 276 277
f 233 274 276
f 233 297 274
f 233 296 297
f 274 275 276
f 330 331 332
f 331 336 332
f 329 332 337
f 333 338 335
f 334 335 341
f 338 341 335
f 332 339 337
f 337 362 338
f 338 340 341
f 337 339 362
f 338 362 340
f 341 340 343
f 357 360 358
f 358 360 361
f 358 361 365
f 339 358 362
f 362 375 340
f 358 366 362
f 362 366 375
f 359 365 361
f 359 363 365
f 358 365 366
f 340 377 343
f 340 375 377
f 104 107 206
f 107 106 206
f 104 250 116
f 104 114 107
f 107 115 106
f 107 114 115
f 218 205 220
f 218 210 205
f 218 219 210
f 220 205 222
f 222 205 237
f 205 239 237
f 205 211 239
f 104 206 207
f 106 210 206
f 206 210 207
f 104 207 208
f 104 208 250
f 207 210 224
f 210 219 224
f 207 224 208
f 228 250 208
f 228 251 250
f 224 228 208
f 228 232 251
f 239 211 212
f 114 211 115
f 114 212 211
f 224 225 228
f 228 229 230
f 228 230 232
f 259 260 262
f 259 262 330
f 259 330 329
f 259 261 260
f 273 299 259
f 274 297 275
f 276 299 277
f 273 277 299
f 259 299 261
f 261 299 263
f 263 301 336
f 263 299 301
f 301 356 336
f 292 275 297
f 275 299 276
f 292 305 275
f 275 305 299
f 307 301 299
f 301 310 356
f 305 307 299
f 307 310 301
f 310 311 356
f 262 331 330
f 330 332 329
f 259 329 334
f 329 337 333
f 329 333 334
f 333 335 334
f 263 336 331
f 332 336 339
f 336 356 339
f 333 337 338
f 356 360 357
f 339 356 357
f 339 357 358
f 360 359 361
f 311 360 356
f 311 359 360
f 104 119 114
f 104 116 119
f 205 210 27
f 210 209 27
f 205 27 28
f 205 28 211
f 257 284 259
f 259 284 281
f 257 259 334
f 257 341 258
f 257 334 341
f 341 342 258
f 341 353 342
f 353 354 342
f 281 284 351
f 284 353 351
f 284 354 353
