# MAAS exact compiled indexed mesh
# program_hash a52c1a3daa5e2bbd162b1469b1ac51e099078001bbe3fded0ecc2930cdeb32be
# geometry_hash 27720fef29a65b990eec4206d5cc6ae4d56ad801bcfc0a7d6b65888ea603e511
v -13.04979346 -9.2394842 0
v -8.22256502 -15.78789357 5.99735735
v -8.22256502 -9.2394842 5.99735735
v -14.01634101 -5.4448185 5.99911912
v -13.04979346 -5.4448185 5.99911912
v -14.01634101 -0.4690317 5.99911912
v -13.04979346 -0.4690317 5.99911912
v -9.07676768 -0.4690317 5.99911912
v -6.28396059 -9.2394842 0
v -6.28396059 -9.2394842 5.99735735
v -6.28396059 -2.9569251 5.99911912
v -6.28396059 -2.9569251 5.99735735
v -6.26047348 -2.9569251 5.99911912
v -6.28396059 -2.64739106 5.99911912
v -6.28396059 -2.64739106 5.99735735
v -6.26047348 -2.63979877 5.99911912
v -14.01634101 -8.03129975 8.04945097
v -13.04979346 -8.03129975 8.04945097
v -13.04979346 -9.2394842 8.80883313
v -13.04979346 -8.03129975 8.80883313
v -8.22256502 -9.2394842 8.80883313
v -8.22256502 -8.03129975 8.80883313
v -14.01634101 -8.03129975 11.99823823
v -8.22256502 -15.78789357 12
v -8.22256502 -8.03129975 11.99823823
v -14.01634101 -5.4448185 8.04945097
v -13.04979346 -5.4448185 8.04945097
v -14.01634101 -5.4448185 11.99823823
v -14.01634101 -0.4690317 11.99823823
v -11.54655435 -2.9569251 11.99823823
v -9.07676768 -0.4690317 11.99823823
v -8.22256502 -3.11154933 12
v -8.22256502 -3.11154933 11.99823823
v -8.27254782 -2.9569251 11.99823823
v -7.8702861 -3.16017609 12
v -7.24151925 -2.9569251 12
v -7.24151925 -2.9569251 11.99823823
v -6.26047348 -2.9569251 11.99823823
v -6.26047348 -2.63979877 11.99823823
v -13.04979346 3.325634 0
v -13.04979346 3.325634 5.99911912
v -10.30340607 3.325634 5.99911912
v -10.30340607 3.325634 5.99735735
v -12.12072432 8.94759666 5.99735735
v -6.28396059 3.325634 0
v -6.28396059 3.325634 5.99735735
v -12.12072432 8.94759666 12
v 6.2811576 -9.2394842 0
v 6.2811576 -9.2394842 5.99735735
v 6.2811576 -2.9569251 5.99911912
v 6.2811576 -2.9569251 5.99735735
v 13.04699047 -9.2394842 0
v 14.01634101 -15.78789357 5.99735735
v 13.04699047 -9.2394842 5.99735735
v 13.04699047 -2.9569251 5.99911912
v 13.04699047 -2.9569251 5.99735735
v 14.01634101 -2.9569251 5.99735735
v 14.01634101 -15.78789357 12
v 14.01634101 -2.9569251 12
v 6.2811576 3.325634 0
v 6.2811576 1.41432545 5.99911912
v 6.2811576 1.41432545 5.99735735
v 6.2811576 3.325634 5.99735735
v 13.04699047 3.325634 0
v 12.19388383 3.325634 5.99911912
v 12.19388383 3.325634 5.99735735
v 13.04699047 3.325634 5.99911912
v 12.98579017 3.58162037 5.99735735
v 9.04007116 15.78789463 5.99735735
v 12.98579017 3.58162037 12
v 9.04007116 15.78789463 12
f 1 9 19
f 1 19 18
f 9 3 19
f 1 40 9
f 1 41 40
f 9 40 45
f 1 5 7
f 1 18 5
f 1 7 41
f 9 10 3
f 9 45 10
f 45 12 10
f 45 11 12
f 45 15 11
f 11 15 14
f 19 20 18
f 19 22 20
f 19 3 21
f 19 21 22
f 18 27 5
f 40 46 45
f 40 41 43
f 41 42 43
f 40 43 46
f 45 46 15
f 48 63 60
f 48 49 51
f 48 51 62
f 48 62 63
f 51 50 62
f 61 62 50
f 48 52 49
f 52 54 49
f 48 60 52
f 52 64 54
f 52 60 64
f 64 56 54
f 64 55 56
f 60 67 64
f 60 63 66
f 60 66 67
f 64 67 55
f 67 66 65
f 17 18 20
f 17 20 23
f 20 25 23
f 20 22 25
f 17 27 18
f 17 26 27
f 17 23 26
f 23 28 26
f 23 33 28
f 28 33 30
f 23 25 33
f 34 30 33
f 41 7 8
f 41 8 42
f 67 50 55
f 61 50 65
f 67 65 50
f 4 7 5
f 4 6 7
f 13 11 14
f 13 14 16
f 4 5 26
f 27 26 5
f 4 29 6
f 4 26 29
f 6 29 7
f 29 8 7
f 29 31 8
f 29 26 28
f 29 28 30
f 29 30 31
f 31 30 34
f 39 37 38
f 16 14 15
f 16 15 62
f 32 34 33
f 31 34 32
f 16 61 39
f 36 37 39
f 36 39 70
f 44 43 42
f 44 46 43
f 44 63 46
f 46 62 15
f 44 42 47
f 47 42 8
f 31 47 8
f 31 32 47
f 32 35 47
f 35 36 47
f 36 70 47
f 44 47 71
f 16 62 61
f 46 63 62
f 44 66 63
f 44 68 66
f 44 69 68
f 68 65 66
f 39 61 65
f 39 65 68
f 39 68 70
f 44 71 69
f 47 70 71
f 68 69 70
f 69 71 70
f 13 16 39
f 39 38 13
f 2 3 10
f 2 10 53
f 13 12 11
f 12 51 10
f 13 51 12
f 2 21 3
f 2 25 21
f 2 24 25
f 21 25 22
f 24 33 25
f 24 32 33
f 24 35 32
f 2 53 24
f 24 58 35
f 36 38 37
f 35 58 36
f 53 10 49
f 49 10 51
f 13 50 51
f 53 49 54
f 53 54 57
f 57 54 56
f 57 56 55
f 24 53 58
f 13 59 50
f 59 13 38
f 36 59 38
f 36 58 59
f 53 57 58
f 59 55 50
f 57 55 59
f 57 59 58
