# MAAS exact compiled indexed mesh
# program_hash a6bda91529504485e7641966dfac2529a74a4052b7cefe45ee92849ad90217d8
# geometry_hash 45586a9d5eaa01ff110a210a1d5d7013739bdae655bb0c601dacadbe9c9217b0
v -11.35778527 -7.64606689 0
v -11.35778527 -7.64606689 4.71428571
v -5.7716483 -9.74104768 4.37755102
v -6.70439385 -7.64606689 4.37755102
v -6.70439385 -7.64606689 4.71428571
v -1.0662444 -7.64606689 4.37755102
v -1.0662444 -7.64606689 4.71428571
v -5.7716483 -9.74104768 9.09183673
v -7.63870895 -5.54756082 8.75510204
v -7.63870895 -5.54756082 9.09183673
v -8.06353632 -8.15877422 12.79591837
v -8.06353632 -8.15877422 16.5
v -8.46840613 -5.27797586 12.79591837
v -8.46840613 -5.27797586 13.13265306
v -11.39495075 -4.32708387 8.75510204
v -10.03947378 -0.15535472 8.75510204
v -10.03947378 -0.15535472 9.09183673
v -11.39495075 -4.32708387 13.13265306
v -1.11430931 -7.66746677 8.75510204
v -1.11430931 -7.66746677 9.09183673
v -2.15702439 -7.3286681 12.79591837
v -2.15702439 -7.3286681 13.13265306
v -11.04272556 2.09798567 4.71428571
v -11.35778527 6.60931206 0
v -11.35778527 6.60931206 4.71428571
v -0.91012058 6.60931206 4.37755102
v -0.91012058 6.60931206 4.71428571
v -11.04272556 2.09798567 9.09183673
v -9.01380876 3.00131763 8.75510204
v -9.01380876 3.00131763 9.09183673
v -9.44533325 1.6732218 12.79591837
v -9.44533325 1.6732218 13.13265306
v -9.68678066 3.39120935 12.79591837
v -8.84886214 3.50897112 12.79591837
v -8.84886214 3.50897112 13.13265306
v -9.68678066 3.39120935 16.5
v -7.19003068 8.61432939 8.75510204
v -7.19003068 8.61432939 13.13265306
v -0.95614957 6.58881863 8.75510204
v -0.95614957 6.58881863 9.09183673
v 9.37731139 -7.64606689 0
v 9.37731139 -7.64606689 4.71428571
v 9.37731139 -2.99629628 4.37755102
v 9.37731139 -2.99629628 4.71428571
v 11.39495005 -2.09798567 4.37755102
v 3.39523584 -9.13270681 8.75510204
v 4.7145439 -5.07229411 8.75510204
v 4.7145439 -5.07229411 9.09183673
v 3.39523584 -9.13270681 13.13265306
v 4.27512431 -6.42468855 12.79591837
v 4.27512431 -6.42468855 13.13265306
v 9.26143903 -5.72390772 12.79591837
v 9.26143903 -5.72390772 16.5
v 11.39495005 -2.09798567 9.09183673
v 9.37731139 2.43370498 4.37755102
v 9.37731139 2.43370498 4.71428571
v 9.37731139 6.60931206 0
v 7.51821134 6.60931206 4.37755102
v 7.51821134 6.60931206 4.71428571
v 6.1238728 9.74104768 4.37755102
v 9.37731139 6.60931206 4.71428571
v 3.27750501 5.21322088 12.79591837
v 3.27750501 5.21322088 13.13265306
v 7.60015591 3.80870646 9.09183673
v 7.60015591 3.80870646 12.79591837
v 6.1238728 9.74104768 9.09183673
v 7.63819469 5.82607584 12.79591837
v 7.63819469 5.82607584 16.5
f 2 4 5
f 1 2 25
f 2 5 23
f 1 41 2
f 2 41 4
f 1 24 41
f 1 25 24
f 2 23 25
f 24 25 26
f 23 27 25
f 24 26 58
f 25 27 26
f 4 41 6
f 6 42 7
f 6 41 42
f 7 42 44
f 41 57 42
f 42 57 43
f 42 43 44
f 24 57 41
f 24 61 57
f 24 58 61
f 43 57 55
f 55 61 56
f 55 57 61
f 58 59 61
f 56 61 59
f 3 5 4
f 3 8 9
f 3 28 5
f 3 9 16
f 3 16 28
f 5 28 23
f 3 4 6
f 3 7 8
f 3 6 7
f 8 10 9
f 8 20 10
f 8 19 20
f 23 28 27
f 27 28 29
f 27 29 39
f 16 17 28
f 17 30 28
f 28 30 29
f 7 44 8
f 8 45 19
f 8 44 45
f 19 45 47
f 43 45 44
f 45 54 47
f 43 55 45
f 45 56 54
f 47 54 48
f 48 54 64
f 26 27 60
f 27 39 66
f 26 60 58
f 27 66 60
f 54 59 60
f 54 56 59
f 45 55 56
f 54 60 66
f 58 60 59
f 39 40 66
f 40 64 66
f 54 66 64
f 9 10 15
f 10 20 18
f 18 13 14
f 9 15 16
f 10 18 15
f 15 17 16
f 15 18 31
f 18 14 32
f 18 32 31
f 18 46 13
f 18 20 46
f 46 21 13
f 49 22 21
f 15 31 34
f 15 38 17
f 15 34 38
f 17 38 30
f 29 30 37
f 29 37 39
f 30 38 37
f 38 34 35
f 37 40 39
f 37 38 62
f 37 65 40
f 38 35 63
f 38 63 62
f 19 46 20
f 46 49 21
f 19 47 46
f 46 48 49
f 46 47 48
f 48 50 49
f 49 51 22
f 49 50 51
f 48 64 50
f 40 65 64
f 37 62 65
f 64 65 50
f 11 22 12
f 11 14 13
f 11 13 21
f 11 36 14
f 11 12 36
f 36 32 14
f 11 21 22
f 12 22 51
f 12 53 36
f 33 31 32
f 33 34 31
f 33 35 34
f 33 32 36
f 33 36 35
f 36 63 35
f 12 51 52
f 12 52 53
f 52 51 50
f 52 50 65
f 52 67 53
f 36 53 68
f 36 68 63
f 67 62 63
f 52 65 67
f 53 67 68
f 67 65 62
f 67 63 68
