# MAAS exact compiled indexed mesh
# program_hash 91f2a072417e75a30ec7f7f2199a4aea4809d74ee77f011d6d8438f63d6f8395
# geometry_hash 0bbc3c42146cff676d593b4bcee3b4dcae2c1096018cd4a272405c88d271cfbd
v -14.58338763 -12.69880091 0
v -14.58338763 -12.69880091 3.50625
v -9.97795583 -10.54000476 3.50625
v -9.97795583 -10.54000476 6.94375
v -5.37252403 -8.3812086 6.94375
v -5.37252403 -8.3812086 10.38125
v -1.92271381 -3.35926266 10.38125
v -0.76709223 -6.22241245 10.38125
v -0.76709223 -3.73474687 10.38125
v -1.92271381 -3.35926266 13.40075
v -0.76709223 -6.22241245 13.81875
v -0.76709223 -3.73474687 13.40075
v -0.76709223 -0.19737483 13.40075
v -14.58338763 12.69880091 0
v -14.58338763 12.69880091 3.50625
v -9.97795583 10.54000476 3.50625
v -9.97795583 10.54000476 6.94375
v -5.37252403 8.3812086 6.94375
v -0.83122321 0 10.38125
v -1.92271381 3.35926266 10.38125
v -0.76709223 3.73474687 10.38125
v -0.76709223 6.22241245 10.38125
v -0.83122321 0 13.40075
v -1.92271381 3.35926266 13.40075
v -0.76709223 3.73474687 13.40075
v -0.76709223 6.22241245 13.81875
v -5.37252403 8.3812086 10.38125
v 2.01987127 -12.69880091 0
v 2.01987127 -12.69880091 3.50625
v 2.01987127 -10.54000476 3.50625
v 2.01987127 -8.94890556 0.6875
v 2.01987127 -8.94890556 3.91325
v 2.01987127 -7.51269911 3.91325
v 4.8664398 -9.87381174 0.6875
v 4.8664398 -9.87381174 3.91325
v 5.1992545 -8.43334495 0.66
v 5.30286186 -8.39148486 0.66
v 4.8664398 -8.44031843 1.2925
v 5.1992545 -8.43334495 1.2925
v 5.30286186 -8.39148486 1.2925
v 4.8664398 -7.60959964 0.6875
v 4.8664398 -7.31130234 0.6875
v 4.8664398 -7.60959964 1.2925
v 4.8664398 -7.31130234 1.2925
v 6.14794444 -9.31342814 1.2925
v 4.8664398 -8.44031843 3.91325
v 4.85882708 -8.43513177 3.91325
v 2.01987127 -10.54000476 6.94375
v 2.01987127 -8.3812086 6.94375
v 2.01987127 -7.51269911 7.07575
v 2.01987127 -6.51143447 7.07575
v 4.85882708 -8.43513177 4.26019
v 4.8664398 -8.43760529 4.26019
v 4.8664398 -7.30389374 4.26019
v 6.14794444 -9.31342814 4.26019
v 6.86495726 -8.66551581 4.26019
v 4.8664398 -8.43760529 7.07575
v 4.01768002 -6.72562007 7.07575
v 4.01768002 -6.72562007 7.16969
v 4.8664398 -7.30389374 7.07575
v 4.8664398 -7.00139884 7.16969
v 6.86495726 -8.66551581 7.16969
v 2.01987127 -0.56409531 0.66
v 2.01987127 -0.56409531 0.6875
v 2.01987127 -0.265798 0.66
v 2.01987127 -0.265798 0.6875
v 2.01987127 -6.07649266 7.07575
v 2.6891779 -6.29396356 7.07575
v 4.8664398 -6.16746906 7.16969
v 12.6157069 -6.56111535 1.2925
v 7.58197009 -8.01760348 7.05331
v 7.58197009 -8.01760348 7.16969
v 12.6157069 -6.56111535 4.26019
v 9.73970226 -6.0678179 1.2925
v 12.41722668 -3.64833387 1.2925
v 12.10640649 -0.00332189 1.2925
v 12.17189163 -0.04793797 1.2925
v 12.16862508 -0 1.2925
v 14.58338944 -1.69093018 1.2925
v 9.73970226 -6.0678179 4.26019
v 10.62597885 -5.26695422 4.26019
v 10.62597885 -5.26695422 7.05331
v 10.62597885 -5.26695422 7.16969
v 12.55000876 -5.59696727 4.26019
v 12.41722668 -3.64833387 4.26019
v 12.55000876 -5.59696727 7.16969
v 11.51225544 -4.46609054 7.16969
v 12.48431062 -4.63281918 7.05331
v 12.48431062 -4.63281918 7.16969
v 12.41722668 -3.64833387 7.05331
v 12.253099 -1.23969054 4.26019
v 12.17189163 -0.04793797 4.26019
v 13.86637661 -2.33884251 4.26019
v 14.58338944 -1.69093018 4.26019
v 12.33430636 -2.43144311 7.16969
v 12.253099 -1.23969054 7.05331
v 12.253099 -1.23969054 7.16969
v 13.14936379 -2.98675483 7.05331
v 13.14936379 -2.98675483 7.16969
v 13.86637661 -2.33884251 7.16969
v 2.01987127 -8.3812086 10.38125
v 4.8664398 -7.00139884 10.23825
v 2.01987127 -6.07649266 10.23825
v 2.01987127 -5.07522802 10.23825
v 2.6891779 -4.85775711 10.23825
v 2.01987127 -4.6402862 10.23825
v 2.01987127 -6.22241245 10.38125
v 4.8664398 -6.16746906 10.07919
v 4.8664398 -5.56519239 10.23825
v 4.8664398 -5.03104437 10.07919
v 2.01987127 -6.22241245 13.81875
v 2.01987127 -4.6402862 13.40075
v 2.8794026 -3.48335841 13.40075
v 2.84446894 -3.37109355 13.40075
v 2.92430856 -3.34515208 13.40075
v 2.8794026 -3.48335841 16.5
v 2.01987127 -3.09132464 13.40075
v 2.62739128 -2.6734801 13.40075
v 2.04315279 -1.97106887 13.40075
v 3.13014461 -2.71165387 13.40075
v 2.04315279 -1.97106887 15.84
v 3.13014461 -2.71165387 15.84
v 4.8664398 -5.56519239 13.40075
v 4.8664398 -5.03104437 12.98869
v 4.8664398 -4.12898593 13.40075
v 4.8664398 -3.89461968 12.98869
v 4.8664398 -4.12898593 16.5
v 4.8664398 -3.89461968 15.84
v 3.92258978 -0.27275839 13.40075
v 3.93357285 -0.23895599 13.40075
v 4.8664398 -1.81893696 15.84
v 3.92258978 -0.27275839 15.84
v 3.93357285 -0.23895599 15.84
v 4.8664398 -0.28069936 16.5
v 6.17524886 -1.94239196 15.84
v 7.04240736 -1.79365538 15.84
v 7.58197009 -8.01760348 10.07919
v 8.29898291 -7.36969116 10.07919
v 8.29898291 -7.36969116 12.98869
v 9.01599574 -6.72177883 12.87231
v 9.01599574 -6.72177883 12.98869
v 9.01599574 -6.72177883 15.84
v 11.51225544 -4.46609054 10.07919
v 12.48431062 -4.63281918 10.07919
v 12.39853203 -3.66522687 10.07919
v 12.41861248 -3.6686711 10.07919
v 12.41722668 -3.64833387 10.07919
v 12.41551373 -3.62319568 10.07919
v 12.43235096 -3.63466716 10.07919
v 12.33430636 -2.43144311 10.07919
v 13.14936379 -2.98675483 10.07919
v 10.27449175 -3.30090768 12.98869
v 8.97442544 -2.41515161 12.98869
v 8.40534679 -2.02742918 12.98869
v 9.90061415 -2.28390011 12.98869
v 9.82012864 -2.27009509 12.98869
v 10.63452965 -2.40978261 12.98869
v 8.40534679 -2.02742918 15.84
v 11.71533814 -4.28257949 12.87231
v 11.71533814 -4.28257949 12.98869
v 12.39853203 -3.66522687 12.98869
v 12.41861248 -3.6686711 12.98869
v 12.41722668 -3.64833387 12.98869
v 12.41568968 -3.6257778 12.98869
v 12.41551373 -3.62319568 12.98869
v 12.43235096 -3.63466716 12.98869
v 11.71533814 -4.28257949 15.84
v 12.35291434 -2.70452301 12.87231
v 12.35291434 -2.70452301 12.98869
v 12.35291434 -2.70452301 15.84
v 2.01987127 0.265798 0.66
v 2.01987127 0.265798 0.6875
v 2.01987127 0.56409531 0.66
v 2.01987127 0.56409531 0.6875
v 2.01987127 2.31756661 0.6875
v 3.02652511 3.05565098 0.6875
v 3.1977752 3.18121253 0.6875
v 4.8664398 2.1068326 1.2925
v 6.82305292 2.24829949 1.2925
v 4.8664398 4.404687 0.6875
v 4.8664398 4.44561929 1.2925
v 4.8664398 4.63945217 1.2925
v 4.8664398 4.94900877 1.2925
v 5.21561662 5.32473765 1.2925
v 5.36465133 5.19540862 1.2925
v 7.05236046 3.73085195 1.2925
v 6.61614682 4.1093885 1.2925
v 5.57887027 5.85620156 1.2925
v 7.04240736 5.60517307 1.2925
v 2.01987127 6.07649266 7.07575
v 4.8664398 6.16746906 7.16969
v 2.01987127 8.94890556 0.6875
v 2.01987127 7.51269911 3.91325
v 2.01987127 8.94890556 3.91325
v 2.01987127 12.69880091 0
v 2.01987127 10.54000476 3.50625
v 2.01987127 12.69880091 3.50625
v 4.8664398 7.31130234 0.6875
v 4.8664398 7.60959964 0.6875
v 4.8664398 7.31130234 1.2925
v 4.8664398 7.60959964 1.2925
v 5.1992545 8.43334495 0.66
v 5.30286186 8.39148486 0.66
v 4.8664398 8.44031843 1.2925
v 5.1992545 8.43334495 1.2925
v 5.30286186 8.39148486 1.2925
v 6.14794444 9.31342814 1.2925
v 4.85882708 8.43513177 3.91325
v 4.8664398 8.44031843 3.91325
v 4.8664398 9.87381174 0.6875
v 4.8664398 9.87381174 3.91325
v 2.01987127 7.51269911 7.07575
v 2.01987127 8.3812086 6.94375
v 2.01987127 10.54000476 6.94375
v 4.8664398 7.30389374 4.26019
v 4.85882708 8.43513177 4.26019
v 4.8664398 8.43760529 4.26019
v 6.14794444 9.31342814 4.26019
v 6.86495726 8.66551581 4.26019
v 4.01768002 6.72562007 7.07575
v 4.01768002 6.72562007 7.16969
v 4.8664398 7.00139884 7.16969
v 4.8664398 7.30389374 7.07575
v 4.8664398 8.43760529 7.07575
v 6.86495726 8.66551581 7.16969
v 8.32705443 2.62470071 1.2925
v 9.25639056 2.85728242 1.2925
v 9.73970226 6.0678179 1.2925
v 12.01176874 0.06115633 1.2925
v 12.17189163 0.04793797 1.2925
v 14.58338944 1.69093018 1.2925
v 12.41722668 3.64833387 1.2925
v 9.73970226 6.0678179 4.26019
v 10.62597885 5.26695422 4.26019
v 10.62597885 5.26695422 7.05331
v 10.62597885 5.26695422 7.16969
v 12.16862508 0 4.26019
v 12.17189163 0.04793797 4.26019
v 12.253099 1.23969054 4.26019
v 13.86637661 2.33884251 4.26019
v 14.58338944 1.69093018 4.26019
v 12.16862508 0 7.05331
v 12.253099 1.23969054 7.05331
v 12.253099 1.23969054 7.16969
v 12.33430636 2.43144311 7.16969
v 13.14936379 2.98675483 7.05331
v 13.14936379 2.98675483 7.16969
v 13.86637661 2.33884251 7.16969
v 12.41722668 3.64833387 4.26019
v 12.55000876 5.59696727 4.26019
v 11.51225544 4.46609054 7.16969
v 12.41722668 3.64833387 7.05331
v 12.48431062 4.63281918 7.05331
v 12.48431062 4.63281918 7.16969
v 12.55000876 5.59696727 7.16969
v 12.6157069 6.56111535 1.2925
v 7.58197009 8.01760348 7.05331
v 7.58197009 8.01760348 7.16969
v 12.6157069 6.56111535 4.26019
v 2.01987127 4.6402862 10.23825
v 2.01987127 6.07649266 10.23825
v 2.01987127 6.22241245 10.38125
v 4.8664398 5.03104437 10.07919
v 4.8664398 5.56519239 10.23825
v 4.8664398 6.16746906 10.07919
v 2.04315279 1.97106887 13.40075
v 2.01987127 3.09132464 13.40075
v 2.84969748 2.52058073 13.40075
v 3.13014461 2.71165387 13.40075
v 2.04315279 1.97106887 15.84
v 3.13014461 2.71165387 15.84
v 2.01987127 3.41038004 13.40075
v 2.01987127 4.6402862 13.40075
v 2.92430856 3.34515208 13.40075
v 2.8794026 3.48335841 13.40075
v 2.01987127 6.22241245 13.81875
v 2.8794026 3.48335841 16.5
v 3.94985558 0 13.40075
v 3.92258978 0.27275839 13.40075
v 3.93357285 0.23895599 13.40075
v 3.94985558 0 15.84
v 4.00385808 0.02264029 15.84
v 4.01121436 0 15.84
v 3.92258978 0.27275839 15.84
v 3.93357285 0.23895599 15.84
v 4.01121436 0 16.5
v 4.8664398 0.38656635 15.84
v 4.8664398 0.3842735 15.84
v 4.87438645 0.38760509 15.84
v 5.22000052 0.99455406 15.84
v 5.71050477 0.52920571 15.84
v 6.02041959 0.23518512 15.84
v 6.51728207 0.74106035 15.84
v 6.95914582 0.48016688 15.84
v 4.8664398 3.89461968 12.98869
v 4.8664398 4.12898593 13.40075
v 4.8664398 5.03104437 12.98869
v 4.8664398 5.56519239 13.40075
v 4.8664398 3.89461968 15.84
v 4.8664398 4.12898593 16.5
v 2.01987127 8.3812086 10.38125
v 4.8664398 7.00139884 10.23825
v 12.16862508 0 10.07919
v 12.33430636 2.43144311 10.07919
v 13.14936379 2.98675483 10.07919
v 11.51225544 4.46609054 10.07919
v 12.41551373 3.62319568 10.07919
v 12.39853203 3.66522687 10.07919
v 12.41722668 3.64833387 10.07919
v 12.41861248 3.6686711 10.07919
v 12.43235096 3.63466716 10.07919
v 12.48431062 4.63281918 10.07919
v 8.40534679 2.02742918 12.98869
v 8.97442544 2.41515161 12.98869
v 9.82012864 2.27009509 12.98869
v 9.65911179 2.88163943 12.98869
v 10.63452965 2.40978261 12.98869
v 8.40534679 2.02742918 15.84
v 9.15170486 1.43186491 15.84
v 10.27449175 3.30090768 12.98869
v 12.16862508 0 12.87231
v 12.35291434 2.70452301 12.87231
v 12.35291434 2.70452301 12.98869
v 12.16862508 0 15.84
v 12.35291434 2.70452301 15.84
v 11.71533814 4.28257949 12.87231
v 11.71533814 4.28257949 12.98869
v 12.41551373 3.62319568 12.98869
v 12.39853203 3.66522687 12.98869
v 12.40045229 3.66349167 12.98869
v 12.41722668 3.64833387 12.98869
v 12.41861248 3.6686711 12.98869
v 12.43235096 3.63466716 12.98869
v 11.71533814 4.28257949 15.84
v 8.29898291 7.36969116 10.07919
v 7.58197009 8.01760348 10.07919
v 9.01599574 6.72177883 12.87231
v 9.01599574 6.72177883 12.98869
v 8.29898291 7.36969116 12.98869
v 9.01599574 6.72177883 15.84
f 185 182 183
f 184 185 183
f 184 183 188
f 188 183 200
f 188 200 206
f 205 201 204
f 205 204 207
f 188 207 189
f 188 206 207
f 205 207 206
f 207 204 209
f 208 216 209
f 207 209 218
f 207 218 219
f 218 209 216
f 230 232 231
f 230 231 241
f 230 241 238
f 232 249 231
f 249 240 231
f 231 240 241
f 207 228 189
f 219 233 228
f 207 219 228
f 258 191 265
f 257 236 235
f 257 306 236
f 245 247 305
f 236 306 251
f 252 309 246
f 246 309 247
f 257 258 335
f 258 265 336
f 245 305 304
f 247 309 311
f 247 311 305
f 258 336 335
f 257 335 306
f 270 266 279
f 270 268 266
f 270 269 268
f 270 279 284
f 270 271 269
f 270 284 271
f 289 290 287
f 289 291 290
f 290 299 287
f 290 293 318
f 290 318 299
f 338 295 299
f 313 314 334
f 313 334 318
f 314 316 334
f 316 320 334
f 337 327 326
f 337 338 334
f 337 334 327
f 318 334 299
f 338 299 340
f 340 299 334
f 338 340 334
f 320 327 334
f 219 215 223
f 219 223 225
f 221 223 220
f 225 223 221
f 234 257 235
f 239 240 248
f 239 248 243
f 249 246 240
f 240 246 248
f 243 248 244
f 246 247 248
f 249 252 246
f 219 225 233
f 234 233 225
f 234 225 257
f 257 225 258
f 335 263 297
f 335 297 339
f 339 308 306
f 339 337 308
f 307 311 333
f 311 309 331
f 308 327 329
f 307 333 328
f 311 331 333
f 308 326 327
f 337 326 308
f 335 339 306
f 339 338 337
f 185 181 182
f 179 226 229
f 226 227 229
f 187 228 186
f 187 189 228
f 186 256 227
f 186 228 256
f 228 233 259
f 76 229 230
f 76 230 78
f 229 232 230
f 227 232 229
f 78 230 238
f 78 238 237
f 227 256 232
f 232 256 249
f 249 256 250
f 250 256 259
f 228 259 256
f 242 243 244
f 242 244 303
f 303 244 245
f 251 306 254
f 252 253 309
f 253 254 310
f 303 245 304
f 254 306 312
f 253 310 309
f 254 312 310
f 130 133 278
f 281 278 133
f 281 133 283
f 289 288 131
f 289 131 291
f 135 292 131
f 291 131 292
f 135 136 292
f 281 283 282
f 313 325 315
f 315 325 317
f 293 294 318
f 294 319 318
f 313 318 325
f 318 319 325
f 321 322 323
f 317 325 323
f 321 323 325
f 321 325 324
f 324 325 319
f 237 238 243
f 242 237 243
f 238 239 243
f 249 253 252
f 249 255 253
f 234 235 255
f 234 255 250
f 249 250 255
f 235 236 255
f 253 255 254
f 303 322 321
f 303 304 322
f 304 307 322
f 307 323 322
f 308 332 310
f 309 310 331
f 307 328 323
f 308 329 332
f 310 332 331
f 36 37 39
f 39 37 40
f 36 63 65
f 36 65 37
f 74 70 73
f 74 73 80
f 74 75 70
f 84 73 70
f 84 70 85
f 70 75 85
f 76 78 77
f 77 78 92
f 78 237 92
f 179 178 181
f 184 188 185
f 185 179 181
f 187 179 185
f 187 186 179
f 187 185 188
f 187 188 189
f 179 186 226
f 186 227 226
f 87 89 144
f 88 147 89
f 88 90 147
f 95 97 150
f 96 242 97
f 97 242 303
f 87 144 143
f 89 146 144
f 89 147 146
f 97 303 150
f 292 136 158
f 292 158 294
f 156 155 170
f 154 156 170
f 154 170 158
f 158 170 294
f 170 319 294
f 168 321 169
f 157 170 155
f 157 169 170
f 169 321 170
f 170 321 324
f 170 324 319
f 281 280 278
f 281 285 280
f 281 282 285
f 289 287 288
f 290 291 293
f 291 292 293
f 292 294 293
f 81 86 82
f 81 84 86
f 84 88 86
f 84 85 88
f 85 90 88
f 82 86 83
f 86 88 89
f 91 92 96
f 92 237 96
f 96 237 242
f 145 146 162
f 146 147 163
f 145 162 161
f 146 163 162
f 148 169 165
f 148 150 168
f 150 303 168
f 148 168 169
f 303 321 168
f 39 38 43
f 39 45 38
f 39 40 45
f 40 74 45
f 55 46 38
f 52 47 46
f 45 55 38
f 55 52 46
f 40 44 178
f 40 178 74
f 45 74 55
f 55 74 56
f 56 74 80
f 74 178 75
f 75 178 79
f 75 79 85
f 85 79 93
f 93 79 94
f 77 94 79
f 77 92 94
f 77 178 179
f 76 77 179
f 76 179 229
f 77 79 178
f 72 137 69
f 71 82 72
f 72 83 137
f 72 82 83
f 83 87 137
f 90 98 147
f 98 99 149
f 95 150 99
f 137 108 69
f 87 138 137
f 87 143 138
f 98 149 147
f 99 151 149
f 99 150 151
f 121 119 120
f 121 129 119
f 121 120 122
f 121 122 132
f 121 132 129
f 142 128 126
f 135 128 142
f 135 131 128
f 135 158 136
f 141 142 126
f 140 159 141
f 141 159 142
f 142 159 160
f 153 167 152
f 135 142 158
f 142 160 167
f 142 167 158
f 154 167 153
f 154 158 167
f 152 167 160
f 56 62 54
f 56 71 62
f 62 60 54
f 59 58 60
f 62 59 60
f 56 80 71
f 80 81 71
f 62 71 72
f 81 82 71
f 85 98 90
f 85 93 100
f 85 100 98
f 91 100 93
f 91 96 100
f 98 100 99
f 96 97 100
f 138 139 110
f 139 124 110
f 138 140 139
f 139 140 141
f 138 143 159
f 138 159 140
f 143 145 159
f 147 149 163
f 148 166 149
f 145 160 159
f 145 161 160
f 149 166 163
f 148 165 166
f 203 171 173
f 202 203 173
f 202 205 203
f 205 206 203
f 175 192 176
f 180 177 198
f 192 199 176
f 192 194 210
f 192 210 199
f 194 211 210
f 190 261 221
f 190 221 220
f 261 222 221
f 261 302 222
f 277 269 271
f 286 277 271
f 275 274 277
f 274 269 277
f 275 277 296
f 280 284 279
f 280 285 284
f 286 285 282
f 286 284 285
f 286 282 283
f 286 271 284
f 134 300 286
f 286 300 277
f 296 277 300
f 193 216 208
f 193 212 216
f 212 224 216
f 224 217 216
f 19 24 20
f 20 24 21
f 19 23 24
f 21 24 25
f 260 273 264
f 264 273 298
f 31 64 34
f 31 35 32
f 31 34 35
f 66 172 42
f 177 42 172
f 34 64 41
f 175 176 174
f 180 42 177
f 68 58 59
f 68 59 102
f 102 59 61
f 67 68 103
f 68 102 103
f 113 122 115
f 113 116 122
f 113 127 116
f 115 122 120
f 116 132 122
f 116 286 132
f 113 125 127
f 133 130 129
f 116 127 134
f 129 132 133
f 116 134 286
f 286 133 132
f 286 283 133
f 33 47 52
f 33 57 50
f 33 52 57
f 57 52 53
f 7 9 12
f 7 23 19
f 7 12 10
f 7 10 23
f 106 105 123
f 106 123 112
f 105 109 123
f 1 29 2
f 1 2 15
f 1 14 28
f 1 28 29
f 1 15 14
f 14 15 195
f 14 195 28
f 15 197 195
f 5 49 101
f 5 101 6
f 5 6 27
f 5 27 18
f 18 27 213
f 27 301 213
f 3 4 16
f 3 48 4
f 3 30 48
f 4 17 16
f 16 17 196
f 17 214 196
f 8 12 9
f 8 11 12
f 11 13 12
f 11 26 13
f 21 26 22
f 21 25 26
f 13 26 25
f 8 107 111
f 8 111 11
f 22 26 262
f 26 276 262
f 218 217 215
f 218 216 217
f 218 215 219
f 238 240 239
f 238 241 240
f 234 259 233
f 234 250 259
f 80 84 81
f 80 73 84
f 55 53 52
f 55 56 53
f 56 54 53
f 91 93 94
f 91 94 92
f 193 211 194
f 193 208 211
f 211 208 209
f 32 47 33
f 32 35 46
f 32 46 47
f 2 29 3
f 2 3 16
f 3 29 30
f 2 16 15
f 15 16 197
f 16 196 197
f 225 221 222
f 225 222 191
f 258 225 191
f 244 247 245
f 244 248 247
f 236 251 255
f 251 254 255
f 83 89 87
f 83 86 89
f 62 61 59
f 72 69 61
f 62 72 61
f 95 99 100
f 95 100 97
f 51 68 67
f 190 220 224
f 190 224 212
f 224 220 223
f 50 68 51
f 50 60 68
f 50 57 60
f 68 60 58
f 4 5 17
f 4 48 5
f 5 48 49
f 5 18 17
f 17 18 214
f 18 213 214
f 336 265 263
f 336 263 335
f 304 305 307
f 307 305 311
f 306 308 312
f 308 310 312
f 143 144 145
f 144 146 145
f 137 138 108
f 138 110 108
f 148 149 151
f 148 151 150
f 104 105 106
f 260 302 261
f 260 264 302
f 103 105 104
f 103 109 105
f 102 109 103
f 6 101 8
f 6 8 9
f 6 9 7
f 6 7 19
f 6 19 20
f 6 20 27
f 27 20 22
f 20 21 22
f 27 22 301
f 8 101 107
f 22 262 301
f 339 297 295
f 315 316 314
f 315 317 316
f 316 317 330
f 339 295 338
f 317 328 330
f 320 329 327
f 328 331 330
f 328 333 331
f 154 153 156
f 316 329 320
f 317 323 328
f 316 330 329
f 330 331 332
f 329 330 332
f 153 152 155
f 153 155 156
f 152 164 155
f 152 161 164
f 161 162 163
f 161 163 164
f 157 165 169
f 313 315 314
f 141 126 124
f 139 141 124
f 152 160 161
f 155 164 165
f 163 166 164
f 164 166 165
f 157 155 165
f 13 25 23
f 23 25 24
f 117 118 119
f 118 120 119
f 114 115 118
f 115 120 118
f 117 119 266
f 119 129 130
f 279 119 130
f 117 266 267
f 119 279 266
f 267 266 268
f 272 274 275
f 272 298 273
f 272 275 298
f 130 278 279
f 278 280 279
f 275 296 298
f 10 12 13
f 10 13 23
f 112 114 117
f 112 113 114
f 112 125 113
f 113 115 114
f 117 114 118
f 112 123 125
f 267 268 274
f 274 268 269
f 267 274 272
f 11 111 276
f 11 276 26
f 37 44 40
f 37 42 44
f 65 66 42
f 37 65 42
f 203 172 171
f 203 177 172
f 203 198 177
f 206 200 198
f 203 206 198
f 28 31 30
f 28 30 29
f 28 63 31
f 30 31 32
f 30 32 48
f 32 33 48
f 33 49 48
f 33 50 49
f 49 50 103
f 50 51 103
f 28 65 63
f 28 171 65
f 28 173 171
f 28 175 173
f 31 63 64
f 65 171 66
f 51 67 103
f 49 103 101
f 101 103 107
f 103 104 107
f 104 106 107
f 106 111 107
f 106 112 111
f 111 112 117
f 111 117 267
f 28 195 175
f 171 172 66
f 175 174 173
f 175 195 192
f 192 196 194
f 192 195 197
f 192 197 196
f 193 194 212
f 194 196 212
f 196 213 212
f 190 212 261
f 212 213 261
f 196 214 213
f 260 261 262
f 260 262 273
f 111 267 272
f 111 272 276
f 272 273 276
f 262 276 273
f 213 262 261
f 213 301 262
f 36 39 41
f 39 43 41
f 36 64 63
f 36 41 64
f 173 174 176
f 173 176 199
f 202 173 199
f 202 199 201
f 202 201 205
f 34 41 43
f 34 38 35
f 34 43 38
f 35 38 46
f 57 53 54
f 57 54 60
f 102 61 69
f 44 42 178
f 180 178 42
f 102 69 108
f 102 108 109
f 109 108 110
f 109 110 124
f 109 124 123
f 123 124 125
f 125 124 126
f 125 126 127
f 127 126 128
f 127 128 131
f 127 131 134
f 134 131 288
f 180 181 178
f 180 182 181
f 180 183 182
f 180 198 200
f 180 200 183
f 210 201 199
f 210 204 201
f 210 209 204
f 210 211 209
f 215 217 223
f 224 223 217
f 191 222 265
f 264 263 302
f 302 263 265
f 264 297 263
f 264 298 297
f 134 288 287
f 134 287 299
f 134 299 300
f 296 295 297
f 296 299 295
f 296 297 298
f 296 300 299
f 302 265 222
