# MAAS exact compiled indexed mesh
# program_hash 8f9b378c4ac3b06b657058b48fa2a3326996067d00108f54fbd866b0d20e6a7f
# geometry_hash b5b879c2d9ee22baf492f4390654349e57c5fb94936ae8ef8675a0c826d544d4
v -7.40447757 -9.68465464 3.12015431
v -8.6202907 -8.6202907 0
v -7.86051299 -6.26682819 3.12015431
v -6.05857578 -10.57886965 6.24030861
v -6.96263455 -7.25138057 6.24030861
v -8.6202907 -5.17217442 0
v -8.6202907 -1.72405814 0
v -8.3165484 -2.84900175 3.12015431
v -7.86669333 -3.92389148 6.24030861
v -8.7707521 -0.5964024 6.24030861
v -3.98665113 -9.22861922 3.12015431
v -5.17217442 -8.6202907 0
v -1.72405814 -8.6202907 0
v -0.56882469 -8.77258381 3.12015431
v -2.73108669 -9.67481088 6.24030861
v -5.17217442 -5.17217442 0
v -5.17217442 -1.72405814 0
v -1.72405814 -5.17217442 0
v -1.72405814 -1.72405814 0
v -7.27862895 -4.92984268 9.36046292
v -8.61482775 -1.75115134 9.36046292
v -9.97719031 -1.23145183 15.60077153
v -6.56268693 -5.84918186 12.48061722
v -7.85431795 -3.94860454 15.60077153
v -8.30755019 -2.87513444 12.48061722
v -4.60623135 -11.28722536 9.36046292
v -5.94243015 -8.10853402 9.36046292
v -1.42754001 -9.95102656 9.36046292
v -3.07296041 -11.79727671 12.48061722
v -3.60857324 -9.38290995 15.60077153
v -4.81782367 -8.82322929 12.48061722
v -5.73144559 -6.66575725 15.60077153
v -0.09891299 -10.05241345 12.48061722
v -1.48570088 -12.10006266 15.60077153
v -0.89142053 -7.2600376 15.60077153
v -5.13716524 -1.82573218 15.60077153
v -3.01429288 -4.54288489 15.60077153
v -0.29714018 -2.42001253 15.60077153
v -9.22861922 3.98665113 3.12015431
v -8.6202907 1.72405814 0
v -8.77258381 0.56882469 3.12015431
v -8.6202907 5.17217442 0
v -9.67481088 2.73108669 6.24030861
v -9.68465464 7.40447757 3.12015431
v -8.6202907 8.6202907 0
v -6.26682819 7.86051299 3.12015431
v -10.57886965 6.05857578 6.24030861
v -7.25138057 6.96263455 6.24030861
v -5.17217442 1.72405814 0
v -5.17217442 5.17217442 0
v -1.72405814 1.72405814 0
v -1.72405814 5.17217442 0
v -5.17217442 8.6202907 0
v -1.72405814 8.6202907 0
v -2.84900175 8.3165484 3.12015431
v -3.92389148 7.86669333 6.24030861
v -0.5964024 8.7707521 6.24030861
v -9.95102656 1.42754001 9.36046292
v -11.28722536 4.60623135 9.36046292
v -8.10853402 5.94243015 9.36046292
v -10.05241345 0.09891299 12.48061722
v -12.10006266 1.48570088 15.60077153
v -11.79727671 3.07296041 12.48061722
v -9.38290995 3.60857324 15.60077153
v -7.2600376 0.89142053 15.60077153
v -8.82322929 4.81782367 12.48061722
v -6.66575725 5.73144559 15.60077153
v -4.54288489 3.01429288 15.60077153
v -2.42001253 0.29714018 15.60077153
v -1.82573218 5.13716524 15.60077153
v -4.92984268 7.27862895 9.36046292
v -1.75115134 8.61482775 9.36046292
v -5.84918186 6.56268693 12.48061722
v -3.94860454 7.85431795 15.60077153
v -2.87513444 8.30755019 12.48061722
v -1.23145183 9.97719031 15.60077153
v 1.72405814 -8.6202907 0
v 2.84900175 -8.3165484 3.12015431
v 5.17217442 -8.6202907 0
v 0 -9.18620029 7.80038576
v 0.5964024 -8.7707521 6.24030861
v 1.17377687 -8.69278993 7.80038576
v 2.83752141 -8.24076054 7.80038576
v 3.92389148 -7.86669333 6.24030861
v 4.42686708 -7.57266114 7.80038576
v 1.72405814 -5.17217442 0
v 1.72405814 -1.72405814 0
v 5.17217442 -5.17217442 0
v 5.17217442 -1.72405814 0
v 8.6202907 -8.6202907 0
v 6.26682819 -7.86051299 3.12015431
v 9.68465464 -7.40447757 3.12015431
v 7.25138057 -6.96263455 6.24030861
v 6.09061162 -7.12063175 7.80038576
v 7.67995729 -6.45253235 7.80038576
v 10.57886965 -6.05857578 6.24030861
v 8.6202907 -5.17217442 0
v 8.6202907 -1.72405814 0
v 8.77258381 -0.56882469 3.12015431
v 9.22861922 -3.98665113 3.12015431
v 9.34370184 -6.00050296 7.80038576
v 10.93304751 -5.33240356 7.80038576
v 9.67481088 -2.73108669 6.24030861
v 0 -9.35094399 9.36046292
v 0 -9.97555348 12.31379936
v 1.75115134 -8.61482775 9.36046292
v 4.92984268 -7.27862895 9.36046292
v 0 -9.99438155 12.48061722
v 0 -10.04682059 12.71260155
v 0 -10.93930592 15.60077153
v 1.23145183 -9.97719031 15.60077153
v 2.87513444 -8.30755019 12.48061722
v 0 -7.36949028 15.60077153
v 5.84918186 -6.56268693 12.48061722
v 3.94860454 -7.85431795 15.60077153
v 1.82573218 -5.13716524 15.60077153
v 1.81056432 -3.34464613 15.60077153
v 2.05306249 -3.15518579 15.60077153
v 1.81056432 -3.48376625 16.5
v 2.24502053 -3.14433186 16.5
v 1.81056432 -2.22433529 16.5
v 2.48218711 -2.90341987 15.60077153
v 1.81056432 -0.49103117 16.5
v 2.45468263 -1.43677101 16.5
v 3.04874125 -2.46077927 15.60077153
v 3.203632 -2.39538249 16.5
v 3.47786586 -2.20901335 15.60077153
v 4.04442 -1.76637274 15.60077153
v 4.47354462 -1.51460683 15.60077153
v 4.16224348 -1.64643312 16.5
v 3.41329411 -0.68782165 16.5
v 4.54288489 -3.01429288 15.60077153
v 5.04009876 -1.07196622 15.60077153
v 5.12085495 -0.89748376 16.5
v 5.46922337 -0.82020031 15.60077153
v 6.03577751 -0.3775597 15.60077153
v 8.10853402 -5.94243015 9.36046292
v 11.28722536 -4.60623135 9.36046292
v 9.95102656 -1.42754001 9.36046292
v 8.82322929 -4.81782367 12.48061722
v 6.66575725 -5.73144559 15.60077153
v 6.07946643 -0.14853439 16.5
v 7.2600376 -0.89142053 15.60077153
v 11.79727671 -3.07296041 12.48061722
v 9.38290995 -3.60857324 15.60077153
v 10.05241345 -0.09891299 12.48061722
v 12.10006266 -1.48570088 15.60077153
v 1.72405814 1.72405814 0
v 1.72405814 5.17217442 0
v 5.17217442 1.72405814 0
v 5.17217442 5.17217442 0
v 1.72405814 8.6202907 0
v 0.56882469 8.77258381 3.12015431
v 5.17217442 8.6202907 0
v 3.98665113 9.22861922 3.12015431
v 0 9.18620029 7.80038576
v 0.4155688 9.36088933 7.80038576
v 2.73108669 9.67481088 6.24030861
v 2.07931335 9.81291872 7.80038576
v 3.66865902 10.48101812 7.80038576
v 6.00050296 9.34370184 7.80038576
v 5.33240356 10.93304751 7.80038576
v 8.6202907 1.72405814 0
v 8.3165484 2.84900175 3.12015431
v 8.6202907 5.17217442 0
v 8.7707521 0.5964024 6.24030861
v 9.03658379 0.3559236 7.80038576
v 8.69278993 1.17377687 7.80038576
v 8.26203521 2.75921761 7.80038576
v 7.86669333 3.92389148 6.24030861
v 7.72495425 4.06457609 7.80038576
v 7.57266114 4.42686708 7.80038576
v 8.6202907 8.6202907 0
v 7.86051299 6.26682819 3.12015431
v 7.40447757 9.68465464 3.12015431
v 6.96263455 7.25138057 6.24030861
v 7.12063175 6.09061162 7.80038576
v 6.45253235 7.67995729 7.80038576
v 6.05857578 10.57886965 6.24030861
v 0.29714018 2.42001253 15.60077153
v 1.91539537 1.2294013 16.5
v 2.66434474 0.27078983 16.5
v 1.81056432 2.108925 16.5
v 2.12505748 2.93696215 16.5
v 2.87400685 1.97835067 16.5
v 0 4.91299352 15.60077153
v 1.81056432 4.09588789 15.60077153
v 2.13462029 4.34906816 15.60077153
v 1.81056432 4.23500801 16.5
v 3.00638551 4.03427994 15.60077153
v 2.5637449 4.60083408 15.60077153
v 3.01429288 4.54288489 15.60077153
v 2.33471959 4.64452299 16.5
v 3.62295622 1.0197392 16.5
v 4.37190558 0.06112772 16.5
v 4.39519855 2.04292243 15.60077153
v 3.95255795 2.60947657 15.60077153
v 3.83261833 2.72730004 16.5
v 5.08960507 1.04724367 15.60077153
v 5.34137099 0.61811906 15.60077153
v 5.7840116 0.05156492 15.60077153
v 5.33051706 0.81007709 16.5
v 4.64696447 1.61379781 15.60077153
v 5.13716524 1.82573218 15.60077153
v 4.58156769 1.76868856 16.5
v 3.25815142 3.60515532 15.60077153
v 3.70079203 3.03860118 15.60077153
v 3.08366896 3.68591151 16.5
v 0 9.35094399 9.36046292
v 1.42754001 9.95102656 9.36046292
v 0 9.97555348 12.31379936
v 5.94243015 8.10853402 9.36046292
v 4.60623135 11.28722536 9.36046292
v 0.89142053 7.2600376 15.60077153
v 0 9.99438155 12.48061722
v 0.09891299 10.05241345 12.48061722
v 0 10.04682059 12.71260155
v 0 10.93930592 15.60077153
v 1.48570088 12.10006266 15.60077153
v 4.81782367 8.82322929 12.48061722
v 5.73144559 6.66575725 15.60077153
v 3.07296041 11.79727671 12.48061722
v 3.60857324 9.38290995 15.60077153
v 8.61482775 1.75115134 9.36046292
v 7.27862895 4.92984268 9.36046292
v 8.30755019 2.87513444 12.48061722
v 6.56268693 5.84918186 12.48061722
v 7.85431795 3.94860454 15.60077153
v 9.97719031 1.23145183 15.60077153
f 2 3 6
f 1 2 12
f 2 6 12
f 6 16 12
f 1 3 2
f 1 4 5
f 1 5 3
f 5 4 27
f 6 8 7
f 6 7 16
f 6 3 8
f 7 17 16
f 7 40 17
f 7 8 41
f 5 9 3
f 3 9 8
f 5 20 9
f 8 9 10
f 8 10 41
f 9 21 10
f 1 12 11
f 11 12 13
f 12 16 13
f 13 16 18
f 13 77 14
f 13 18 77
f 11 13 14
f 1 11 4
f 11 15 4
f 4 15 26
f 11 14 15
f 15 81 28
f 28 81 80
f 14 81 15
f 16 17 18
f 17 49 19
f 18 19 86
f 17 19 18
f 19 51 87
f 5 27 20
f 20 27 23
f 10 21 58
f 21 61 58
f 9 20 21
f 20 25 21
f 20 23 25
f 21 25 61
f 22 61 25
f 23 24 25
f 23 32 24
f 22 25 24
f 22 24 36
f 22 36 65
f 4 26 27
f 26 31 27
f 26 28 29
f 26 29 31
f 23 27 31
f 15 28 26
f 28 80 104
f 28 33 29
f 28 104 105
f 28 105 33
f 30 31 29
f 23 31 32
f 30 32 31
f 30 35 32
f 32 35 37
f 29 33 34
f 34 33 109
f 33 108 109
f 33 105 108
f 30 29 34
f 30 34 110
f 34 109 110
f 30 110 113
f 30 113 35
f 35 113 37
f 24 32 37
f 24 37 36
f 36 69 65
f 37 113 38
f 36 37 38
f 36 38 69
f 38 113 186
f 39 44 42
f 7 41 40
f 17 40 49
f 40 42 49
f 39 40 41
f 39 42 40
f 42 50 49
f 39 41 43
f 10 58 43
f 39 43 47
f 39 47 44
f 43 59 47
f 10 43 41
f 42 44 45
f 42 45 50
f 45 53 50
f 46 53 45
f 44 46 45
f 44 47 48
f 44 48 46
f 47 60 48
f 49 50 51
f 19 49 51
f 51 52 148
f 50 52 51
f 50 53 52
f 53 55 54
f 46 55 53
f 52 53 54
f 52 54 149
f 54 55 153
f 46 48 56
f 46 56 55
f 48 71 56
f 55 56 57
f 55 57 153
f 56 72 57
f 57 72 156
f 57 156 157
f 43 58 59
f 58 61 63
f 47 59 60
f 58 63 59
f 59 63 66
f 59 66 60
f 66 73 60
f 61 62 63
f 22 62 61
f 62 64 63
f 22 65 62
f 62 65 64
f 63 64 66
f 64 65 68
f 66 67 73
f 64 67 66
f 64 68 67
f 48 60 71
f 60 73 71
f 65 69 68
f 67 68 70
f 68 69 186
f 69 38 186
f 68 186 70
f 56 71 72
f 71 73 75
f 71 75 72
f 72 209 156
f 72 75 211
f 72 211 209
f 73 74 75
f 67 74 73
f 67 70 74
f 74 76 75
f 70 76 74
f 70 186 218
f 70 218 76
f 75 215 211
f 75 217 215
f 75 76 217
f 76 218 217
f 18 86 77
f 77 86 79
f 14 77 78
f 77 79 78
f 79 86 88
f 79 91 78
f 14 78 81
f 78 84 81
f 81 82 80
f 81 84 82
f 84 83 82
f 78 91 84
f 84 91 93
f 84 85 83
f 84 93 94
f 84 94 85
f 86 87 88
f 19 87 86
f 87 148 89
f 87 89 88
f 79 90 91
f 79 88 90
f 88 97 90
f 90 97 92
f 91 90 92
f 91 92 93
f 93 95 94
f 93 96 101
f 93 101 95
f 92 96 93
f 88 89 97
f 97 98 100
f 89 98 97
f 89 150 98
f 98 163 99
f 100 98 99
f 92 97 100
f 103 99 166
f 92 100 96
f 100 103 96
f 96 103 102
f 96 102 101
f 103 138 102
f 100 99 103
f 103 166 139
f 166 167 139
f 103 139 138
f 51 148 87
f 148 149 150
f 52 149 148
f 89 148 150
f 149 151 150
f 54 152 149
f 54 153 152
f 149 152 151
f 152 153 155
f 151 152 154
f 152 155 154
f 154 155 175
f 57 158 153
f 153 158 155
f 57 157 158
f 158 157 159
f 158 159 160
f 155 158 179
f 155 179 175
f 158 160 179
f 179 162 161
f 179 160 162
f 98 150 163
f 150 151 163
f 164 99 163
f 151 165 163
f 164 163 165
f 164 165 174
f 164 166 99
f 164 170 166
f 166 168 167
f 170 168 166
f 170 169 168
f 170 224 169
f 164 174 170
f 170 174 176
f 170 176 177
f 170 177 172
f 170 171 224
f 170 172 171
f 151 154 165
f 154 173 165
f 154 175 173
f 165 173 174
f 174 173 175
f 174 175 176
f 176 178 177
f 176 179 161
f 176 161 178
f 175 179 176
f 171 225 224
f 167 224 139
f 106 105 104
f 80 106 104
f 80 82 106
f 82 83 106
f 106 112 105
f 106 83 107
f 107 83 85
f 107 85 94
f 106 107 112
f 107 114 112
f 112 108 105
f 112 109 108
f 112 111 109
f 111 110 109
f 111 113 110
f 112 115 111
f 111 115 113
f 116 113 115
f 112 114 115
f 116 115 141
f 114 141 115
f 116 117 113
f 116 118 117
f 116 122 118
f 116 132 122
f 117 187 113
f 180 186 113
f 180 113 187
f 116 141 132
f 122 132 125
f 125 132 127
f 127 132 128
f 128 132 129
f 129 132 133
f 132 135 133
f 132 143 135
f 107 94 137
f 137 94 95
f 137 95 101
f 107 137 114
f 114 137 140
f 137 101 138
f 101 102 138
f 137 138 140
f 138 139 144
f 138 144 140
f 146 144 139
f 114 140 141
f 132 141 145
f 141 140 145
f 132 145 143
f 135 143 136
f 136 143 201
f 201 143 200
f 140 144 145
f 146 147 144
f 143 145 147
f 143 147 229
f 144 147 145
f 146 229 147
f 180 187 186
f 187 188 186
f 191 214 186
f 188 191 186
f 191 190 214
f 190 192 214
f 197 196 204
f 207 197 204
f 203 199 204
f 199 200 204
f 204 200 143
f 196 203 204
f 192 206 207
f 190 206 192
f 192 207 204
f 192 204 228
f 192 228 221
f 157 156 209
f 210 157 209
f 210 159 157
f 210 160 159
f 210 209 216
f 216 209 211
f 210 216 222
f 212 220 227
f 210 213 160
f 213 162 160
f 212 161 213
f 213 161 162
f 210 222 213
f 213 222 220
f 212 213 220
f 214 218 186
f 216 211 215
f 216 215 217
f 216 217 219
f 216 219 222
f 214 223 218
f 219 217 218
f 219 223 222
f 219 218 223
f 220 221 227
f 192 221 214
f 214 221 223
f 220 223 221
f 222 223 220
f 168 224 167
f 168 169 224
f 146 224 226
f 171 172 225
f 177 225 172
f 225 227 226
f 225 226 224
f 146 139 224
f 204 143 229
f 226 228 229
f 204 229 228
f 227 228 226
f 221 228 227
f 146 226 229
f 212 225 177
f 212 177 178
f 212 178 161
f 212 227 225
f 117 118 119
f 118 122 120
f 118 120 119
f 119 120 121
f 122 125 126
f 120 122 126
f 120 126 121
f 121 126 124
f 121 124 123
f 123 124 131
f 123 131 182
f 125 127 126
f 124 126 130
f 126 127 130
f 127 128 130
f 128 129 130
f 124 130 131
f 182 131 195
f 131 130 134
f 131 134 195
f 129 133 134
f 133 135 134
f 129 134 130
f 195 134 142
f 135 136 142
f 136 201 142
f 134 135 142
f 123 182 181
f 123 181 183
f 182 194 181
f 181 194 185
f 181 185 183
f 183 185 184
f 184 185 198
f 183 184 189
f 187 189 188
f 188 189 193
f 184 208 189
f 184 198 208
f 188 193 191
f 191 193 190
f 189 208 193
f 190 193 208
f 182 195 194
f 195 202 194
f 194 202 205
f 185 194 205
f 185 205 198
f 196 198 205
f 197 198 196
f 207 198 197
f 195 142 202
f 203 205 199
f 199 202 200
f 199 205 202
f 201 200 202
f 201 202 142
f 196 205 203
f 190 208 206
f 207 206 208
f 207 208 198
f 117 119 187
f 119 121 187
f 121 123 187
f 123 183 187
f 183 189 187
