# MAAS exact compiled indexed mesh
# program_hash c9b24bf662d03f3b8b3e925ed1277ff21bcf8f0d1fbf3625d314688958b5caa9
# geometry_hash 8dc39eaa27f90c8798d4a62c1eb169b68e1b0428d23fe79be8bfb7e9e4a62b4b
v -9.65166187 -11.80335227 0.00089306
v -2.60472307 -11.80528241 0
v -2.60472307 -11.80335227 0.00089306
v -2.60472307 -2.3210887 0.00089306
v -2.60472307 -2.3210887 0
v -2.33245426 -2.36708324 0
v -1.92917429 -2.15265548 0.00089306
v -1.92917429 -2.15265548 0
v -1.25362551 -2.15265548 0.00089306
v -1.25362551 -1.79345982 0.00089306
v -9.65166187 -11.80335227 8.93154251
v -2.60472307 -11.80528241 8.93243558
v -2.60472307 -11.80335227 8.93154251
v -2.60472307 -2.3210887 8.93154251
v -2.60472307 -2.3210887 8.93243558
v -2.33245426 -2.36708324 8.93243558
v -1.92917429 -2.15265548 8.93154251
v -1.92917429 -2.15265548 8.93243558
v -1.25362551 -2.15265548 8.93154251
v -1.25362551 -1.79345982 8.93154251
v -9.65166187 7.49804132 0.00089306
v -7.05637616 6.05125309 0
v -7.05637616 6.05125309 0.00089306
v -4.33536325 7.49804132 0.00089306
v -9.65166187 7.49804132 8.93154251
v -7.05637616 6.05125309 8.93243558
v -7.05637616 6.05125309 8.93154251
v -4.33536325 7.49804132 8.93154251
v 9.65166187 -11.80528241 0
v 9.65166187 -2.15265548 0
v 9.65166187 -11.80528241 8.93243558
v 9.65166187 -2.15265548 8.93243558
v 3.76536941 11.80527728 0
v 8.29609712 3.28421777 0
v 4.82583093 5.90263736 0
v 6.90385873 5.90263736 0
v 4.82583093 9.81083923 0
v 3.76536941 11.80527728 8.93243558
v 8.29609712 3.28421777 8.93243558
v 4.82583093 5.90263736 8.93243558
v 5.5705961 7.30333691 8.93243558
v 5.5705961 7.30333691 9.899997
v 5.5705961 8.41013968 8.93243558
v 5.5705961 8.41013968 9.899997
v 6.15909357 7.30333691 8.93243558
v 6.90385873 5.90263736 8.93243558
v 6.15909357 7.30333691 9.899997
v 4.82583093 9.81083923 8.93243558
f 1 3 13
f 1 21 3
f 3 23 4
f 7 10 9
f 1 13 11
f 11 13 14
f 1 11 25
f 11 14 27
f 17 19 20
f 3 21 23
f 1 25 21
f 21 24 23
f 21 25 24
f 11 27 25
f 24 25 28
f 25 27 28
f 7 8 10
f 17 20 18
f 4 23 22
f 22 23 24
f 4 22 5
f 5 22 6
f 6 22 8
f 8 22 34
f 22 24 33
f 15 26 27
f 26 28 27
f 14 15 27
f 15 16 26
f 16 18 26
f 18 39 26
f 24 28 38
f 26 38 28
f 8 34 10
f 10 34 20
f 18 20 39
f 22 35 34
f 22 37 35
f 22 33 37
f 24 38 33
f 33 38 37
f 34 35 36
f 34 36 46
f 26 39 40
f 38 48 37
f 26 40 48
f 26 48 38
f 20 34 39
f 34 46 39
f 39 46 40
f 35 37 36
f 37 48 36
f 43 36 48
f 43 45 36
f 45 46 36
f 41 43 40
f 45 40 46
f 41 40 45
f 43 48 40
f 43 44 45
f 44 47 45
f 42 47 44
f 9 10 20
f 9 20 19
f 2 3 5
f 2 13 3
f 3 4 5
f 2 5 6
f 7 9 8
f 2 12 13
f 12 14 13
f 12 15 14
f 12 16 15
f 17 18 19
f 2 6 29
f 2 29 12
f 6 8 30
f 8 9 30
f 29 30 31
f 6 30 29
f 9 32 30
f 12 31 16
f 9 19 32
f 16 31 18
f 18 32 19
f 12 29 31
f 30 32 31
f 18 31 32
f 41 45 47
f 41 47 42
f 41 42 43
f 42 44 43
