# MAAS exact compiled indexed mesh
# program_hash 68c174b60d764ba7f00f4eb992f776decdb807e35de455fcc4874126ace87cbc
# geometry_hash c9a4d1762673f57f53e312cc06d157c5232abef8b920b727320de4cd37a286e8
v -20.14641473 -9.70012561 0
v -9.70012561 -9.70012561 0
v -20.14641473 -9.70012561 8.81012658
v -21.63874174 -7.83471684 8.05063291
v -20.14641473 -7.83471684 8.05063291
v -20.14641473 -7.83471684 8.81012658
v -21.63874174 -7.83471684 12
v -9.70012561 -9.70012561 8.81012658
v -9.70012561 -7.83471684 8.05063291
v -9.70012561 -7.83471684 8.81012658
v -20.14641473 9.70012561 0
v -9.70012561 9.70012561 0
v -20.14641473 0 6
v -21.63874174 0 8.05063291
v -20.14641473 0 8.05063291
v -21.63874174 0 12
v -20.14641473 9.70012561 6
v -21.63874174 7.83471684 8.05063291
v -20.14641473 7.83471684 8.05063291
v -20.14641473 7.83471684 8.81012658
v -20.14641473 9.70012561 8.81012658
v -21.63874174 7.83471684 12
v -9.70012561 0 6
v -9.70012561 0 8.05063291
v -7.79410167 3.6636984 8.05063291
v -6.77206062 3.29804271 10.326408
v -9.70012561 9.70012561 6
v -9.70012561 7.83471684 8.05063291
v -9.70012561 7.83471684 8.81012658
v -9.70012561 9.70012561 8.81012658
v -7.79410167 7.83471684 8.05063291
v -6.77206062 6.84020892 9.09856241
v -7.79410167 7.83471684 9.42665016
v -6.77206062 7.83471684 9.42665016
v -6.77206062 7.83471684 11.13652433
v 9.70012561 -9.70012561 0
v 20.14641473 -9.70012561 0
v 0 -7.83471684 8.05063291
v 9.70012561 -9.70012561 6
v 9.70012561 -9.70012561 8.81012658
v 9.70012561 -7.83471684 8.05063291
v 9.70012561 -7.83471684 8.81012658
v 0 -7.83471684 12
v 20.14641473 -9.70012561 6
v 20.14641473 -9.70012561 8.81012658
v 20.14641473 -7.83471684 8.05063291
v 21.63874174 -7.83471684 8.05063291
v 20.14641473 -7.83471684 8.81012658
v 21.63874174 -7.83471684 12
v 9.70012561 9.70012561 0
v 20.14641473 9.70012561 0
v 0 0 8.05063291
v 9.70012561 2.59963366 7.6995984
v 9.70012561 3.6636984 8.05063291
v 0 0 12
v 9.70012561 9.70012561 6
v 9.70012561 9.70012561 6.49288208
v 18.17758172 2.59963366 7.6995984
v 17.92207146 3.29804271 10.326408
v 18.17758172 9.70012561 6.49288208
v 20.14641473 9.70012561 6
v 18.17758172 7.83471684 8.81012658
v 18.17758172 9.70012561 8.81012658
v 20.14641473 7.83471684 8.05063291
v 21.63874174 7.83471684 8.05063291
v 20.14641473 7.83471684 8.81012658
v 20.14641473 9.70012561 8.81012658
v 17.92207146 6.84020892 9.09856241
v 17.92207146 7.83471684 9.42665016
v 18.17758172 7.83471684 9.42665016
v 17.92207146 7.83471684 11.13652433
v 21.63874174 7.83471684 12
f 1 2 3
f 1 3 5
f 1 5 13
f 2 8 3
f 1 11 2
f 2 12 8
f 8 12 9
f 3 6 5
f 3 8 6
f 6 8 10
f 5 15 13
f 8 9 10
f 9 23 24
f 1 17 11
f 2 11 12
f 1 13 17
f 11 27 12
f 11 17 27
f 9 12 23
f 12 27 23
f 36 39 56
f 36 37 39
f 37 44 39
f 36 50 37
f 37 51 44
f 36 56 50
f 37 50 51
f 51 61 44
f 50 61 51
f 50 56 61
f 4 5 6
f 4 15 5
f 4 6 7
f 6 10 7
f 4 7 14
f 7 43 16
f 4 14 15
f 7 16 14
f 9 52 38
f 9 43 10
f 7 10 43
f 9 38 43
f 9 24 52
f 16 43 55
f 13 15 19
f 13 19 17
f 19 20 21
f 19 21 17
f 20 29 21
f 21 30 17
f 27 17 30
f 21 29 30
f 27 24 23
f 27 28 24
f 28 30 29
f 27 30 28
f 39 40 41
f 41 40 42
f 39 41 56
f 41 54 53
f 39 44 40
f 40 45 42
f 40 44 45
f 42 45 48
f 46 45 44
f 46 48 45
f 46 44 64
f 41 53 56
f 56 53 57
f 64 44 61
f 57 60 56
f 60 61 56
f 60 63 61
f 62 67 63
f 64 67 66
f 62 66 67
f 64 61 67
f 63 67 61
f 14 19 15
f 14 16 18
f 22 16 55
f 14 18 19
f 18 20 19
f 18 16 22
f 18 22 20
f 20 22 29
f 29 22 35
f 25 24 28
f 25 54 24
f 25 28 31
f 28 29 31
f 31 29 33
f 29 35 33
f 33 35 34
f 22 72 35
f 41 38 52
f 41 42 38
f 42 43 38
f 42 49 43
f 49 55 43
f 41 52 54
f 46 47 48
f 42 48 49
f 47 49 48
f 46 65 47
f 47 65 49
f 54 52 24
f 22 55 72
f 46 64 65
f 49 72 55
f 49 65 72
f 64 66 65
f 35 72 71
f 62 70 66
f 69 71 70
f 66 70 71
f 65 66 72
f 66 71 72
f 26 32 34
f 26 34 35
f 26 59 32
f 26 35 59
f 32 59 68
f 35 71 59
f 59 71 68
f 68 71 69
f 25 32 54
f 25 31 33
f 25 33 32
f 32 33 34
f 32 58 54
f 32 68 58
f 53 54 58
f 53 58 57
f 57 58 60
f 58 68 70
f 58 70 62
f 58 62 63
f 58 63 60
f 68 69 70
