# MAAS exact compiled indexed mesh
# program_hash 35d175d8d4cda4ce2b05415e001ac7ebf93a0cabc4970bbed4ca99e1f184c378
# geometry_hash c571bc155e79172880ac5f8d9ddd1dc87e8279ffcf6bd7eeb0420b87e7968d9b
v -19.09366976 -9.98359791 0
v -21.70924096 -3.90575924 0
v -19.09366976 -3.90575924 0
v -16.47809856 -1.52782987 0
v -16.47809856 -0.94866767 0
v -21.70924096 -3.90575924 3.86195563
v -19.09366976 -3.90575924 3.86195563
v -19.09366976 -0.94866767 3.86195563
v -16.47809856 -0.94866767 3.86195563
v -19.09366976 -9.98359791 8
v -19.09366976 -0.94866767 8
v -18.45837514 0.94866767 0
v -16.47809856 0.94866767 0
v -21.70924096 3.90575924 0
v -19.09366976 3.90575924 0
v -19.09366976 0.94866767 3.86195563
v -16.47809856 0.94866767 3.86195563
v -21.70924096 3.90575924 3.86195563
v -19.09366976 3.90575924 3.86195563
v -19.09366976 9.98359791 0
v -19.09366976 0.94866767 8
v -19.09366976 9.98359791 8
v 21.70924096 -9.98359791 0
v 21.70924096 -0.94866767 0
v 21.70924096 -9.98359791 8
v 21.70924096 -0.94866767 8
v 21.70924096 0.94866767 0
v 21.70924096 9.98359791 0
v 21.70924096 0.94866767 8
v 21.70924096 9.98359791 8
f 1 7 3
f 1 11 7
f 1 3 23
f 23 3 4
f 1 23 10
f 24 4 5
f 24 5 9
f 1 10 11
f 11 8 7
f 11 9 8
f 10 25 11
f 11 26 9
f 23 4 24
f 24 9 26
f 23 24 25
f 10 23 25
f 11 25 26
f 24 26 25
f 15 13 12
f 20 15 19
f 20 19 22
f 20 27 15
f 27 13 15
f 27 17 13
f 21 17 27
f 21 19 16
f 21 16 17
f 21 22 19
f 21 29 22
f 20 22 30
f 20 28 27
f 20 30 28
f 27 28 29
f 21 27 29
f 22 29 30
f 28 30 29
f 2 3 6
f 13 9 5
f 6 3 7
f 6 7 8
f 2 6 18
f 6 8 16
f 8 9 16
f 2 18 14
f 14 19 15
f 17 9 13
f 6 16 18
f 16 9 17
f 14 18 19
f 18 16 19
f 2 12 3
f 3 12 5
f 4 3 5
f 2 14 12
f 12 13 5
f 14 15 12
