# MAAS exact compiled indexed mesh
# program_hash 3810fbab457e1eea04414e6e1eb3c3cd92838235b36ffab08c355ac97aa4602a
# geometry_hash a11f87a0b683be233203b4acfc64d0377b048c3c71bfdd7d59f711d6fff06929
v -15.9482707 -6.4079258 0.00159626
v -14.48072677 -8.11850725 0.00159626
v -12.65661929 -9.64404686 0.00159626
v -10.52086384 -10.94698078 0.00159626
v -10.14871744 -6.33054729 0.00159626
v -17.02311528 -4.55442269 0.00159626
v -17.67879426 -2.60363732 0.00159626
v -17.89916266 -0.60360451 0.00159626
v -11.91930944 -3.97825148 0.00159626
v -11.17075696 -5.20156353 0.00159626
v -12.37594301 -2.69073314 0.00159626
v -12.52941386 -1.37071148 0.00159626
v -12.37594301 -0.05068983 0.00159626
v -8.1260498 -11.99522644 0.00159626
v -6.90396274 -12.35680147 0.00159626
v -7.39095575 -8.19733982 0.00159626
v -6.90396274 -8.39935377 0.00159626
v -8.87835687 -7.33740344 0.00159626
v -15.9482707 -6.4079258 9.89840374
v -14.48072677 -8.11850725 9.89840374
v -12.65661929 -9.64404686 9.89840374
v -10.52086384 -10.94698078 9.89840374
v -10.14871744 -6.33054729 9.89840374
v -17.02311528 -4.55442269 9.89840374
v -17.67879426 -2.60363732 9.89840374
v -17.89916266 -0.60360451 9.89840374
v -11.91930944 -3.97825148 9.89840374
v -11.17075696 -5.20156353 9.89840374
v -12.37594301 -2.69073314 9.89840374
v -12.52941386 -1.37071148 9.89840374
v -12.37594301 -0.05068983 9.89840374
v -8.1260498 -11.99522644 9.89840374
v -6.90396274 -12.35680147 9.89840374
v -7.39095575 -8.19733982 9.89840374
v -6.90396274 -8.39935377 9.89840374
v -8.87835687 -7.33740344 9.89840374
v -17.67879426 1.3964283 0.00159626
v -17.02311528 3.34721366 0.00159626
v -15.9482707 5.20071677 0.00159626
v -11.91930944 1.23682851 0.00159626
v -11.17075696 2.46014056 0.00159626
v -10.14871744 3.58912433 0.00159626
v -14.48072677 6.91129823 0.00159626
v -12.65661929 8.43683784 0.00159626
v -10.52086384 9.73977175 0.00159626
v -8.87835687 4.59598047 0.00159626
v -7.39095575 5.45591685 0.00159626
v -5.72313883 6.14775899 0.00159626
v -8.1260498 10.78801742 0.00159626
v -5.53114545 11.55576354 0.00159626
v -3.9159733 6.65447143 0.00159626
v -2.01395757 6.96357724 0.00159626
v -0.06392558 7.0674652 0.00159626
v -2.80004593 12.02410567 0.00159626
v -17.67879426 1.3964283 9.89840374
v -17.02311528 3.34721366 9.89840374
v -15.9482707 5.20071677 9.89840374
v -11.91930944 1.23682851 9.89840374
v -11.17075696 2.46014056 9.89840374
v -10.14871744 3.58912433 9.89840374
v -14.48072677 6.91129823 9.89840374
v -12.65661929 8.43683784 9.89840374
v -10.52086384 9.73977175 9.89840374
v -8.87835687 4.59598047 9.89840374
v -7.39095575 5.45591685 9.89840374
v -5.72313883 6.14775899 9.89840374
v -8.1260498 10.78801742 9.89840374
v -5.53114545 11.55576354 9.89840374
v -3.9159733 6.65447143 9.89840374
v -2.01395757 6.96357724 9.89840374
v -0.06392558 7.0674652 9.89840374
v -2.80004593 12.02410567 9.89840374
v 6.52040925 -12.47028222 0.00159626
v 8.1260498 -11.99522644 0.00159626
v 6.52040925 -8.50542395 0.00159626
v 7.26310459 -8.19733982 0.00159626
v 8.75050571 -7.33740344 0.00159626
v 10.52086384 -10.94698078 0.00159626
v 12.65661929 -9.64404686 0.00159626
v 10.02086628 -6.33054729 0.00159626
v 14.48072677 -8.11850725 0.00159626
v 15.9482707 -6.4079258 0.00159626
v 11.0429058 -5.20156353 0.00159626
v 11.79145827 -3.97825148 0.00159626
v 12.24809185 -2.69073314 0.00159626
v 12.24809185 -0.05068983 0.00159626
v 12.4015627 -1.37071148 0.00159626
v 17.02311528 -4.55442269 0.00159626
v 17.67879426 -2.60363732 0.00159626
v 17.89916266 -0.60360451 0.00159626
v 6.52040925 -12.47028222 9.89840374
v 8.1260498 -11.99522644 9.89840374
v 6.52040925 -8.50542395 9.89840374
v 7.26310459 -8.19733982 9.89840374
v 8.75050571 -7.33740344 9.89840374
v 10.52086384 -10.94698078 9.89840374
v 12.65661929 -9.64404686 9.89840374
v 10.02086628 -6.33054729 9.89840374
v 14.48072677 -8.11850725 9.89840374
v 15.9482707 -6.4079258 9.89840374
v 11.0429058 -5.20156353 9.89840374
v 11.79145827 -3.97825148 9.89840374
v 12.24809185 -2.69073314 9.89840374
v 12.24809185 -0.05068983 9.89840374
v 12.4015627 -1.37071148 9.89840374
v 17.02311528 -4.55442269 9.89840374
v 17.67879426 -2.60363732 9.89840374
v 17.89916266 -0.60360451 9.89840374
v 5.59528767 6.14775899 0.00159626
v 8.75050571 4.59598047 0.00159626
v 7.26310459 5.45591685 0.00159626
v 8.94958133 6.0185632 0.00159626
v 1.88610641 6.96357724 0.00159626
v 3.78812214 6.65447143 0.00159626
v 0 12.18151167 0.00159626
v 2.80004593 12.02410567 0.00159626
v 8.94958133 7.35007583 0.00159626
v 8.94958133 9.0960328 0.00159626
v 5.53114545 11.55576354 0.00159626
v 8.1260498 10.78801742 0.00159626
v 8.94958133 10.42754544 0.00159626
v 11.0429058 2.46014056 0.00159626
v 11.79145827 1.23682851 0.00159626
v 10.02086628 3.58912433 0.00159626
v 10.02474604 5.30191313 0
v 10.02474604 5.30191313 0.00159626
v 10.02474604 6.0185632 0.00159626
v 17.67879426 1.3964283 0.00159626
v 15.24790151 5.30191313 0
v 15.24790151 5.30191313 0.00159626
v 15.24790151 6.01707295 0.00159626
v 17.02311528 3.34721366 0.00159626
v 15.9482707 5.20071677 0.00159626
v 10.02474604 7.35007583 0.00159626
v 10.02474604 8.15252641 0.00159626
v 10.02474604 8.15252641 0
v 10.02474604 8.22305432 0
v 9.71975444 9.0960328 0.00159626
v 10.47222511 8.22305432 0.00159626
v 10.47222511 8.22305432 0
v 10.91970417 8.22305432 0.00159626
v 10.91970417 8.36770342 0.00159626
v 9.14834057 10.86372948 0
v 15.24790151 8.22305432 0
v 15.0163835 9.69196873 0
v 14.11828489 12.47028061 0
v 5.59528767 6.14775899 9.89840374
v 8.75050571 4.59598047 9.89840374
v 7.26310459 5.45591685 9.89840374
v 8.94958133 6.0185632 9.89840374
v 1.88610641 6.96357724 9.89840374
v 3.78812214 6.65447143 9.89840374
v 0 12.18151167 9.89840374
v 2.80004593 12.02410567 9.89840374
v 8.94958133 7.35007583 9.89840374
v 8.94958133 9.0960328 9.89840374
v 5.53114545 11.55576354 9.89840374
v 8.1260498 10.78801742 9.89840374
v 8.94958133 10.42754544 9.89840374
v 11.0429058 2.46014056 9.89840374
v 11.79145827 1.23682851 9.89840374
v 10.02086628 3.58912433 9.89840374
v 10.02474604 5.30191313 9.9
v 10.02474604 5.30191313 9.89840374
v 10.02474604 6.0185632 9.89840374
v 17.67879426 1.3964283 9.89840374
v 15.24790151 5.30191313 9.9
v 15.24790151 5.30191313 9.89840374
v 15.24790151 6.01707295 9.89840374
v 17.02311528 3.34721366 9.89840374
v 15.9482707 5.20071677 9.89840374
v 10.02474604 7.35007583 9.89840374
v 10.02474604 8.15252641 9.89840374
v 10.02474604 8.15252641 9.9
v 9.71975444 9.0960328 9.89840374
v 10.1886505 8.13138788 9.9
v 10.47222511 8.22305432 9.89840374
v 10.47222511 8.22305432 9.9
v 10.91970417 8.22305432 9.89840374
v 10.91970417 8.36770342 9.89840374
v 9.14834057 10.86372948 9.9
v 15.24790151 8.22305432 9.9
v 15.0163835 9.69196873 9.9
v 14.11828489 12.47028061 9.9
f 15 17 33
f 17 35 33
f 73 93 75
f 73 91 93
f 3 10 5
f 3 9 10
f 3 5 4
f 4 5 18
f 2 3 20
f 1 2 19
f 3 4 21
f 4 14 22
f 1 6 39
f 6 7 38
f 7 8 37
f 1 43 2
f 3 11 9
f 3 12 11
f 2 44 3
f 3 44 12
f 1 24 6
f 6 25 7
f 7 26 8
f 4 16 14
f 14 16 15
f 15 16 17
f 4 18 16
f 14 15 33
f 2 20 19
f 4 22 21
f 3 21 20
f 22 32 36
f 21 22 28
f 21 28 27
f 22 36 23
f 22 23 28
f 1 19 24
f 6 24 25
f 7 25 26
f 19 57 24
f 24 56 25
f 25 55 26
f 19 20 61
f 21 27 29
f 21 29 30
f 20 21 62
f 21 30 62
f 14 32 22
f 14 33 32
f 32 33 35
f 32 35 34
f 32 34 36
f 7 37 38
f 6 38 39
f 1 39 43
f 2 43 44
f 12 44 13
f 13 44 40
f 40 45 41
f 41 45 42
f 42 45 46
f 8 55 37
f 37 56 38
f 38 57 39
f 40 44 45
f 45 49 46
f 39 61 43
f 43 62 44
f 44 63 45
f 46 49 47
f 47 49 50
f 47 50 48
f 48 50 51
f 51 54 52
f 52 115 53
f 50 54 51
f 52 54 115
f 45 67 49
f 49 68 50
f 50 72 54
f 54 153 115
f 8 26 55
f 37 55 56
f 38 56 57
f 39 57 61
f 25 56 55
f 24 57 56
f 19 61 57
f 20 62 61
f 30 31 62
f 31 58 62
f 58 59 62
f 59 60 63
f 60 64 63
f 43 61 62
f 44 62 63
f 45 63 67
f 59 63 62
f 49 67 68
f 50 68 72
f 54 72 153
f 63 64 65
f 65 66 67
f 63 65 67
f 66 69 68
f 66 68 67
f 68 69 70
f 70 71 72
f 68 70 72
f 71 153 72
f 73 75 74
f 74 75 76
f 74 76 77
f 73 74 92
f 74 78 92
f 74 77 78
f 77 80 78
f 78 80 83
f 78 83 84
f 78 84 79
f 78 79 96
f 79 81 97
f 81 82 99
f 79 84 85
f 79 85 87
f 79 130 81
f 79 87 130
f 81 133 82
f 82 132 88
f 88 128 89
f 89 128 90
f 82 88 100
f 88 89 106
f 89 90 107
f 73 92 91
f 91 92 94
f 91 94 93
f 92 96 94
f 94 96 95
f 78 96 92
f 79 97 96
f 81 99 97
f 82 100 99
f 95 96 98
f 96 101 98
f 96 97 101
f 97 102 101
f 88 106 100
f 89 107 106
f 90 108 107
f 97 103 102
f 97 105 103
f 97 99 168
f 97 168 105
f 99 100 171
f 100 106 170
f 106 107 166
f 107 108 166
f 111 112 110
f 53 115 113
f 113 116 114
f 113 115 116
f 114 116 119
f 114 120 109
f 111 109 120
f 111 120 112
f 112 120 117
f 120 118 117
f 114 119 120
f 121 118 120
f 115 154 116
f 116 157 119
f 121 120 158
f 119 158 120
f 87 86 130
f 86 123 130
f 122 130 123
f 110 112 126
f 112 127 126
f 122 124 130
f 110 130 124
f 110 126 130
f 81 130 133
f 82 133 132
f 88 132 128
f 133 130 131
f 90 128 108
f 128 132 166
f 133 131 169
f 132 133 170
f 115 153 154
f 116 154 157
f 119 157 158
f 121 158 159
f 71 151 153
f 151 152 154
f 151 154 153
f 152 157 154
f 152 147 157
f 149 158 147
f 149 148 158
f 148 150 158
f 150 155 158
f 158 155 156
f 147 158 157
f 159 158 156
f 108 128 166
f 132 170 166
f 133 171 170
f 133 169 171
f 105 168 104
f 104 168 161
f 160 161 168
f 150 162 160
f 150 160 164
f 148 162 150
f 150 164 165
f 160 168 164
f 99 171 168
f 100 170 171
f 106 166 170
f 171 169 168
f 5 23 18
f 9 27 10
f 9 11 29
f 5 10 28
f 11 12 30
f 12 13 31
f 16 34 17
f 16 18 36
f 18 23 36
f 10 27 28
f 9 29 27
f 5 28 23
f 11 30 29
f 12 31 30
f 16 36 34
f 17 34 35
f 13 40 58
f 40 41 59
f 41 42 60
f 42 46 64
f 46 47 65
f 47 48 66
f 48 51 69
f 51 52 70
f 52 53 71
f 13 58 31
f 40 59 58
f 41 60 59
f 42 64 60
f 46 65 64
f 47 66 65
f 48 69 66
f 51 70 69
f 52 71 70
f 75 93 76
f 76 94 77
f 77 95 80
f 80 98 83
f 83 101 84
f 84 102 85
f 85 103 87
f 87 105 86
f 76 93 94
f 77 94 95
f 80 95 98
f 83 98 101
f 84 101 102
f 85 102 103
f 87 103 105
f 105 104 86
f 111 149 109
f 111 110 148
f 53 113 151
f 113 114 152
f 114 109 147
f 122 160 124
f 86 104 123
f 122 123 161
f 110 124 162
f 109 149 147
f 111 148 149
f 53 151 71
f 113 152 151
f 114 147 152
f 123 104 161
f 122 161 160
f 110 162 148
f 124 160 162
f 112 117 155
f 121 159 118
f 112 150 127
f 112 155 150
f 159 156 118
f 150 165 127
f 134 117 118
f 134 118 138
f 134 138 135
f 139 142 141
f 134 172 117
f 138 118 156
f 172 155 117
f 138 156 175
f 172 173 155
f 175 156 155
f 173 175 155
f 177 179 180
f 135 138 136
f 136 143 137
f 137 143 140
f 139 140 142
f 140 145 142
f 136 138 143
f 140 143 145
f 143 146 145
f 142 145 180
f 138 181 143
f 143 184 146
f 145 146 183
f 138 175 181
f 143 181 184
f 180 145 183
f 146 184 183
f 173 174 175
f 174 176 181
f 176 178 181
f 177 180 178
f 178 180 183
f 174 181 175
f 178 183 181
f 181 183 184
f 141 142 180
f 141 180 179
f 125 126 127
f 125 127 134
f 125 130 126
f 125 129 130
f 129 131 130
f 125 134 136
f 134 135 136
f 139 141 140
f 125 136 129
f 136 137 129
f 137 140 129
f 140 141 144
f 140 144 129
f 129 144 131
f 134 127 172
f 144 169 131
f 141 182 144
f 163 165 164
f 163 172 165
f 163 164 168
f 163 168 167
f 167 168 169
f 172 127 165
f 141 179 182
f 144 182 169
f 163 174 172
f 163 176 174
f 172 174 173
f 177 178 179
f 163 167 176
f 176 167 178
f 178 182 179
f 178 167 182
f 167 169 182
