# MAAS exact compiled indexed mesh
# program_hash cd810b92ce9d70a33986a71acb6c59c1ad5d45dca41ee36913dfb70a5131b0cf
# geometry_hash 0de6c842070c4e022fb6f27b26f16ef1a8b436788ec301ea4dc79402f5228f4a
v -18.97731155 -12.01826941 3.31673631
v -2.3838113 -12.01826941 3.31673631
v -2.3838113 -10.97166844 3.31673631
v -18.97731155 -12.01826941 11.4
v -2.3838113 -12.01826941 11.4
v -2.3838113 -10.97166844 10.7533389
v -0.69745017 -5.86544566 10.7533389
v -2.3838113 -3.70700184 10.7533389
v -18.97731155 12.01826941 3.31673631
v -2.3838113 3.70700184 3.31673631
v -2.3838113 5.77783783 3.31673631
v -0.69745017 5.86544566 3.31673631
v -2.3838113 10.97166844 3.31673631
v -2.3838113 12.01826941 3.31673631
v -18.97731155 12.01826941 11.4
v -2.3838113 10.97166844 10.7533389
v -2.3838113 12.01826941 11.4
v 8.16882324 -19.21629013 3.31673631
v 17.84695784 -6.82884274 3.31673631
v 8.16882324 -19.21629013 10.7533389
v 1.45582944 -5.97731028 10.7533389
v 17.84695784 -6.82884274 10.7533389
v 1.45582944 5.97731028 3.31673631
v 9.10643772 0 3.31673631
v 8.83135535 10.8461593 2.35989344
v 8.83135535 11.97170144 2.35989344
v 8.64089049 9.60814507 3.31673631
v 8.64089049 11.40893037 3.49521477
v 8.83135535 11.40893037 3.49521477
v 8.83135535 11.97170144 3.49521477
v 9.1202107 11.97170144 3.49521477
v 8.64089049 12.58520334 3.49521477
v 8.16882324 19.21629013 3.31673631
v 8.64089049 18.6120716 3.31673631
v 17.84695784 6.82884274 3.31673631
v 13.5400609 10.8461593 1.155e-05
v 13.5400609 11.97170144 1.155e-05
v 10.77635847 10.8461593 2.35989344
v 10.77635847 11.97170144 2.35989344
v 15.48506402 10.8461593 1.155e-05
v 15.48506402 11.97170144 1.155e-05
v 10.04781817 11.97170144 3.49521477
v 10.77635847 11.40893037 3.49521477
v 10.77635847 11.97170144 3.49521477
v 11.45474585 11.40893037 3.49521477
v 10.04781817 13.20971568 3.49521477
v 11.45474585 13.20971568 3.49521477
v 12.86167352 11.40893037 3.49521477
v 13.5400609 11.40893037 3.49521477
v 13.5400609 11.97170144 3.49521477
v 13.82891625 11.97170144 3.49521477
v 12.86167352 13.20971568 3.49521477
v 10.04781817 15.01050099 3.49521477
v 10.04781817 16.8112863 3.49521477
v 11.45474585 15.01050099 3.49521477
v 14.75652372 11.97170144 3.49521477
v 15.67552888 9.60814507 3.31673631
v 15.48506402 11.40893037 3.49521477
v 15.48506402 11.97170144 3.49521477
v 16.16345139 11.40893037 3.49521477
v 14.75652372 13.20971568 3.49521477
v 16.16345139 13.20971568 3.49521477
v 17.57037907 11.40893037 3.49521477
v 18.97730675 11.40893037 3.49521477
v 17.57037907 13.20971568 3.49521477
v 14.75652372 15.01050099 3.49521477
v 14.75652372 16.8112863 3.49521477
v 16.16345139 15.01050099 3.49521477
v 9.10643772 0 10.7533389
v 8.64089049 11.40893037 5.85509666
v 8.83135535 11.40893037 5.85509666
v 9.1202107 11.97170144 5.85509666
v 9.11674729 11.97170144 6.56354692
v 8.64089049 12.58520334 5.85509666
v 8.64089049 11.63042697 8.21497855
v 8.83135535 11.63042697 8.21497855
v 9.09036366 11.97170144 8.21497855
v 8.64089049 12.5760102 7.32428733
v 8.64089049 12.55746549 8.21497855
v 9.08560028 11.97170144 8.6622098
v 8.83135535 10.8461593 9.35029988
v 8.83135535 11.84354764 9.35029988
v 9.15242338 11.84354764 9.35029988
v 9.05883199 11.97170144 9.35029988
v 8.64089049 12.54090402 9.40813484
v 8.64089049 9.60814507 10.7533389
v 8.64089049 12.07342015 10.57486044
v 8.64089049 12.47875424 10.57486044
v 8.93690807 12.07342015 10.57486044
v 8.16882324 19.21629013 10.7533389
v 8.64089049 18.6120716 10.7533389
v 17.84695784 6.82884274 10.7533389
v 10.04781817 11.97170144 5.85509666
v 10.77635847 11.40893037 5.85509666
v 11.45474585 11.40893037 5.85509666
v 10.04781817 13.20971568 5.85509666
v 12.86167352 11.40893037 5.85509666
v 13.5400609 11.40893037 5.85509666
v 13.82891625 11.97170144 5.85509666
v 13.82545283 11.97170144 6.56354692
v 13.5400609 10.8461593 6.99041799
v 13.5400609 11.51549071 6.99041799
v 13.81863305 11.97170144 6.99041799
v 13.82891625 11.97170144 6.99041799
v 14.16869633 11.51549071 6.99041799
v 12.86167352 13.20971568 5.85509666
v 13.27437231 12.68148532 5.85509666
v 12.67178144 13.45276646 6.49211999
v 10.25548069 11.97170144 8.21497855
v 10.77635847 11.63042697 8.21497855
v 11.52396669 11.63042697 8.21497855
v 10.25548069 13.28354788 8.21497855
v 12.79245268 11.63042697 8.21497855
v 14.06093867 11.63042697 8.21497855
v 12.15820968 14.11010833 8.21497855
v 12.79245268 13.28354788 8.21497855
v 10.04781817 15.01050099 5.85509666
v 10.04781817 16.8112863 5.85509666
v 11.45474585 15.01050099 5.85509666
v 10.25548069 14.93666879 8.21497855
v 10.25548069 16.5897897 8.21497855
v 11.52396669 14.93666879 8.21497855
v 14.75652372 11.97170144 5.85509666
v 15.48506402 11.40893037 5.85509666
v 16.16345139 11.40893037 5.85509666
v 14.70828615 10.8461593 6.99041799
v 14.85642859 11.51549071 6.99041799
v 14.85642859 11.97170144 6.99041799
v 15.48506402 10.8461593 6.99041799
v 15.48506402 11.51549071 6.99041799
v 14.75652372 13.20971568 5.85509666
v 17.57037907 11.40893037 5.85509666
v 18.97730675 11.40893037 5.85509666
v 17.57037907 13.20971568 5.85509666
v 14.96418624 11.63042697 8.21497855
v 16.23267224 11.63042697 8.21497855
v 14.96418624 13.28354788 8.21497855
v 17.50115823 11.63042697 8.21497855
v 18.76964422 11.63042697 8.21497855
v 17.50115823 13.28354788 8.21497855
v 14.75652372 15.01050099 5.85509666
v 14.75652372 16.8112863 5.85509666
v 16.16345139 15.01050099 5.85509666
v 14.96418624 14.93666879 8.21497855
v 14.96418624 16.5897897 8.21497855
v 16.23267224 14.93666879 8.21497855
v 10.45529043 11.84354764 9.35029988
v 10.45529043 11.97170144 9.35029988
v 10.77635847 10.8461593 9.35029988
v 10.77635847 11.84354764 9.35029988
v 12.5099416 13.65991201 8.80494902
v 10.67080574 12.07342015 10.57486044
v 10.67080574 13.43121227 10.57486044
v 11.66240837 12.07342015 10.57486044
v 11.66240837 13.43121227 10.57486044
v 12.654011 12.07342015 10.57486044
v 12.15820968 14.11010833 10.57486044
v 12.654011 13.43121227 10.57486044
v 13.64561362 12.07342015 10.57486044
v 10.67080574 14.7890044 10.57486044
v 10.63911531 16.05446047 10.39479501
v 10.67080574 16.01389856 10.57486044
v 10.67080574 16.14679652 10.57486044
v 11.66240837 14.7890044 10.57486044
v 15.67552888 9.60814507 10.7533389
v 15.37951129 12.07342015 10.57486044
v 15.37951129 13.43121227 10.57486044
v 16.37111392 12.07342015 10.57486044
v 16.37111392 13.43121227 10.57486044
v 17.36271655 12.07342015 10.57486044
v 17.36271655 13.43121227 10.57486044
v 18.35431917 12.07342015 10.57486044
v 15.37951129 14.7890044 10.57486044
v 15.37951129 16.14679652 10.57486044
v 16.37111392 14.7890044 10.57486044
f 10 11 12
f 11 13 12
f 23 35 24
f 23 27 35
f 12 13 33
f 12 33 23
f 23 33 27
f 33 34 27
f 35 27 57
f 35 57 126
f 7 90 8
f 7 21 90
f 8 90 16
f 21 69 90
f 13 16 33
f 16 90 33
f 33 90 34
f 34 90 91
f 90 69 86
f 90 86 91
f 24 92 69
f 24 35 92
f 35 126 165
f 35 165 92
f 69 165 86
f 69 92 165
f 107 108 99
f 108 115 99
f 115 104 99
f 115 151 104
f 165 126 104
f 165 104 151
f 165 157 162
f 165 151 157
f 91 165 162
f 91 162 161
f 6 7 8
f 3 10 18
f 10 12 18
f 12 23 18
f 18 23 24
f 18 24 19
f 3 18 20
f 3 20 6
f 6 20 7
f 7 20 21
f 20 22 21
f 21 22 69
f 18 19 20
f 19 22 20
f 22 24 69
f 19 24 22
f 1 9 2
f 2 9 3
f 1 5 4
f 1 4 15
f 1 2 5
f 4 5 17
f 3 9 10
f 9 11 10
f 9 13 11
f 9 14 13
f 1 15 9
f 4 17 15
f 9 15 14
f 14 15 17
f 107 99 104
f 107 104 108
f 108 104 151
f 108 151 115
f 57 165 126
f 165 104 126
f 165 151 104
f 165 162 157
f 165 157 151
f 91 162 165
f 91 161 162
f 29 28 30
f 30 28 32
f 30 32 31
f 31 32 72
f 72 32 74
f 72 74 73
f 73 74 78
f 73 78 77
f 77 78 79
f 77 79 80
f 83 84 89
f 80 79 85
f 80 85 84
f 84 85 89
f 89 85 88
f 89 88 87
f 43 44 45
f 42 46 44
f 46 53 47
f 45 44 46
f 45 46 47
f 47 53 55
f 45 47 48
f 48 50 49
f 47 52 48
f 47 55 52
f 48 52 50
f 50 52 51
f 55 119 52
f 51 52 106
f 119 106 52
f 106 107 51
f 51 107 99
f 53 54 55
f 55 54 118
f 55 118 119
f 100 107 106
f 100 99 107
f 119 122 106
f 100 106 116
f 103 114 105
f 122 115 106
f 106 115 116
f 100 116 103
f 103 116 114
f 116 115 151
f 119 118 121
f 119 121 122
f 164 151 115
f 116 151 158
f 114 116 158
f 159 114 158
f 152 154 153
f 154 155 153
f 153 155 160
f 155 157 160
f 154 156 155
f 155 156 158
f 156 159 158
f 158 151 157
f 164 157 151
f 155 158 157
f 122 164 115
f 122 121 163
f 122 163 164
f 160 157 162
f 164 162 157
f 164 163 162
f 58 59 60
f 56 61 59
f 61 66 62
f 59 61 60
f 61 62 60
f 62 66 68
f 60 62 63
f 63 65 64
f 63 62 65
f 62 68 65
f 64 134 133
f 65 68 143
f 64 65 134
f 65 143 134
f 66 67 68
f 67 142 68
f 68 142 143
f 134 143 146
f 133 134 140
f 134 146 140
f 133 140 139
f 142 145 143
f 145 146 143
f 140 146 175
f 139 140 171
f 140 175 171
f 139 171 172
f 166 168 167
f 167 168 169
f 167 169 173
f 169 175 173
f 168 170 169
f 170 171 169
f 170 172 171
f 169 171 175
f 145 174 146
f 174 175 146
f 173 175 174
f 2 3 5
f 3 6 5
f 5 6 17
f 6 8 17
f 8 16 17
f 13 14 16
f 14 17 16
f 27 28 70
f 27 34 28
f 34 32 28
f 27 70 86
f 86 70 75
f 34 91 32
f 91 74 32
f 91 78 74
f 86 75 87
f 86 87 88
f 86 88 91
f 91 79 78
f 91 85 79
f 91 88 85
f 27 165 57
f 27 86 165
f 29 70 28
f 29 71 70
f 71 75 70
f 71 76 75
f 76 87 75
f 76 82 87
f 82 83 89
f 82 89 87
f 43 45 95
f 43 95 94
f 42 93 46
f 46 117 53
f 46 93 96
f 46 96 117
f 45 48 97
f 48 49 98
f 45 97 95
f 48 98 97
f 53 118 54
f 53 117 118
f 94 95 111
f 93 112 96
f 96 120 117
f 97 98 102
f 95 97 113
f 97 102 114
f 94 111 110
f 93 109 112
f 96 112 120
f 95 113 111
f 97 114 113
f 102 105 114
f 117 121 118
f 117 120 121
f 110 111 154
f 147 152 148
f 147 150 152
f 110 154 150
f 109 148 112
f 112 160 120
f 148 153 112
f 112 153 160
f 111 113 156
f 113 114 159
f 111 156 154
f 113 159 156
f 150 154 152
f 148 152 153
f 120 161 121
f 120 160 162
f 120 162 161
f 121 161 163
f 163 161 162
f 58 60 125
f 58 125 124
f 56 123 61
f 61 141 66
f 61 123 131
f 61 131 141
f 60 63 132
f 63 64 133
f 60 132 125
f 63 133 132
f 66 142 67
f 66 141 142
f 124 125 130
f 130 125 136
f 123 128 131
f 128 137 131
f 131 144 141
f 125 132 138
f 132 133 139
f 127 135 128
f 127 130 135
f 130 136 135
f 128 135 137
f 131 137 144
f 125 138 136
f 132 139 138
f 141 145 142
f 141 144 145
f 135 136 168
f 135 168 166
f 135 167 137
f 137 173 144
f 135 166 167
f 137 167 173
f 136 138 170
f 138 139 172
f 136 170 168
f 138 172 170
f 144 174 145
f 144 173 174
f 25 26 38
f 25 29 26
f 26 29 30
f 26 30 31
f 25 71 29
f 26 31 93
f 25 38 81
f 31 72 93
f 26 39 38
f 26 42 39
f 38 39 43
f 39 42 44
f 39 44 43
f 26 93 42
f 38 43 94
f 25 81 71
f 72 73 93
f 73 77 93
f 71 81 76
f 77 80 109
f 81 82 76
f 81 83 82
f 81 147 83
f 38 94 149
f 38 149 81
f 93 77 109
f 94 110 149
f 80 148 109
f 80 84 148
f 149 110 150
f 83 148 84
f 81 150 147
f 83 147 148
f 81 149 150
f 36 37 40
f 36 49 37
f 37 49 50
f 37 50 51
f 36 40 101
f 37 41 40
f 37 56 41
f 40 41 58
f 41 56 59
f 41 59 58
f 37 51 123
f 36 101 49
f 51 99 123
f 49 101 98
f 37 123 56
f 40 58 129
f 40 126 101
f 40 129 126
f 58 124 129
f 98 101 102
f 100 104 99
f 128 99 104
f 101 105 102
f 101 126 105
f 100 103 104
f 103 105 104
f 123 99 128
f 105 126 104
f 127 104 126
f 127 128 104
f 129 127 126
f 129 130 127
f 124 130 129
