# MAAS exact compiled indexed mesh
# program_hash e5e49b64f6b6b282b6a684ee47b31b51ac6d46cba3add516acc68699c807ab00
# geometry_hash 96772b3e6b3bdc00ebd110c608fa592176f8a99086e826d9cfa81250eb0db801
v -19.2081307 -15.65677282 0
v -19.2081307 -15.65677282 5.21112484
v -18.28948097 -14.73812309 5.21112484
v -19.2081307 -2.29459494 0
v -18.28948097 -2.61412528 0
v -18.28948097 -2.29459494 0
v -9.95576352 -5.51280961 0
v -19.2081307 -2.29459494 5.21112484
v -18.28948097 -2.29459494 5.21112484
v -5.76243921 -14.73812309 5.21112484
v -5.76243921 -2.29459494 0
v -5.76243921 -2.29459494 5.21112484
v -18.28948097 -14.73812309 11.39933558
v -5.76243921 -14.73812309 11.39933558
v -5.76243921 -0.5408091 6.51390605
v -5.76243921 -0.5408091 11.39933558
v -18.28948097 12.82136878 0
v -5.76243921 12.82136878 0
v -18.28948097 12.82136878 11.39933558
v -5.76243921 11.98623266 6.51390605
v -5.76243921 8.95886424 11.39933558
v -5.76243921 11.98623266 11.39933558
v -5.76243921 12.82136878 11.39933558
v 19.2081307 -15.65677282 0
v 19.2081307 -15.65677282 5.21112484
v 19.2081307 -2.29459494 0
v 19.2081307 -2.29459494 5.21112484
v 0 -0.5408091 6.51390605
v 3.52150176 -0.54251277 6.51324163
v 3.52150176 -0.5408091 6.51390605
v 0 -0.5408091 11.39933558
v 3.52150176 -0.54251277 11.4
v 3.52150176 -0.5408091 11.39933558
v 17.03848047 -0.54251277 6.51324163
v 17.03848047 -0.54251277 11.4
v 3.52150176 5.62872998 6.51390605
v 3.52150176 5.62872998 6.51324163
v 3.76649586 5.60915512 6.51324163
v 4.11778895 5.72271178 6.51390605
v 4.11778895 5.72271178 6.51324163
v 4.71407614 5.72271178 6.51390605
v 4.71407614 5.91546361 6.51390605
v 3.44177305 5.08576411 8.8882062
v 4.71407614 5.72271178 8.8882062
v 4.71407614 5.91546361 8.8882062
v 3.44177305 5.08576411 11.39933558
v 3.52150176 5.08576411 11.39933558
v 3.52150176 5.08576411 11.4
v 3.44177305 5.87537463 11.39933558
v 3.44177305 5.87537463 11.4
v 1.62385961 11.49917858 6.51324163
v 1.62385961 11.49917858 6.51390605
v 0 11.98623266 6.51390605
v 3.13058518 11.98623266 6.51390605
v 1.62385961 11.49917858 11.4
v 1.62385961 11.49917858 11.39933558
v 3.44177305 12.08682519 8.8882062
v 0 11.98623266 11.39933558
v 3.13058518 11.98623266 11.39933558
v 3.44177305 12.08682519 11.4
v 17.03848047 5.72271178 6.51324163
v 13.59670741 5.08576411 8.8882062
v 13.59670741 5.72271178 8.8882062
v 13.59670741 5.08576411 11.4
v 13.59670741 5.72271178 11.4
v 17.03848047 5.72271178 11.4
v 16.41210371 9.69689018 6.51324163
v 14.4855544 15.65676447 6.51324163
v 13.59670741 8.7868039 8.8882062
v 13.59670741 8.7868039 11.4
v 11.65114872 14.74053335 8.8882062
v 13.59670741 14.74053335 8.8882062
v 11.65114872 14.74053335 11.4
v 13.59670741 14.74053335 11.4
v 16.41210371 9.69689018 11.4
v 14.4855544 15.65676447 11.4
f 1 5 7
f 1 2 8
f 2 3 9
f 1 4 5
f 1 8 4
f 5 4 6
f 4 8 6
f 2 9 8
f 6 8 9
f 1 24 2
f 1 7 24
f 2 25 3
f 3 25 10
f 2 24 25
f 7 11 24
f 11 12 26
f 10 27 12
f 24 26 25
f 10 25 27
f 11 26 24
f 12 27 26
f 25 26 27
f 5 6 7
f 12 18 14
f 3 13 9
f 3 10 14
f 3 14 13
f 9 13 19
f 13 14 19
f 14 16 19
f 10 12 14
f 14 18 15
f 14 15 16
f 6 17 7
f 7 17 11
f 11 17 18
f 6 9 19
f 6 19 17
f 17 23 18
f 11 18 12
f 18 20 15
f 19 16 21
f 17 19 23
f 19 21 22
f 19 22 23
f 18 23 20
f 20 23 22
f 15 28 31
f 15 31 16
f 15 20 28
f 20 53 28
f 16 31 58
f 16 58 21
f 20 22 53
f 21 58 22
f 22 58 53
f 30 33 28
f 33 31 28
f 30 28 53
f 30 53 52
f 30 52 36
f 39 42 41
f 33 46 31
f 46 49 31
f 33 47 46
f 49 56 31
f 56 58 31
f 52 53 54
f 54 53 58
f 54 58 59
f 56 59 58
f 39 40 42
f 37 51 38
f 36 51 37
f 38 51 40
f 40 67 42
f 42 67 45
f 49 50 56
f 36 52 51
f 51 52 54
f 40 51 67
f 51 54 68
f 54 57 71
f 50 55 56
f 55 59 56
f 50 60 55
f 54 59 57
f 57 59 60
f 55 60 59
f 45 67 69
f 51 68 67
f 54 71 68
f 67 68 75
f 71 76 68
f 71 73 76
f 73 74 76
f 67 75 69
f 69 75 70
f 70 75 74
f 68 76 75
f 75 76 74
f 41 42 44
f 42 45 44
f 29 33 30
f 29 34 32
f 29 32 33
f 32 34 35
f 29 30 37
f 30 36 37
f 29 37 38
f 39 41 40
f 29 38 34
f 38 40 61
f 40 41 61
f 41 44 63
f 32 47 33
f 32 48 47
f 32 64 48
f 38 61 34
f 41 63 61
f 34 61 35
f 32 35 64
f 61 66 35
f 35 66 64
f 61 63 66
f 63 65 66
f 64 66 65
f 43 44 45
f 43 45 57
f 43 46 47
f 43 49 46
f 43 60 49
f 43 63 44
f 43 47 64
f 47 48 64
f 43 57 60
f 49 60 50
f 45 71 57
f 43 62 63
f 43 64 62
f 62 65 63
f 62 64 65
f 45 69 71
f 69 70 72
f 71 69 72
f 71 72 73
f 72 70 74
f 72 74 73
