# MAAS exact compiled indexed mesh
# program_hash c3bb32ebde968990609a22144c42077ccb6457fe045938ce3adee2a73ffb94ab
# geometry_hash 2620596ed41471d52969e8312cbe64f80dc949efd0239a6d3b9173f6e9265314
v -13.48273109 -12.86987967 0
v -15.32128533 -10.41847402 3.56923077
v -13.48273109 -10.41847402 3.56923077
v -13.48273109 -12.86987967 3.69230769
v -13.48273109 -10.41847402 3.69230769
v -3.67710848 -12.86987967 0
v -3.67710848 -12.86987967 3.69230769
v -3.67710848 -10.41847402 3.69230769
v -3.67710848 -3.67710848 7.13846154
v -15.32128533 -10.41847402 7.26153846
v -12.86987967 -9.80562261 7.26153846
v -12.86987967 -9.80562261 10.83076923
v -12.25702826 -7.35421696 10.83076923
v -12.25702826 -7.35421696 14.4
v -12.86987967 -0.61285141 7.26153846
v -12.86987967 -0.61285141 10.83076923
v -12.25702826 -1.22570283 10.83076923
v -12.25702826 -1.22570283 14.4
v -5.51566272 -9.80562261 7.26153846
v -3.67710848 -10.41847402 7.26153846
v -5.51566272 -9.80562261 10.83076923
v -6.74136554 -7.35421696 10.83076923
v -6.74136554 -7.35421696 14.4
v -5.51566272 -3.67710848 7.26153846
v -6.74136554 -0.61285141 7.26153846
v -3.67710848 -3.67710848 7.26153846
v -5.51566272 -3.67710848 10.83076923
v -6.74136554 -1.22570283 10.83076923
v -6.74136554 -0.61285141 10.83076923
v -6.74136554 -1.22570283 14.4
v -15.32128533 1.22570283 3.56923077
v -13.48273109 1.22570283 3.56923077
v -13.48273109 1.22570283 3.69230769
v -13.48273109 11.64417685 0
v -13.48273109 11.64417685 3.69230769
v -3.67710848 4.9028113 0
v -3.67710848 4.9028113 3.56923077
v -6.74136554 1.22570283 7.13846154
v -6.74136554 4.9028113 3.69230769
v -6.74136554 4.9028113 7.13846154
v -6.74136554 5.13527218 7.13846154
v -6.74136554 6.12851413 7.13846154
v -3.67710848 1.22570283 3.69230769
v -3.67710848 1.22570283 7.13846154
v -3.67710848 4.9028113 3.69230769
v -6.12851413 11.64417685 0
v -6.12851413 12.86987967 0
v -6.74136554 11.64417685 3.56923077
v -6.74136554 12.86987967 3.56923077
v -6.12851413 11.64417685 3.56923077
v -6.12851413 12.86987967 3.56923077
v -6.74136554 11.64417685 3.69230769
v -15.32128533 1.22570283 7.26153846
v -6.74136554 1.22570283 7.26153846
v -6.74136554 4.9028113 7.26153846
v -6.74136554 6.12851413 7.26153846
v -6.74136554 6.12851413 10.83076923
v -6.74136554 12.86987967 7.26153846
v 3.67710848 -11.64417685 0
v 3.67710848 -11.64417685 3.69230769
v 3.67710848 -3.06425707 3.69230769
v 3.67710848 -3.06425707 7.13846154
v 6.74136554 -3.67710848 7.13846154
v 6.74136554 -3.06425707 7.13846154
v 13.48273109 -11.64417685 0
v 13.48273109 -11.64417685 3.69230769
v 13.48273109 -3.06425707 3.56923077
v 15.32128533 -3.06425707 3.56923077
v 13.48273109 -3.06425707 3.69230769
v 6.74136554 -3.06425707 7.26153846
v 6.74136554 -3.67710848 10.83076923
v 15.32128533 -3.06425707 7.26153846
v 3.67710848 4.9028113 0
v 3.67710848 4.9028113 3.56923077
v 6.12851413 5.82208842 0
v 3.67710848 4.9028113 3.69230769
v 3.67710848 4.9028113 7.13846154
v 3.67710848 6.49622498 0
v 6.12851413 11.64417685 0
v 6.12851413 12.86987967 0
v 6.12851413 11.64417685 3.56923077
v 6.12851413 11.68503361 3.56923077
v 6.12851413 12.86987967 3.56923077
v 6.12851413 11.03132543 3.69230769
v 6.12851413 11.64417685 3.69230769
v 6.12851413 12.86987967 3.69230769
v 13.48273109 11.64417685 0
v 13.48273109 11.03132543 3.56923077
v 15.32128533 11.03132543 3.56923077
v 13.48273109 11.03132543 3.69230769
v 13.48273109 11.64417685 3.69230769
v 6.74136554 2.45140565 7.26153846
v 5.51566272 6.12851413 7.26153846
v 6.74136554 2.45140565 10.83076923
v 5.51566272 6.12851413 10.83076923
v 5.51566272 9.80562261 7.26153846
v 6.12851413 9.80562261 7.26153846
v 6.12851413 11.03132543 7.26153846
v 6.12851413 12.86987967 7.26153846
v 5.51566272 9.80562261 10.83076923
v 12.86987967 2.45140565 7.26153846
v 12.86987967 2.45140565 10.83076923
v 12.86987967 9.80562261 7.26153846
v 15.32128533 11.03132543 7.26153846
v 12.86987967 9.80562261 10.83076923
f 1 4 3
f 1 3 32
f 1 6 4
f 4 5 3
f 4 7 5
f 1 34 6
f 4 6 7
f 6 8 7
f 6 43 8
f 5 7 8
f 6 36 37
f 6 45 43
f 6 37 45
f 1 32 35
f 1 35 34
f 32 33 35
f 33 43 35
f 35 43 39
f 34 46 36
f 34 35 46
f 35 48 46
f 35 39 52
f 35 52 48
f 6 34 36
f 39 43 45
f 46 48 50
f 59 65 60
f 60 66 61
f 59 60 73
f 60 74 73
f 59 73 65
f 60 61 74
f 60 65 66
f 65 73 75
f 65 87 66
f 66 87 67
f 61 66 69
f 66 67 69
f 73 78 75
f 61 76 74
f 65 75 87
f 75 79 87
f 79 81 87
f 81 85 87
f 85 91 87
f 67 87 88
f 87 91 88
f 84 90 85
f 85 90 91
f 88 91 90
f 36 73 37
f 46 51 47
f 46 50 51
f 36 46 78
f 46 47 78
f 47 51 83
f 36 78 73
f 37 73 74
f 47 79 78
f 47 80 79
f 47 83 80
f 75 78 79
f 79 80 82
f 79 82 81
f 80 83 82
f 85 82 86
f 82 83 86
f 2 32 3
f 2 3 5
f 2 5 10
f 2 10 53
f 5 20 10
f 2 31 32
f 2 53 31
f 5 8 20
f 8 9 20
f 8 43 9
f 9 43 44
f 10 11 15
f 10 20 11
f 10 15 53
f 11 20 19
f 19 20 26
f 19 26 24
f 20 9 26
f 31 33 32
f 31 53 38
f 31 44 33
f 31 38 44
f 33 44 43
f 15 25 53
f 25 54 53
f 53 54 38
f 39 45 40
f 40 55 41
f 45 76 40
f 37 74 45
f 48 51 50
f 48 49 51
f 39 40 52
f 52 40 41
f 52 41 42
f 48 52 49
f 52 58 49
f 52 42 58
f 49 86 51
f 49 58 99
f 42 56 58
f 56 96 58
f 45 74 76
f 40 76 77
f 49 99 86
f 51 86 83
f 81 82 85
f 84 85 99
f 85 86 99
f 84 99 98
f 56 93 96
f 58 96 97
f 58 97 98
f 58 98 99
f 9 63 26
f 9 44 62
f 24 26 27
f 26 63 27
f 27 71 57
f 38 54 40
f 38 40 44
f 41 56 42
f 40 62 44
f 25 29 54
f 29 57 54
f 54 55 40
f 54 57 55
f 55 57 41
f 41 57 56
f 56 57 93
f 27 57 29
f 9 62 64
f 9 64 63
f 63 64 70
f 27 63 71
f 63 70 71
f 70 94 71
f 40 77 62
f 57 95 93
f 70 92 94
f 57 71 95
f 71 94 95
f 61 62 76
f 61 64 62
f 61 69 64
f 69 68 64
f 67 68 69
f 68 72 64
f 64 72 70
f 70 72 92
f 62 77 76
f 67 89 68
f 67 88 89
f 68 89 72
f 72 89 104
f 84 98 104
f 84 104 90
f 88 90 89
f 90 104 89
f 72 101 92
f 72 104 101
f 97 103 98
f 98 103 104
f 101 104 103
f 11 12 15
f 11 19 21
f 11 21 12
f 12 21 13
f 21 22 13
f 12 16 15
f 15 16 25
f 16 29 25
f 12 13 16
f 16 13 17
f 16 17 28
f 16 28 29
f 19 24 21
f 21 27 22
f 21 24 27
f 27 28 22
f 27 29 28
f 93 100 96
f 93 95 100
f 96 100 97
f 92 101 102
f 92 102 94
f 101 105 102
f 94 102 95
f 95 102 100
f 97 105 103
f 97 100 105
f 101 103 105
f 100 102 105
f 23 13 22
f 14 13 23
f 14 17 13
f 14 18 17
f 14 23 18
f 18 23 30
f 18 28 17
f 18 30 28
f 30 22 28
f 23 22 30
