# MAAS exact compiled indexed mesh
# program_hash 808604df91c6d363d13a2e97fd5bc2e889b2f41ccbd1d2ae70f5a2994c794d97
# geometry_hash 6486658f03b449f99ee885c61d929085981c980cc58cab9ad43934acb9be5482
v -7.32684813 -9.58311954 3.3
v -8.52991453 -8.52991453 0
v -7.77810242 -6.20112601 3.3
v -5.99505693 -10.4679595 6.6
v -6.88963745 -7.17535622 6.6
v -8.52991453 -5.11794872 0
v -8.52991453 -1.70598291 0
v -8.2293567 -2.81913247 3.3
v -7.78421796 -3.88275293 6.6
v -8.67879848 -0.59014964 6.6
v -3.9448546 -9.13186526 3.3
v -5.11794872 -8.52991453 0
v -1.70598291 -8.52991453 0
v -0.56286106 -8.68061098 3.3
v -2.70245365 -9.57337899 6.6
v -5.11794872 -5.11794872 0
v -5.11794872 -1.70598291 0
v -1.70598291 -5.11794872 0
v -1.70598291 -1.70598291 0
v -7.20231893 -4.87815761 9.9
v -8.52450886 -1.73279205 9.9
v -9.87258824 -1.21854114 16.5
v -6.49388293 -5.78785833 13.2
v -7.77197233 -3.90720689 16.5
v -8.22045283 -2.84499118 13.2
v -4.55793906 -11.16888872 9.9
v -5.88012899 -8.02352317 9.9
v -1.4125735 -9.84669879 9.9
v -3.04074312 -11.67359264 13.2
v -3.57074052 -9.28453839 16.5
v -4.76731303 -8.73072549 13.2
v -5.67135642 -6.59587264 16.5
v -0.09787597 -9.94702273 13.2
v -1.47012461 -11.97320414 16.5
v -0.88207477 -7.18392248 16.5
v -5.08330658 -1.80659098 16.5
v -2.98269067 -4.49525673 16.5
v -0.29402492 -2.39464083 16.5
v -9.13186526 3.9448546 3.3
v -8.52991453 1.70598291 0
v -8.68061098 0.56286106 3.3
v -8.52991453 5.11794872 0
v -9.57337899 2.70245365 6.6
v -9.58311954 7.32684813 3.3
v -8.52991453 8.52991453 0
v -6.20112601 7.77810242 3.3
v -10.4679595 5.99505693 6.6
v -7.17535622 6.88963745 6.6
v -5.11794872 1.70598291 0
v -5.11794872 5.11794872 0
v -1.70598291 1.70598291 0
v -1.70598291 5.11794872 0
v -5.11794872 8.52991453 0
v -1.70598291 8.52991453 0
v -2.81913247 8.2293567 3.3
v -3.88275293 7.78421796 6.6
v -0.59014964 8.67879848 6.6
v -9.84669879 1.4125735 9.9
v -11.16888872 4.55793906 9.9
v -8.02352317 5.88012899 9.9
v -9.94702273 0.09787597 13.2
v -11.97320414 1.47012461 16.5
v -11.67359264 3.04074312 13.2
v -9.28453839 3.57074052 16.5
v -7.18392248 0.88207477 16.5
v -8.73072549 4.76731303 13.2
v -6.59587264 5.67135642 16.5
v -4.49525673 2.98269067 16.5
v -2.39464083 0.29402492 16.5
v -1.80659098 5.08330658 16.5
v -4.87815761 7.20231893 9.9
v -1.73279205 8.52450886 9.9
v -5.78785833 6.49388293 13.2
v -3.90720689 7.77197233 16.5
v -2.84499118 8.22045283 13.2
v -1.21854114 9.87258824 16.5
v 1.70598291 -8.52991453 0
v 2.81913247 -8.2293567 3.3
v 5.11794872 -8.52991453 0
v 0.59014964 -8.67879848 6.6
v 3.88275293 -7.78421796 6.6
v 1.70598291 -5.11794872 0
v 1.70598291 -1.70598291 0
v 5.11794872 -5.11794872 0
v 5.11794872 -1.70598291 0
v 8.52991453 -8.52991453 0
v 6.20112601 -7.77810242 3.3
v 9.58311954 -7.32684813 3.3
v 7.17535622 -6.88963745 6.6
v 10.4679595 -5.99505693 6.6
v 8.52991453 -5.11794872 0
v 8.52991453 -1.70598291 0
v 8.68061098 -0.56286106 3.3
v 9.13186526 -3.9448546 3.3
v 9.57337899 -2.70245365 6.6
v 1.73279205 -8.52450886 9.9
v 4.87815761 -7.20231893 9.9
v 1.21854114 -9.87258824 16.5
v 2.84499118 -8.22045283 13.2
v 5.78785833 -6.49388293 13.2
v 3.90720689 -7.77197233 16.5
v 1.80659098 -5.08330658 16.5
v 2.39464083 -0.29402492 16.5
v 4.49525673 -2.98269067 16.5
v 8.02352317 -5.88012899 9.9
v 11.16888872 -4.55793906 9.9
v 9.84669879 -1.4125735 9.9
v 8.73072549 -4.76731303 13.2
v 6.59587264 -5.67135642 16.5
v 7.18392248 -0.88207477 16.5
v 11.67359264 -3.04074312 13.2
v 9.28453839 -3.57074052 16.5
v 9.94702273 -0.09787597 13.2
v 11.97320414 -1.47012461 16.5
v 1.70598291 1.70598291 0
v 1.70598291 5.11794872 0
v 5.11794872 1.70598291 0
v 5.11794872 5.11794872 0
v 1.70598291 8.52991453 0
v 0.56286106 8.68061098 3.3
v 5.11794872 8.52991453 0
v 3.9448546 9.13186526 3.3
v 2.70245365 9.57337899 6.6
v 8.52991453 1.70598291 0
v 8.2293567 2.81913247 3.3
v 8.52991453 5.11794872 0
v 8.67879848 0.59014964 6.6
v 7.78421796 3.88275293 6.6
v 8.52991453 8.52991453 0
v 7.77810242 6.20112601 3.3
v 7.32684813 9.58311954 3.3
v 6.88963745 7.17535622 6.6
v 5.99505693 10.4679595 6.6
v 0 0 16.5
v 0.29402492 2.39464083 16.5
v 0 4.8614851 16.5
v 2.98269067 4.49525673 16.5
v 5.08330658 1.80659098 16.5
v 0 9.08989105 8.25
v 0.41121193 9.26274863 8.25
v 0 9.25290757 9.9
v 1.4125735 9.84669879 9.9
v 2.05751357 9.71003889 8.25
v 5.89314458 8.30035558 9.526275
v 5.72159273 8.70846131 9.526275
v 5.57864294 8.74073015 9.9
v 5.17594355 8.94149529 11.18799807
v 5.35021134 8.83395136 10.665765
v 3.63019635 10.37113386 8.25
v 5.93759296 9.24574133 8.25
v 5.276498 10.81842411 8.25
v 4.55793906 11.16888872 9.9
v 0.88207477 7.18392248 16.5
v 0 9.87096857 13.02356675
v 0 9.88959924 13.2
v 0.09787597 9.94702273 13.2
v 0 9.94148851 13.4453559
v 0 10.82461691 16.5
v 1.47012461 11.97320414 16.5
v 5.32171764 7.42152698 15.223725
v 5.67135642 6.59587264 16.5
v 4.34203401 9.21141124 13.74237881
v 3.04074312 11.67359264 13.2
v 4.73666486 9.08762386 12.71694595
v 4.6476958 9.0955962 12.944745
v 4.53620653 9.12463698 13.2
v 3.94275846 9.28757713 15.08482291
v 4.03351494 9.07035125 15.223725
v 3.94275846 9.22504191 15.223725
v 3.94275846 9.32773512 15.223725
v 3.57074052 9.28453839 16.5
v 4.95802652 10.12094946 15.223725
v 8.60165367 1.16147085 8.25
v 8.17541504 2.73028964 8.25
v 8.08080044 2.88950205 9.04148242
v 8.34523508 2.25344091 9.10085
v 8.09976628 2.78725521 9.526275
v 8.47436652 1.85225468 9.526275
v 8.48337458 1.85225468 9.71663542
v 8.36710393 2.15128407 9.526275
v 8.44067091 1.97627512 9.526275
v 8.47429139 1.85225468 9.9
v 8.52450886 1.73279205 9.9
v 8.49184984 1.85225468 10.25445691
v 8.32506565 2.25128918 9.526275
v 7.26821899 4.76542803 9.526275
v 7.30235174 4.68422944 9.526275
v 7.16690775 5.13831535 9.526275
v 7.64396489 4.02196258 8.25
v 7.66856149 3.93562208 8.48614266
v 7.49326844 4.38045527 8.25
v 7.70966098 3.77485471 9.02071925
v 8.91667991 5.22111033 10.665765
v 9.08989105 0 8.25
v 9.25290757 0 9.9
v 10.22023723 1.85225468 9.526275
v 9.88306049 2.65436645 9.526275
v 10.33281643 1.85225468 10.665765
v 9.57416183 3.79130236 9.526275
v 9.11760965 4.87739709 9.526275
v 9.82978428 3.04892087 10.665765
v 8.80288788 1.85225468 13.2
v 8.42743401 5.84934965 12.944745
v 7.27767125 4.63454883 15.223725
v 7.94542216 3.49639496 15.223725
v 7.77197233 3.90720689 16.5
v 9.87096857 0 13.02356675
v 9.88959924 0 13.2
v 9.94148851 0 13.4453559
v 10.75964936 1.85225468 12.8229002
v 10.7725157 1.85225468 12.944745
v 10.80835043 1.85225468 13.11418778
v 9.87258824 1.21854114 16.5
v 9.22886691 1.85225468 15.21422138
v 9.22996534 1.85225468 15.223725
v 10.82461691 0 16.5
v 10.7607679 2.69377919 15.223725
v 11.4182389 1.85225468 15.223725
v 9.61980319 3.81700559 12.944745
v 9.31008256 4.55057176 15.223725
v 7.04597819 6.02675691 8.25
v 6.38488322 7.59943969 8.25
v 5.99445583 7.92746826 9.526275
v 8.808711 6.014333 9.526275
v 8.35215882 7.10042773 9.526275
v 8.04326016 8.23736365 9.526275
v 8.00357555 7.39329978 10.665765
v 6.44977207 9.01455972 9.526275
v 7.58670798 9.32345837 9.526275
v 7.09047118 9.56548923 10.665765
v 7.23506484 7.8816937 12.944745
v 5.98946855 6.28337311 15.223725
v 6.40871187 8.26415689 15.223725
v 7.85939721 6.40736433 15.223725
v 6.04269566 9.91403776 12.944745
f 2 3 6
f 1 2 12
f 2 6 12
f 6 16 12
f 1 3 2
f 1 4 5
f 1 5 3
f 4 27 5
f 6 8 7
f 6 7 16
f 6 3 8
f 7 17 16
f 7 40 17
f 7 8 41
f 5 9 3
f 3 9 8
f 5 20 9
f 8 9 10
f 8 10 41
f 9 21 10
f 1 12 11
f 11 12 13
f 12 16 13
f 13 16 18
f 13 77 14
f 13 18 77
f 11 13 14
f 1 11 4
f 4 11 15
f 4 15 26
f 11 14 15
f 15 80 28
f 14 80 15
f 16 17 18
f 17 49 19
f 18 19 82
f 17 19 18
f 19 51 83
f 5 27 20
f 20 27 23
f 10 21 58
f 21 61 58
f 9 20 21
f 20 25 21
f 20 23 25
f 21 25 61
f 22 61 25
f 23 24 25
f 23 32 24
f 22 25 24
f 22 24 36
f 22 36 65
f 4 26 27
f 26 31 27
f 26 28 29
f 26 29 31
f 23 27 31
f 15 28 26
f 28 33 29
f 29 30 31
f 23 31 32
f 30 32 31
f 30 35 32
f 32 35 37
f 29 33 34
f 29 34 30
f 33 98 34
f 30 34 98
f 30 98 35
f 24 32 37
f 24 37 36
f 36 69 65
f 35 102 37
f 37 102 38
f 36 37 38
f 36 38 69
f 38 134 69
f 39 44 42
f 7 41 40
f 17 40 49
f 40 42 49
f 39 40 41
f 39 42 40
f 42 50 49
f 39 41 43
f 10 58 43
f 39 43 47
f 39 47 44
f 43 59 47
f 10 43 41
f 42 44 45
f 42 45 50
f 45 53 50
f 46 53 45
f 44 46 45
f 44 47 48
f 44 48 46
f 47 60 48
f 49 50 51
f 19 49 51
f 51 52 115
f 50 52 51
f 50 53 52
f 53 55 54
f 46 55 53
f 52 53 54
f 52 54 116
f 54 55 120
f 46 48 56
f 46 56 55
f 48 71 56
f 55 56 57
f 55 57 120
f 56 72 57
f 57 139 140
f 43 58 59
f 58 61 63
f 47 59 60
f 58 63 59
f 59 63 66
f 59 66 60
f 66 73 60
f 61 62 63
f 22 62 61
f 62 64 63
f 22 65 62
f 62 65 64
f 63 64 66
f 64 65 68
f 66 67 73
f 64 67 66
f 64 68 67
f 48 60 71
f 60 73 71
f 65 69 68
f 67 68 70
f 68 69 134
f 68 134 70
f 70 134 136
f 56 71 72
f 71 73 75
f 71 75 72
f 57 72 139
f 72 141 139
f 72 75 154
f 72 154 141
f 73 74 75
f 67 74 73
f 67 70 74
f 74 76 75
f 70 76 74
f 70 136 158
f 70 158 76
f 75 155 154
f 75 157 155
f 75 76 157
f 76 158 157
f 18 82 77
f 77 82 79
f 14 77 78
f 77 79 78
f 79 82 84
f 78 79 87
f 14 78 80
f 78 81 80
f 80 81 96
f 78 87 81
f 81 87 89
f 81 89 97
f 82 83 84
f 19 83 82
f 83 115 85
f 83 85 84
f 79 86 87
f 79 84 86
f 84 91 86
f 86 91 88
f 86 88 87
f 87 88 89
f 89 90 105
f 88 90 89
f 84 85 91
f 91 92 94
f 85 92 91
f 85 117 92
f 92 124 93
f 92 93 94
f 88 91 94
f 95 93 127
f 88 94 90
f 94 95 90
f 90 95 106
f 94 93 95
f 95 127 107
f 28 80 96
f 28 96 33
f 33 96 99
f 81 97 96
f 96 97 99
f 97 100 99
f 33 99 98
f 35 98 101
f 98 99 101
f 35 101 102
f 99 100 101
f 101 109 102
f 100 109 101
f 38 102 104
f 38 103 134
f 38 104 103
f 102 109 104
f 103 216 134
f 104 110 103
f 89 105 97
f 97 105 100
f 100 105 108
f 90 106 105
f 105 106 108
f 106 107 111
f 106 111 108
f 95 107 106
f 107 127 194
f 107 194 195
f 107 195 207
f 107 207 113
f 107 113 111
f 100 108 109
f 104 109 112
f 108 112 109
f 104 112 110
f 110 216 103
f 108 111 112
f 113 207 208
f 113 208 209
f 111 113 114
f 114 113 209
f 110 112 114
f 110 114 216
f 112 111 114
f 114 209 216
f 51 115 83
f 115 116 117
f 52 116 115
f 85 115 117
f 116 118 117
f 54 119 116
f 54 120 119
f 116 119 118
f 119 120 122
f 118 119 121
f 119 122 121
f 121 122 131
f 57 123 120
f 120 123 122
f 57 140 123
f 123 140 143
f 123 143 149
f 122 123 133
f 122 133 131
f 123 149 133
f 133 151 150
f 133 149 151
f 92 117 124
f 117 118 124
f 124 125 93
f 118 126 124
f 124 126 125
f 126 130 125
f 93 125 127
f 125 128 127
f 127 173 194
f 127 128 173
f 128 174 173
f 128 176 174
f 125 130 128
f 128 130 132
f 128 132 221
f 128 221 191
f 128 189 175
f 128 175 176
f 128 191 189
f 118 121 126
f 121 129 126
f 121 131 129
f 126 129 130
f 130 129 131
f 130 131 132
f 132 222 221
f 132 133 150
f 132 150 222
f 131 133 132
f 185 180 175
f 189 185 175
f 189 177 185
f 189 187 177
f 189 190 187
f 192 187 190
f 192 177 187
f 135 136 134
f 135 134 138
f 135 138 137
f 135 137 136
f 137 153 136
f 138 134 213
f 138 206 137
f 137 206 161
f 139 141 140
f 142 143 140
f 142 140 141
f 142 149 143
f 142 141 156
f 156 141 154
f 142 156 163
f 144 150 145
f 142 152 149
f 152 151 149
f 152 145 150
f 152 150 151
f 146 152 148
f 146 145 152
f 142 163 152
f 152 163 164
f 148 152 147
f 147 152 164
f 153 158 136
f 156 154 155
f 156 155 157
f 156 157 158
f 156 159 163
f 153 171 158
f 156 158 159
f 159 171 163
f 159 158 171
f 137 161 153
f 153 161 171
f 160 168 171
f 160 161 232
f 160 171 161
f 163 166 165
f 163 162 166
f 163 165 164
f 163 167 162
f 163 169 167
f 163 171 169
f 168 169 171
f 183 195 173
f 173 174 176
f 181 173 176
f 178 173 181
f 178 179 173
f 181 176 175
f 179 183 173
f 179 182 183
f 182 184 183
f 181 175 180
f 183 184 202
f 186 190 191
f 188 191 221
f 186 191 188
f 189 191 190
f 186 192 190
f 186 177 192
f 173 195 194
f 183 207 195
f 183 202 207
f 213 134 216
f 138 213 206
f 205 206 213
f 161 206 232
f 206 204 232
f 205 204 206
f 202 208 207
f 214 209 208
f 202 214 208
f 213 209 214
f 213 216 209
f 205 213 215
f 213 214 215
f 188 222 223
f 188 221 222
f 223 222 144
f 144 222 150
f 146 228 145
f 146 148 228
f 148 147 230
f 147 164 235
f 169 233 170
f 168 233 169
f 160 233 168
f 164 165 235
f 166 235 165
f 166 162 235
f 162 172 235
f 162 167 170
f 162 170 172
f 170 233 172
f 172 233 235
f 200 224 193
f 197 198 196
f 197 201 198
f 198 201 210
f 201 219 210
f 199 193 201
f 197 199 201
f 199 200 193
f 201 193 219
f 193 203 219
f 205 220 204
f 204 220 232
f 220 234 232
f 203 234 220
f 210 219 211
f 211 219 212
f 212 219 217
f 205 215 217
f 215 218 217
f 212 217 218
f 203 220 219
f 205 217 220
f 217 219 220
f 193 224 227
f 225 227 224
f 225 226 227
f 226 230 227
f 227 230 231
f 203 227 231
f 193 227 203
f 148 230 228
f 228 230 229
f 226 229 230
f 147 235 230
f 230 235 231
f 231 235 233
f 203 231 234
f 160 232 234
f 160 234 233
f 231 233 234
f 167 169 170
f 178 181 197
f 224 185 177
f 224 180 185
f 181 180 224
f 181 224 200
f 186 224 177
f 186 188 224
f 178 196 179
f 179 196 182
f 178 197 196
f 182 196 184
f 181 199 197
f 184 196 202
f 196 198 202
f 198 210 202
f 181 200 199
f 202 210 214
f 210 211 214
f 211 212 214
f 214 218 215
f 212 218 214
f 188 223 224
f 144 145 228
f 223 144 225
f 144 228 225
f 226 228 229
f 223 225 224
f 225 228 226
