# MAAS exact compiled indexed mesh
# program_hash 1925c19f7feb311daa9d931c76646bfb13dc3a1cb7012e18690c336af9339b88
# geometry_hash f049b8784ceed0c5be5b944281c56470b56aedd8ff8254599e4f80ff4733934a
v -15.30179093 -10.9167562 0
v -15.30179093 -10.9167562 4.75303507
v -6.83326453 -10.9167562 4.75303507
v -6.83326453 -10.9167562 9.9
v -15.30179093 10.25455978 0
v -15.30179093 10.25455978 4.75303507
v -6.83326453 10.25455978 4.75303507
v -6.83326453 10.25455978 9.9
v 5.86952506 -10.9167562 0
v 5.86952506 -10.9167562 4.75096493
v 5.86952506 -10.9167562 4.75303507
v 14.33805145 -10.9167562 4.75096493
v 14.33805145 -10.9167562 9.9
v 0.57669606 4.96173079 0
v 5.86952506 4.96173079 0
v 5.86952506 4.96173079 4.75096493
v 0.95083805 9.97779365 0
v 0.57669606 10.25455978 0
v 0.9134178 10.25455978 0
v 0.87899762 10.50913696 0
v 5.27696232 5.7627775 0
v 5.86952506 5.84289512 0
v 6.8332682 5.97319831 0
v 4.19542112 8.68654707 0
v 3.89388375 10.91676555 0
v 6.4256396 8.98808444 0
v 0.57669606 10.25455978 4.75096493
v 0.57669606 10.25455978 4.75303507
v 0.9134178 10.25455978 4.75096493
v 0.9134178 10.25455978 4.75303507
v 0.87899762 10.50913696 4.75303507
v 5.86952506 5.84289512 4.75096493
v 6.8332682 5.97319831 4.75096493
v 4.19542112 8.68654707 4.75096493
v 3.98341748 10.25455978 4.75096493
v 3.98341748 10.25455978 4.75303507
v 3.89388375 10.91676555 4.75303507
v 6.4256396 8.98808444 4.75096493
v 14.33805145 4.96173079 4.75096493
v 9.04522246 10.25455978 4.75096493
v 9.3819442 10.25455978 4.75096493
v 9.34752401 10.50913696 4.75096493
v 14.33805145 5.84289512 4.75096493
v 15.30179459 5.97319831 4.75096493
v 12.66394751 8.68654707 4.75096493
v 12.36241014 10.91676555 4.75096493
v 14.89416599 8.98808444 4.75096493
v 9.04522246 4.96173079 9.9
v 14.33805145 4.96173079 9.9
v 9.41936444 9.97779365 9.9
v 9.04522246 10.25455978 9.9
v 9.3819442 10.25455978 9.9
v 9.34752401 10.50913696 9.9
v 13.74548871 5.7627775 9.9
v 14.33805145 5.84289512 9.9
v 14.33805145 6.70737384 9.9
v 15.30179459 5.97319831 9.9
v 12.66394751 8.68654707 9.9
v 12.36241014 10.91676555 9.9
v 14.89416599 8.98808444 9.9
f 4 3 11
f 4 8 3
f 8 7 3
f 8 51 7
f 12 11 10
f 4 11 12
f 4 12 13
f 4 13 8
f 12 39 13
f 13 39 49
f 13 49 48
f 27 28 30
f 27 30 29
f 40 35 36
f 8 13 48
f 51 28 7
f 51 30 28
f 51 36 30
f 40 36 51
f 8 48 51
f 39 43 49
f 40 52 41
f 48 49 51
f 40 51 52
f 51 50 52
f 51 54 50
f 43 55 49
f 51 49 54
f 49 55 54
f 54 55 56
f 42 59 46
f 44 47 57
f 42 53 59
f 50 56 52
f 52 56 53
f 53 58 59
f 47 60 57
f 50 54 56
f 55 57 56
f 56 57 58
f 57 60 58
f 53 56 58
f 1 9 2
f 1 5 9
f 1 2 6
f 2 10 3
f 2 9 10
f 1 6 5
f 6 7 5
f 5 14 9
f 5 18 14
f 5 27 18
f 5 7 28
f 5 28 27
f 10 11 3
f 9 16 10
f 9 14 15
f 9 15 16
f 15 32 16
f 14 18 15
f 18 19 17
f 18 17 21
f 18 27 19
f 15 21 22
f 18 21 15
f 15 22 32
f 19 27 29
f 17 19 22
f 19 20 22
f 20 25 24
f 20 37 25
f 17 22 21
f 20 23 22
f 23 24 26
f 23 26 38
f 20 24 23
f 20 31 37
f 23 38 33
f 41 53 42
f 43 44 55
f 41 52 53
f 44 57 55
f 19 31 20
f 22 23 33
f 19 29 31
f 31 29 30
f 22 33 32
f 46 58 45
f 45 60 47
f 46 59 58
f 45 58 60
f 24 34 26
f 25 35 24
f 24 35 34
f 26 34 38
f 25 37 35
f 37 36 35
f 12 10 16
f 12 16 39
f 16 32 33
f 35 38 34
f 40 38 35
f 39 16 33
f 39 33 38
f 40 39 38
f 40 41 39
f 41 42 45
f 42 46 45
f 41 43 39
f 43 45 47
f 43 47 44
f 41 45 43
f 2 3 6
f 6 3 7
f 31 30 37
f 37 30 36
