# MAAS exact compiled indexed mesh
# program_hash 1403de3df8391ab86ab64d38db6ebe1b61152448d1e688fb9764bf559a832688
# geometry_hash 5f9246ca391e5490c17a76eaf71bdca14617d7105ed0765257bf4d0112c0fb63
v -19.41225851 -11.41279348 1.92097612
v -22.071472 -5.23354261 1.92097612
v -19.41225851 -5.23354261 1.92097612
v -16.75304501 -2.81593614 1.92097612
v -16.75304501 -2.2271103 1.92097612
v -18.76636363 -0.29811683 1.92097612
v -16.75304501 -0.29811683 1.92097612
v -19.41225851 -11.41279348 8
v -22.071472 -5.23354261 4.85559118
v -19.41225851 -5.23354261 4.85559118
v -19.41225851 -2.2271103 4.85559118
v -19.41225851 -0.29811683 4.85559118
v -16.75304501 -2.2271103 4.85559118
v -16.75304501 -0.29811683 4.85559118
v -19.41225851 -2.2271103 8
v -19.41225851 -0.29811683 8
v -22.071472 2.70831549 1.92097612
v -19.41225851 2.70831549 1.92097612
v -19.41225851 8.88756636 1.92097612
v -22.071472 2.70831549 4.85559118
v -19.41225851 2.70831549 4.85559118
v -19.41225851 8.88756636 8
v 22.071472 -11.41279348 1.92097612
v 22.071472 -2.2271103 1.92097612
v 22.071472 -0.29811683 1.92097612
v 22.071472 -11.41279348 8
v 22.071472 -2.2271103 8
v 22.071472 -0.29811683 8
v 13.06124471 4.35036547 4.58e-06
v 13.06124471 5.41572894 4.58e-06
v 14.01451862 4.05881355 4.58e-06
v 15.07988209 4.05881355 4.58e-06
v 14.12660818 5.41572894 4.58e-06
v 15.07988209 5.12417701 4.58e-06
v 11.035736 3.8124764 1.92097612
v 22.071472 3.8124764 1.92097612
v 12.71020147 3.8124764 2.0668727
v 12.71020147 3.8857846 2.0668727
v 13.06124471 4.35036547 2.0668727
v 12.71020147 4.6470481 2.0668727
v 13.06124471 4.6470481 2.0668727
v 13.77556493 5.41572894 2.0668727
v 13.77556493 5.58875788 2.0668727
v 14.36556187 3.8857846 2.0668727
v 14.01451862 4.05881355 2.0668727
v 15.07988209 4.05881355 2.0668727
v 16.02092227 3.8857846 2.0668727
v 15.07988209 4.6470481 2.0668727
v 15.07988209 4.82749439 2.0668727
v 14.12660818 5.41572894 2.0668727
v 15.07988209 5.12417701 2.0668727
v 15.43092534 4.82749439 2.0668727
v 16.02092227 4.6470481 2.0668727
v 15.43092534 5.58875788 2.0668727
v 15.07988209 4.73727124 2.89636293
v 12.36800537 3.9644688 3.51368038
v 12.36800537 4.80441649 3.51368038
v 13.43336883 5.51007369 3.51368038
v 17.67628267 3.8857846 2.0668727
v 17.08628574 4.82749439 2.0668727
v 17.67628267 4.6470481 2.0668727
v 17.08628574 5.58875788 2.0668727
v 18.74164614 4.82749439 2.0668727
v 18.74164614 5.58875788 2.0668727
v 19.33164307 3.8124764 2.0668727
v 19.33164307 3.8857846 2.0668727
v 19.33164307 4.6470481 2.0668727
v 20.39700654 4.82749439 2.0668727
v 20.39700654 5.58875788 2.0668727
v 19.52783246 4.73727124 2.89636293
v 19.67383917 3.9644688 3.51368038
v 20.73920264 4.670126 3.51368038
v 20.73920264 5.51007369 3.51368038
v 13.06124471 7.28431381 4.58e-06
v 13.06124471 8.34967728 4.58e-06
v 14.12660818 7.28431381 4.58e-06
v 15.07988209 7.57586574 4.58e-06
v 14.01451862 8.64122921 4.58e-06
v 15.07988209 8.64122921 4.58e-06
v 11.035736 8.88756636 1.92097612
v 13.77556493 6.35002138 2.0668727
v 13.77556493 7.11128487 2.0668727
v 13.77556493 7.28431381 2.0668727
v 12.71020147 8.05299466 2.0668727
v 13.06124471 8.05299466 2.0668727
v 13.06124471 8.34967728 2.0668727
v 15.43092534 6.35002138 2.0668727
v 15.43092534 7.11128487 2.0668727
v 14.12660818 7.28431381 2.0668727
v 15.07988209 7.57586574 2.0668727
v 15.07988209 7.87254837 2.0668727
v 15.07988209 8.05299466 2.0668727
v 15.43092534 7.87254837 2.0668727
v 16.02092227 8.05299466 2.0668727
v 15.07988209 7.96277151 2.89636293
v 13.43336883 6.35002138 3.51368038
v 12.36800537 7.89562627 3.51368038
v 13.43336883 7.18996907 3.51368038
v 12.71020147 8.81425815 2.0668727
v 12.71020147 9.57552165 2.0668727
v 12.71020147 10.33678514 2.0668727
v 12.71020147 11.09804863 2.0668727
v 14.01451862 8.64122921 2.0668727
v 14.36556187 8.81425815 2.0668727
v 15.07988209 8.64122921 2.0668727
v 14.36556187 9.57552165 2.0668727
v 16.02092227 8.81425815 2.0668727
v 16.02092227 9.57552165 2.0668727
v 14.36556187 10.33678514 2.0668727
v 14.36556187 11.09804863 2.0668727
v 16.02092227 10.33678514 2.0668727
v 16.02092227 11.09804863 2.0668727
v 12.36800537 8.73557396 3.51368038
v 12.36800537 9.57552165 3.51368038
v 12.36800537 10.41546933 3.51368038
v 12.36800537 11.25541702 3.51368038
v 14.19446382 11.25541702 3.51368038
v 16.02092227 11.25541702 3.51368038
v 17.08628574 6.35002138 2.0668727
v 17.08628574 7.11128487 2.0668727
v 18.74164614 6.35002138 2.0668727
v 18.74164614 7.11128487 2.0668727
v 17.08628574 7.87254837 2.0668727
v 17.67628267 8.05299466 2.0668727
v 18.74164614 7.87254837 2.0668727
v 20.39700654 6.35002138 2.0668727
v 20.39700654 7.11128487 2.0668727
v 19.33164307 8.05299466 2.0668727
v 20.39700654 7.87254837 2.0668727
v 19.52783246 7.96277151 2.89636293
v 20.73920264 6.35002138 3.51368038
v 20.73920264 7.18996907 3.51368038
v 20.73920264 8.02991675 3.51368038
v 17.67628267 8.81425815 2.0668727
v 17.67628267 9.57552165 2.0668727
v 17.67628267 10.33678514 2.0668727
v 17.67628267 11.09804863 2.0668727
v 19.33164307 8.81425815 2.0668727
v 19.33164307 9.57552165 2.0668727
v 19.33164307 10.33678514 2.0668727
v 19.33164307 11.09804863 2.0668727
v 17.84738072 11.25541702 3.51368038
v 19.67383917 8.73557396 3.51368038
v 19.67383917 9.57552165 3.51368038
v 19.67383917 10.41546933 3.51368038
v 19.67383917 11.25541702 3.51368038
v 12.02580926 3.8124764 4.96048806
v 12.02580926 4.04315299 4.96048806
v 13.06124471 4.87186008 4.13374081
v 13.28671336 4.87186008 4.13374081
v 13.06124471 5.41572894 4.13374081
v 13.28671336 5.41572894 4.13374081
v 12.02580926 4.96178488 4.96048806
v 13.09117273 4.96178488 4.96048806
v 13.09117273 5.43138949 4.96048806
v 20.01603527 3.8124764 4.96048806
v 20.01603527 4.04315299 4.96048806
v 20.01603527 4.51275761 4.96048806
v 21.08139874 4.51275761 4.96048806
v 21.08139874 5.43138949 4.96048806
v 12.36800537 3.9644688 6.40729574
v 12.36800537 4.80441649 6.40729574
v 13.43336883 5.51007369 6.40729574
v 11.035736 3.8124764 8
v 12.71020147 3.8124764 7.85410343
v 12.71020147 3.8857846 7.85410343
v 13.57937554 4.73727124 7.0246132
v 12.71020147 4.6470481 7.85410343
v 13.77556493 4.82749439 7.85410343
v 13.77556493 5.58875788 7.85410343
v 14.36556187 3.8857846 7.85410343
v 16.02092227 3.8857846 7.85410343
v 14.36556187 4.6470481 7.85410343
v 15.43092534 4.82749439 7.85410343
v 16.02092227 4.6470481 7.85410343
v 15.43092534 5.58875788 7.85410343
v 19.67383917 3.9644688 6.40729574
v 20.73920264 4.670126 6.40729574
v 20.73920264 5.51007369 6.40729574
v 17.67628267 3.8857846 7.85410343
v 17.08628574 4.82749439 7.85410343
v 17.67628267 4.6470481 7.85410343
v 17.08628574 5.58875788 7.85410343
v 18.74164614 4.82749439 7.85410343
v 18.74164614 5.58875788 7.85410343
v 19.33164307 3.8124764 7.85410343
v 19.33164307 3.8857846 7.85410343
v 22.071472 3.8124764 8
v 19.52783246 4.73727124 7.0246132
v 19.33164307 4.6470481 7.85410343
v 20.39700654 4.82749439 7.85410343
v 20.39700654 5.58875788 7.85410343
v 13.09117273 6.35002138 4.96048806
v 13.06124471 7.28431381 4.13374081
v 13.06124471 7.82818267 4.13374081
v 13.28671336 7.28431381 4.13374081
v 13.28671336 7.82818267 4.13374081
v 12.02580926 7.73825788 4.96048806
v 13.09117273 7.26865326 4.96048806
v 13.09117273 7.73825788 4.96048806
v 12.02580926 8.65688976 4.96048806
v 12.02580926 9.57552165 4.96048806
v 12.02580926 10.49415353 4.96048806
v 12.02580926 11.41278541 4.96048806
v 14.02336577 11.41278541 4.96048806
v 16.02092227 11.41278541 4.96048806
v 21.08139874 6.35002138 4.96048806
v 20.01603527 8.18728514 4.96048806
v 21.08139874 7.26865326 4.96048806
v 21.08139874 8.18728514 4.96048806
v 18.01847877 11.41278541 4.96048806
v 20.01603527 8.65688976 4.96048806
v 20.01603527 9.57552165 4.96048806
v 20.01603527 10.49415353 4.96048806
v 20.01603527 11.41278541 4.96048806
v 13.43336883 6.35002138 6.40729574
v 12.36800537 7.89562627 6.40729574
v 13.43336883 7.18996907 6.40729574
v 13.77556493 6.35002138 7.85410343
v 13.77556493 7.11128487 7.85410343
v 13.57937554 7.96277151 7.0246132
v 12.71020147 8.05299466 7.85410343
v 13.77556493 7.87254837 7.85410343
v 15.43092534 6.35002138 7.85410343
v 15.43092534 7.11128487 7.85410343
v 14.36556187 8.05299466 7.85410343
v 15.43092534 7.87254837 7.85410343
v 16.02092227 8.05299466 7.85410343
v 12.36800537 8.73557396 6.40729574
v 12.36800537 9.57552165 6.40729574
v 12.36800537 10.41546933 6.40729574
v 12.36800537 11.25541702 6.40729574
v 14.19446382 11.25541702 6.40729574
v 16.02092227 11.25541702 6.40729574
v 11.035736 8.88756636 8
v 12.71020147 8.81425815 7.85410343
v 12.71020147 9.57552165 7.85410343
v 12.71020147 10.33678514 7.85410343
v 12.71020147 11.09804863 7.85410343
v 14.36556187 8.81425815 7.85410343
v 14.36556187 9.57552165 7.85410343
v 16.02092227 8.81425815 7.85410343
v 16.02092227 9.57552165 7.85410343
v 14.36556187 10.33678514 7.85410343
v 14.36556187 11.09804863 7.85410343
v 16.02092227 10.33678514 7.85410343
v 16.02092227 11.09804863 7.85410343
v 20.73920264 6.35002138 6.40729574
v 20.73920264 7.18996907 6.40729574
v 20.73920264 8.02991675 6.40729574
v 17.08628574 6.35002138 7.85410343
v 17.08628574 7.11128487 7.85410343
v 18.74164614 6.35002138 7.85410343
v 18.74164614 7.11128487 7.85410343
v 17.08628574 7.87254837 7.85410343
v 17.67628267 8.05299466 7.85410343
v 18.74164614 7.87254837 7.85410343
v 20.39700654 6.35002138 7.85410343
v 20.39700654 7.11128487 7.85410343
v 19.52783246 7.96277151 7.0246132
v 19.33164307 8.05299466 7.85410343
v 20.39700654 7.87254837 7.85410343
v 17.84738072 11.25541702 6.40729574
v 19.67383917 8.73557396 6.40729574
v 19.67383917 9.57552165 6.40729574
v 19.67383917 10.41546933 6.40729574
v 19.67383917 11.25541702 6.40729574
v 17.67628267 8.81425815 7.85410343
v 17.67628267 9.57552165 7.85410343
v 17.67628267 10.33678514 7.85410343
v 17.67628267 11.09804863 7.85410343
v 19.33164307 8.81425815 7.85410343
v 19.33164307 9.57552165 7.85410343
v 19.33164307 10.33678514 7.85410343
v 19.33164307 11.09804863 7.85410343
f 1 10 3
f 1 3 23
f 3 4 23
f 1 23 8
f 4 5 24
f 5 13 24
f 1 15 10
f 1 8 15
f 10 15 11
f 11 15 13
f 8 26 15
f 13 15 27
f 4 24 23
f 23 24 26
f 8 23 26
f 13 27 24
f 15 26 27
f 24 27 26
f 7 25 14
f 12 14 16
f 14 25 16
f 6 18 7
f 18 21 19
f 18 19 25
f 7 18 25
f 19 22 80
f 12 16 21
f 21 16 22
f 21 22 19
f 16 28 22
f 16 25 28
f 19 35 25
f 19 80 35
f 25 35 36
f 25 36 188
f 22 28 164
f 22 235 80
f 22 164 235
f 25 188 28
f 28 188 164
f 38 39 45
f 38 45 44
f 38 40 39
f 39 40 41
f 40 57 41
f 38 65 37
f 45 46 44
f 44 46 47
f 38 44 65
f 46 48 47
f 48 53 47
f 48 55 53
f 41 57 153
f 41 153 149
f 44 47 65
f 47 53 59
f 47 59 65
f 59 61 66
f 59 66 65
f 53 61 59
f 53 70 61
f 61 67 66
f 61 70 67
f 55 70 53
f 66 67 70
f 66 156 65
f 66 71 156
f 66 158 71
f 66 70 158
f 149 154 150
f 149 153 154
f 153 162 154
f 71 157 156
f 71 158 157
f 157 186 156
f 157 158 189
f 154 162 168
f 154 168 167
f 166 165 171
f 166 171 168
f 168 173 167
f 171 165 172
f 171 172 173
f 172 165 180
f 167 173 175
f 168 171 173
f 167 175 182
f 173 172 175
f 157 189 177
f 157 177 186
f 180 165 187
f 187 165 186
f 172 180 175
f 180 187 182
f 167 190 189
f 167 182 190
f 175 180 182
f 182 187 190
f 177 187 186
f 177 190 187
f 177 189 190
f 84 86 85
f 84 99 86
f 92 105 94
f 105 107 94
f 99 103 86
f 99 104 103
f 99 100 104
f 100 101 106
f 101 102 109
f 102 116 110
f 103 104 107
f 103 107 105
f 104 106 107
f 100 106 104
f 106 109 108
f 107 106 108
f 101 109 106
f 109 110 111
f 102 110 109
f 109 111 108
f 110 112 111
f 117 112 110
f 116 117 110
f 116 204 117
f 117 118 112
f 117 205 118
f 94 107 124
f 124 134 128
f 128 138 143
f 128 143 130
f 130 143 212
f 107 134 124
f 107 108 134
f 108 135 134
f 108 111 135
f 134 135 138
f 134 138 128
f 135 136 139
f 135 139 138
f 111 136 135
f 111 112 136
f 112 137 136
f 136 137 140
f 136 140 139
f 137 141 140
f 112 118 137
f 137 142 141
f 138 139 144
f 139 140 145
f 140 141 146
f 118 142 137
f 142 146 141
f 118 206 142
f 142 211 146
f 138 144 143
f 139 145 144
f 143 144 213
f 140 146 145
f 144 145 214
f 145 146 215
f 117 204 205
f 118 205 206
f 204 232 205
f 205 232 233
f 205 233 206
f 233 234 206
f 130 212 208
f 208 212 264
f 206 211 142
f 146 211 215
f 143 213 212
f 144 214 213
f 145 215 214
f 206 234 211
f 211 263 215
f 234 263 211
f 263 267 215
f 212 213 265
f 212 265 264
f 213 266 265
f 213 214 266
f 214 215 267
f 214 267 266
f 222 226 236
f 226 228 240
f 232 239 233
f 233 245 234
f 236 240 237
f 237 241 238
f 239 245 233
f 238 244 239
f 236 226 240
f 240 242 241
f 237 240 241
f 241 243 244
f 240 228 242
f 242 243 241
f 245 247 234
f 238 241 244
f 244 246 245
f 239 244 245
f 244 243 246
f 245 246 247
f 208 272 260
f 228 256 242
f 256 261 268
f 261 260 272
f 234 247 263
f 271 267 263
f 208 264 272
f 264 265 273
f 265 266 274
f 266 267 275
f 242 256 268
f 242 268 243
f 243 268 269
f 243 269 246
f 268 272 269
f 268 261 272
f 269 273 270
f 269 272 273
f 247 271 263
f 271 275 267
f 246 269 270
f 246 270 247
f 247 270 271
f 270 274 271
f 270 273 274
f 271 274 275
f 264 273 272
f 265 274 273
f 266 275 274
f 42 43 50
f 43 54 50
f 50 54 51
f 49 51 52
f 51 54 52
f 52 54 60
f 54 62 60
f 60 62 63
f 62 64 63
f 63 64 68
f 64 69 68
f 68 69 73
f 68 73 72
f 72 73 160
f 43 81 54
f 81 87 54
f 81 82 87
f 82 88 87
f 54 87 62
f 87 119 62
f 87 88 119
f 88 120 119
f 82 83 89
f 82 89 88
f 89 90 88
f 90 93 88
f 90 91 93
f 88 93 120
f 93 123 120
f 91 95 93
f 95 123 93
f 62 119 64
f 119 120 121
f 119 121 64
f 64 121 69
f 121 120 122
f 121 122 126
f 120 123 122
f 95 125 123
f 123 125 122
f 122 125 127
f 95 130 125
f 121 126 69
f 126 122 127
f 69 126 131
f 126 127 132
f 125 129 127
f 125 130 129
f 127 129 133
f 130 133 129
f 69 131 73
f 126 132 131
f 73 131 207
f 131 132 209
f 127 133 132
f 130 210 133
f 132 133 210
f 72 160 159
f 159 160 179
f 159 179 178
f 169 174 170
f 170 174 176
f 174 181 176
f 176 181 183
f 178 179 192
f 181 184 183
f 183 184 185
f 184 191 185
f 178 192 191
f 185 191 192
f 73 207 160
f 131 209 207
f 130 208 210
f 132 210 209
f 160 207 248
f 207 209 249
f 160 248 179
f 207 249 248
f 208 250 210
f 209 210 250
f 209 250 249
f 170 176 219
f 219 176 224
f 219 224 220
f 220 224 225
f 176 183 224
f 224 183 251
f 224 251 225
f 225 251 252
f 221 223 260
f 220 225 223
f 223 225 227
f 225 252 227
f 227 252 255
f 223 227 260
f 179 248 258
f 248 249 259
f 208 260 250
f 249 250 262
f 183 185 251
f 251 253 252
f 251 185 253
f 185 192 253
f 253 254 252
f 253 258 254
f 252 254 255
f 227 255 260
f 255 254 257
f 254 259 257
f 255 257 260
f 179 258 192
f 258 248 259
f 253 192 258
f 258 259 254
f 249 262 259
f 257 250 260
f 257 262 250
f 257 259 262
f 2 3 9
f 3 10 9
f 5 7 13
f 2 9 20
f 13 7 14
f 9 10 11
f 9 11 12
f 9 12 20
f 11 13 12
f 13 14 12
f 2 20 17
f 17 21 18
f 17 20 21
f 12 21 20
f 2 6 3
f 3 5 4
f 2 17 6
f 3 6 5
f 5 6 7
f 6 17 18
f 35 65 36
f 35 147 37
f 35 37 65
f 36 65 156
f 35 80 235
f 35 164 147
f 35 235 164
f 36 156 188
f 164 165 147
f 164 186 165
f 188 156 186
f 164 188 186
f 38 37 56
f 38 57 40
f 38 56 57
f 56 37 148
f 148 37 147
f 56 153 57
f 56 148 153
f 148 147 161
f 148 161 162
f 148 162 153
f 161 147 166
f 166 147 165
f 161 168 162
f 161 166 168
f 84 113 99
f 84 85 195
f 92 94 95
f 95 94 124
f 84 195 97
f 84 97 113
f 97 201 113
f 99 114 100
f 100 115 101
f 101 116 102
f 99 113 114
f 100 114 115
f 113 202 114
f 101 115 116
f 114 203 115
f 115 204 116
f 95 124 128
f 95 128 130
f 97 198 201
f 97 195 200
f 97 200 198
f 195 197 200
f 198 229 201
f 198 217 229
f 198 200 221
f 113 201 202
f 114 202 203
f 115 203 204
f 201 230 202
f 201 229 230
f 202 230 231
f 202 231 203
f 203 232 204
f 203 231 232
f 198 221 217
f 217 236 229
f 217 221 222
f 217 222 236
f 222 221 226
f 221 260 226
f 229 237 230
f 230 238 231
f 231 239 232
f 229 236 237
f 230 237 238
f 231 238 239
f 226 260 228
f 228 260 256
f 256 260 261
f 42 152 43
f 43 152 58
f 49 52 70
f 52 60 70
f 60 63 70
f 49 70 55
f 63 68 70
f 70 68 158
f 68 72 158
f 43 96 81
f 81 98 82
f 82 98 83
f 43 58 96
f 81 96 98
f 58 193 96
f 96 199 98
f 83 98 199
f 83 199 196
f 58 152 155
f 155 152 150
f 154 155 150
f 154 163 155
f 72 159 158
f 158 159 189
f 154 170 163
f 154 167 170
f 167 169 170
f 167 174 169
f 167 181 174
f 167 184 181
f 159 178 189
f 167 189 184
f 184 189 178
f 184 178 191
f 58 155 193
f 96 193 199
f 200 197 196
f 199 200 196
f 155 216 193
f 193 218 199
f 155 163 216
f 193 216 218
f 199 221 200
f 163 219 216
f 216 220 218
f 199 218 221
f 163 170 219
f 219 220 216
f 218 223 221
f 218 220 223
f 29 31 45
f 29 30 32
f 29 32 31
f 31 32 46
f 30 34 32
f 30 33 34
f 32 34 48
f 33 50 34
f 29 45 39
f 29 39 41
f 29 151 30
f 30 151 33
f 31 46 45
f 32 48 46
f 34 49 48
f 33 42 50
f 50 51 34
f 34 51 49
f 29 41 151
f 33 151 42
f 48 49 55
f 41 149 151
f 42 151 152
f 149 150 151
f 151 150 152
f 74 75 77
f 74 76 83
f 75 86 78
f 74 77 76
f 75 79 77
f 75 78 79
f 76 77 90
f 77 79 105
f 74 194 75
f 75 85 86
f 78 86 103
f 76 89 83
f 76 90 89
f 77 91 90
f 77 92 91
f 77 105 92
f 78 103 79
f 103 105 79
f 74 83 194
f 75 194 85
f 91 92 95
f 85 194 195
f 83 196 194
f 194 196 195
f 195 196 197
