# MAAS exact compiled indexed mesh
# program_hash dd917ea9652b277b93433cdfd3c99dee293951bd78fca57f9c9c3d8b0b93a350
# geometry_hash 48c04fb2618139325e3cc2890f99b175216f16f2691c912efc7cf3e36e9604e7
v -12.57999059 -12.57999059 3.025
v -12.57999059 -12.57999059 9.9
v -9.05759322 8.05119398 0
v -9.05759322 12.57999059 0
v -12.57999059 12.57999059 3.025
v -9.05759322 8.05119398 3.025
v -9.05759322 12.57999059 3.025
v -12.57999059 12.57999059 9.9
v 12.57999059 -12.57999059 3.025
v 12.57999059 -12.57999059 9.9
v 9.05759322 8.05119398 0
v 9.05759322 12.57999059 0
v 9.05759322 8.05119398 3.025
v 9.05759322 12.57999059 3.025
v 12.57999059 12.57999059 3.025
v 12.57999059 12.57999059 9.9
f 1 2 8
f 1 9 2
f 2 10 8
f 1 5 6
f 5 7 6
f 1 6 13
f 1 8 5
f 5 16 7
f 5 8 16
f 1 13 9
f 2 9 10
f 9 15 10
f 9 13 14
f 9 14 15
f 8 10 16
f 16 14 7
f 10 15 16
f 15 14 16
f 3 6 4
f 4 6 7
f 3 13 6
f 3 4 11
f 4 7 12
f 3 11 13
f 4 12 11
f 12 7 14
f 11 12 14
f 11 14 13
