# MAAS exact compiled indexed mesh
# program_hash 9c58a66525007333651fa6e2b35cece6080961369cf658a466947011f6191a41
# geometry_hash 34667af40701f3157e5d63b026b5a124a24896891867703ae0bdc3383b80395a
v -18.9944271 -9.93170643 0
v -21.59640342 -3.88545838 0
v -18.9944271 -3.88545838 0
v -16.39245079 -1.51988871 0
v -16.39245079 -0.94373681 0
v -21.59640342 -3.88545838 3.48451295
v -18.9944271 -3.88545838 3.48451295
v -18.9944271 -0.94373681 3.48451295
v -16.39245079 -0.94373681 3.48451295
v -6.11610145 -0.94373681 3.03415602
v -5.20694421 -0.94373681 3.03415602
v -4.64234206 -0.43043248 3.03415602
v -4.64234206 -0.26726626 3.03415602
v -18.9944271 -9.93170643 7.21813151
v -18.9944271 -0.94373681 7.21813151
v -6.11610145 -0.94373681 5.43138943
v -5.37922176 -0.94373681 5.43138943
v -5.37922176 -0.26726626 5.43138943
v -4.64234206 -0.26726626 5.43138943
v -5.37922176 -2.81265926 7.21813151
v -5.37922176 -2.81265926 7.99999952
v -5.37922176 -0.94373681 7.21813151
v -5.37922176 -0.26726626 7.99999952
v -18.36243453 0.94373681 0
v -16.39245079 0.94373681 0
v -21.59640342 3.88545838 0
v -18.9944271 3.88545838 0
v -18.9944271 0.94373681 3.48451295
v -16.39245079 0.94373681 3.48451295
v -21.59640342 3.88545838 3.48451295
v -18.9944271 3.88545838 3.48451295
v -18.9944271 9.93170643 0
v -6.11610145 0.94373681 3.03415602
v -5.20024146 0.26726626 3.03415602
v -4.64234206 0.26726626 3.03415602
v -5.34557281 0.94373681 3.03415602
v -18.9944271 0.94373681 7.21813151
v -18.9944271 9.93170643 7.21813151
v -6.11610145 0.94373681 5.43138943
v -5.37922176 0.26726626 5.43138943
v -4.64234206 0.26726626 5.43138943
v -5.37922176 0.94373681 5.43138943
v -5.37922176 0.94373681 7.21813151
v -5.37922176 0.26726626 7.99999952
v -5.37922176 2.81265926 7.21813151
v -5.37922176 2.81265926 7.99999952
v 6.11610145 -0.94373681 3.03415602
v 6.11610145 -0.26726626 3.03415602
v 21.59640342 -9.93170643 0
v 21.59640342 -0.94373681 0
v 6.11610145 -2.81265926 7.21813151
v 6.11610145 -2.81265926 7.99999952
v 6.11610145 -0.94373681 7.21813151
v 6.11610145 -0.26726626 7.99999952
v 21.59640342 -9.93170643 7.21813151
v 21.59640342 -0.94373681 7.21813151
v 6.11610145 0.26726626 3.03415602
v 6.11610145 0.94373681 3.03415602
v 21.59640342 0.94373681 0
v 21.59640342 9.93170643 0
v 6.11610145 0.94373681 7.21813151
v 6.11610145 0.26726626 7.99999952
v 6.11610145 2.81265926 7.21813151
v 6.11610145 2.81265926 7.99999952
v 21.59640342 0.94373681 7.21813151
v 21.59640342 9.93170643 7.21813151
f 1 7 3
f 1 15 7
f 1 3 49
f 3 4 49
f 1 49 14
f 4 5 50
f 5 9 50
f 9 16 10
f 9 10 50
f 1 14 15
f 7 15 8
f 8 15 9
f 9 15 16
f 14 55 15
f 15 17 16
f 15 22 17
f 15 20 22
f 15 55 20
f 4 50 49
f 50 10 11
f 50 11 47
f 49 50 55
f 50 47 53
f 14 49 55
f 55 51 20
f 50 56 55
f 50 53 56
f 56 53 51
f 55 56 51
f 24 27 25
f 27 31 32
f 31 38 32
f 27 32 59
f 25 27 59
f 25 59 29
f 29 33 39
f 29 59 33
f 28 37 31
f 28 29 37
f 31 37 38
f 29 39 37
f 37 45 38
f 37 39 42
f 37 42 43
f 37 43 45
f 32 38 66
f 38 45 63
f 59 36 33
f 59 58 36
f 32 60 59
f 32 66 60
f 59 65 58
f 59 60 65
f 38 63 65
f 38 65 66
f 65 61 58
f 65 63 61
f 60 66 65
f 12 47 11
f 12 13 48
f 13 19 48
f 21 20 52
f 18 17 23
f 18 23 19
f 23 17 22
f 21 22 20
f 21 23 22
f 21 52 23
f 19 23 54
f 12 48 47
f 19 54 48
f 48 53 47
f 52 20 51
f 23 52 54
f 48 54 53
f 52 51 53
f 52 53 54
f 34 36 35
f 35 36 57
f 35 57 41
f 41 57 44
f 40 41 44
f 40 43 42
f 40 44 43
f 46 45 43
f 44 46 43
f 44 62 46
f 46 63 45
f 57 36 58
f 57 58 62
f 44 57 62
f 46 62 64
f 46 64 63
f 62 58 61
f 64 61 63
f 62 61 64
f 2 3 6
f 5 25 9
f 3 7 6
f 6 7 8
f 2 6 30
f 6 8 28
f 8 9 28
f 2 30 26
f 26 31 27
f 9 25 29
f 6 28 30
f 9 29 28
f 26 30 31
f 28 31 30
f 13 35 19
f 10 16 39
f 18 16 17
f 18 40 16
f 18 19 40
f 39 33 10
f 40 42 16
f 39 16 42
f 19 35 41
f 19 41 40
f 2 24 3
f 3 24 5
f 3 5 4
f 2 26 24
f 5 24 25
f 24 26 27
f 11 10 33
f 12 11 13
f 13 11 34
f 34 11 33
f 34 33 36
f 13 34 35
