# MAAS exact compiled indexed mesh
# program_hash ad760b1d079c49e541eb504df2bb6ed7c093434e95384da1035f4c0f289a1692
# geometry_hash 232c8ab10f1c44393db6d06d4cd32e76b844d906fc2e1cb0553c3509a4fbf5ec
v -18.74324809 -11.75198275 0
v -18.74324809 -10.19014197 0
v -18.74324809 -11.75198275 1.98
v -18.74324809 -10.19014197 1.98
v -18.74324809 -8.6283012 0
v -18.74324809 -7.06646042 0
v -18.74324809 -8.6283012 1.98
v -18.74324809 -7.06646042 1.98
v -10.87179293 -10.85514371 0
v -11.22313066 -9.33333282 0
v -10.87179293 -10.85514371 1.98
v -11.92580611 -6.28971102 0
v -11.57446838 -7.81152192 0
v -18.74324809 -11.75198275 3.96
v -18.74324809 -10.19014197 3.96
v -18.74324809 -8.6283012 3.96
v -18.74324809 -7.06646042 3.96
v -10.87179293 -10.85514371 3.96
v -18.74324809 -5.50461964 0
v -18.74324809 -3.94277887 0
v -18.74324809 -5.50461964 1.98
v -18.74324809 -3.94277887 1.98
v -12.27714384 -4.76790012 0
v -12.62848157 -3.24608923 0
v -12.62848157 -3.24608923 1.98
v -18.74324809 -5.50461964 3.96
v -18.74324809 -3.94277887 3.96
v -12.62848157 -3.24608923 3.96
v -3.40382753 -8.21059847 0
v -4.08849347 -6.80682528 0
v -3.40382753 -8.21059847 1.98
v -3.40382753 -8.21059847 3.96
v -4.7731594 -5.40305209 0
v -5.45782533 -3.9992789 0
v -6.14249126 -2.59550571 0
v -6.82715719 -1.19173252 0
v -6.82715719 -1.19173252 1.98
v -6.82715719 -1.19173252 3.96
v -18.74324809 -11.75198275 5.94
v -18.74324809 -10.19014197 5.94
v -18.74324809 -8.6283012 5.94
v -18.74324809 -7.06646042 5.94
v -10.87179293 -10.85514371 5.94
v -18.74324809 -11.75198275 7.92
v -18.74324809 -10.19014197 7.92
v -18.74324809 -11.75198275 9.9
v -18.74324809 -10.19014197 9.9
v -18.74324809 -8.6283012 7.92
v -18.74324809 -7.06646042 7.92
v -18.74324809 -8.6283012 9.9
v -18.74324809 -7.06646042 9.9
v -10.87179293 -10.85514371 7.92
v -10.87179293 -10.85514371 9.9
v -11.22313066 -9.33333282 9.9
v -11.92580611 -6.28971102 9.9
v -11.57446838 -7.81152192 9.9
v -18.74324809 -5.50461964 5.94
v -18.74324809 -3.94277887 5.94
v -12.62848157 -3.24608923 5.94
v -18.74324809 -5.50461964 7.92
v -18.74324809 -3.94277887 7.92
v -18.74324809 -5.50461964 9.9
v -18.74324809 -3.94277887 9.9
v -12.62848157 -3.24608923 7.92
v -12.27714384 -4.76790012 9.9
v -12.62848157 -3.24608923 9.9
v -3.40382753 -8.21059847 5.94
v -3.40382753 -8.21059847 7.92
v -3.40382753 -8.21059847 9.9
v -4.08849347 -6.80682528 9.9
v -6.82715719 -1.19173252 5.94
v -4.7731594 -5.40305209 9.9
v -5.45782533 -3.9992789 9.9
v -6.82715719 -1.19173252 7.92
v -6.14249126 -2.59550571 9.9
v -6.82715719 -1.19173252 9.9
v -0.65375184 0.90120694 0
v -1.63665009 2.1149852 0
v -1.63665009 2.1149852 1.98
v -1.63665009 2.1149852 3.96
v -2.88655177 1.31871 4.95
v -1.63665009 2.1149852 4.95
v -2.88655177 3e-06 9.9
v -2.88655177 1.31871 9.9
v -2.88655177 6.16979551 4.95
v -2.88655177 6.16979551 9.9
v 3.27784115 -3.95390606 0
v 3.27784115 -3.95390606 1.98
v 2.2949429 -2.74012781 0
v 1.31204465 -1.52634956 0
v 0.32914641 -0.31257131 0
v 3.27784115 -3.95390606 3.96
v 3.27784115 -3.95390606 5.94
v 3.27784115 -3.95390606 7.92
v 3.27784115 -3.95390606 9.9
v 2.2949429 -2.74012781 9.9
v 1.31204465 -1.52634956 9.9
v 0.32914641 -0.31257131 9.9
v 3.90772234 5.5429968 0
v 7.59996432 2.65830121 0
v 8.83071165 1.69673601 0
v 8.83071165 1.69673601 1.98
v 6.369217 3.61986641 0
v 5.13846967 4.5814316 0
v 8.83071165 1.69673601 3.96
v 2.67697502 6.50456199 0
v 2.67697502 6.50456199 1.98
v 5.89260226 11.75198874 0
v 7.30811072 11.09192631 0
v 8.72361918 10.43186387 0
v 5.89260226 11.75198874 1.98
v 7.30811072 11.09192631 1.98
v 8.72361918 10.43186387 1.98
v 2.67697502 6.50456199 3.96
v 5.89260226 11.75198874 3.96
v 7.30811072 11.09192631 3.96
v 8.72361918 10.43186387 3.96
v 12.97014455 8.45167657 0
v 12.97014455 8.45167657 1.98
v 10.13912763 9.77180144 0
v 11.55463609 9.11173901 0
v 10.13912763 9.77180144 1.98
v 11.55463609 9.11173901 1.98
v 12.97014455 8.45167657 3.96
v 10.13912763 9.77180144 3.96
v 11.55463609 9.11173901 3.96
v 7.16333676 3e-06 4.95
v 8.83071165 1.69673601 4.95
v 7.16333676 3e-06 9.9
v 0.4129096 6.16979551 4.95
v 2.27641187 6.09694598 4.95
v 2.67697502 6.50456199 4.95
v 0.4129096 11.75198874 4.95
v 5.89260226 11.75198874 4.95
v 0.4129096 6.16979551 9.9
v 0.4129096 11.75198874 9.9
v 11.31073656 5.74376886 4.95
v 15.44378917 3e-06 4.95
v 15.44378917 5.58219622 4.95
v 18.74325054 5.58219622 4.95
v 15.44378917 3e-06 9.9
v 15.44378917 5.58219622 9.9
v 18.74325054 5.58219622 9.9
v 12.97014455 8.45167657 4.95
v 18.74325054 11.75198874 4.95
v 18.74325054 11.75198874 9.9
f 1 4 2
f 2 7 5
f 1 2 9
f 1 9 3
f 2 5 10
f 1 3 4
f 2 4 7
f 5 8 6
f 6 19 12
f 6 21 19
f 5 6 13
f 6 12 13
f 5 7 8
f 6 8 21
f 2 10 9
f 3 9 11
f 5 13 10
f 13 12 33
f 3 15 4
f 3 14 15
f 4 16 7
f 4 15 16
f 3 11 14
f 14 40 15
f 15 41 16
f 14 18 39
f 7 17 8
f 7 16 17
f 8 26 21
f 8 17 26
f 16 42 17
f 17 57 26
f 11 18 14
f 19 20 23
f 19 22 20
f 12 19 23
f 20 24 23
f 20 25 24
f 19 21 22
f 20 22 25
f 12 23 34
f 23 24 35
f 24 25 37
f 21 27 22
f 21 26 27
f 22 27 28
f 22 28 25
f 26 58 27
f 27 59 28
f 25 28 38
f 9 10 29
f 9 29 11
f 11 29 31
f 10 13 30
f 10 30 29
f 13 33 30
f 29 30 87
f 29 87 31
f 11 31 18
f 18 31 32
f 18 32 43
f 31 88 32
f 32 92 67
f 12 34 33
f 23 35 34
f 24 36 35
f 24 37 36
f 36 37 79
f 34 90 33
f 30 33 89
f 33 90 89
f 34 35 91
f 35 36 77
f 34 91 90
f 35 77 91
f 25 38 37
f 37 38 80
f 28 71 38
f 14 39 40
f 15 40 41
f 39 45 40
f 39 44 45
f 40 48 41
f 40 45 48
f 39 43 44
f 16 41 42
f 17 42 57
f 41 49 42
f 41 48 49
f 42 60 57
f 42 49 60
f 18 43 39
f 43 52 44
f 44 47 45
f 45 50 48
f 44 52 46
f 44 46 47
f 45 47 50
f 46 53 47
f 47 54 50
f 48 51 49
f 49 62 60
f 48 50 51
f 49 51 62
f 51 55 62
f 50 56 51
f 51 56 55
f 46 52 53
f 47 53 54
f 50 54 56
f 56 72 55
f 26 57 58
f 27 58 59
f 57 61 58
f 57 60 61
f 58 61 64
f 58 64 59
f 28 59 71
f 59 64 74
f 60 63 61
f 61 66 64
f 60 62 63
f 62 65 63
f 61 63 66
f 55 65 62
f 63 65 66
f 55 73 65
f 65 75 66
f 64 66 76
f 32 67 43
f 43 67 52
f 52 67 68
f 67 93 68
f 52 68 53
f 53 69 54
f 53 68 69
f 54 70 56
f 54 69 70
f 56 70 72
f 68 94 69
f 69 95 70
f 38 71 81
f 59 74 71
f 71 74 81
f 55 72 73
f 65 73 75
f 64 76 74
f 74 76 81
f 66 75 76
f 75 83 76
f 73 72 97
f 70 96 72
f 72 96 97
f 73 98 75
f 75 98 83
f 73 97 98
f 36 78 77
f 36 79 78
f 78 79 107
f 37 80 79
f 38 82 80
f 38 81 82
f 79 80 114
f 80 82 131
f 76 84 81
f 76 83 84
f 30 89 87
f 31 87 88
f 90 100 89
f 87 89 101
f 87 101 88
f 88 101 102
f 32 88 92
f 88 102 92
f 92 102 105
f 92 105 93
f 67 92 93
f 68 93 94
f 93 105 127
f 93 127 129
f 69 94 95
f 70 95 96
f 93 129 94
f 98 129 83
f 94 129 95
f 95 129 96
f 98 97 129
f 97 96 129
f 78 99 77
f 91 77 104
f 91 103 90
f 91 104 103
f 78 106 99
f 78 107 106
f 77 99 104
f 89 100 101
f 90 103 100
f 100 103 121
f 79 114 107
f 80 132 114
f 80 131 132
f 105 128 127
f 99 106 109
f 106 107 111
f 99 110 104
f 103 104 120
f 104 110 120
f 103 120 121
f 106 108 109
f 99 109 110
f 106 111 108
f 108 112 109
f 109 113 110
f 108 111 112
f 110 113 122
f 109 112 113
f 107 114 115
f 114 132 134
f 107 115 111
f 111 116 112
f 111 115 116
f 113 117 125
f 112 117 113
f 112 116 117
f 114 134 115
f 115 144 116
f 115 134 144
f 100 118 101
f 101 118 102
f 102 119 105
f 105 124 128
f 124 137 128
f 100 121 118
f 118 121 119
f 102 118 119
f 110 122 120
f 120 123 121
f 120 122 123
f 119 121 123
f 105 119 124
f 119 123 124
f 124 126 144
f 124 144 137
f 113 125 122
f 122 126 123
f 122 125 126
f 123 126 124
f 116 144 117
f 125 144 126
f 117 144 125
f 85 82 81
f 85 131 82
f 85 81 86
f 86 81 84
f 85 130 131
f 85 86 130
f 130 86 135
f 83 129 84
f 86 84 129
f 86 141 135
f 86 129 141
f 138 127 128
f 138 128 137
f 138 129 127
f 138 137 139
f 138 139 142
f 138 141 129
f 135 141 142
f 138 142 141
f 130 133 131
f 133 132 131
f 133 134 132
f 130 136 133
f 133 146 134
f 130 135 136
f 135 142 136
f 133 136 146
f 139 137 140
f 139 140 142
f 140 143 142
f 145 144 134
f 140 137 144
f 140 144 145
f 140 145 143
f 146 145 134
f 136 142 143
f 136 143 146
f 143 145 146
