# MAAS exact compiled indexed mesh
# program_hash 1c7a2ef3f7f0863fbefa909bfd0d1506697c923972f9e557427c482660334d8c
# geometry_hash 892bfaec28365c79223d6389be598d55c5d98646fed8f097dbaabc409518a9db
v -15.79544916 -12.91909772 0
v -15.79544916 -11.36337728 0
v -15.79544916 -9.80765684 0
v -15.79544916 -12.91909772 1.97941442
v -15.79544916 -11.36337728 1.97941442
v -15.79544916 -9.80765684 1.97941442
v -15.79544916 -8.25193641 0
v -15.79544916 -6.69621597 0
v -15.79544916 -8.25193641 1.97941442
v -15.79544916 -6.69621597 1.97941442
v -7.95483963 -12.0257731 0
v -8.30480058 -10.50992568 0
v -7.95483963 -12.0257731 1.97941442
v -8.65476153 -8.99407825 0
v -9.00472249 -7.47823083 0
v -15.79544916 -12.91909772 3.95882885
v -15.79544916 -11.36337728 3.95882885
v -15.79544916 -9.80765684 3.95882885
v -15.79544916 -8.25193641 3.95882885
v -15.79544916 -6.69621597 3.95882885
v -7.95483963 -12.0257731 3.95882885
v -15.79544916 -5.14049553 0
v -15.79544916 -5.14049553 1.97941442
v -9.35468344 -5.96238341 0
v -9.70464439 -4.44653598 0
v -9.70464439 -4.44653598 1.97941442
v -15.79544916 -5.14049553 3.95882885
v -9.70464439 -4.44653598 3.95882885
v -0.51613872 -9.39159096 0
v -1.19812168 -7.99331869 0
v -1.88010463 -6.59504642 0
v -0.51613872 -9.39159096 1.97941442
v -0.51613872 -9.39159096 3.95882885
v -0.00088999 -9.06334131 4.94853606
v -0.00088999 -9.06334131 4.94997925
v -2.56208758 -5.19677415 0
v -3.24407053 -3.79850189 0
v -3.92605349 -2.40022962 0
v -3.92605349 -2.40022962 1.97941442
v -3.92605349 -2.40022962 3.95882885
v -2.06273389 -1.21316412 4.94853606
v -0.00088999 -3.15739586 4.94853606
v -15.79544916 -12.91909772 5.93824327
v -15.79544916 -11.36337728 5.93824327
v -15.79544916 -9.80765684 5.93824327
v -15.79544916 -8.25193641 5.93824327
v -15.79544916 -6.69621597 5.93824327
v -7.95483963 -12.0257731 5.93824327
v -15.79544916 -12.91909772 7.91765769
v -15.79544916 -11.36337728 7.91765769
v -15.79544916 -9.80765684 7.91765769
v -15.79544916 -12.91909772 9.89707212
v -15.79544916 -11.36337728 9.89707212
v -15.79544916 -9.80765684 9.89707212
v -15.79544916 -8.25193641 7.91765769
v -15.79544916 -6.69621597 7.91765769
v -15.79544916 -8.25193641 9.89707212
v -15.79544916 -6.69621597 9.89707212
v -7.95483963 -12.0257731 7.91765769
v -7.95483963 -12.0257731 9.89707212
v -8.30480058 -10.50992568 9.89707212
v -8.65476153 -8.99407825 9.89707212
v -9.00472249 -7.47823083 9.89707212
v -15.79544916 -5.14049553 5.93824327
v -9.70464439 -4.44653598 5.93824327
v -15.79544916 -5.14049553 7.91765769
v -15.79544916 -5.14049553 9.89707212
v -9.70464439 -4.44653598 7.91765769
v -9.35468344 -5.96238341 9.89707212
v -9.70464439 -4.44653598 9.89707212
v -0.51613872 -9.39159096 5.93824327
v -0.51613872 -9.39159096 7.91765769
v -0.51613872 -9.39159096 9.89707212
v -0.00088999 -9.06334131 9.65118213
v -0.00088999 -9.06334131 9.89707212
v -1.19812168 -7.99331869 9.89707212
v -1.88010463 -6.59504642 9.89707212
v -3.92605349 -2.40022962 5.93824327
v -2.56208758 -5.19677415 9.89707212
v -3.24407053 -3.79850189 9.89707212
v -3.92605349 -2.40022962 7.91765769
v -3.92605349 -2.40022962 9.89707212
v -2.06273389 -1.21316412 9.89707212
v -1.25090232 -3.15739586 9.89707212
v -0.00088999 -3.15739586 9.89707212
v -0.72812572 -1.79288824 9.89707212
v -0.16110466 -1.21316412 9.89707212
v -2.06273389 4.58682402 4.94853606
v -0.9401556 8.56149667 4.94560145
v -2.06273389 4.58682402 9.89707212
v -0.9401556 8.56149667 9.90000672
v 0.00467775 -9.05979427 4.94853606
v 0.00189514 -9.06156699 4.94898498
v 0.00035015 -9.06255125 4.94953552
v 0.00070292 -9.06232652 4.94930631
v 1.62818462 -7.73566084 4.94853606
v 2.08315089 -7.73566084 4.94853606
v 2.08315089 -7.73566084 4.94560145
v 2.22316033 -0.31549169 0
v 3.20220692 -1.52451355 0
v 5.16030011 -3.94255726 0
v 6.13934671 -5.15157912 0
v 6.13934671 -5.15157912 1.97941442
v 4.18125352 -2.73353541 0
v 1.62818462 -3.15739586 4.94853606
v 6.13934671 -5.15157912 3.95882885
v 6.13934671 -5.15157912 4.94560145
v 15.79545481 -7.73566084 4.94560145
v 2.08315089 -7.73566084 8.39932942
v 1.62818462 -7.73566084 9.90000672
v 1.62818462 -3.15739586 9.89707212
v 15.79545481 -7.73566084 9.90000672
v 1.24411374 0.89353016 0
v 1.24411374 0.89353016 1.97941442
v 5.54083517 5.26590566 0
v 6.76675961 4.30810852 0
v 5.54083517 5.26590566 1.97941442
v 1.24411374 0.89353016 3.95882885
v 1.24411374 0.89353016 4.94853606
v 1.46566279 1.11898011 4.94853606
v 1.46566279 1.11898011 4.94560145
v 2.87813283 0.71471408 4.94853606
v 2.87813283 0.91673905 4.94853606
v 0.34467064 4.58682402 4.94853606
v 5.54083517 5.26590566 3.95882885
v 5.54083517 5.26590566 4.94560145
v 9.21860848 2.39251424 0
v 10.44453291 1.4347171 0
v 11.67045735 0.47691996 0
v 11.67045735 0.47691996 1.97941442
v 7.99268404 3.35031138 0
v 11.67045735 0.47691996 3.95882885
v 11.67045735 0.47691996 4.94560145
v 11.81617777 0.71471408 4.94853606
v 11.81617777 0.71471408 4.94560145
v 15.79545481 0.71471408 4.94560145
v 14.17845947 4.56960746 4.94853606
v 14.17845947 4.56960746 4.94560145
v 15.13894355 4.88008715 4.94560145
v 14.87295808 5.70292618 4.94853606
v 14.87295808 5.70292618 4.94560145
v 11.56378453 9.17781774 0
v 11.56378453 9.17781774 1.97941442
v 8.74386144 10.49276947 0
v 10.15382298 9.83529361 0
v 8.74386144 10.49276947 1.97941442
v 10.15382298 9.83529361 1.97941442
v 12.97374608 8.52034187 0
v 14.38370763 7.86286601 0
v 15.79366917 7.20539014 0
v 12.97374608 8.52034187 1.97941442
v 14.38370763 7.86286601 1.97941442
v 15.79366917 7.20539014 1.97941442
v 11.56378453 9.17781774 3.95882885
v 8.74386144 10.49276947 3.95882885
v 8.74386144 10.49276947 4.94560145
v 10.15382298 9.83529361 3.95882885
v 12.97374608 8.52034187 3.95882885
v 14.38370763 7.86286601 3.95882885
v 15.79366917 7.20539014 3.95882885
v 14.13766258 7.9775987 4.94853606
v 14.13766258 7.9775987 4.94560145
v 15.79366917 7.20539014 4.94853606
v 12.54030547 12.91910083 4.94560145
v 1.62818462 0.61621089 9.89707212
v 1.62818462 0.61621089 9.90000672
v 1.84784264 0.5836943 9.90000672
v 2.25315873 0.71471408 9.89707212
v 2.25315873 0.71471408 9.90000672
v 2.87813283 0.71471408 9.89707212
v 2.87813283 0.91673905 9.89707212
v 0.34467064 4.58682402 9.89707212
v 15.79545481 0.71471408 9.90000672
v 15.13894355 4.88008715 9.90000672
v 12.54030547 12.91910083 9.90000672
f 1 5 2
f 2 6 3
f 1 2 11
f 1 11 4
f 2 3 12
f 1 4 5
f 2 5 6
f 3 9 7
f 7 10 8
f 3 7 14
f 7 8 15
f 3 6 9
f 7 9 10
f 3 14 12
f 2 12 11
f 4 11 13
f 7 15 14
f 15 8 24
f 4 17 5
f 4 16 17
f 5 18 6
f 5 17 18
f 4 13 16
f 16 44 17
f 17 45 18
f 16 21 43
f 6 19 9
f 6 18 19
f 9 20 10
f 9 19 20
f 18 46 19
f 19 47 20
f 13 21 16
f 8 23 22
f 8 22 24
f 8 10 23
f 22 23 26
f 22 25 24
f 22 26 25
f 10 27 23
f 10 20 27
f 23 27 28
f 20 64 27
f 23 28 26
f 27 65 28
f 11 12 29
f 11 29 13
f 12 14 30
f 14 15 31
f 13 29 32
f 12 30 29
f 14 31 30
f 13 32 21
f 21 33 48
f 21 32 33
f 33 92 34
f 33 34 71
f 15 24 36
f 24 25 37
f 24 37 36
f 15 36 31
f 25 38 37
f 25 26 39
f 25 39 38
f 36 104 31
f 36 37 100
f 37 38 99
f 38 113 99
f 38 114 113
f 38 39 114
f 26 28 40
f 26 40 39
f 28 78 40
f 39 40 118
f 39 118 114
f 40 78 41
f 40 119 118
f 40 41 119
f 16 43 44
f 17 44 45
f 43 50 44
f 43 49 50
f 44 51 45
f 44 50 51
f 43 48 49
f 18 45 46
f 19 46 47
f 45 55 46
f 45 51 55
f 46 56 47
f 46 55 56
f 21 48 43
f 48 59 49
f 49 53 50
f 50 54 51
f 49 59 52
f 49 52 53
f 50 53 54
f 52 60 53
f 53 61 54
f 51 57 55
f 55 58 56
f 51 54 57
f 55 57 58
f 54 62 57
f 57 63 58
f 52 59 60
f 54 61 62
f 53 60 61
f 57 62 63
f 63 69 58
f 20 47 64
f 27 64 65
f 47 66 64
f 47 56 66
f 64 66 68
f 64 68 65
f 56 67 66
f 56 58 67
f 66 67 70
f 58 69 67
f 66 70 68
f 67 69 70
f 48 71 59
f 33 71 48
f 59 71 72
f 71 34 35
f 59 72 60
f 60 73 61
f 61 76 62
f 62 77 63
f 60 72 73
f 61 73 76
f 62 76 77
f 72 74 73
f 73 74 75
f 73 75 76
f 76 75 85
f 28 65 78
f 65 68 81
f 65 81 78
f 78 81 41
f 63 79 69
f 68 70 82
f 69 80 70
f 69 79 80
f 63 77 79
f 70 80 82
f 68 82 81
f 79 84 80
f 76 84 77
f 79 77 84
f 76 85 84
f 81 82 41
f 82 83 41
f 80 83 82
f 80 86 83
f 80 84 86
f 86 87 83
f 29 30 102
f 29 102 32
f 32 102 103
f 32 103 33
f 33 103 106
f 92 95 93
f 97 35 98
f 33 106 92
f 106 35 94
f 106 94 95
f 106 95 92
f 106 98 35
f 30 31 101
f 30 101 102
f 31 104 101
f 37 99 100
f 36 100 104
f 100 127 104
f 104 128 101
f 102 101 129
f 106 107 98
f 102 129 103
f 101 128 129
f 103 129 130
f 103 130 106
f 106 132 107
f 106 130 132
f 132 133 107
f 35 97 109
f 71 35 109
f 71 109 72
f 72 109 74
f 113 116 99
f 113 114 117
f 100 99 131
f 99 116 131
f 100 131 127
f 113 115 116
f 113 117 115
f 114 118 125
f 118 119 121
f 119 120 121
f 118 121 126
f 114 125 117
f 118 126 125
f 116 115 145
f 115 146 144
f 115 117 146
f 117 125 155
f 117 155 146
f 125 126 156
f 125 156 155
f 104 127 128
f 116 142 131
f 127 131 148
f 128 127 149
f 128 150 129
f 129 150 130
f 127 148 149
f 128 149 150
f 130 150 153
f 130 153 132
f 132 160 133
f 137 134 135
f 160 135 133
f 132 153 160
f 135 138 137
f 160 138 135
f 160 141 138
f 163 140 141
f 116 145 142
f 115 144 145
f 131 142 148
f 145 143 142
f 145 147 143
f 144 147 145
f 144 146 147
f 142 151 148
f 150 149 153
f 148 152 149
f 142 143 151
f 148 151 152
f 153 149 152
f 147 154 143
f 147 157 154
f 155 163 157
f 155 156 162
f 146 157 147
f 146 155 157
f 143 158 151
f 143 154 158
f 151 158 159
f 153 152 160
f 152 159 160
f 151 159 152
f 157 163 154
f 154 163 158
f 155 162 163
f 158 163 159
f 160 159 163
f 163 162 161
f 160 163 141
f 35 74 94
f 94 97 95
f 92 93 97
f 93 95 97
f 94 74 97
f 74 109 97
f 34 85 35
f 35 85 74
f 74 85 75
f 34 42 85
f 92 97 96
f 34 92 42
f 92 96 42
f 42 96 105
f 123 122 134
f 137 123 134
f 163 161 140
f 84 85 86
f 86 85 87
f 165 83 87
f 88 119 41
f 88 124 119
f 88 41 90
f 88 90 124
f 90 41 83
f 165 172 83
f 90 83 172
f 124 90 172
f 42 105 85
f 111 85 105
f 111 87 85
f 111 165 87
f 124 120 119
f 168 170 171
f 124 172 91
f 124 91 89
f 124 121 120
f 124 89 121
f 89 126 121
f 89 156 126
f 89 164 156
f 139 137 138
f 139 138 141
f 139 141 140
f 164 162 156
f 164 161 162
f 171 123 137
f 165 166 172
f 168 171 169
f 166 167 91
f 166 91 172
f 167 169 91
f 169 171 174
f 169 174 91
f 89 91 175
f 171 137 139
f 174 140 161
f 139 140 174
f 171 139 174
f 89 175 164
f 164 174 161
f 91 174 175
f 164 175 174
f 171 122 123
f 170 122 171
f 108 97 98
f 108 98 107
f 108 107 133
f 108 133 136
f 110 96 97
f 110 97 108
f 110 105 96
f 110 111 105
f 110 166 111
f 110 167 166
f 111 166 165
f 110 112 167
f 167 112 169
f 110 108 112
f 108 136 112
f 169 112 173
f 136 173 112
f 136 133 135
f 136 135 134
f 168 169 170
f 170 173 122
f 169 173 170
f 173 134 122
f 136 134 173
