# MAAS exact compiled indexed mesh
# program_hash f67fe6f1ba42a2e5fa893038fbdf5c5daa796ccd9040ab4079615b553a2fa92a
# geometry_hash 970c38af2e1d2a77e784a3ca4cdd161d8c9c4d36c5e9a1fe58decbb113bf1315
v -13.69792774 -16.43658462 0
v -13.69792774 -16.43658462 5.30526316
v -2.74020466 -16.43658462 0
v -0.00077389 -8.21829231 0
v -2.74020466 -16.43658462 5.30526316
v -0.00077389 -8.21829231 5.30526316
v -15.41007197 2.05457308 4.92631579
v -13.69792774 2.05457308 4.92631579
v -13.69792774 2.05457308 5.30526316
v -13.69792774 16.43658462 0
v -15.41007197 13.01229616 4.92631579
v -13.69792774 13.01229616 4.92631579
v -13.69792774 13.01229616 5.30526316
v -13.69792774 16.43658462 5.30526316
v -2.74020466 2.05457308 4.92631579
v -2.74020466 2.05457308 5.30526316
v -0.00077389 2.05457308 4.92631579
v -0.00077389 2.05457308 5.30526316
v -2.74020466 16.43658462 0
v -0.00077389 16.43658462 0
v -2.74020466 13.01229616 4.92631579
v -2.74020466 13.01229616 5.30526316
v -2.74020466 16.43658462 5.30526316
v -0.00077389 13.01229616 4.92631579
v -0.00077389 13.01229616 5.30526316
v -0.00077389 16.43658462 5.30526316
v -15.41007197 2.05457308 10.23157895
v -11.64335466 0 9.85263158
v -11.64335466 2.05457308 9.85263158
v -11.64335466 2.05457308 10.23157895
v -11.64335466 0 14.4
v -15.41007197 13.01229616 10.23157895
v -11.64335466 13.01229616 9.85263158
v -11.64335466 13.01229616 10.23157895
v -11.64335466 15.06686924 9.85263158
v -11.64335466 15.06686924 14.4
v -0.00077389 2.05457308 7.2
v -0.68563158 0 9.85263158
v -0.68563158 2.05457308 9.85263158
v -0.68563158 2.05457308 10.23157895
v -0.00077389 2.05457308 10.23157895
v -0.68563158 0 14.4
v -0.00077389 13.01229616 7.2
v -0.68563158 13.01229616 9.85263158
v -0.68563158 13.01229616 10.23157895
v -0.00077389 13.01229616 10.23157895
v -0.68563158 15.06686924 9.85263158
v -0.68563158 15.06686924 14.4
v 12.32666458 -8.21829231 0
v 12.32666458 -8.21829231 5.30526316
v 3.18432802 2.05303215 7.19914737
v 3.18432802 2.05457308 7.19914737
v 2.86012113 13.01229616 7.19914737
v 12.32666458 2.05457308 4.92631579
v 12.32666458 2.05457308 5.30526316
v 15.40852419 2.05457308 4.92631579
v 15.41006512 2.05303215 7.19914737
v 15.40852419 2.05457308 7.19914737
v 15.41006512 7.53343462 7.19914737
v 15.40852419 7.53343462 7.19914737
v 12.32666458 16.43658462 0
v 12.32666458 13.01229616 4.92631579
v 12.32666458 13.01229616 5.30526316
v 12.32666458 16.43658462 5.30526316
v 15.40852419 13.01229616 4.92631579
v 13.15832265 16.34122427 7.19914737
v 14.23440981 13.01229616 7.19914737
v 3.18432802 2.05457308 7.2
v 3.18432802 2.05303215 10.23243158
v 3.18432802 2.05457308 10.23157895
v 3.18432802 7.44843065 10.23157895
v 3.18432802 7.44843065 10.23243158
v 3.41029563 7.43214065 10.23243158
v 3.72365346 7.53343462 10.23157895
v 3.72365346 7.53343462 10.23243158
v 4.26297889 7.53343462 7.2
v 4.26297889 7.70777337 7.2
v 4.26297889 7.53343462 10.23157895
v 4.26297889 7.70777337 10.23157895
v 2.86012113 13.01229616 7.2
v 1.52527191 12.58080168 10.23243158
v 1.52527191 12.58080168 10.23157895
v 2.86012113 13.01229616 10.23157895
v 15.41006512 2.05303215 10.23243158
v 15.40852419 7.53343462 7.2
v 15.41006512 7.53343462 10.23243158
v 14.8435245 11.12797015 7.2
v 14.8435245 11.12797015 10.23243158
v 14.23440981 13.01229616 7.2
v 15.40852419 13.01229616 7.2
v 13.15832265 16.34122427 10.23243158
f 1 2 8
f 1 3 2
f 2 5 9
f 1 8 12
f 1 10 3
f 2 9 8
f 2 3 5
f 3 19 5
f 5 16 9
f 5 15 16
f 1 14 10
f 1 12 14
f 10 14 23
f 12 13 14
f 13 22 14
f 3 10 19
f 5 19 15
f 10 23 19
f 15 19 21
f 19 23 21
f 14 22 23
f 21 23 22
f 4 6 17
f 6 18 17
f 4 17 24
f 4 24 26
f 4 26 20
f 24 25 26
f 4 49 6
f 6 50 18
f 6 49 50
f 50 55 18
f 50 54 55
f 4 20 49
f 20 26 64
f 25 63 26
f 49 61 50
f 50 61 54
f 49 20 61
f 20 64 61
f 54 61 62
f 61 64 62
f 26 63 64
f 62 64 63
f 7 8 9
f 7 9 27
f 7 12 8
f 9 16 27
f 7 11 12
f 7 32 11
f 11 13 12
f 11 32 13
f 13 32 22
f 16 18 27
f 15 17 16
f 16 17 18
f 15 24 17
f 15 21 24
f 21 22 25
f 21 25 24
f 27 29 30
f 7 27 32
f 27 30 34
f 27 37 29
f 27 34 32
f 32 34 33
f 22 32 33
f 27 18 37
f 29 37 39
f 39 37 41
f 39 41 40
f 40 41 46
f 22 33 44
f 40 46 45
f 22 44 43
f 44 45 43
f 45 46 43
f 37 52 68
f 18 55 37
f 56 52 37
f 22 43 53
f 43 80 53
f 22 90 25
f 22 53 67
f 55 56 37
f 56 58 52
f 54 56 55
f 54 65 56
f 56 65 58
f 65 60 58
f 25 90 63
f 22 67 90
f 54 62 65
f 90 85 60
f 65 90 60
f 62 63 65
f 63 90 65
f 90 67 89
f 28 30 29
f 28 29 38
f 28 36 30
f 28 31 36
f 28 38 31
f 31 42 36
f 33 34 35
f 33 35 44
f 30 36 34
f 34 36 35
f 35 36 48
f 29 39 38
f 38 39 40
f 31 38 42
f 38 40 42
f 40 45 42
f 35 47 44
f 44 47 45
f 36 42 48
f 35 48 47
f 42 45 47
f 42 47 48
f 70 37 68
f 70 41 37
f 70 71 41
f 71 82 41
f 74 78 79
f 82 46 41
f 43 46 80
f 83 80 46
f 82 83 46
f 77 76 85
f 85 87 77
f 90 87 85
f 90 89 87
f 66 53 80
f 66 67 53
f 66 89 67
f 74 79 75
f 71 72 82
f 72 73 81
f 73 75 81
f 72 81 82
f 81 83 82
f 75 79 88
f 75 88 81
f 83 91 80
f 81 91 83
f 88 77 87
f 79 77 88
f 66 80 91
f 81 88 91
f 88 87 89
f 66 88 89
f 66 91 88
f 79 76 77
f 78 76 79
f 51 68 52
f 51 52 57
f 57 52 58
f 57 58 59
f 59 58 60
f 59 60 85
f 51 70 68
f 51 69 70
f 69 71 70
f 69 72 71
f 69 73 72
f 51 57 69
f 69 84 73
f 74 75 78
f 73 84 75
f 69 57 84
f 78 86 76
f 75 86 78
f 75 84 86
f 57 59 84
f 86 85 76
f 59 85 86
f 59 86 84
