# MAAS exact compiled indexed mesh
# program_hash 5d3f26b864910be29573b5cf890f8e1a180cefd37238fd9d4c17321259b0d05d
# geometry_hash 092c77257766498e1f480f6f077f42bb886ed71794c908da25db5704441eace7
v -12.4994817 -17.11434034 0
v -12.4994817 -17.11434034 5.46834652
v -14.06191691 -0.24004005 5.07775034
v -12.4994817 -0.24004005 5.07775034
v -12.4994817 -0.24004005 5.46834652
v -7.78092736 -1.51309072 6.90313839
v -7.78092736 -0.24004005 6.90313839
v -2.49989634 -17.11434034 0
v -2.49989634 -17.11434034 5.46834652
v -4.96854397 -1.51309072 6.90313839
v -4.96854397 -0.24004005 6.90313839
v -2.49989634 -0.24004005 5.07775034
v -2.49989634 -0.24004005 5.46834652
v -14.06191691 -0.24004005 7.42132742
v -8.43715015 -6.77118574 7.59293419
v -8.43715015 -6.77118574 8.33662932
v -7.92154653 -6.75644469 8.25782835
v -7.92154653 -6.75644469 8.99786905
v -7.40594291 -6.71356224 8.93725676
v -8.43715015 -5.27124793 7.59293419
v -8.43715015 -5.27124793 8.33662932
v -8.43715015 -6.77118574 9.08032445
v -8.43715015 -6.77118574 9.82401957
v -7.92154653 -6.75644469 9.73790974
v -7.40594291 -6.71356224 9.66666652
v -8.43715015 -6.77118574 10.5677147
v -7.92154653 -6.75644469 10.47795044
v -7.92154653 -6.75644469 10.57045553
v -7.40594291 -6.71356224 10.39607628
v -7.40594291 -6.71356224 10.4872525
v -7.40594291 -6.71356224 10.57842872
v -8.43715015 -5.27124793 9.08032445
v -8.43715015 -5.27124793 9.82401957
v -8.43715015 -5.27124793 10.5677147
v -7.92154653 -5.26387741 10.57045553
v -7.40594291 -5.24243618 10.57842872
v -8.43715015 -3.77131013 7.59293419
v -8.43715015 -2.27137233 7.59293419
v -8.43715015 -3.77131013 8.33662932
v -8.43715015 -2.27137233 8.33662932
v -8.43715015 -0.77143452 7.59293419
v -7.78092736 -1.51309072 7.73414406
v -7.78092736 -0.24004005 7.42132742
v -7.78092736 -0.89135124 7.73414406
v -7.78092736 -0.89135124 7.82010158
v -7.78092736 -0.83975373 7.87043141
v -8.43715015 -0.77143452 8.33662932
v -7.92154653 -0.78617556 8.25782835
v -7.92154653 -0.78617556 8.99786905
v -7.78092736 -0.80446586 8.27539886
v -7.78092736 -0.80751472 8.31887574
v -7.78092736 -0.79787078 8.44312701
v -8.43715015 -3.77131013 9.08032445
v -8.43715015 -3.77131013 9.82401957
v -8.43715015 -2.27137233 9.08032445
v -8.43715015 -2.27137233 9.82401957
v -8.43715015 -3.77131013 10.5677147
v -7.92154653 -3.77131013 10.57045553
v -8.43715015 -2.27137233 10.5677147
v -7.92154653 -2.27874285 10.57045553
v -7.40594291 -3.77131013 10.57842872
v -7.40594291 -2.30018408 10.57842872
v -8.43715015 -0.77143452 9.08032445
v -8.43715015 -0.77143452 9.82401957
v -7.92154653 -0.78617556 9.73790974
v -8.43715015 -0.77143452 10.5677147
v -7.92154653 -0.78617556 10.47795044
v -7.92154653 -0.78617556 10.57045553
v -7.78092736 -1.51309072 10.57263003
v -7.40594291 -1.51309072 10.57842872
v -7.78092736 -0.79787078 10.57263003
v -7.78092736 -1.51309072 13.62440375
v -6.42160872 -6.56134816 8.44524707
v -4.21857507 -6.00029253 8.50071191
v -4.21857507 -4.88580133 8.50071191
v -6.89033929 -6.6445283 9.61185778
v -5.9060051 -6.45058353 9.13284085
v -6.37473567 -7.59484131 10.26377107
v -6.89033929 -6.6445283 10.32415344
v -6.37473567 -7.334146 10.26377107
v -6.37473567 -7.334146 10.34994257
v -6.37473567 -7.07345069 10.26377107
v -6.37473567 -7.07345069 10.34994257
v -6.37473567 -6.81275538 10.26377107
v -6.37473567 -6.81275538 10.34994257
v -6.37473567 -6.55206008 10.26377107
v -6.37473567 -6.55206008 10.34994257
v -6.89033929 -6.6445283 10.41319039
v -6.89033929 -6.6445283 10.50222735
v -6.89033929 -6.6445283 10.59126431
v -6.37473567 -7.07345069 10.43611407
v -6.37473567 -6.81275538 10.43611407
v -6.37473567 -6.81275538 10.52228556
v -6.37473567 -6.55206008 10.43611407
v -6.37473567 -6.55206008 10.52228556
v -6.37473567 -6.55206008 10.60845706
v -5.39040148 -6.32363464 9.78090646
v -6.89033929 -5.20791922 10.59126431
v -6.37473567 -5.1616851 10.60845706
v -4.87479786 -7.0903642 10.37746584
v -4.87479786 -6.86406506 10.37746584
v -4.87479786 -6.63776592 10.37746584
v -4.4060673 -6.0535486 9.42812604
v -4.21857507 -6.00029253 9.05329594
v -4.87479786 -6.41146678 10.37746584
v -4.87479786 -6.18516764 10.37746584
v -3.89046368 -5.90733825 10.00021385
v -4.21857507 -3.77131013 8.50071191
v -4.21857507 -2.65681893 8.50071191
v -4.96854397 -0.24004005 7.42132742
v -4.96854397 -1.51309072 8.3393292
v -4.96854397 -1.40528004 8.3393292
v -4.96854397 -1.40528004 8.79367607
v -4.96854397 -1.35133007 8.84630058
v -4.96854397 -1.35329921 8.94864817
v -4.21857507 -1.54232773 8.50071191
v -6.89033929 -3.77131013 10.59126431
v -6.37473567 -3.77131013 10.60845706
v -6.89033929 -2.33470104 10.59126431
v -6.37473567 -2.38093516 10.60845706
v -6.89033929 -1.51309072 10.59126431
v -6.37473567 -1.51309072 10.60845706
v -4.96854397 -1.34736016 9.15383423
v -4.96854397 -1.34018356 9.31739409
v -4.4060673 -1.48907166 9.42812604
v -4.96854397 -1.34470895 9.53627015
v -4.96854397 -1.33606898 9.84258666
v -4.21857507 -1.54232773 9.05329594
v -4.96854397 -1.33595372 9.93303353
v -4.96854397 -1.3322768 10.2690005
v -4.96854397 -1.33608701 10.34185616
v -4.87479786 -1.35745262 10.37746584
v -4.96854397 -1.33452184 10.37035991
v -4.87479786 -1.13115348 10.37746584
v -4.87479786 -0.90485434 10.37746584
v -4.87479786 -0.6785552 10.37746584
v -4.96854397 -0.42072624 10.37035991
v -4.87479786 -0.45225606 10.37746584
v -3.89046368 -1.63528201 10.00021385
v -3.37486006 -6.51234094 10.50773581
v -3.37486006 -6.32545247 10.50773581
v -3.37486006 -6.13856401 10.50773581
v -3.37486006 -5.95167554 10.50773581
v -3.37486006 -5.76478708 10.50773581
v -2.20303365 -5.48126944 9.90673412
v -2.39052587 -5.52127026 10.20359674
v -1.87492225 -6.03478702 10.61536285
v -1.87492225 -5.88045905 10.61536285
v -1.87492225 -5.72613108 10.61536285
v -1.87492225 -5.57180311 10.61536285
v -1.87492225 -5.41747514 10.61536285
v -0.37498445 -5.80096857 10.66805887
v -0.37498445 -5.66258277 10.66805887
v -0.37498445 -5.66258277 10.71380159
v -0.37498445 -5.52419697 10.66805887
v -0.37498445 -5.38581116 10.66805887
v -0.37498445 -5.52419697 10.71380159
v -0.37498445 -5.52419697 10.75954431
v -0.37498445 -5.38581116 10.71380159
v -0.37498445 -5.38581116 10.75954431
v -0.18749223 -5.24189547 10.39634438
v -0.37498445 -5.24742536 10.66805887
v -0.37498445 -5.24742536 10.71380159
v -0.37498445 -5.24742536 10.75954431
v -3.37486006 -1.77783318 10.50773581
v -3.37486006 -1.59094472 10.50773581
v -3.37486006 -1.40405625 10.50773581
v -3.37486006 -1.21716779 10.50773581
v -3.37486006 -1.03027932 10.50773581
v -2.20303365 -2.06135082 9.90673412
v -2.39052587 -2.02135 10.20359674
v -1.87492225 -2.12514512 10.61536285
v -1.87492225 -1.97081715 10.61536285
v -1.87492225 -1.81648918 10.61536285
v -1.87492225 -1.66216121 10.61536285
v -1.87492225 -1.50783324 10.61536285
v -0.18749223 -2.30072478 10.39634438
v -0.37498445 -2.2951949 10.66805887
v -0.37498445 -2.1568091 10.66805887
v -0.37498445 -2.2951949 10.71380159
v -0.37498445 -2.2951949 10.75954431
v -0.37498445 -2.1568091 10.71380159
v -0.37498445 -2.1568091 10.75954431
v -0.37498445 -2.01842329 10.66805887
v -0.37498445 -1.88003749 10.66805887
v -0.37498445 -2.01842329 10.71380159
v -0.37498445 -2.01842329 10.75954431
v -0.37498445 -1.88003749 10.71380159
v -0.37498445 -1.74165169 10.66805887
v -6.37473567 -7.59484131 11.29782904
v -6.37473567 -7.59484131 12.33188701
v -6.37473567 -5.68307572 11.29782904
v -6.37473567 -5.42238041 11.38400054
v -6.37473567 -5.1616851 11.47017204
v -6.37473567 -4.9009898 11.55634353
v -6.37473567 -5.68307572 12.33188701
v -4.87479786 -7.0903642 11.27509009
v -4.87479786 -7.0903642 12.17271434
v -6.37473567 -7.59484131 13.36594498
v -6.37473567 -7.59484131 14.40000295
v -6.37473567 -5.68307572 13.36594498
v -6.37473567 -5.68307572 14.40000295
v -4.87479786 -7.0903642 13.07033859
v -4.87479786 -7.0903642 13.96796284
v -4.87479786 -5.43083717 13.96796284
v -6.37473567 -3.51061482 11.55634353
v -6.37473567 -3.77131013 12.33188701
v -6.37473567 -3.51061482 12.41805851
v -6.37473567 -3.24991951 12.50423
v -6.37473567 -2.12023985 11.55634353
v -6.37473567 -1.85954454 12.50423
v -4.87479786 -0.45225606 11.27509009
v -4.87479786 -0.45225606 12.17271434
v -6.37473567 -3.77131013 13.36594498
v -6.37473567 -3.77131013 14.40000295
v -6.37473567 -1.85954454 13.36594498
v -6.37473567 -1.59884923 13.45211648
v -6.37473567 -1.51309072 13.62440375
v -6.37473567 -1.85954454 14.40000295
v -4.87479786 -3.77131013 13.96796284
v -4.87479786 -0.45225606 13.07033859
v -4.87479786 -2.11178309 13.96796284
v -4.96854397 -0.42072624 13.62440375
v -4.87479786 -0.45225606 13.96796284
v -3.37486006 -6.51234094 11.24903609
v -3.37486006 -6.51234094 11.99033638
v -1.87492225 -6.03478702 11.22751068
v -1.87492225 -6.03478702 11.83965851
v -1.87492225 -6.03478702 12.45180634
v -0.37498445 -5.38581116 10.80528702
v -0.37498445 -5.80096857 11.21697148
v -0.37498445 -5.66258277 11.2627142
v -0.37498445 -5.52419697 11.30845692
v -0.37498445 -5.38581116 11.35419963
v -0.37498445 -5.24742536 10.80528702
v -0.37498445 -5.24742536 10.85102974
v -0.37498445 -4.50936774 10.85102974
v -0.37498445 -4.64775355 11.35419963
v -0.37498445 -5.80096857 11.76588409
v -0.37498445 -5.66258277 11.81162681
v -0.37498445 -5.52419697 11.85736953
v -0.37498445 -5.80096857 12.31479671
v -0.37498445 -5.66258277 12.36053942
v -0.37498445 -4.78613935 11.85736953
v -0.37498445 -4.92452515 12.36053942
v -0.37498445 -4.78613935 12.31479671
v -3.37486006 -6.51234094 12.73163666
v -3.37486006 -6.51234094 13.47293695
v -3.37486006 -5.14182553 13.47293695
v -1.87492225 -6.03478702 13.06395417
v -1.87492225 -4.90304857 13.06395417
v -0.37498445 -5.80096857 12.86370932
v -0.37498445 -4.78613935 12.86370932
v -3.37486006 -1.03027932 11.24903609
v -1.87492225 -1.50783324 11.22751068
v -3.37486006 -1.03027932 11.99033638
v -1.87492225 -1.50783324 11.83965851
v -1.87492225 -1.50783324 12.45180634
v -0.37498445 -3.77131013 10.85102974
v -0.37498445 -3.90969593 11.35419963
v -0.37498445 -3.03325251 10.85102974
v -0.37498445 -2.75648091 11.21697148
v -0.37498445 -2.2951949 10.80528702
v -0.37498445 -2.2951949 10.85102974
v -0.37498445 -2.1568091 10.80528702
v -0.37498445 -3.17163832 11.35419963
v -0.37498445 -3.03325251 11.30845692
v -0.37498445 -2.89486671 11.2627142
v -0.37498445 -4.04808173 11.85736953
v -0.37498445 -3.90969593 11.81162681
v -0.37498445 -3.77131013 11.76588409
v -0.37498445 -3.77131013 12.31479671
v -0.37498445 -2.75648091 11.76588409
v -0.37498445 -2.75648091 12.31479671
v -0.37498445 -1.74165169 11.21697148
v -0.37498445 -1.74165169 11.76588409
v -0.37498445 -1.74165169 12.31479671
v -3.37486006 -3.77131013 13.47293695
v -3.37486006 -2.40079473 13.47293695
v -1.87492225 -3.77131013 13.06395417
v -1.87492225 -2.63957169 13.06395417
v -3.37486006 -1.03027932 12.73163666
v -3.37486006 -1.03027932 13.47293695
v -1.87492225 -1.50783324 13.06395417
v -0.37498445 -3.77131013 12.86370932
v -0.37498445 -2.75648091 12.86370932
v -0.37498445 -1.74165169 12.86370932
v -12.4994817 12.88441573 0
v -14.06191691 9.75954531 5.07775034
v -12.4994817 9.75954531 5.07775034
v -12.4994817 9.75954531 5.46834652
v -12.4994817 12.88441573 5.46834652
v -7.78092736 9.75954531 6.90313839
v -7.78092736 11.03259598 6.90313839
v -2.49989634 12.88441573 0
v -4.96854397 9.75954531 6.90313839
v -4.96854397 11.03259598 6.90313839
v -2.49989634 9.75954531 5.07775034
v -2.49989634 9.75954531 5.46834652
v -2.49989634 12.88441573 5.46834652
v -8.43715015 1.75987702 7.59293419
v -7.78092736 1.82819624 7.87043141
v -7.78092736 1.87979375 7.73414406
v -7.78092736 1.87979375 7.82010158
v -8.43715015 1.75987702 8.33662932
v -7.92154653 1.77461807 8.25782835
v -7.92154653 1.77461807 8.99786905
v -7.78092736 1.79290837 8.27539886
v -7.78092736 1.79595722 8.31887574
v -7.78092736 1.78631328 8.44312701
v -8.43715015 3.25981483 7.59293419
v -7.78092736 2.50153322 7.42132742
v -7.78092736 2.50153322 7.73414406
v -8.43715015 3.25981483 8.33662932
v -8.43715015 1.75987702 9.08032445
v -8.43715015 1.75987702 9.82401957
v -7.92154653 1.77461807 9.73790974
v -8.43715015 1.75987702 10.5677147
v -7.92154653 1.77461807 10.47795044
v -7.92154653 1.77461807 10.57045553
v -7.78092736 1.78631328 10.57263003
v -8.43715015 3.25981483 9.08032445
v -8.43715015 3.25981483 9.82401957
v -8.43715015 3.25981483 10.5677147
v -7.92154653 3.26718535 10.57045553
v -7.78092736 2.50153322 10.57263003
v -7.40594291 2.50153322 10.57842872
v -7.40594291 3.28862658 10.57842872
v -8.43715015 4.75975263 7.59293419
v -8.43715015 6.25969044 7.59293419
v -8.43715015 4.75975263 8.33662932
v -8.43715015 6.25969044 8.33662932
v -8.43715015 7.75962824 7.59293419
v -7.78092736 7.01797204 7.42132742
v -7.78092736 7.01797204 7.73414406
v -7.78092736 7.63971152 7.73414406
v -7.78092736 7.63971152 7.82010158
v -7.78092736 7.69130903 7.87043141
v -8.43715015 7.75962824 8.33662932
v -7.92154653 7.7448872 8.25782835
v -7.92154653 7.7448872 8.99786905
v -7.78092736 7.7265969 8.27539886
v -7.78092736 7.72354805 8.31887574
v -7.78092736 7.73319198 8.44312701
v -8.43715015 4.75975263 9.08032445
v -8.43715015 4.75975263 9.82401957
v -8.43715015 6.25969044 9.08032445
v -8.43715015 6.25969044 9.82401957
v -8.43715015 4.75975263 10.5677147
v -7.92154653 4.75975263 10.57045553
v -8.43715015 6.25969044 10.5677147
v -7.92154653 6.25231991 10.57045553
v -7.40594291 4.75975263 10.57842872
v -7.40594291 6.23087869 10.57842872
v -8.43715015 7.75962824 9.08032445
v -8.43715015 7.75962824 9.82401957
v -7.92154653 7.7448872 9.73790974
v -8.43715015 7.75962824 10.5677147
v -7.92154653 7.7448872 10.47795044
v -7.92154653 7.7448872 10.57045553
v -7.78092736 7.01797204 10.57263003
v -7.40594291 7.01797204 10.57842872
v -7.78092736 7.73319198 10.57263003
v -7.78092736 2.50153322 13.62440375
v -7.78092736 7.01797204 13.62440375
v -14.06191691 9.75954531 7.42132742
v -8.43715015 10.29093979 7.59293419
v -7.78092736 9.75954531 7.42132742
v -7.78092736 10.41085651 7.73414406
v -7.78092736 10.359259 7.87043141
v -7.78092736 10.41085651 7.82010158
v -8.43715015 10.29093979 8.33662932
v -7.92154653 10.30568083 8.25782835
v -7.92154653 10.30568083 8.99786905
v -7.78092736 10.32397113 8.27539886
v -7.78092736 10.32701998 8.31887574
v -7.78092736 10.31737604 8.44312701
v -8.43715015 11.79087759 7.59293419
v -7.78092736 11.03259598 7.73414406
v -8.43715015 11.79087759 8.33662932
v -8.43715015 10.29093979 9.08032445
v -8.43715015 10.29093979 9.82401957
v -7.92154653 10.30568083 9.73790974
v -8.43715015 10.29093979 10.5677147
v -7.92154653 10.30568083 10.47795044
v -7.92154653 10.30568083 10.57045553
v -7.78092736 10.31737604 10.57263003
v -8.43715015 11.79087759 9.08032445
v -8.43715015 11.79087759 9.82401957
v -8.43715015 11.79087759 10.5677147
v -7.92154653 11.79824811 10.57045553
v -7.78092736 11.03259598 10.57263003
v -7.40594291 11.03259598 10.57842872
v -7.40594291 11.81968934 10.57842872
v -8.43715015 13.29081539 7.59293419
v -8.43715015 14.7907532 7.59293419
v -8.43715015 13.29081539 8.33662932
v -8.43715015 14.7907532 8.33662932
v -8.43715015 16.290691 7.59293419
v -8.43715015 16.290691 8.33662932
v -7.92154653 16.27594996 8.25782835
v -7.92154653 16.27594996 8.99786905
v -7.40594291 16.2330675 8.93725676
v -8.43715015 13.29081539 9.08032445
v -8.43715015 13.29081539 9.82401957
v -8.43715015 14.7907532 9.08032445
v -8.43715015 14.7907532 9.82401957
v -8.43715015 13.29081539 10.5677147
v -7.92154653 13.29081539 10.57045553
v -8.43715015 14.7907532 10.5677147
v -7.92154653 14.78338268 10.57045553
v -7.40594291 13.29081539 10.57842872
v -7.40594291 14.76194145 10.57842872
v -8.43715015 16.290691 9.08032445
v -8.43715015 16.290691 9.82401957
v -7.92154653 16.27594996 9.73790974
v -7.40594291 16.2330675 9.66666652
v -8.43715015 16.290691 10.5677147
v -7.92154653 16.27594996 10.47795044
v -7.92154653 16.27594996 10.57045553
v -7.40594291 16.2330675 10.39607628
v -7.40594291 16.2330675 10.4872525
v -7.40594291 16.2330675 10.57842872
v -7.78092736 11.03259598 13.62440375
v -4.96854397 2.50153322 7.42132742
v -4.96854397 2.39372255 8.3393292
v -4.96854397 2.50153322 8.3393292
v -4.96854397 2.39372255 8.79367607
v -4.96854397 2.33977257 8.84630058
v -4.96854397 2.34174172 8.94864817
v -4.21857507 2.53077023 8.50071191
v -4.21857507 3.64526143 8.50071191
v -6.89033929 2.50153322 10.59126431
v -6.37473567 2.50153322 10.60845706
v -6.89033929 3.32314355 10.59126431
v -6.37473567 3.36937766 10.60845706
v -4.96854397 1.40916874 10.37035991
v -4.87479786 1.44069856 10.37746584
v -4.87479786 1.6669977 10.37746584
v -4.87479786 1.89329684 10.37746584
v -4.87479786 2.11959598 10.37746584
v -4.96854397 2.33580266 9.15383423
v -4.96854397 2.32862606 9.31739409
v -4.4060673 2.47751416 9.42812604
v -4.96854397 2.33315145 9.53627015
v -4.96854397 2.32451148 9.84258666
v -4.21857507 2.53077023 9.05329594
v -4.96854397 2.32439622 9.93303353
v -4.96854397 2.32071931 10.2690005
v -4.96854397 2.32452951 10.34185616
v -4.96854397 2.32296435 10.37035991
v -4.87479786 2.34589513 10.37746584
v -3.89046368 2.62372451 10.00021385
v -4.21857507 4.75975263 8.50071191
v -4.21857507 5.87424383 8.50071191
v -4.96854397 7.01797204 7.42132742
v -4.96854397 7.01797204 8.3393292
v -4.96854397 7.12578272 8.3393292
v -4.96854397 7.12578272 8.79367607
v -4.96854397 7.1797327 8.84630058
v -4.96854397 7.17776355 8.94864817
v -4.21857507 6.98873504 8.50071191
v -6.89033929 4.75975263 10.59126431
v -6.37473567 4.75975263 10.60845706
v -6.89033929 6.19636172 10.59126431
v -6.37473567 6.15012761 10.60845706
v -6.89033929 7.01797204 10.59126431
v -6.37473567 7.01797204 10.60845706
v -4.96854397 7.1837026 9.15383423
v -4.96854397 7.1908792 9.31739409
v -4.4060673 7.0419911 9.42812604
v -4.96854397 7.18635381 9.53627015
v -4.96854397 7.19499378 9.84258666
v -4.21857507 6.98873504 9.05329594
v -4.96854397 7.19510905 9.93303353
v -4.96854397 7.19878596 10.2690005
v -4.96854397 7.19497575 10.34185616
v -4.96854397 7.19654092 10.37035991
v -4.87479786 7.17361014 10.37746584
v -4.87479786 7.39990928 10.37746584
v -4.87479786 7.62620842 10.37746584
v -4.87479786 7.85250756 10.37746584
v -4.96854397 8.11033652 10.37035991
v -4.87479786 8.0788067 10.37746584
v -3.89046368 6.89578075 10.00021385
v -3.37486006 2.01872183 10.50773581
v -3.37486006 2.20561029 10.50773581
v -3.37486006 2.39249875 10.50773581
v -3.37486006 2.57938722 10.50773581
v -3.37486006 2.76627568 10.50773581
v -2.20303365 3.04979332 9.90673412
v -2.39052587 3.0097925 10.20359674
v -1.87492225 2.49627574 10.61536285
v -1.87492225 2.65060371 10.61536285
v -1.87492225 2.80493168 10.61536285
v -1.87492225 2.95925965 10.61536285
v -1.87492225 3.11358762 10.61536285
v -0.37498445 2.73009419 10.66805887
v -0.37498445 2.86847999 10.66805887
v -0.37498445 2.86847999 10.71380159
v -0.37498445 3.0068658 10.66805887
v -0.37498445 3.1452516 10.66805887
v -0.37498445 3.0068658 10.71380159
v -0.37498445 3.0068658 10.75954431
v -0.37498445 3.1452516 10.71380159
v -0.37498445 3.1452516 10.75954431
v -0.18749223 3.28916729 10.39634438
v -0.37498445 3.2836374 10.66805887
v -0.37498445 3.2836374 10.71380159
v -0.37498445 3.2836374 10.75954431
v -1.87492225 6.40591764 10.61536285
v -3.37486006 6.75322958 10.50773581
v -3.37486006 6.94011805 10.50773581
v -3.37486006 7.12700651 10.50773581
v -3.37486006 7.31389497 10.50773581
v -3.37486006 7.50078344 10.50773581
v -2.20303365 6.46971194 9.90673412
v -2.39052587 6.50971277 10.20359674
v -1.87492225 6.56024561 10.61536285
v -1.87492225 6.71457358 10.61536285
v -1.87492225 6.86890155 10.61536285
v -1.87492225 7.02322952 10.61536285
v -0.18749223 6.23033798 10.39634438
v -0.37498445 6.23586786 10.66805887
v -0.37498445 6.37425367 10.66805887
v -0.37498445 6.23586786 10.71380159
v -0.37498445 6.23586786 10.75954431
v -0.37498445 6.37425367 10.71380159
v -0.37498445 6.37425367 10.75954431
v -0.37498445 6.51263947 10.66805887
v -0.37498445 6.65102527 10.66805887
v -0.37498445 6.51263947 10.71380159
v -0.37498445 6.51263947 10.75954431
v -0.37498445 6.65102527 10.71380159
v -0.37498445 6.78941107 10.66805887
v -6.37473567 2.84798704 11.29782904
v -6.37473567 3.10868235 11.38400054
v -6.37473567 3.36937766 11.47017204
v -6.37473567 3.63007297 11.55634353
v -6.37473567 2.84798704 12.33188701
v -4.87479786 1.44069856 11.27509009
v -4.87479786 1.44069856 12.17271434
v -6.37473567 0.05222105 13.62440375
v -6.37473567 0.93622146 13.62440375
v -6.37473567 0.05222105 14.40000295
v -6.37473567 0.93622146 14.40000295
v -6.37473567 2.84798704 13.36594498
v -6.37473567 2.50153322 13.62440375
v -6.37473567 2.84798704 14.40000295
v -4.87479786 1.44069856 13.07033859
v -4.96854397 1.40916874 13.62440375
v -4.87479786 1.44069856 13.96796284
v -4.87479786 3.1002256 13.96796284
v -6.37473567 5.02044794 11.55634353
v -6.37473567 6.41082291 11.55634353
v -6.37473567 4.75975263 12.33188701
v -6.37473567 5.02044794 12.41805851
v -6.37473567 5.28114325 12.50423
v -6.37473567 6.67151822 12.50423
v -4.87479786 8.0788067 11.27509009
v -4.87479786 8.0788067 12.17271434
v -6.37473567 4.75975263 13.36594498
v -6.37473567 4.75975263 14.40000295
v -6.37473567 6.67151822 13.36594498
v -6.37473567 6.93221353 13.45211648
v -6.37473567 7.01797204 13.62440375
v -6.37473567 6.67151822 14.40000295
v -4.87479786 4.75975263 13.96796284
v -4.87479786 8.0788067 13.07033859
v -4.87479786 6.41927967 13.96796284
v -4.96854397 8.11033652 13.62440375
v -4.87479786 8.0788067 13.96796284
v -3.37486006 2.01872183 11.24903609
v -3.37486006 2.01872183 11.99033638
v -1.87492225 2.49627574 11.22751068
v -1.87492225 2.49627574 11.83965851
v -1.87492225 2.49627574 12.45180634
v -0.37498445 3.1452516 10.80528702
v -0.37498445 2.73009419 11.21697148
v -0.37498445 2.86847999 11.2627142
v -0.37498445 3.0068658 11.30845692
v -0.37498445 3.1452516 11.35419963
v -0.37498445 3.2836374 10.80528702
v -0.37498445 3.2836374 10.85102974
v -0.37498445 4.02169502 10.85102974
v -0.37498445 3.88330921 11.35419963
v -0.37498445 2.73009419 11.76588409
v -0.37498445 2.86847999 11.81162681
v -0.37498445 3.0068658 11.85736953
v -0.37498445 2.73009419 12.31479671
v -0.37498445 2.86847999 12.36053942
v -0.37498445 3.74492341 11.85736953
v -0.37498445 3.60653761 12.36053942
v -0.37498445 3.74492341 12.31479671
v -3.37486006 2.01872183 12.73163666
v -3.37486006 2.01872183 13.47293695
v -3.37486006 3.38923723 13.47293695
v -1.87492225 2.49627574 13.06395417
v -1.87492225 3.62801419 13.06395417
v -0.37498445 2.73009419 12.86370932
v -0.37498445 3.74492341 12.86370932
v -3.37486006 7.50078344 11.24903609
v -1.87492225 7.02322952 11.22751068
v -3.37486006 7.50078344 11.99033638
v -1.87492225 7.02322952 11.83965851
v -1.87492225 7.02322952 12.45180634
v -0.37498445 4.75975263 10.85102974
v -0.37498445 4.62136683 11.35419963
v -0.37498445 5.49781025 10.85102974
v -0.37498445 5.77458185 11.21697148
v -0.37498445 6.23586786 10.80528702
v -0.37498445 6.23586786 10.85102974
v -0.37498445 6.37425367 10.80528702
v -0.37498445 5.35942444 11.35419963
v -0.37498445 5.49781025 11.30845692
v -0.37498445 5.63619605 11.2627142
v -0.37498445 4.48298103 11.85736953
v -0.37498445 4.62136683 11.81162681
v -0.37498445 4.75975263 11.76588409
v -0.37498445 4.75975263 12.31479671
v -0.37498445 5.77458185 11.76588409
v -0.37498445 5.77458185 12.31479671
v -0.37498445 6.78941107 11.21697148
v -0.37498445 6.78941107 11.76588409
v -0.37498445 6.78941107 12.31479671
v -3.37486006 4.75975263 13.47293695
v -3.37486006 6.13026804 13.47293695
v -1.87492225 4.75975263 13.06395417
v -1.87492225 5.89149108 13.06395417
v -3.37486006 7.50078344 12.73163666
v -3.37486006 7.50078344 13.47293695
v -1.87492225 7.02322952 13.06395417
v -0.37498445 4.75975263 12.86370932
v -0.37498445 5.77458185 12.86370932
v -0.37498445 6.78941107 12.86370932
v -4.96854397 9.75954531 7.42132742
v -4.96854397 10.92478531 8.3393292
v -4.96854397 11.03259598 8.3393292
v -4.96854397 10.92478531 8.79367607
v -4.96854397 10.87083533 8.84630058
v -4.96854397 10.87280448 8.94864817
v -4.21857507 11.06183299 8.50071191
v -4.21857507 12.17632419 8.50071191
v -6.89033929 11.03259598 10.59126431
v -6.37473567 11.03259598 10.60845706
v -6.89033929 11.85420631 10.59126431
v -6.37473567 11.90044042 10.60845706
v -4.96854397 9.9402315 10.37035991
v -4.87479786 9.97176132 10.37746584
v -4.87479786 10.19806046 10.37746584
v -4.87479786 10.4243596 10.37746584
v -4.87479786 10.65065875 10.37746584
v -4.96854397 10.86686542 9.15383423
v -4.96854397 10.85968883 9.31739409
v -4.4060673 11.00857693 9.42812604
v -4.96854397 10.86421422 9.53627015
v -4.96854397 10.85557425 9.84258666
v -4.21857507 11.06183299 9.05329594
v -4.96854397 10.85545898 9.93303353
v -4.96854397 10.85178207 10.2690005
v -4.96854397 10.85559227 10.34185616
v -4.96854397 10.85402711 10.37035991
v -4.87479786 10.87695789 10.37746584
v -3.89046368 11.15478727 10.00021385
v -6.42160872 16.08085342 8.44524707
v -4.21857507 13.29081539 8.50071191
v -4.21857507 14.4053066 8.50071191
v -4.21857507 15.5197978 8.50071191
v -6.89033929 13.29081539 10.59126431
v -6.37473567 13.29081539 10.60845706
v -6.89033929 14.72742448 10.59126431
v -6.37473567 14.68119037 10.60845706
v -6.89033929 16.16403357 9.61185778
v -5.9060051 15.97008879 9.13284085
v -5.39040148 15.8431399 9.78090646
v -6.89033929 16.16403357 10.32415344
v -6.37473567 16.07156534 10.26377107
v -6.37473567 16.07156534 10.34994257
v -6.37473567 16.33226065 10.26377107
v -6.37473567 16.33226065 10.34994257
v -6.37473567 16.59295596 10.26377107
v -6.37473567 16.59295596 10.34994257
v -6.37473567 16.85365126 10.26377107
v -6.37473567 16.85365126 10.34994257
v -6.37473567 17.11434657 10.26377107
v -6.89033929 16.16403357 10.41319039
v -6.89033929 16.16403357 10.50222735
v -6.89033929 16.16403357 10.59126431
v -6.37473567 16.07156534 10.43611407
v -6.37473567 16.07156534 10.52228556
v -6.37473567 16.33226065 10.43611407
v -6.37473567 16.33226065 10.52228556
v -6.37473567 16.07156534 10.60845706
v -6.37473567 16.59295596 10.43611407
v -4.4060673 15.57305386 9.42812604
v -4.21857507 15.5197978 9.05329594
v -4.87479786 15.7046729 10.37746584
v -4.87479786 15.93097204 10.37746584
v -4.87479786 16.15727118 10.37746584
v -4.87479786 16.38357032 10.37746584
v -4.87479786 16.60986947 10.37746584
v -3.89046368 15.42684351 10.00021385
v -3.37486006 10.54978459 10.50773581
v -3.37486006 10.73667305 10.50773581
v -3.37486006 10.92356152 10.50773581
v -3.37486006 11.11044998 10.50773581
v -3.37486006 11.29733844 10.50773581
v -2.20303365 11.58085608 9.90673412
v -2.39052587 11.54085526 10.20359674
v -1.87492225 11.02733851 10.61536285
v -1.87492225 11.18166648 10.61536285
v -1.87492225 11.33599444 10.61536285
v -1.87492225 11.49032241 10.61536285
v -1.87492225 11.64465038 10.61536285
v -0.37498445 11.26115695 10.66805887
v -0.37498445 11.39954276 10.66805887
v -0.37498445 11.39954276 10.71380159
v -0.37498445 11.53792856 10.66805887
v -0.37498445 11.67631436 10.66805887
v -0.37498445 11.53792856 10.71380159
v -0.37498445 11.53792856 10.75954431
v -0.37498445 11.67631436 10.71380159
v -0.37498445 11.67631436 10.75954431
v -0.18749223 11.82023005 10.39634438
v -0.37498445 11.81470016 10.66805887
v -0.37498445 11.81470016 10.71380159
v -0.37498445 11.81470016 10.75954431
v -1.87492225 14.9369804 10.61536285
v -3.37486006 15.28429234 10.50773581
v -3.37486006 15.47118081 10.50773581
v -3.37486006 15.65806927 10.50773581
v -3.37486006 15.84495774 10.50773581
v -3.37486006 16.0318462 10.50773581
v -2.20303365 15.00077471 9.90673412
v -2.39052587 15.04077553 10.20359674
v -1.87492225 15.09130837 10.61536285
v -1.87492225 15.24563634 10.61536285
v -1.87492225 15.39996431 10.61536285
v -1.87492225 15.55429228 10.61536285
v -0.18749223 14.76140074 10.39634438
v -0.37498445 14.76693062 10.66805887
v -0.37498445 14.90531643 10.66805887
v -0.37498445 14.76693062 10.71380159
v -0.37498445 14.76693062 10.75954431
v -0.37498445 14.90531643 10.71380159
v -0.37498445 14.90531643 10.75954431
v -0.37498445 15.04370223 10.66805887
v -0.37498445 15.18208803 10.66805887
v -0.37498445 15.04370223 10.71380159
v -0.37498445 15.04370223 10.75954431
v -0.37498445 15.18208803 10.71380159
v -0.37498445 15.32047383 10.66805887
v -6.37473567 11.37904981 11.29782904
v -6.37473567 11.63974511 11.38400054
v -6.37473567 11.90044042 11.47017204
v -6.37473567 12.16113573 11.55634353
v -6.37473567 11.37904981 12.33188701
v -4.87479786 9.97176132 11.27509009
v -4.87479786 9.97176132 12.17271434
v -6.37473567 8.58328381 13.62440375
v -6.37473567 9.46728422 13.62440375
v -6.37473567 8.58328381 14.40000295
v -6.37473567 9.46728422 14.40000295
v -6.37473567 11.37904981 13.36594498
v -6.37473567 11.03259598 13.62440375
v -6.37473567 11.37904981 14.40000295
v -4.87479786 9.97176132 13.07033859
v -4.96854397 9.9402315 13.62440375
v -4.87479786 9.97176132 13.96796284
v -4.87479786 11.63128836 13.96796284
v -6.37473567 13.5515107 11.55634353
v -6.37473567 14.94188567 11.55634353
v -6.37473567 13.29081539 12.33188701
v -6.37473567 13.5515107 12.41805851
v -6.37473567 13.81220601 12.50423
v -6.37473567 16.33226065 11.55634353
v -6.37473567 16.59295596 11.47017204
v -6.37473567 17.11434657 11.29782904
v -6.37473567 16.85365126 11.38400054
v -6.37473567 15.20258098 12.50423
v -6.37473567 17.11434657 12.33188701
v -6.37473567 16.59295596 12.50423
v -6.37473567 16.85365126 12.41805851
v -4.87479786 16.60986947 11.27509009
v -4.87479786 16.60986947 12.17271434
v -6.37473567 13.29081539 13.36594498
v -6.37473567 13.29081539 14.40000295
v -6.37473567 15.20258098 13.36594498
v -6.37473567 15.46327629 13.45211648
v -6.37473567 17.11434657 13.36594498
v -6.37473567 16.85365126 13.45211648
v -6.37473567 15.20258098 14.40000295
v -6.37473567 17.11434657 14.40000295
v -4.87479786 13.29081539 13.96796284
v -4.87479786 14.95034243 13.96796284
v -4.87479786 16.60986947 13.07033859
v -4.87479786 16.60986947 13.96796284
v -3.37486006 10.54978459 11.24903609
v -3.37486006 10.54978459 11.99033638
v -1.87492225 11.02733851 11.22751068
v -1.87492225 11.02733851 11.83965851
v -1.87492225 11.02733851 12.45180634
v -0.37498445 11.67631436 10.80528702
v -0.37498445 11.26115695 11.21697148
v -0.37498445 11.39954276 11.2627142
v -0.37498445 11.53792856 11.30845692
v -0.37498445 11.67631436 11.35419963
v -0.37498445 11.81470016 10.80528702
v -0.37498445 11.81470016 10.85102974
v -0.37498445 12.55275778 10.85102974
v -0.37498445 12.41437198 11.35419963
v -0.37498445 11.26115695 11.76588409
v -0.37498445 11.39954276 11.81162681
v -0.37498445 11.53792856 11.85736953
v -0.37498445 11.26115695 12.31479671
v -0.37498445 11.39954276 12.36053942
v -0.37498445 12.27598617 11.85736953
v -0.37498445 12.13760037 12.36053942
v -0.37498445 12.27598617 12.31479671
v -3.37486006 10.54978459 12.73163666
v -3.37486006 10.54978459 13.47293695
v -3.37486006 11.92029999 13.47293695
v -1.87492225 11.02733851 13.06395417
v -1.87492225 12.15907695 13.06395417
v -0.37498445 11.26115695 12.86370932
v -0.37498445 12.27598617 12.86370932
v -3.37486006 16.0318462 11.24903609
v -1.87492225 15.55429228 11.22751068
v -3.37486006 16.0318462 11.99033638
v -1.87492225 15.55429228 11.83965851
v -1.87492225 15.55429228 12.45180634
v -0.37498445 13.29081539 10.85102974
v -0.37498445 13.15242959 11.35419963
v -0.37498445 13.89048721 11.35419963
v -0.37498445 14.02887301 10.85102974
v -0.37498445 14.30564461 11.21697148
v -0.37498445 14.76693062 10.80528702
v -0.37498445 14.76693062 10.85102974
v -0.37498445 14.90531643 10.80528702
v -0.37498445 14.02887301 11.30845692
v -0.37498445 14.16725881 11.2627142
v -0.37498445 13.01404379 11.85736953
v -0.37498445 13.15242959 11.81162681
v -0.37498445 13.29081539 11.76588409
v -0.37498445 13.29081539 12.31479671
v -0.37498445 14.30564461 11.76588409
v -0.37498445 14.30564461 12.31479671
v -0.37498445 15.32047383 11.21697148
v -0.37498445 15.32047383 11.76588409
v -0.37498445 15.32047383 12.31479671
v -3.37486006 13.29081539 13.47293695
v -3.37486006 14.6613308 13.47293695
v -1.87492225 13.29081539 13.06395417
v -1.87492225 14.42255384 13.06395417
v -3.37486006 16.0318462 12.73163666
v -3.37486006 16.0318462 13.47293695
v -1.87492225 15.55429228 13.06395417
v -0.37498445 13.29081539 12.86370932
v -0.37498445 14.30564461 12.86370932
v -0.37498445 15.32047383 12.86370932
v -0 -9.61465132 0
v -0 -9.61465132 5.46834652
v -0 -0.24004005 5.07775034
v -0 -0.24004005 5.46834652
v 11.24953353 -9.61465132 0
v 11.24953353 -9.61465132 5.46834652
v 11.24953353 -0.24004005 5.07775034
v 14.06191691 -0.24004005 5.07775034
v 11.24953353 -0.24004005 5.46834652
v 0 -5.24004923 9.39594866
v 0 -4.50567968 9.39594866
v 0 -5.24004923 9.76006179
v 0 -5.24004923 10.12417493
v 2.01554142 -5.44380302 10.3480633
v 1.8280492 -5.40905095 10.66872466
v 1.8280492 -5.40905095 10.71947592
v 1.8280492 -5.40905095 10.77022719
v 0 -3.77131013 9.39594866
v 0 -3.03694058 9.39594866
v 0 -2.30257103 9.39594866
v 0 -2.30257103 9.76006179
v 0 -2.30257103 10.12417493
v 2.01554142 -2.09881724 10.3480633
v 1.8280492 -2.13356931 10.66872466
v 1.8280492 -2.13356931 10.71947592
v 1.8280492 -2.13356931 10.77022719
v 4.21857507 -6.00029253 8.50071191
v 4.21857507 -4.88580133 8.50071191
v 4.21857507 -6.00029253 9.05329594
v 4.21857507 -6.00029253 9.60587997
v 4.21857507 -6.00029253 10.15846399
v 4.03108285 -5.94707364 10.58609544
v 4.03108285 -5.94707364 10.65351927
v 4.03108285 -5.94707364 10.72094309
v 4.03108285 -4.85919188 10.72094309
v 6.2341165 -6.52321566 10.5285425
v 6.2341165 -6.52321566 10.61382015
v 6.2341165 -5.14726289 10.61382015
v 4.21857507 -3.77131013 8.50071191
v 4.21857507 -2.65681893 8.50071191
v 4.21857507 -1.54232773 8.50071191
v 4.03108285 -3.77131013 10.72094309
v 4.03108285 -2.68342838 10.72094309
v 4.21857507 -1.54232773 9.05329594
v 4.21857507 -1.54232773 9.60587997
v 4.21857507 -1.54232773 10.15846399
v 4.03108285 -1.59554662 10.58609544
v 4.03108285 -1.59554662 10.65351927
v 4.03108285 -1.59554662 10.72094309
v 6.2341165 -3.77131013 10.61382015
v 6.2341165 -2.39535737 10.61382015
v 6.2341165 -1.0194046 10.5285425
v 6.2341165 -1.0194046 10.61382015
v 1.8280492 -5.40905095 10.82097845
v 1.8280492 -4.59018054 10.82097845
v 1.8280492 -3.77131013 10.82097845
v 1.8280492 -2.95243972 10.82097845
v 1.8280492 -2.13356931 10.82097845
v 8.43715015 -6.77118574 7.59293419
v 8.43715015 -6.77118574 8.33662932
v 8.43715015 -5.27124793 7.59293419
v 8.43715015 -5.27124793 8.33662932
v 8.43715015 -6.77118574 9.08032445
v 8.43715015 -6.77118574 9.82401957
v 8.43715015 -6.77118574 10.5677147
v 8.43715015 -5.27124793 9.08032445
v 8.43715015 -5.27124793 9.82401957
v 8.43715015 -5.27124793 10.5677147
v 8.43715015 -3.77131013 7.59293419
v 8.43715015 -2.27137233 7.59293419
v 8.43715015 -3.77131013 8.33662932
v 8.43715015 -2.27137233 8.33662932
v 8.43715015 -0.77143452 7.59293419
v 8.43715015 -0.77143452 8.33662932
v 8.43715015 -3.77131013 9.08032445
v 8.43715015 -3.77131013 9.82401957
v 8.43715015 -2.27137233 9.08032445
v 8.43715015 -2.27137233 9.82401957
v 8.43715015 -3.77131013 10.5677147
v 8.43715015 -2.27137233 10.5677147
v 8.43715015 -0.77143452 9.08032445
v 8.43715015 -0.77143452 9.82401957
v 8.43715015 -0.77143452 10.5677147
v 14.06191691 -0.24004005 7.42132742
v -0 12.88441573 0
v -0 9.75954531 5.07775034
v -0 9.75954531 5.46834652
v -0 12.88441573 5.46834652
v 11.24953353 12.88441573 0
v 11.24953353 9.75954531 5.07775034
v 14.06191691 9.75954531 5.07775034
v 11.24953353 9.75954531 5.46834652
v 11.24953353 12.88441573 5.46834652
v 0 3.29101353 9.39594866
v 0 4.02538308 9.39594866
v 0 3.29101353 9.76006179
v 0 3.29101353 10.12417493
v 2.01554142 3.08725974 10.3480633
v 1.8280492 3.12201181 10.66872466
v 1.8280492 3.12201181 10.71947592
v 1.8280492 3.12201181 10.77022719
v 0 4.75975263 9.39594866
v 0 5.49412218 9.39594866
v 0 6.22849173 9.39594866
v 0 6.22849173 9.76006179
v 0 6.22849173 10.12417493
v 1.8280492 6.39749345 10.66872466
v 1.8280492 6.39749345 10.71947592
v 1.8280492 6.39749345 10.77022719
v 2.01554142 6.43224552 10.3480633
v 4.21857507 2.53077023 8.50071191
v 4.21857507 3.64526143 8.50071191
v 4.21857507 2.53077023 9.05329594
v 4.21857507 2.53077023 9.60587997
v 4.21857507 2.53077023 10.15846399
v 4.03108285 2.58398913 10.58609544
v 4.03108285 2.58398913 10.65351927
v 4.03108285 2.58398913 10.72094309
v 4.03108285 3.67187088 10.72094309
v 6.2341165 2.00784711 10.5285425
v 6.2341165 2.00784711 10.61382015
v 6.2341165 3.38379987 10.61382015
v 4.21857507 4.75975263 8.50071191
v 4.21857507 5.87424383 8.50071191
v 4.21857507 6.98873504 8.50071191
v 4.03108285 4.75975263 10.72094309
v 4.03108285 5.84763439 10.72094309
v 4.21857507 6.98873504 9.05329594
v 4.21857507 6.98873504 9.60587997
v 4.21857507 6.98873504 10.15846399
v 4.03108285 6.93551614 10.58609544
v 4.03108285 6.93551614 10.65351927
v 4.03108285 6.93551614 10.72094309
v 6.2341165 4.75975263 10.61382015
v 6.2341165 6.1357054 10.61382015
v 6.2341165 7.51165816 10.5285425
v 6.2341165 7.51165816 10.61382015
v 1.8280492 3.12201181 10.82097845
v 1.8280492 3.94088222 10.82097845
v 1.8280492 4.75975263 10.82097845
v 1.8280492 5.57862304 10.82097845
v 1.8280492 6.39749345 10.82097845
v 0 11.8220763 9.39594866
v 0 12.55644584 9.39594866
v 0 11.8220763 9.76006179
v 0 11.8220763 10.12417493
v 2.01554142 11.6183225 10.3480633
v 1.8280492 11.65307457 10.66872466
v 1.8280492 11.65307457 10.71947592
v 1.8280492 11.65307457 10.77022719
v 0 13.29081539 9.39594866
v 0 14.02518494 9.39594866
v 0 14.75955449 9.39594866
v 0 14.75955449 9.76006179
v 0 14.75955449 10.12417493
v 2.01554142 14.96330828 10.3480633
v 1.8280492 14.92855621 10.66872466
v 1.8280492 14.92855621 10.71947592
v 1.8280492 14.92855621 10.77022719
v 4.21857507 11.06183299 8.50071191
v 4.21857507 12.17632419 8.50071191
v 4.21857507 11.06183299 9.05329594
v 4.21857507 11.06183299 9.60587997
v 4.21857507 11.06183299 10.15846399
v 4.03108285 11.11505189 10.58609544
v 4.03108285 11.11505189 10.65351927
v 4.03108285 11.11505189 10.72094309
v 4.03108285 12.20293364 10.72094309
v 6.2341165 10.53890987 10.5285425
v 6.2341165 10.53890987 10.61382015
v 6.2341165 11.91486263 10.61382015
v 4.21857507 13.29081539 8.50071191
v 4.21857507 14.4053066 8.50071191
v 4.21857507 15.5197978 8.50071191
v 4.03108285 13.29081539 10.72094309
v 4.03108285 14.37869715 10.72094309
v 4.21857507 15.5197978 9.05329594
v 4.21857507 15.5197978 9.60587997
v 4.21857507 15.5197978 10.15846399
v 4.03108285 15.4665789 10.58609544
v 4.03108285 15.4665789 10.65351927
v 4.03108285 15.4665789 10.72094309
v 6.2341165 13.29081539 10.61382015
v 6.2341165 14.66676816 10.61382015
v 6.2341165 16.04272092 10.5285425
v 6.2341165 16.04272092 10.61382015
v 1.8280492 11.65307457 10.82097845
v 1.8280492 12.47194498 10.82097845
v 1.8280492 13.29081539 10.82097845
v 1.8280492 14.1096858 10.82097845
v 1.8280492 14.92855621 10.82097845
v 8.43715015 1.75987702 7.59293419
v 8.43715015 1.75987702 8.33662932
v 8.43715015 3.25981483 7.59293419
v 8.43715015 3.25981483 8.33662932
v 8.43715015 1.75987702 9.08032445
v 8.43715015 1.75987702 9.82401957
v 8.43715015 1.75987702 10.5677147
v 8.43715015 3.25981483 9.08032445
v 8.43715015 3.25981483 9.82401957
v 8.43715015 3.25981483 10.5677147
v 8.43715015 4.75975263 7.59293419
v 8.43715015 6.25969044 7.59293419
v 8.43715015 4.75975263 8.33662932
v 8.43715015 6.25969044 8.33662932
v 8.43715015 7.75962824 7.59293419
v 8.43715015 7.75962824 8.33662932
v 8.43715015 4.75975263 9.08032445
v 8.43715015 4.75975263 9.82401957
v 8.43715015 6.25969044 9.08032445
v 8.43715015 6.25969044 9.82401957
v 8.43715015 4.75975263 10.5677147
v 8.43715015 6.25969044 10.5677147
v 8.43715015 7.75962824 9.08032445
v 8.43715015 7.75962824 9.82401957
v 8.43715015 7.75962824 10.5677147
v 8.43715015 10.29093979 7.59293419
v 8.43715015 10.29093979 8.33662932
v 8.43715015 11.79087759 7.59293419
v 8.43715015 11.79087759 8.33662932
v 8.43715015 10.29093979 9.08032445
v 8.43715015 10.29093979 9.82401957
v 8.43715015 10.29093979 10.5677147
v 8.43715015 11.79087759 9.08032445
v 8.43715015 11.79087759 9.82401957
v 8.43715015 11.79087759 10.5677147
v 8.43715015 13.29081539 7.59293419
v 8.43715015 14.7907532 7.59293419
v 8.43715015 13.29081539 8.33662932
v 8.43715015 14.7907532 8.33662932
v 8.43715015 16.290691 7.59293419
v 8.43715015 16.290691 8.33662932
v 8.43715015 13.29081539 9.08032445
v 8.43715015 13.29081539 9.82401957
v 8.43715015 14.7907532 9.08032445
v 8.43715015 14.7907532 9.82401957
v 8.43715015 13.29081539 10.5677147
v 8.43715015 14.7907532 10.5677147
v 8.43715015 16.290691 9.08032445
v 8.43715015 16.290691 9.82401957
v 8.43715015 16.290691 10.5677147
v 14.06191691 9.75954531 7.42132742
f 1 2 4
f 1 8 2
f 2 9 5
f 1 4 290
f 1 288 8
f 2 5 4
f 8 9 2
f 8 295 9
f 9 295 12
f 9 13 5
f 9 12 13
f 1 290 292
f 1 292 288
f 290 291 292
f 291 299 292
f 288 292 300
f 8 288 295
f 295 298 12
f 288 300 295
f 295 300 298
f 292 299 300
f 298 300 299
f 861 865 862
f 861 862 863
f 861 863 946
f 861 945 865
f 862 864 863
f 862 866 864
f 865 866 862
f 865 949 866
f 866 869 864
f 866 867 869
f 861 948 945
f 861 946 948
f 946 947 948
f 947 952 948
f 945 948 953
f 865 945 949
f 866 949 867
f 949 950 867
f 945 953 949
f 949 953 950
f 948 952 953
f 950 953 952
f 3 4 5
f 3 5 14
f 5 13 14
f 14 864 7
f 14 13 864
f 12 863 13
f 13 863 864
f 869 11 7
f 14 7 43
f 3 290 4
f 3 14 366
f 3 289 290
f 3 366 289
f 289 291 290
f 289 366 291
f 291 366 293
f 291 293 296
f 12 946 863
f 12 298 946
f 298 299 947
f 298 947 946
f 291 1102 299
f 291 296 1102
f 366 368 293
f 864 869 7
f 869 110 11
f 869 944 110
f 867 868 869
f 869 868 944
f 299 1102 947
f 867 951 868
f 868 951 944
f 867 950 951
f 944 951 1102
f 947 1102 952
f 950 952 951
f 952 1102 951
f 1102 296 636
f 15 17 16
f 15 73 17
f 17 18 16
f 16 18 22
f 17 19 18
f 17 77 19
f 15 16 21
f 15 21 20
f 20 21 39
f 16 22 32
f 16 32 21
f 21 32 53
f 18 24 22
f 22 24 23
f 18 19 25
f 19 76 25
f 18 25 24
f 25 76 79
f 23 24 27
f 23 27 26
f 26 27 28
f 25 29 24
f 24 29 27
f 25 79 29
f 27 30 28
f 27 29 30
f 28 30 31
f 29 88 30
f 30 89 31
f 29 79 88
f 30 88 89
f 31 89 90
f 22 33 32
f 22 23 33
f 32 33 54
f 23 26 34
f 23 34 33
f 26 28 35
f 26 35 34
f 33 34 57
f 34 35 58
f 28 31 36
f 28 36 35
f 31 90 98
f 31 98 36
f 35 36 61
f 36 98 117
f 20 39 37
f 37 39 40
f 37 40 38
f 21 53 39
f 39 53 55
f 39 55 40
f 38 40 47
f 38 47 41
f 41 45 44
f 41 46 45
f 41 47 48
f 41 48 46
f 40 55 63
f 40 63 47
f 48 47 49
f 47 63 49
f 48 50 46
f 48 51 50
f 48 52 51
f 48 49 52
f 32 54 53
f 53 54 56
f 53 56 55
f 33 57 54
f 54 57 59
f 34 58 57
f 57 58 60
f 54 59 56
f 57 60 59
f 35 61 58
f 58 61 62
f 36 117 61
f 61 117 119
f 58 62 60
f 61 119 62
f 55 64 63
f 55 56 64
f 49 63 65
f 63 64 65
f 52 49 65
f 52 65 67
f 52 67 68
f 52 68 71
f 56 59 66
f 56 66 64
f 59 60 68
f 59 68 66
f 64 67 65
f 64 66 67
f 66 68 67
f 60 62 69
f 62 70 69
f 60 69 68
f 62 119 70
f 70 119 121
f 69 71 68
f 15 104 73
f 17 73 77
f 15 74 104
f 19 97 76
f 19 77 97
f 76 86 79
f 79 86 87
f 79 87 88
f 88 94 89
f 89 95 90
f 88 87 94
f 89 94 95
f 90 95 96
f 76 106 86
f 73 103 77
f 90 99 98
f 90 96 99
f 98 99 118
f 76 97 106
f 77 107 97
f 77 103 107
f 73 104 145
f 73 145 103
f 103 146 107
f 97 144 106
f 97 107 144
f 112 113 116
f 113 114 128
f 114 115 128
f 113 128 116
f 98 118 117
f 117 118 120
f 117 120 119
f 119 120 121
f 121 120 122
f 125 115 123
f 125 123 124
f 125 124 126
f 125 126 139
f 126 127 139
f 115 170 128
f 125 170 115
f 125 139 171
f 129 130 132
f 130 131 132
f 127 129 139
f 129 132 165
f 131 133 132
f 129 165 139
f 74 872 104
f 104 873 145
f 107 146 151
f 107 151 144
f 103 161 146
f 103 145 161
f 74 870 872
f 104 872 873
f 146 162 151
f 145 874 161
f 145 873 874
f 146 161 875
f 146 875 162
f 116 128 881
f 128 170 882
f 139 172 171
f 139 165 172
f 125 171 177
f 125 177 170
f 171 172 178
f 170 177 883
f 170 883 882
f 171 884 177
f 171 178 884
f 116 881 880
f 128 882 881
f 870 887 889
f 870 889 872
f 872 890 873
f 162 875 163
f 163 876 164
f 164 877 235
f 163 875 876
f 164 876 877
f 235 877 914
f 872 889 890
f 873 891 874
f 161 874 892
f 161 892 875
f 892 876 875
f 876 893 877
f 877 894 914
f 914 895 915
f 873 890 891
f 892 893 876
f 877 893 894
f 914 894 895
f 915 895 902
f 880 904 901
f 178 180 884
f 180 181 885
f 181 263 886
f 180 885 884
f 181 886 885
f 263 918 886
f 880 881 904
f 881 882 905
f 915 902 916
f 916 903 917
f 917 909 918
f 916 902 903
f 917 903 909
f 881 905 904
f 882 883 906
f 177 907 883
f 177 884 907
f 907 884 885
f 885 886 908
f 886 918 909
f 882 906 905
f 907 885 908
f 886 909 908
f 887 920 889
f 874 891 896
f 874 896 892
f 892 896 893
f 897 894 893
f 898 895 894
f 891 925 896
f 896 925 897
f 889 923 890
f 890 924 891
f 896 897 893
f 897 898 894
f 898 910 895
f 897 928 898
f 901 904 934
f 910 902 895
f 911 903 902
f 883 912 906
f 883 907 912
f 913 909 903
f 907 908 912
f 913 908 909
f 910 911 902
f 898 939 910
f 910 940 911
f 904 905 941
f 905 906 942
f 911 913 903
f 912 908 913
f 906 912 943
f 911 943 913
f 912 913 943
f 235 914 236
f 236 915 237
f 236 914 915
f 237 915 916
f 237 916 259
f 259 917 261
f 261 918 264
f 263 264 918
f 259 916 917
f 261 917 918
f 887 919 920
f 920 923 889
f 919 921 920
f 921 922 920
f 921 929 922
f 920 922 923
f 922 926 923
f 922 931 926
f 890 923 924
f 891 924 925
f 923 926 924
f 926 927 924
f 926 935 927
f 897 925 928
f 898 928 939
f 924 927 925
f 925 927 928
f 927 936 928
f 922 929 931
f 929 930 931
f 930 932 931
f 931 935 926
f 931 932 935
f 932 937 935
f 930 933 932
f 932 933 934
f 901 934 933
f 904 941 934
f 932 934 937
f 937 934 941
f 935 937 936
f 927 935 936
f 937 938 936
f 910 939 940
f 928 936 939
f 936 938 939
f 939 938 940
f 905 942 941
f 937 941 938
f 938 941 942
f 911 940 943
f 906 943 942
f 938 942 940
f 940 942 943
f 78 81 80
f 80 81 83
f 80 83 82
f 82 83 85
f 82 85 84
f 84 85 87
f 84 87 86
f 81 91 83
f 83 91 92
f 83 92 85
f 85 92 94
f 91 93 92
f 92 93 95
f 85 94 87
f 92 95 94
f 93 96 95
f 78 192 81
f 81 193 91
f 78 80 100
f 80 82 101
f 82 84 102
f 84 86 105
f 80 101 100
f 82 102 101
f 84 105 102
f 78 100 190
f 86 106 105
f 100 101 140
f 101 102 141
f 100 140 197
f 101 141 140
f 102 105 142
f 105 106 143
f 102 142 141
f 105 143 142
f 106 144 143
f 133 137 132
f 132 137 134
f 134 137 135
f 135 137 136
f 136 137 138
f 132 134 165
f 134 135 166
f 134 166 165
f 135 167 166
f 136 168 167
f 135 136 167
f 136 138 168
f 138 169 168
f 138 254 169
f 140 141 147
f 141 142 148
f 142 143 149
f 140 147 225
f 143 144 150
f 141 148 147
f 142 149 148
f 143 150 149
f 144 151 150
f 147 148 152
f 148 149 153
f 149 150 155
f 150 151 156
f 148 153 152
f 149 155 153
f 150 156 155
f 151 162 156
f 152 153 154
f 153 157 154
f 153 155 157
f 155 156 159
f 154 157 158
f 155 159 157
f 157 159 160
f 157 160 158
f 158 160 230
f 156 162 163
f 156 163 159
f 159 163 164
f 159 164 160
f 160 235 230
f 160 164 235
f 165 166 172
f 166 167 173
f 174 167 168
f 175 168 169
f 166 173 172
f 173 167 174
f 174 168 175
f 175 169 176
f 176 169 255
f 173 179 178
f 178 179 180
f 180 182 181
f 180 179 182
f 181 183 263
f 181 182 183
f 263 183 265
f 172 173 178
f 173 174 179
f 174 175 184
f 175 176 185
f 174 184 179
f 175 185 184
f 176 189 185
f 179 184 182
f 184 185 186
f 182 186 183
f 184 186 182
f 183 187 265
f 183 186 187
f 186 188 187
f 186 185 188
f 185 189 188
f 78 190 192
f 100 197 190
f 190 197 191
f 190 191 196
f 191 197 198
f 91 194 93
f 93 195 96
f 81 192 193
f 91 193 194
f 96 195 99
f 93 194 195
f 190 196 192
f 99 195 206
f 192 207 193
f 192 196 207
f 193 208 194
f 194 209 195
f 140 225 197
f 197 225 198
f 198 225 226
f 198 226 203
f 203 226 247
f 191 199 201
f 191 198 199
f 198 203 199
f 199 200 202
f 199 203 200
f 200 203 204
f 200 204 202
f 191 201 196
f 196 201 214
f 196 214 207
f 199 202 201
f 201 215 214
f 201 202 215
f 202 204 205
f 202 205 215
f 215 205 220
f 203 247 204
f 204 247 248
f 204 248 205
f 205 248 249
f 205 249 220
f 99 206 118
f 118 210 120
f 118 206 210
f 195 209 206
f 193 207 208
f 194 208 209
f 206 211 210
f 206 209 211
f 120 210 122
f 122 210 211
f 122 211 217
f 122 217 218
f 137 223 138
f 138 212 254
f 212 256 254
f 138 223 212
f 212 223 213
f 212 213 256
f 213 282 256
f 207 216 208
f 208 217 209
f 207 214 216
f 209 217 211
f 208 216 217
f 214 219 216
f 214 215 219
f 215 220 219
f 219 220 222
f 216 218 217
f 216 219 218
f 218 219 545
f 218 545 543
f 219 222 545
f 543 224 223
f 543 545 224
f 222 224 545
f 220 278 222
f 220 249 278
f 222 278 279
f 213 223 221
f 213 221 282
f 221 283 282
f 221 223 224
f 222 279 224
f 224 279 283
f 221 224 283
f 225 227 226
f 147 227 225
f 226 227 228
f 226 228 247
f 228 229 247
f 147 152 227
f 227 231 228
f 227 152 231
f 152 154 231
f 154 158 232
f 158 230 233
f 154 232 231
f 158 233 232
f 230 234 233
f 231 239 228
f 231 232 239
f 232 233 240
f 232 240 239
f 233 234 241
f 233 241 240
f 230 235 236
f 230 236 234
f 236 237 234
f 237 238 234
f 237 259 238
f 234 238 241
f 238 244 241
f 238 260 244
f 228 239 229
f 239 240 242
f 240 241 243
f 229 239 242
f 240 243 242
f 242 243 252
f 243 245 252
f 241 244 243
f 244 269 245
f 245 269 270
f 244 245 243
f 245 246 252
f 245 270 246
f 246 272 253
f 229 248 247
f 248 250 249
f 249 251 278
f 229 250 248
f 249 250 251
f 229 242 250
f 250 252 251
f 251 253 280
f 242 252 250
f 251 252 253
f 246 253 252
f 169 254 255
f 257 254 256
f 255 254 257
f 258 256 282
f 257 256 258
f 238 259 260
f 259 261 260
f 261 266 260
f 244 260 269
f 267 268 270
f 260 266 269
f 267 270 269
f 268 271 270
f 266 267 269
f 261 264 266
f 266 265 267
f 266 264 265
f 263 265 264
f 187 188 268
f 267 265 187
f 267 187 268
f 188 262 268
f 262 271 268
f 262 273 271
f 262 275 273
f 246 270 271
f 246 271 272
f 271 273 272
f 272 274 285
f 272 273 274
f 273 276 274
f 274 277 286
f 176 255 275
f 255 257 276
f 176 275 189
f 188 189 262
f 189 275 262
f 255 276 275
f 275 276 273
f 257 258 277
f 257 277 276
f 276 277 274
f 258 287 277
f 278 280 279
f 278 251 280
f 279 280 281
f 279 281 283
f 284 282 283
f 258 282 284
f 281 284 283
f 280 285 281
f 281 286 284
f 253 285 280
f 272 285 253
f 281 285 286
f 274 286 285
f 258 284 287
f 284 286 287
f 277 287 286
f 301 303 304
f 301 304 302
f 301 306 305
f 301 302 308
f 301 308 306
f 306 307 305
f 305 307 315
f 306 308 309
f 306 309 310
f 306 310 307
f 301 305 314
f 301 314 311
f 311 331 329
f 311 314 331
f 305 315 322
f 305 322 314
f 314 345 331
f 314 322 345
f 307 317 315
f 315 317 316
f 310 321 307
f 307 321 317
f 316 317 319
f 316 319 318
f 318 319 320
f 317 321 319
f 319 321 320
f 320 321 326
f 315 323 322
f 315 316 323
f 322 346 345
f 322 323 346
f 316 318 324
f 316 324 323
f 318 320 325
f 318 325 324
f 323 349 346
f 323 324 349
f 324 350 349
f 324 325 350
f 320 326 325
f 326 327 325
f 327 328 325
f 327 433 328
f 328 433 435
f 325 353 350
f 325 328 353
f 328 435 463
f 328 463 353
f 329 331 332
f 329 332 330
f 331 345 347
f 331 347 332
f 330 332 339
f 330 339 333
f 333 337 336
f 333 338 337
f 333 339 340
f 333 340 338
f 332 347 355
f 332 355 339
f 340 339 341
f 339 355 341
f 340 342 338
f 340 343 342
f 340 344 343
f 340 341 344
f 345 346 348
f 345 348 347
f 346 349 351
f 349 350 352
f 346 351 348
f 349 352 351
f 350 353 354
f 353 463 465
f 350 354 352
f 353 465 354
f 347 356 355
f 347 348 356
f 341 355 357
f 355 356 357
f 344 341 357
f 344 357 359
f 344 359 360
f 344 360 363
f 348 351 358
f 348 358 356
f 351 352 360
f 351 360 358
f 356 359 357
f 356 358 359
f 358 360 359
f 352 354 361
f 354 362 361
f 352 361 360
f 354 465 362
f 362 465 467
f 360 361 363
f 426 431 428
f 429 447 430
f 428 447 429
f 428 431 447
f 433 434 435
f 434 436 435
f 435 436 464
f 430 444 442
f 442 444 443
f 443 444 445
f 445 444 453
f 445 453 446
f 430 447 491
f 430 491 444
f 444 492 453
f 448 452 449
f 449 452 450
f 446 453 448
f 448 490 452
f 450 452 451
f 448 453 490
f 458 459 462
f 459 460 474
f 460 461 474
f 459 474 462
f 435 464 463
f 463 464 466
f 463 466 465
f 465 466 467
f 466 468 467
f 461 469 471
f 469 470 471
f 470 472 471
f 472 485 471
f 472 473 485
f 461 517 474
f 461 471 517
f 471 485 518
f 475 476 479
f 476 477 479
f 473 475 485
f 475 479 512
f 477 478 479
f 475 512 485
f 431 956 447
f 447 957 491
f 453 492 497
f 453 497 490
f 444 507 492
f 444 491 507
f 431 954 956
f 447 956 957
f 492 508 497
f 491 958 507
f 491 957 958
f 492 507 959
f 492 959 508
f 462 474 965
f 474 517 966
f 485 511 518
f 485 512 511
f 471 518 523
f 471 523 517
f 518 511 524
f 517 523 970
f 517 970 966
f 518 967 523
f 518 524 967
f 462 965 964
f 474 966 965
f 954 971 973
f 954 973 956
f 956 974 957
f 508 959 509
f 509 960 510
f 510 961 583
f 509 959 960
f 510 960 961
f 583 961 998
f 956 973 974
f 957 975 958
f 507 958 976
f 507 976 959
f 976 960 959
f 960 977 961
f 961 978 998
f 998 979 999
f 957 974 975
f 976 977 960
f 961 977 978
f 998 978 979
f 999 979 986
f 964 988 985
f 524 526 967
f 526 527 968
f 527 611 969
f 526 968 967
f 527 969 968
f 611 1002 969
f 964 965 988
f 965 966 989
f 999 986 1000
f 1000 987 1001
f 1001 993 1002
f 1000 986 987
f 1001 987 993
f 965 989 988
f 966 970 990
f 523 991 970
f 523 967 991
f 991 967 968
f 968 969 992
f 969 1002 993
f 966 990 989
f 991 968 992
f 969 993 992
f 971 1053 973
f 958 975 980
f 958 980 976
f 976 980 977
f 981 978 977
f 982 979 978
f 975 1058 980
f 980 1058 981
f 973 1056 974
f 974 1057 975
f 980 981 977
f 981 982 978
f 982 994 979
f 981 1061 982
f 985 988 1067
f 979 994 986
f 995 987 986
f 970 996 990
f 970 991 996
f 997 993 987
f 991 992 996
f 997 992 993
f 994 995 986
f 982 1072 994
f 994 1073 995
f 988 989 1074
f 989 990 1075
f 995 997 987
f 996 992 997
f 990 996 1076
f 995 1076 997
f 996 997 1076
f 583 998 584
f 584 999 585
f 584 998 999
f 585 999 1000
f 585 1000 607
f 607 1001 609
f 609 1002 612
f 611 612 1002
f 607 1000 1001
f 609 1001 1002
f 971 1052 1053
f 1053 1056 973
f 1052 1054 1053
f 1054 1055 1053
f 1054 1062 1055
f 1055 1062 1064
f 1053 1055 1056
f 1055 1059 1056
f 1055 1064 1059
f 1059 1064 1068
f 974 1056 1057
f 975 1057 1058
f 1056 1059 1057
f 1059 1060 1057
f 1059 1068 1060
f 1060 1068 1069
f 981 1058 1061
f 982 1061 1072
f 1057 1060 1058
f 1058 1060 1061
f 1060 1069 1061
f 1061 1069 1072
f 1062 1063 1064
f 1063 1065 1064
f 1064 1065 1068
f 1065 1070 1068
f 1063 1066 1065
f 1066 1067 1065
f 985 1067 1066
f 1067 988 1074
f 1065 1067 1070
f 1067 1074 1070
f 1068 1070 1069
f 1070 1071 1069
f 994 1072 1073
f 1069 1071 1072
f 1071 1073 1072
f 989 1075 1074
f 1070 1074 1071
f 1074 1075 1071
f 995 1073 1076
f 990 1076 1075
f 1071 1075 1073
f 1073 1075 1076
f 437 439 438
f 437 438 541
f 437 440 439
f 437 441 440
f 437 451 441
f 438 439 486
f 439 440 487
f 440 441 488
f 438 486 541
f 439 487 486
f 451 452 441
f 441 452 489
f 440 488 487
f 441 489 488
f 452 490 489
f 478 483 479
f 479 483 480
f 480 483 481
f 481 483 482
f 483 484 482
f 479 480 512
f 480 481 513
f 480 513 512
f 481 514 513
f 482 515 514
f 481 482 514
f 482 484 515
f 484 516 515
f 484 602 516
f 486 487 493
f 487 488 494
f 488 489 495
f 486 493 573
f 489 490 496
f 487 494 493
f 488 495 494
f 489 496 495
f 490 497 496
f 493 494 498
f 494 495 499
f 495 496 501
f 496 497 502
f 494 499 498
f 495 501 499
f 496 502 501
f 497 508 502
f 498 499 500
f 499 503 500
f 499 501 503
f 501 502 505
f 500 503 504
f 501 505 503
f 503 506 504
f 503 505 506
f 502 509 505
f 504 506 578
f 505 510 506
f 506 583 578
f 502 508 509
f 505 509 510
f 506 510 583
f 512 513 511
f 513 514 519
f 514 515 520
f 515 516 521
f 513 519 511
f 514 520 519
f 515 521 520
f 516 522 521
f 516 603 522
f 511 519 524
f 519 525 524
f 524 525 526
f 526 528 527
f 527 529 611
f 526 525 528
f 527 528 529
f 611 529 613
f 519 520 525
f 520 521 530
f 521 522 531
f 520 530 525
f 521 531 530
f 522 535 531
f 525 530 528
f 530 531 532
f 528 530 532
f 528 532 529
f 529 532 533
f 529 533 613
f 531 534 532
f 532 534 533
f 531 535 534
f 434 539 436
f 434 536 537
f 434 537 538
f 434 538 539
f 436 539 554
f 536 556 537
f 434 548 536
f 536 548 540
f 536 540 556
f 537 557 538
f 538 558 539
f 437 541 542
f 486 573 541
f 541 573 542
f 437 542 550
f 437 550 551
f 542 573 574
f 542 574 550
f 550 574 595
f 544 549 548
f 544 546 549
f 544 551 552
f 544 552 546
f 546 552 549
f 540 548 547
f 540 547 562
f 540 562 556
f 547 548 549
f 547 563 562
f 547 549 563
f 549 552 553
f 549 553 563
f 553 568 563
f 550 595 552
f 552 595 596
f 550 552 551
f 552 596 553
f 553 596 597
f 553 597 568
f 436 554 464
f 464 555 466
f 464 554 555
f 539 558 554
f 537 556 557
f 538 557 558
f 554 559 555
f 554 558 559
f 466 555 468
f 468 555 559
f 468 559 565
f 468 565 566
f 483 571 484
f 484 560 602
f 560 604 602
f 484 571 560
f 560 571 561
f 560 561 604
f 561 630 604
f 556 564 557
f 557 565 558
f 556 562 564
f 558 565 559
f 557 564 565
f 562 567 564
f 562 563 567
f 563 568 567
f 567 568 570
f 564 566 565
f 564 567 566
f 566 567 762
f 566 762 760
f 567 570 762
f 760 572 571
f 760 762 572
f 762 570 572
f 568 626 570
f 597 626 568
f 570 626 627
f 561 571 569
f 561 569 630
f 569 631 630
f 569 571 572
f 570 627 572
f 572 627 631
f 569 572 631
f 573 575 574
f 493 575 573
f 574 575 576
f 574 576 595
f 576 577 595
f 493 498 575
f 575 579 576
f 575 498 579
f 498 500 579
f 500 504 580
f 504 578 581
f 578 584 582
f 500 580 579
f 504 581 580
f 578 582 581
f 579 587 576
f 579 580 587
f 580 581 588
f 580 588 587
f 581 582 589
f 581 589 588
f 578 583 584
f 582 584 585
f 582 585 586
f 585 607 586
f 582 586 589
f 586 592 589
f 586 608 592
f 576 587 577
f 587 588 590
f 588 589 591
f 589 592 591
f 577 587 590
f 588 591 590
f 590 591 600
f 591 593 600
f 592 617 593
f 618 593 617
f 591 592 593
f 594 600 593
f 618 594 593
f 594 620 601
f 577 596 595
f 596 598 597
f 597 599 626
f 577 598 596
f 597 598 599
f 577 590 598
f 598 600 599
f 599 601 628
f 590 600 598
f 599 600 601
f 594 601 600
f 516 602 603
f 602 604 605
f 602 605 603
f 604 630 606
f 604 606 605
f 586 607 608
f 608 607 609
f 608 609 614
f 608 617 592
f 618 615 616
f 608 614 617
f 618 617 615
f 618 616 619
f 617 614 615
f 609 612 614
f 615 533 616
f 614 613 615
f 612 613 614
f 615 613 533
f 611 613 612
f 616 533 534
f 610 534 535
f 610 616 534
f 610 619 616
f 610 621 619
f 610 623 621
f 618 619 594
f 594 619 620
f 619 621 620
f 620 622 633
f 621 622 620
f 621 624 622
f 622 625 634
f 522 603 623
f 603 605 624
f 522 623 535
f 610 535 623
f 603 624 623
f 623 624 621
f 605 606 625
f 605 625 624
f 622 624 625
f 606 635 625
f 626 628 627
f 599 628 626
f 627 628 629
f 627 629 631
f 630 631 632
f 606 630 632
f 631 629 632
f 628 633 629
f 629 634 632
f 601 633 628
f 601 620 633
f 629 633 634
f 622 634 633
f 606 632 635
f 632 634 635
f 625 635 634
f 367 371 370
f 367 369 371
f 367 373 372
f 367 370 375
f 367 375 373
f 373 374 372
f 372 374 381
f 373 375 376
f 373 376 377
f 373 377 374
f 367 372 380
f 367 380 378
f 378 380 397
f 378 397 395
f 372 381 388
f 372 388 380
f 380 388 404
f 380 404 397
f 374 383 381
f 381 383 382
f 377 387 374
f 374 387 383
f 382 383 385
f 382 385 384
f 384 385 386
f 383 387 385
f 385 387 386
f 386 387 392
f 381 389 388
f 381 382 389
f 388 405 404
f 388 389 405
f 382 384 390
f 382 390 389
f 384 386 391
f 384 391 390
f 389 390 408
f 389 408 405
f 390 391 409
f 390 409 408
f 386 392 391
f 391 392 393
f 391 393 394
f 393 644 394
f 394 644 646
f 391 412 409
f 391 394 412
f 394 646 669
f 394 669 412
f 395 397 398
f 395 398 396
f 397 404 406
f 397 406 398
f 396 398 400
f 396 400 399
f 399 400 401
f 399 401 665
f 398 406 414
f 398 414 400
f 401 400 402
f 400 414 402
f 401 402 403
f 401 403 674
f 404 405 407
f 404 407 406
f 405 408 410
f 408 409 411
f 405 410 407
f 408 411 410
f 409 412 413
f 412 669 671
f 409 413 411
f 412 671 413
f 406 415 414
f 406 407 415
f 402 414 416
f 414 415 416
f 402 417 403
f 403 417 673
f 402 416 417
f 417 676 673
f 407 410 418
f 407 418 415
f 410 411 420
f 410 420 418
f 415 419 416
f 415 418 419
f 418 420 419
f 411 413 423
f 411 423 420
f 413 671 688
f 413 688 423
f 417 416 421
f 416 419 421
f 417 421 676
f 419 420 422
f 419 422 421
f 420 423 422
f 421 422 686
f 421 686 676
f 422 423 687
f 422 687 686
f 423 688 687
f 637 642 639
f 639 658 640
f 640 658 641
f 639 642 658
f 644 645 646
f 646 645 647
f 646 670 669
f 646 647 670
f 641 655 653
f 653 655 654
f 654 655 656
f 656 655 664
f 656 664 657
f 641 658 708
f 641 708 655
f 655 709 664
f 659 663 660
f 660 663 661
f 657 664 659
f 659 707 663
f 661 663 662
f 659 664 707
f 399 665 696
f 401 674 665
f 399 696 668
f 669 670 672
f 669 672 671
f 403 675 674
f 403 673 675
f 665 674 695
f 671 693 688
f 671 672 693
f 673 676 677
f 676 678 677
f 676 686 678
f 686 687 689
f 687 688 690
f 686 689 678
f 687 690 689
f 688 693 690
f 673 677 697
f 673 697 675
f 674 675 702
f 674 702 695
f 665 734 696
f 665 695 734
f 695 702 735
f 675 697 729
f 675 729 702
f 642 1005 658
f 658 1006 708
f 664 709 714
f 664 714 707
f 655 724 709
f 655 708 724
f 642 1003 1005
f 658 1005 1006
f 709 725 714
f 708 1007 724
f 708 1006 1007
f 709 724 1008
f 709 1008 725
f 668 696 1014
f 696 734 1015
f 702 728 735
f 702 729 728
f 695 735 740
f 695 740 734
f 735 728 741
f 734 740 1016
f 734 1016 1015
f 735 1017 740
f 735 741 1017
f 668 1014 1013
f 696 1015 1014
f 1003 1020 1022
f 1003 1022 1005
f 1005 1023 1006
f 725 1008 726
f 726 1009 727
f 727 1010 808
f 726 1008 1009
f 727 1009 1010
f 808 1010 1047
f 1005 1022 1023
f 1006 1024 1007
f 724 1007 1025
f 724 1025 1008
f 1025 1009 1008
f 1009 1026 1010
f 1010 1027 1047
f 1047 1028 1048
f 1006 1023 1024
f 1025 1026 1009
f 1010 1026 1027
f 1047 1027 1028
f 1048 1028 1035
f 1013 1037 1034
f 741 743 1017
f 743 744 1018
f 744 837 1019
f 743 1018 1017
f 744 1019 1018
f 837 1051 1019
f 1013 1014 1037
f 1014 1015 1038
f 1048 1035 1049
f 1049 1036 1050
f 1050 1042 1051
f 1049 1035 1036
f 1050 1036 1042
f 1014 1038 1037
f 1015 1016 1039
f 740 1040 1016
f 740 1017 1040
f 1040 1017 1018
f 1018 1019 1041
f 1019 1051 1042
f 1015 1039 1038
f 1040 1018 1041
f 1019 1042 1041
f 1078 1022 1020
f 1007 1024 1029
f 1007 1029 1025
f 1025 1029 1026
f 1030 1027 1026
f 1031 1028 1027
f 1029 1024 1083
f 1029 1083 1030
f 1081 1023 1022
f 1082 1024 1023
f 1029 1030 1026
f 1030 1031 1027
f 1031 1043 1028
f 1030 1086 1031
f 1031 1097 1043
f 1034 1037 1092
f 1043 1035 1028
f 1044 1036 1035
f 1016 1045 1039
f 1016 1040 1045
f 1046 1042 1036
f 1040 1041 1045
f 1046 1041 1042
f 1043 1044 1035
f 1043 1098 1044
f 1037 1038 1099
f 1038 1039 1100
f 1044 1046 1036
f 1045 1041 1046
f 1039 1045 1101
f 1044 1101 1046
f 1045 1046 1101
f 808 1047 809
f 809 1048 810
f 809 1047 1048
f 810 1048 1049
f 810 1049 832
f 832 1050 835
f 835 1051 838
f 837 838 1051
f 832 1049 1050
f 835 1050 1051
f 1077 1078 1020
f 1078 1081 1022
f 1077 1079 1078
f 1078 1079 1080
f 1079 1087 1080
f 1087 1089 1080
f 1078 1080 1081
f 1081 1080 1084
f 1080 1089 1084
f 1089 1093 1084
f 1081 1082 1023
f 1082 1083 1024
f 1081 1084 1082
f 1082 1084 1085
f 1084 1093 1085
f 1093 1094 1085
f 1030 1083 1086
f 1031 1086 1097
f 1082 1085 1083
f 1083 1085 1086
f 1085 1094 1086
f 1086 1094 1097
f 1087 1088 1089
f 1089 1088 1090
f 1089 1090 1093
f 1090 1095 1093
f 1088 1091 1090
f 1091 1092 1090
f 1034 1092 1091
f 1092 1037 1099
f 1090 1092 1095
f 1092 1099 1095
f 1093 1095 1094
f 1094 1095 1096
f 1043 1097 1098
f 1094 1096 1097
f 1097 1096 1098
f 1038 1100 1099
f 1095 1099 1096
f 1099 1100 1096
f 1039 1101 1100
f 1044 1098 1101
f 1096 1100 1098
f 1098 1100 1101
f 648 650 649
f 648 649 758
f 648 651 650
f 648 652 651
f 648 662 652
f 649 650 703
f 650 651 704
f 651 652 705
f 649 703 758
f 650 704 703
f 651 705 704
f 662 663 652
f 652 663 706
f 652 706 705
f 663 707 706
f 677 678 679
f 679 678 680
f 679 680 681
f 680 682 681
f 681 682 683
f 682 684 683
f 683 684 685
f 678 689 680
f 680 689 691
f 689 690 691
f 690 693 692
f 690 692 691
f 680 691 682
f 691 694 682
f 691 692 694
f 682 694 684
f 684 694 779
f 685 684 778
f 677 679 697
f 679 698 697
f 679 681 698
f 681 683 699
f 683 685 700
f 681 699 698
f 683 700 699
f 685 701 700
f 685 784 701
f 697 698 729
f 698 699 730
f 698 730 729
f 699 731 730
f 700 732 731
f 699 700 731
f 700 701 732
f 701 733 732
f 701 827 733
f 703 704 710
f 704 705 711
f 705 706 712
f 703 710 798
f 706 707 713
f 704 711 710
f 705 712 711
f 706 713 712
f 707 714 713
f 710 711 715
f 711 712 716
f 712 713 718
f 713 714 719
f 711 716 715
f 712 718 716
f 713 719 718
f 714 725 719
f 715 716 717
f 716 718 720
f 716 720 717
f 717 720 721
f 718 719 722
f 718 722 720
f 720 722 723
f 720 723 721
f 721 723 803
f 719 726 722
f 722 727 723
f 723 808 803
f 719 725 726
f 722 726 727
f 723 727 808
f 729 730 728
f 730 731 736
f 731 732 737
f 732 733 738
f 730 736 728
f 731 737 736
f 732 738 737
f 733 739 738
f 733 828 739
f 728 736 741
f 736 742 741
f 741 742 743
f 742 747 745
f 743 745 744
f 744 746 837
f 743 742 745
f 745 749 746
f 744 745 746
f 837 746 839
f 746 750 839
f 736 737 742
f 737 738 747
f 738 739 748
f 737 747 742
f 738 748 747
f 739 752 748
f 747 748 749
f 748 752 751
f 745 747 749
f 749 751 750
f 746 749 750
f 748 751 749
f 645 756 647
f 645 753 754
f 645 754 755
f 645 755 756
f 647 756 771
f 753 773 754
f 645 765 753
f 753 765 757
f 753 757 773
f 754 774 755
f 755 775 756
f 754 773 774
f 648 758 759
f 703 798 758
f 758 798 759
f 648 759 767
f 648 767 768
f 759 798 799
f 759 799 767
f 767 799 820
f 761 766 765
f 761 763 766
f 761 768 769
f 761 769 763
f 763 769 766
f 757 765 764
f 757 764 786
f 757 786 773
f 764 765 766
f 764 787 786
f 764 766 787
f 769 770 766
f 766 770 787
f 787 770 794
f 767 820 769
f 769 820 821
f 767 769 768
f 769 821 770
f 770 821 822
f 770 822 794
f 794 822 851
f 647 771 670
f 670 772 672
f 670 771 772
f 756 775 771
f 755 774 775
f 771 780 772
f 771 775 780
f 672 772 776
f 672 776 693
f 692 693 776
f 692 777 694
f 692 776 777
f 684 779 778
f 694 777 779
f 778 779 781
f 685 778 784
f 778 785 784
f 772 782 776
f 772 780 782
f 776 782 777
f 777 783 779
f 777 782 783
f 779 783 781
f 778 781 785
f 781 796 785
f 701 784 827
f 784 829 827
f 784 785 829
f 785 855 829
f 773 788 774
f 774 789 775
f 773 786 788
f 775 789 780
f 774 788 789
f 786 792 788
f 786 787 792
f 787 794 792
f 792 794 795
f 780 789 791
f 780 791 782
f 782 791 783
f 781 783 790
f 783 791 790
f 781 790 796
f 790 797 796
f 788 793 789
f 788 792 793
f 789 793 791
f 791 793 790
f 792 795 793
f 790 793 797
f 793 795 797
f 794 851 795
f 795 851 852
f 785 796 855
f 796 856 855
f 795 852 797
f 797 852 856
f 796 797 856
f 798 800 799
f 710 800 798
f 799 800 801
f 799 801 820
f 820 801 802
f 710 715 800
f 800 804 801
f 800 715 804
f 715 717 804
f 717 721 805
f 721 803 806
f 803 809 807
f 717 805 804
f 721 806 805
f 803 807 806
f 804 812 801
f 804 805 812
f 805 806 813
f 805 813 812
f 806 814 813
f 806 807 814
f 803 808 809
f 809 810 807
f 807 810 811
f 811 810 832
f 807 811 814
f 811 817 814
f 811 833 817
f 833 842 817
f 801 812 802
f 812 813 815
f 813 814 816
f 814 817 816
f 802 812 815
f 813 816 815
f 815 816 825
f 816 818 825
f 817 842 818
f 818 842 843
f 817 818 816
f 819 825 818
f 819 818 843
f 819 845 826
f 820 802 821
f 821 823 822
f 822 824 851
f 821 802 823
f 822 823 824
f 802 815 823
f 823 825 824
f 824 826 853
f 815 825 823
f 824 825 826
f 819 826 825
f 733 827 828
f 827 829 830
f 827 830 828
f 829 855 831
f 829 831 830
f 811 832 833
f 832 835 833
f 833 835 834
f 833 834 842
f 843 840 841
f 843 842 840
f 843 841 844
f 834 840 842
f 834 835 838
f 750 841 840
f 834 839 840
f 834 838 839
f 750 840 839
f 837 839 838
f 750 751 841
f 751 752 836
f 751 836 841
f 844 841 836
f 844 836 846
f 836 848 846
f 819 843 844
f 819 844 845
f 844 846 845
f 845 847 858
f 845 846 847
f 846 849 847
f 847 850 859
f 739 828 848
f 828 830 849
f 739 848 752
f 752 848 836
f 828 849 848
f 848 849 846
f 830 831 850
f 830 850 849
f 849 850 847
f 831 860 850
f 851 853 852
f 851 824 853
f 852 853 854
f 852 854 856
f 855 856 857
f 831 855 857
f 856 854 857
f 853 858 854
f 854 859 857
f 853 826 858
f 845 858 826
f 858 859 854
f 847 859 858
f 831 857 860
f 857 859 860
f 850 860 859
f 14 334 366
f 14 43 312
f 14 312 334
f 366 334 368
f 312 425 334
f 425 456 334
f 944 425 110
f 1102 456 425
f 1102 636 456
f 944 1102 425
f 38 41 42
f 42 41 44
f 38 42 111
f 15 20 75
f 15 75 74
f 20 108 75
f 20 37 108
f 37 38 109
f 37 109 108
f 38 116 109
f 38 111 116
f 111 112 116
f 74 75 871
f 74 871 870
f 75 878 871
f 75 108 878
f 108 109 879
f 109 116 880
f 108 879 878
f 109 880 879
f 870 888 887
f 871 899 888
f 870 871 888
f 878 900 899
f 879 901 900
f 871 878 899
f 878 879 900
f 879 880 901
f 887 888 921
f 888 899 929
f 899 900 930
f 900 901 933
f 887 921 919
f 888 929 921
f 899 930 929
f 900 933 930
f 301 313 303
f 301 311 313
f 330 333 335
f 333 336 335
f 330 335 457
f 313 311 432
f 311 329 454
f 313 432 427
f 311 454 432
f 426 427 431
f 427 432 431
f 329 330 455
f 329 455 454
f 330 462 455
f 330 457 462
f 457 458 462
f 431 432 955
f 431 955 954
f 432 962 955
f 432 454 962
f 454 455 963
f 455 462 964
f 454 963 962
f 455 964 963
f 954 972 971
f 955 983 972
f 954 955 972
f 962 984 983
f 963 985 984
f 955 962 983
f 962 963 984
f 963 964 985
f 971 972 1054
f 972 983 1062
f 983 984 1063
f 984 985 1066
f 971 1054 1052
f 972 1062 1054
f 983 1063 1062
f 984 1066 1063
f 367 379 369
f 367 378 379
f 378 643 379
f 378 395 666
f 379 643 638
f 378 666 643
f 637 638 642
f 638 643 642
f 395 396 667
f 395 667 666
f 396 668 667
f 396 399 668
f 642 643 1004
f 642 1004 1003
f 643 1011 1004
f 643 666 1011
f 666 667 1012
f 667 668 1013
f 666 1012 1011
f 667 1013 1012
f 1003 1021 1020
f 1004 1032 1021
f 1003 1004 1021
f 1011 1033 1032
f 1012 1034 1033
f 1004 1011 1032
f 1011 1012 1033
f 1012 1013 1034
f 1020 1021 1079
f 1021 1032 1087
f 1032 1033 1088
f 1033 1034 1091
f 1077 1020 1079
f 1021 1087 1079
f 1032 1088 1087
f 1033 1091 1088
f 6 43 7
f 6 7 10
f 6 10 42
f 10 7 11
f 10 11 110
f 6 42 44
f 6 44 43
f 69 72 71
f 69 70 72
f 70 121 72
f 308 71 72
f 42 10 111
f 10 112 111
f 10 114 112
f 112 114 113
f 10 437 114
f 114 137 115
f 115 137 123
f 123 137 124
f 124 137 126
f 114 437 137
f 126 137 127
f 127 137 129
f 129 137 130
f 130 137 131
f 131 137 133
f 121 122 72
f 122 218 72
f 72 218 543
f 72 543 544
f 44 312 43
f 44 45 304
f 45 46 302
f 44 304 303
f 45 302 304
f 46 308 302
f 44 303 312
f 46 50 308
f 50 51 308
f 51 52 308
f 303 313 312
f 52 71 308
f 308 72 309
f 309 72 310
f 310 72 321
f 321 364 326
f 326 364 327
f 321 72 364
f 72 544 364
f 327 364 548
f 313 425 312
f 313 427 425
f 10 110 428
f 427 110 425
f 426 110 427
f 10 429 430
f 10 430 442
f 10 442 443
f 10 443 445
f 10 445 446
f 10 446 448
f 10 428 429
f 426 428 110
f 10 448 437
f 437 448 449
f 437 449 450
f 437 450 451
f 327 548 433
f 433 548 434
f 137 437 223
f 437 551 223
f 544 548 364
f 543 223 544
f 544 223 551
f 294 293 368
f 294 296 293
f 294 297 296
f 294 379 297
f 297 636 296
f 335 368 334
f 335 336 368
f 361 365 363
f 361 362 365
f 362 467 365
f 375 363 365
f 336 369 368
f 336 337 371
f 337 338 370
f 336 371 369
f 337 370 371
f 338 375 370
f 369 294 368
f 338 342 375
f 342 343 375
f 343 344 375
f 369 379 294
f 344 363 375
f 375 365 376
f 376 365 377
f 377 365 387
f 387 424 392
f 392 424 393
f 387 365 424
f 365 761 424
f 393 424 765
f 335 334 457
f 457 334 456
f 457 456 636
f 457 636 458
f 458 460 459
f 458 636 460
f 460 483 461
f 461 483 469
f 469 483 470
f 470 483 472
f 460 648 483
f 472 483 473
f 473 483 475
f 475 483 476
f 476 483 477
f 477 483 478
f 467 468 365
f 468 566 365
f 365 566 760
f 365 760 761
f 379 638 297
f 637 636 297
f 460 636 648
f 637 639 636
f 639 640 636
f 640 641 636
f 641 653 636
f 653 654 636
f 654 656 636
f 656 657 636
f 637 297 638
f 657 659 636
f 659 648 636
f 659 660 648
f 648 660 661
f 648 661 662
f 393 765 644
f 644 765 645
f 483 648 571
f 648 768 571
f 761 765 424
f 760 571 761
f 761 571 768
