# MAAS exact compiled indexed mesh
# program_hash 04da64343a98c01061e832e60ebd3d2d32f5a5e140daf4680225f675bd65b342
# geometry_hash f990d5cb2d430b275d705ec6e94ae9fad9a6899452105b05aacafbfa64354987
v -8.82712648 -10.23646992 1.67747563
v -11.96017742 -9.86691373 3.19425993
v -13.2399254 -9.05406402 4.68674688
v -8.45757029 -13.36952087 3.19425993
v -7.64472057 -14.64926884 4.68674688
v -10.81063433 -12.21997778 4.68674688
v -11.96017742 -5.78804133 1.80348351
v -13.2399254 -1.41087209 2.08064153
v -8.45757029 -5.78804133 0.60919672
v -10.81063433 -1.41087209 1.00115736
v -7.64472057 -1.41087209 0.17284001
v -14.08194511 -5.6189241 3.25192397
v -14.7670416 -5.36727936 4.68674688
v -14.7670416 -1.41087209 3.33772748
v -15.2879125 -1.41087209 4.68674688
v -6.42092325 -10.03657298 1.09963199
v -6.42092325 -11.93117113 1.74563466
v -6.42092325 -13.36952087 2.49982274
v -6.42092325 -14.38677662 3.22190626
v -6.42092325 -14.94924541 4.17557922
v -6.42092325 -15.15618229 4.68674688
v -6.42092325 -7.82468837 0.60919672
v -6.42092325 -5.70696013 0.2623422
v -6.42092325 -2.9100258 0.07055676
v -6.42092325 -1.41087209 -2.67e-06
v -11.96017742 -9.86691373 6.17923382
v -8.45757029 -13.36952087 6.17923382
v -8.82712648 -10.23646992 7.69601812
v -14.08194511 -5.6189241 6.12156978
v -14.7670416 -1.41087209 6.03576627
v -13.2399254 -1.41087209 7.29285222
v -11.96017742 -5.78804133 7.57001024
v -8.45757029 -5.78804133 8.76429703
v -10.81063433 -1.41087209 8.37233639
v -7.64472057 -1.41087209 9.20065374
v -6.42092325 -14.94924541 5.19791453
v -6.42092325 -14.38677662 6.15158749
v -6.42092325 -13.36952087 6.87367101
v -6.42092325 -11.93117113 7.62785909
v -6.42092325 -10.03657298 8.27386176
v -6.42092325 -7.82468837 8.76429703
v -6.42092325 -5.70696013 9.11115155
v -6.42092325 -2.9100258 9.30293699
v -6.42092325 -1.41087209 9.37349642
v -11.96017742 2.96629716 1.80348351
v -8.45757029 2.96629716 0.60919672
v -8.82712648 7.41472575 1.67747563
v -14.08194511 2.79717993 3.25192397
v -14.7670416 2.54553519 4.68674688
v -11.96017742 7.04516956 3.19425993
v -13.2399254 6.23231985 4.68674688
v -8.45757029 10.5477767 3.19425993
v -10.81063433 9.39823361 4.68674688
v -7.64472057 11.82752467 4.68674688
v -6.42092325 0.08828163 0.07055676
v -6.42092325 2.88521596 0.2623422
v -6.42092325 5.0029442 0.60919672
v -6.42092325 7.01413131 1.05513187
v -4.40973614 7.01413131 0.60919672
v -4.37746222 7.01413131 0.6039107
v -4.37869789 7.04516956 0.60919672
v -4.21155791 7.01413131 0.59253466
v -0.00152864 7.01413131 0.37739012
v -4.37869789 10.5477767 1.80348351
v -0.00152864 9.39823361 1.00115736
v -0.00152864 11.82752467 2.08064153
v -4.20958065 12.66954439 3.25192397
v -3.95793591 13.35464088 4.68674688
v -0.00152864 13.35464088 3.33772748
v -0.00152864 13.87551178 4.68674688
v -14.08194511 2.79717993 6.12156978
v -11.96017742 7.04516956 6.17923382
v -11.96017742 2.96629716 7.57001024
v -8.45757029 2.96629716 8.76429703
v -8.82712648 7.41472575 7.69601812
v -8.45757029 10.5477767 6.17923382
v -6.42092325 0.08828163 9.30293699
v -6.42092325 2.88521596 9.11115155
v -6.42092325 7.01413131 8.31836188
v -6.42092325 5.0029442 8.76429703
v -4.40973614 7.01413131 8.76429703
v -4.37869789 7.04516956 8.76429703
v -4.37746222 7.01413131 8.76958305
v -4.21155791 7.01413131 8.78095909
v -0.15325571 7.01413131 8.98834994
v -0.15325571 7.01413131 9.9
v -4.20958065 12.66954439 6.12156978
v -1.82729569 12.19285567 6.78466247
v -1.56174628 11.37136562 7.39164365
v -0.00152864 13.45950552 5.76417413
v -0.65510568 13.24823456 6.04909291
v -0.32593253 13.35464088 5.92515401
v -2.02527746 12.80532194 6.25799849
v -4.37869789 10.5477767 7.57001024
v -1.00949461 9.66294814 8.1875783
v -0.78736692 8.97578528 8.44270554
v -2.02527746 12.80532194 9.9
v 6.42092325 -10.03682696 1.10036619
v 6.42092325 -11.92901787 1.74554806
v 6.42092325 -13.36952087 2.50086519
v 6.42092325 -14.38524958 3.22186475
v 6.42092325 -14.94849601 4.17685621
v 6.42092325 -16.70031323 4.68570443
v 6.42092325 -15.15449391 4.68570443
v 7.63916756 -14.6498806 4.68570443
v 7.64223104 -14.64837499 4.68570443
v 6.42092325 -7.82163109 0.60919672
v 6.42092325 -5.70708184 0.26286288
v 6.42092325 -2.90628063 0.07081228
v 6.42092325 -1.41087209 0.00042912
v 7.64166329 -1.41087209 0.17284001
v 6.42092325 -1.41087209 4.68674688
v 6.42092325 -0.52961743 4.68674688
v 8.8240692 -10.23646992 1.67747563
v 8.45451301 -13.36952087 3.19425993
v 10.80593353 -12.22078069 4.68570443
v 10.80837996 -12.21833426 4.68570443
v 15.2879125 -16.70031323 4.68570443
v 11.95712014 -9.86691373 3.19425993
v 13.23597427 -9.05463176 4.68570443
v 13.23747987 -9.05156828 4.68570443
v 8.45451301 -5.78804133 0.60919672
v 10.80757705 -1.41087209 1.00115736
v 11.95712014 -5.78804133 1.80348351
v 13.23686812 -1.41087209 2.08064153
v 14.07888784 -5.6189241 3.25192397
v 14.76348658 -5.36746219 4.68570443
v 14.76398433 -5.36422208 4.68570443
v 14.76398433 -1.41087209 3.33772748
v 15.2879125 -1.41087209 4.68570443
v 15.28485523 -1.41087209 4.68674688
v 15.28445273 -1.41087209 4.68570443
v 6.42092325 -16.70031323 9.9
v 6.42092325 -1.41087209 9.9
v 6.42092325 -0.52961743 9.9
v 15.2879125 -16.70031323 9.9
v 15.2879125 -1.41087209 9.9
v 6.42092325 0.08453646 0.07081228
v 6.42092325 2.88533767 0.26286288
v 4.20850063 7.01413131 0.59253466
v 4.37440494 7.01413131 0.6039107
v 4.37564061 7.04516956 0.60919672
v 4.40667886 7.01413131 0.60919672
v 6.42092325 4.99988692 0.60919672
v 6.42092325 7.01413131 1.05580975
v 4.37564061 10.5477767 1.80348351
v 0.91207527 13.75483105 4.68570443
v 0.91296006 13.75511706 4.68674688
v 7.63916756 11.82813643 4.68570443
v 7.64223104 11.82663082 4.68570443
v 4.20652338 12.66954439 3.25192397
v 3.95182136 13.35464088 4.68570443
v 3.95506146 13.35414314 4.68570443
v 8.45451301 2.96629716 0.60919672
v 8.8240692 7.41472575 1.67747563
v 11.95712014 2.96629716 1.80348351
v 14.07888784 2.79717993 3.25192397
v 14.72589096 2.15499118 4.68674688
v 14.76398433 2.54553519 4.68674688
v 11.95712014 7.04516956 3.19425993
v 13.23747987 6.22982411 4.68570443
v 13.23597427 6.23288759 4.68570443
v 14.01562375 4.35223744 4.68674688
v 14.0171235 4.3475979 4.68570443
v 8.45451301 10.5477767 3.19425993
v 10.80593353 9.39903652 4.68570443
v 10.80837996 9.39659008 4.68570443
v 10.02406704 16.70031288 4.68570443
v 6.42092325 7.01413131 9.9
v 14.72589096 2.15499118 9.9
v 10.02406704 16.70031288 9.9
f 1 2 7
f 1 18 4
f 2 6 3
f 4 5 6
f 1 4 2
f 2 4 6
f 7 12 8
f 7 8 10
f 7 10 9
f 1 9 22
f 1 7 9
f 9 10 11
f 2 12 7
f 2 3 12
f 3 13 12
f 8 12 14
f 8 14 48
f 12 13 14
f 13 15 14
f 14 15 49
f 1 22 16
f 1 16 17
f 1 17 18
f 4 18 19
f 4 19 20
f 5 20 21
f 5 21 36
f 4 20 5
f 9 23 22
f 9 24 23
f 9 11 24
f 11 25 24
f 11 55 25
f 3 6 26
f 5 27 6
f 6 27 26
f 26 27 28
f 26 28 32
f 27 38 28
f 3 29 13
f 3 26 29
f 26 32 29
f 29 32 31
f 13 30 15
f 13 29 30
f 15 30 49
f 29 31 30
f 30 31 71
f 31 32 34
f 28 33 32
f 32 33 34
f 28 41 33
f 33 35 34
f 5 36 27
f 27 36 37
f 27 37 38
f 28 38 39
f 28 39 40
f 28 40 41
f 33 41 42
f 33 42 43
f 33 43 35
f 35 43 44
f 35 44 77
f 8 45 10
f 8 48 45
f 10 45 46
f 11 10 46
f 46 47 57
f 45 47 46
f 45 50 47
f 14 49 48
f 48 49 51
f 45 48 50
f 48 51 50
f 50 51 53
f 47 50 52
f 50 53 52
f 52 53 54
f 11 46 55
f 46 56 55
f 46 57 56
f 47 58 57
f 47 61 58
f 61 60 59
f 61 62 60
f 61 59 58
f 47 64 61
f 61 65 62
f 65 63 62
f 47 52 64
f 61 64 65
f 64 67 66
f 64 66 65
f 52 54 67
f 52 67 64
f 54 68 67
f 66 67 69
f 67 68 69
f 68 70 69
f 30 71 49
f 49 71 51
f 31 73 71
f 51 71 72
f 51 72 53
f 71 73 72
f 72 73 75
f 72 75 76
f 31 34 73
f 34 74 73
f 34 35 74
f 73 74 75
f 74 80 75
f 53 72 76
f 53 76 54
f 35 77 74
f 74 77 78
f 74 78 80
f 75 82 94
f 75 80 79
f 75 79 82
f 82 79 81
f 82 81 83
f 82 83 84
f 82 84 85
f 82 85 96
f 54 76 87
f 75 94 76
f 76 94 87
f 54 87 68
f 87 94 88
f 88 94 89
f 68 87 92
f 87 93 91
f 68 90 70
f 68 92 90
f 87 91 92
f 87 88 93
f 82 95 94
f 82 96 95
f 94 95 89
f 114 98 107
f 114 99 98
f 114 100 99
f 115 101 100
f 115 102 101
f 105 104 102
f 105 102 115
f 122 107 108
f 122 108 109
f 111 122 109
f 111 109 110
f 111 110 138
f 114 115 100
f 114 124 119
f 105 115 106
f 106 115 116
f 114 119 115
f 115 119 116
f 116 119 117
f 117 119 120
f 119 121 120
f 114 107 122
f 122 123 124
f 114 122 124
f 111 123 122
f 124 125 126
f 123 125 124
f 119 124 126
f 119 126 121
f 121 126 127
f 126 128 127
f 125 129 126
f 125 157 129
f 126 129 128
f 128 129 132
f 129 159 132
f 131 132 159
f 65 142 63
f 142 140 63
f 111 138 154
f 154 138 139
f 154 139 144
f 142 141 140
f 142 143 141
f 142 145 143
f 142 155 145
f 155 144 145
f 142 146 155
f 65 146 142
f 65 66 146
f 66 151 146
f 146 165 155
f 66 69 151
f 69 70 147
f 69 147 152
f 70 148 147
f 69 152 151
f 146 151 165
f 149 165 151
f 151 152 153
f 149 151 153
f 111 154 123
f 123 154 156
f 154 144 155
f 154 155 156
f 155 160 156
f 123 156 125
f 125 156 157
f 155 165 160
f 129 157 159
f 157 164 159
f 159 164 163
f 156 160 157
f 157 160 161
f 160 167 162
f 160 162 161
f 157 161 164
f 160 165 167
f 149 150 165
f 150 166 165
f 165 166 167
f 70 90 148
f 131 113 112
f 131 158 113
f 131 159 158
f 158 159 163
f 96 85 86
f 93 97 91
f 92 91 97
f 90 92 97
f 88 89 97
f 95 97 89
f 96 86 97
f 95 96 97
f 88 97 93
f 147 168 152
f 147 148 168
f 152 168 153
f 149 153 168
f 162 167 168
f 166 168 167
f 149 168 150
f 150 168 166
f 161 162 168
f 163 164 168
f 161 168 164
f 97 169 170
f 90 171 148
f 148 171 168
f 97 86 169
f 90 97 171
f 97 170 171
f 158 170 113
f 158 163 170
f 163 168 170
f 170 135 113
f 170 169 135
f 168 171 170
f 118 103 104
f 105 118 104
f 105 106 118
f 106 116 118
f 116 117 118
f 117 120 118
f 118 120 121
f 118 121 127
f 118 127 128
f 118 128 130
f 128 132 130
f 130 132 131
f 118 136 103
f 118 130 136
f 136 133 103
f 136 137 133
f 131 112 134
f 130 131 137
f 137 134 133
f 130 137 136
f 131 134 137
f 18 40 19
f 18 17 41
f 16 22 43
f 22 23 43
f 16 43 17
f 24 43 23
f 24 25 77
f 25 55 77
f 19 40 20
f 20 40 21
f 36 21 40
f 36 40 37
f 37 40 38
f 18 41 40
f 17 42 41
f 38 40 39
f 17 43 42
f 24 44 43
f 24 77 44
f 55 56 80
f 56 57 80
f 57 58 79
f 59 79 58
f 60 62 81
f 59 60 81
f 55 78 77
f 55 80 78
f 57 79 80
f 59 81 79
f 62 83 81
f 62 84 83
f 62 85 84
f 100 112 99
f 100 101 112
f 102 112 101
f 98 112 107
f 107 112 108
f 108 112 109
f 109 112 110
f 110 112 138
f 98 99 112
f 112 113 138
f 104 103 133
f 102 104 134
f 104 133 134
f 102 134 112
f 138 113 139
f 139 113 144
f 144 113 145
f 141 143 145
f 63 169 62
f 63 140 169
f 140 141 169
f 141 145 169
f 62 169 85
f 113 169 145
f 85 169 86
f 113 135 169
