# MAAS exact compiled indexed mesh
# program_hash c3f9bf5612d01de2756f333bce81a674c6ad92f6e016f25bd816bc1fbbc119f7
# geometry_hash 6868b3377b5d37f355897e00f024f008023fd2e02cef04b6cb3277bcf9cc1a50
v -14.72667248 -13.29234606 0
v -15.35964134 -9.4945329 3.57165354
v -14.72667248 -9.4945329 3.57165354
v -14.72667248 -13.29234606 3.68503937
v -14.72667248 -9.4945329 3.68503937
v -5.86510845 -13.29234606 0
v -5.86510845 -9.4945329 3.57165354
v -5.23213959 -9.4945329 3.57165354
v -5.86510845 -13.29234606 3.68503937
v -5.86510845 -9.4945329 3.68503937
v -5.23213959 -8.48178272 7.14330709
v -15.35964134 -9.4945329 7.25669291
v -13.46073476 -8.48178272 7.25669291
v -13.46073476 -8.48178272 10.82834646
v -12.8277659 -5.06375088 10.82834646
v -12.8277659 -5.06375088 14.4
v -5.23213959 -9.4945329 7.25669291
v -5.23213959 -8.48178272 7.25669291
v -5.23213959 -8.48178272 10.82834646
v -5.86510845 -5.06375088 10.82834646
v -5.86510845 -5.06375088 14.4
v -15.35964134 5.69671974 3.57165354
v -14.72667248 5.69671974 3.57165354
v -14.72667248 5.69671974 3.68503937
v -8.39698388 5.69671974 7.14330709
v -14.72667248 13.29234606 0
v -7.76401502 13.29234606 0
v -14.72667248 13.29234606 3.68503937
v -7.76401502 13.29234606 3.68503937
v -8.39698388 12.6593772 7.14330709
v -5.86510845 5.06375088 0
v -5.86510845 5.06375088 3.57165354
v -5.23213959 5.06375088 3.57165354
v -5.23213959 2.2786879 7.14330709
v -5.86510845 5.69671974 3.68503937
v -5.23213959 5.06375088 3.68503937
v -5.23213959 5.69671974 3.68503937
v -5.23213959 5.69671974 7.14330709
v -1.36821333 5.12986398 7.14330709
v -1.36821333 5.69671974 7.14330709
v -1.36821333 6.2635755 7.14330709
v -0.23450181 5.12986398 7.14330709
v -0.23450181 5.69671974 7.14330709
v -0.23450181 6.2635755 7.14330709
v -5.86510845 12.21905103 0
v -5.86510845 12.21905103 3.68503937
v -13.46073476 2.2786879 7.25669291
v -15.35964134 5.69671974 7.25669291
v -8.39698388 5.69671974 7.25669291
v -13.46073476 2.2786879 10.82834646
v -12.8277659 1.89890658 10.82834646
v -12.8277659 1.89890658 14.4
v -8.39698388 5.69671974 10.82834646
v -8.39698388 12.6593772 10.82834646
v -5.23213959 2.2786879 7.25669291
v -5.23213959 5.69671974 7.25669291
v -1.36821333 5.12986398 7.25669291
v -1.36821333 5.69671974 7.25669291
v -0.80135757 5.69671974 7.25669291
v -0.68198855 5.69776599 7.25669291
v -0.23450181 5.12986398 7.25669291
v -0.23450181 5.69920388 7.2
v -0.23450181 5.69920388 7.20841285
v -0.23450181 5.69671974 7.2
v -0.23450181 5.69966376 7.25669291
v -5.86510845 1.89890658 10.82834646
v -5.23213959 2.2786879 10.82834646
v -5.86510845 1.89890658 14.4
v -0.80135757 5.69671974 10.82834646
v -0.80135757 12.6593772 7.2
v -0.80135757 12.6593772 10.82834646
v 3.62942445 -11.39343948 0
v 3.62942445 -11.39343948 3.68503937
v 2.99645559 -1.89890658 3.57165354
v 3.62942445 -1.89890658 3.57165354
v 3.62942445 -1.89890658 3.68503937
v 13.12395735 -11.39343948 0
v 13.12395735 -11.39343948 3.68503937
v 13.12395735 -1.89890658 3.57165354
v 13.75692621 -1.89890658 3.57165354
v 13.12395735 -1.89890658 3.68503937
v 2.99645559 -1.89890658 7.25669291
v 13.75692621 -1.89890658 7.25669291
v 3.62942445 5.06375088 0
v 2.99645559 5.06375088 3.57165354
v 3.62942445 5.06375088 3.57165354
v 6.79426875 5.06375088 0
v 2.99645559 5.06375088 3.68503937
v 2.99645559 5.69671974 7.14330709
v 3.62942445 6.85257592 0
v 6.79426875 13.29234606 0
v 2.99645559 12.6593772 3.68503937
v 2.99645559 12.6593772 7.14330709
v 6.79426875 12.6593772 3.68503937
v 6.79426875 13.29234606 3.68503937
v 6.79426875 12.6593772 7.14330709
v 13.12395735 13.29234606 0
v 13.12395735 12.6593772 3.57165354
v 13.75692621 12.6593772 3.57165354
v 13.12395735 12.6593772 3.68503937
v 13.12395735 13.29234606 3.68503937
v 2.99645559 0 7.2
v 2.99645559 0 7.25669291
v 3.21754067 0.07045519 7.2
v 3.21754067 0.07045519 7.21417323
v 3.21754067 0.07045519 7.22834646
v 3.21754067 0.07045519 7.24251969
v 3.21754067 0.07045519 7.25669291
v 3.16762149 1.49376 7.21417323
v 3.16762149 1.49376 7.22834646
v 3.16762149 1.49376 7.24251969
v 3.16762149 1.49376 7.25669291
v 3.11770232 2.9170648 7.21417323
v 3.11770232 2.9170648 7.22834646
v 3.11770232 2.9170648 7.24251969
v 3.11770232 2.9170648 7.25669291
v 0.15363121 5.70090481 7.2
v 0.15363121 5.70090481 7.21417323
v 1.10854662 5.71345969 7.2
v 1.10854662 5.71345969 7.21417323
v 1.10854662 5.71345969 7.22834646
v 1.10854662 5.71345969 8.10708661
v 3.06778314 4.3403696 7.21417323
v 3.06778314 4.3403696 7.22834646
v 3.06778314 4.3403696 7.24251969
v 3.06778314 4.3403696 7.25669291
v 2.06331532 5.73438343 7.2
v 2.06331532 5.73438343 7.21417323
v 2.06331532 5.73438343 7.22834646
v 2.06331532 5.73438343 7.24251969
v 2.99645559 5.69671974 7.2
v 3.01786397 5.76367441 7.2
v 3.01786397 5.76367441 7.21417323
v 3.01786397 5.76367441 7.22834646
v 3.01786397 5.76367441 7.24251969
v 3.01786397 5.76367441 7.25669291
v 2.06331532 5.73438343 8.12125984
v 3.01786397 5.76367441 8.13543307
v 1.10854662 5.71345969 9.01417323
v 1.10854662 5.71345969 9.92125984
v 3.01786397 5.76367441 9.01417323
v 3.01786397 5.76367441 9.92125984
v 6.06156229 0.20557623 7.2
v 6.06156229 0.20557623 7.21417323
v 6.06156229 0.20557623 7.22834646
v 6.06156229 0.20557623 7.24251969
v 6.06156229 0.20557623 7.25669291
v 5.97631721 1.62720268 7.25669291
v 5.89107213 3.04882913 7.25669291
v 5.95083611 3.05754092 7.34513386
v 5.95083611 3.05754092 7.39729134
v 7.59054917 2.60662939 7.34513386
v 7.59054917 2.60662939 7.35817323
v 7.59054917 2.60662939 7.3712126
v 7.59054917 2.60662939 7.38425197
v 7.59054917 2.60662939 7.39729134
v 3.97211923 5.80133038 7.25669291
v 4.75088117 6.1551691 7.2
v 4.9260078 5.84734845 7.25669291
v 5.63870058 6.3780956 7.2
v 3.97211923 5.80133038 8.1496063
v 4.9260078 5.84734845 8.1496063
v 5.80582705 4.47045558 7.25669291
v 6.77130962 4.53259626 7.25669291
v 7.55142023 4.90641437 7.2
v 5.87945641 5.90172509 7.25669291
v 6.47230777 6.5741582 7.2
v 6.74550459 5.50327904 7.39729134
v 7.18558324 5.72874313 7.34513386
v 7.67220312 5.29417004 7.34513386
v 7.30204367 5.4891777 7.39729134
v 7.62138933 5.45055878 7.34513386
v 6.83239182 5.96445612 7.25669291
v 6.82695061 6.02606574 7.2
v 7.07695956 6.52339253 7.34513386
v 7.35589809 6.2676568 7.34513386
v 7.27056742 6.53027759 7.34513386
v 5.87945641 5.90172509 8.1496063
v 6.83239182 5.96445612 8.1496063
v 3.97211923 5.80133038 9.02834646
v 4.9260078 5.84734845 9.04251969
v 4.9260078 5.84734845 9.92125984
v 5.87945641 5.90172509 9.04251969
v 6.83239182 5.96445612 9.04251969
v 5.87945641 5.90172509 9.93543307
v 6.83239182 5.96445612 9.93543307
v 1.10854662 5.71345969 10.82834646
v 3.01786397 5.76367441 10.82834646
v 4.9260078 5.84734845 10.82834646
v 6.83239182 5.96445612 10.82834646
v 0.98650322 12.67504746 7.2
v 0.98650322 12.67504746 7.21417323
v 0.98650322 12.67504746 8.12125984
v 2.85036257 12.6593772 7.2
v 2.77381467 12.72205344 7.2
v 2.77381467 12.72205344 7.21417323
v 2.77381467 12.72205344 7.22834646
v 2.77381467 12.72205344 8.13543307
v 0.98650322 12.67504746 9.02834646
v 0.98650322 12.67504746 9.93543307
v 2.77381467 12.72205344 9.04251969
v 2.77381467 12.72205344 9.93543307
v 6.26509975 7.33758151 7.2
v 6.71044215 7.70084338 7.25669291
v 7.17488204 6.82476693 7.34513386
v 7.17488204 6.82476693 7.39729134
v 7.54566508 7.96591979 7.34513386
v 6.71044215 7.70084338 8.1496063
v 6.66086516 8.40674822 7.34513386
v 6.66086516 8.40674822 7.39729134
v 6.58849248 9.43723063 7.25669291
v 6.41307036 9.74228689 7.2
v 7.62764486 8.82400494 7.34513386
v 7.2336298 9.63994509 7.39729134
v 6.58849248 9.43723063 8.1496063
v 6.71044215 7.70084338 9.04251969
v 6.71044215 7.70084338 9.93543307
v 6.58849248 9.43723063 9.04251969
v 6.58849248 9.43723063 9.93543307
v 4.56002759 12.80038069 7.2
v 4.56002759 12.80038069 7.21417323
v 4.56002759 12.80038069 7.22834646
v 4.56002759 12.80038069 7.24251969
v 4.56002759 12.80038069 8.1496063
v 6.51066833 10.54533425 7.34513386
v 6.51066833 10.54533425 7.39729134
v 6.46654281 11.17361789 7.25669291
v 6.75205584 10.63720527 7.34513386
v 6.75205584 10.63720527 7.35817323
v 6.75205584 10.63720527 7.3712126
v 6.75205584 10.63720527 7.38425197
v 6.75205584 10.63720527 7.39729134
v 6.46654281 11.17361789 8.1496063
v 6.50253191 12.6593772 7.2
v 6.34459315 12.91000515 7.2
v 6.34459315 12.91000515 7.21417323
v 6.34459315 12.91000515 7.22834646
v 6.34459315 12.91000515 7.24251969
v 6.34459315 12.91000515 7.25669291
v 6.79426875 12.6593772 7.2
v 6.34459315 12.91000515 8.1496063
v 4.56002759 12.80038069 9.04251969
v 4.56002759 12.80038069 9.93543307
v 6.46654281 11.17361789 9.04251969
v 6.46654281 11.17361789 9.93543307
v 6.34459315 12.91000515 9.04251969
v 6.34459315 12.91000515 9.93543307
v 1.07803577 7.45385663 10.82834646
v 1.04752492 9.19425358 10.82834646
v 2.95685164 7.50326916 10.82834646
v 2.89583932 9.24286392 10.82834646
v 1.01701407 10.93465052 10.82834646
v 0.98650322 12.67504746 10.82834646
v 2.83482699 10.98245868 10.82834646
v 2.77381467 12.72205344 10.82834646
v 4.83451275 7.58560651 10.82834646
v 4.74301769 9.32386457 10.82834646
v 6.71044215 7.70084338 10.82834646
v 6.58849248 9.43723063 10.82834646
v 4.65152264 11.06212263 10.82834646
v 4.56002759 12.80038069 10.82834646
v 6.46654281 11.17361789 10.82834646
v 6.34459315 12.91000515 10.82834646
v 8.27793423 0.36611722 7.2
v 8.27793423 0.36611722 7.25669291
v 8.38236597 3.1085135 7.34513386
v 8.27793423 3.22171942 7.2
v 8.67709788 2.92609765 7.34513386
v 10.33965201 1.89710749 7.34513386
v 10.33965201 1.89710749 7.35817323
v 10.33965201 1.89710749 7.3712126
v 10.33965201 1.89710749 7.38425197
v 10.33965201 1.89710749 7.39729134
v 10.46834387 2.79709255 7.34513386
v 10.46834387 2.79709255 7.39729134
v 11.42815639 2.5602971 7.39729134
v 7.75338795 3.4978014 7.34513386
v 7.75338795 3.4978014 7.39729134
v 8.30187431 3.35624137 7.34513386
v 8.38637022 3.33443363 7.34513386
v 7.91622672 4.3889734 7.34513386
v 7.91622672 4.3889734 7.39729134
v 7.97101061 4.37453513 7.39729134
v 7.73621047 4.6031965 7.25669291
v 8.06868759 4.94009185 7.34513386
v 8.27793423 4.60836964 7.2
v 8.27793423 4.97226185 7.25669291
v 8.88916697 3.78210277 7.34513386
v 8.98211913 4.03909395 7.39729134
v 9.00517439 4.10283642 7.39729134
v 9.38644203 3.76327879 7.34513386
v 9.55429701 3.96138435 7.39729134
v 9.31434043 4.95760891 7.34513386
v 7.72882076 5.11991884 7.39729134
v 8.0177481 5.1975545 7.34513386
v 7.92963704 5.32065646 7.39729134
v 8.27695682 5.20259078 7.39729134
v 8.21622241 5.47889641 7.34513386
v 8.24329364 5.48050963 7.39729134
v 8.31427706 6.56739386 7.34513386
v 8.79652629 5.4333996 7.39729134
v 9.2939476 5.69390293 7.34513386
v 9.4925323 6.43455386 7.39729134
v 9.83452941 3.87407096 7.39729134
v 9.81176953 3.92147911 7.39729134
v 9.62858331 4.04905842 7.39729134
v 9.70641886 4.14092138 7.34513386
v 10.09849728 3.32423385 7.34513386
v 10.70066085 4.21473221 7.39729134
v 11.3999248 4.80897485 7.39729134
v 9.78661077 5.77627841 7.39729134
v 10.2993163 5.73611872 7.39729134
v 10.14699429 6.08983968 7.34513386
v 10.58436281 5.34458215 7.34513386
v 10.87569331 6.17385961 7.39729134
v 13.09514375 1.23226536 7.34513386
v 13.09514375 1.23226536 7.35817323
v 13.09514375 1.23226536 7.3712126
v 13.09514375 1.23226536 7.38425197
v 13.09514375 1.23226536 7.39729134
v 13.30506731 3.25058343 7.34513386
v 13.30506731 3.25058343 7.35817323
v 13.30506731 3.25058343 7.3712126
v 13.30506731 3.25058343 7.38425197
v 13.30506731 3.25058343 7.39729134
v 13.75692621 0 7.2
v 13.75692621 0 7.25669291
v 11.57069192 3.66391892 7.34513386
v 11.7356851 4.94142543 7.39729134
v 12.00142841 4.31129898 7.39729134
v 12.47378351 4.86896933 7.39729134
v 12.64724453 4.32966253 7.34513386
v 11.79446805 5.39656911 7.34513386
v 11.82984744 5.67050406 7.34513386
v 11.82442004 5.62848083 7.39729134
v 12.07005475 5.27647287 7.34513386
v 11.59901001 6.07585299 7.34513386
v 11.89777441 6.19644787 7.34513386
v 11.68480927 6.4758178 7.39729134
v 13.18258793 5.54536631 7.39729134
v 13.31632908 5.60439865 7.34513386
v 12.75935849 6.54500249 7.34513386
v 13.45166968 4.66009755 7.34513386
v 13.45166968 4.66009755 7.39729134
v 13.48302102 5.27652054 7.34513386
v 13.50357391 5.27839717 7.39729134
v 13.51609744 5.27954066 7.39729134
v 13.60100079 6.0958472 7.39729134
v 15.35963875 5.44786951 7.34513386
v 15.35963875 5.44786951 7.35817323
v 15.35963875 5.44786951 7.3712126
v 15.35963875 5.44786951 7.38425197
v 15.35963875 5.44786951 7.39729134
v 8.1256115 7.11520205 7.34513386
v 8.54031386 6.93401809 7.39729134
v 8.23477574 7.87995195 7.34513386
v 8.57390853 7.61172498 7.39729134
v 8.66114266 7.60392989 7.39729134
v 9.00922532 8.17019066 7.34513386
v 9.23629211 7.75501092 7.34513386
v 9.45443099 7.53304304 7.39729134
v 7.71520376 8.64268491 7.39729134
v 8.25095435 9.88486182 7.2
v 8.27793423 9.96180361 7.2
v 8.76277135 8.48228631 7.39729134
v 8.84022252 8.59680334 7.39729134
v 8.93480062 9.12117326 7.39729134
v 8.9766627 9.35326944 7.34513386
v 9.04527447 9.73367408 7.34513386
v 9.04527447 9.73367408 7.39729134
v 9.25257664 9.33051102 7.39729134
v 10.32542846 7.24401946 7.39729134
v 10.06330759 7.75379443 7.39729134
v 9.80669074 8.25286511 7.34513386
v 9.9298272 8.01338824 7.39729134
v 10.37044127 7.53517935 7.34513386
v 10.40526362 7.76042345 7.34513386
v 10.40469117 7.75672065 7.39729134
v 11.26490563 6.66253797 7.34513386
v 10.91986194 7.96841733 7.34513386
v 9.6185053 8.61884979 7.39729134
v 9.90820847 9.1175987 7.34513386
v 9.63352605 9.23143537 7.39729134
v 9.64237237 9.6197344 7.34513386
v 10.56887862 8.81874723 7.34513386
v 10.94593898 9.12245843 7.39729134
v 11.12827887 8.84850655 7.39729134
v 11.47155061 8.76296964 7.39729134
v 11.43071462 9.31648211 7.39729134
v 8.21464562 10.02483017 7.39729134
v 8.57136567 10.65533604 7.39729134
v 8.12836313 11.30375571 7.25669291
v 8.27371798 11.23420386 7.34513386
v 8.27371798 11.23420386 7.35817323
v 8.27371798 11.23420386 7.3712126
v 8.27371798 11.23420386 7.38425197
v 8.27371798 11.23420386 7.39729134
v 8.68478309 10.10193117 7.39729134
v 8.64545158 10.19384966 7.39729134
v 8.97016484 10.54725824 7.39729134
v 9.16592712 10.4026092 7.39729134
v 9.30355898 10.45823819 7.39729134
v 7.97852942 13.03795936 7.2
v 7.97852942 13.03795936 7.21417323
v 7.97852942 13.03795936 7.22834646
v 7.97852942 13.03795936 7.24251969
v 7.97852942 13.03795936 7.25669291
v 8.27793423 12.6593772 7.2
v 8.27793423 13.06625285 7.2
v 8.27793423 13.06625285 7.25669291
v 10.32108039 10.86950696 7.39729134
v 10.76130642 10.06344302 7.34513386
v 10.76272666 10.0726297 7.34513386
v 10.76130642 10.06344302 7.39729134
v 10.71113591 10.09216176 7.34513386
v 10.75133115 10.08170796 7.34513386
v 10.75133115 10.08170796 7.39729134
v 9.78770143 11.84613606 7.34513386
v 9.78770143 11.84613606 7.35817323
v 9.78770143 11.84613606 7.3712126
v 9.78770143 11.84613606 7.38425197
v 9.78770143 11.84613606 7.39729134
v 11.29361527 12.47284388 7.34513386
v 11.29361527 12.47284388 7.35817323
v 11.29361527 12.47284388 7.3712126
v 11.29361527 12.47284388 7.38425197
v 11.29361527 12.47284388 7.39729134
v 11.991865 6.92497096 7.39729134
v 11.75433555 8.28346936 7.34513386
v 11.74421213 8.30181187 7.34513386
v 12.08433513 7.64094715 7.34513386
v 12.06075174 7.68412887 7.34513386
v 12.08433513 7.64094715 7.39729134
v 12.53773416 6.81076313 7.39729134
v 12.76873118 8.10087857 7.39729134
v 12.26373965 9.03003757 7.39729134
v 11.75429177 9.83165483 7.39729134
v 12.87232028 8.77129038 7.34513386
v 13.14108226 8.97252065 7.39729134
v 12.57782615 9.28390255 7.34513386
v 12.99754996 9.52891167 7.34513386
v 12.99754996 9.52891167 7.39729134
v 13.61690942 7.24387344 7.39729134
v 14.34313288 7.2041131 7.34513386
v 14.34313288 7.2041131 7.35817323
v 14.34313288 7.2041131 7.3712126
v 14.34313288 7.2041131 7.38425197
v 14.34313288 7.2041131 7.39729134
v 13.81175825 8.12218285 7.34513386
v 13.81175825 8.12218285 7.39729134
v 13.93483799 9.30553765 7.34513386
v 13.93483799 9.30553765 7.35817323
v 13.93483799 9.30553765 7.3712126
v 13.93483799 9.30553765 7.38425197
v 13.93483799 9.30553765 7.39729134
v 12.31012114 10.71660028 7.34513386
v 12.31012114 10.71660028 7.35817323
v 12.31012114 10.71660028 7.3712126
v 12.31012114 10.71660028 7.38425197
v 12.31012114 10.71660028 7.39729134
v 13.75692621 12.6593772 7.2
f 1 6 4
f 1 4 3
f 4 6 9
f 3 4 5
f 4 9 5
f 5 9 10
f 1 26 6
f 1 3 23
f 6 7 9
f 7 10 9
f 6 31 7
f 1 23 28
f 1 28 26
f 6 26 31
f 26 28 27
f 26 27 31
f 27 28 29
f 23 24 28
f 24 35 28
f 28 35 29
f 7 31 32
f 27 45 31
f 29 35 46
f 72 77 73
f 73 78 76
f 72 73 84
f 73 75 84
f 72 84 87
f 73 76 75
f 73 77 78
f 72 87 77
f 77 97 78
f 76 78 81
f 78 79 81
f 75 86 84
f 84 90 87
f 77 87 97
f 78 97 79
f 87 91 97
f 91 95 97
f 95 101 97
f 79 97 98
f 97 101 98
f 94 100 95
f 95 100 101
f 98 101 100
f 31 84 32
f 32 84 33
f 33 88 36
f 31 45 90
f 27 91 45
f 27 29 95
f 35 37 46
f 36 92 37
f 37 92 46
f 29 46 95
f 31 90 84
f 33 84 85
f 84 86 85
f 33 85 88
f 45 91 90
f 27 95 91
f 87 90 91
f 36 88 92
f 46 92 95
f 92 94 95
f 2 3 5
f 2 5 12
f 5 10 12
f 8 12 10
f 8 17 12
f 2 23 3
f 2 12 48
f 7 8 10
f 7 33 8
f 8 36 17
f 11 17 36
f 11 36 34
f 12 17 13
f 13 17 18
f 12 13 47
f 12 47 48
f 11 18 17
f 2 22 23
f 2 48 22
f 22 24 23
f 22 38 24
f 22 48 25
f 24 38 35
f 22 25 38
f 7 32 33
f 8 33 36
f 35 38 37
f 36 37 38
f 34 36 56
f 36 38 56
f 47 55 48
f 48 55 49
f 25 48 49
f 49 55 56
f 34 56 55
f 74 75 76
f 74 76 82
f 74 82 102
f 76 81 82
f 80 82 81
f 80 83 82
f 79 80 81
f 82 103 102
f 82 83 103
f 83 327 103
f 83 326 327
f 74 86 75
f 74 85 86
f 74 88 85
f 74 102 131
f 74 131 89
f 74 93 88
f 74 89 93
f 88 93 92
f 92 96 94
f 92 93 96
f 96 240 408
f 79 99 80
f 80 99 83
f 83 99 326
f 79 98 99
f 94 461 100
f 94 96 461
f 96 408 461
f 99 461 326
f 98 100 99
f 99 100 461
f 11 34 18
f 13 18 19
f 13 19 14
f 14 19 15
f 13 14 47
f 14 50 47
f 14 15 50
f 15 51 50
f 15 19 20
f 18 34 19
f 19 34 55
f 19 55 67
f 19 67 20
f 20 67 66
f 47 50 55
f 50 67 55
f 50 51 67
f 51 66 67
f 38 40 58
f 38 41 40
f 25 30 38
f 38 93 41
f 30 93 38
f 30 70 93
f 25 49 54
f 49 53 54
f 25 54 30
f 49 56 53
f 38 58 56
f 53 56 69
f 56 58 69
f 69 58 59
f 30 54 70
f 54 71 70
f 53 71 54
f 53 69 71
f 131 64 43
f 89 43 44
f 89 131 43
f 89 44 93
f 93 44 41
f 70 194 93
f 93 194 234
f 93 234 240
f 93 240 96
f 15 16 51
f 16 52 51
f 15 20 21
f 15 21 16
f 16 21 52
f 21 68 52
f 20 66 68
f 20 68 21
f 51 52 66
f 52 68 66
f 104 105 109
f 105 106 110
f 106 107 111
f 107 108 112
f 105 110 109
f 106 111 110
f 107 112 111
f 109 110 114
f 110 111 115
f 111 112 116
f 104 109 132
f 109 114 113
f 110 115 114
f 111 116 115
f 109 113 132
f 113 114 124
f 114 115 125
f 115 116 126
f 113 124 123
f 114 125 124
f 115 126 125
f 113 123 132
f 123 124 134
f 124 125 135
f 125 126 136
f 123 133 132
f 123 134 133
f 124 135 134
f 125 136 135
f 108 147 112
f 112 147 148
f 112 148 116
f 116 148 149
f 147 265 148
f 148 265 149
f 149 265 163
f 163 265 164
f 164 265 284
f 116 149 126
f 126 163 136
f 126 149 163
f 157 163 164
f 136 163 157
f 157 164 159
f 159 284 166
f 159 164 284
f 166 287 173
f 166 284 287
f 173 287 204
f 204 287 211
f 211 287 392
f 211 392 227
f 227 407 239
f 227 392 407
f 235 236 404
f 236 237 405
f 237 238 406
f 238 239 407
f 235 404 403
f 236 405 404
f 237 406 405
f 238 407 406
f 265 287 284
f 287 410 392
f 392 410 407
f 403 404 409
f 404 405 409
f 405 406 409
f 406 407 409
f 407 410 409
f 117 63 62
f 118 65 63
f 122 59 60
f 69 59 122
f 70 71 200
f 69 248 71
f 117 118 63
f 117 120 118
f 122 60 65
f 118 122 65
f 117 119 120
f 118 120 121
f 119 128 120
f 120 129 121
f 118 121 137
f 119 127 128
f 120 128 129
f 121 129 130
f 118 137 122
f 122 141 139
f 127 133 128
f 128 134 129
f 129 135 130
f 121 130 138
f 127 132 133
f 128 133 134
f 129 134 135
f 130 135 136
f 121 138 137
f 130 136 161
f 136 157 161
f 130 161 138
f 122 137 141
f 137 138 180
f 137 180 141
f 69 122 139
f 139 142 140
f 69 139 140
f 69 140 187
f 140 188 187
f 139 141 142
f 141 182 142
f 140 142 188
f 142 189 188
f 157 159 162
f 157 162 161
f 159 166 178
f 159 178 162
f 138 161 181
f 138 181 180
f 161 162 181
f 162 178 183
f 162 183 181
f 166 173 179
f 166 179 178
f 173 208 179
f 178 179 184
f 178 184 183
f 179 216 184
f 141 180 182
f 180 181 185
f 181 183 185
f 180 185 182
f 142 182 189
f 182 190 189
f 183 184 186
f 183 186 185
f 184 217 186
f 182 185 190
f 185 186 190
f 186 258 190
f 69 187 248
f 187 188 250
f 188 189 256
f 189 190 258
f 70 192 191
f 70 193 192
f 191 192 196
f 192 193 197
f 70 199 193
f 70 200 199
f 193 199 198
f 191 196 195
f 192 197 196
f 193 198 197
f 195 196 221
f 196 197 222
f 197 198 223
f 198 199 201
f 198 201 224
f 199 200 201
f 71 253 200
f 200 253 202
f 200 202 201
f 201 202 242
f 202 253 255
f 202 255 243
f 204 209 210
f 204 215 208
f 173 204 208
f 208 218 216
f 179 208 216
f 204 211 209
f 204 210 215
f 209 211 225
f 210 226 215
f 208 215 218
f 216 219 217
f 184 216 217
f 217 259 258
f 186 217 258
f 216 218 219
f 217 219 259
f 195 221 220
f 196 222 221
f 197 223 222
f 198 224 223
f 220 221 236
f 221 222 237
f 222 223 238
f 223 224 239
f 220 236 235
f 221 237 236
f 222 238 237
f 223 239 238
f 224 241 239
f 201 242 224
f 224 242 241
f 241 242 246
f 211 227 225
f 225 227 226
f 215 226 233
f 226 227 233
f 215 233 244
f 215 244 218
f 227 239 241
f 227 241 233
f 233 241 246
f 233 246 244
f 202 243 242
f 242 243 246
f 243 247 246
f 243 255 261
f 243 261 247
f 247 261 263
f 218 244 245
f 218 245 219
f 219 245 262
f 219 262 259
f 244 246 247
f 244 247 245
f 245 247 263
f 245 263 262
f 187 250 248
f 71 248 249
f 248 251 249
f 248 250 251
f 188 256 250
f 249 251 254
f 250 257 251
f 71 249 252
f 249 254 252
f 71 252 253
f 252 255 253
f 252 254 255
f 251 260 254
f 254 261 255
f 250 256 257
f 189 258 256
f 251 257 260
f 256 259 257
f 256 258 259
f 254 260 261
f 257 262 260
f 260 263 261
f 257 259 262
f 260 262 263
f 151 156 278
f 151 278 282
f 151 282 168
f 168 294 171
f 168 282 294
f 168 171 206
f 171 390 206
f 156 273 278
f 273 275 278
f 275 276 289
f 273 320 275
f 282 283 294
f 282 289 283
f 171 294 306
f 171 306 296
f 296 306 297
f 275 282 278
f 275 289 282
f 289 292 290
f 290 292 306
f 290 306 294
f 297 306 301
f 299 301 355
f 301 306 311
f 301 303 355
f 301 311 303
f 276 292 289
f 276 304 292
f 304 312 305
f 305 311 306
f 304 309 312
f 276 309 304
f 276 330 309
f 309 310 312
f 305 312 311
f 310 315 312
f 310 329 315
f 315 329 335
f 315 339 372
f 315 335 339
f 275 320 276
f 276 320 325
f 316 322 317
f 317 323 318
f 318 324 319
f 319 325 320
f 316 321 322
f 317 322 323
f 318 323 324
f 319 324 325
f 276 325 330
f 325 331 330
f 321 344 322
f 322 344 323
f 323 344 324
f 324 344 325
f 325 344 331
f 321 343 344
f 329 331 335
f 331 340 335
f 331 346 340
f 340 346 348
f 340 348 434
f 346 347 348
f 171 296 390
f 296 299 390
f 299 355 390
f 355 357 390
f 357 358 365
f 358 361 375
f 357 365 390
f 365 367 390
f 367 398 390
f 365 366 367
f 366 381 367
f 367 381 371
f 371 381 383
f 370 371 402
f 303 372 361
f 361 373 375
f 361 372 373
f 372 378 373
f 372 428 378
f 339 428 372
f 378 428 433
f 378 433 388
f 371 383 417
f 371 417 402
f 383 386 414
f 383 414 417
f 378 388 387
f 386 387 389
f 387 388 389
f 386 389 414
f 389 437 414
f 390 398 399
f 398 401 399
f 370 401 398
f 399 401 400
f 391 399 400
f 370 402 401
f 428 434 433
f 433 434 435
f 348 443 434
f 434 443 435
f 388 436 389
f 435 450 439
f 436 439 442
f 439 455 442
f 441 442 451
f 449 455 450
f 439 450 455
f 449 451 452
f 449 452 453
f 449 453 454
f 449 454 455
f 442 452 451
f 442 453 452
f 442 454 453
f 442 455 454
f 206 226 210
f 206 362 226
f 214 226 362
f 225 226 232
f 225 229 228
f 225 230 229
f 225 231 230
f 225 232 231
f 214 232 226
f 214 397 232
f 228 229 394
f 229 230 395
f 230 231 396
f 231 232 397
f 283 290 294
f 283 289 290
f 296 297 299
f 297 301 299
f 292 304 305
f 292 305 306
f 309 330 329
f 309 329 310
f 303 311 372
f 311 312 372
f 312 315 372
f 329 330 331
f 331 344 346
f 335 340 339
f 339 340 428
f 340 434 428
f 344 347 346
f 344 353 347
f 347 353 348
f 348 353 448
f 349 444 445
f 350 445 446
f 351 446 447
f 352 447 448
f 349 445 350
f 350 446 351
f 351 447 352
f 352 448 353
f 355 358 357
f 355 361 358
f 303 361 355
f 358 381 365
f 358 375 381
f 206 390 362
f 214 362 390
f 365 381 366
f 367 371 370
f 367 370 398
f 373 378 375
f 375 378 386
f 381 386 383
f 375 386 381
f 378 387 386
f 214 390 397
f 390 399 391
f 390 391 397
f 228 394 393
f 229 395 394
f 230 396 395
f 231 397 396
f 391 400 397
f 397 400 422
f 393 394 419
f 394 395 420
f 395 396 421
f 396 397 422
f 400 401 422
f 401 402 422
f 393 419 418
f 394 420 419
f 395 421 420
f 396 422 421
f 402 417 411
f 402 411 422
f 414 460 417
f 411 417 460
f 411 460 427
f 411 427 422
f 418 419 424
f 419 420 425
f 420 421 426
f 421 422 427
f 418 424 423
f 419 425 424
f 420 426 425
f 421 427 426
f 388 433 435
f 435 443 450
f 388 435 436
f 389 436 437
f 436 442 437
f 435 439 436
f 441 456 442
f 348 448 443
f 443 448 450
f 448 449 450
f 444 449 445
f 445 449 446
f 446 449 447
f 447 449 448
f 414 437 460
f 437 442 460
f 424 457 456
f 425 458 457
f 426 459 458
f 427 460 459
f 442 456 457
f 442 457 458
f 442 458 459
f 442 459 460
f 423 424 456
f 424 425 457
f 425 426 458
f 426 427 459
f 117 62 64
f 102 104 132
f 117 64 131
f 117 131 119
f 102 132 131
f 119 131 127
f 127 131 132
f 102 143 104
f 102 103 327
f 102 326 143
f 158 267 160
f 160 267 174
f 203 363 212
f 194 212 234
f 212 363 234
f 143 326 264
f 102 327 326
f 264 326 267
f 174 267 326
f 167 174 326
f 167 326 203
f 203 326 363
f 326 364 363
f 364 461 408
f 326 461 364
f 104 144 105
f 105 145 106
f 106 146 107
f 107 147 108
f 104 143 144
f 105 144 145
f 106 145 146
f 107 146 147
f 143 265 144
f 144 265 145
f 145 265 146
f 146 265 147
f 143 264 265
f 158 165 267
f 158 160 165
f 160 174 165
f 167 286 174
f 165 174 286
f 167 203 286
f 70 191 194
f 191 195 194
f 194 195 220
f 203 212 286
f 212 363 286
f 194 220 212
f 212 220 363
f 220 234 363
f 220 235 234
f 234 235 240
f 235 403 240
f 165 286 267
f 286 363 364
f 240 403 408
f 403 409 408
f 150 156 151
f 150 152 153
f 150 153 154
f 150 154 155
f 150 155 156
f 150 277 152
f 150 281 277
f 150 169 281
f 150 175 169
f 169 170 281
f 169 172 170
f 169 298 172
f 175 205 177
f 169 175 176
f 169 176 298
f 175 177 176
f 177 205 354
f 205 207 354
f 152 270 153
f 153 271 154
f 154 272 155
f 155 273 156
f 152 277 266
f 266 277 279
f 152 266 268
f 152 268 269
f 152 269 270
f 153 270 271
f 154 271 272
f 155 272 273
f 268 291 269
f 269 291 274
f 274 291 308
f 269 317 270
f 270 318 271
f 271 319 272
f 272 320 273
f 269 274 316
f 274 308 316
f 277 281 279
f 279 281 280
f 280 281 288
f 170 285 281
f 281 285 288
f 172 298 295
f 300 354 313
f 300 313 302
f 308 332 328
f 302 313 314
f 313 334 314
f 314 334 333
f 313 379 337
f 313 337 334
f 269 316 317
f 270 317 318
f 271 318 319
f 272 319 320
f 308 328 316
f 316 328 321
f 321 328 332
f 321 332 343
f 332 336 345
f 332 345 343
f 333 334 336
f 334 345 336
f 334 337 338
f 334 338 341
f 334 341 345
f 338 342 341
f 313 354 356
f 313 356 360
f 359 374 360
f 368 382 374
f 368 384 382
f 368 369 384
f 313 360 376
f 360 377 376
f 360 374 377
f 313 376 379
f 380 430 429
f 384 415 416
f 384 416 412
f 385 412 430
f 380 385 430
f 412 416 413
f 338 431 342
f 380 429 432
f 438 440 441
f 438 441 451
f 438 451 449
f 176 177 354
f 205 209 207
f 207 209 356
f 209 225 228
f 209 228 213
f 266 279 280
f 266 280 268
f 268 280 288
f 268 288 293
f 268 293 291
f 285 293 288
f 291 293 307
f 170 295 285
f 170 172 295
f 285 295 293
f 293 295 298
f 176 354 298
f 298 300 302
f 298 354 300
f 298 302 314
f 291 307 308
f 293 298 332
f 293 332 307
f 307 332 308
f 298 314 332
f 314 333 332
f 332 333 336
f 337 431 338
f 343 349 344
f 343 345 349
f 341 349 345
f 341 342 444
f 341 444 349
f 344 349 350
f 344 350 351
f 344 351 352
f 344 352 353
f 207 356 354
f 209 360 356
f 213 359 360
f 209 213 360
f 213 368 359
f 213 228 369
f 213 369 368
f 359 368 374
f 374 385 377
f 376 431 379
f 376 377 431
f 377 385 380
f 377 380 431
f 374 382 385
f 382 412 385
f 382 384 412
f 412 413 440
f 228 393 369
f 369 393 384
f 384 393 415
f 393 418 415
f 415 418 416
f 413 416 456
f 416 418 456
f 418 423 456
f 337 379 431
f 380 432 431
f 429 431 432
f 342 431 444
f 429 444 431
f 429 449 444
f 429 430 438
f 430 440 438
f 412 440 430
f 429 438 449
f 440 456 441
f 413 456 440
f 150 151 168
f 150 168 175
f 168 205 175
f 168 206 205
f 205 206 210
f 205 210 209
f 264 267 265
f 265 267 287
f 267 286 287
f 286 410 287
f 286 364 410
f 364 408 410
f 408 409 410
f 39 42 57
f 39 40 42
f 39 58 40
f 40 41 42
f 41 43 42
f 42 43 64
f 41 44 43
f 39 57 58
f 57 59 58
f 57 61 59
f 57 42 61
f 61 60 59
f 42 64 61
f 61 65 60
f 61 64 63
f 61 63 65
f 62 63 64
