# MAAS exact compiled indexed mesh
# program_hash e8d392c4c7e6c5e3d03fed260467f39e47b46e9bc25bd7335d929afd5291e735
# geometry_hash f5841753924f7fa468a088c50e3522d4bca82152924b6c11e9e891628a43ed63
v -9.65166187 -11.80335228 0.0009898
v -2.60472307 -11.80528242 0
v -2.60472307 -11.80335228 0.0009898
v -2.60472307 -2.3210887 0.0009898
v -2.60472307 -2.3210887 0
v -2.33245426 -2.36708324 0
v -1.92917429 -2.15265548 0.0009898
v -1.92917429 -2.15265548 0
v -1.25362551 -2.15265548 0.0009898
v -1.25362551 -1.79345982 0.0009898
v -9.65166187 -11.80335228 9.8990102
v -2.60472307 -11.80528242 9.9
v -2.60472307 -11.80335228 9.8990102
v -2.60472307 -2.3210887 9.8990102
v -2.60472307 -2.3210887 9.9
v -2.33245426 -2.36708324 9.9
v -1.92917429 -2.15265548 9.8990102
v -1.92917429 -2.15265548 9.9
v -1.25362551 -2.15265548 9.8990102
v -1.25362551 -1.79345982 9.8990102
v -9.65166187 7.49804132 0.0009898
v -7.05637617 6.05125309 0
v -7.05637617 6.05125309 0.0009898
v -4.33536325 7.49804132 0.0009898
v -9.65166187 7.49804132 9.8990102
v -7.05637617 6.05125309 9.9
v -7.05637617 6.05125309 9.8990102
v -4.33536325 7.49804132 9.8990102
v 9.65166187 -11.80528242 0
v 9.65166187 -2.15265548 0
v 9.65166187 -11.80528242 9.9
v 9.65166187 -2.15265548 9.9
v 3.76536941 11.80527728 0
v 8.29609712 3.28421777 0
v 3.76536941 11.80527728 9.9
v 8.29609712 3.28421777 9.9
f 1 3 13
f 1 21 3
f 23 4 3
f 10 9 7
f 1 13 11
f 11 13 14
f 1 11 25
f 11 14 27
f 20 17 19
f 21 23 3
f 1 25 21
f 21 24 23
f 21 25 24
f 11 27 25
f 24 25 28
f 25 27 28
f 10 7 8
f 20 18 17
f 22 4 23
f 22 23 24
f 22 5 4
f 22 6 5
f 22 8 6
f 22 34 8
f 22 24 33
f 26 27 15
f 26 28 27
f 27 14 15
f 26 15 16
f 26 16 18
f 26 18 36
f 24 28 35
f 26 35 28
f 10 8 34
f 10 34 20
f 20 36 18
f 22 33 34
f 24 35 33
f 33 36 34
f 26 36 35
f 20 34 36
f 33 35 36
f 10 20 9
f 20 19 9
f 2 3 5
f 2 13 3
f 3 4 5
f 2 5 6
f 7 9 8
f 2 12 13
f 12 14 13
f 12 15 14
f 12 16 15
f 19 17 18
f 2 6 29
f 2 29 12
f 30 6 8
f 30 8 9
f 29 30 31
f 29 6 30
f 30 9 32
f 12 31 16
f 32 9 19
f 31 18 16
f 32 19 18
f 12 29 31
f 31 30 32
f 31 32 18
