# MAAS exact compiled indexed mesh
# program_hash ee6ae507527c6cc52a1f864e179a3f602f4e0ea84ce3a33e6e04834abb11c99c
# geometry_hash baf4ccc0aaf3d56d80d024798a51642fbca30f4e2bc7b38a4c27188cd58f8aad
v -8.65381092 -12.04445871 3.34535521
v -8.65381092 -12.64888007 3.92211736
v -8.65381092 -9.27628942 1.63724934
v -8.65381092 -8.34158431 1.26428961
v -11.42198021 -9.27628942 3.34535521
v -13.59768539 -8.87393103 5.86194214
v -10.9873169 -12.31510184 5.83033464
v -8.65381092 -14.08522917 5.85176813
v -8.65381092 -14.44158278 6.94352854
v -13.59768539 -5.19788959 3.59363147
v -14.43854486 -1.32778494 3.95948768
v -12.52929966 -1.32778494 2.08454499
v -10.9873169 -5.24911294 1.47024831
v -8.65381092 -5.21437767 0.37798677
v -8.65381092 -3.44506247 0.15809787
v -9.99178306 -1.32778494 0.51876395
v -8.65381092 -1.32778494 5.66e-06
v -15.12925802 -5.06440309 5.94431032
v -15.62378113 -1.32778494 6.04957458
v -12.52929966 -11.319568 8.25
v -14.43854486 -8.28102168 8.25
v -13.59768539 -8.87393103 10.63805786
v -9.99178306 -13.8570846 8.25
v -8.65381092 -14.69778822 8.25
v -8.65381092 -14.44158278 9.55647146
v -10.9873169 -12.31510184 10.66966536
v -8.65381092 -14.08522917 10.64823187
v -8.65381092 -12.64888007 12.57788264
v -8.65381092 -12.04445871 13.15464479
v -11.42198021 -9.27628942 13.15464479
v -8.65381092 -9.27628942 14.86275066
v -8.65381092 -8.34158431 15.23571039
v -15.62378113 -4.89381103 8.25
v -15.12925802 -5.06440309 10.55568968
v -16.02557577 -1.32778494 8.25
v -15.62378113 -1.32778494 10.45042542
v -13.59768539 -5.19788959 12.90636853
v -14.43854486 -1.32778494 12.54051232
v -12.52929966 -1.32778494 14.41545501
v -10.9873169 -5.24911294 15.02975169
v -8.65381092 -5.21437767 16.12201323
v -8.65381092 -3.44506247 16.34190213
v -9.99178306 -1.32778494 15.98123605
v -8.65381092 -1.32778494 16.49999434
v -13.59768539 2.54231971 3.59363147
v -10.9873169 2.59354306 1.47024831
v -8.65381092 0.78949259 0.15809787
v -8.65381092 2.55880779 0.37798677
v -8.65381092 5.68601443 1.26428961
v -8.65381092 6.62071954 1.63724934
v -11.42198021 6.62071954 3.34535521
v -8.65381092 7.32602598 2.07246046
v -15.12925802 2.40883321 5.94431032
v -13.59768539 6.21836115 5.86194214
v -10.9873169 9.65953196 5.83033464
v -7.01379937 7.32602598 1.26428961
v -7.94850448 7.32602598 1.63724934
v -3.88659273 7.32602598 0.37798677
v -2.11727753 7.32602598 0.15809787
v -7.94850448 10.09419527 3.34535521
v -3.921328 9.65953196 1.47024831
v -3.87010465 12.26990045 3.59363147
v -7.54614609 12.26990045 5.86194214
v -3.73661815 13.80147308 5.94431032
v -15.62378113 2.23824115 8.25
v -15.12925802 2.40883321 10.55568968
v -14.43854486 5.6254518 8.25
v -13.59768539 6.21836115 10.63805786
v -13.59768539 2.54231971 12.90636853
v -10.9873169 2.59354306 15.02975169
v -8.65381092 0.78949259 16.34190213
v -8.65381092 2.55880779 16.12201323
v -11.42198021 6.62071954 13.15464479
v -8.65381092 7.32602598 14.42753954
v -8.65381092 5.68601443 15.23571039
v -8.65381092 6.62071954 14.86275066
v -12.52929966 8.66399812 8.25
v -10.9873169 9.65953196 10.66966536
v -9.99178306 11.20151472 8.25
v -7.94850448 7.32602598 14.86275066
v -7.01379937 7.32602598 15.23571039
v -3.88659273 7.32602598 16.12201323
v -2.11727753 7.32602598 16.34190213
v -6.95323674 13.11075992 8.25
v -7.54614609 12.26990045 10.63805786
v -3.56602609 14.29599619 8.25
v -3.73661815 13.80147308 10.55568968
v -7.94850448 10.09419527 13.15464479
v -3.921328 9.65953196 15.02975169
v -3.87010465 12.26990045 12.90636853
v 8.65381092 -12.04445871 3.34535521
v 8.65381092 -12.64888007 3.92211736
v 8.65381092 -9.27628942 1.63724934
v 8.65381092 -8.34158431 1.26428961
v 11.42198021 -9.27628942 3.34535521
v 8.65381092 -14.08522917 5.85176813
v 10.9873169 -12.31510184 5.83033464
v 8.65381092 -14.44158278 6.94352854
v 13.59768539 -8.87393103 5.86194214
v 8.65381092 -5.21437767 0.37798677
v 10.9873169 -5.24911294 1.47024831
v 8.65381092 -3.44506247 0.15809787
v 8.65381092 -1.32778494 5.66e-06
v 9.99178306 -1.32778494 0.51876395
v 13.59768539 -5.19788959 3.59363147
v 12.52929966 -1.32778494 2.08454499
v 14.43854486 -1.32778494 3.95948768
v 15.12925802 -5.06440309 5.94431032
v 15.62378113 -1.32778494 6.04957458
v 8.65381092 -14.69778822 8.25
v 9.99178306 -13.8570846 8.25
v 8.65381092 -14.44158278 9.55647146
v 8.65381092 -14.08522917 10.64823187
v 10.9873169 -12.31510184 10.66966536
v 12.52929966 -11.319568 8.25
v 14.43854486 -8.28102168 8.25
v 13.59768539 -8.87393103 10.63805786
v 8.65381092 -12.64888007 12.57788264
v 8.65381092 -12.04445871 13.15464479
v 11.42198021 -9.27628942 13.15464479
v 8.65381092 -9.27628942 14.86275066
v 8.65381092 -8.34158431 15.23571039
v 15.62378113 -4.89381103 8.25
v 15.12925802 -5.06440309 10.55568968
v 16.02557577 -1.32778494 8.25
v 15.62378113 -1.32778494 10.45042542
v 8.65381092 -5.21437767 16.12201323
v 10.9873169 -5.24911294 15.02975169
v 8.65381092 -3.44506247 16.34190213
v 8.65381092 -1.32778494 16.49999434
v 9.99178306 -1.32778494 15.98123605
v 13.59768539 -5.19788959 12.90636853
v 12.52929966 -1.32778494 14.41545501
v 14.43854486 -1.32778494 12.54051232
v 0 7.32602598 5.66e-06
v 2.11727753 7.32602598 0.15809787
v 3.88659273 7.32602598 0.37798677
v 7.01379937 7.32602598 1.26428961
v 7.94850448 7.32602598 1.63724934
v 0 8.66399812 0.51876395
v 3.921328 9.65953196 1.47024831
v 0 11.20151472 2.08454499
v 0 13.11075992 3.95948768
v 3.87010465 12.26990045 3.59363147
v 7.94850448 10.09419527 3.34535521
v 0 14.29599619 6.04957458
v 3.73661815 13.80147308 5.94431032
v 7.54614609 12.26990045 5.86194214
v 8.65381092 0.78949259 0.15809787
v 8.65381092 2.55880779 0.37798677
v 10.9873169 2.59354306 1.47024831
v 8.65381092 5.68601443 1.26428961
v 8.65381092 6.62071954 1.63724934
v 8.65381092 7.32602598 2.07246046
v 11.42198021 6.62071954 3.34535521
v 13.59768539 2.54231971 3.59363147
v 15.12925802 2.40883321 5.94431032
v 13.59768539 6.21836115 5.86194214
v 10.9873169 9.65953196 5.83033464
v 0 7.32602598 16.49999434
v 2.11727753 7.32602598 16.34190213
v 3.88659273 7.32602598 16.12201323
v 7.94850448 7.32602598 14.86275066
v 7.01379937 7.32602598 15.23571039
v 0 14.69779083 8.25
v 3.56602609 14.29599619 8.25
v 0 14.29599619 10.45042542
v 3.73661815 13.80147308 10.55568968
v 6.95323674 13.11075992 8.25
v 7.54614609 12.26990045 10.63805786
v 0 8.66399812 15.98123605
v 3.921328 9.65953196 15.02975169
v 0 11.20151472 14.41545501
v 0 13.11075992 12.54051232
v 3.87010465 12.26990045 12.90636853
v 7.94850448 10.09419527 13.15464479
v 15.62378113 2.23824115 8.25
v 15.12925802 2.40883321 10.55568968
v 14.43854486 5.6254518 8.25
v 13.59768539 6.21836115 10.63805786
v 8.65381092 0.78949259 16.34190213
v 8.65381092 2.55880779 16.12201323
v 10.9873169 2.59354306 15.02975169
v 8.65381092 7.32602598 14.42753954
v 11.42198021 6.62071954 13.15464479
v 8.65381092 5.68601443 15.23571039
v 8.65381092 6.62071954 14.86275066
v 13.59768539 2.54231971 12.90636853
v 10.9873169 9.65953196 10.66966536
v 9.99178306 11.20151472 8.25
v 12.52929966 8.66399812 8.25
f 13 4 5
f 5 3 1
f 5 4 3
f 6 10 5
f 6 21 18
f 7 20 6
f 6 20 21
f 7 5 1
f 7 2 8
f 7 1 2
f 7 23 20
f 23 8 9
f 7 8 23
f 23 9 24
f 7 6 5
f 13 10 12
f 10 11 12
f 12 11 45
f 13 14 4
f 13 15 14
f 13 5 10
f 13 12 16
f 12 46 16
f 13 16 15
f 16 17 15
f 16 47 17
f 6 18 10
f 10 18 11
f 18 21 33
f 18 33 19
f 18 19 11
f 11 19 53
f 33 35 19
f 19 35 65
f 21 22 34
f 20 22 21
f 20 26 22
f 22 30 37
f 20 23 26
f 23 24 25
f 23 25 27
f 23 27 26
f 26 29 30
f 26 27 28
f 26 28 29
f 26 30 22
f 30 29 31
f 30 31 32
f 30 32 40
f 21 34 33
f 33 34 36
f 22 37 34
f 34 37 38
f 33 36 35
f 35 36 65
f 34 38 36
f 36 38 66
f 37 40 39
f 37 39 38
f 38 39 69
f 37 30 40
f 40 32 41
f 40 41 42
f 40 43 39
f 39 43 70
f 40 42 43
f 43 42 44
f 43 44 71
f 12 45 46
f 16 46 47
f 46 48 47
f 46 49 48
f 46 51 49
f 46 45 51
f 51 50 49
f 51 52 50
f 11 53 45
f 19 65 53
f 53 65 67
f 45 53 54
f 45 54 51
f 53 67 54
f 54 67 77
f 51 60 52
f 60 57 52
f 54 77 55
f 54 55 51
f 51 55 60
f 55 63 60
f 55 77 79
f 55 79 63
f 63 79 84
f 61 56 60
f 61 58 56
f 60 56 57
f 61 60 62
f 61 59 58
f 61 140 59
f 140 135 59
f 61 142 140
f 61 62 142
f 62 143 142
f 60 63 62
f 63 64 62
f 63 84 64
f 64 84 86
f 62 64 143
f 64 146 143
f 64 86 146
f 86 165 146
f 36 66 65
f 65 66 67
f 66 38 69
f 66 68 67
f 67 68 77
f 66 69 68
f 69 73 68
f 69 39 70
f 70 43 71
f 70 72 75
f 70 71 72
f 69 70 73
f 73 75 76
f 73 76 74
f 73 70 75
f 68 78 77
f 77 78 79
f 68 73 78
f 73 88 78
f 78 88 85
f 79 85 84
f 78 85 79
f 73 74 88
f 88 74 80
f 85 87 84
f 84 87 86
f 88 90 85
f 85 90 87
f 86 87 167
f 86 167 165
f 87 90 174
f 87 174 167
f 88 80 81
f 88 89 90
f 88 81 89
f 89 81 82
f 89 82 83
f 89 83 171
f 171 83 160
f 89 171 173
f 90 89 173
f 90 173 174
f 101 95 94
f 95 91 93
f 95 93 94
f 97 96 92
f 97 92 91
f 97 91 95
f 111 98 96
f 97 111 96
f 111 110 98
f 97 115 111
f 97 95 99
f 95 105 99
f 97 99 115
f 99 116 115
f 99 108 116
f 101 94 100
f 101 100 102
f 101 105 95
f 101 102 104
f 104 102 103
f 104 103 149
f 101 104 106
f 104 151 106
f 101 106 105
f 105 106 107
f 106 156 107
f 99 105 108
f 105 107 108
f 108 123 116
f 108 109 123
f 108 107 109
f 107 157 109
f 123 109 125
f 109 177 125
f 111 112 110
f 111 113 112
f 111 114 113
f 111 115 114
f 114 118 113
f 114 119 118
f 114 120 119
f 114 117 120
f 115 116 117
f 114 115 117
f 117 116 124
f 120 117 132
f 120 121 119
f 120 122 121
f 120 128 122
f 116 123 124
f 123 126 124
f 117 124 132
f 124 134 132
f 123 125 126
f 124 126 134
f 120 132 128
f 128 127 122
f 128 129 127
f 128 131 129
f 131 130 129
f 128 133 131
f 132 133 128
f 132 134 133
f 140 136 135
f 140 142 141
f 140 141 136
f 141 137 136
f 142 143 144
f 141 142 144
f 141 138 137
f 141 145 138
f 141 144 145
f 145 139 138
f 143 146 147
f 143 147 144
f 146 165 166
f 146 166 147
f 144 147 148
f 144 148 145
f 147 166 169
f 147 169 148
f 104 149 151
f 151 149 150
f 151 150 152
f 151 152 155
f 155 152 153
f 155 153 154
f 151 155 156
f 151 156 106
f 156 157 107
f 109 157 177
f 157 179 177
f 155 158 156
f 156 158 157
f 158 191 179
f 157 158 179
f 145 154 139
f 145 155 154
f 145 148 159
f 145 159 155
f 155 159 158
f 159 190 191
f 148 190 159
f 148 169 190
f 158 159 191
f 125 177 126
f 126 178 134
f 131 181 130
f 183 131 133
f 188 133 134
f 165 167 166
f 167 168 166
f 167 174 168
f 168 174 175
f 166 168 169
f 168 170 169
f 168 175 170
f 175 176 170
f 171 160 161
f 172 173 171
f 172 171 161
f 172 161 162
f 174 173 175
f 175 173 172
f 175 172 176
f 176 164 163
f 172 162 164
f 176 172 164
f 126 177 178
f 177 179 178
f 178 188 134
f 180 179 191
f 178 179 180
f 185 188 180
f 178 180 188
f 183 181 131
f 183 186 182
f 183 182 181
f 185 187 186
f 185 184 187
f 185 183 188
f 185 186 183
f 188 183 133
f 189 191 190
f 176 189 170
f 176 185 189
f 185 180 189
f 170 190 169
f 170 189 190
f 180 191 189
f 176 163 184
f 176 184 185
f 3 32 1
f 1 32 2
f 3 4 41
f 4 14 41
f 14 15 41
f 15 17 44
f 17 47 44
f 8 2 32
f 8 32 9
f 9 32 24
f 24 29 25
f 25 29 27
f 28 27 29
f 24 31 29
f 3 41 32
f 31 24 32
f 15 42 41
f 15 44 42
f 47 48 72
f 48 49 74
f 50 74 49
f 50 52 74
f 57 74 52
f 57 56 81
f 56 58 82
f 59 162 58
f 47 71 44
f 47 72 71
f 48 75 72
f 48 76 75
f 48 74 76
f 57 80 74
f 57 81 80
f 56 82 81
f 58 83 82
f 83 58 160
f 160 58 161
f 93 110 94
f 96 91 92
f 96 98 91
f 98 110 91
f 93 91 110
f 112 94 110
f 112 113 94
f 113 118 94
f 100 94 121
f 100 129 102
f 102 129 103
f 118 119 94
f 119 121 94
f 100 121 122
f 100 122 127
f 100 127 129
f 103 129 130
f 103 130 181
f 59 135 162
f 135 136 162
f 136 137 162
f 137 138 164
f 138 139 163
f 103 181 149
f 149 182 150
f 150 182 152
f 139 154 184
f 152 182 153
f 153 182 154
f 161 58 162
f 137 164 162
f 138 163 164
f 149 181 182
f 139 184 163
f 182 186 154
f 186 187 154
f 187 184 154
