# MAAS exact compiled indexed mesh
# program_hash 416210a5040838a4efbaba6c989d9f774bc3243a07aba8670ab0897307dae033
# geometry_hash da2b3587e80a776479c57d90f979f547c47f6912eda330610f6c6036592c0849
v -15.20774974 -12.39601534 0
v -15.20774974 -12.39601534 4.52545052
v -14.48042258 -11.66868817 4.52545052
v -15.20774974 -1.81671117 0
v -14.48042258 -2.06969453 0
v -14.48042258 -1.81671117 0
v -7.88232662 -4.36468443 0
v -15.20774974 -1.81671117 4.52545052
v -14.48042258 -1.81671117 4.52545052
v -4.56232492 -11.66868817 4.52545052
v -4.56232492 -1.81671117 0
v -4.56232492 -1.81671117 4.52545052
v -14.48042258 -11.66868817 9.89942301
v -4.56232492 -11.66868817 9.89942301
v -4.56232492 -0.4281775 5.65681315
v -4.56232492 -0.4281775 9.89942301
v -14.48042258 10.15112666 0
v -4.56232492 10.15112666 0
v -14.48042258 10.15112666 9.89942301
v -4.56232492 9.48992015 5.65681315
v -4.56232492 7.09304655 9.89942301
v -4.56232492 9.48992015 9.89942301
v -4.56232492 10.15112666 9.89942301
v 15.20774974 -12.39601534 0
v 15.20774974 -12.39601534 4.52545052
v 15.20774974 -1.81671117 0
v 15.20774974 -1.81671117 4.52545052
v 0 -0.4281775 5.65681315
v 2.78809627 -0.42952636 5.65623615
v 2.78809627 -0.4281775 5.65681315
v 0 -0.4281775 9.89942301
v 2.78809627 -0.42952636 9.9
v 2.78809627 -0.4281775 9.89942301
v 13.48996167 -0.42952636 5.65623615
v 13.48996167 -0.42952636 9.9
v 2.78809627 4.45646265 5.65681315
v 2.78809627 4.45646265 5.65623615
v 2.98206668 4.44096454 5.65623615
v 3.26019772 4.53087133 5.65681315
v 3.26019772 4.53087133 5.65623615
v 3.73229916 4.53087133 5.65681315
v 3.73229916 4.6834797 5.65681315
v 2.78809627 4.45646265 9.89942301
v 2.78809627 4.45646265 9.9
v 2.98206668 4.44096454 9.9
v 3.26019772 4.53087133 9.89942301
v 3.26019772 4.53087133 9.9
v 3.73229916 4.53087133 9.89942301
v 3.73229916 4.6834797 9.89942301
v 1.28566652 9.10430238 5.65623615
v 1.28566652 9.10430238 5.65681315
v 0 9.48992015 5.65681315
v 2.47859392 9.48992015 5.65681315
v 1.28566652 9.10430238 9.9
v 1.28566652 9.10430238 9.89942301
v 0 9.48992015 9.89942301
v 2.47859392 9.48992015 9.89942301
v 13.48996167 4.53087133 5.65623615
v 13.48996167 4.53087133 9.9
v 12.99403726 7.67736754 5.65623615
v 11.4687207 12.39600873 5.65623615
v 12.99403726 7.67736754 9.9
v 11.4687207 12.39600873 9.9
f 1 5 7
f 1 2 8
f 2 3 9
f 1 4 5
f 1 8 4
f 5 4 6
f 4 8 6
f 2 9 8
f 6 8 9
f 1 24 2
f 1 7 24
f 2 25 3
f 3 25 10
f 2 24 25
f 7 11 24
f 11 12 26
f 10 27 12
f 24 26 25
f 10 25 27
f 11 26 24
f 12 27 26
f 25 26 27
f 5 6 7
f 12 18 14
f 3 13 9
f 3 10 14
f 3 14 13
f 9 13 19
f 13 14 19
f 14 16 19
f 10 12 14
f 14 18 15
f 14 15 16
f 6 17 7
f 7 17 11
f 11 17 18
f 6 9 19
f 6 19 17
f 17 23 18
f 11 18 12
f 18 20 15
f 19 16 21
f 17 19 23
f 19 21 22
f 19 22 23
f 18 23 20
f 20 23 22
f 15 28 31
f 15 31 16
f 15 20 28
f 20 52 28
f 16 31 56
f 16 56 21
f 20 22 52
f 21 56 22
f 22 56 52
f 30 33 28
f 33 31 28
f 30 28 52
f 30 52 51
f 30 51 36
f 39 42 41
f 33 43 31
f 43 55 31
f 55 56 31
f 46 48 49
f 51 52 53
f 53 52 56
f 53 56 57
f 55 57 56
f 39 40 42
f 37 50 38
f 36 50 37
f 38 50 40
f 40 60 42
f 42 60 49
f 46 49 47
f 44 45 54
f 43 44 55
f 45 47 54
f 47 49 62
f 36 51 50
f 50 51 53
f 40 50 60
f 50 53 61
f 44 54 55
f 54 57 55
f 47 62 54
f 53 57 63
f 54 63 57
f 50 61 60
f 53 63 61
f 60 61 62
f 49 60 62
f 54 62 63
f 61 63 62
f 41 42 49
f 41 49 48
f 29 33 30
f 29 34 32
f 29 32 33
f 32 34 35
f 29 30 37
f 30 36 37
f 29 37 38
f 39 41 40
f 29 38 34
f 38 40 58
f 40 41 58
f 32 43 33
f 32 44 43
f 32 45 44
f 46 47 48
f 32 35 45
f 45 35 47
f 41 48 59
f 47 59 48
f 38 58 34
f 41 59 58
f 34 58 35
f 47 35 59
f 58 59 35
