# MAAS exact compiled indexed mesh
# program_hash 6596f075a929e84b3862e41cb4772b7a733f8415eb8b2558668f5d4c43090530
# geometry_hash 9e8f629f5cf0dd6648b0b5fb65a34235e74aa7c344db3057c2fae516a3c04d84
v -15.03137598 -11.43458244 0
v -15.03137598 -6.06623388 0
v -10.28180107 -5.82952181 0
v -15.03137598 -6.06623388 5.7924736
v -10.19986227 -4.77783022 0
v -15.03137598 -4.77783022 5.7924736
v -10.19986227 -4.77783022 5.7924736
v -15.03137598 -11.43458244 15.44659626
v -15.03137598 -4.77783022 15.44659626
v -10.19986227 3.3820596 0
v -13.95770627 3.3820596 5.7924736
v -10.19986227 3.3820596 5.7924736
v -15.03137598 7.89147239 0
v -13.95770627 7.89147239 0
v -13.95770627 11.43458244 0
v -15.03137598 7.89147239 5.7924736
v -13.95770627 7.89147239 5.7924736
v -13.95770627 3.3820596 10.29773084
v -13.95770627 11.43458244 10.29773084
v 15.03137598 -11.43458244 0
v 15.03137598 -4.77783022 0
v 4.83151371 -11.43458244 10.94133901
v 4.83151371 -11.43458244 15.44659626
v 4.83151371 -4.77783022 10.94133901
v 4.83151371 -4.77783022 15.44659626
v 15.03137598 -11.43458244 10.94133901
v 15.03137598 -4.77783022 10.94133901
v 13.95770627 3.3820596 0
v 13.95770627 11.43458244 0
v 13.95770627 3.3820596 10.29773084
v 13.95770627 11.43458244 10.29773084
f 1 2 3
f 1 4 2
f 1 9 4
f 1 3 20
f 1 20 8
f 3 5 21
f 5 7 21
f 6 24 7
f 1 8 9
f 8 25 9
f 4 9 6
f 6 9 24
f 8 22 23
f 8 23 25
f 9 25 24
f 3 21 20
f 7 27 21
f 20 21 26
f 20 26 22
f 21 27 26
f 8 20 22
f 7 24 27
f 11 18 17
f 11 12 18
f 14 17 15
f 15 17 19
f 10 14 28
f 10 28 12
f 12 28 18
f 14 15 28
f 15 19 31
f 17 18 19
f 18 30 19
f 18 28 30
f 15 29 28
f 15 31 29
f 28 29 30
f 29 31 30
f 19 30 31
f 2 13 3
f 3 10 5
f 5 10 7
f 2 4 6
f 2 6 16
f 6 7 12
f 3 13 10
f 2 16 13
f 6 11 16
f 6 12 11
f 7 10 12
f 10 13 14
f 13 17 14
f 13 16 17
f 11 17 16
f 24 23 22
f 24 25 23
f 27 24 22
f 27 22 26
