# MAAS exact compiled indexed mesh
# program_hash 485a754545d9f9743229584e43d0de399dd589f5845b546ed7e01702ea2695f5
# geometry_hash d277c964d3762a33fae32247879bf381f6a728b7c710246f7102d40a67cfe7d0
v -14.2481878 -11.08192384 0
v -11.46979118 -8.92094869 4.5
v -14.2481878 -5.54096192 0
v -11.46979118 -4.46047435 4.5
v -7.1240939 -11.08192384 0
v -5.73489559 -8.92094869 4.5
v -7.1240939 -5.54096192 0
v -8.69139456 -6.75997354 9
v -11.46979118 -8.92094869 13.5
v -14.2481878 -11.08192384 18
v -8.69139456 -3.37998677 9
v -11.46979118 -4.46047435 13.5
v -14.2481878 -5.54096192 18
v -4.34569728 -6.75997354 9
v -5.73489559 -8.92094869 13.5
v -7.1240939 -11.08192384 18
v -7.1240939 -5.54096192 18
v -14.2481878 0 0
v -14.2481878 5.54096192 0
v -11.46979118 0 4.5
v -11.46979118 4.46047435 4.5
v -14.2481878 11.08192384 0
v -11.46979118 8.92094869 4.5
v -7.1240939 0 0
v -7.1240939 5.54096192 0
v -7.1240939 11.08192384 0
v -5.73489559 8.92094869 4.5
v -8.69139456 0 9
v -8.69139456 3.37998677 9
v -11.46979118 0 13.5
v -14.2481878 0 18
v -11.46979118 4.46047435 13.5
v -14.2481878 5.54096192 18
v -8.69139456 6.75997354 9
v -11.46979118 8.92094869 13.5
v -14.2481878 11.08192384 18
v -7.1240939 0 18
v -7.1240939 5.54096192 18
v -4.34569728 6.75997354 9
v -5.73489559 8.92094869 13.5
v -7.1240939 11.08192384 18
v 0 -11.08192384 0
v 0 -8.92094869 4.5
v 5.73489559 -8.92094869 4.5
v 0 -5.54096192 0
v 7.1240939 -11.08192384 0
v 14.2481878 -11.08192384 0
v 11.46979118 -8.92094869 4.5
v 7.1240939 -5.54096192 0
v 14.2481878 -5.54096192 0
v 11.46979118 -4.46047435 4.5
v 0 -6.75997354 9
v 4.34569728 -6.75997354 9
v 0 -8.92094869 13.5
v 0 -11.08192384 18
v 5.73489559 -8.92094869 13.5
v 0 -5.54096192 18
v 8.69139456 -6.75997354 9
v 7.1240939 -11.08192384 18
v 11.46979118 -8.92094869 13.5
v 14.2481878 -11.08192384 18
v 8.69139456 -3.37998677 9
v 7.1240939 -5.54096192 18
v 11.46979118 -4.46047435 13.5
v 14.2481878 -5.54096192 18
v 0 0 0
v 0 5.54096192 0
v 0 11.08192384 0
v 0 8.92094869 4.5
v 5.73489559 8.92094869 4.5
v 7.1240939 0 0
v 7.1240939 5.54096192 0
v 14.2481878 0 0
v 14.2481878 5.54096192 0
v 11.46979118 0 4.5
v 11.46979118 4.46047435 4.5
v 7.1240939 11.08192384 0
v 14.2481878 11.08192384 0
v 11.46979118 8.92094869 4.5
v 0 0 18
v 0 5.54096192 18
v 0 6.75997354 9
v 4.34569728 6.75997354 9
v 0 8.92094869 13.5
v 0 11.08192384 18
v 5.73489559 8.92094869 13.5
v 8.69139456 0 9
v 8.69139456 3.37998677 9
v 7.1240939 0 18
v 7.1240939 5.54096192 18
v 11.46979118 0 13.5
v 14.2481878 0 18
v 11.46979118 4.46047435 13.5
v 14.2481878 5.54096192 18
v 8.69139456 6.75997354 9
v 7.1240939 11.08192384 18
v 11.46979118 8.92094869 13.5
v 14.2481878 11.08192384 18
f 2 1 5
f 5 1 3
f 3 1 4
f 4 1 2
f 2 5 6
f 7 5 3
f 11 4 2
f 2 6 8
f 11 2 8
f 7 3 18
f 20 3 4
f 18 3 20
f 18 24 7
f 20 4 28
f 28 4 11
f 5 42 6
f 42 5 7
f 6 42 43
f 45 42 7
f 14 8 6
f 6 43 14
f 52 14 43
f 45 7 24
f 24 66 45
f 14 9 8
f 8 9 12
f 15 9 14
f 9 10 13
f 13 10 16
f 9 13 12
f 15 10 9
f 16 10 15
f 13 16 17
f 8 12 11
f 30 28 11
f 30 11 12
f 12 13 31
f 13 17 31
f 12 31 30
f 37 31 17
f 52 15 14
f 15 52 54
f 16 15 54
f 16 55 17
f 16 54 55
f 17 55 57
f 17 57 37
f 80 37 57
f 18 19 24
f 21 18 20
f 19 18 21
f 19 25 24
f 21 20 29
f 28 29 20
f 29 34 21
f 19 22 25
f 23 19 21
f 23 22 19
f 25 22 26
f 26 22 27
f 27 22 23
f 23 21 34
f 39 27 23
f 39 23 34
f 24 25 66
f 66 25 67
f 67 25 26
f 69 26 27
f 67 26 68
f 68 26 69
f 69 27 82
f 82 27 39
f 28 32 29
f 32 28 30
f 33 30 31
f 37 33 31
f 33 32 30
f 38 33 37
f 29 35 34
f 32 35 29
f 34 35 40
f 32 36 35
f 33 36 32
f 38 36 33
f 35 36 41
f 35 41 40
f 41 36 38
f 80 38 37
f 38 80 81
f 34 40 39
f 84 82 39
f 84 39 40
f 41 38 81
f 40 41 85
f 40 85 84
f 41 81 85
f 42 46 43
f 46 42 45
f 43 46 44
f 49 46 45
f 43 44 52
f 52 44 53
f 49 45 66
f 49 66 71
f 46 47 44
f 49 47 46
f 44 47 48
f 48 47 50
f 50 47 49
f 48 50 51
f 53 44 48
f 48 51 58
f 53 48 58
f 50 49 71
f 50 73 51
f 50 71 73
f 51 73 75
f 62 58 51
f 51 75 62
f 87 62 75
f 54 52 53
f 54 53 56
f 58 56 53
f 56 55 54
f 55 59 57
f 56 59 55
f 57 59 63
f 57 63 80
f 80 63 89
f 62 60 58
f 58 60 56
f 64 60 62
f 60 59 56
f 59 61 63
f 60 61 59
f 64 61 60
f 63 61 65
f 65 61 64
f 87 64 62
f 64 87 91
f 89 63 65
f 65 64 91
f 89 65 92
f 65 91 92
f 71 66 67
f 71 67 72
f 68 72 67
f 70 68 69
f 68 77 72
f 77 68 70
f 70 69 83
f 82 83 69
f 83 95 70
f 72 73 71
f 73 74 75
f 72 74 73
f 75 74 76
f 75 76 87
f 87 76 88
f 77 74 72
f 79 77 70
f 74 78 76
f 76 78 79
f 77 78 74
f 79 78 77
f 79 70 95
f 88 76 79
f 88 79 95
f 81 80 89
f 81 89 90
f 82 86 83
f 86 82 84
f 90 85 81
f 96 84 85
f 96 86 84
f 90 96 85
f 91 87 88
f 91 88 93
f 95 93 88
f 92 90 89
f 93 92 91
f 92 94 90
f 93 94 92
f 83 97 95
f 86 97 83
f 95 97 93
f 94 96 90
f 86 98 97
f 96 98 86
f 97 94 93
f 94 98 96
f 97 98 94
