# MAAS exact compiled indexed mesh
# program_hash 85e67356354c0bd4b930b3a546e10472f1a4b1d60d6a66a0ac05407c3a9e3c63
# geometry_hash 63fa29031d2ca57be96546a5fb2dc9ce2b400a206135fb3dd372c862e9cad87a
v -11.66404517 -16.05437422 0
v -11.66404517 -13.91106551 0
v -11.66404517 -11.76775681 0
v -11.66404517 -9.62444811 0
v -11.66404517 -16.05437422 3.6
v -11.66404517 -13.91106551 3.6
v -11.66404517 -11.76775681 3.6
v -11.66404517 -9.62444811 3.6
v -11.66404517 -7.48113941 0
v -11.66404517 -7.48113941 3.6
v -0.91132927 -13.57191415 0
v -1.85089396 -11.64552105 0
v -2.79045866 -9.71912795 0
v -0.91132927 -13.57191415 3.6
v -4.66958804 -5.86634175 0
v -3.73002335 -7.79273485 0
v -4.66958804 -5.86634175 3.6
v -11.66404517 -16.05437422 7.2
v -11.66404517 -13.91106551 7.2
v -11.66404517 -11.76775681 7.2
v -11.66404517 -9.62444811 7.2
v -11.66404517 -16.05437422 10.8
v -11.66404517 -13.91106551 10.8
v -11.66404517 -16.05437422 14.4
v -11.66404517 -13.91106551 14.4
v -11.66404517 -11.76775681 10.8
v -11.66404517 -9.62444811 10.8
v -11.66404517 -11.76775681 14.4
v -11.66404517 -9.62444811 14.4
v -11.66404517 -7.48113941 7.2
v -11.66404517 -7.48113941 10.8
v -11.66404517 -7.48113941 14.4
v -0.91132927 -13.57191415 7.2
v -0.91132927 -13.57191415 10.8
v -0.91132927 -13.57191415 14.4
v -1.85089396 -11.64552105 14.4
v -2.79045866 -9.71912795 14.4
v -4.66958804 -5.86634175 7.2
v -4.66958804 -5.86634175 10.8
v -4.66958804 -5.86634175 14.4
v -3.73002335 -7.79273485 14.4
v -1.10910701 12.45538064 0.576
v -0.01790594 13.35513051 0.576
v -1.10910701 12.45538064 3.888
v -0.01790594 13.35513051 3.888
v -1.10910701 12.45538064 7.2
v -0.01790594 13.35513051 7.2
v -1.10910701 12.45538064 10.512
v -0.01790594 13.35513051 10.512
v -1.10910701 12.45538064 13.824
v -0.01790594 13.35513051 13.824
v 0.6770015 -0.35008523 0.576
v 0.90910767 -1.34880303 0
v 1.28300092 -0.54698637 0.576
v 2.59805798 -2.66835563 0
v 4.28700828 -3.98790822 0
v 0.90910767 -1.34880303 3.6
v 5.97595859 -5.30746082 0
v 7.66490889 -6.62701342 0
v 7.66490889 -6.62701342 3.6
v 0.90910767 -1.34880303 7.2
v 0.90910767 -1.34880303 10.8
v 0.6770015 -0.35008523 13.824
v 0.90910767 -1.34880303 14.4
v 1.28300092 -0.54698637 13.824
v 2.59805798 -2.66835563 14.4
v 4.28700828 -3.98790822 14.4
v 7.66490889 -6.62701342 7.2
v 7.66490889 -6.62701342 10.8
v 5.97595859 -5.30746082 14.4
v 7.66490889 -6.62701342 14.4
v 1.32494481 0.49161345 0.576
v 1.32223763 0.59090902 0.576
v 2.0051404 1.00164674 0.576
v 1.86273789 1.19022353 0.576
v 2.44697707 1.94916854 0
v 2.44697707 1.94916854 0.576
v 1.1842033 5.65381333 0.576
v 2.5834645 5.63990938 0.576
v 4.18386437 3.97628838 0.576
v 3.98272571 5.62600543 0.576
v 4.53206349 5.62054685 0.576
v 5.27526424 4.07426236 0.576
v 5.63806744 5.60955689 0.576
v 1.1842033 5.65381333 3.888
v 1.07329513 14.25488038 0.576
v 2.1644962 15.15463025 0.576
v 5.46802475 9.49299409 0.576
v 3.25569728 16.05438013 0.576
v 1.07329513 14.25488038 3.888
v 2.1644962 15.15463025 3.888
v 3.25569728 16.05438013 3.888
v 6.88073475 1.94916854 0.576
v 8.64706974 1.94916854 0.576
v 6.02410347 5.60572099 0.576
v 6.80032119 4.89862438 0.576
v 11.66404822 1.94916854 0
v 5.88400504 8.2592675 0.576
v 5.96827892 11.09251131 0.576
v 7.37993884 11.17903235 0.576
v 8.79159875 11.26555339 0.576
v 10.20325867 11.35207443 0.576
v 11.61491859 11.43859547 0.576
v 5.96827892 11.09251131 3.888
v 7.37993884 11.17903235 3.888
v 8.79159875 11.26555339 3.888
v 10.20325867 11.35207443 3.888
v 11.61491859 11.43859547 3.888
v 1.1842033 5.65381333 7.2
v 1.1842033 5.65381333 10.512
v 1.32494481 0.49161345 13.824
v 1.32223763 0.59090902 13.824
v 1.62251375 0.18110123 13.824
v 2.44697707 1.94916854 13.824
v 2.44697707 1.94916854 14.4
v 1.1842033 5.65381333 13.824
v 2.5834645 5.63990938 13.824
v 3.66862928 4.01282067 13.824
v 3.68246149 4.00368434 13.824
v 3.90298722 4.48892885 13.824
v 3.98272571 5.62600543 13.824
v 4.93729059 7.79601983 13.824
v 1.07329513 14.25488038 7.2
v 2.1644962 15.15463025 7.2
v 1.07329513 14.25488038 10.512
v 2.1644962 15.15463025 10.512
v 3.25569728 16.05438013 7.2
v 3.25569728 16.05438013 10.512
v 1.07329513 14.25488038 13.824
v 2.1644962 15.15463025 13.824
v 5.46802475 9.49299409 13.824
v 3.25569728 16.05438013 13.824
v 6.79295221 1.94916854 13.824
v 6.88073475 1.94916854 13.824
v 5.89322648 2.54344799 13.824
v 6.10709392 2.56635197 13.824
v 6.6643336 2.43094946 13.824
v 8.64706974 1.94916854 13.824
v 11.66404822 1.94916854 14.4
v 5.96827892 11.09251131 7.2
v 7.37993884 11.17903235 7.2
v 5.96827892 11.09251131 10.512
v 7.37993884 11.17903235 10.512
v 8.79159875 11.26555339 7.2
v 10.20325867 11.35207443 7.2
v 11.61491859 11.43859547 7.2
v 8.79159875 11.26555339 10.512
v 10.20325867 11.35207443 10.512
v 11.61491859 11.43859547 10.512
v 5.96827892 11.09251131 13.824
v 7.37993884 11.17903235 13.824
v 8.79159875 11.26555339 13.824
v 10.20325867 11.35207443 13.824
v 11.61491859 11.43859547 13.824
f 1 6 2
f 2 7 3
f 1 5 6
f 2 6 7
f 3 8 4
f 4 10 9
f 4 9 16
f 3 7 8
f 4 8 10
f 1 2 11
f 1 11 5
f 2 3 12
f 3 4 13
f 4 16 13
f 5 19 6
f 6 20 7
f 5 18 19
f 6 19 20
f 7 21 8
f 8 30 10
f 7 20 21
f 8 21 30
f 5 14 18
f 9 10 17
f 9 15 16
f 9 17 15
f 10 30 38
f 10 38 17
f 2 12 11
f 5 11 14
f 3 13 12
f 14 33 18
f 15 55 16
f 13 16 56
f 15 17 57
f 15 53 55
f 15 57 53
f 17 38 61
f 17 61 57
f 18 23 19
f 19 26 20
f 18 22 23
f 19 23 26
f 20 27 21
f 21 31 30
f 20 26 27
f 21 27 31
f 18 33 22
f 22 25 23
f 23 28 26
f 22 24 25
f 23 25 28
f 26 29 27
f 27 32 31
f 26 28 29
f 27 29 32
f 29 41 32
f 22 34 24
f 24 35 25
f 25 36 28
f 28 37 29
f 29 37 41
f 30 31 39
f 30 39 38
f 31 32 40
f 31 40 39
f 32 41 40
f 22 33 34
f 24 34 35
f 25 35 36
f 28 36 37
f 38 39 62
f 38 62 61
f 39 40 64
f 40 41 66
f 37 67 41
f 39 64 62
f 40 66 64
f 12 13 58
f 11 12 59
f 11 59 14
f 14 59 60
f 14 60 33
f 33 60 68
f 16 55 56
f 13 56 58
f 53 54 74
f 53 57 54
f 12 58 59
f 55 53 97
f 54 57 61
f 54 61 62
f 55 97 56
f 56 97 58
f 59 58 97
f 59 97 139
f 59 139 60
f 33 68 34
f 34 68 69
f 34 69 35
f 36 70 37
f 35 71 36
f 35 69 71
f 54 62 64
f 54 64 65
f 41 67 66
f 37 70 67
f 66 115 64
f 36 71 70
f 67 70 115
f 66 67 115
f 60 139 68
f 70 139 115
f 71 139 70
f 68 139 69
f 69 139 71
f 53 74 77
f 53 77 76
f 53 76 97
f 64 115 65
f 65 115 113
f 115 114 113
f 52 63 73
f 63 65 111
f 52 73 72
f 52 74 54
f 52 72 74
f 74 72 75
f 82 84 80
f 82 98 84
f 99 88 131
f 99 131 104
f 94 93 96
f 95 96 83
f 100 95 84
f 101 96 95
f 94 96 102
f 94 103 138
f 100 84 98
f 100 98 88
f 99 100 88
f 99 105 100
f 100 101 95
f 101 102 96
f 100 106 101
f 99 104 105
f 100 105 106
f 94 102 103
f 101 107 102
f 102 108 103
f 101 106 107
f 102 107 108
f 104 141 105
f 105 144 106
f 104 140 141
f 105 141 144
f 106 145 107
f 107 146 108
f 106 144 145
f 103 108 138
f 107 145 146
f 63 112 73
f 63 111 112
f 65 113 111
f 111 118 112
f 118 111 119
f 136 122 120
f 104 131 140
f 140 131 142
f 142 131 150
f 135 133 136
f 138 137 134
f 151 122 136
f 153 136 137
f 138 153 137
f 140 143 141
f 141 147 144
f 140 142 143
f 141 143 147
f 144 148 145
f 108 146 138
f 145 149 146
f 144 147 148
f 138 146 149
f 145 148 149
f 142 151 143
f 143 152 147
f 131 122 151
f 142 150 151
f 150 131 151
f 151 136 152
f 152 136 153
f 143 151 152
f 147 153 148
f 148 154 149
f 138 154 153
f 147 152 153
f 138 149 154
f 148 153 154
f 78 44 42
f 42 45 43
f 42 44 45
f 85 46 44
f 44 47 45
f 44 46 47
f 109 48 46
f 46 49 47
f 46 48 49
f 110 50 48
f 48 51 49
f 48 50 51
f 78 75 73
f 78 73 85
f 75 72 73
f 77 74 75
f 81 77 75
f 78 79 75
f 79 81 75
f 78 85 44
f 81 80 77
f 77 80 93
f 93 80 83
f 81 82 80
f 83 80 84
f 83 84 95
f 81 98 82
f 85 73 109
f 109 73 110
f 85 109 46
f 78 43 79
f 78 42 43
f 79 43 86
f 79 86 81
f 81 86 87
f 43 90 86
f 86 91 87
f 87 92 89
f 43 45 90
f 86 90 91
f 87 91 92
f 81 87 98
f 87 88 98
f 89 88 87
f 45 123 90
f 90 124 91
f 91 127 92
f 45 47 123
f 90 123 124
f 91 124 127
f 89 131 88
f 89 92 131
f 96 93 83
f 110 73 116
f 116 73 112
f 109 110 48
f 113 114 111
f 116 112 118
f 111 114 119
f 110 116 50
f 116 118 117
f 119 114 135
f 114 133 135
f 119 136 118
f 136 120 118
f 119 135 136
f 117 118 120
f 117 120 121
f 121 120 122
f 47 125 123
f 123 126 124
f 124 128 127
f 47 49 125
f 123 125 126
f 124 126 128
f 92 127 131
f 127 128 131
f 116 117 51
f 116 51 50
f 117 129 51
f 117 121 129
f 121 130 129
f 49 129 125
f 125 130 126
f 126 132 128
f 49 51 129
f 125 129 130
f 126 130 132
f 121 122 130
f 132 122 131
f 128 132 131
f 130 122 132
f 133 137 136
f 134 137 133
f 52 54 63
f 54 65 63
f 76 77 93
f 76 93 94
f 76 94 97
f 94 138 97
f 115 133 114
f 115 134 133
f 97 138 139
f 115 138 134
f 115 139 138
