# MAAS exact compiled indexed mesh
# program_hash 2403210f05a51061aaffeb7beb9b685a38f6895d08917243a349a533284c3d3d
# geometry_hash d0cdd3c148d9ceba53ed186cf757a889eda00dfec03e5485e3696fe2834db32c
v -13.35583686 -12.74875337 0
v -15.17708735 -10.3204194 3.56923077
v -13.35583686 -10.3204194 3.56923077
v -13.35583686 -12.74875337 3.69230769
v -13.35583686 -10.3204194 3.69230769
v -3.64250096 -12.74875337 0
v -3.64250096 -12.74875337 3.69230769
v -3.64250096 -10.3204194 3.69230769
v -3.64250096 -5.46375144 7.13846154
v -15.17708735 -10.3204194 7.26153846
v -12.74875337 -9.7133359 7.26153846
v -12.74875337 -9.7133359 10.83076923
v -12.14166988 -7.28500193 10.83076923
v -12.14166988 -7.28500193 14.4
v -12.14166988 -0.60708349 10.83076923
v -12.14166988 -0.60708349 14.4
v -4.85666795 -9.7133359 7.26153846
v -3.64250096 -10.3204194 7.26153846
v -4.85666795 -9.7133359 10.83076923
v -6.07083494 -7.28500193 10.83076923
v -6.07083494 -7.28500193 14.4
v -4.85666795 -5.46375144 7.26153846
v -3.64250096 -5.46375144 7.26153846
v -4.85666795 -5.46375144 10.83076923
v -6.07083494 -1.01180582 10.83076923
v -6.18121376 -0.60708349 10.83076923
v -6.07083494 -0.60708349 10.83076923
v -6.07083494 -0.60708349 14.4
v -15.17708735 1.21416699 3.56923077
v -13.35583686 1.21416699 3.56923077
v -13.35583686 1.21416699 3.69230769
v -12.74875337 1.21416699 7.13846154
v -13.35583686 11.53458638 0
v -13.35583686 11.53458638 3.69230769
v -3.64250096 4.85666795 0
v -3.64250096 4.85666795 3.56923077
v -6.67791843 1.21416699 7.13846154
v -6.67791843 2.42833398 7.13846154
v -4.85666795 1.21416699 7.13846154
v -6.67791843 4.85666795 3.69230769
v -3.64250096 1.21416699 3.69230769
v -3.64250096 1.21416699 7.13846154
v -3.64250096 4.85666795 3.69230769
v -6.07083494 11.53458638 0
v -6.07083494 12.74875337 0
v -6.67791843 11.53458638 3.56923077
v -6.67791843 12.74875337 3.56923077
v -6.07083494 11.53458638 3.56923077
v -6.07083494 12.74875337 3.56923077
v -6.67791843 11.53458638 3.69230769
v -15.17708735 1.21416699 7.26153846
v -12.74875337 1.21416699 7.26153846
v -12.74875337 1.21416699 10.83076923
v -6.67791843 4.85666795 7.26153846
v -6.67791843 1.21416699 10.83076923
v -6.67791843 2.42833398 10.83076923
v -6.67791843 12.74875337 7.26153846
v 3.64250096 -11.53458638 0
v 3.64250096 -11.53458638 3.69230769
v 3.64250096 -3.03541747 3.69230769
v 3.64250096 -3.03541747 7.13846154
v 6.67791843 -5.46375144 7.13846154
v 6.67791843 -3.03541747 7.13846154
v 13.35583686 -11.53458638 0
v 13.35583686 -11.53458638 3.69230769
v 13.35583686 -3.03541747 3.56923077
v 15.17708735 -3.03541747 3.56923077
v 13.35583686 -3.03541747 3.69230769
v 6.67791843 -3.03541747 7.26153846
v 6.67791843 -0 7.26153846
v 6.67791843 -5.46375144 10.83076923
v 6.67791843 -0 10.83076923
v 12.74875337 -0 7.26153846
v 15.17708735 -3.03541747 7.26153846
v 12.74875337 -0 10.83076923
v 3.64250096 4.85666795 0
v 3.64250096 4.85666795 3.56923077
v 6.07083494 5.76729319 0
v 3.64250096 2.42833398 7.13846154
v 3.64250096 4.85666795 3.69230769
v 3.64250096 6.43508503 0
v 6.07083494 11.53458638 0
v 6.07083494 12.74875337 0
v 6.07083494 11.53458638 3.56923077
v 6.07083494 11.57505862 3.56923077
v 6.07083494 12.74875337 3.56923077
v 6.07083494 10.92750289 3.69230769
v 6.07083494 11.53458638 3.69230769
v 6.07083494 12.74875337 3.69230769
v 13.35583686 11.53458638 0
v 13.35583686 10.92750289 3.56923077
v 15.17708735 10.92750289 3.56923077
v 13.35583686 10.92750289 3.69230769
v 13.35583686 11.53458638 3.69230769
v 3.64250096 2.42833398 7.26153846
v 3.64250096 4.85666795 7.26153846
v 3.64250096 6.35992232 7.26153846
v 4.24958446 2.42833398 7.26153846
v 4.24958446 2.42833398 10.83076923
v 4.24958446 6.76692691 7.26153846
v 4.24958446 9.7133359 7.26153846
v 6.07083494 9.7133359 7.26153846
v 6.07083494 10.92750289 7.26153846
v 6.07083494 12.74875337 7.26153846
v 4.24958446 9.7133359 10.83076923
v 12.74875337 9.7133359 7.26153846
v 15.17708735 10.92750289 7.26153846
v 12.74875337 9.7133359 10.83076923
f 1 4 3
f 1 3 30
f 1 6 4
f 4 5 3
f 4 7 5
f 1 33 6
f 4 6 7
f 6 8 7
f 6 41 8
f 5 7 8
f 6 35 36
f 6 43 41
f 6 36 43
f 1 30 34
f 1 34 33
f 30 31 34
f 31 41 34
f 34 41 40
f 33 44 35
f 33 34 44
f 34 46 44
f 34 40 50
f 34 50 46
f 6 33 35
f 40 41 43
f 44 46 48
f 58 64 59
f 59 65 60
f 58 59 76
f 59 77 76
f 58 76 64
f 59 60 77
f 59 64 65
f 64 76 78
f 64 90 65
f 65 90 66
f 60 65 68
f 65 66 68
f 76 81 78
f 60 80 77
f 64 78 90
f 78 82 90
f 82 84 90
f 84 88 90
f 88 94 90
f 66 90 91
f 90 94 91
f 87 93 88
f 88 93 94
f 91 94 93
f 35 76 36
f 44 49 45
f 44 48 49
f 35 44 81
f 44 45 81
f 45 49 86
f 35 81 76
f 36 76 77
f 45 82 81
f 45 83 82
f 45 86 83
f 78 81 82
f 82 83 85
f 82 85 84
f 83 86 85
f 88 85 89
f 85 86 89
f 2 30 3
f 2 3 5
f 2 5 10
f 2 10 51
f 5 18 10
f 2 29 30
f 2 51 29
f 5 8 18
f 8 9 18
f 8 41 9
f 9 41 42
f 10 18 11
f 10 11 52
f 10 52 51
f 11 18 17
f 17 18 23
f 17 23 22
f 18 9 23
f 29 31 30
f 29 51 32
f 29 32 37
f 29 42 31
f 29 37 39
f 29 39 42
f 31 42 41
f 51 52 32
f 40 43 54
f 43 80 54
f 36 77 43
f 46 49 48
f 46 47 49
f 40 54 50
f 46 50 47
f 50 57 47
f 50 54 57
f 47 89 49
f 47 57 104
f 54 97 57
f 43 77 80
f 54 80 96
f 47 104 89
f 49 89 86
f 84 85 88
f 87 88 104
f 88 89 104
f 87 104 103
f 54 96 97
f 57 97 101
f 57 101 102
f 57 102 103
f 57 103 104
f 97 100 101
f 9 62 23
f 9 42 61
f 22 23 24
f 23 62 24
f 24 56 27
f 24 27 25
f 24 71 56
f 37 38 39
f 38 42 39
f 38 79 42
f 37 55 38
f 38 55 56
f 38 56 99
f 55 26 27
f 55 27 56
f 9 61 63
f 9 63 62
f 62 63 69
f 24 62 71
f 62 69 71
f 69 70 72
f 69 72 71
f 56 71 99
f 71 72 99
f 42 79 61
f 38 95 79
f 38 99 95
f 95 99 98
f 60 61 80
f 60 63 61
f 60 68 63
f 68 67 63
f 66 67 68
f 67 74 63
f 63 74 69
f 69 74 70
f 70 74 73
f 61 79 80
f 80 79 96
f 66 92 67
f 66 91 92
f 67 92 74
f 74 92 107
f 87 103 107
f 87 107 93
f 91 93 92
f 93 107 92
f 79 95 96
f 95 98 100
f 95 100 96
f 96 100 97
f 73 74 107
f 102 106 103
f 103 106 107
f 73 107 106
f 11 19 12
f 12 19 13
f 19 20 13
f 11 12 52
f 12 53 52
f 12 13 53
f 53 13 15
f 11 17 19
f 17 22 24
f 17 24 19
f 19 24 20
f 24 25 20
f 32 52 55
f 32 55 37
f 52 53 55
f 53 15 26
f 53 26 55
f 70 73 75
f 70 75 72
f 98 99 100
f 99 105 100
f 72 105 99
f 100 105 101
f 101 105 102
f 73 108 75
f 72 75 105
f 102 108 106
f 102 105 108
f 73 106 108
f 75 108 105
f 21 13 20
f 14 13 21
f 14 15 13
f 14 16 15
f 14 21 16
f 16 26 15
f 16 21 28
f 16 28 26
f 21 20 25
f 28 25 27
f 28 27 26
f 21 25 28
