# MAAS exact compiled indexed mesh
# program_hash 4fec5dbe2ae86f5ee2e97cd216f0d9c98bb9b4a31f0528dd9946bd427cfea551
# geometry_hash 8c3c2b97848e6d9b486b032a15b8d9ba192a1a3ca7e0ee9cc995a0665805c2ea
v -8.86092826 -8.50267649 0
v -2.73900119 -8.50267649 7.095
v -2.73900119 -0.11734554 6.99856631
v -2.73900119 -0.1496384 7.095
v -8.86092826 -8.50267649 16.5
v -2.73900119 -8.50267649 9.405
v -2.73900119 -0.85303757 9.19550686
v -2.73900119 -0.18853683 9.405
v -8.86092826 8.50267649 0
v -2.73900119 0.18853683 7.095
v -2.73900119 1.02032118 7.095
v -2.73900119 1.02032118 7.35723163
v -8.86092826 8.50267649 16.5
v -2.73900119 8.0421409 11.99983609
v -2.73900119 8.50267649 9.71614862
v -2.73900119 8.50267649 10.62457407
v 1.6805015 -10.92695961 0
v 1.6805015 -8.50267649 0
v 1.6805015 -10.92695961 7.095
v 1.6805015 -8.50267649 7.095
v 3.30210943 -8.50267649 7.095
v 1.6805015 -2.03875327 0
v 1.6805015 -0.11734554 6.99856631
v 1.6805015 -0.11988543 7.00615099
v 8.86093506 -10.92695961 0
v 8.86093506 -10.92695961 7.095
v 8.14442472 -1.2634771 7.095
v 8.14442472 -0.1923033 7.095
v 8.14442472 -0.1508031 6.99856631
v 8.14442472 -0.11988543 7.00615099
v 8.14442472 -0.1496384 7.095
v 8.86093506 -0.1923033 7.095
v 8.86093506 -0.1508031 6.99856631
v 1.6805015 -10.92695961 9.405
v 1.6805015 -8.50267649 9.405
v 1.6805015 -10.92695961 16.5
v 1.6805015 -8.50267649 16.5
v 2.47703615 -8.50267649 16.5
v 1.6805015 -0 9.46443887
v 6.2688549 -7.06987862 9.405
v 8.86093506 -10.92695961 9.405
v 8.86093506 -10.92695961 16.5
v 8.14442472 -0.24229245 9.405
v 8.14442472 -0.18853683 9.405
v 8.86093506 -0.24229245 9.405
v 1.6805015 0 7.03556113
v 1.6805015 8.50267649 0
v 1.6805015 10.92695961 0
v 6.90677188 1.02032118 7.095
v 8.14442472 -0 7.03556113
v 8.14442472 0.18853683 7.095
v 8.14442472 0.24229245 7.095
v 8.14442472 1.02032118 7.095
v 8.14442472 1.31123515 7.095
v 8.86093506 0.24229245 7.095
v 8.86093506 1.31123515 7.095
v 8.14442472 1.02032118 7.35723163
v 8.14442472 1.31123515 7.35723163
v 8.86093506 1.31123515 7.35723163
v 8.86093506 10.92695961 0
v 1.6805015 8.0421409 11.99983609
v 1.6805015 8.50267649 9.12142665
v 1.6805015 10.92695961 9.71614862
v 1.6805015 8.21620942 11.48002866
v 1.6805015 8.50267649 11.55030439
v 1.6805015 10.92695961 10.62457407
v 1.6805015 10.33511611 11.99983609
v 1.6805015 8.50267649 16.5
v 1.6805015 10.92695961 16.5
v 8.14442472 -0 9.46443887
v 8.14442472 8.50267649 9.12142665
v 8.14442472 8.50267649 9.71614862
v 8.86093506 10.92695961 9.71614862
v 8.14442472 8.50267649 10.62457407
v 8.14442472 8.21620942 11.48002866
v 8.14442472 8.50267649 11.55030439
v 8.86093506 10.92695961 10.62457407
v 8.86093506 10.33511611 11.99983609
v 8.06440041 8.50267649 16.5
v 8.86093506 10.92695961 16.5
f 1 2 6
f 1 9 22
f 1 18 20
f 1 22 18
f 1 20 2
f 1 6 5
f 1 5 13
f 5 6 37
f 1 13 9
f 9 47 22
f 9 15 47
f 5 68 13
f 9 13 15
f 13 16 15
f 13 65 16
f 13 68 65
f 31 29 30
f 31 28 29
f 6 35 37
f 5 37 79
f 37 38 79
f 44 70 43
f 15 62 47
f 51 50 52
f 57 53 54
f 57 54 58
f 57 58 72
f 5 79 68
f 15 72 62
f 16 65 74
f 72 71 62
f 74 65 76
f 72 58 71
f 74 76 75
f 17 26 19
f 17 18 60
f 17 25 26
f 25 33 26
f 17 60 25
f 25 55 33
f 25 56 55
f 26 33 32
f 36 38 37
f 34 42 36
f 36 42 38
f 34 41 42
f 41 45 42
f 42 79 38
f 42 45 80
f 60 18 22
f 60 22 47
f 48 60 47
f 48 63 60
f 25 60 56
f 56 60 59
f 63 73 60
f 59 60 73
f 66 69 77
f 69 68 79
f 42 80 79
f 69 80 77
f 69 79 80
f 45 78 80
f 77 80 78
f 2 20 4
f 2 4 7
f 2 7 6
f 6 8 35
f 6 7 8
f 10 11 12
f 20 21 4
f 4 21 27
f 4 27 28
f 4 28 31
f 8 40 35
f 8 43 40
f 8 44 43
f 11 49 12
f 10 51 11
f 11 51 49
f 12 49 53
f 12 53 57
f 51 52 49
f 19 21 20
f 19 26 21
f 26 27 21
f 26 32 27
f 32 28 27
f 34 35 41
f 41 35 40
f 41 40 45
f 45 40 43
f 53 49 52
f 55 53 52
f 56 54 53
f 56 58 54
f 55 56 53
f 56 59 58
f 4 8 7
f 3 46 10
f 4 3 14
f 3 10 14
f 4 14 8
f 10 12 14
f 8 14 39
f 12 15 14
f 15 16 14
f 16 64 14
f 3 24 23
f 3 23 46
f 4 31 3
f 3 31 24
f 31 30 24
f 8 39 44
f 44 39 70
f 10 46 50
f 10 50 51
f 12 57 72
f 14 61 39
f 12 72 15
f 14 64 61
f 16 74 64
f 74 75 64
f 50 46 24
f 30 50 24
f 32 29 28
f 33 30 29
f 33 50 30
f 32 33 29
f 45 43 70
f 55 52 50
f 33 55 50
f 59 71 58
f 70 39 64
f 63 62 73
f 67 76 65
f 66 78 67
f 45 70 64
f 45 64 75
f 73 62 71
f 66 77 78
f 67 78 76
f 59 73 71
f 45 75 78
f 78 75 76
f 17 20 18
f 17 19 20
f 23 24 46
f 34 37 35
f 34 36 37
f 48 47 63
f 63 47 62
f 61 64 39
f 67 65 69
f 66 67 69
f 69 65 68
