# MAAS exact compiled indexed mesh
# program_hash 2a63683b353091dcc082a4f06a73aabf7e6fc43e9ef8514c8043172d3e4c2c53
# geometry_hash 9ac64df4589699f5ab3ae3ac10233ba05b9d2bfb15bc3a0ca3a0d0cb6d37a7c8
v -11.0809413 -8.40879049 0
v -4.07387885 -0.94229543 0
v -11.0809413 -8.40879049 9.9
v -4.07387885 -0.94229543 9.9
v -11.0809413 0.25289362 0
v -11.77111638 5.35753863 0
v -11.0809413 0.25289362 9.9
v -11.77111638 5.35753863 9.9
v 11.69197067 -8.40879049 0
v 11.69197067 -8.40879049 9.9
v 11.69197067 1.18933106 0
v 11.77111963 1.20003242 0
v 11.69197067 1.78543071 0
v 11.61210155 2.37615545 0
v 11.69197067 2.37615545 0
v 10.79645679 8.40879424 0
v 11.69197067 1.18933106 9.9
v 11.69197067 1.21400995 9.9
v 11.77111963 1.20003242 9.9
v 11.69197067 1.78543071 9.9
v 11.61210155 2.37615545 9.9
v 11.69197067 2.37615545 9.9
v 10.79645679 8.40879424 9.9
f 1 3 5
f 1 5 2
f 1 2 9
f 1 9 3
f 3 7 5
f 3 4 7
f 3 10 4
f 9 2 11
f 9 11 17
f 3 9 10
f 9 17 10
f 10 17 4
f 15 13 14
f 15 22 13
f 15 14 21
f 22 20 13
f 15 21 22
f 17 18 4
f 22 21 20
f 6 2 5
f 6 5 8
f 6 11 2
f 8 5 7
f 8 7 4
f 8 4 18
f 6 8 23
f 12 11 6
f 6 13 12
f 6 14 13
f 6 16 14
f 6 23 16
f 12 17 11
f 12 13 19
f 16 21 14
f 8 18 20
f 8 20 21
f 8 21 23
f 12 19 17
f 19 13 20
f 19 18 17
f 18 19 20
f 16 23 21
