# MAAS exact compiled indexed mesh
# program_hash 850fba8c85472b1c0c221e6d07feae95acbdbb8df57fd3578975482a3961c264
# geometry_hash 5c8c5dd8625d4030a45af16417450317f8f6ed2a8beeea32922d4b947f06c628
v -19.96841697 -9.61442298 0
v -9.61442298 -9.61442298 0
v -19.96841697 -9.61442298 8.81012658
v -21.44755897 -7.76549549 8.05063291
v -19.96841697 -7.76549549 8.05063291
v -19.96841697 -7.76549549 8.81012658
v -21.44755897 -7.76549549 12
v -9.61442298 -9.61442298 8.81012658
v -9.61442298 -7.76549549 8.05063291
v -9.61442298 -7.76549549 8.81012658
v -19.96841697 9.61442298 0
v -9.61442298 9.61442298 0
v -21.44755897 7.76549549 8.05063291
v -19.96841697 7.76549549 8.05063291
v -19.96841697 7.76549549 8.81012658
v -19.96841697 9.61442298 8.81012658
v -21.44755897 7.76549549 12
v -9.61442298 7.76549549 8.05063291
v -9.61442298 7.76549549 8.81012658
v -9.61442298 9.61442298 8.81012658
v 9.61442298 -9.61442298 0
v 19.96841697 -9.61442298 0
v 11.15273066 -7.67369402 3.7848
v 19.96841697 -7.67369402 3.7848
v 11.15273066 -0.57440409 3.7848
v 19.96841697 -0.57440409 3.7848
v 9.61442298 -9.61442298 8.81012658
v 9.61442298 -7.76549549 8.05063291
v 9.61442298 -7.76549549 8.81012658
v 11.15273066 -7.67369402 8.2152
v 19.96841697 -9.61442298 8.81012658
v 19.96841697 -7.76549549 8.05063291
v 19.96841697 -7.67369402 8.05063291
v 21.44755897 -7.76549549 8.05063291
v 21.44755897 -7.67369402 8.05063291
v 21.44755897 -7.67369402 8.2152
v 19.96841697 -7.76549549 8.81012658
v 21.44755897 -7.76549549 12
v 11.15273066 -0.57440409 8.2152
v 19.96841697 -0.57440409 8.05063291
v 21.44755897 -0.57440409 8.05063291
v 21.44755897 -0.57440409 8.2152
v 9.61442298 9.61442298 0
v 19.96841697 9.61442298 0
v 9.61442298 7.76549549 8.05063291
v 9.61442298 7.76549549 8.81012658
v 9.61442298 9.61442298 8.81012658
v 19.96841697 7.76549549 8.05063291
v 21.44755897 7.76549549 8.05063291
v 19.96841697 7.76549549 8.81012658
v 19.96841697 9.61442298 8.81012658
v 21.44755897 7.76549549 12
f 1 2 3
f 1 3 5
f 2 8 3
f 1 11 2
f 1 5 14
f 2 12 8
f 8 12 9
f 3 6 5
f 3 8 6
f 6 8 10
f 8 9 10
f 1 16 11
f 2 11 12
f 1 14 16
f 11 20 12
f 11 16 20
f 9 12 18
f 12 20 18
f 14 15 16
f 15 19 16
f 16 19 20
f 18 20 19
f 21 27 28
f 21 28 45
f 21 22 27
f 22 26 24
f 22 24 31
f 22 31 27
f 21 43 22
f 22 44 26
f 27 29 28
f 27 31 29
f 32 24 33
f 31 24 32
f 29 31 37
f 31 32 37
f 21 47 43
f 21 45 47
f 22 43 44
f 43 51 44
f 43 47 51
f 44 48 26
f 44 51 48
f 45 46 47
f 48 40 26
f 46 50 47
f 47 50 51
f 48 51 50
f 4 5 6
f 4 6 7
f 6 10 7
f 4 14 5
f 4 7 17
f 9 28 10
f 7 10 29
f 7 38 17
f 4 13 14
f 4 17 13
f 13 15 14
f 13 17 15
f 15 17 19
f 9 18 45
f 18 19 46
f 17 52 19
f 10 28 29
f 7 29 38
f 9 45 28
f 32 33 35
f 32 35 34
f 34 35 36
f 32 34 37
f 29 37 38
f 34 36 38
f 34 38 37
f 38 36 42
f 38 42 49
f 17 38 52
f 18 46 45
f 19 52 46
f 49 41 40
f 49 42 41
f 38 49 52
f 48 49 40
f 48 50 49
f 46 52 50
f 49 50 52
f 23 30 24
f 23 24 25
f 23 25 39
f 25 26 39
f 25 24 26
f 23 39 30
f 30 33 24
f 30 35 33
f 30 36 35
f 30 42 36
f 30 39 42
f 39 26 40
f 39 40 41
f 39 41 42
