# MAAS exact compiled indexed mesh
# program_hash bb4aa7b0a3ece2a2e91eb7e460b67c09cbac434b93c34fd1978a669822882623
# geometry_hash e4b0549cb238f242c67d8b8b9f7fcdcdb72e56770d2f794cabcc1b9fa73c92d9
v -10.96009842 -7.22370123 0
v -3.28802953 -7.22370123 0
v -3.28802953 -3.75632464 0
v -10.96009842 -7.22370123 14.79448295
v -8.82594805 -5.77047959 14.79448295
v -8.82594805 -3.31562107 10.94791738
v -7.6801215 -2.54852179 11.56712064
v -7.6801215 -2.54852179 16.49999094
v -6.92719325 -2.0358252 16.49999094
v -6.92719325 -1.16975112 13.78942389
v -3.28802953 -3.75632464 11.63846437
v -3.28802953 -7.22370123 14.79448295
v -3.28802953 -5.77047959 14.79448295
v -2.95838905 -2.0358252 16.49999094
v -2.95838905 -1.16975112 13.78942389
v -10.96009842 7.22370123 0
v -8.82594805 1.44969251 14.79448295
v -6.92719325 0.51145152 16.49999094
v -7.6801215 1.44969251 14.79448295
v -7.6801215 2.54852179 14.79448295
v -7.6801215 2.54852179 16.49999094
v -10.96009842 7.22370123 14.79448295
v -2.95838905 0.51145152 16.49999094
v 3.28802953 -7.22370123 0
v 3.28802953 -3.75632464 0
v 10.96009842 -7.22370123 0
v 2.42349696 -3.75632464 11.63846437
v 2.42349696 -3.75632464 14.79448295
v 3.28802953 -7.22370123 14.79448295
v 3.28802953 -3.75632464 14.79448295
v 0.05332395 -2.54852179 11.56712064
v 2.42349696 -3.31562107 10.94791738
v 0.05332395 -2.54852179 16.49999094
v 10.96009842 -7.22370123 14.79448295
v 10.96009842 7.22370123 0
v 0.05332395 1.44969251 14.79448295
v 2.42349696 1.44969251 14.79448295
v 0.05332395 2.54852179 14.79448295
v 0.05332395 2.54852179 16.49999094
v 10.96009842 7.22370123 14.79448295
f 1 3 2
f 1 2 12
f 1 16 3
f 16 25 3
f 1 12 4
f 4 5 17
f 4 13 5
f 4 12 13
f 1 4 22
f 1 22 16
f 4 17 22
f 17 19 20
f 17 20 22
f 20 38 22
f 16 22 40
f 16 26 25
f 26 24 25
f 26 34 24
f 26 35 34
f 37 28 30
f 34 29 24
f 40 30 29
f 34 40 29
f 16 35 26
f 16 40 35
f 36 37 38
f 22 38 40
f 37 40 38
f 34 35 40
f 37 30 40
f 8 14 9
f 7 8 19
f 8 9 18
f 7 33 8
f 8 33 14
f 7 31 33
f 14 33 39
f 8 20 19
f 8 21 20
f 8 18 21
f 18 23 21
f 20 21 38
f 21 23 39
f 14 39 23
f 21 39 38
f 31 36 33
f 33 36 39
f 36 38 39
f 5 11 6
f 5 6 17
f 6 7 17
f 5 13 11
f 6 32 7
f 6 11 32
f 7 32 31
f 7 19 17
f 32 11 27
f 32 27 28
f 32 28 37
f 31 32 37
f 31 37 36
f 9 10 18
f 9 15 10
f 10 23 18
f 9 14 15
f 10 15 23
f 14 23 15
f 2 3 11
f 27 11 3
f 12 2 11
f 13 12 11
f 3 25 27
f 24 29 25
f 29 30 25
f 27 25 30
f 27 30 28
