# MAAS exact compiled indexed mesh
# program_hash f7e95c8ddd1804bcbfb0ee5a0cd9cf4e2ded09a2dfe6dfebd16ea12672595120
# geometry_hash e61d7c5d608867de1ad1507469b81dda77719853538da89f226d5192ba60a00c
v -14.83873037 -10.59909312 0
v -14.83873037 -10.59909312 4.75299
v -6.35945587 -10.59909312 4.75299
v -6.35945587 -10.59909312 9.9
v -14.83873037 10.59909312 0
v -14.83873037 10.59909312 4.75299
v -6.35945587 10.59909312 4.75299
v -6.35945587 10.59909312 9.9
v 6.35945587 -10.59909312 0
v 6.35945587 -10.59909312 4.75101
v 6.35945587 -10.59909312 4.75299
v 14.83873037 -10.59909312 4.75101
v 14.83873037 -10.59909312 9.9
v 6.35945587 10.59909312 0
v 6.35945587 10.59909312 4.75101
v 6.35945587 10.59909312 4.75299
v 14.83873037 10.59909312 4.75101
v 14.83873037 10.59909312 9.9
f 4 3 11
f 4 8 3
f 8 7 3
f 12 11 10
f 4 11 12
f 4 13 8
f 4 12 13
f 12 17 13
f 17 15 16
f 18 16 7
f 8 18 7
f 8 13 18
f 13 17 18
f 17 16 18
f 1 9 2
f 1 5 9
f 1 2 6
f 2 10 3
f 2 9 10
f 1 6 5
f 6 7 5
f 5 14 9
f 5 15 14
f 5 7 16
f 5 16 15
f 10 11 3
f 9 15 10
f 9 14 15
f 12 10 15
f 12 15 17
f 2 3 6
f 6 3 7
