# MAAS exact compiled indexed mesh
# program_hash 8e2ca1d0fa47d71fd8b2e31bf40e032239105746e80b5d7d1453400c6ad3a99a
# geometry_hash 2ffeeaf1265a069c862100b0f71efe710465102db5fffa2aa4c33ba34a21bf7f
v -18.88852799 -12.78107086 0
v -18.88852799 -11.08246407 0
v -18.88852799 -12.78107086 1.98
v -18.88852799 -11.08246407 1.98
v -18.88852799 -9.38385729 0
v -18.88852799 -7.6852505 0
v -18.88852799 -9.38385729 1.98
v -18.88852799 -7.6852505 1.98
v -10.32779161 -11.80569815 0
v -10.709895 -10.15062655 0
v -10.32779161 -11.80569815 1.98
v -11.09199838 -8.49555495 0
v -11.47410177 -6.84048334 0
v -18.88852799 -12.78107086 3.96
v -18.88852799 -11.08246407 3.96
v -18.88852799 -9.38385729 3.96
v -18.88852799 -7.6852505 3.96
v -10.32779161 -11.80569815 3.96
v -18.88852799 -5.98664372 0
v -18.88852799 -4.28803694 0
v -18.88852799 -5.98664372 1.98
v -18.88852799 -4.28803694 1.98
v -11.85620516 -5.18541174 0
v -12.23830854 -3.53034014 0
v -12.23830854 -3.53034014 1.98
v -18.88852799 -5.98664372 3.96
v -18.88852799 -4.28803694 3.96
v -12.23830854 -3.53034014 3.96
v -2.95049767 -7.40287984 0
v -2.20587747 -8.92957751 0
v -2.20587747 -8.92957751 1.98
v -2.20587747 -8.92957751 3.96
v -5.18435828 -2.82278685 0
v -5.92897849 -1.29608919 0
v -5.92897849 -1.29608919 1.98
v -3.69511788 -5.87618218 0
v -4.43973808 -4.34948452 0
v -5.92897849 -1.29608919 3.96
v -18.88852799 -12.78107086 5.94
v -18.88852799 -11.08246407 5.94
v -18.88852799 -9.38385729 5.94
v -18.88852799 -7.6852505 5.94
v -10.32779161 -11.80569815 5.94
v -18.88852799 -12.78107086 7.92
v -18.88852799 -11.08246407 7.92
v -18.88852799 -12.78107086 9.9
v -18.88852799 -11.08246407 9.9
v -18.88852799 -9.38385729 7.92
v -18.88852799 -7.6852505 7.92
v -18.88852799 -9.38385729 9.9
v -18.88852799 -7.6852505 9.9
v -10.32779161 -11.80569815 7.92
v -10.32779161 -11.80569815 9.9
v -10.709895 -10.15062655 9.9
v -11.09199838 -8.49555495 9.9
v -11.47410177 -6.84048334 9.9
v -18.88852799 -5.98664372 5.94
v -18.88852799 -4.28803694 5.94
v -12.23830854 -3.53034014 5.94
v -18.88852799 -5.98664372 7.92
v -18.88852799 -4.28803694 7.92
v -18.88852799 -5.98664372 9.9
v -18.88852799 -4.28803694 9.9
v -12.23830854 -3.53034014 7.92
v -11.85620516 -5.18541174 9.9
v -12.23830854 -3.53034014 9.9
v -1.64330532 -8.57117952 4.95
v -1.63722621 -8.5673067 4.95
v -1.64026439 -8.56924223 4.95044905
v -1.64330532 -8.57117952 4.95144362
v -1.64195127 -8.5703169 4.95099975
v -1.64156611 -8.57007152 4.95077048
v -2.20587747 -8.92957751 5.94
v -1.64330532 -7.36692522 4.95
v -2.20587747 -8.92957751 7.92
v -3.22448893 -7.49990524 9.9
v -2.85640334 -7.59580181 9.9
v -3.43561556 -6.40824078 9.9
v -2.90346738 -7.13653821 9.9
v -2.20587747 -8.92957751 9.9
v -1.64330532 -8.57117952 9.65403727
v -1.64330532 -8.57117952 9.9
v -1.64330532 -7.36692522 9.9
v -1.64330532 -6.69567775 9.9
v -5.92897849 -1.29608919 5.94
v -4.17092078 -0.17608291 4.95
v -5.92897849 -1.29608919 7.92
v -5.18435828 -2.82278685 9.9
v -5.92897849 -1.29608919 9.9
v -4.17092078 -6.04467283 9.9
v -4.43973808 -4.34948452 9.9
v -4.17092078 -0.17608291 9.9
v -2.06072618 -2.36393182 9.9
v -0.28395326 2.30018851 0
v -0.28395326 2.30018851 1.98
v -0.28395326 2.30018851 3.96
v -7.18113365 3.26e-06 4.95
v -4.17092078 3.26e-06 4.95
v -3.89452087 3.26e-06 4.95
v -4.17092078 1.43418574 4.95
v -2.35326317 2.30018851 4.95
v -0.28395326 2.30018851 4.95
v -2.35326317 2.30018851 5.94
v -7.18113365 3.26e-06 9.9
v -2.35326317 2.30018851 7.92
v -4.17092078 3.26e-06 9.9
v -0.92389277 0.9801231 9.9
v -2.35326317 2.30018851 9.9
v 1.85398251 -0.3399423 0
v 2.9229504 -1.6600077 0
v 3.99191828 -2.9800731 0
v 5.06088617 -4.3001385 0
v 5.06088617 -4.3001385 1.98
v 5.06088617 -4.3001385 3.96
v 4.79358887 -4.3001385 4.95
v 5.06088617 -4.3001385 4.95
v 5.48345992 -3.87012433 4.95
v 5.85370034 -3.49336494 4.95
v 4.79358887 -4.3001385 5.94
v 5.06088617 -4.3001385 5.94
v 2.00701958 -6.24566609 7.64519573
v 1.93484805 -1.6600077 9.9
v 0.50547764 -0.3399423 9.9
v 3.36421846 -2.9800731 9.9
v 4.79358887 -4.3001385 7.92
v 5.06088617 -4.3001385 7.92
v 4.79358887 -4.3001385 9.9
v 0.78501462 0.9801231 0
v 5.74592429 6.02838145 0
v 8.42296511 3.93684794 0
v 7.0844447 4.9826147 0
v 4.40740388 7.07414821 0
v 4.40740388 7.07414821 1.98
v 7.90461456 12.78107738 0
v 9.44407512 12.06321513 0
v 7.90461456 12.78107738 1.98
v 9.44407512 12.06321513 1.98
v 4.40740388 7.07414821 3.96
v 7.90461456 12.78107738 3.96
v 9.44407512 12.06321513 3.96
v 9.76148552 2.89108118 0
v 11.10000594 1.84531442 0
v 11.10000594 1.84531442 1.98
v 11.10000594 1.84531442 3.96
v 10.98353568 11.34535288 0
v 12.52299623 10.62749064 0
v 14.06245679 9.90962839 0
v 10.98353568 11.34535288 1.98
v 12.52299623 10.62749064 1.98
v 14.06245679 9.90962839 1.98
v 15.60191734 9.19176614 0
v 15.60191734 9.19176614 1.98
v 10.98353568 11.34535288 3.96
v 12.52299623 10.62749064 3.96
v 14.06245679 9.90962839 3.96
v 15.60191734 9.19176614 3.96
v 9.28662371 3.26e-06 4.95
v 5.70958759 6.02838145 9.9
v 9.28919273 3.93684794 9.9
v 7.49939016 4.9826147 9.9
v 3.91978502 7.07414821 4.95
v 4.40740388 7.07414821 4.95
v 3.91978502 7.07414821 5.94
v 5.85370034 9.43428954 4.95
v 7.90461456 12.78107738 4.95
v 8.40491697 12.54778253 4.95
v 8.59608029 12.78107738 4.95
v 8.59608029 12.78107738 5.94
v 3.91978502 7.07414821 7.92
v 3.91978502 7.07414821 9.9
v 8.59608029 12.78107738 7.92
v 8.59608029 12.78107738 9.9
v 10.44403382 3.26e-06 4.95
v 11.10000594 1.84531442 4.95
v 12.86879787 1.84531442 4.95
v 12.86879787 1.84531442 5.94
v 12.86879787 1.84531442 7.92
v 11.0789953 2.89108118 9.9
v 12.86879787 1.84531442 9.9
v 10.65456998 12.06321513 5.94
v 12.71305966 11.34535288 5.94
v 15.60191734 9.19176614 4.95
v 18.8885287 9.19176614 4.95
v 18.8885287 9.19176614 5.94
v 14.77154934 10.62749064 5.94
v 16.83003902 9.90962839 5.94
v 10.65456998 12.06321513 7.92
v 12.71305966 11.34535288 7.92
v 10.65456998 12.06321513 9.9
v 12.71305966 11.34535288 9.9
v 18.8885287 9.19176614 7.92
v 18.8885287 9.19176614 9.9
v 14.77154934 10.62749064 7.92
v 16.83003902 9.90962839 7.92
v 14.77154934 10.62749064 9.9
v 16.83003902 9.90962839 9.9
f 1 4 2
f 2 7 5
f 1 2 9
f 1 9 3
f 2 5 10
f 1 3 4
f 2 4 7
f 5 8 6
f 6 21 19
f 5 6 12
f 6 19 13
f 5 7 8
f 6 8 21
f 2 10 9
f 3 9 11
f 5 12 10
f 6 13 12
f 3 15 4
f 3 14 15
f 4 16 7
f 4 15 16
f 3 11 14
f 14 40 15
f 15 41 16
f 14 18 39
f 7 17 8
f 7 16 17
f 8 26 21
f 8 17 26
f 16 42 17
f 17 57 26
f 11 18 14
f 19 20 23
f 19 22 20
f 20 24 23
f 20 25 24
f 19 21 22
f 20 22 25
f 13 19 23
f 23 24 33
f 24 25 35
f 21 27 22
f 21 26 27
f 22 27 28
f 22 28 25
f 26 58 27
f 27 59 28
f 25 28 38
f 9 10 30
f 9 30 11
f 11 30 31
f 10 12 29
f 12 13 36
f 10 29 30
f 12 36 29
f 30 29 112
f 11 31 18
f 18 31 32
f 18 32 43
f 32 68 67
f 13 23 37
f 23 33 37
f 13 37 36
f 24 34 33
f 24 35 34
f 29 36 111
f 37 110 36
f 37 33 109
f 33 34 128
f 33 128 109
f 34 35 95
f 25 38 35
f 28 85 38
f 35 38 96
f 38 86 99
f 14 39 40
f 15 40 41
f 39 45 40
f 39 44 45
f 40 48 41
f 40 45 48
f 39 43 44
f 16 41 42
f 17 42 57
f 41 49 42
f 41 48 49
f 42 60 57
f 42 49 60
f 18 43 39
f 43 52 44
f 44 47 45
f 45 50 48
f 44 52 46
f 44 46 47
f 45 47 50
f 46 53 47
f 47 54 50
f 48 51 49
f 49 62 60
f 48 50 51
f 49 51 62
f 50 55 51
f 51 56 62
f 46 52 53
f 47 53 54
f 50 54 55
f 51 55 56
f 26 57 58
f 27 58 59
f 57 61 58
f 57 60 61
f 58 61 64
f 58 64 59
f 28 59 85
f 59 64 87
f 60 63 61
f 61 66 64
f 60 62 63
f 62 65 63
f 61 63 66
f 63 65 66
f 56 65 62
f 65 88 66
f 64 66 89
f 32 73 43
f 43 73 52
f 52 73 75
f 32 67 73
f 68 72 69
f 73 67 70
f 52 75 53
f 53 80 54
f 53 75 80
f 54 76 55
f 55 90 56
f 54 80 76
f 55 78 90
f 55 76 79
f 55 79 78
f 75 121 81
f 80 77 76
f 75 81 80
f 80 81 82
f 80 82 77
f 82 83 77
f 77 83 84
f 38 85 86
f 59 87 85
f 85 87 86
f 56 91 65
f 65 91 88
f 56 90 91
f 64 89 87
f 87 89 86
f 89 92 86
f 66 88 89
f 88 92 89
f 78 79 93
f 91 90 92
f 91 92 88
f 34 94 128
f 34 95 94
f 35 96 95
f 38 99 102
f 38 102 96
f 30 112 31
f 31 113 32
f 32 114 68
f 114 70 71
f 114 71 72
f 114 72 68
f 29 111 112
f 36 110 111
f 31 112 113
f 37 109 110
f 112 111 142
f 112 142 113
f 110 141 111
f 113 142 143
f 32 113 114
f 114 117 120
f 113 143 114
f 114 143 144
f 114 144 117
f 117 144 118
f 144 157 118
f 73 70 114
f 73 120 75
f 75 120 121
f 73 114 120
f 120 126 121
f 94 129 128
f 109 130 110
f 109 128 131
f 128 129 131
f 94 132 129
f 94 133 132
f 94 95 133
f 109 131 130
f 110 130 141
f 111 141 142
f 95 96 138
f 95 138 133
f 96 102 162
f 96 162 138
f 129 132 135
f 129 145 131
f 130 131 146
f 132 133 136
f 132 136 134
f 132 134 135
f 129 135 145
f 134 137 135
f 134 136 137
f 133 138 139
f 138 162 164
f 133 139 136
f 136 140 137
f 136 139 140
f 138 165 139
f 138 164 165
f 139 165 166
f 141 130 147
f 141 151 142
f 142 151 143
f 144 174 157
f 143 152 144
f 144 156 174
f 131 145 146
f 130 146 147
f 141 147 151
f 143 151 152
f 135 148 145
f 145 149 146
f 146 150 147
f 145 148 149
f 135 137 148
f 146 149 150
f 151 147 152
f 152 147 150
f 144 152 156
f 156 182 174
f 148 153 154
f 137 153 148
f 137 140 153
f 148 154 149
f 149 155 150
f 149 154 155
f 139 182 140
f 139 166 182
f 140 182 153
f 154 182 155
f 153 182 154
f 152 150 156
f 156 155 182
f 150 155 156
f 71 121 72
f 70 81 71
f 71 81 121
f 68 69 116
f 69 72 120
f 69 120 116
f 72 121 126
f 72 126 120
f 116 120 117
f 76 77 79
f 77 84 79
f 78 93 90
f 122 79 84
f 122 93 79
f 90 93 92
f 107 92 93
f 107 93 123
f 97 104 103
f 97 103 100
f 100 103 101
f 101 103 163
f 103 105 169
f 104 105 103
f 104 108 105
f 104 106 108
f 106 92 107
f 106 107 108
f 105 108 170
f 74 115 83
f 119 83 115
f 119 115 118
f 119 118 173
f 119 173 176
f 119 176 125
f 119 125 83
f 127 84 83
f 127 124 84
f 122 84 124
f 125 127 83
f 122 123 93
f 125 177 127
f 127 179 124
f 122 124 178
f 125 176 177
f 127 177 179
f 101 163 161
f 103 169 163
f 107 158 108
f 107 123 160
f 122 159 123
f 105 170 169
f 107 160 158
f 108 158 170
f 123 159 160
f 124 179 178
f 122 178 159
f 161 163 168
f 163 169 171
f 161 168 164
f 168 166 164
f 167 166 168
f 167 168 180
f 163 171 168
f 168 171 187
f 169 170 172
f 170 158 189
f 158 160 190
f 169 172 171
f 170 189 172
f 171 172 189
f 173 175 176
f 175 183 176
f 176 184 177
f 159 178 196
f 177 191 179
f 179 192 178
f 167 180 181
f 167 185 186
f 167 181 185
f 168 187 180
f 180 187 188
f 181 193 185
f 181 188 193
f 180 188 181
f 176 183 184
f 177 184 191
f 186 191 184
f 167 184 183
f 167 186 184
f 185 194 186
f 185 193 194
f 186 194 191
f 160 159 195
f 160 195 190
f 159 196 195
f 171 189 187
f 188 195 193
f 187 190 188
f 158 190 189
f 187 189 190
f 188 190 195
f 194 192 191
f 178 192 196
f 179 191 192
f 193 196 194
f 193 195 196
f 194 196 192
f 67 68 74
f 67 83 70
f 67 74 83
f 70 83 81
f 81 83 82
f 68 116 74
f 116 115 74
f 116 117 115
f 117 118 115
f 98 99 86
f 98 86 106
f 106 86 92
f 173 118 157
f 97 100 98
f 97 98 104
f 98 106 104
f 165 164 166
f 98 100 99
f 100 102 99
f 100 101 102
f 101 162 102
f 101 161 162
f 161 164 162
f 173 157 174
f 173 174 175
f 175 174 183
f 167 182 166
f 183 174 182
f 167 183 182
