# MAAS exact compiled indexed mesh
# program_hash a8a817590ea031793b3f8ed76f58738654dbc1db887e3d1f992ffb349ab65b1f
# geometry_hash f84e50004182e7c3862416a5250811ecffa192371cd7b9c22ee7517abd381edc
v -12.43177076 -7.44711223 0
v -7.28059739 -0.15228602 0
v -6.33224746 -1.01544867 0
v -0.38207159 -7.44711223 0
v -5.8958015 -3.1393143 0
v -12.43177076 -7.44711223 16.5
v -0.38207159 -7.44711223 16.5
v -5.8958015 -3.1393143 16.5
v -12.43177076 4.53617373 0
v -4.79552509 3.02846147 0
v -4.79552509 4.53617373 0
v -3.50351378 4.68216054 0
v -12.43177076 4.53617373 16.5
v -4.79552509 3.02846147 16.5
v -4.79552509 4.53617373 16.5
v -3.50351378 4.68216054 16.5
v 1.23810214 -8.71293068 0
v 2.2270679 -7.44711223 0
v 5.74976655 -7.44711223 0
v 1.65472789 -3.54771328 0
v 5.74976655 -2.93826357 0
v 1.23810214 -8.71293068 16.5
v 1.34020289 -7.44711223 16.5
v 2.2270679 -7.44711223 16.5
v 1.50366405 -5.42056331 16.5
v 5.74976655 -7.44711223 16.5
v 5.74976655 -2.93826357 16.5
v 1.97340198 0.40312498 0
v 8.46573178 8.71292819 0
v 12.43177423 5.61431624 0
v 1.97340198 0.40312498 16.5
v 8.46573178 8.71292819 16.5
v 12.43177423 5.61431624 16.5
f 9 2 1
f 1 3 5
f 1 2 3
f 1 5 20
f 1 20 4
f 1 4 7
f 1 7 6
f 6 7 8
f 1 6 13
f 6 8 15
f 9 10 2
f 9 11 10
f 1 13 9
f 9 13 11
f 6 15 13
f 11 13 15
f 15 8 14
f 19 18 21
f 19 26 18
f 19 21 27
f 26 24 18
f 19 27 26
f 25 23 24
f 26 25 24
f 26 27 25
f 28 5 3
f 28 20 5
f 8 7 23
f 8 23 14
f 16 23 25
f 31 16 25
f 3 2 10
f 12 3 10
f 28 3 12
f 12 10 16
f 16 10 14
f 16 14 23
f 17 4 20
f 17 7 4
f 17 18 22
f 17 29 18
f 17 20 29
f 29 21 18
f 30 27 21
f 17 22 7
f 22 18 24
f 22 23 7
f 22 24 23
f 31 25 27
f 20 28 29
f 29 30 21
f 30 29 32
f 30 33 27
f 31 27 33
f 30 32 33
f 31 33 32
f 11 15 10
f 15 14 10
f 28 12 16
f 28 31 29
f 28 16 31
f 31 32 29
