# MAAS exact compiled indexed mesh
# program_hash 5e7d6c1b2b7c4b75d1eeeddd6c39aa3ddd6eb48030c9dca776899794c036a1fd
# geometry_hash 8f11ca8fccfa11a57efa3914d998624af75cff72ac082e5c244626662599b3f1
v -12.28212507 -8.09503698 4.18656716
v -12.28212507 -8.09503698 16.5
v -8.84313005 4.53322071 0
v -8.84313005 8.09503698 0
v -12.28212507 8.09503698 4.18656716
v -8.84313005 4.53322071 4.18656716
v -8.84313005 8.09503698 4.18656716
v -12.28212507 8.09503698 16.5
v 12.28212507 -8.09503698 4.18656716
v 0 -8.09503698 10.34328358
v 0 -8.09503698 16.5
v 3.40539113 -0.8095037 11.33574627
v 2.48098926 -0.22666104 12.48237313
v 2.48098926 -0.22666104 16.15177612
v 3.40539113 -0.22666104 12.48237313
v 3.40539113 -0.8095037 15.50753731
v 3.40539113 -0.22666104 15.50753731
v 12.28212507 -8.09503698 10.34328358
v 12.28212507 -8.09503698 16.5
v 11.72775907 -0.8095037 11.33574627
v 9.8011358 -0.22666104 15.50753731
v 9.8011358 -0.22666104 16.15177612
v 11.72775907 -0.8095037 15.50753731
v 8.84313005 4.53322071 0
v 8.84313005 8.09503698 0
v 8.84313005 4.53322071 4.18656716
v 8.84313005 8.09503698 4.18656716
v 12.28212507 8.09503698 4.18656716
v 0 8.09503698 10.34328358
v 3.40539113 8.09503698 11.33574627
v 2.48098926 8.09503698 12.48237313
v 0 8.09503698 16.5
v 2.48098926 8.09503698 16.15177612
v 3.40539113 8.09503698 12.48237313
v 12.28212507 8.09503698 10.34328358
v 11.72775907 8.09503698 11.33574627
v 9.8011358 8.09503698 15.50753731
v 9.8011358 8.09503698 16.15177612
v 11.72775907 8.09503698 15.50753731
v 12.28212507 8.09503698 16.5
f 1 10 2
f 1 2 8
f 2 10 11
f 2 11 32
f 1 5 6
f 5 7 6
f 5 29 7
f 1 6 26
f 29 27 7
f 1 8 5
f 2 32 8
f 5 8 29
f 8 32 29
f 1 9 10
f 1 26 9
f 9 28 18
f 9 18 10
f 9 26 27
f 9 27 28
f 28 27 29
f 18 28 35
f 28 29 35
f 10 18 11
f 11 18 19
f 11 19 40
f 18 35 19
f 11 40 32
f 29 31 30
f 31 34 30
f 29 30 36
f 29 32 31
f 31 32 33
f 32 40 33
f 19 35 40
f 29 36 35
f 33 40 38
f 35 36 39
f 35 39 40
f 37 38 39
f 38 40 39
f 13 14 17
f 13 17 15
f 14 22 17
f 17 22 21
f 13 31 14
f 13 15 34
f 14 33 22
f 13 34 31
f 14 31 33
f 21 22 38
f 22 33 38
f 21 38 37
f 12 15 16
f 15 17 16
f 16 17 21
f 12 16 20
f 16 23 20
f 16 21 23
f 12 34 15
f 12 30 34
f 12 20 36
f 20 23 39
f 21 39 23
f 12 36 30
f 20 39 36
f 21 37 39
f 3 6 4
f 4 6 7
f 3 4 24
f 3 26 6
f 4 7 25
f 3 24 26
f 4 25 24
f 25 7 27
f 24 27 26
f 24 25 27
