# MAAS exact compiled indexed mesh
# program_hash ed474cd83c79ba4e1f6bc23367d744a3022b344d8626a0e76e69ee8612cfa476
# geometry_hash ff7a967f1a2ea8ccac0afe5ba338609ac115fd7290e0729e85b597f5ee3e236f
v -11.24979082 -7.86997553 0
v -5.17925107 -7.86997553 16.5
v -0.22696865 -0.35227925 8.25
v -0.22696865 -0.35227925 16.5
v -11.24979082 7.16541703 0
v -0.22696865 3.40656889 8.25
v -0.21453079 3.03650728 12.375
v -0.22696865 3.22132907 12.375
v -0.22696865 3.12602398 12.48501023
v -0.17727335 2.66811594 16.5
v -0.22696865 3.03567026 16.5
v -0.22696865 7.16541703 8.25
v -0.22696865 6.80302035 12.375
v -5.17925107 7.16541703 16.5
v -0.22696865 6.80263161 12.56361272
v -0.47205936 6.42130862 16.5
v -0.22696865 6.45444618 16.5
v -0.22696865 7.16541703 16.5
v 4.72531378 -7.86997553 0
v 0.01352266 -0.35227925 12.375
v 5.41077821 -0.35227925 12.375
v 0.01485544 -0.35227925 12.81601838
v 0.27762996 -0.69642152 16.5
v 0.53314507 -0.87068587 16.5
v 0.2311001 -0.35227925 16.5
v 5.31807558 -0.35227925 15.40184126
v 5.53739973 -0.35227925 16.5
v 10.79585352 -7.86997553 16.5
v 7.76058365 -0.35227925 8.25
v 9.52159208 -0.07563589 12.375
v 5.78807616 -0.31838646 16.5
v 10.79585352 -0.35227925 16.5
v 4.72531378 7.16541703 0
v 5.28444244 3.40656889 16.5
v 3.7668075 7.16541703 8.25
v 5.032056 7.15693426 12.375
v 4.78080871 7.13152425 16.5
v 7.76058365 3.40656889 8.25
v 9.26920564 3.67472948 12.375
v 11.24979195 0.42006648 16.5
v 7.76058365 7.16541703 8.25
v 9.01681921 7.42509485 12.375
v 10.74615823 4.14502184 16.5
v 10.2425245 7.8699772 16.5
f 1 5 19
f 1 19 2
f 1 2 14
f 2 23 4
f 24 23 2
f 2 4 11
f 1 14 5
f 5 33 19
f 5 12 33
f 5 14 12
f 2 16 14
f 2 11 16
f 14 18 12
f 16 18 14
f 18 16 17
f 19 33 29
f 2 19 28
f 28 24 2
f 4 23 25
f 28 27 24
f 19 29 28
f 28 29 32
f 28 32 27
f 33 12 35
f 33 35 41
f 33 38 29
f 33 41 38
f 17 16 11
f 25 23 24
f 10 25 24
f 10 24 34
f 34 24 27
f 31 34 27
f 36 12 13
f 36 35 12
f 10 37 11
f 37 17 11
f 36 13 15
f 37 15 17
f 10 34 37
f 36 15 37
f 29 38 39
f 29 39 30
f 31 43 34
f 31 40 43
f 30 43 40
f 30 39 43
f 42 41 35
f 42 38 41
f 36 42 35
f 39 38 42
f 36 44 42
f 37 34 44
f 36 37 44
f 34 43 44
f 39 44 43
f 39 42 44
f 4 20 3
f 4 22 20
f 3 6 8
f 3 8 9
f 4 3 9
f 4 9 11
f 18 13 12
f 18 15 13
f 18 17 15
f 4 25 22
f 32 29 21
f 32 21 26
f 32 26 27
f 7 3 20
f 7 6 3
f 7 8 6
f 7 20 22
f 7 22 10
f 7 10 9
f 7 9 8
f 10 11 9
f 31 26 21
f 31 27 26
f 29 30 21
f 30 31 21
f 10 22 25
f 30 40 31
