# MAAS exact compiled indexed mesh
# program_hash 2f5d9d6817029b7d2e8a7f48ef2965cdce15106e0b7edaefc47310abf3d53388
# geometry_hash 2054e769dd2323d4dc617913c955bc18a6aa615997bc1ee4e6633069d3fdcb51
v -13.46168075 -12.84978617 0
v -15.29736449 -10.40220785 3.56923077
v -13.46168075 -10.40220785 3.56923077
v -13.46168075 -12.84978617 3.69230769
v -13.46168075 -10.40220785 3.69230769
v -3.67136748 -12.84978617 0
v -3.67136748 -12.84978617 3.69230769
v -3.67136748 -10.40220785 3.69230769
v -3.67136748 -5.50705122 3.56923077
v -3.67136748 -5.50705122 3.69230769
v -15.29736449 -10.40220785 7.26153846
v -12.84978617 -9.79031327 7.26153846
v -12.84978617 -9.79031327 10.83076923
v -12.23789159 -7.34273495 10.83076923
v -12.23789159 -7.34273495 14.4
v -12.23789159 -0.61189458 10.83076923
v -12.23789159 -0.61189458 14.4
v -4.89515664 -9.79031327 7.26153846
v -3.67136748 -10.40220785 7.26153846
v -4.89515664 -9.79031327 10.83076923
v -6.11894579 -7.34273495 10.83076923
v -6.11894579 -7.34273495 14.4
v -4.89515664 -5.50705122 7.26153846
v -3.67136748 -5.50705122 7.26153846
v -6.11894579 -0.61189458 10.83076923
v -6.11894579 -0.61189458 14.4
v -15.29736449 1.22378916 3.56923077
v -13.46168075 1.22378916 3.56923077
v -13.46168075 1.22378916 3.69230769
v -12.84978617 1.22378916 7.13846154
v -13.46168075 11.62599701 0
v -13.46168075 11.62599701 3.69230769
v -3.67136748 2.44757832 3.56923077
v -3.67136748 4.89515664 0
v -3.67136748 4.89515664 3.56923077
v -6.73084037 1.22378916 3.69230769
v -6.73084037 2.44757832 3.69230769
v -6.73084037 1.22378916 7.13846154
v -6.73084037 4.89515664 3.69230769
v -3.67136748 2.44757832 3.69230769
v -3.67136748 4.89515664 3.69230769
v -6.11894579 11.62599701 0
v -6.11894579 12.84978617 0
v -6.73084037 11.62599701 3.56923077
v -6.73084037 12.84978617 3.56923077
v -6.11894579 11.62599701 3.56923077
v -6.11894579 12.84978617 3.56923077
v -6.73084037 11.62599701 3.69230769
v -15.29736449 1.22378916 7.26153846
v -12.84978617 1.22378916 7.26153846
v -12.84978617 1.22378916 10.83076923
v -6.73084037 1.22378916 7.26153846
v -6.73084037 2.44757832 7.26153846
v -4.89515664 1.22378916 7.26153846
v -6.73084037 4.89515664 7.26153846
v -4.89515664 1.22378916 10.83076923
v -6.73084037 12.84978617 7.26153846
v 3.67136748 -11.62599701 0
v 3.67136748 -11.62599701 3.69230769
v 3.67136748 -5.50705122 3.56923077
v 3.67136748 -5.50705122 3.69230769
v 6.73084037 -5.50705122 3.69230769
v 6.73084037 -3.0594729 3.69230769
v 13.46168075 -11.62599701 0
v 13.46168075 -11.62599701 3.69230769
v 13.46168075 -3.0594729 3.56923077
v 15.29736449 -3.0594729 3.56923077
v 13.46168075 -3.0594729 3.69230769
v 6.73084037 -5.50705122 7.26153846
v 4.28326206 -0 7.26153846
v 6.73084037 -3.0594729 7.26153846
v 6.73084037 -0 7.26153846
v 4.28326206 -0 10.83076923
v 12.84978617 -0 7.26153846
v 15.29736449 -3.0594729 7.26153846
v 12.84978617 -0 10.83076923
v 3.67136748 2.44757832 3.56923077
v 3.67136748 4.89515664 0
v 3.67136748 4.89515664 3.56923077
v 6.11894579 5.81299851 0
v 3.67136748 2.44757832 3.69230769
v 3.67136748 4.89515664 3.69230769
v 3.67136748 6.48608254 0
v 6.11894579 11.62599701 0
v 6.11894579 12.84978617 0
v 6.11894579 11.62599701 3.56923077
v 6.11894579 11.66678998 3.56923077
v 6.11894579 12.84978617 3.56923077
v 6.11894579 11.01410243 3.69230769
v 6.11894579 11.62599701 3.69230769
v 6.11894579 12.84978617 3.69230769
v 13.46168075 11.62599701 0
v 13.46168075 11.01410243 3.56923077
v 15.29736449 11.01410243 3.56923077
v 13.46168075 11.01410243 3.69230769
v 13.46168075 11.62599701 3.69230769
v 3.67136748 2.44757832 7.26153846
v 3.67136748 4.89515664 7.26153846
v 3.67136748 6.41032417 7.26153846
v 4.28326206 2.44757832 7.26153846
v 4.28326206 6.82055424 7.26153846
v 4.28326206 9.79031327 7.26153846
v 6.11894579 9.79031327 7.26153846
v 6.11894579 11.01410243 7.26153846
v 6.11894579 12.84978617 7.26153846
v 4.28326206 9.79031327 10.83076923
v 12.84978617 9.79031327 7.26153846
v 15.29736449 11.01410243 7.26153846
v 12.84978617 9.79031327 10.83076923
f 1 4 3
f 1 3 28
f 1 6 4
f 3 4 5
f 4 7 5
f 1 31 6
f 4 6 7
f 6 8 7
f 6 9 8
f 5 7 8
f 8 9 10
f 6 33 9
f 6 34 35
f 6 41 33
f 6 35 41
f 1 28 32
f 1 32 31
f 28 29 32
f 29 36 37
f 29 37 32
f 32 37 39
f 31 42 34
f 31 32 42
f 32 44 42
f 32 39 48
f 32 48 44
f 6 31 34
f 37 40 39
f 39 40 41
f 33 41 40
f 42 44 46
f 58 64 59
f 59 61 60
f 59 65 61
f 58 59 78
f 59 60 78
f 58 78 64
f 59 64 65
f 61 65 62
f 62 65 63
f 64 78 80
f 64 92 65
f 65 92 66
f 63 65 68
f 65 66 68
f 60 77 78
f 77 79 78
f 78 83 80
f 77 81 79
f 79 81 82
f 64 80 92
f 80 84 92
f 84 86 92
f 86 90 92
f 90 96 92
f 66 92 93
f 92 96 93
f 89 95 90
f 90 95 96
f 93 96 95
f 34 78 35
f 42 47 43
f 42 46 47
f 34 42 83
f 42 43 83
f 43 47 88
f 34 83 78
f 35 78 79
f 43 84 83
f 43 85 84
f 43 88 85
f 80 83 84
f 84 85 87
f 84 87 86
f 85 88 87
f 87 91 90
f 87 88 91
f 2 28 3
f 2 3 5
f 2 5 11
f 2 11 49
f 5 19 11
f 2 27 28
f 2 49 27
f 5 8 19
f 8 10 24
f 8 24 19
f 11 19 12
f 11 12 50
f 11 50 49
f 19 18 12
f 19 24 18
f 24 23 18
f 27 29 28
f 27 38 29
f 27 49 30
f 27 30 38
f 29 38 36
f 49 50 30
f 39 41 55
f 41 82 55
f 35 79 41
f 44 47 46
f 44 45 47
f 39 55 48
f 44 48 45
f 45 48 57
f 48 55 57
f 45 91 47
f 45 57 105
f 55 99 57
f 41 79 82
f 55 82 98
f 45 105 91
f 47 91 88
f 86 87 90
f 89 90 105
f 90 91 105
f 89 105 104
f 55 98 99
f 57 99 102
f 57 102 103
f 57 103 104
f 57 104 105
f 99 101 102
f 9 33 77
f 9 61 10
f 10 61 24
f 24 54 23
f 69 54 24
f 53 54 69
f 36 38 37
f 37 53 40
f 37 38 52
f 37 52 53
f 40 53 81
f 33 40 81
f 53 52 54
f 9 77 60
f 9 60 61
f 24 61 69
f 61 62 69
f 62 63 71
f 62 71 69
f 53 69 70
f 69 71 70
f 71 72 70
f 33 81 77
f 53 97 81
f 53 70 97
f 70 100 97
f 63 68 71
f 67 71 68
f 66 67 68
f 67 75 71
f 71 75 72
f 75 74 72
f 81 98 82
f 81 97 98
f 66 94 67
f 66 93 94
f 67 94 75
f 75 94 108
f 89 104 108
f 89 108 95
f 93 95 94
f 94 95 108
f 97 100 101
f 97 101 98
f 98 101 99
f 75 108 74
f 104 103 107
f 104 107 108
f 108 107 74
f 15 14 21
f 15 21 22
f 15 17 14
f 17 16 14
f 15 22 17
f 26 25 16
f 17 26 16
f 17 22 26
f 22 21 25
f 22 25 26
f 13 12 20
f 13 21 14
f 13 20 21
f 13 50 12
f 13 51 50
f 13 14 51
f 51 14 16
f 20 12 18
f 20 18 23
f 20 23 56
f 56 23 54
f 20 56 21
f 56 25 21
f 52 38 30
f 56 30 50
f 56 52 30
f 51 56 50
f 51 16 56
f 56 16 25
f 56 54 52
f 73 70 72
f 76 72 74
f 73 72 76
f 73 100 70
f 106 101 100
f 73 106 100
f 73 76 106
f 106 102 101
f 106 103 102
f 76 74 109
f 109 107 103
f 106 109 103
f 109 74 107
f 76 109 106
