# MAAS exact compiled indexed mesh
# program_hash c8531a5c285cf8dac9d2111fc63e4150b0cdaa057c994a94cf4f3008f6e40f26
# geometry_hash e08888437f3a9641340ec062965cfe1e7e92ac5bd489b5e2ce848f23cbdb66ef
v -15.78898336 -10.40637539 0
v -9.47339001 -10.40637539 0
v -15.78898336 -10.40637539 8.25
v -15.78898336 -10.40637539 8.415
v -14.21008502 -8.32510032 8.415
v -9.47339001 -10.40637539 8.25
v -9.47339001 -10.40637539 8.415
v -9.47339001 -8.32510032 8.415
v -14.21008502 -8.32510032 16.5
v -9.47339001 -8.32510032 16.5
v -15.78898336 10.40637539 0
v -9.47339001 6.24382524 0
v -15.78898336 10.40637539 8.25
v -15.78898336 10.40637539 8.415
v -14.21008502 10.40637539 8.415
v -14.21008502 10.40637539 16.5
v -9.47339001 6.24382524 16.5
v -5.68403401 6.24382524 13.6570432
v -5.68403401 6.24382524 14.29805075
v -5.68403401 10.40637539 14.72540785
v -5.68403401 10.40637539 15.3664154
v 9.47339001 -10.40637539 0
v 15.78898336 -10.40637539 0
v 9.47339001 -10.40637539 8.25
v 9.47339001 -10.40637539 8.415
v 9.47339001 -8.32510032 8.415
v 9.47339001 -8.32510032 12.0615
v 15.78898336 -10.40637539 8.25
v 15.78898336 -10.40637539 8.415
v 14.21008502 -8.32510032 8.415
v 14.21008502 -8.32510032 12.0615
v 9.47339001 -8.32510032 12.6885
v 9.47339001 -8.32510032 16.5
v 14.21008502 -8.32510032 12.6885
v 14.21008502 -8.32510032 16.5
v 9.47339001 -0.55675851 11.91159798
v 9.47339001 -0.5831459 12.0615
v 14.21008502 -0.55675851 11.91159798
v 14.21008502 -0.5831459 12.0615
v 9.47339001 -0.02728803 12.6885
v 14.21008502 -0.02728803 12.6885
v 9.47339001 6.24382524 0
v 15.78898336 10.40637539 0
v 9.47339001 0.02728803 12.0615
v 9.47339001 1.24876505 12.0615
v 14.21008502 0.02728803 12.0615
v 14.21008502 1.24876505 12.0615
v 9.47339001 1.24876505 12.37500562
v 14.21008502 1.24876505 12.37500562
v 14.21008502 10.40637539 8.415
v 15.78898336 10.40637539 8.25
v 15.78898336 10.40637539 8.415
v 9.47339001 6.24382524 13.6570432
v 9.47339001 6.24382524 14.29805075
v 9.47339001 6.24382524 16.5
v 14.21008502 10.40637539 14.72540785
v 14.21008502 10.40637539 15.3664154
v 14.21008502 10.40637539 16.5
f 1 2 6
f 1 6 3
f 1 12 2
f 1 3 13
f 1 11 12
f 1 13 11
f 11 43 12
f 11 13 51
f 23 28 22
f 28 24 22
f 23 22 42
f 23 43 28
f 43 42 12
f 11 51 43
f 23 42 43
f 28 43 51
f 3 7 4
f 3 6 7
f 3 4 14
f 3 14 13
f 13 14 15
f 13 15 50
f 29 25 24
f 28 29 24
f 28 51 29
f 13 50 52
f 13 52 51
f 29 51 52
f 5 8 10
f 5 10 9
f 5 9 15
f 9 10 17
f 9 16 15
f 9 17 16
f 16 21 20
f 15 16 50
f 16 17 55
f 16 20 50
f 16 58 21
f 31 27 26
f 30 31 26
f 30 38 31
f 35 33 32
f 34 35 32
f 34 41 35
f 30 46 38
f 31 38 39
f 35 55 33
f 16 55 58
f 20 56 50
f 21 58 57
f 30 50 46
f 46 50 47
f 47 50 49
f 35 41 57
f 35 58 55
f 35 57 58
f 49 50 56
f 4 7 5
f 5 7 8
f 4 5 14
f 5 15 14
f 30 26 25
f 29 30 25
f 29 52 30
f 30 52 50
f 31 39 27
f 34 32 40
f 39 37 27
f 34 40 41
f 47 45 44
f 49 48 45
f 46 47 44
f 47 49 45
f 20 19 18
f 20 21 19
f 20 18 53
f 38 36 37
f 46 44 36
f 38 37 39
f 38 46 36
f 21 57 19
f 57 54 19
f 20 53 56
f 41 40 54
f 49 53 48
f 41 54 57
f 49 56 53
f 2 12 6
f 6 12 8
f 6 8 7
f 8 12 10
f 10 12 17
f 18 17 12
f 18 12 53
f 18 19 17
f 17 19 55
f 24 42 22
f 42 24 25
f 26 42 25
f 26 27 42
f 27 36 42
f 32 33 40
f 27 37 36
f 40 33 55
f 12 42 53
f 36 44 42
f 45 42 44
f 45 48 42
f 19 54 55
f 48 53 42
f 40 55 54
