# MAAS exact compiled indexed mesh
# program_hash 9063b724f4bdfc799a672124b6882512b819c5c472c90a6664f308def7e38d88
# geometry_hash 82cf04ea78cf22ba7367738425a8637164df650496dac06e324db1e2f1e89c4f
v -25.08686534 -18.59280251 0
v -25.08686534 -16.12181547 0
v -25.08686534 -18.59280251 3.54982897
v -25.08686534 -16.12181547 3.54982897
v -25.08686534 -13.65082843 0
v -25.08686534 -11.17984138 0
v -25.08686534 -13.65082843 3.54982897
v -25.08686534 -11.17984138 3.54982897
v -12.63344241 -17.1739142 0
v -13.18929355 -14.76625839 0
v -12.63344241 -17.1739142 3.54982897
v -13.74514469 -12.35860259 0
v -14.30099583 -9.95094678 0
v -25.08686534 -18.59280251 5.91638162
v -15.9203005 -17.54840437 5.91638162
v -12.63344241 -17.1739142 7.09965794
v -25.08686534 -8.70885434 0
v -25.08686534 -6.2378673 0
v -25.08686534 -8.70885434 3.54982897
v -25.08686534 -6.2378673 3.54982897
v -14.85684697 -7.54329098 0
v -15.41269811 -5.13563517 0
v -15.41269811 -5.13563517 3.54982897
v -25.08686534 -6.2378673 5.91638162
v -15.9203005 -5.19346916 5.91638162
v -15.41269811 -5.13563517 7.09965794
v -3.16681899 -13.82160702 0
v -3.16681899 -13.82160702 6.28615547
v -0.81838033 -12.98998128 6.28615547
v -0.81838033 -12.98998128 7.09965794
v -4.0680086 -6.32725595 0
v -5.15121802 -4.10634751 0
v -6.23442745 -1.88543907 0
v -6.23442745 -1.88543907 3.54982897
v -6.23442745 -1.88543907 7.09965794
v -12.63344241 -17.1739142 10.64948691
v -15.9203005 -17.54840437 11.83276324
v -12.63344241 -17.1739142 11.83276324
v -15.41269811 -5.13563517 10.64948691
v -15.9203005 -5.19346916 11.83276324
v -15.41269811 -5.13563517 11.83276324
v -7.94937455 -15.51519877 11.83276324
v -0.81838033 -12.98998128 10.64948691
v -7.94937455 -15.51519877 17.74914485
v -0.81838033 -12.98998128 14.19931588
v -0.81838033 -12.98998128 17.74914485
v -1.90158975 -10.76907284 17.74914485
v -7.94937455 -2.49273369 11.83276324
v -6.23442745 -1.88543907 10.64948691
v -7.94937455 -2.49273369 17.74914485
v -4.0680086 -6.32725595 17.74914485
v -2.98479918 -8.54816439 17.74914485
v -6.23442745 -1.88543907 14.19931588
v -5.15121802 -4.10634751 17.74914485
v -6.23442745 -1.88543907 17.74914485
v -3.16681899 0.06884306 0
v -3.16681899 0.06884306 6.28615547
v 1.21719028 -11.69317978 0
v 1.21719028 -11.69317978 6.28615547
v 5.08755476 -0.49451881 0
v 9.75268235 -6.25547162 0
v 9.75268235 -6.25547162 3.54982897
v 6.64259729 -2.41483642 0
v 8.19763982 -4.33515402 0
v 9.75268235 -6.25547162 7.09965794
v 9.75268235 -6.25547162 10.64948691
v 5.08755476 -0.49451881 17.74914485
v 9.75268235 -6.25547162 14.19931588
v 9.75268235 -6.25547162 17.74914485
v 6.64259729 -2.41483642 17.74914485
v 8.19763982 -4.33515402 17.74914485
v 1.21719028 2.86176499 0
v 1.97746969 3.34611639 0
v 3.53251223 1.42579879 0
v 1.97746969 3.34611639 3.54982897
v 10.74921689 8.76957081 0
v 1.21719028 2.86176499 6.28615547
v 1.97746969 3.34611639 7.09965794
v 8.80205253 10.29086233 0
v 8.80205253 10.29086233 3.54982897
v 8.80205253 10.29086233 7.09965794
v 16.59070997 4.20569622 0
v 18.53787434 2.68440469 0
v 18.53787434 2.68440469 3.54982897
v 14.64354561 5.72698775 0
v 12.69638125 7.24827928 0
v 18.53787434 2.68440469 7.09965794
v 13.88949382 18.592812 0
v 16.12896862 17.54852775 0
v 18.36844342 16.5042435 0
v 13.88949382 18.592812 3.54982897
v 16.12896862 17.54852775 3.54982897
v 18.36844342 16.5042435 3.54982897
v 25.08686782 13.37139075 0
v 25.08686782 13.37139075 3.54982897
v 20.60791822 15.45995925 0
v 22.84739302 14.415675 0
v 20.60791822 15.45995925 3.54982897
v 22.84739302 14.415675 3.54982897
v 13.88949382 18.592812 7.09965794
v 16.12896862 17.54852775 7.09965794
v 18.36844342 16.5042435 7.09965794
v 25.08686782 13.37139075 7.09965794
v 20.60791822 15.45995925 7.09965794
v 22.84739302 14.415675 7.09965794
v 1.97746969 3.34611639 10.64948691
v 1.97746969 3.34611639 14.19931588
v 1.97746969 3.34611639 17.74914485
v 3.53251223 1.42579879 17.74914485
v 10.74921689 8.76957081 17.74914485
v 8.80205253 10.29086233 10.64948691
v 8.80205253 10.29086233 14.19931588
v 8.80205253 10.29086233 17.74914485
v 18.53787434 2.68440469 10.64948691
v 18.53787434 2.68440469 14.19931588
v 16.59070997 4.20569622 17.74914485
v 18.53787434 2.68440469 17.74914485
v 14.64354561 5.72698775 17.74914485
v 12.69638125 7.24827928 17.74914485
v 13.88949382 18.592812 10.64948691
v 16.12896862 17.54852775 10.64948691
v 18.36844342 16.5042435 10.64948691
v 25.08686782 13.37139075 10.64948691
v 20.60791822 15.45995925 10.64948691
v 22.84739302 14.415675 10.64948691
v 13.88949382 18.592812 14.19931588
v 16.12896862 17.54852775 14.19931588
v 18.36844342 16.5042435 14.19931588
v 13.88949382 18.592812 17.74914485
v 16.12896862 17.54852775 17.74914485
v 18.36844342 16.5042435 17.74914485
v 25.08686782 13.37139075 14.19931588
v 25.08686782 13.37139075 17.74914485
v 20.60791822 15.45995925 14.19931588
v 22.84739302 14.415675 14.19931588
v 20.60791822 15.45995925 17.74914485
v 22.84739302 14.415675 17.74914485
f 1 4 2
f 2 7 5
f 1 2 9
f 1 9 3
f 2 5 10
f 1 3 4
f 2 4 7
f 3 11 14
f 5 8 6
f 6 19 17
f 5 6 12
f 6 17 13
f 5 7 8
f 3 24 4
f 4 24 7
f 6 8 19
f 7 24 8
f 2 10 9
f 3 9 11
f 5 12 10
f 6 13 12
f 3 14 24
f 11 15 14
f 11 16 15
f 15 16 36
f 17 20 18
f 17 18 21
f 17 19 20
f 8 24 19
f 19 24 20
f 18 20 23
f 13 17 21
f 18 22 21
f 18 23 22
f 20 25 23
f 20 24 25
f 23 25 26
f 25 40 26
f 9 10 27
f 9 27 28
f 9 28 11
f 10 12 27
f 12 13 27
f 13 31 27
f 11 28 16
f 16 30 36
f 16 28 30
f 30 28 29
f 30 29 59
f 13 21 31
f 21 22 32
f 21 32 31
f 22 33 32
f 22 34 33
f 22 23 34
f 31 56 27
f 31 32 56
f 32 33 56
f 33 34 56
f 34 35 56
f 23 26 35
f 23 35 34
f 26 49 35
f 35 57 56
f 15 38 37
f 15 36 38
f 26 40 39
f 39 40 41
f 39 41 48
f 36 43 38
f 38 43 42
f 30 43 36
f 42 43 45
f 42 46 44
f 42 45 46
f 44 46 47
f 44 52 51
f 44 47 52
f 26 39 49
f 39 48 49
f 48 53 49
f 35 49 106
f 49 53 107
f 44 54 55
f 44 55 50
f 48 50 53
f 50 55 53
f 44 51 54
f 51 52 70
f 53 55 108
f 51 67 54
f 54 109 55
f 35 78 57
f 35 106 78
f 49 107 106
f 53 108 107
f 55 109 108
f 62 59 58
f 30 59 62
f 30 65 43
f 61 58 72
f 60 63 72
f 63 64 72
f 61 62 58
f 61 72 64
f 61 64 83
f 63 82 64
f 30 62 65
f 61 83 62
f 62 83 84
f 62 84 65
f 65 84 87
f 65 87 66
f 43 66 45
f 45 68 46
f 46 69 47
f 43 65 66
f 45 66 68
f 47 71 52
f 46 68 69
f 47 69 71
f 52 71 70
f 51 70 67
f 54 67 109
f 69 117 71
f 70 71 116
f 66 87 114
f 66 114 68
f 68 114 115
f 68 115 69
f 69 115 117
f 73 74 72
f 73 72 77
f 60 72 74
f 73 76 74
f 73 77 75
f 73 75 80
f 60 85 63
f 60 74 86
f 60 86 85
f 74 76 86
f 73 79 76
f 73 80 79
f 78 77 57
f 75 77 78
f 75 78 81
f 75 81 80
f 78 111 81
f 76 79 89
f 79 80 91
f 79 91 88
f 80 81 100
f 80 100 91
f 81 120 100
f 64 82 83
f 63 85 82
f 82 85 97
f 82 94 83
f 83 94 84
f 84 95 87
f 87 103 114
f 76 90 86
f 85 86 96
f 86 90 96
f 79 88 89
f 76 89 90
f 88 92 89
f 89 93 90
f 88 91 92
f 89 92 93
f 82 97 94
f 85 96 97
f 94 97 95
f 84 94 95
f 90 98 96
f 96 99 97
f 90 93 98
f 96 98 99
f 95 97 99
f 91 101 92
f 91 100 101
f 92 102 93
f 92 101 102
f 100 121 101
f 101 122 102
f 87 95 103
f 95 99 103
f 103 105 123
f 93 104 98
f 93 102 104
f 98 104 105
f 98 105 99
f 99 105 103
f 102 124 104
f 104 125 105
f 78 106 111
f 106 107 112
f 106 112 111
f 108 109 110
f 107 108 113
f 67 70 118
f 67 119 109
f 67 118 119
f 107 113 112
f 109 119 110
f 108 110 113
f 81 111 120
f 111 112 126
f 111 126 120
f 112 113 129
f 110 130 113
f 112 129 126
f 114 123 115
f 71 117 116
f 70 116 118
f 116 137 118
f 115 132 117
f 116 117 133
f 100 120 121
f 101 121 122
f 120 127 121
f 120 126 127
f 121 128 122
f 121 127 128
f 103 123 114
f 115 123 132
f 123 125 132
f 102 122 124
f 104 124 125
f 105 125 123
f 122 134 124
f 122 128 134
f 124 134 135
f 124 135 125
f 125 135 132
f 110 119 131
f 118 136 119
f 119 136 131
f 126 130 127
f 127 131 128
f 113 130 129
f 110 131 130
f 126 129 130
f 127 130 131
f 132 135 133
f 116 133 137
f 118 137 136
f 117 132 133
f 128 136 134
f 134 137 135
f 128 131 136
f 134 136 137
f 133 135 137
f 14 25 24
f 14 15 25
f 15 40 25
f 15 37 40
f 37 38 41
f 37 41 40
f 38 42 48
f 42 44 48
f 38 48 41
f 44 50 48
f 27 57 28
f 27 56 57
f 29 28 57
f 29 57 59
f 57 77 59
f 58 59 77
f 72 58 77
