# MAAS exact compiled indexed mesh
# program_hash cdf3392c45dd6f41ca36755c6b3e987766d9e6edb1d587787e76b93036e6f805
# geometry_hash e6b63968e189de75466b7f96fa6fea443301342d8c1ed765e3c818817f8bcf27
v -16.84413507 -11.8406758 0
v -16.84413507 -4.78434894 0
v -15.47839439 -5.08676295 0
v -15.47839439 -4.78434894 0
v -11.89199506 -5.88089423 0
v -11.83641924 -4.78434894 0
v -8.64969098 -4.78434894 0
v -5.00771583 -4.78434894 0
v -1.82098758 -4.78434894 0
v -16.84413507 -11.8406758 9.9
v -20.69693506 -0.17497414 4.95
v -19.31770697 -0.17497414 4.95
v -15.47839439 -4.78434894 4.95
v -11.83641924 -4.78434894 4.95
v -11.5659343 -0.17497414 4.95
v -16.84413507 -4.78434894 9.9
v -0.91310008 -11.8406758 4.95
v -0.91310008 -11.8406758 9.9
v -0.68287034 -11.76331982 9.9
v -8.64969098 -4.78434894 4.95
v -10.18670621 -0.17497414 4.95
v -8.64969098 -0.17497414 4.95
v -5.00771583 -4.78434894 4.95
v -1.82098758 -4.78434894 4.95
v -0.91310008 -4.78434894 4.95
v -2.43493354 -0.17497414 4.95
v -1.82098758 -0.17497414 4.95
v -0.91310008 -4.88487179 9.9
v -0.91310008 -4.78434894 9.9
v -15.47839439 11.49072751 0
v -11.83641924 11.49072751 0
v -17.12317217 10.57956745 4.640625
v -17.12317217 11.70198918 4.640625
v -16.00075043 10.57956745 4.640625
v -16.00075043 11.70198918 4.640625
v -16.5619613 11.70198918 4.846875
v -16.5619613 11.84067671 4.846875
v -16.00075043 11.14077831 4.846875
v -16.00075043 11.70198918 4.846875
v -15.47839439 11.14077831 4.846875
v -15.47839439 11.49072751 4.846875
v -11.83641924 11.14077831 4.846875
v -11.83641924 11.49072751 4.846875
v -11.53093938 11.84067671 4.846875
v -10.83104098 11.14077831 4.846875
v -10.83104098 11.84067671 4.846875
v -8.64969098 11.49072751 0
v -5.00771583 11.49072751 0
v -1.82098758 11.49072751 0
v -8.99964018 11.14077831 4.846875
v -8.64969098 11.14077831 4.846875
v -8.99964018 11.84067671 4.846875
v -8.64969098 11.49072751 4.846875
v -8.29974178 11.49072751 4.846875
v -8.29974178 11.84067671 4.846875
v -20.69693506 11.49072751 4.95
v -17.12317217 10.57956745 4.95
v -17.12317217 10.57956745 5.15625
v -17.12317217 11.02853614 4.95
v -17.12317217 11.70198918 5.15625
v -16.67420347 10.57956745 4.95
v -16.00075043 10.57956745 5.15625
v -16.5619613 11.70198918 5.053125
v -16.5619613 11.84067671 5.053125
v -16.00075043 11.14077831 5.053125
v -16.00075043 11.70198918 5.053125
v -15.8620629 11.84067671 5.053125
v -16.00075043 11.70198918 5.15625
v -15.47839439 11.14077831 4.95
v -11.83641924 11.14077831 4.95
v -11.5659343 11.14077831 4.95
v -11.53093938 11.14077831 5.053125
v -11.18099018 11.14077831 4.95
v -10.83104098 11.14077831 4.95
v -10.83104098 11.14077831 5.053125
v -10.83104098 11.49072751 4.95
v -10.83104098 11.84067671 5.053125
v -8.64969098 4.96172466 4.95
v -1.09180615 0.13037058 4.95
v -0.68287034 0.30161245 4.95
v -1.4749958 3.37144155 4.95
v -8.99964018 11.14077831 4.95
v -8.99964018 11.14077831 5.053125
v -8.64969098 11.14077831 4.95
v -8.99964018 11.49072751 4.95
v -8.99964018 11.84067671 5.053125
v -8.29974178 11.14077831 4.95
v -8.29974178 11.14077831 5.053125
v -8.29974178 11.49072751 4.95
v -8.29974178 11.84067671 5.053125
v -5.00771583 11.49072751 4.95
v -2.43493354 11.49072751 4.95
v -1.82098758 11.49072751 4.95
v -0.68287034 11.49072751 4.95
v 1.82098758 -4.78434894 0
v 5.00771583 -4.78434894 0
v 8.64969098 -4.78434894 0
v 15.0231475 -11.8406758 0
v 15.0231475 -6.15008962 0
v 15.47839439 -6.15008962 0
v 11.83641924 -4.78434894 0
v 1.82098758 -4.78434894 4.95
v 5.00771583 -4.78434894 4.95
v 5.00771583 -0.17497414 4.95
v 8.64969098 -4.78434894 4.95
v 7.72517989 -1.34505849 4.95
v 8.64969098 -2.93522576 4.95
v 8.07529531 -0.17497414 4.95
v 8.64969098 -0.17497414 4.95
v 15.0231475 -11.8406758 4.95
v 15.0231475 -6.15008962 4.95
v 15.47839439 -6.15008962 4.95
v 20.08820167 -11.8406758 4.95
v 20.08820167 -6.15008962 4.95
v 20.69693506 -6.15008962 4.95
v 20.08820167 -11.8406758 9.9
v 11.83641924 -4.78434894 4.95
v 15.47839439 -4.78434894 4.95
v 11.5659343 -0.17497414 4.95
v 11.83641924 -0.17497414 4.95
v 15.47839439 -0.17497414 4.95
v 15.82706798 -4.78434894 4.95
v 20.08820167 -4.78434894 4.95
v 15.82706798 -0.17497414 4.95
v 20.69693506 -0.17497414 4.95
v 20.08820167 -4.78434894 9.9
v 1.82098758 11.49072751 0
v 5.00771583 11.49072751 0
v 8.64969098 11.49072751 0
v 11.83641924 11.49072751 0
v 15.47839439 11.49072751 0
v 8.64969098 1.74465391 4.95
v 8.64969098 4.50490552 4.95
v 1.82098758 11.49072751 4.95
v 5.00771583 11.49072751 4.95
v 8.64969098 11.49072751 4.95
v 11.5659343 11.49072751 4.95
v 11.83641924 11.49072751 4.95
v 15.47839439 11.49072751 4.95
v 15.82706798 11.49072751 4.95
v 20.69693506 11.49072751 4.95
f 1 2 3
f 1 3 5
f 1 16 2
f 2 4 3
f 2 13 4
f 5 6 7
f 6 14 7
f 1 5 98
f 1 98 17
f 5 7 8
f 5 8 9
f 8 23 9
f 7 14 20
f 9 23 24
f 1 10 16
f 1 18 10
f 10 28 16
f 2 16 13
f 13 16 14
f 14 16 20
f 1 17 18
f 10 18 28
f 18 19 28
f 20 29 23
f 23 29 24
f 24 29 25
f 20 16 29
f 16 28 29
f 5 9 98
f 9 95 98
f 95 96 98
f 96 97 98
f 17 98 110
f 95 102 96
f 97 105 101
f 96 102 103
f 97 101 98
f 98 101 99
f 98 99 111
f 98 111 110
f 101 105 117
f 3 4 5
f 4 30 5
f 5 30 6
f 6 31 14
f 4 13 40
f 13 69 40
f 14 42 70
f 6 30 31
f 4 41 30
f 30 43 31
f 4 40 41
f 14 31 42
f 30 41 43
f 31 43 42
f 13 14 69
f 14 70 69
f 7 20 22
f 7 47 8
f 8 48 23
f 7 22 51
f 22 78 51
f 8 47 48
f 7 53 47
f 47 91 48
f 7 51 53
f 47 53 54
f 47 54 91
f 51 78 84
f 54 89 91
f 23 48 91
f 20 23 91
f 20 91 22
f 9 24 27
f 24 25 80
f 24 79 27
f 24 80 79
f 9 49 95
f 9 27 93
f 9 93 49
f 49 93 94
f 49 94 134
f 81 94 93
f 25 102 80
f 95 127 102
f 49 127 95
f 49 134 127
f 102 127 134
f 80 102 134
f 80 134 94
f 96 103 104
f 103 105 106
f 105 107 106
f 96 128 97
f 97 129 105
f 96 104 135
f 105 129 107
f 107 129 109
f 109 129 133
f 96 135 128
f 97 128 129
f 128 136 129
f 128 135 136
f 129 136 133
f 104 108 132
f 104 132 135
f 132 133 135
f 133 136 135
f 99 100 111
f 100 112 111
f 99 101 100
f 100 131 112
f 101 117 120
f 100 101 130
f 100 130 131
f 101 120 138
f 112 131 118
f 118 131 121
f 101 138 130
f 130 139 131
f 121 131 139
f 130 138 139
f 17 110 18
f 18 116 19
f 19 126 28
f 25 126 102
f 102 126 103
f 25 29 126
f 28 126 29
f 18 110 113
f 113 114 116
f 18 113 116
f 19 116 126
f 114 126 116
f 103 126 105
f 105 126 117
f 117 126 118
f 118 126 122
f 122 126 123
f 114 123 126
f 26 27 81
f 27 79 81
f 26 81 92
f 81 93 92
f 107 119 106
f 106 119 108
f 108 119 132
f 132 137 133
f 119 137 132
f 122 123 124
f 114 115 123
f 124 123 140
f 115 140 123
f 115 125 140
f 125 141 140
f 15 21 71
f 78 73 71
f 21 78 71
f 78 74 73
f 78 82 74
f 78 84 82
f 74 85 76
f 74 82 85
f 11 12 56
f 12 57 56
f 12 61 57
f 56 57 59
f 103 106 104
f 104 106 108
f 117 118 121
f 117 121 120
f 107 109 119
f 110 111 112
f 110 114 113
f 110 112 114
f 112 118 122
f 112 122 114
f 114 122 125
f 114 125 115
f 122 124 125
f 22 87 78
f 79 80 81
f 80 94 81
f 22 91 87
f 78 87 84
f 87 91 89
f 26 93 27
f 26 92 93
f 15 71 73
f 15 73 74
f 15 74 82
f 15 78 21
f 15 82 78
f 78 82 84
f 74 76 85
f 74 85 82
f 11 61 12
f 11 56 57
f 11 57 61
f 56 59 57
f 120 121 139
f 120 139 138
f 109 133 119
f 119 133 137
f 124 141 125
f 124 140 141
f 50 53 51
f 50 82 85
f 50 51 84
f 50 84 82
f 50 52 53
f 50 85 52
f 53 55 54
f 52 55 53
f 52 90 55
f 54 55 89
f 82 83 85
f 82 84 83
f 83 88 86
f 83 84 88
f 84 87 88
f 83 86 85
f 52 85 86
f 52 86 90
f 86 88 90
f 87 89 88
f 88 89 90
f 55 90 89
f 36 63 37
f 38 40 69
f 38 39 40
f 39 41 40
f 36 37 44
f 36 44 39
f 37 67 44
f 39 44 41
f 41 44 43
f 42 43 45
f 42 45 73
f 43 44 45
f 44 46 45
f 44 77 46
f 45 74 73
f 45 76 74
f 45 46 76
f 37 63 64
f 37 64 67
f 63 66 64
f 38 69 65
f 64 66 67
f 65 69 72
f 65 72 66
f 66 72 67
f 69 70 72
f 67 72 77
f 44 67 77
f 42 72 70
f 42 73 72
f 72 73 75
f 72 75 77
f 73 74 75
f 74 76 75
f 75 76 77
f 46 77 76
f 32 57 59
f 32 59 33
f 33 59 60
f 32 33 34
f 32 34 57
f 34 61 57
f 34 62 61
f 34 38 62
f 34 33 35
f 33 36 35
f 35 36 39
f 33 63 36
f 34 39 38
f 34 35 39
f 58 59 57
f 58 57 61
f 58 60 59
f 33 60 63
f 58 61 62
f 58 62 68
f 38 65 62
f 58 68 60
f 63 68 66
f 63 60 68
f 62 65 68
f 65 66 68
