# MAAS exact compiled indexed mesh
# program_hash e32b287faa2f5bde0b62e94429b6a6f3bb74e2c0aafec475329011f8fc950c73
# geometry_hash 3d32e18044b3c79fc99302549df7991855e1dab7818e57e6407c91fe1da0eb14
v -12.98292094 -10.42283915 0
v -12.98292094 -10.42283915 3.3
v -11.05157733 -9.77905795 3.3
v -11.05157733 -9.77905795 6.6
v -9.12023372 -9.13527674 6.6
v -9.12023372 -9.13527674 9.9
v -7.18889011 -8.49149554 9.9
v -7.18889011 -8.49149554 13.2
v -5.2575465 -7.84771433 13.2
v -5.2575465 -7.84771433 16.5
v -12.98292094 6.74465962 0
v -12.98292094 6.74465962 3.3
v -11.05157733 6.74465962 3.3
v -11.05157733 7.38844082 3.3
v -11.05157733 7.38844082 6.6
v -9.12023372 7.38844082 6.6
v -9.12023372 8.03222203 6.6
v -9.12023372 8.03222203 9.9
v -7.18889011 8.03222203 9.9
v -7.18889011 8.67600323 9.9
v -7.18889011 8.67600323 13.2
v -5.2575465 8.67600323 13.2
v -5.2575465 9.31978444 13.2
v -5.2575465 9.31978444 16.5
v 5.2575465 -10.42283915 0
v 5.2575465 -10.42283915 3.3
v 5.2575465 -9.77905795 3.3
v 7.18889011 -9.77905795 3.3
v 7.18889011 -9.77905795 6.6
v 7.18889011 -9.13527674 6.6
v 9.12023372 -9.13527674 6.6
v 0 -0.55152736 8.25
v 5.37976948 -0.55152736 8.25
v 0 -0.55152736 16.5
v 5.37976948 -0.55152736 16.5
v 9.12023372 -9.13527674 9.9
v 9.12023372 -8.49149554 9.9
v 11.05157733 -8.49149554 9.9
v 11.05157733 -8.49149554 13.2
v 11.05157733 -7.84771433 13.2
v 12.98292094 -7.84771433 13.2
v 12.98292094 -7.84771433 16.5
v 8.93780518 -0.55152736 8.25
v 9.12023372 -0.55152736 8.25
v 9.12023372 -0.55152736 9.9
v 11.05157733 -0.55152736 9.9
v 8.52664238 -0.55152736 16.5
v 8.93780518 -0.55152736 16.5
v 11.05157733 -0.55152736 13.2
v 12.98292094 -0.55152736 13.2
v 12.98292094 -0.55152736 16.5
v 5.2575465 6.74465962 0
v 5.2575465 6.74465962 3.3
v 7.18889011 7.38844082 3.3
v 7.18889011 7.38844082 6.6
v 9.12023372 8.03222203 6.6
v 0 2.4296088 8.25
v 4.97670406 2.4296088 8.25
v 0 2.4296088 16.5
v 4.97670406 2.4296088 16.5
v 6.17991646 2.4296088 16.5
v 0 6.33864827 8.25
v 0 8.03222203 8.25
v 0 8.03222203 9.9
v 0 8.67600323 9.9
v 4.44818119 6.33864827 8.25
v 4.21920103 8.03222203 8.25
v 3.95985113 9.9504153 8.25
v 0 6.33864827 16.5
v 0 8.67600323 13.2
v 0 9.31978444 13.2
v 0 9.31978444 16.5
v 4.44818119 6.33864827 16.5
v 3.95985113 9.9504153 16.5
v 8.53473976 2.4296088 8.25
v 9.12023372 2.4296088 8.25
v 12.98292094 2.4296088 8.25
v 8.53473976 2.4296088 16.5
v 12.98292094 2.4296088 16.5
v 8.00621689 6.33864827 8.25
v 9.12023372 6.33864827 8.25
v 7.77723673 8.03222203 8.25
v 7.45401191 10.42284437 8.25
v 9.12023372 8.03222203 8.25
v 12.98292094 6.33864827 8.25
v 6.80300449 6.33864827 16.5
v 8.00621689 6.33864827 16.5
v 7.45401191 10.42284437 16.5
v 12.98292094 6.33864827 16.5
f 1 25 2
f 1 2 12
f 2 3 13
f 1 11 25
f 2 26 3
f 2 25 26
f 3 26 27
f 1 12 11
f 2 13 12
f 11 12 13
f 11 52 25
f 11 13 53
f 11 53 52
f 25 52 26
f 26 52 27
f 27 52 53
f 5 30 6
f 5 6 18
f 6 7 19
f 6 36 7
f 5 18 16
f 16 18 17
f 16 17 55
f 17 19 63
f 6 19 18
f 17 18 19
f 19 64 63
f 6 30 31
f 30 55 31
f 31 56 44
f 6 31 36
f 7 36 37
f 31 44 36
f 36 44 37
f 37 44 45
f 17 63 56
f 17 56 55
f 56 63 67
f 31 55 56
f 56 76 44
f 56 81 76
f 56 84 81
f 56 67 82
f 56 82 84
f 9 10 24
f 10 34 24
f 9 24 22
f 34 59 24
f 22 24 23
f 22 23 70
f 23 24 71
f 24 59 69
f 23 71 70
f 24 69 72
f 24 72 71
f 9 40 10
f 10 42 34
f 10 40 41
f 42 35 34
f 10 41 42
f 40 50 41
f 41 51 42
f 42 47 35
f 40 49 50
f 41 50 51
f 42 48 47
f 51 48 42
f 3 4 15
f 4 5 15
f 3 27 4
f 4 29 5
f 3 15 13
f 5 16 15
f 13 15 14
f 14 15 16
f 13 14 53
f 14 16 55
f 4 27 28
f 4 28 29
f 5 29 30
f 27 54 28
f 28 54 29
f 29 54 30
f 27 53 54
f 14 54 53
f 14 55 54
f 30 54 55
f 7 8 21
f 8 9 21
f 7 37 8
f 8 39 9
f 7 21 19
f 19 21 20
f 20 21 22
f 9 22 21
f 19 20 64
f 20 22 65
f 20 65 64
f 22 70 65
f 8 37 38
f 8 38 39
f 9 39 40
f 38 40 39
f 37 46 38
f 38 49 40
f 37 45 46
f 38 46 49
f 32 34 33
f 34 35 33
f 44 43 48
f 44 48 45
f 45 48 46
f 46 48 49
f 49 48 50
f 50 48 51
f 32 33 57
f 32 57 59
f 33 58 57
f 32 59 34
f 63 64 62
f 63 62 67
f 67 62 66
f 64 70 62
f 64 65 70
f 72 69 62
f 70 72 62
f 70 71 72
f 44 76 43
f 43 76 75
f 84 80 81
f 84 82 80
f 60 57 58
f 60 59 57
f 60 69 59
f 60 61 69
f 61 78 69
f 73 69 79
f 62 69 66
f 73 66 69
f 79 75 76
f 77 79 76
f 85 76 81
f 77 76 85
f 77 85 79
f 78 79 69
f 73 79 86
f 79 87 86
f 78 75 79
f 79 85 89
f 79 89 87
f 87 81 80
f 85 81 87
f 85 87 89
f 60 58 33
f 60 33 35
f 60 35 61
f 68 82 67
f 68 83 82
f 74 67 66
f 68 67 74
f 68 88 83
f 73 74 66
f 73 86 74
f 68 74 88
f 74 86 88
f 48 43 75
f 78 48 75
f 61 35 47
f 61 47 78
f 78 47 48
f 87 80 82
f 83 87 82
f 86 87 88
f 83 88 87
