# MAAS exact compiled indexed mesh
# program_hash 7f917883116e79acd3940b8ee415d6445183b236fd46ac84f354c8e8327c5e27
# geometry_hash 9702fd9b150da7451882cd55c4f07583d85b3f36b416a673c95002f21ae00596
v -12.90825126 -13.49498995 0
v -12.90825126 -13.49498995 3.68181818
v -14.66846734 -10.56129648 3.55909091
v -12.90825126 -10.56129648 3.55909091
v -12.90825126 -10.56129648 3.68181818
v -14.66846734 -1.76021608 3.55909091
v -12.90825126 -1.76021608 3.55909091
v -12.90825126 -1.76021608 3.68181818
v -7.04086432 -13.49498995 0
v -6.28378214 -8.49824753 0
v -6.37411581 -8.21434171 0
v -4.69390955 -8.21434171 0
v -7.04086432 -13.49498995 3.68181818
v -6.59636531 -10.56129648 3.68181818
v -4.69390955 -10.56129648 3.68181818
v -4.69390955 -8.21434171 3.55909091
v -4.69390955 -8.21434171 3.68181818
v -4.69390955 -1.76021608 3.55909091
v -4.69390955 -1.76021608 3.68181818
v -14.66846734 -10.56129648 7.24090909
v -14.08172864 -8.56638493 7.24090909
v -14.08172864 -8.56638493 10.8
v -14.66846734 -1.76021608 7.24090909
v -14.08172864 -2.1122593 7.24090909
v -14.08172864 -2.1122593 10.8
v -4.69390955 -10.56129648 7.24090909
v -6.45412563 -8.56638493 7.24090909
v -6.45412563 -8.56638493 10.8
v -6.45412563 -2.1122593 7.24090909
v -4.69390955 -1.76021608 7.24090909
v -6.45412563 -2.1122593 10.8
v -12.32151256 2.34695477 3.68181818
v -12.90825126 12.32151256 0
v -12.90825126 12.32151256 3.68181818
v -12.32151256 11.14803518 3.68181818
v -4.69390955 5.28064824 0
v -4.69390955 2.34695477 3.55909091
v -4.69390955 2.34695477 3.68181818
v -4.69390955 5.28064824 3.55909091
v -2.93369347 2.34695477 3.55909091
v -2.93369347 5.28064824 3.55909091
v -2.93369347 5.28064824 3.68181818
v -7.04086432 12.32151256 0
v -4.69390955 11.14803518 0
v -7.04086432 12.32151256 3.68181818
v -4.69390955 11.14803518 3.68181818
v -2.93369347 11.14803518 3.68181818
v -12.32151256 2.34695477 7.24090909
v -12.32151256 11.14803518 7.24090909
v -6.45412563 5.51534372 7.24090909
v -2.93369347 2.34695477 7.24090909
v -2.93369347 5.51534372 7.11818182
v -2.93369347 5.51534372 7.24090909
v -0.11423546 5.51534372 7.11818182
v -0.11423546 5.73467581 7.11818182
v -6.45412563 5.51534372 10.8
v -6.45412563 11.14803518 7.11818182
v -6.45412563 11.14803518 7.24090909
v -6.45412563 11.38273065 7.11818182
v -2.93369347 11.14803518 7.11818182
v -0.10817752 11.37407645 7.11818182
v -0.11423546 11.38273065 7.11818182
v -6.45412563 11.38273065 10.8
v 7.04086432 -13.49498995 0
v 7.04086432 -11.14803518 0
v 4.69390955 -8.21434171 0
v 3.52043216 -9.3878191 3.68181818
v 3.52043216 -8.21434171 3.55909091
v 3.52043216 -8.21434171 3.68181818
v 7.04086432 -13.49498995 3.68181818
v 7.04086432 -11.14803518 3.68181818
v 4.69390955 -8.21434171 3.55909091
v 5.63269146 -9.3878191 3.68181818
v 3.52043216 -1.76021608 3.55909091
v 4.69390955 -1.76021608 3.55909091
v 4.69390955 -1.76021608 3.68181818
v 12.90825126 -11.14803518 0
v 12.90825126 -11.14803518 3.68181818
v 12.90825126 -9.3878191 3.55909091
v 12.90825126 -9.3878191 3.68181818
v 14.66846734 -9.3878191 3.55909091
v 12.90825126 -1.76021608 3.55909091
v 12.90825126 -1.76021608 3.68181818
v 14.66846734 -1.76021608 3.55909091
v 3.20628463 -9.3878191 5.4
v 3.52043216 -9.3878191 5.4
v 3.42047613 -9.3878191 7.24090909
v 3.20628463 -1.76021608 5.4
v 3.52043216 -1.76021608 5.4
v 3.42047613 -1.76021608 7.24090909
v 14.35431981 -9.3878191 5.4
v 14.66846734 -9.3878191 5.4
v 14.56851131 -9.3878191 7.24090909
v 14.35431981 -1.76021608 5.4
v 14.66846734 -1.76021608 5.4
v 14.56851131 -1.76021608 7.24090909
v 4.69390955 5.28064824 0
v 4.10717085 4.10717085 3.55909091
v 4.69390955 4.10717085 3.55909091
v 4.69390955 4.10717085 3.68181818
v 4.10717085 5.28064824 3.55909091
v 4.10717085 5.28064824 3.68181818
v 4.69390955 5.28064824 3.55909091
v 4.69390955 12.32151256 0
v 4.69390955 13.49498995 0
v 4.10717085 12.32151256 3.55909091
v 4.10717085 12.32151256 3.68181818
v 4.10717085 13.49498995 3.55909091
v 4.69390955 12.32151256 3.55909091
v 4.69390955 13.49498995 3.55909091
v 4.69390955 13.49498995 3.68181818
v 12.90825126 4.10717085 3.55909091
v 12.90825126 4.10717085 3.68181818
v 13.49498995 4.10717085 3.55909091
v 12.90825126 13.49498995 0
v 12.90825126 13.49498995 3.55909091
v 12.90825126 13.49498995 3.68181818
v 13.49498995 13.49498995 3.55909091
v 3.79302333 4.10717085 5.4
v 4.10717085 4.10717085 5.4
v 4.00721482 4.10717085 7.24090909
v 3.99293539 5.51534372 7.11818182
v 4.00721482 5.51534372 7.24090909
v 6.3541696 4.69390955 7.24090909
v 5.7674309 5.51534372 7.24090909
v -0 5.51534372 8.1
v -0 5.51534372 10.8
v 0.31414753 5.51534372 10.8
v 6.76827316 4.69390955 10.8
v 6.18153446 5.51534372 10.8
v 3.79302333 13.49498995 5.4
v 4.10717085 13.49498995 5.4
v 3.99293539 11.38273065 7.11818182
v 4.00721482 11.38273065 7.24090909
v 4.00721482 13.49498995 7.24090909
v 5.7674309 11.38273065 7.24090909
v 6.3541696 12.32151256 7.24090909
v -0 11.38273065 8.1
v -0 11.38273065 10.8
v 0.31414753 11.38273065 10.8
v 6.18153446 11.38273065 10.8
v 6.76827316 12.32151256 10.8
v 13.18084242 4.10717085 5.4
v 13.49498995 4.10717085 5.4
v 12.80829523 4.69390955 7.24090909
v 13.39503392 4.10717085 7.24090909
v 13.22239879 4.69390955 10.8
v 13.18084242 13.49498995 5.4
v 13.49498995 13.49498995 5.4
v 12.80829523 12.32151256 7.24090909
v 13.39503392 13.49498995 7.24090909
v 13.22239879 12.32151256 10.8
f 1 2 4
f 1 4 7
f 1 10 9
f 1 9 13
f 1 13 2
f 1 11 10
f 2 5 4
f 2 13 5
f 5 13 14
f 1 7 34
f 1 33 11
f 8 19 32
f 11 36 12
f 12 18 16
f 12 36 37
f 12 37 18
f 18 37 19
f 1 34 33
f 11 33 36
f 7 8 34
f 8 32 34
f 33 43 36
f 33 34 43
f 34 45 43
f 32 35 34
f 34 35 45
f 35 46 45
f 36 39 37
f 19 38 32
f 19 37 38
f 36 43 44
f 66 72 75
f 66 75 97
f 65 66 77
f 65 77 78
f 65 78 71
f 71 78 73
f 73 78 80
f 78 79 80
f 66 97 77
f 77 115 78
f 78 115 79
f 75 99 97
f 97 99 103
f 75 76 99
f 76 100 99
f 104 110 105
f 104 109 110
f 77 97 104
f 77 104 105
f 77 105 115
f 79 115 82
f 82 115 112
f 76 83 100
f 83 113 100
f 82 113 83
f 82 112 113
f 105 116 115
f 105 110 117
f 105 117 116
f 112 115 116
f 110 111 117
f 36 97 39
f 39 97 41
f 41 102 42
f 36 44 104
f 43 104 44
f 43 45 106
f 42 107 47
f 45 46 107
f 46 47 107
f 41 97 101
f 97 103 101
f 41 101 102
f 36 104 97
f 43 109 104
f 43 106 109
f 42 102 107
f 45 107 106
f 10 11 12
f 9 10 64
f 9 64 13
f 10 12 66
f 12 16 68
f 13 70 14
f 14 70 15
f 15 69 17
f 16 17 69
f 10 65 64
f 13 64 70
f 10 66 65
f 12 72 66
f 12 68 72
f 64 65 70
f 65 71 70
f 15 71 67
f 15 70 71
f 15 67 69
f 16 69 68
f 67 71 73
f 3 4 5
f 3 5 20
f 5 14 20
f 3 7 4
f 3 6 7
f 3 23 6
f 6 8 7
f 6 30 8
f 8 30 19
f 14 15 26
f 15 17 26
f 17 18 26
f 16 18 17
f 18 19 26
f 3 20 23
f 20 21 23
f 20 26 21
f 14 26 20
f 21 26 27
f 21 24 23
f 6 23 30
f 23 24 29
f 23 29 30
f 26 30 27
f 19 30 26
f 27 30 29
f 32 48 35
f 32 38 48
f 35 49 46
f 37 40 38
f 38 40 48
f 37 39 41
f 37 41 40
f 40 42 51
f 40 41 42
f 42 47 52
f 46 60 47
f 48 50 58
f 35 48 49
f 48 58 49
f 46 49 57
f 49 58 57
f 40 51 48
f 48 51 50
f 50 51 53
f 42 52 51
f 51 52 53
f 46 57 60
f 47 60 52
f 67 86 89
f 67 73 86
f 68 69 74
f 67 89 69
f 69 89 74
f 68 75 72
f 68 74 75
f 74 76 75
f 74 89 94
f 73 80 86
f 80 81 86
f 81 91 86
f 79 81 80
f 79 84 81
f 81 92 91
f 81 84 92
f 74 95 76
f 76 95 83
f 74 94 95
f 79 82 84
f 84 95 92
f 82 83 84
f 83 95 84
f 98 102 101
f 98 101 99
f 99 101 103
f 98 99 120
f 99 100 120
f 100 113 120
f 98 132 102
f 98 120 132
f 106 107 108
f 106 108 109
f 108 110 109
f 108 111 110
f 102 132 107
f 107 132 108
f 108 132 111
f 111 132 117
f 113 143 120
f 112 114 113
f 113 114 144
f 113 144 143
f 117 132 148
f 112 118 114
f 114 118 144
f 112 116 118
f 116 117 118
f 118 149 144
f 117 149 118
f 117 148 149
f 21 28 22
f 21 27 28
f 21 22 24
f 22 25 24
f 22 28 25
f 24 25 29
f 25 28 31
f 25 31 29
f 27 29 31
f 27 31 28
f 52 55 54
f 52 54 126
f 50 53 56
f 52 127 53
f 52 126 127
f 53 127 56
f 57 58 59
f 57 59 60
f 52 60 55
f 60 61 55
f 59 62 60
f 60 62 61
f 50 56 58
f 56 63 58
f 56 139 63
f 58 63 59
f 59 63 62
f 56 127 139
f 139 138 62
f 63 139 62
f 85 86 87
f 85 87 90
f 86 91 87
f 87 93 90
f 85 90 88
f 88 96 89
f 88 90 96
f 87 91 93
f 93 91 94
f 90 93 96
f 96 94 89
f 93 94 96
f 119 120 121
f 119 121 122
f 120 143 121
f 121 123 122
f 121 124 123
f 123 124 125
f 119 122 133
f 119 133 135
f 124 137 125
f 125 137 136
f 119 135 131
f 131 151 132
f 131 135 151
f 133 134 135
f 134 136 135
f 135 136 137
f 121 143 146
f 121 146 124
f 124 146 145
f 151 148 132
f 135 137 151
f 137 150 151
f 146 143 148
f 145 146 150
f 146 151 150
f 146 148 151
f 122 54 55
f 122 123 54
f 126 54 130
f 123 130 54
f 128 126 130
f 123 125 130
f 122 55 61
f 122 61 133
f 133 61 62
f 133 62 138
f 128 141 140
f 133 138 140
f 133 140 134
f 134 140 141
f 125 136 141
f 128 130 141
f 125 141 130
f 134 141 136
f 124 142 137
f 124 129 142
f 124 145 147
f 124 147 129
f 129 147 142
f 137 142 150
f 142 152 150
f 145 150 152
f 142 147 152
f 145 152 147
f 92 95 91
f 95 94 91
f 127 126 138
f 127 138 139
f 144 149 143
f 149 148 143
f 85 89 86
f 85 88 89
f 119 132 120
f 119 131 132
f 128 138 126
f 128 140 138
