# MAAS exact compiled indexed mesh
# program_hash ba680be82a22aef14d7f7d98a35eb22c471250084ea5b3da95da914524f7cc16
# geometry_hash aa934176ffe9101e60eaf1363ae94a6191e6123ec4def808b6874ef8cecbc796
v -25.609645 -18.98025383 0
v -25.609645 -16.45777443 0
v -25.609645 -18.98025383 3.54982897
v -25.609645 -16.45777443 3.54982897
v -25.609645 -13.93529504 0
v -25.609645 -11.41281564 0
v -25.609645 -13.93529504 3.54982897
v -25.609645 -11.41281564 3.54982897
v -12.89670793 -17.53179761 0
v -13.46414233 -15.0739692 0
v -12.89670793 -17.53179761 3.54982897
v -14.03157673 -12.61614078 0
v -14.59901113 -10.15831237 0
v -25.609645 -18.98025383 7.09965794
v -25.609645 -16.45777443 7.09965794
v -25.609645 -13.93529504 7.09965794
v -25.609645 -11.41281564 7.09965794
v -12.89670793 -17.53179761 7.09965794
v -25.609645 -8.89033624 0
v -25.609645 -6.36785684 0
v -25.609645 -8.89033624 3.54982897
v -25.609645 -6.36785684 3.54982897
v -15.16644553 -7.70048396 0
v -15.73387994 -5.24265554 0
v -15.73387994 -5.24265554 3.54982897
v -25.609645 -8.89033624 7.09965794
v -25.609645 -6.36785684 7.09965794
v -15.73387994 -5.24265554 7.09965794
v -0.83543438 -13.26067664 0
v -1.94121656 -10.99348717 0
v -0.83543438 -13.26067664 3.54982897
v -0.83543438 -13.26067664 7.09965794
v -4.15278094 -6.45910824 0
v -3.04699875 -8.72629771 0
v -5.25856312 -4.19191878 0
v -6.36434531 -1.92472931 0
v -6.36434531 -1.92472931 3.54982897
v -6.36434531 -1.92472931 7.09965794
v -25.609645 -18.98025383 10.64948691
v -25.609645 -16.45777443 10.64948691
v -25.609645 -13.93529504 10.64948691
v -25.609645 -11.41281564 10.64948691
v -12.89670793 -17.53179761 10.64948691
v -25.609645 -18.98025383 14.19931589
v -25.609645 -16.45777443 14.19931589
v -25.609645 -18.98025383 17.74914486
v -25.609645 -16.45777443 17.74914486
v -25.609645 -13.93529504 14.19931589
v -25.609645 -11.41281564 14.19931589
v -25.609645 -13.93529504 17.74914486
v -25.609645 -11.41281564 17.74914486
v -12.89670793 -17.53179761 14.19931589
v -12.89670793 -17.53179761 17.74914486
v -13.46414233 -15.0739692 17.74914486
v -14.03157673 -12.61614078 17.74914486
v -14.59901113 -10.15831237 17.74914486
v -25.609645 -8.89033624 10.64948691
v -25.609645 -6.36785684 10.64948691
v -15.73387994 -5.24265554 10.64948691
v -25.609645 -8.89033624 14.19931589
v -25.609645 -6.36785684 14.19931589
v -25.609645 -8.89033624 17.74914486
v -25.609645 -6.36785684 17.74914486
v -15.73387994 -5.24265554 14.19931589
v -15.16644553 -7.70048396 17.74914486
v -15.73387994 -5.24265554 17.74914486
v -0.83543438 -13.26067664 10.64948691
v -0.83543438 -13.26067664 14.19931589
v -0.83543438 -13.26067664 17.74914486
v -1.94121656 -10.99348717 17.74914486
v -6.36434531 -1.92472931 10.64948691
v -4.15278094 -6.45910824 17.74914486
v -3.04699875 -8.72629771 17.74914486
v -6.36434531 -1.92472931 14.19931589
v -5.25856312 -4.19191878 17.74914486
v -6.36434531 -1.92472931 17.74914486
v 3.58535169 -10.4443253 0
v 3.58535169 -10.4443253 6.74467505
v 12.80482433 -3.4867582 0
v 9.95591635 -6.38582801 6.74467505
v 9.95591635 -6.38582801 7.09965794
v 12.80482433 -3.4867582 6.74467505
v 9.95591635 -6.38582801 10.64948691
v 5.19357319 -0.50482398 17.74914486
v 9.95591635 -6.38582801 14.19931589
v 9.95591635 -6.38582801 17.74914486
v 6.78102091 -2.46515866 17.74914486
v 8.36846863 -4.42549334 17.74914486
v 2.01867775 3.41584537 0
v 2.01867775 3.41584537 3.54982897
v 3.58535169 5.01010436 0
v 2.01867775 3.41584537 7.09965794
v 3.58535169 5.01010436 6.74467505
v 12.80482433 16.73792045 0
v 8.98547656 10.50531135 6.74467505
v 8.98547656 10.50531135 7.09965794
v 12.80482433 16.73792045 6.74467505
v 16.93644013 4.2933378 0
v 18.92418102 2.74034441 0
v 18.92418102 2.74034441 3.54982897
v 14.94869924 5.84633119 0
v 12.96095834 7.39932457 0
v 18.92418102 2.74034441 7.09965794
v 14.17893393 18.98026351 0
v 16.46507665 17.91421765 0
v 18.75121937 16.84817179 0
v 14.17893393 18.98026351 3.54982897
v 16.46507665 17.91421765 3.54982897
v 18.75121937 16.84817179 3.54982897
v 25.60964753 13.65003422 0
v 25.60964753 13.65003422 3.54982897
v 21.03736209 15.78212594 0
v 23.32350481 14.71608008 0
v 21.03736209 15.78212594 3.54982897
v 23.32350481 14.71608008 3.54982897
v 14.17893393 18.98026351 7.09965794
v 16.46507665 17.91421765 7.09965794
v 18.75121937 16.84817179 7.09965794
v 25.60964753 13.65003422 7.09965794
v 21.03736209 15.78212594 7.09965794
v 23.32350481 14.71608008 7.09965794
v 2.01867775 3.41584537 10.64948691
v 2.01867775 3.41584537 14.19931589
v 2.01867775 3.41584537 17.74914486
v 3.60612547 1.45551069 17.74914486
v 10.97321745 8.95231796 17.74914486
v 8.98547656 10.50531135 10.64948691
v 8.98547656 10.50531135 14.19931589
v 8.98547656 10.50531135 17.74914486
v 18.92418102 2.74034441 10.64948691
v 18.92418102 2.74034441 14.19931589
v 16.93644013 4.2933378 17.74914486
v 18.92418102 2.74034441 17.74914486
v 14.94869924 5.84633119 17.74914486
v 12.96095834 7.39932457 17.74914486
v 14.17893393 18.98026351 10.64948691
v 16.46507665 17.91421765 10.64948691
v 18.75121937 16.84817179 10.64948691
v 25.60964753 13.65003422 10.64948691
v 21.03736209 15.78212594 10.64948691
v 23.32350481 14.71608008 10.64948691
v 14.17893393 18.98026351 14.19931589
v 16.46507665 17.91421765 14.19931589
v 18.75121937 16.84817179 14.19931589
v 14.17893393 18.98026351 17.74914486
v 16.46507665 17.91421765 17.74914486
v 18.75121937 16.84817179 17.74914486
v 25.60964753 13.65003422 14.19931589
v 25.60964753 13.65003422 17.74914486
v 21.03736209 15.78212594 14.19931589
v 23.32350481 14.71608008 14.19931589
v 21.03736209 15.78212594 17.74914486
v 23.32350481 14.71608008 17.74914486
f 1 4 2
f 2 7 5
f 1 2 9
f 1 9 3
f 2 5 10
f 1 3 4
f 2 4 7
f 5 8 6
f 6 21 19
f 5 6 12
f 6 19 13
f 5 7 8
f 6 8 21
f 2 10 9
f 3 9 11
f 5 12 10
f 6 13 12
f 3 15 4
f 3 14 15
f 4 16 7
f 4 15 16
f 3 11 14
f 14 40 15
f 15 41 16
f 14 18 39
f 7 17 8
f 7 16 17
f 8 26 21
f 8 17 26
f 16 42 17
f 17 57 26
f 11 18 14
f 19 22 20
f 19 20 23
f 19 21 22
f 20 22 25
f 13 19 23
f 20 24 23
f 20 25 24
f 21 27 22
f 21 26 27
f 22 27 28
f 26 58 27
f 22 28 25
f 27 59 28
f 9 10 29
f 9 29 11
f 10 12 30
f 12 13 34
f 11 29 31
f 10 30 29
f 12 34 30
f 30 34 77
f 11 31 18
f 18 32 43
f 18 31 32
f 13 23 33
f 23 24 35
f 13 33 34
f 23 35 33
f 24 36 35
f 24 37 36
f 24 25 37
f 33 77 34
f 33 35 77
f 35 36 77
f 36 89 77
f 36 37 90
f 25 28 38
f 25 38 37
f 28 71 38
f 37 38 92
f 14 39 40
f 15 40 41
f 39 45 40
f 39 44 45
f 40 48 41
f 40 45 48
f 39 43 44
f 16 41 42
f 17 42 57
f 41 49 42
f 41 48 49
f 42 60 57
f 42 49 60
f 18 43 39
f 43 52 44
f 44 47 45
f 45 50 48
f 44 52 46
f 44 46 47
f 45 47 50
f 46 53 47
f 47 54 50
f 48 51 49
f 49 62 60
f 48 50 51
f 49 51 62
f 50 55 51
f 51 56 62
f 46 52 53
f 47 53 54
f 50 54 55
f 51 55 56
f 26 57 58
f 27 58 59
f 57 61 58
f 57 60 61
f 58 61 64
f 58 64 59
f 60 63 61
f 60 62 63
f 62 65 63
f 61 63 66
f 61 66 64
f 56 65 62
f 63 65 66
f 43 67 52
f 32 67 43
f 52 67 68
f 52 68 53
f 53 69 54
f 54 70 55
f 55 73 56
f 53 68 69
f 54 69 70
f 55 70 73
f 28 59 71
f 59 64 74
f 59 74 71
f 38 71 122
f 71 74 123
f 56 72 65
f 65 75 66
f 56 73 72
f 65 72 75
f 64 76 74
f 64 66 76
f 66 75 76
f 72 73 87
f 74 76 124
f 72 84 75
f 75 125 76
f 36 90 89
f 37 92 90
f 38 122 92
f 71 123 122
f 74 124 123
f 76 125 124
f 29 30 77
f 29 78 31
f 29 77 78
f 31 78 32
f 32 81 67
f 32 78 81
f 89 91 77
f 81 78 80
f 81 80 82
f 103 82 79
f 81 82 103
f 81 103 83
f 67 83 68
f 68 85 69
f 69 86 70
f 67 81 83
f 68 83 85
f 70 88 73
f 69 85 86
f 70 86 88
f 73 88 87
f 72 87 84
f 75 84 125
f 86 133 88
f 87 88 132
f 83 103 130
f 83 130 85
f 85 130 131
f 85 131 86
f 86 131 133
f 89 90 91
f 90 92 91
f 92 93 91
f 92 96 93
f 96 95 93
f 92 127 96
f 96 97 95
f 96 116 97
f 96 136 116
f 98 79 101
f 101 79 102
f 98 99 79
f 99 100 79
f 100 103 79
f 102 79 94
f 98 101 113
f 98 110 99
f 99 110 100
f 100 111 103
f 103 119 130
f 102 94 106
f 101 102 112
f 102 106 112
f 104 105 94
f 104 108 105
f 105 106 94
f 105 109 106
f 104 94 97
f 104 107 108
f 104 97 107
f 105 108 109
f 98 113 110
f 101 112 113
f 110 113 111
f 100 110 111
f 106 114 112
f 112 115 113
f 106 109 114
f 112 114 115
f 111 113 115
f 107 117 108
f 107 97 116
f 107 116 117
f 108 118 109
f 108 117 118
f 116 137 117
f 117 138 118
f 103 111 119
f 111 115 119
f 119 121 139
f 109 120 114
f 109 118 120
f 114 120 121
f 114 121 115
f 115 121 119
f 118 140 120
f 120 141 121
f 92 122 127
f 122 123 128
f 122 128 127
f 124 125 126
f 123 124 129
f 84 87 134
f 84 135 125
f 84 134 135
f 123 129 128
f 125 135 126
f 124 126 129
f 96 127 136
f 127 128 142
f 127 142 136
f 128 129 145
f 126 146 129
f 128 145 142
f 130 139 131
f 88 133 132
f 87 132 134
f 132 153 134
f 131 148 133
f 132 133 149
f 116 136 137
f 117 137 138
f 136 143 137
f 136 142 143
f 137 144 138
f 137 143 144
f 119 139 130
f 131 139 148
f 139 141 148
f 118 138 140
f 120 140 141
f 121 141 139
f 138 150 140
f 138 144 150
f 140 150 151
f 140 151 141
f 141 151 148
f 126 135 147
f 134 152 135
f 135 152 147
f 142 146 143
f 143 147 144
f 129 146 145
f 126 147 146
f 142 145 146
f 143 146 147
f 148 151 149
f 132 149 153
f 134 153 152
f 133 148 149
f 144 152 150
f 150 153 151
f 144 147 152
f 150 152 153
f 149 151 153
f 77 91 78
f 78 91 93
f 78 93 80
f 80 93 82
f 79 82 97
f 93 95 82
f 95 97 82
f 97 94 79
