# MAAS exact compiled indexed mesh
# program_hash 8c5954bc29dcc3f304dd94a310084fc270dc27127ff2bdece0aa05eeddf4e40f
# geometry_hash df01f40140bb570d72eb08fc7497e20b66be249fce0f37220045bfd66f84a2b6
v -7.66014655 -9.58936695 3.3
v -8.86399725 -8.53547534 0
v -8.11169501 -6.20516864 3.3
v -6.32748713 -10.47478376 6.6
v -7.22265084 -7.18003396 6.6
v -8.86399725 -5.1212852 0
v -8.86399725 -1.70709507 0
v -8.56324348 -2.82097032 3.3
v -8.11781455 -3.88528417 6.6
v -9.01297825 -0.59053437 6.6
v -4.27594823 -9.13781849 3.3
v -5.44980711 -8.53547534 0
v -2.03561698 -8.53547534 0
v -0.89174991 -8.68627003 3.3
v -3.03273734 -9.57962005 6.6
v -5.44980711 -5.1212852 0
v -5.44980711 -1.70709507 0
v -2.03561698 -5.1212852 0
v -2.03561698 -1.70709507 0
v -6.21248427 -8.02875385 9.9
v -7.53553616 -4.88133777 9.9
v -8.85858805 -1.73392169 9.9
v -10.20754627 -1.21933553 16.5
v -6.82663832 -5.79163154 13.2
v -8.10556093 -3.90975407 16.5
v -8.5543338 -2.84684588 13.2
v -4.88943237 -11.17616993 9.9
v -1.7420163 -9.85311803 9.9
v -0.32852191 -9.09581692 8.25
v -0.32852191 -9.25893971 9.9
v -3.37124735 -11.68120286 13.2
v -3.90159026 -9.29059115 16.5
v -5.09894283 -8.7364172 13.2
v -6.0035756 -6.60017261 16.5
v -0.42646169 -9.95350738 13.2
v -0.32852191 -9.87740363 13.02356675
v -0.32852191 -9.89604645 13.2
v -0.32852191 -9.94796955 13.4453559
v -1.79960492 -11.98100969 16.5
v -0.32852191 -10.83167368 16.5
v -1.21117172 -7.18860581 16.5
v -0.32852191 -7.29698158 16.5
v -3.31315705 -4.49818727 16.5
v -5.41514239 -1.80776873 16.5
v -0.62273851 -2.39620194 16.5
v -0.32852191 -2.43232719 16.5
v -9.4663404 3.94742632 3.3
v -8.86399725 1.70709507 0
v -9.01479194 0.563228 3.3
v -8.86399725 5.1212852 0
v -9.90814196 2.70421543 6.6
v -9.91788887 7.33162464 3.3
v -8.86399725 8.53547534 0
v -6.53369055 7.7831731 3.3
v -10.80330567 5.99896522 6.6
v -7.50855587 6.89412893 6.6
v -5.44980711 1.70709507 0
v -5.44980711 5.1212852 0
v -2.03561698 1.70709507 0
v -2.03561698 5.1212852 0
v -5.44980711 8.53547534 0
v -3.14949223 8.23472157 3.3
v -2.03561698 8.53547534 0
v -4.21380608 7.78929263 6.6
v -0.91905628 8.68445634 6.6
v -10.18163994 1.41349439 9.9
v -11.50469184 4.56091046 9.9
v -8.35727576 5.88396236 9.9
v -10.28202929 0.09793978 13.2
v -12.3095316 1.47108301 16.5
v -12.00972478 3.04272544 13.2
v -9.61911306 3.57306835 16.5
v -7.51712773 0.88264981 16.5
v -9.06493911 4.77042092 13.2
v -6.92869452 5.67505369 16.5
v -4.82670918 2.98463514 16.5
v -2.72472385 0.2942166 16.5
v -0.03430531 2.39620194 16.5
v -2.13629064 5.08662048 16.5
v -0.32852191 4.86465439 16.5
v -5.20985968 7.20701425 9.9
v -2.0624436 8.53006614 9.9
v -0.32852191 9.09581692 8.25
v -0.32852191 9.25893971 9.9
v -6.12015345 6.49811641 13.2
v -3.17536779 8.22581189 13.2
v -4.23827598 7.77703902 16.5
v -0.32852191 9.87740363 13.02356675
v -0.32852191 9.89604645 13.2
v -0.23058213 9.95350738 13.2
v -0.32852191 9.94796955 13.4453559
v -1.54785744 9.87902436 16.5
v -0.32852191 10.83167368 16.5
v 1.37857316 -8.53547534 0
v 2.49244841 -8.23472157 3.3
v 4.79276329 -8.53547534 0
v 5.87664673 -7.7831731 3.3
v 0.26201246 -8.68445634 6.6
v 3.55676226 -7.78929263 6.6
v 1.37857316 -5.1212852 0
v 1.37857316 -1.70709507 0
v 4.79276329 -5.1212852 0
v 4.79276329 -1.70709507 0
v 8.20695343 -8.53547534 0
v 9.26084504 -7.33162464 3.3
v 6.85151205 -6.89412893 6.6
v 10.14626185 -5.99896522 6.6
v 8.20695343 -5.1212852 0
v 8.80929658 -3.94742632 3.3
v 8.20695343 -1.70709507 0
v 8.35774812 -0.563228 3.3
v 9.25109814 -2.70421543 6.6
v 0.83370612 -8.60726124 8.25
v 1.40539978 -8.53006614 9.9
v 2.48108102 -8.15967939 8.25
v 4.05478906 -7.49815344 8.25
v 4.55281586 -7.20701425 9.9
v 5.70216396 -7.05057159 8.25
v 0.89081362 -9.87902436 16.5
v 2.51832397 -8.22581189 13.2
v 5.46310963 -6.49811641 13.2
v 3.58123216 -7.77703902 16.5
v 1.47924682 -5.08662048 16.5
v 2.06768003 -0.2942166 16.5
v 4.16966536 -2.98463514 16.5
v 7.27587199 -6.38904564 8.25
v 8.92324689 -5.94146379 8.25
v 7.70023194 -5.88396236 9.9
v 10.49695493 -5.27993784 8.25
v 10.30784868 -3.76692989 9.066816
v 10.43669683 -4.07344752 9.066816
v 10.64926769 -4.07344752 9.066816
v 10.0377516 -3.48351697 8.45636116
v 10.0196325 -3.45170467 8.43716755
v 10.30784868 -3.7320285 9.066816
v 10.30784868 -3.7320285 9.12614314
v 10.31195043 -3.7320285 9.14272975
v 10.25401494 -3.52314023 9.26352995
v 10.64926769 -3.7320285 9.066816
v 10.64926769 -3.83097834 9.526275
v 10.57428863 -4.07344752 9.62320767
v 10.64273746 -4.07344752 9.9
v 10.64926769 -4.07344752 9.91885008
v 10.64926769 -4.01832683 9.985734
v 10.09964469 -3.11456971 9.3337987
v 10.40679852 -3.7320285 9.526275
v 10.64926769 -3.7320285 9.526275
v 10.52213856 -3.7320285 9.9661618
v 10.52891896 -3.7320285 9.985734
v 10.64926769 -3.7320285 9.81190218
v 10.64926769 -3.7320285 9.985734
v 10.84764802 -4.56091046 9.9
v 11.51151537 -3.46852279 9.526275
v 10.64152572 -3.43947919 10.665765
v 10.88394695 -3.04665169 11.842195
v 9.80437765 -2.46962791 9.23610705
v 9.81994587 -2.56367049 9.13920328
v 9.8393911 -2.55886616 9.22600221
v 9.4452849 -1.7877884 8.94303858
v 9.4460727 -1.78407055 8.95254404
v 9.97749814 -2.71076325 9.526275
v 9.90666003 -2.54224606 9.526275
v 9.49362248 -1.55966854 9.526275
v 9.39224519 -1.18653813 9.526275
v 9.44438208 -1.37843377 9.526275
v 10.74556552 -1.24404292 9.526275
v 10.43646549 -0.10636581 9.526275
v 11.20241534 -2.33084569 9.526275
v 11.75370401 -2.97196248 10.665765
v 10.84000437 -0.79835694 10.665765
v 8.40789529 -4.77042092 13.2
v 6.2716507 -5.67505369 16.5
v 8.96206924 -3.57306835 16.5
v 6.8600839 -0.88264981 16.5
v 11.35268095 -3.04272544 13.2
v 10.99214213 -2.72140498 12.5491669
v 11.0059953 -2.56680752 12.944745
v 11.02673907 -2.48717095 13.2
v 12.10247976 -1.92350391 12.944745
v 11.18797311 -2.12638174 14.20712982
v 11.28033134 -1.64222292 15.223725
v 10.86835126 -0.94001987 15.223725
v 12.30952635 -0.83812765 15.223725
v 11.65248778 -1.47108301 16.5
v 1.37857316 1.70709507 0
v 1.37857316 5.1212852 0
v 4.79276329 1.70709507 0
v 4.79276329 5.1212852 0
v 1.37857316 8.53547534 0
v 0.23470609 8.68627003 3.3
v 4.79276329 8.53547534 0
v 3.61890441 9.13781849 3.3
v 2.37569351 9.57962005 6.6
v 5.67044331 10.47478376 6.6
v 8.20695343 1.70709507 0
v 7.90619966 2.82097032 3.3
v 8.20695343 5.1212852 0
v 8.35593443 0.59053437 6.6
v 7.46077072 3.88528417 6.6
v 8.20695343 8.53547534 0
v 7.45465119 6.20516864 3.3
v 7.00310273 9.58936695 3.3
v 6.56560702 7.18003396 6.6
v 2.65611323 4.49818727 16.5
v 4.75809857 1.80776873 16.5
v 0.0829581 9.26878719 8.25
v 1.08497248 9.85311803 9.9
v 1.730333 9.71636904 8.25
v 6.01113092 7.1207416 9.526275
v 5.91523005 7.17284819 9.9
v 6.06052373 7.6043939 8.25
v 5.55544045 8.02875385 9.9
v 5.78324404 7.30673476 10.665765
v 5.73825369 7.3628369 10.88230031
v 5.48870789 7.51770598 11.63214426
v 3.30404103 10.37789499 8.25
v 4.23238855 11.17616993 9.9
v 5.61294188 9.2517688 8.25
v 4.95141593 10.82547684 8.25
v 0.5541279 7.18860581 16.5
v 2.71420353 11.68120286 13.2
v 1.1425611 11.98100969 16.5
v 4.44189901 8.7364172 13.2
v 5.13063854 7.65456051 12.944745
v 5.04920184 7.7012946 13.2
v 6.13674725 8.24484098 12.944745
v 4.76557339 7.9720765 14.38072823
v 4.51987075 8.03663408 15.223725
v 4.99666505 7.42636521 15.223725
v 5.66485128 6.28746935 15.223725
v 5.34653177 6.60017261 16.5
v 4.73556021 7.98558001 14.46475424
v 5.05137099 8.45188757 15.223725
v 3.24454644 9.29059115 16.5
v 8.27873933 1.16222803 8.25
v 8.61915059 0.35242165 8.25
v 8.59665764 0.42683147 8.33887165
v 8.82711841 0.00550828 8.87853958
v 8.33994954 1.27605764 9.35314828
v 8.33249831 1.33450007 9.526275
v 8.29613207 1.42101193 9.526275
v 7.85222283 2.73206956 8.25
v 7.96455785 2.4221801 8.84427239
v 7.98395436 2.36584856 8.93068
v 8.21902892 1.60443308 9.526275
v 8.11765163 1.97756349 9.526275
v 7.55132473 3.41470549 8.76385566
v 7.64979356 3.16832068 8.86678016
v 7.16963153 4.38331097 8.25
v 7.32042622 4.02458457 8.25
v 7.34503886 3.93818778 8.48614266
v 7.08092843 4.44383054 9.526275
v 6.84305808 5.14166511 9.526275
v 6.99144377 4.65670613 9.526275
v 6.94443537 4.7685347 9.526275
v 6.97859036 4.68728317 9.526275
v 9.21366583 3.20491684 9.526275
v 8.9045658 4.34259394 9.526275
v 8.44771598 5.42939671 9.526275
v 9.0126051 3.54885415 10.665765
v 8.09890546 5.72245969 10.665765
v 9.97961567 0.98043696 9.526275
v 9.67051565 2.11811406 9.526275
v 9.92630474 1.3752486 10.665765
v 8.91112253 1.84877516 15.223725
v 8.52304025 4.17750303 12.944745
v 7.62208002 3.49867433 15.223725
v 7.44851711 3.90975407 16.5
v 6.95389379 4.63757018 15.223725
v 7.95463313 4.73588149 15.223725
v 9.71618675 2.14383405 12.944745
v 10.90933326 0.11016507 12.944745
v 9.57930876 0.7098793 15.223725
v 9.55050245 1.21933553 16.5
v 9.40626421 2.87787844 15.223725
v 10.85789528 1.0198754 15.223725
v 6.72204968 6.03068587 8.25
v 6.54408903 7.34477656 9.526275
v 7.68176613 7.65387659 9.526275
v 8.13861595 6.56707382 9.526275
v 7.18520583 7.89606523 10.665765
v 7.32989375 6.211172 12.944745
v 6.50300206 6.59388453 15.223725
f 2 6 12
f 2 3 6
f 1 2 12
f 6 16 12
f 1 3 2
f 1 4 5
f 1 5 3
f 4 20 5
f 6 7 16
f 6 8 7
f 3 8 6
f 7 48 17
f 7 17 16
f 7 8 49
f 3 5 9
f 3 9 8
f 5 21 9
f 8 9 10
f 8 10 49
f 9 22 10
f 1 12 11
f 11 12 13
f 12 16 13
f 13 16 18
f 13 94 14
f 13 18 94
f 11 13 14
f 1 11 4
f 4 11 15
f 4 15 27
f 11 14 15
f 15 98 28
f 14 98 15
f 16 17 18
f 17 19 18
f 17 57 19
f 18 19 100
f 19 59 101
f 5 20 21
f 20 24 21
f 10 22 66
f 22 69 66
f 9 21 22
f 21 26 22
f 21 24 26
f 22 26 69
f 23 69 26
f 24 25 26
f 24 34 25
f 23 26 25
f 23 25 44
f 23 44 73
f 4 27 20
f 15 28 27
f 20 27 33
f 27 28 31
f 27 31 33
f 20 33 24
f 28 98 29
f 28 29 30
f 28 35 31
f 28 30 36
f 28 36 35
f 31 32 33
f 24 33 34
f 32 34 33
f 32 41 34
f 34 41 43
f 31 35 39
f 35 38 39
f 35 36 37
f 35 37 38
f 31 39 32
f 32 39 40
f 38 40 39
f 32 40 42
f 32 42 41
f 41 42 43
f 25 34 43
f 25 43 44
f 44 77 73
f 43 45 44
f 42 45 43
f 42 46 45
f 44 45 77
f 47 52 50
f 7 49 48
f 48 50 57
f 17 48 57
f 47 48 49
f 47 50 48
f 50 58 57
f 10 51 49
f 47 49 51
f 10 66 51
f 47 51 55
f 47 55 52
f 51 67 55
f 50 53 58
f 50 52 53
f 53 61 58
f 53 54 61
f 52 54 53
f 52 55 56
f 52 56 54
f 55 68 56
f 19 57 59
f 57 58 59
f 58 60 59
f 59 60 185
f 58 61 60
f 60 61 63
f 61 62 63
f 54 62 61
f 60 63 186
f 63 190 189
f 62 190 63
f 54 64 62
f 54 56 64
f 56 81 64
f 62 64 65
f 62 65 190
f 64 82 65
f 65 83 206
f 51 66 67
f 66 69 71
f 55 67 68
f 66 71 67
f 67 71 74
f 67 74 68
f 68 74 85
f 69 70 71
f 23 70 69
f 70 72 71
f 23 73 70
f 70 73 72
f 71 72 74
f 72 73 76
f 74 75 85
f 72 75 74
f 72 76 75
f 56 68 81
f 68 85 81
f 73 77 76
f 75 76 79
f 76 77 80
f 45 80 77
f 45 46 80
f 76 80 79
f 64 81 82
f 81 85 86
f 81 86 82
f 65 82 83
f 82 84 83
f 82 86 88
f 82 88 84
f 85 87 86
f 75 87 85
f 75 79 87
f 86 87 92
f 79 92 87
f 79 80 93
f 79 93 92
f 86 92 91
f 86 89 88
f 86 91 89
f 91 92 93
f 18 100 94
f 94 96 95
f 94 100 96
f 14 94 95
f 96 100 102
f 96 102 104
f 95 96 97
f 14 95 98
f 95 99 98
f 29 98 113
f 98 99 113
f 99 115 113
f 95 97 99
f 97 106 99
f 99 116 115
f 99 118 116
f 99 106 118
f 100 101 102
f 19 101 100
f 101 185 103
f 102 103 108
f 101 103 102
f 103 187 110
f 96 104 97
f 102 108 104
f 104 108 105
f 97 104 105
f 97 105 106
f 105 107 106
f 106 126 118
f 106 127 126
f 106 107 127
f 108 110 109
f 105 108 109
f 103 110 108
f 110 195 111
f 109 110 111
f 109 111 112
f 111 198 112
f 112 198 159
f 159 198 160
f 164 198 236
f 105 109 107
f 107 109 112
f 107 112 129
f 107 129 127
f 112 130 131
f 112 159 157
f 160 198 165
f 164 165 198
f 164 236 238
f 130 112 136
f 112 145 136
f 112 152 129
f 112 131 152
f 134 136 133
f 137 136 138
f 145 138 136
f 136 134 157
f 131 141 152
f 112 157 145
f 157 158 145
f 159 162 157
f 157 156 158
f 136 157 162
f 162 161 136
f 59 185 101
f 185 186 187
f 60 186 185
f 103 185 187
f 187 188 195
f 186 188 187
f 63 189 186
f 186 189 188
f 189 190 192
f 188 189 191
f 189 192 191
f 188 191 197
f 191 192 202
f 65 193 190
f 190 193 192
f 65 206 193
f 193 206 208
f 193 208 216
f 194 218 203
f 203 218 211
f 192 193 194
f 192 194 202
f 193 216 194
f 194 219 218
f 194 216 219
f 110 187 195
f 111 195 196
f 188 197 195
f 195 197 196
f 196 197 201
f 111 196 198
f 196 199 198
f 198 235 236
f 198 199 235
f 199 242 235
f 196 201 199
f 199 201 203
f 199 248 243
f 199 250 248
f 199 249 250
f 199 203 277
f 199 277 249
f 199 243 242
f 191 200 197
f 191 202 200
f 197 200 201
f 200 202 201
f 201 202 203
f 203 211 277
f 194 203 202
f 236 237 238
f 238 239 241
f 164 238 240
f 238 241 240
f 242 243 244
f 247 248 250
f 250 256 254
f 250 254 252
f 247 250 252
f 239 240 241
f 250 251 256
f 251 254 256
f 46 78 80
f 83 84 206
f 84 88 90
f 80 220 93
f 88 89 90
f 89 91 90
f 30 114 36
f 29 113 114
f 29 114 30
f 113 115 114
f 114 115 117
f 36 114 120
f 114 117 120
f 115 116 117
f 116 118 117
f 117 118 128
f 117 121 120
f 117 128 121
f 36 120 37
f 37 120 38
f 38 120 119
f 38 119 40
f 40 119 42
f 42 119 122
f 119 120 122
f 42 122 123
f 120 121 122
f 122 172 123
f 121 172 122
f 42 123 46
f 46 123 125
f 46 124 78
f 46 125 124
f 123 172 125
f 124 125 174
f 118 126 128
f 126 127 128
f 127 152 128
f 121 128 171
f 128 152 171
f 127 129 152
f 141 142 152
f 142 143 152
f 143 144 152
f 144 154 152
f 148 154 149
f 144 149 154
f 152 175 171
f 152 154 155
f 152 155 175
f 159 160 162
f 160 163 162
f 160 165 163
f 121 171 172
f 125 172 173
f 171 173 172
f 125 173 174
f 173 184 174
f 171 175 173
f 155 176 175
f 175 176 177
f 175 177 178
f 175 178 180
f 173 175 184
f 174 184 274
f 182 273 184
f 175 180 184
f 180 181 184
f 181 182 184
f 78 124 205
f 78 205 204
f 78 204 80
f 80 204 220
f 124 174 205
f 204 205 268
f 204 268 231
f 230 231 268
f 206 207 208
f 84 207 206
f 207 216 208
f 207 217 216
f 84 90 207
f 90 221 207
f 207 221 217
f 209 277 212
f 211 212 277
f 209 212 210
f 211 218 212
f 210 212 213
f 212 214 213
f 212 215 214
f 212 223 215
f 216 217 219
f 217 218 219
f 212 218 217
f 217 221 223
f 212 217 223
f 204 231 220
f 220 231 234
f 90 91 222
f 90 222 221
f 93 220 234
f 91 93 222
f 93 234 222
f 221 222 234
f 215 223 224
f 223 225 224
f 223 227 225
f 223 234 227
f 228 232 234
f 227 234 232
f 228 234 231
f 228 231 229
f 229 231 230
f 221 234 223
f 235 245 239
f 235 238 237
f 235 237 236
f 235 239 238
f 239 245 240
f 235 242 244
f 235 244 246
f 235 246 245
f 244 248 246
f 243 248 244
f 246 248 247
f 246 247 252
f 249 251 250
f 249 254 251
f 249 277 253
f 249 255 254
f 249 253 255
f 174 274 205
f 205 274 268
f 267 268 274
f 265 267 274
f 267 269 268
f 230 268 269
f 265 274 273
f 184 273 274
f 209 253 277
f 148 150 154
f 140 153 150
f 150 153 169
f 150 169 154
f 154 169 155
f 166 167 170
f 153 168 169
f 168 170 169
f 166 170 168
f 155 169 179
f 169 170 179
f 170 272 179
f 155 179 176
f 176 179 177
f 177 179 178
f 178 179 180
f 179 183 180
f 179 272 183
f 180 183 181
f 181 183 182
f 182 183 273
f 210 213 278
f 214 215 281
f 215 224 226
f 224 225 226
f 225 227 226
f 226 227 233
f 229 230 283
f 227 232 233
f 228 233 232
f 228 229 233
f 226 233 283
f 229 283 233
f 257 258 260
f 259 280 261
f 258 261 260
f 258 259 261
f 260 266 271
f 260 261 266
f 261 282 266
f 262 263 264
f 167 264 170
f 167 262 264
f 260 264 263
f 257 260 263
f 170 264 272
f 264 271 272
f 260 271 264
f 265 275 267
f 266 275 271
f 266 282 270
f 267 270 269
f 230 269 270
f 230 270 283
f 270 282 283
f 267 275 270
f 266 270 275
f 271 276 272
f 265 273 276
f 271 275 276
f 265 276 275
f 183 272 276
f 183 276 273
f 209 210 278
f 279 281 280
f 213 281 278
f 278 281 279
f 261 280 281
f 226 282 281
f 261 281 282
f 213 214 281
f 215 226 281
f 226 283 282
f 134 133 157
f 136 161 133
f 157 133 161
f 157 161 156
f 137 138 146
f 146 138 145
f 146 145 161
f 158 161 145
f 158 156 161
f 147 146 168
f 140 147 153
f 147 168 153
f 167 146 161
f 162 167 161
f 166 146 167
f 162 163 167
f 163 165 167
f 164 167 165
f 166 168 146
f 167 240 245
f 167 245 246
f 246 257 263
f 253 258 255
f 253 278 259
f 246 252 257
f 252 254 257
f 254 255 257
f 255 258 257
f 253 259 258
f 164 240 167
f 167 246 262
f 246 263 262
f 209 278 253
f 278 279 280
f 259 278 280
f 130 135 131
f 131 135 132
f 131 132 141
f 132 135 139
f 130 136 135
f 135 136 137
f 135 137 146
f 135 146 139
f 132 139 144
f 132 143 141
f 139 147 140
f 139 140 144
f 132 144 143
f 140 150 144
f 141 143 142
f 144 151 149
f 144 150 151
f 139 146 147
f 148 149 151
f 148 151 150
