# MAAS exact compiled indexed mesh
# program_hash f5ac8290036595bf7d8da4d7e994c57db89a0a0790838b82ad6f125c8912243d
# geometry_hash dd7e5dce48aadf0b773c7a005f8e23fb89d18fda574bb025ff788e05adf0e601
v -25.49007405 -18.89163538 0
v -25.49007405 -16.38093339 0
v -25.49007405 -18.89163538 3.54982897
v -25.49007405 -16.38093339 3.54982897
v -25.49007405 -13.8702314 0
v -25.49007405 -11.35952942 0
v -25.49007405 -13.8702314 3.54982897
v -25.49007405 -11.35952942 3.54982897
v -12.83649345 -17.44994198 0
v -13.40127851 -15.00358912 0
v -12.83649345 -17.44994198 3.54982897
v -13.96606357 -12.55723626 0
v -14.53084863 -10.1108834 0
v -25.49007405 -18.89163538 7.09965794
v -25.49007405 -16.38093339 7.09965794
v -25.49007405 -13.8702314 7.09965794
v -25.49007405 -11.35952942 7.09965794
v -12.83649345 -17.44994198 7.09965794
v -25.49007405 -8.84882743 0
v -25.49007405 -6.33812544 0
v -25.49007405 -8.84882743 3.54982897
v -25.49007405 -6.33812544 3.54982897
v -15.09563368 -7.66453054 0
v -15.66041874 -5.21817768 0
v -15.66041874 -5.21817768 3.54982897
v -25.49007405 -8.84882743 7.09965794
v -25.49007405 -6.33812544 7.09965794
v -15.66041874 -5.21817768 7.09965794
v -12.73408814 -12.36709956 0
v -7.87466493 -12.36709956 0
v -0.83153375 -13.19876279 0
v -1.93215306 -10.94215879 0
v -0.83153375 -13.19876279 3.54982897
v -0.83153375 -13.19876279 7.09965794
v -12.73408814 -7.50767635 0
v -7.87466493 -7.50767635 0
v -4.13339168 -6.42895079 0
v -3.03277237 -8.68555479 0
v -5.23401099 -4.17234679 0
v -6.3346303 -1.91574279 0
v -6.3346303 -1.91574279 3.54982897
v -6.3346303 -1.91574279 7.09965794
v -25.49007405 -18.89163538 10.64948691
v -25.49007405 -16.38093339 10.64948691
v -25.49007405 -13.8702314 10.64948691
v -25.49007405 -11.35952942 10.64948691
v -12.83649345 -17.44994198 10.64948691
v -25.49007405 -18.89163538 14.19931589
v -25.49007405 -16.38093339 14.19931589
v -25.49007405 -18.89163538 17.74914486
v -25.49007405 -16.38093339 17.74914486
v -25.49007405 -13.8702314 14.19931589
v -25.49007405 -11.35952942 14.19931589
v -25.49007405 -13.8702314 17.74914486
v -25.49007405 -11.35952942 17.74914486
v -12.83649345 -17.44994198 14.19931589
v -12.83649345 -17.44994198 17.74914486
v -13.40127851 -15.00358912 17.74914486
v -13.96606357 -12.55723626 17.74914486
v -14.53084863 -10.1108834 17.74914486
v -25.49007405 -8.84882743 10.64948691
v -25.49007405 -6.33812544 10.64948691
v -15.66041874 -5.21817768 10.64948691
v -25.49007405 -8.84882743 14.19931589
v -25.49007405 -6.33812544 14.19931589
v -25.49007405 -8.84882743 17.74914486
v -25.49007405 -6.33812544 17.74914486
v -15.66041874 -5.21817768 14.19931589
v -15.09563368 -7.66453054 17.74914486
v -15.66041874 -5.21817768 17.74914486
v -0.83153375 -13.19876279 10.64948691
v -12.73408814 -12.36709956 17.74914486
v -7.87466493 -12.36709956 17.74914486
v -0.83153375 -13.19876279 14.19931589
v -0.83153375 -13.19876279 17.74914486
v -1.93215306 -10.94215879 17.74914486
v -6.3346303 -1.91574279 10.64948691
v -12.73408814 -7.50767635 17.74914486
v -7.87466493 -7.50767635 17.74914486
v -4.13339168 -6.42895079 17.74914486
v -3.03277237 -8.68555479 17.74914486
v -6.3346303 -1.91574279 14.19931589
v -5.23401099 -4.17234679 17.74914486
v -6.3346303 -1.91574279 17.74914486
v 5.16932449 -0.50246697 0
v 9.90943237 -6.3560127 0
v 9.90943237 -6.3560127 3.54982897
v 6.74936045 -2.45364888 0
v 8.32939641 -4.40483079 0
v 9.90943237 -6.3560127 7.09965794
v 9.90943237 -6.3560127 10.64948691
v 5.16932449 -0.50246697 17.74914486
v 9.90943237 -6.3560127 14.19931589
v 9.90943237 -6.3560127 17.74914486
v 6.74936045 -2.45364888 17.74914486
v 8.32939641 -4.40483079 17.74914486
v 2.00925258 3.39989685 0
v 3.58928854 1.44871494 0
v 2.00925258 3.39989685 3.54982897
v 7.51350855 0.45328273 0
v 12.37293175 0.45328273 0
v 7.51350855 5.31270594 0
v 12.37293175 5.31270594 0
v 10.92198371 8.91051976 0
v 2.00925258 3.39989685 7.09965794
v 8.94352354 10.45626225 0
v 8.94352354 10.45626225 3.54982897
v 8.94352354 10.45626225 7.09965794
v 16.85736421 4.27329228 0
v 18.83582437 2.72754979 0
v 18.83582437 2.72754979 3.54982897
v 14.87890404 5.81903478 0
v 12.90044387 7.36477727 0
v 18.83582437 2.72754979 7.09965794
v 14.11273275 18.89164502 0
v 16.38820151 17.83057651 0
v 18.66367028 16.769508 0
v 14.11273275 18.89164502 3.54982897
v 16.38820151 17.83057651 3.54982897
v 18.66367028 16.769508 3.54982897
v 25.49007657 13.58630247 0
v 25.49007657 13.58630247 3.54982897
v 20.93913904 15.70843949 0
v 23.2146078 14.64737098 0
v 20.93913904 15.70843949 3.54982897
v 23.2146078 14.64737098 3.54982897
v 14.11273275 18.89164502 7.09965794
v 16.38820151 17.83057651 7.09965794
v 18.66367028 16.769508 7.09965794
v 25.49007657 13.58630247 7.09965794
v 20.93913904 15.70843949 7.09965794
v 23.2146078 14.64737098 7.09965794
v 2.00925258 3.39989685 10.64948691
v 2.00925258 3.39989685 14.19931589
v 2.00925258 3.39989685 17.74914486
v 3.58928854 1.44871494 17.74914486
v 7.51350855 0.45328273 17.74914486
v 12.37293175 0.45328273 17.74914486
v 7.51350855 5.31270594 17.74914486
v 12.37293175 5.31270594 17.74914486
v 10.92198371 8.91051976 17.74914486
v 8.94352354 10.45626225 10.64948691
v 8.94352354 10.45626225 14.19931589
v 8.94352354 10.45626225 17.74914486
v 18.83582437 2.72754979 10.64948691
v 18.83582437 2.72754979 14.19931589
v 16.85736421 4.27329228 17.74914486
v 18.83582437 2.72754979 17.74914486
v 14.87890404 5.81903478 17.74914486
v 12.90044387 7.36477727 17.74914486
v 14.11273275 18.89164502 10.64948691
v 16.38820151 17.83057651 10.64948691
v 18.66367028 16.769508 10.64948691
v 25.49007657 13.58630247 10.64948691
v 20.93913904 15.70843949 10.64948691
v 23.2146078 14.64737098 10.64948691
v 14.11273275 18.89164502 14.19931589
v 16.38820151 17.83057651 14.19931589
v 18.66367028 16.769508 14.19931589
v 14.11273275 18.89164502 17.74914486
v 16.38820151 17.83057651 17.74914486
v 18.66367028 16.769508 17.74914486
v 25.49007657 13.58630247 14.19931589
v 25.49007657 13.58630247 17.74914486
v 20.93913904 15.70843949 14.19931589
v 23.2146078 14.64737098 14.19931589
v 20.93913904 15.70843949 17.74914486
v 23.2146078 14.64737098 17.74914486
f 1 4 2
f 2 7 5
f 1 2 9
f 1 9 3
f 2 5 10
f 1 3 4
f 2 4 7
f 5 8 6
f 6 21 19
f 5 6 12
f 6 19 13
f 5 7 8
f 6 8 21
f 2 10 9
f 3 9 11
f 5 12 10
f 6 13 12
f 12 13 29
f 13 23 29
f 3 15 4
f 3 14 15
f 4 16 7
f 4 15 16
f 3 11 14
f 14 44 15
f 15 45 16
f 14 18 43
f 7 17 8
f 7 16 17
f 8 26 21
f 8 17 26
f 16 46 17
f 17 61 26
f 11 18 14
f 19 22 20
f 19 20 23
f 19 21 22
f 20 22 25
f 13 19 23
f 20 24 23
f 20 25 24
f 23 35 29
f 21 27 22
f 21 26 27
f 22 27 28
f 26 62 27
f 22 28 25
f 27 63 28
f 9 10 31
f 9 31 11
f 10 12 30
f 12 29 30
f 10 30 32
f 11 31 33
f 10 32 31
f 32 30 36
f 11 33 18
f 18 34 47
f 18 33 34
f 23 37 35
f 23 24 39
f 37 36 35
f 23 39 37
f 24 40 39
f 24 41 40
f 24 25 41
f 37 38 36
f 32 36 38
f 37 88 38
f 37 39 85
f 39 40 98
f 40 41 99
f 25 28 42
f 25 42 41
f 28 77 42
f 41 42 105
f 14 43 44
f 15 44 45
f 43 49 44
f 43 48 49
f 44 52 45
f 44 49 52
f 43 47 48
f 16 45 46
f 17 46 61
f 45 53 46
f 45 52 53
f 46 64 61
f 46 53 64
f 18 47 43
f 47 56 48
f 48 51 49
f 49 54 52
f 48 56 50
f 48 50 51
f 49 51 54
f 50 57 51
f 51 58 54
f 52 55 53
f 53 66 64
f 52 54 55
f 53 55 66
f 54 59 55
f 55 60 66
f 50 56 57
f 51 57 58
f 54 58 59
f 55 59 60
f 58 72 59
f 59 72 78
f 59 78 60
f 26 61 62
f 27 62 63
f 61 65 62
f 61 64 65
f 62 65 68
f 62 68 63
f 64 67 65
f 64 66 67
f 66 69 67
f 65 67 70
f 65 70 68
f 60 69 66
f 67 69 70
f 60 78 69
f 47 71 56
f 34 71 47
f 56 71 74
f 56 74 57
f 57 75 58
f 58 73 72
f 58 76 73
f 57 74 75
f 58 75 76
f 76 81 73
f 28 63 77
f 63 68 82
f 63 82 77
f 42 77 133
f 77 82 134
f 69 78 80
f 69 83 70
f 80 78 79
f 80 79 73
f 69 80 83
f 68 84 82
f 68 70 84
f 70 83 84
f 80 73 81
f 80 81 95
f 82 84 135
f 80 92 83
f 83 136 84
f 40 97 98
f 40 99 97
f 41 105 99
f 42 133 105
f 77 134 133
f 82 135 134
f 84 136 135
f 31 32 86
f 31 86 33
f 33 87 34
f 34 90 71
f 32 38 89
f 32 89 86
f 38 88 89
f 33 86 87
f 37 85 88
f 39 98 85
f 85 100 88
f 88 101 89
f 88 100 101
f 86 89 110
f 34 87 90
f 86 110 87
f 87 110 111
f 87 111 90
f 90 111 114
f 90 114 91
f 71 91 74
f 74 93 75
f 75 94 76
f 71 90 91
f 74 91 93
f 76 96 81
f 75 93 94
f 76 94 96
f 81 96 95
f 80 95 92
f 83 92 136
f 95 96 137
f 92 95 137
f 96 138 137
f 94 148 96
f 91 114 145
f 91 145 93
f 93 145 146
f 93 146 94
f 94 146 148
f 85 98 100
f 98 102 100
f 97 104 98
f 97 99 107
f 89 101 109
f 98 104 102
f 97 106 104
f 97 107 106
f 113 103 102
f 104 113 102
f 99 105 108
f 99 108 107
f 105 142 108
f 104 106 116
f 106 107 118
f 106 118 115
f 107 108 127
f 107 127 118
f 108 151 127
f 89 109 110
f 109 101 103
f 112 103 113
f 109 103 112
f 109 112 124
f 109 121 110
f 110 121 111
f 111 122 114
f 114 130 145
f 104 117 113
f 112 113 123
f 113 117 123
f 106 115 116
f 104 116 117
f 115 119 116
f 116 120 117
f 115 118 119
f 116 119 120
f 109 124 121
f 112 123 124
f 121 124 122
f 111 121 122
f 117 125 123
f 123 126 124
f 117 120 125
f 123 125 126
f 122 124 126
f 118 128 119
f 118 127 128
f 119 129 120
f 119 128 129
f 127 152 128
f 128 153 129
f 114 122 130
f 122 126 130
f 130 132 154
f 120 131 125
f 120 129 131
f 125 131 132
f 125 132 126
f 126 132 130
f 129 155 131
f 131 156 132
f 105 133 142
f 133 134 143
f 133 143 142
f 92 139 136
f 135 136 141
f 134 135 144
f 92 137 139
f 96 147 138
f 134 144 143
f 136 139 141
f 135 141 144
f 141 139 140
f 141 140 150
f 108 142 151
f 142 143 157
f 142 157 151
f 143 144 160
f 141 161 144
f 143 160 157
f 145 154 146
f 96 148 147
f 149 140 138
f 147 149 138
f 149 150 140
f 147 168 149
f 146 163 148
f 147 148 164
f 127 151 152
f 128 152 153
f 151 158 152
f 151 157 158
f 152 159 153
f 152 158 159
f 130 154 145
f 146 154 163
f 154 156 163
f 129 153 155
f 131 155 156
f 132 156 154
f 153 165 155
f 153 159 165
f 155 165 166
f 155 166 156
f 156 166 163
f 141 150 162
f 149 167 150
f 150 167 162
f 157 161 158
f 158 162 159
f 144 161 160
f 141 162 161
f 157 160 161
f 158 161 162
f 163 166 164
f 147 164 168
f 149 168 167
f 148 163 164
f 159 167 165
f 165 168 166
f 159 162 167
f 165 167 168
f 164 166 168
f 30 29 72
f 36 30 73
f 29 35 78
f 35 36 79
f 78 72 29
f 30 72 73
f 35 79 78
f 73 79 36
f 101 100 137
f 100 102 139
f 103 101 138
f 102 103 140
f 139 137 100
f 137 138 101
f 138 140 103
f 140 139 102
