# MAAS exact compiled indexed mesh
# program_hash 7e02d37b03525d3e464a9b8543d96c1b0ec2abb7ff527ad8cc3202b0e33aa7b8
# geometry_hash 7052971362001bf2b9131e5a71eb850ac083451533a8c9bb4e55184e99f2f364
v -15.17625788 -10.93483459 0
v -15.17625788 -10.93483459 4.75302093
v -6.6934113 -10.93483459 4.75302093
v -6.6934113 -10.93483459 9.9
v -15.17625788 10.27228186 0
v -15.17625788 10.27228186 4.75302093
v -6.6934113 10.27228186 4.75302093
v -6.6934113 10.27228186 9.9
v 6.03085857 -10.93483459 0
v 6.03085857 -10.93483459 4.75097907
v 6.03085857 -10.93483459 4.75302093
v 14.51370515 -10.93483459 4.75097907
v 3.91014692 -0.33127637 4.95
v 4.25494623 -0.33127637 7.425
v 4.25578211 -0.33127637 7.59751821
v 3.91014692 -0.33127637 9.9
v 4.57873553 -0.33127637 9.9
v 14.51370515 -10.93483459 9.9
v 9.21192604 -0.33127637 4.95
v 14.51370515 -0.33127637 4.95
v 9.39012008 -0.33127637 7.425
v 9.48100261 -0.33127637 7.46890173
v 9.56791199 -0.31931159 7.425
v 9.56871717 -0.33127637 9.9
v 9.9222912 -0.28347128 9.9
v 14.51370515 -0.33127637 9.9
v 6.03085857 10.27228186 0
v 6.03085857 10.27228186 4.75097907
v 6.03085857 10.27228186 4.75302093
v 14.51370515 10.27228186 4.75097907
v 3.91014692 4.97050275 4.95
v 3.91014692 4.70142617 7.46890173
v 3.9221117 4.6145168 7.425
v 3.91014692 4.7923087 7.425
v 3.95795201 4.26013759 9.9
v 3.91014692 4.61371161 9.9
v 3.91014692 10.27228186 4.95
v 3.91014692 9.92748256 7.425
v 3.91014692 9.92664667 7.59751821
v 3.91014692 9.60369325 9.9
v 3.91014692 10.27228186 9.9
v 14.51370515 4.97050275 4.95
v 9.21192604 4.97050275 9.9
v 14.85772633 0.03667436 7.425
v 15.17626523 0.42689388 9.9
v 14.50174038 5.3264887 7.425
v 9.21192604 10.27228186 4.95
v 14.51370515 10.27228186 4.95
v 8.85594009 10.26031709 7.425
v 8.50156088 10.22447678 9.9
v 14.46590007 5.68086791 9.9
v 14.14575443 10.61630304 7.425
v 13.75553491 10.93484194 9.9
f 4 3 11
f 4 8 3
f 4 16 8
f 8 7 3
f 37 7 8
f 12 11 10
f 12 30 20
f 4 11 12
f 4 12 18
f 4 18 16
f 12 20 18
f 16 18 17
f 17 18 24
f 20 26 18
f 24 18 26
f 37 47 7
f 48 29 7
f 47 48 7
f 20 30 42
f 30 28 29
f 30 29 48
f 42 30 48
f 16 36 8
f 8 36 40
f 37 8 41
f 8 40 41
f 35 17 24
f 35 43 36
f 37 49 47
f 37 38 49
f 36 43 40
f 38 39 49
f 39 50 49
f 39 40 50
f 40 43 50
f 20 42 44
f 42 46 44
f 35 24 25
f 35 25 43
f 44 46 45
f 25 45 43
f 43 45 51
f 46 51 45
f 47 49 52
f 42 48 46
f 47 52 48
f 48 52 46
f 43 51 50
f 49 50 53
f 46 52 51
f 49 53 52
f 50 51 53
f 52 53 51
f 1 9 2
f 1 5 9
f 1 2 6
f 2 10 3
f 2 9 10
f 1 6 5
f 6 7 5
f 5 27 9
f 5 28 27
f 5 7 29
f 5 29 28
f 10 11 3
f 9 28 10
f 9 27 28
f 13 16 14
f 16 15 14
f 16 17 15
f 19 21 20
f 20 21 22
f 22 24 26
f 20 22 26
f 13 31 34
f 13 34 32
f 13 32 16
f 16 32 36
f 37 41 38
f 38 41 39
f 39 41 40
f 19 20 23
f 19 23 21
f 20 44 23
f 21 23 22
f 22 23 25
f 22 25 24
f 23 44 25
f 13 14 33
f 13 33 31
f 31 33 34
f 33 14 15
f 35 15 17
f 33 15 35
f 33 32 34
f 33 35 32
f 32 35 36
f 25 44 45
f 12 10 28
f 12 28 30
f 2 3 6
f 6 3 7
