# MAAS exact compiled indexed mesh
# program_hash f663022366712025e94c7f06da09949450a6a4e025697503ae0ca9ff239a5494
# geometry_hash cc0bbd5a3f1300bddf8facec650d1b820e98c9c0e3a5d19c748b59c328d02b7b
v -25.71801629 -5.69470361 0
v -9.25848586 -5.69470361 4.70642857
v -9.25848586 -0.23166416 4.70642857
v -9.25848586 -0.21212786 4.66744737
v -9.25848586 -0.33381171 4.91024572
v -25.71801629 -5.69470361 9.9
v -9.25848586 -5.69470361 5.19357143
v -9.25848586 -0.4479515 5.13799124
v -9.25848586 -0.05997776 5.19357143
v -25.71801629 5.69470361 0
v -9.25848586 0.05997776 4.70642857
v -9.25848586 0.68336443 4.70642857
v -9.25848586 0.68336443 4.79573345
v -25.71801629 5.69470361 9.9
v -9.25848586 5.69470361 5.5136459
v -9.25848586 5.69470361 5.8213787
v -9.25848586 5.60277592 6.00480395
v 25.71801629 -5.69470361 0
v 25.71801629 -5.69470361 4.70642857
v 25.71801629 -0.23166416 4.70642857
v 25.71801629 -0.21212786 4.66744737
v 25.71801629 -5.69470361 5.19357143
v 25.71801629 -5.69470361 9.9
v 25.71801629 -0.05997776 5.19357143
v 25.71801629 0.05997776 4.70642857
v 25.71801629 0.68336443 4.70642857
v 25.71801629 0.68336443 4.79573345
v 25.71801629 5.69470361 0
v 0 0 5.2021637
v 4.29490872 0.9510155 5.3384039
v 0 1.76021161 4.95
v 4.29490872 1.76021161 4.95
v 0 0 9.9
v 4.29490872 0.9510155 9.9
v 0 5.69470361 4.95
v 0 5.69470361 5.5136459
v 0 5.69470361 5.8213787
v 0 5.60277592 6.00480395
v 4.29490872 5.69470361 4.95
v 4.29490872 5.69470361 5.5136459
v 4.29490872 5.69470361 5.8213787
v 4.29490872 5.60277592 6.00480395
v 0 5.69470361 9.9
v 4.29490872 5.69470361 9.9
v 21.42310757 0.9510155 5.3384039
v 25.71801629 0 5.2021637
v 21.42310757 1.76021161 4.95
v 25.71801629 1.76021161 4.95
v 21.42310757 0.9510155 9.9
v 25.71801629 0 9.9
v 21.42310757 5.69470361 4.95
v 21.42310757 5.69470361 5.5136459
v 21.42310757 5.69470361 5.8213787
v 21.42310757 5.60277592 6.00480395
v 25.71801629 5.69470361 4.95
v 25.71801629 5.69470361 5.5136459
v 25.71801629 5.69470361 5.8213787
v 25.71801629 5.60277592 6.00480395
v 21.42310757 5.69470361 9.9
v 25.71801629 5.69470361 9.9
f 1 2 7
f 1 18 2
f 1 10 18
f 1 7 6
f 1 6 14
f 6 7 22
f 6 23 33
f 1 14 10
f 10 15 35
f 10 35 39
f 10 39 51
f 6 33 14
f 10 14 15
f 14 16 15
f 15 36 35
f 16 43 37
f 14 33 43
f 14 43 16
f 2 18 19
f 18 21 19
f 18 25 21
f 19 21 20
f 6 22 23
f 22 24 23
f 24 46 50
f 23 50 33
f 23 24 50
f 10 28 18
f 10 55 28
f 10 51 55
f 18 28 25
f 26 48 27
f 25 28 26
f 26 55 48
f 26 28 55
f 34 43 33
f 34 33 50
f 35 36 39
f 40 39 36
f 41 37 44
f 34 44 43
f 44 37 43
f 34 50 49
f 60 50 46
f 49 50 60
f 58 60 46
f 56 48 55
f 52 55 51
f 52 56 55
f 53 59 57
f 57 60 58
f 49 60 59
f 57 59 60
f 2 5 7
f 2 3 5
f 5 8 7
f 7 8 9
f 11 12 13
f 2 20 3
f 2 19 20
f 7 9 22
f 9 24 22
f 11 25 12
f 12 26 13
f 12 25 26
f 13 26 27
f 5 9 8
f 3 17 5
f 3 4 17
f 5 17 9
f 4 11 17
f 11 13 17
f 9 17 29
f 13 31 36
f 13 15 17
f 15 16 17
f 13 36 15
f 17 38 29
f 16 38 17
f 16 37 38
f 3 20 4
f 4 21 11
f 4 20 21
f 11 21 25
f 9 29 24
f 24 29 46
f 13 27 31
f 27 32 31
f 27 47 32
f 27 48 47
f 30 29 38
f 30 45 29
f 40 31 32
f 30 38 42
f 40 36 31
f 42 38 37
f 41 42 37
f 45 46 29
f 45 58 46
f 56 47 48
f 45 54 58
f 52 47 56
f 53 58 54
f 53 57 58
f 32 51 39
f 51 32 47
f 30 42 34
f 30 34 45
f 40 32 39
f 41 44 42
f 34 42 44
f 45 49 54
f 34 49 45
f 52 51 47
f 53 54 59
f 49 59 54
