# MAAS exact compiled indexed mesh
# program_hash 8a7f4faad10e34249a95af59de4f9f674faccc6d2f028067018d2e1fc5110261
# geometry_hash 61c112c2c5c0bd115f18003c21ca8b8cc3b8419ad8bc787203b6b3d0ad986157
v -40.92392927 -32.39811067 0
v -40.92392927 -32.39811067 1.3464
v -11.59511329 -11.59511329 1.3464
v -11.59511329 -5.34614582 7.23229092
v -0.56431651 -11.73577375 4.95
v -0.62114703 -11.59511329 4.95
v -0.21616967 -11.59511329 4.95
v -11.59511329 -11.59511329 9.9
v -11.59511329 -5.34614582 9.9
v -0.56431651 -11.73577375 9.9
v -0.62114703 -11.59511329 9.9
v -0.21616967 -11.59511329 9.9
v -0.17172523 -11.42338806 9.9
v -0.53197284 -11.06314046 9.9
v -6.24896747 -5.34614582 9.9
v -40.92392927 32.39811067 0
v -40.92392927 32.39811067 1.3464
v -11.59511329 11.59511329 1.3464
v -11.59511329 -0 4.95
v -11.59511329 5.34614582 4.95
v -11.59511329 11.59511329 4.95
v -8.5582888 8.05000196 4.95
v -7.46586001 5.34614582 4.95
v -11.59511329 5.34614582 9.9
v -7.37050353 -0 9.9
v -5.92609178 -0 9.9
v -8.5582888 8.05000196 9.9
v -7.46586001 5.34614582 9.9
v 11.59511329 -11.59511329 1.3464
v 40.92392927 -32.39811067 0
v 40.92392927 -32.39811067 1.3464
v -0 -11.59511329 4.95
v -0 -11.50777508 4.95
v 7.46586001 -5.34614582 4.95
v 8.5582888 -8.05000196 4.95
v 11.59511329 -11.59511329 4.95
v 11.59511329 -5.34614582 4.95
v -0 -11.59511329 9.9
v -0 -11.50777508 9.9
v -0 -5.34614582 9.9
v 7.46586001 -5.34614582 9.9
v 8.5582888 -8.05000196 9.9
v 11.59511329 -5.34614582 9.9
v 11.59511329 11.59511329 1.3464
v 40.92392927 32.39811067 0
v 40.92392927 32.39811067 1.3464
v 3.14589377 5.34614582 4.95
v -0 11.50777508 4.95
v -0 11.59511329 4.95
v 0.21616967 11.59511329 4.95
v 0.62114703 11.59511329 4.95
v 0.56431651 11.73577375 4.95
v 11.59511329 -0 4.95
v 11.59511329 5.34614582 4.95
v 11.59511329 11.59511329 4.95
v 0.25707026 5.34614582 9.9
v 3.14589377 5.34614582 9.9
v 0.56431651 11.73577375 9.9
v 11.59511329 5.34614582 9.9
f 3 4 19
f 3 7 6
f 3 32 7
f 8 4 3
f 3 6 8
f 32 38 7
f 8 9 4
f 8 6 11
f 38 12 7
f 8 14 15
f 8 11 14
f 38 13 12
f 38 39 13
f 39 14 13
f 15 14 39
f 8 15 9
f 15 26 25
f 15 39 40
f 15 40 26
f 3 19 18
f 18 19 20
f 18 20 21
f 18 21 49
f 3 29 32
f 29 36 32
f 29 37 36
f 29 53 37
f 18 49 44
f 44 49 50
f 44 50 51
f 44 51 55
f 29 44 53
f 44 54 53
f 44 55 54
f 1 2 17
f 2 3 17
f 1 30 2
f 2 29 3
f 1 16 30
f 1 17 16
f 3 18 17
f 16 17 46
f 17 18 46
f 2 31 29
f 2 30 31
f 29 31 44
f 30 45 31
f 16 45 30
f 18 44 46
f 16 46 45
f 31 46 44
f 31 45 46
f 32 36 33
f 36 35 33
f 32 33 39
f 34 35 37
f 36 37 35
f 32 39 38
f 21 20 22
f 20 23 22
f 21 22 48
f 21 48 49
f 51 47 54
f 49 48 50
f 55 51 54
f 9 24 4
f 9 15 25
f 20 19 24
f 24 19 4
f 20 24 23
f 24 28 23
f 24 9 25
f 24 25 26
f 24 26 41
f 24 43 28
f 43 34 37
f 43 37 53
f 41 34 43
f 41 26 40
f 24 41 43
f 57 54 47
f 43 53 54
f 54 57 59
f 28 43 56
f 43 57 56
f 43 59 57
f 43 54 59
f 5 6 7
f 5 7 10
f 5 11 6
f 5 10 11
f 10 7 12
f 10 14 11
f 10 13 14
f 10 12 13
f 27 22 23
f 58 48 22
f 28 27 23
f 28 56 58
f 27 58 22
f 28 58 27
f 33 35 39
f 42 35 34
f 42 39 35
f 42 40 39
f 42 34 41
f 42 41 40
f 57 47 51
f 52 51 50
f 52 57 51
f 58 50 48
f 52 50 58
f 56 57 58
f 52 58 57
