# MAAS exact compiled indexed mesh
# program_hash 7a8a5a6517e4ae0c6eeed10d0a730c8b57b6bf004e5956d0597c58d1cf2d1916
# geometry_hash bfbc8b2e5eaba73da74071ee7b1735ee9599829cad2f1f1920a12e460bef988d
v -14.83873037 -10.59909312 0
v -14.83873037 -10.59909312 4.75299
v -6.35945587 -10.59909312 4.75299
v -6.35945587 -10.59909312 8.93243828
v -14.83873037 10.59909312 0
v -14.83873037 10.59909312 4.75299
v -6.35945587 10.59909312 4.75299
v -6.35945587 10.59909312 8.93243828
v 6.35945587 -10.59909312 0
v 6.35945587 -10.59909312 4.75101
v 6.35945587 -10.59909312 4.75299
v 14.83873037 -10.59909312 4.75101
v 1.23797408 -3.00166317 8.93243828
v 1.23797408 -3.00166317 9.9
v 7.24130042 -3.00166317 8.93243828
v 7.24130042 -3.00166317 9.9
v 14.83873037 -10.59909312 8.93243828
v 6.35945587 10.59909312 0
v 6.35945587 10.59909312 4.75101
v 6.35945587 10.59909312 4.75299
v 14.83873037 10.59909312 4.75101
v 1.23797408 3.00166317 8.93243828
v 1.23797408 3.00166317 9.9
v 7.24130042 3.00166317 8.93243828
v 7.24130042 3.00166317 9.9
v 14.83873037 10.59909312 8.93243828
f 4 3 11
f 4 8 3
f 4 13 22
f 8 7 3
f 4 22 8
f 12 11 10
f 4 11 12
f 4 17 13
f 4 12 17
f 13 17 15
f 12 21 17
f 15 17 26
f 21 19 20
f 26 20 7
f 8 22 24
f 8 26 7
f 8 24 26
f 15 26 24
f 17 21 26
f 21 20 26
f 13 16 14
f 13 14 22
f 14 16 23
f 13 15 16
f 15 25 16
f 14 23 22
f 22 23 24
f 23 16 25
f 15 24 25
f 23 25 24
f 1 9 2
f 1 5 9
f 1 2 6
f 2 10 3
f 2 9 10
f 1 6 5
f 6 7 5
f 5 18 9
f 5 19 18
f 5 7 20
f 5 20 19
f 10 11 3
f 9 19 10
f 9 18 19
f 12 10 19
f 12 19 21
f 2 3 6
f 6 3 7
