# MAAS exact compiled indexed mesh
# program_hash 8dec3983606cf64e4ad5a2256a9b10e490603ba104ebcb53e344dfa19206e353
# geometry_hash be6a97d4cfdfd65dc7e5e1e937070e613da02ef5abf9f720f8ddeb5ce5a6a13b
v -15.71366742 -11.27284836 0
v -4.09921759 -11.27284836 0
v -4.09921759 -5.12402198 3.53898305
v -4.09921759 -5.12402198 7.2
v -15.71366742 -11.27284836 7.3220339
v -15.03046448 -8.54003664 7.3220339
v -15.03046448 -8.54003664 10.86101695
v -4.09921759 -11.27284836 7.3220339
v -4.09921759 -8.54003664 7.2
v -4.09921759 -8.54003664 7.3220339
v -4.09921759 -8.54003664 10.86101695
v -15.71366742 7.17363078 0
v -4.09921759 5.12402198 3.53898305
v -4.09921759 5.12402198 7.2
v -4.09921759 7.17363078 0
v -15.03046448 3.07441319 7.3220339
v -15.03046448 3.07441319 10.86101695
v -15.71366742 7.17363078 7.3220339
v -4.09921759 3.07441319 7.2
v -4.09921759 3.07441319 7.3220339
v -4.09921759 3.07441319 10.86101695
v -4.09921759 7.17363078 7.3220339
v 4.09921759 -5.80722491 0
v 4.09921759 -5.12402198 3.53898305
v 4.09921759 -5.12402198 7.2
v 15.71366742 -5.80722491 0
v 4.09921759 -5.80722491 7.3220339
v 4.09921759 -3.75761612 7.3220339
v 4.09921759 -3.75761612 10.86101695
v 5.05570169 -2.39121026 10.86101695
v 5.05570169 -2.39121026 14.4
v 15.71366742 -5.80722491 7.3220339
v 15.71366742 -3.75761612 7.3220339
v 15.71366742 -3.75761612 10.86101695
v 13.9373398 -2.39121026 10.86101695
v 13.9373398 -2.39121026 14.4
v 4.09921759 5.12402198 3.53898305
v 4.09921759 5.12402198 7.2
v 4.09921759 11.27284836 0
v 15.71366742 11.27284836 0
v 4.09921759 7.85683371 7.3220339
v 4.09921759 11.27284836 7.3220339
v 5.05570169 6.49042785 10.86101695
v 4.09921759 7.85683371 10.86101695
v 5.05570169 6.49042785 14.4
v 15.71366742 7.85683371 7.3220339
v 15.71366742 11.27284836 7.3220339
v 13.9373398 6.49042785 10.86101695
v 15.71366742 7.85683371 10.86101695
v 13.9373398 6.49042785 14.4
f 1 2 5
f 2 8 5
f 1 12 2
f 1 5 18
f 2 3 8
f 3 9 8
f 3 4 9
f 2 15 3
f 5 8 6
f 5 6 16
f 5 16 18
f 6 8 10
f 8 9 10
f 1 18 12
f 2 12 15
f 12 22 15
f 12 18 22
f 3 15 13
f 13 15 22
f 13 22 14
f 16 20 18
f 18 20 22
f 19 14 20
f 20 14 22
f 23 24 37
f 23 27 24
f 24 27 25
f 23 26 27
f 26 32 27
f 23 39 26
f 26 40 32
f 27 38 25
f 27 28 38
f 27 32 28
f 28 32 33
f 23 37 39
f 37 38 39
f 39 38 42
f 26 39 40
f 32 40 33
f 33 40 46
f 39 47 40
f 39 42 47
f 40 47 46
f 28 41 38
f 38 41 42
f 41 46 42
f 42 46 47
f 3 25 4
f 4 25 19
f 3 13 37
f 19 25 14
f 13 14 38
f 3 37 24
f 3 24 25
f 14 25 38
f 13 38 37
f 6 11 7
f 6 7 16
f 7 17 16
f 7 11 17
f 6 10 11
f 9 4 10
f 10 4 11
f 11 4 19
f 11 19 20
f 11 20 21
f 11 21 17
f 16 17 20
f 17 21 20
f 29 35 30
f 28 34 29
f 28 33 34
f 29 34 35
f 28 29 41
f 29 44 41
f 29 30 44
f 44 30 43
f 44 43 48
f 33 49 34
f 33 46 49
f 34 49 35
f 49 48 35
f 41 44 46
f 44 49 46
f 44 48 49
f 36 30 35
f 31 30 36
f 31 43 30
f 31 45 43
f 31 36 45
f 45 36 50
f 36 35 50
f 50 35 48
f 45 48 43
f 45 50 48
