# MAAS exact compiled indexed mesh
# program_hash 35109c89688804d9f4f56f654d5dd24ff129a194d17ee50f463c6b25e53052f5
# geometry_hash 74c1a9911e054fbb1d2ba2b05ff1993bb7f44d84942816e68a2ee4a18a1b042e
v -19.10834029 -9.95557263 0.8599333
v -19.10834029 -6.91441802 0.8773085
v -19.10834029 -9.99094133 3.9429182
v -19.10834029 -6.93149206 2.36560236
v -19.10834029 -5.4701534 3.96874707
v -21.72592115 -3.90876021 0.91691406
v -20.41713072 -3.89104369 0.90577353
v -19.10834029 -3.87326341 0.89468369
v -17.79954986 -2.66562918 0.89384156
v -20.09923934 -1.45768325 0.91169956
v -17.79954986 -2.37584696 0.89632508
v -18.79044891 -1.4399569 0.90756083
v -16.49075942 -1.45806826 0.89984786
v -16.49075942 -1.16830265 0.90315914
v -16.49075942 -0.87853704 0.90647043
v -21.72592115 -3.90876021 2.4052567
v -20.41713072 -3.89958078 2.39410397
v -19.10834029 -3.89033746 2.38297756
v -21.72592115 -3.90876021 3.89359933
v -20.41713072 -3.90811787 3.88243441
v -19.10834029 -3.9074115 3.87127142
v -16.49075942 -0.91268401 2.39461797
v -20.41713072 -2.42844818 3.88666128
v -20.41713072 -1.47905938 3.88937334
v -19.10834029 -2.42777818 3.87972509
v -19.10834029 -0.94814485 3.88817876
v -17.79954986 -0.94749568 3.8854712
v -16.49075942 -0.94683099 3.88276551
v -19.10834029 -10.02631003 7.0259031
v -19.10834029 -5.5055221 7.05173197
v -19.10834029 -2.44607284 5.47441613
v -19.10834029 -0.96643951 5.4828698
v -17.79954986 -0.97493729 5.48009691
v -19.10834029 -0.98473417 7.07756084
v -21.72592115 0 0.91691406
v -20.09923934 2.45102749 0.92557739
v -18.47255754 0.99330764 0.92381161
v -17.48165848 0.05734738 0.91717969
v -16.49075942 0.07073509 0.9173182
v -17.48165848 1.00666216 0.92597435
v -16.49075942 1.02000722 0.92816597
v -18.79044891 2.46864222 0.9326042
v -17.79954986 2.48195162 0.93795771
v -21.72592115 3.90876021 0.91691406
v -20.41713072 3.92641268 0.92810512
v -19.10834029 3.94400082 0.9393465
v -21.72592115 0 2.4052567
v -16.49075942 0.03658812 2.40546574
v -16.49075942 0.98586025 2.41631351
v -21.72592115 0 3.89359933
v -19.10834029 0.00122061 3.89360282
v -19.10834029 0.95058608 3.89902688
v -20.41713072 2.4296688 3.90053913
v -19.10834029 2.4302194 3.90748056
v -17.79954986 0.00183089 3.89360718
v -17.79954986 0.95115747 3.90174316
v -16.49075942 0.00244115 3.89361328
v -16.49075942 0.95171328 3.90446105
v -21.72592115 3.90876021 2.4052567
v -20.41713072 3.91787559 2.41643556
v -19.10834029 3.92692677 2.42764037
v -21.72592115 3.90876021 3.89359933
v -20.41713072 3.9093385 3.904766
v -19.10834029 3.90985273 3.91593423
v -19.10834029 6.98515543 0.9567217
v -19.10834029 10.02631003 0.9740969
v -19.10834029 6.96808138 2.44501556
v -19.10834029 0.93229142 5.49371792
v -19.10834029 2.41192474 5.50217159
v -17.79954986 0.92371586 5.49636888
v -19.10834029 0.91399676 7.08840896
v -19.10834029 6.93271268 5.52800046
v -19.10834029 9.99094133 4.0570818
v -19.10834029 5.43478469 7.11423783
v -19.10834029 9.95557263 7.1400667
v 1.30879043 -9.65493899 0.42283448
v 1.30879043 -6.62139951 0.57560857
v 2.61758086 -5.41519579 0.61988403
v 1.30879043 -9.96592375 3.4980995
v 2.61758086 -0.90706764 0.85986824
v 2.61758086 -0.61808506 0.87525184
v 2.61758086 -0.77672544 2.35937797
v 21.72592115 -9.31581832 -4.86e-06
v 21.72592115 -9.90117948 3.05528151
v 21.72592115 -5.42100777 3.48275594
v 21.72592115 -4.83564661 0.42746957
v 21.72592115 -0.3554749 0.854944
v 21.72592115 -0.94083606 3.91023037
v 1.30879043 -10.27690851 6.57336453
v 1.30879043 -5.76744075 6.80046883
v 2.61758086 -1.10534729 5.43372943
v 1.30879043 -1.25797299 7.02757312
v 21.72592115 -10.48654064 6.11056787
v 21.72592115 -6.00636893 6.5380423
v 21.72592115 -1.52619722 6.96551674
v 2.61758086 1.27532876 0.97604522
v 1.30879043 2.73390128 1.04675708
v 2.61758086 1.11668839 2.46017134
v 1.30879043 5.76744075 1.19953117
v 1.30879043 10.27690851 1.42663547
v 21.72592115 1.52619722 1.03448326
v 21.72592115 6.00636893 1.4619577
v 21.72592115 10.48654064 1.88943213
v 1.30879043 0.94698823 4.0476919
v 1.30879043 0.63600347 7.12295693
v 1.30879043 5.14547123 7.35006123
v 1.30879043 9.96592375 4.5019005
v 1.30879043 9.65493899 7.57716552
v 21.72592115 0.94083606 4.08976963
v 21.72592115 0.3554749 7.145056
v 21.72592115 4.83564661 7.57253043
v 21.72592115 5.42100777 4.51724406
v 21.72592115 9.90117948 4.94471849
v 21.72592115 9.31581832 8.00000486
f 4 2 1
f 4 18 2
f 2 76 1
f 76 3 1
f 2 8 77
f 3 5 1
f 5 4 1
f 18 8 2
f 9 77 8
f 4 21 18
f 5 31 4
f 31 21 4
f 2 77 76
f 76 79 3
f 9 13 78
f 14 80 13
f 14 15 81
f 22 81 15
f 9 78 77
f 80 78 13
f 14 81 80
f 22 82 81
f 22 28 82
f 91 82 28
f 3 30 5
f 79 29 3
f 3 29 30
f 89 30 29
f 31 25 21
f 5 34 31
f 32 26 25
f 31 32 25
f 32 27 26
f 33 28 27
f 32 33 27
f 30 34 5
f 31 34 32
f 32 34 33
f 90 34 30
f 33 34 92
f 79 89 29
f 89 90 30
f 33 91 28
f 33 92 91
f 90 92 34
f 77 83 76
f 76 83 79
f 78 83 77
f 80 86 78
f 81 87 80
f 82 87 81
f 91 88 82
f 86 83 78
f 86 84 83
f 79 83 84
f 86 85 84
f 80 87 86
f 86 87 85
f 88 87 82
f 88 85 87
f 79 84 89
f 89 93 90
f 90 94 92
f 92 95 91
f 84 93 89
f 85 93 84
f 94 93 85
f 90 93 94
f 91 95 88
f 88 94 85
f 88 95 94
f 94 95 92
f 42 40 37
f 42 43 40
f 43 41 40
f 42 46 43
f 61 65 46
f 43 46 97
f 65 97 46
f 61 64 67
f 61 67 65
f 67 66 65
f 65 66 99
f 72 67 64
f 73 66 67
f 73 107 66
f 43 96 41
f 96 49 41
f 65 99 97
f 43 97 96
f 96 98 49
f 98 58 49
f 98 70 58
f 100 99 66
f 107 100 66
f 68 54 52
f 68 69 54
f 56 68 52
f 56 58 70
f 56 70 68
f 69 64 54
f 69 72 64
f 104 71 70
f 68 71 69
f 70 71 68
f 69 71 74
f 69 74 72
f 105 74 71
f 72 73 67
f 72 75 73
f 74 75 72
f 106 75 74
f 73 75 108
f 98 104 70
f 104 105 71
f 105 106 74
f 73 108 107
f 106 108 75
f 96 101 98
f 97 101 96
f 99 101 97
f 98 101 104
f 100 102 99
f 107 113 100
f 102 101 99
f 104 101 109
f 102 109 101
f 102 112 109
f 100 103 102
f 113 103 100
f 102 103 112
f 113 112 103
f 104 109 105
f 105 110 106
f 106 111 108
f 108 114 107
f 112 110 109
f 109 110 105
f 106 110 111
f 111 110 112
f 107 114 113
f 113 111 112
f 111 114 108
f 113 114 111
f 7 16 6
f 7 8 17
f 7 17 16
f 18 17 8
f 16 47 6
f 47 35 6
f 39 22 15
f 39 48 22
f 17 19 16
f 18 20 17
f 20 19 17
f 18 21 20
f 20 23 19
f 20 21 25
f 20 25 23
f 16 50 47
f 48 28 22
f 16 19 50
f 23 24 19
f 24 50 19
f 25 26 23
f 23 51 24
f 23 26 51
f 51 52 24
f 48 57 28
f 27 51 26
f 27 55 51
f 27 28 55
f 57 55 28
f 47 59 35
f 59 44 35
f 39 41 48
f 48 41 49
f 60 45 44
f 61 46 45
f 59 60 44
f 60 61 45
f 47 62 59
f 48 49 57
f 50 62 47
f 24 53 50
f 24 52 53
f 53 62 50
f 54 53 52
f 49 58 57
f 55 52 51
f 56 52 55
f 57 56 55
f 57 58 56
f 59 63 60
f 60 64 61
f 59 62 63
f 63 64 60
f 63 62 53
f 54 63 53
f 54 64 63
f 10 7 6
f 12 8 7
f 11 9 8
f 35 10 6
f 10 12 7
f 10 37 12
f 12 11 8
f 11 14 9
f 14 13 9
f 11 15 14
f 12 38 11
f 12 37 38
f 38 15 11
f 38 39 15
f 35 36 10
f 36 37 10
f 35 44 36
f 36 42 37
f 38 37 40
f 38 40 39
f 40 41 39
f 36 44 45
f 36 45 42
f 45 46 42
