# MAAS exact compiled indexed mesh
# program_hash 4d3cfe3dd1c7296e244c76e6bbdfa9387731025334e6c0915444049273b3fbcd
# geometry_hash 3b7b4d959f73f6c554436c493f3b8983985458290a6ae029099fae10c38d4e9c
v -8.65380857 -11.80706143 0
v -16.91875157 -3.06983597 0
v -8.65380857 -5.90353071 0
v -10.42486778 -3.06983597 0
v -8.65380857 -11.80706143 5.21052632
v -16.91875157 -3.06983597 5.21052632
v -8.65380857 -5.90353071 5.21052632
v -10.42486778 -3.06983597 5.21052632
v -10.42486778 5.90353071 0
v -16.91875157 11.80706143 0
v -10.42486778 5.90353071 5.21052632
v -16.91875157 11.80706143 5.21052632
v -1.33343048 4.9589658 5.10631579
v -1.33343048 5.90353071 5.10631579
v -1.33343048 5.90353071 5.21052632
v -1.33343048 4.9589658 9.9
v -1.33343048 11.80706143 5.21052632
v -1.33343048 11.80706143 9.9
v 3.2086812 -15.17349078 0
v 3.2086812 -11.80706143 0
v 13.77594698 -11.80706143 0
v 16.91874684 -15.17349078 0
v 9.17485419 -5.90353071 0
v 9.83598351 -6.51568749 0
v 3.2086812 -15.17349078 5.21052632
v 3.2086812 -11.80706143 5.21052632
v 6.14938158 -11.80706143 5.21052632
v 13.77594698 -11.80706143 5.21052632
v 16.91874684 -15.17349078 5.21052632
v 15.51930112 -10.91626014 5.21052632
v 15.55066736 -11.01167886 5.21052632
v 9.17485419 -5.90353071 5.21052632
v 9.83598351 -6.51568749 5.21052632
v 3.2086812 9.00206457 0
v 3.2086812 11.80706143 0
v 3.2086812 15.17349078 0
v 9.83598351 4.06706038 0
v 9.17485419 5.90353071 0
v 10.094731 6.7552685 0
v 13.29798339 11.2950878 0
v 16.91874684 15.17349078 0
v 3.2086812 11.80706143 5.21052632
v 3.2086812 15.17349078 5.21052632
v 3.2086812 11.80706143 9.9
v 3.2086812 15.17349078 9.9
v 9.83598351 3.22044055 5.21052632
v 9.17485419 4.9589658 5.10631579
v 9.17485419 4.9589658 5.21052632
v 10.30076377 4.9589658 5.21052632
v 9.17485419 5.90353071 5.10631579
v 14.96031429 4.9589658 5.21052632
v 14.96031429 6.37286613 5.21052632
v 15.08220225 6.37286613 5.21052632
v 15.55066736 6.37286613 5.21052632
v 16.26293542 6.37286613 5.21052632
v 14.96031429 4.9589658 9.9
v 14.96031429 6.37286613 9.9
v 16.26293542 6.37286613 9.9
v 16.26293542 15.17349078 5.21052632
v 16.91874684 15.17349078 5.21052632
v 11.26940072 11.80706143 9.9
v 16.26293542 15.17349078 9.9
f 2 9 4
f 1 20 26
f 1 3 23
f 1 26 5
f 6 8 11
f 5 32 7
f 2 6 10
f 2 10 9
f 6 12 10
f 10 12 17
f 10 35 9
f 10 17 35
f 9 35 34
f 6 11 12
f 12 11 17
f 11 15 17
f 1 23 20
f 23 24 20
f 24 21 20
f 23 37 24
f 5 26 32
f 26 27 32
f 32 27 33
f 33 27 28
f 32 33 46
f 46 30 49
f 31 54 30
f 9 34 38
f 17 42 35
f 23 38 37
f 38 39 37
f 34 40 38
f 38 40 39
f 32 46 48
f 46 49 48
f 54 53 30
f 4 11 8
f 3 7 23
f 4 9 11
f 9 38 14
f 9 14 11
f 11 14 15
f 7 32 23
f 23 32 38
f 14 38 50
f 32 47 38
f 38 47 50
f 32 48 47
f 1 7 3
f 1 5 7
f 2 4 8
f 2 8 6
f 13 15 14
f 13 18 15
f 13 16 18
f 15 18 17
f 13 14 47
f 13 48 16
f 13 47 48
f 14 50 47
f 16 56 18
f 16 48 56
f 17 18 42
f 18 44 42
f 18 56 44
f 56 48 49
f 56 49 51
f 52 57 51
f 56 51 57
f 56 61 44
f 56 57 61
f 19 20 21
f 19 29 25
f 19 21 22
f 19 22 29
f 24 39 21
f 22 21 39
f 22 41 29
f 25 27 26
f 25 28 27
f 25 29 28
f 29 31 28
f 33 28 30
f 31 30 28
f 33 30 46
f 29 55 31
f 30 51 49
f 40 34 35
f 36 40 35
f 36 43 41
f 24 37 39
f 22 39 41
f 29 41 60
f 36 41 40
f 41 39 40
f 43 59 41
f 41 59 60
f 30 53 51
f 55 54 31
f 29 60 55
f 51 53 52
f 55 60 59
f 43 45 59
f 45 44 61
f 53 57 52
f 53 54 57
f 55 57 54
f 55 58 57
f 55 59 62
f 45 62 59
f 45 61 62
f 55 62 58
f 62 61 57
f 58 62 57
f 19 26 20
f 19 25 26
f 36 35 43
f 43 35 42
f 43 42 45
f 45 42 44
