# MAAS exact compiled indexed mesh
# program_hash 69a24ba232714631cc69c4873013e46a2763a5f37e00015c71c7c5d35b33a110
# geometry_hash e08aedadcc06cc4c9855cd94901e804cdc6f1aa8777cf93c3afa850b67a7ee9a
v -20.87174406 -8.98519235 0.00288582
v -4.79793417 -8.98936628 0
v -4.79793417 -8.98519235 0.00288582
v -4.69155881 -4.91130777 0
v -4.79793417 -4.64801952 0.00288582
v -4.79793417 -4.64801952 0
v -6.4226677 -0.6266629 -0
v -6.4226677 -0.6266629 0.00288582
v -3.33705817 -4.36405399 0.00288582
v -3.33705817 -4.36405399 0
v -1.87618217 -4.36405399 0.00288582
v -1.87618217 -3.77382178 0.00288582
v -20.87174406 -8.98519235 9.89711418
v -4.79793417 -8.98936628 9.9
v -4.79793417 -8.98519235 9.89711418
v -4.79793417 -4.64801952 9.89711418
v -4.79793417 -4.64801952 9.9
v -6.4226677 -0.6266629 9.9
v -6.4226677 -0.6266629 9.89711418
v -4.79793417 -4.36405399 9.9
v -3.33705817 -4.36405399 9.89711418
v -3.33705817 -4.36405399 9.9
v -1.87618217 -4.36405399 9.89711418
v -1.87618217 -3.77382178 9.89711418
v -20.87174406 0.25708436 0.00288582
v -4.23531647 0.25708436 0.00288582
v -20.87174406 7.6e-07 4.95
v -20.75427348 0.17138983 4.96160818
v -20.87174406 0.25708436 4.95
v -20.6955382 0.25708436 4.96741228
v -20.87174406 7.6e-07 6.59903806
v -20.81300877 0.0856953 6.60097501
v -20.75427348 0.17138983 6.60291197
v -20.6955382 0.25708436 6.60484892
v -15.196879 0.25708436 4.96741228
v -13.87533918 0.0856953 4.95580409
v -13.83618232 0.17138983 4.96160818
v -15.196879 0.25708436 6.60484892
v -20.87174406 7.6e-07 8.24807612
v -20.81300877 0.0856953 8.24614594
v -20.75427348 0.17138983 8.24421575
v -20.6955382 0.25708436 8.24228556
v -20.87174406 7.6e-07 9.89711418
v -20.81300877 0.0856953 9.89131686
v -20.75427348 0.17138983 9.88551953
v -20.6955382 0.25708436 9.87972221
v -15.196879 0.25708436 8.24228556
v -15.494643 0.0856953 9.89131686
v -15.45091639 0.17138983 9.88551953
v -15.196879 0.25708436 9.87972221
v -9.69821979 0.25708436 4.96741228
v -8.32191757 0.17138983 4.96160818
v -6.93766959 0.0856953 4.95580409
v -9.69821979 0.25708436 6.60484892
v -4.23531647 0.25708436 4.95
v -4.19956059 0.25708436 4.96741228
v -2.80765281 0.17138983 4.96160818
v -2.7468192 0.82747734 5.006045
v -1.40779928 0.0856953 4.95580409
v -1.37738247 0.74178281 5.00024091
v -1.34696567 1.39787031 5.04467773
v -4.19956059 0.25708436 6.60484892
v -2.7468192 0.82747734 6.61774151
v -1.34696567 1.39787031 6.6306341
v -9.69821979 0.25708436 8.24228556
v -10.17627722 0.0856953 9.89131686
v -9.93665163 0.17138983 9.88551953
v -9.69821979 0.25708436 9.87972221
v -4.19956059 0.25708436 8.24228556
v -2.7468192 0.82747734 8.22943802
v -4.8716207 7.6e-07 9.89711418
v -4.8716207 7.6e-07 9.9
v -4.64640691 0.0856953 9.89131686
v -4.64640691 0.0856953 9.89323622
v -4.64640691 0.0856953 9.89227654
v -4.42238688 0.17138983 9.88551953
v -4.42238688 0.17138983 9.88647696
v -4.19956059 0.25708436 9.87972221
v 20.87174406 -8.98936628 0
v 20.87174406 -4.36405399 0
v 0 -8.98936628 4.95
v 6.95724802 -8.98936628 4.95
v 6.95724802 -7.44759552 4.95
v 6.95724802 -8.98936628 6.6
v 6.95724802 -5.90582476 4.95
v 0 -8.98936628 9.9
v 0 -6.33087501 9.9
v 1.39291515 -5.69503785 9.9
v 0 -5.00162937 9.9
v 3.37752493 -4.57657912 9.9
v 6.95724802 -8.98936628 8.25
v 0 -4.36405399 4.95
v 0 -3.01579498 4.95
v 3.37752493 -4.36405399 6.6
v 2.4881188 -2.01052973 4.95
v 2.4881188 -1.00526448 4.95
v 4.9762376 -1.00526448 4.95
v 6.95724802 -4.36405399 4.95
v 6.95724802 -4.36405399 6.6
v 6.3696508 -0.44228901 6.6
v 3.37752493 -4.36405399 8.25
v 0 -4.36405399 9.9
v 0 -3.01579498 9.9
v 3.37752493 -4.36405399 9.9
v 0 -2.01052973 9.9
v 0 -1.00526448 9.9
v 6.75504987 -4.36405399 8.25
v 10.33477295 -4.36405399 8.25
v 6.75504987 -4.36405399 9.9
v 10.1325748 -4.36405399 9.9
v 6.3696508 -0.44228901 8.25
v 6.3696508 -0.44228901 9.9
v 13.91449604 -8.98936628 4.95
v 13.91449604 -7.44759552 4.95
v 13.91449604 -8.98936628 6.6
v 13.91449604 -5.90582476 4.95
v 20.87174406 -8.98936628 4.95
v 20.87174406 -7.44759552 4.95
v 20.87174406 -8.98936628 6.6
v 20.87174406 -7.44759552 6.6
v 20.87174406 -5.90582476 4.95
v 20.87174406 -5.90582476 6.6
v 13.91449604 -8.98936628 8.25
v 13.91449604 -8.98936628 9.9
v 13.71229788 -4.58275573 9.9
v 14.18645535 -4.5682715 9.9
v 20.87174406 -8.98936628 8.25
v 20.87174406 -7.44759552 8.25
v 15.79529647 -8.13081951 9.9
v 20.87174406 -8.98936628 9.9
v 20.87174406 -5.90582476 8.25
v 20.87174406 -5.90582476 9.9
v 13.91449604 -4.36405399 4.95
v 13.91449604 -4.36405399 6.6
v 20.87174406 -4.36405399 4.95
v 20.87174406 -4.36405399 6.6
v 13.91449604 -4.36405399 8.25
v 13.71229788 -4.36405399 9.9
v 20.87174406 -4.36405399 8.25
v 17.29202097 -4.36405399 9.9
v 20.87174406 -4.36405399 9.9
v 19.10895239 4.70472294 -0
v 17.3778435 8.98936781 -0
v 0 7.6e-07 4.95
v 0 0.65608827 4.99443682
v 2.4881188 7.6e-07 4.95
v 2.43451197 0.65608827 4.99443682
v 0 1.31217578 5.03887364
v 0 1.96826329 4.95
v 0 1.96826329 5.08331046
v 2.38090514 1.31217578 5.03887364
v 4.9762376 7.6e-07 4.95
v 4.86902394 0.65608827 4.99443682
v 4.97301603 4.30863146 5.24182364
v 4.97301603 4.30863146 6.69727455
v 7.46435639 7.6e-07 4.95
v 8.21076034 2.224329 5.10065379
v 8.69401213 0.56297624 6.61271011
v 5.76714943 2.88041651 5.14509061
v 0 7.6e-07 9.9
v 3.84305351 3.73823849 8.1647395
v 2.29445242 2.99645645 9.69705
v 2.47792465 3.08215098 9.6903651
v 2.66020313 3.16784551 9.68368472
v 3.75853682 2.99645645 9.69705
v 6.25189228 0.56297624 9.86186966
v 6.04161927 1.56824149 9.79378303
v 5.22262123 2.99645645 9.69705
v 10.07711468 5.22078468 5.30360379
v 9.05565073 6.64899964 5.40033682
v 9.05565073 6.64899964 6.75011227
v 9.05565073 6.64899964 8.09988773
v 10.3391522 4.56469717 9.59083303
v 8.00096068 5.99291213 9.4941
v 8.14269136 6.07860666 9.48749398
v 9.30525593 5.99291213 9.4941
v 10.76158491 1.56824149 5.05621697
v 10.76158491 1.56824149 6.63540566
v 11.15270563 3.79256972 5.20687077
v 13.65902232 3.13648221 5.16243395
v 13.65902232 3.13648221 6.67081132
v 11.84772149 2.13121697 8.20188423
v 11.84772149 2.13121697 9.75565269
v 13.65902232 3.13648221 8.17918868
v 11.42717547 3.13648221 9.68756605
v 14.79962011 6.1329379 5.36538395
v 14.79962011 6.1329379 6.73846132
v 12.2479041 8.98936781 5.55885
v 13.4966986 7.56115285 5.46211697
v 12.2479041 8.98936781 6.80295
v 13.4966986 7.56115285 6.77070566
v 16.15666862 4.70472294 5.26865092
v 19.10895239 4.70472294 4.95
v 16.15666862 4.70472294 6.70621697
v 17.3778435 8.98936781 4.95
v 14.79962011 6.1329379 8.11153868
v 14.79962011 6.1329379 9.48461605
v 12.2479041 8.98936781 8.04705
v 13.4966986 7.56115285 8.07929434
v 12.2479041 8.98936781 9.29115
v 13.4966986 7.56115285 9.38788303
v 16.15666862 4.70472294 8.14378303
v 16.15666862 4.70472294 9.58134908
v 19.10895239 4.70472294 9.9
f 1 25 3
f 1 27 25
f 3 25 8
f 8 25 26
f 3 8 5
f 1 3 15
f 9 12 11
f 1 13 27
f 1 15 13
f 13 16 19
f 13 31 27
f 13 39 31
f 13 43 39
f 13 19 43
f 19 71 43
f 13 15 16
f 21 23 24
f 25 27 29
f 25 29 55
f 25 55 26
f 27 32 28
f 28 33 30
f 27 31 32
f 28 32 33
f 30 33 34
f 30 34 38
f 30 38 35
f 31 39 32
f 32 40 33
f 33 41 34
f 34 47 38
f 35 38 54
f 35 54 51
f 38 65 54
f 32 39 40
f 33 40 41
f 34 41 42
f 34 42 47
f 39 43 40
f 40 44 41
f 41 45 42
f 40 43 44
f 41 44 45
f 42 45 46
f 42 46 50
f 44 43 48
f 44 48 45
f 45 49 46
f 42 50 47
f 45 48 49
f 46 49 50
f 38 47 65
f 48 43 66
f 47 50 68
f 48 66 49
f 49 67 50
f 47 68 65
f 66 43 71
f 49 66 67
f 50 67 68
f 51 54 62
f 51 62 56
f 54 69 62
f 54 65 69
f 65 68 78
f 66 73 67
f 67 76 68
f 65 78 69
f 66 71 73
f 67 73 76
f 68 76 78
f 4 6 10
f 5 7 6
f 5 8 7
f 7 8 26
f 9 10 12
f 12 93 24
f 16 17 19
f 17 20 18
f 17 18 19
f 18 20 72
f 18 71 19
f 18 72 71
f 24 93 103
f 21 24 22
f 20 22 160
f 22 24 103
f 22 103 105
f 22 105 106
f 20 160 72
f 22 106 160
f 26 55 149
f 6 142 10
f 10 142 12
f 6 7 142
f 12 142 93
f 142 95 93
f 7 26 143
f 7 143 142
f 26 149 195
f 26 195 143
f 193 95 142
f 142 143 193
f 143 195 193
f 193 100 95
f 193 204 100
f 100 156 95
f 204 156 100
f 193 156 204
f 56 62 58
f 58 62 63
f 58 63 61
f 61 63 64
f 61 64 150
f 62 69 63
f 63 70 64
f 63 69 70
f 64 70 161
f 69 78 70
f 74 71 72
f 73 71 75
f 74 75 71
f 73 75 76
f 74 77 75
f 75 77 76
f 76 77 78
f 74 72 162
f 74 163 77
f 70 78 164
f 77 164 78
f 95 100 93
f 100 111 93
f 95 97 158
f 95 158 100
f 103 93 111
f 103 112 105
f 166 106 105
f 103 111 112
f 112 166 105
f 64 155 150
f 150 155 154
f 64 161 155
f 178 97 156
f 177 178 156
f 97 178 158
f 100 158 182
f 168 72 160
f 167 160 106
f 74 162 163
f 77 163 164
f 162 72 165
f 165 72 168
f 166 167 106
f 167 168 160
f 70 164 161
f 161 164 175
f 162 174 163
f 163 175 164
f 162 165 174
f 100 182 111
f 111 183 112
f 112 183 166
f 111 182 183
f 166 185 167
f 166 183 185
f 167 173 168
f 165 168 176
f 167 185 173
f 154 171 170
f 154 155 171
f 155 172 171
f 170 171 190
f 155 161 172
f 161 175 172
f 163 174 175
f 165 176 174
f 168 173 176
f 171 172 198
f 172 175 200
f 174 200 175
f 174 176 200
f 177 181 178
f 158 178 184
f 177 180 181
f 180 194 181
f 180 192 194
f 178 181 184
f 181 194 202
f 158 184 182
f 182 184 203
f 181 202 184
f 184 202 203
f 182 203 183
f 183 203 185
f 186 189 187
f 186 187 194
f 187 191 196
f 170 190 188
f 188 191 189
f 188 190 191
f 171 198 190
f 189 191 187
f 190 199 191
f 186 194 192
f 187 202 194
f 187 196 202
f 196 199 197
f 173 185 197
f 173 201 176
f 173 197 201
f 185 203 197
f 196 197 203
f 190 198 199
f 172 200 198
f 191 199 196
f 198 201 199
f 176 201 200
f 198 200 201
f 199 201 197
f 196 203 202
f 11 12 24
f 11 24 23
f 2 3 6
f 2 6 4
f 3 5 6
f 2 15 3
f 9 11 10
f 2 81 14
f 2 14 15
f 14 81 86
f 14 16 15
f 86 87 14
f 14 87 89
f 14 17 16
f 14 89 17
f 17 89 102
f 11 23 92
f 23 102 92
f 17 22 20
f 21 22 23
f 17 102 22
f 22 102 23
f 2 4 79
f 4 10 79
f 2 79 81
f 10 11 80
f 11 92 135
f 10 80 79
f 79 80 117
f 79 117 81
f 80 135 117
f 11 135 80
f 86 124 87
f 88 87 124
f 88 124 129
f 88 129 89
f 89 125 110
f 129 130 89
f 89 132 125
f 89 130 132
f 132 126 125
f 132 140 126
f 82 86 81
f 82 84 86
f 82 113 84
f 84 115 91
f 84 91 86
f 90 102 89
f 90 89 109
f 91 124 86
f 109 89 110
f 98 92 99
f 94 99 92
f 102 94 92
f 98 99 134
f 94 108 99
f 102 101 94
f 94 101 107
f 101 102 104
f 90 104 102
f 101 104 109
f 90 109 104
f 94 107 108
f 99 108 137
f 101 109 107
f 107 138 108
f 107 109 110
f 107 110 138
f 84 113 115
f 113 117 115
f 118 119 117
f 115 117 119
f 118 120 119
f 118 121 120
f 115 119 123
f 119 120 127
f 120 122 128
f 121 122 120
f 121 135 122
f 122 135 136
f 122 136 131
f 115 123 91
f 91 123 124
f 119 127 123
f 120 128 127
f 123 127 124
f 127 128 130
f 127 130 124
f 128 132 130
f 122 131 128
f 136 139 131
f 128 131 132
f 131 139 132
f 132 139 141
f 98 134 133
f 99 137 134
f 133 134 136
f 133 136 135
f 134 139 136
f 108 140 137
f 108 138 140
f 134 137 139
f 137 140 141
f 137 141 139
f 92 81 117
f 93 95 144
f 144 95 156
f 135 92 117
f 82 81 83
f 83 81 85
f 85 81 92
f 85 92 98
f 82 83 113
f 83 85 114
f 85 98 116
f 89 87 88
f 96 95 93
f 96 93 146
f 146 93 144
f 95 96 97
f 96 146 152
f 96 152 97
f 97 152 156
f 83 114 113
f 85 116 114
f 98 133 116
f 113 114 117
f 114 116 118
f 114 118 117
f 116 133 121
f 116 121 118
f 121 133 135
f 138 125 126
f 124 130 129
f 141 140 132
f 138 110 125
f 138 126 140
f 27 144 29
f 29 144 55
f 55 144 149
f 27 28 36
f 28 30 37
f 30 35 37
f 28 37 36
f 35 52 37
f 27 36 144
f 36 37 53
f 35 51 52
f 37 52 53
f 36 53 144
f 51 57 52
f 52 59 53
f 51 56 57
f 52 57 59
f 53 59 144
f 56 58 57
f 57 60 59
f 57 58 60
f 58 61 60
f 59 60 145
f 59 145 144
f 60 148 145
f 60 61 148
f 61 150 148
f 149 144 156
f 149 156 193
f 149 193 195
f 145 146 144
f 145 148 147
f 145 147 146
f 147 148 151
f 148 150 151
f 146 147 152
f 147 151 153
f 147 153 152
f 150 159 151
f 151 157 153
f 150 154 159
f 152 153 156
f 153 177 156
f 151 159 157
f 153 157 177
f 154 169 159
f 157 159 179
f 159 169 179
f 154 170 169
f 157 180 177
f 157 179 180
f 179 192 180
f 169 186 179
f 169 170 189
f 169 189 186
f 179 186 192
f 170 188 189
