# MAAS exact compiled indexed mesh
# program_hash d5f111787f2fdbfeaf19de898db33d80d918901c0c830d13ddd13238f5f3acc9
# geometry_hash 653750e18cc119d8489ac5a978e6a13968b403790d25273079d0f08e9ac2274c
v -17.19536466 -12.32834262 0
v -17.19536466 -12.32834262 3.53571429
v -13.04265977 -7.65654963 3.53571429
v -13.04265977 -7.65654963 9.9
v -15.72947782 0.61262605 3.53571429
v -15.72947782 0.61262605 4.95
v -15.53042355 0 4.95
v -17.19536466 12.32834262 0
v -17.19536466 12.32834262 3.53571429
v -5.17680584 0 4.95
v -5.24315726 0.20420868 4.95
v -15.59677498 0.20420868 4.95
v -12.91980764 1.52554323 5.523276
v -15.59677498 0.20420868 6.6
v -15.6631264 0.40841737 6.6
v -15.72947782 0.61262605 6.6
v -15.53042355 0 6.6
v -12.91980764 1.52554323 7.173276
v -10.3536147 0 4.95
v -10.41996612 0.20420868 4.95
v -10.48631754 0.40841737 4.95
v -10.48631754 2.31623209 4.95
v -9.03738791 2.78701787 5.523276
v -10.11013745 2.43846041 6.096552
v -10.3536147 0 6.6
v -15.59677498 0.20420868 8.25
v -15.6631264 0.40841737 8.25
v -15.72947782 0.61262605 8.25
v -15.53042355 0 8.25
v -15.59677498 0.20420868 9.9
v -15.6631264 0.40841737 9.9
v -15.72947782 0.61262605 9.9
v -15.53042355 0 9.9
v -12.91980764 1.52554323 8.823276
v -12.91980764 1.52554323 9.806676
v -10.3536147 0 8.25
v -10.11013745 2.43846041 7.746552
v -10.3536147 0 9.9
v -10.41996612 0.20420868 9.9
v -10.48631754 0.40841737 9.9
v -10.11013745 2.43846041 8.729952
v -10.11013745 2.43846041 9.713352
v -5.24315726 2.11202341 4.95
v -5.17680584 0 6.6
v -5.12324403 4.01983814 4.991385
v -6.18242364 3.69993505 6.10375567
v -7.30046726 3.3513776 6.669828
v -3.61305669 4.49062392 5.5866962
v -2.16069061 4.96140969 6.16294301
v -3.23042719 4.61285224 6.69827212
v -1.35212775 3.3513776 6.669828
v -5.17680584 0 8.25
v -5.17680584 0 9.9
v -5.24315726 0.20420868 9.9
v -4.75452832 1.13121138 9.9
v -7.30046726 3.3513776 7.653228
v -7.30046726 3.3513776 8.636628
v -7.30046726 3.3513776 9.620028
v -6.97146812 3.4582759 9.806676
v -5.55782858 3.88760327 9.87017418
v -1.35212775 3.3513776 7.653228
v -1.35212775 3.3513776 8.636628
v -3.99069349 4.37119308 9.64669084
v -1.35212775 3.3513776 9.620028
v -1.19856513 5.28411027 9.48531088
v 3.02e-06 -3.4187316 4.95
v 7.01451899 -1.1395772 4.95
v 16.54536252 -12.32834262 0
v 16.54536252 -12.32834262 3.53571429
v 3.507261 -2.2791544 4.95
v 3.507261 -1.1395772 4.95
v 3.507261 -2.2791544 6.6
v 7.01451899 -1.1395772 6.6
v 3.02e-06 -3.4187316 9.9
v 3.507261 -2.2791544 8.25
v 5.73179224 -1.55636038 9.9
v 5.73179224 -0.41678318 9.9
v 9.23905023 -0.41678318 8.25
v 3.02e-06 0 4.95
v 3.02e-06 5.72344418 4.95
v 7.01451899 0 4.95
v 4.34679193 7.13580152 3.53571429
v 4.34679193 7.13580152 4.95
v 4.34679193 10.51153424 3.53571429
v 4.34679193 10.51153424 4.95
v 10.52177697 0 4.95
v 16.54536252 1.95718159 3.41785714
v 16.54536252 1.95718159 3.53571429
v 17.19537069 2.16838204 3.41785714
v 14.97083945 1.44558803 4.95
v 17.19537069 2.16838204 4.95
v 16.54536252 4.16890147 3.41785714
v 16.54536252 4.16890147 3.53571429
v 16.54536252 12.32834262 0
v 14.079694 10.2982131 3.53571429
v 14.079694 10.51153424 3.53571429
v 14.50855264 10.43755772 3.53571429
v 16.54536252 12.32834262 3.53571429
v 14.079694 10.2982131 4.95
v 14.079694 10.51153424 4.95
v 14.50855264 10.43755772 4.95
v 3.02e-06 1.90781473 4.95
v 1.44893265 2.37860051 4.95
v 3.507261 0 4.95
v 3.02e-06 0 6.6
v 0.00836632 3.81562946 4.9735343
v 1.4264767 4.28641523 5.01468756
v 0.06763068 5.72344418 5.14030398
v 2.78676582 4.75720101 5.05584082
v 0.49087064 5.87432688 6.73191786
v 2.44905395 4.61285224 6.69827212
v 4.95619064 2.37860051 4.95
v 8.46344863 2.37860051 4.95
v 6.11404268 4.75720101 5.05584082
v 7.98251175 5.47999503 5.11902312
v 4.59621177 3.3513776 6.669828
v 5.85232682 5.87432688 6.73191786
v 8.1285351 4.61285224 6.69827212
v 7.75913792 5.73809648 6.72828435
v 3.02e-06 0 8.25
v 3.02e-06 0 9.9
v 0.48863196 0.9270027 9.9
v 5.73179224 0.72279401 9.9
v 6.22042119 1.64979671 9.9
v 4.59621177 3.3513776 7.653228
v 4.59621177 3.3513776 8.636628
v 4.59621177 3.3513776 9.620028
v 5.15748763 4.4061886 9.82484257
v 4.31168803 5.28411027 9.48531088
v 1.36858347 6.19422996 5.18145724
v 1.36858347 6.19422996 5.70112157
v 2.61171499 6.66501574 5.2226105
v 3.79702526 7.13580152 5.26376376
v 2.61171499 6.66501574 5.73274264
v 3.79702526 7.13580152 5.76436371
v 3.62467842 8.26104576 5.36212584
v 3.62467842 8.26104576 5.83994251
v 2.61171499 6.66501574 6.24287478
v 3.79702526 7.13580152 6.26496365
v 3.79702526 7.13580152 6.7655636
v 3.62467842 8.26104576 6.31775917
v 3.62467842 8.26104576 6.79557584
v 3.45233158 9.38629 5.46048792
v 3.27998474 10.51153424 5.55885
v 3.45233158 9.38629 5.91552131
v 3.27998474 10.51153424 5.9911001
v 3.45233158 9.38629 6.37055469
v 3.27998474 10.51153424 6.42335021
v 3.45233158 9.38629 6.82558807
v 3.27998474 10.51153424 6.85560031
v 7.60591232 6.60523927 5.2173852
v 7.22931288 7.73048351 5.31574728
v 5.58145481 6.99957112 6.7619301
v 5.3105828 8.12481536 6.79194233
v 6.97562159 8.12481536 6.79194233
v 5.58723624 10.44042719 5.55263425
v 5.56656786 10.51153424 5.55885
v 4.736045 10.51153424 5.9911001
v 7.91404242 10.36932015 5.5464185
v 7.8835967 10.44042719 5.55263425
v 7.85315099 10.51153424 5.55885
v 7.02262813 10.51153424 5.9911001
v 4.736045 10.51153424 6.42335021
v 6.19210527 10.51153424 6.42335021
v 4.736045 10.51153424 6.85560031
v 6.19210527 10.51153424 6.85560031
v 8.4786884 10.51153424 6.42335021
v 7.64816554 10.51153424 6.85560031
v 7.83695148 10.05754803 7.40034394
v 7.64816554 10.51153424 7.40085735
v 8.4786884 10.51153424 7.40085735
v 1.66340699 6.30392575 9.49048391
v 2.78710117 6.73325312 9.53860475
v 3.99523207 7.21684294 9.3354744
v 3.86270941 7.1625805 9.58389538
v 8.21452337 9.14957561 8.55940242
v 8.21452337 9.14957561 8.76814758
v 8.21452337 9.14957561 8.97689275
v 8.21452337 9.14957561 9.18563792
v 8.02573742 9.60356182 7.96827798
v 7.83695148 10.05754803 7.95719618
v 7.64816554 10.51153424 7.94611439
v 8.4786884 10.51153424 7.94611439
v 8.02573742 9.60356182 8.53672542
v 7.83695148 10.05754803 8.51404842
v 7.64816554 10.51153424 8.49137143
v 8.4786884 10.51153424 8.49137143
v 12.74630821 0.72279401 4.95
v 12.74630821 0.72279401 6.6
v 10.68797986 3.10139452 4.95
v 12.76911711 3.82418853 4.97428249
v 12.18826508 4.94943277 5.07264457
v 10.54455129 3.3513776 6.669828
v 9.63315524 5.73809648 6.72828435
v 14.97083945 1.44558803 6.6
v 17.19537069 2.16838204 6.6
v 15.28612943 4.87832573 5.06642882
v 15.39036784 4.92477394 5.07048904
v 15.39036784 4.92477394 6.64016301
v 11.46358147 0.30601083 9.9
v 11.46358147 1.44558803 9.9
v 10.54455129 3.3513776 7.653228
v 10.54455129 3.3513776 8.636628
v 9.63315524 5.73809648 7.63556133
v 9.63315524 5.73809648 8.5428383
v 10.54455129 3.3513776 9.620028
v 9.82194118 5.28411027 9.24103581
v 9.82194118 5.28411027 9.48531088
v 14.97083945 1.44558803 8.25
v 17.19537069 2.16838204 8.25
v 17.19537069 2.16838204 9.9
v 15.39036784 4.92477394 8.20983699
v 15.39036784 4.92477394 9.77951096
v 9.93187081 7.65937646 5.30953153
v 12.65398341 7.58826942 5.30331578
v 12.74384757 7.63471762 5.30737601
v 12.83314891 7.68116583 5.31143623
v 8.64066039 8.12481536 6.79194233
v 12.83314891 7.68116583 6.72047874
v 10.17995717 10.44042719 5.55263425
v 10.13973412 10.51153424 5.55885
v 10.26040328 10.2982131 5.54020275
v 10.22018022 10.36932015 5.5464185
v 10.33589319 10.34466131 5.54426297
v 10.41082027 10.39110951 5.5483232
v 10.48518452 10.43755772 5.55238342
v 9.30921126 10.51153424 5.9911001
v 10.17995717 10.44042719 6.53339726
v 10.13973412 10.51153424 6.53635714
v 10.26040328 10.2982131 6.5274775
v 10.22018022 10.36932015 6.53043738
v 10.33589319 10.34466131 6.52941094
v 10.41082027 10.39110951 6.53134438
v 10.48518452 10.43755772 6.80079447
v 9.30921126 10.51153424 6.96860725
v 8.82944633 7.67082915 8.23779319
v 8.64066039 8.12481536 7.61632262
v 12.83314891 7.68116583 8.12952126
v 9.01823228 7.21684294 8.88245417
v 9.01823228 7.21684294 9.10896428
v 9.01823228 7.21684294 9.3354744
v 12.83314891 7.68116583 9.53856377
v 9.30921126 10.51153424 7.94611439
v 10.17995717 10.44042719 7.51416027
v 10.13973412 10.51153424 7.51386429
v 10.26040328 10.2982131 7.51475225
v 10.22018022 10.36932015 7.51445626
v 10.33589319 10.34466131 7.51455891
v 10.41082027 10.39110951 7.78246225
v 8.93472743 9.53245477 8.54027728
v 8.90160694 9.60356182 8.53672542
v 9.6166874 9.91533394 8.52115214
v 9.58001563 9.98644098 8.51760028
v 8.69014767 10.05754803 8.51404842
v 9.54334386 10.05754803 8.51404842
v 9.30921126 10.51153424 8.49137143
v 10.48518452 10.43755772 8.04920553
v 10.17995717 10.44042719 8.49492329
v 10.13973412 10.51153424 8.49137143
v 10.26040328 10.2982131 8.502027
v 10.22018022 10.36932015 8.49847514
v 8.93472743 9.53245477 8.74550317
v 8.93472743 9.53245477 8.95072906
v 9.6166874 9.91533394 8.72285875
v 9.01949635 9.57890298 9.22579435
v 9.69681682 9.96178214 8.99356969
v 9.7763834 10.00823035 9.26312057
v 10.33589319 10.34466131 8.76838359
v 10.41082027 10.39110951 9.03358012
v 10.48518452 10.43755772 9.29761658
f 82 83 85
f 82 85 84
f 84 85 100
f 84 100 96
f 95 96 99
f 96 100 99
f 3 7 5
f 3 74 4
f 3 4 7
f 4 29 7
f 4 33 29
f 4 74 33
f 3 66 74
f 53 33 74
f 53 74 121
f 5 7 6
f 5 6 80
f 5 80 82
f 3 88 66
f 88 67 66
f 82 80 83
f 88 86 67
f 87 89 88
f 87 92 89
f 88 89 86
f 89 91 86
f 89 93 91
f 89 92 93
f 93 97 91
f 97 101 91
f 95 101 97
f 95 99 101
f 2 3 5
f 1 2 9
f 1 68 2
f 2 69 3
f 1 8 68
f 1 9 8
f 2 5 9
f 5 82 9
f 8 9 98
f 9 82 84
f 2 68 69
f 3 69 88
f 68 94 69
f 69 87 88
f 8 94 68
f 8 98 94
f 9 84 98
f 69 94 87
f 87 94 92
f 92 94 98
f 84 96 98
f 92 98 93
f 93 98 97
f 95 98 96
f 95 97 98
f 133 135 137
f 135 139 141
f 133 137 136
f 135 141 137
f 136 137 145
f 136 145 143
f 137 141 147
f 137 147 145
f 139 140 142
f 139 142 141
f 141 142 149
f 141 149 147
f 143 145 146
f 143 146 144
f 144 146 158
f 145 148 146
f 146 163 158
f 145 147 148
f 147 149 150
f 146 148 163
f 147 150 148
f 148 165 163
f 148 150 165
f 144 158 157
f 158 162 157
f 158 164 162
f 157 162 161
f 161 162 227
f 162 167 227
f 158 163 164
f 163 165 166
f 163 166 164
f 162 164 167
f 164 166 168
f 164 168 167
f 167 168 171
f 168 170 171
f 170 183 171
f 170 182 183
f 176 251 184
f 184 254 185
f 184 251 254
f 182 186 187
f 182 187 183
f 185 187 186
f 185 254 187
f 161 227 221
f 223 220 231
f 223 230 222
f 221 227 229
f 220 221 228
f 167 235 227
f 227 235 229
f 220 228 231
f 221 229 228
f 223 231 230
f 167 171 235
f 231 228 247
f 228 229 244
f 229 235 245
f 231 246 230
f 228 244 247
f 229 245 244
f 231 247 246
f 171 243 235
f 235 243 245
f 171 183 243
f 247 244 261
f 244 245 258
f 245 243 259
f 247 260 246
f 176 250 251
f 251 255 254
f 250 253 251
f 250 252 253
f 251 253 255
f 183 256 243
f 183 187 256
f 243 256 259
f 254 256 187
f 254 255 256
f 255 259 256
f 244 258 261
f 245 259 258
f 247 261 260
f 252 260 261
f 253 261 258
f 255 258 259
f 252 261 253
f 253 258 255
f 12 14 6
f 7 17 12
f 6 14 15
f 6 15 16
f 17 14 12
f 6 16 13
f 14 26 15
f 15 27 16
f 17 29 14
f 13 16 18
f 16 28 18
f 6 13 23
f 6 23 22
f 13 24 46
f 13 46 23
f 13 18 24
f 24 18 37
f 24 37 47
f 15 26 27
f 16 27 28
f 14 29 26
f 18 28 34
f 26 30 27
f 27 31 28
f 29 33 26
f 27 30 31
f 28 31 32
f 33 30 26
f 28 32 34
f 38 30 33
f 30 39 31
f 31 40 32
f 34 32 35
f 18 34 37
f 37 34 41
f 37 41 56
f 38 39 30
f 31 39 40
f 34 35 41
f 32 59 35
f 35 42 41
f 32 40 55
f 38 53 39
f 39 54 40
f 41 42 57
f 32 55 60
f 32 60 59
f 35 63 42
f 47 37 56
f 22 23 48
f 22 48 45
f 23 46 49
f 23 49 48
f 24 50 46
f 24 47 50
f 45 48 131
f 45 131 108
f 48 49 138
f 46 110 49
f 46 50 110
f 41 57 56
f 39 53 54
f 42 58 57
f 40 54 122
f 40 122 55
f 35 59 63
f 42 65 58
f 42 63 65
f 54 53 121
f 59 60 173
f 59 172 63
f 55 128 60
f 63 174 65
f 59 173 172
f 70 74 66
f 70 72 74
f 70 67 72
f 72 67 73
f 73 67 86
f 72 73 75
f 72 75 74
f 121 74 76
f 75 76 74
f 121 76 77
f 73 78 75
f 75 78 76
f 76 200 77
f 73 86 189
f 73 189 78
f 76 78 200
f 108 131 130
f 48 138 131
f 49 110 140
f 54 121 123
f 54 123 122
f 55 122 124
f 77 123 121
f 55 124 128
f 63 172 174
f 60 175 173
f 60 128 175
f 122 123 201
f 122 201 124
f 77 201 123
f 130 131 134
f 130 134 132
f 132 135 133
f 132 134 135
f 131 138 134
f 134 138 139
f 134 139 135
f 49 140 138
f 138 140 139
f 172 173 265
f 172 179 174
f 173 175 267
f 172 265 179
f 128 242 175
f 173 267 265
f 175 270 267
f 176 177 250
f 177 178 262
f 263 178 179
f 188 189 86
f 188 90 195
f 188 195 189
f 91 196 90
f 195 90 196
f 189 195 209
f 195 196 210
f 198 219 199
f 91 198 199
f 91 199 196
f 196 199 212
f 189 209 78
f 77 200 201
f 78 209 200
f 124 201 211
f 124 213 128
f 128 213 242
f 195 210 209
f 200 211 201
f 209 211 200
f 124 211 213
f 209 210 211
f 199 238 212
f 196 212 210
f 212 242 213
f 210 212 213
f 210 213 211
f 217 234 219
f 222 230 224
f 224 232 225
f 225 233 226
f 217 226 234
f 224 230 232
f 225 232 233
f 226 233 234
f 230 246 232
f 232 248 233
f 233 249 234
f 232 246 248
f 233 248 249
f 219 234 257
f 198 217 219
f 199 219 238
f 219 257 238
f 175 242 270
f 238 270 242
f 234 249 257
f 246 260 248
f 248 268 249
f 250 262 252
f 248 260 268
f 249 269 257
f 252 264 260
f 249 268 269
f 238 257 270
f 250 177 262
f 262 178 263
f 262 264 252
f 262 263 264
f 263 266 264
f 263 179 265
f 263 265 266
f 265 267 266
f 260 264 268
f 264 266 268
f 268 266 269
f 257 269 270
f 266 267 269
f 267 270 269
f 212 238 242
f 66 67 79
f 79 67 81
f 104 66 79
f 70 66 71
f 71 66 104
f 70 71 67
f 71 104 81
f 71 81 67
f 7 29 36
f 7 36 10
f 33 53 36
f 36 79 10
f 79 36 53
f 105 53 120
f 6 7 11
f 7 10 11
f 6 11 80
f 80 11 79
f 79 53 105
f 25 36 29
f 38 33 36
f 44 10 79
f 52 120 53
f 7 12 19
f 12 6 20
f 19 17 7
f 17 25 29
f 19 12 20
f 20 6 21
f 6 22 21
f 19 25 17
f 19 20 10
f 20 21 11
f 19 10 25
f 21 22 43
f 25 44 36
f 38 36 52
f 20 11 10
f 21 43 11
f 25 10 44
f 22 45 43
f 43 102 11
f 102 79 11
f 44 79 105
f 43 106 102
f 44 105 52
f 43 45 106
f 45 108 106
f 44 52 36
f 38 52 53
f 105 120 52
f 83 79 81
f 80 79 83
f 83 81 86
f 83 86 91
f 83 91 85
f 85 91 99
f 85 99 100
f 99 91 101
f 102 103 79
f 104 79 103
f 102 107 103
f 104 103 112
f 102 106 107
f 103 107 109
f 106 108 130
f 106 130 107
f 107 130 132
f 103 109 112
f 107 132 109
f 109 133 114
f 104 112 81
f 112 113 81
f 112 109 114
f 114 133 115
f 112 114 113
f 113 114 190
f 190 114 115
f 109 132 133
f 115 133 136
f 115 136 151
f 151 136 143
f 143 144 152
f 151 143 152
f 152 156 214
f 144 156 152
f 144 157 156
f 156 157 160
f 157 161 160
f 156 160 159
f 156 159 214
f 113 86 81
f 113 188 86
f 113 190 188
f 188 190 90
f 190 191 90
f 190 115 191
f 115 151 191
f 151 192 191
f 192 214 197
f 191 91 90
f 91 191 192
f 91 192 197
f 197 216 198
f 91 197 198
f 151 152 192
f 152 214 192
f 159 215 214
f 197 214 215
f 215 224 216
f 216 225 217
f 159 160 223
f 160 161 220
f 159 223 222
f 161 221 220
f 160 220 223
f 159 222 215
f 215 222 224
f 216 224 225
f 217 225 226
f 197 215 216
f 198 216 217
f 47 56 61
f 47 51 50
f 47 61 51
f 51 111 50
f 50 111 110
f 56 57 62
f 57 58 64
f 56 62 61
f 57 64 62
f 58 65 64
f 51 116 111
f 51 61 125
f 51 125 116
f 110 111 117
f 116 118 111
f 111 118 117
f 116 193 118
f 116 125 202
f 116 202 193
f 118 153 117
f 118 119 153
f 61 62 126
f 61 126 125
f 62 64 127
f 64 65 129
f 62 127 126
f 64 129 127
f 65 174 129
f 125 203 202
f 125 126 203
f 127 129 208
f 126 206 203
f 126 127 206
f 127 208 206
f 129 241 208
f 110 117 140
f 153 149 142
f 149 154 150
f 117 142 140
f 117 153 142
f 153 119 154
f 153 154 149
f 165 154 155
f 119 155 154
f 119 194 155
f 155 194 218
f 155 218 166
f 218 237 168
f 150 154 165
f 165 155 166
f 218 168 166
f 168 237 169
f 168 169 170
f 169 237 236
f 169 236 180
f 180 239 176
f 129 174 241
f 176 239 177
f 177 240 178
f 178 241 179
f 174 179 241
f 169 180 181
f 169 181 170
f 170 181 182
f 180 184 181
f 181 184 185
f 180 176 184
f 181 185 182
f 182 185 186
f 193 119 118
f 193 202 194
f 193 194 119
f 202 204 194
f 202 203 204
f 203 205 204
f 203 206 205
f 207 208 240
f 206 207 205
f 206 208 207
f 218 194 204
f 218 204 237
f 237 204 205
f 237 205 236
f 236 239 180
f 236 205 207
f 236 207 239
f 207 240 239
f 208 241 240
f 177 239 240
f 178 240 241
