# MAAS exact compiled indexed mesh
# program_hash 875a906cd3083e931ff8dd1f727091dc00f1004e007d240cc57bf74537a1fab4
# geometry_hash 4960b4d15bc6f46c151d5a2d2a997593b9fd82f7a4bc25fc4df791b6aa652cd6
v -16.62084163 -9.17822517 0
v -3.94856109 -9.17822517 0
v -3.94856109 -8.37894709 0
v -16.62084163 -9.17822517 11.4
v -3.94856109 -9.17822517 11.4
v -3.94856109 -8.37894709 10.488
v -2.66070493 -4.47937878 10.488
v -1.01626808 -4.56480861 10.488
v -3.94856109 -2.83099808 10.488
v -16.62084163 9.17822517 0
v -3.94856109 2.83099808 0
v -3.94856109 4.41247361 0
v -2.66070493 4.47937878 0
v -1.01626808 4.56480861 0
v -3.94856109 8.37894709 0
v -3.94856109 9.17822517 0
v -16.62084163 9.17822517 11.4
v -2.5596892 0 10.488
v -2.5596892 7.70452065 5.7
v -2.5596892 9.46405273 5.7
v -3.94856109 8.37894709 10.488
v -2.5596892 7.70452065 10.488
v -2.5596892 9.46405273 10.488
v -3.94856109 9.17822517 11.4
v 4.11037425 -14.67527743 0
v 11.50146323 -5.21511493 0
v 4.11037425 -14.67527743 10.488
v 11.50146323 -5.21511493 10.488
v 4.8264205 0 0
v 4.11037425 14.67527743 0
v 11.50146323 5.21511493 0
v 4.8264205 0 5.7
v 4.8264205 0 10.488
v 0.3661554 7.70452065 5.7
v 0.3661554 11.74997306 5.7
v 0.3661554 14.67527743 5.7
v 4.11037425 14.67527743 5.7
v 0.3661554 7.70452065 10.488
v 0.3661554 14.67527743 10.488
v 9.96957324 7.17584471 5.7
v 11.50146323 5.21511493 5.7
v 13.69500301 0 5.7
v 13.69500301 6.97075678 5.7
v 16.6208476 6.97075678 5.7
v 13.69500301 0 10.488
v 13.69500301 6.97075678 10.488
v 16.6208476 6.97075678 10.488
v 16.6208476 14.67527743 5.7
v 16.6208476 14.67527743 10.488
f 7 8 18
f 7 18 9
f 11 12 13
f 12 15 13
f 13 15 30
f 15 20 35
f 15 21 20
f 9 18 22
f 9 23 21
f 9 22 23
f 21 23 20
f 8 33 18
f 14 31 29
f 29 31 32
f 13 30 14
f 15 37 30
f 14 30 31
f 15 35 37
f 30 37 40
f 31 41 32
f 30 41 31
f 30 40 41
f 3 11 25
f 11 13 25
f 3 27 6
f 6 27 7
f 6 7 9
f 3 25 27
f 25 26 27
f 13 14 25
f 25 14 29
f 25 29 26
f 28 29 32
f 26 29 28
f 7 27 8
f 27 28 8
f 28 32 33
f 8 28 33
f 26 28 27
f 1 10 2
f 1 2 5
f 2 10 3
f 1 5 4
f 1 4 17
f 4 5 24
f 1 17 10
f 10 17 16
f 3 10 11
f 10 12 11
f 10 15 12
f 10 16 15
f 4 24 17
f 16 17 24
f 2 3 5
f 3 6 5
f 5 6 24
f 6 9 24
f 15 16 21
f 9 21 24
f 16 24 21
f 20 19 34
f 20 34 35
f 20 23 19
f 23 22 19
f 18 33 22
f 19 22 34
f 38 34 22
f 42 33 32
f 38 22 45
f 45 22 33
f 42 32 41
f 43 41 40
f 42 41 43
f 42 43 46
f 42 45 33
f 38 45 46
f 42 46 45
f 36 37 35
f 39 35 34
f 36 35 39
f 36 49 37
f 38 39 34
f 38 46 39
f 36 39 49
f 43 40 44
f 43 44 46
f 44 47 46
f 48 40 37
f 49 48 37
f 44 40 48
f 44 48 47
f 39 46 47
f 39 47 49
f 47 48 49
