# MAAS exact compiled indexed mesh
# program_hash cdddb7202e1b64f83084dbdbe142000306b76ea14a99c009419a6d3eeb1e1dab
# geometry_hash f888820bae6a2e1354bd27cf641d80b41600600042d60efdbb9f035e7d49add8
v -17.85939328 -9.33822589 3.22319202
v -20.30588551 -3.65327834 0
v -15.41290105 -3.65327834 0
v -17.85939328 -3.65327834 3.22319202
v -15.41290105 -3.65327834 3.22319202
v -15.41290105 -0.88734273 3.22319202
v -17.85939328 -9.33822589 9.9
v -20.30588551 -3.65327834 6.44638404
v -17.85939328 -3.65327834 6.44638404
v -17.85939328 -0.88734273 6.44638404
v -15.41290105 -0.88734273 6.44638404
v -17.85939328 -0.88734273 9.9
v -20.30588551 3.65327834 0
v -15.41290105 3.65327834 0
v -15.41290105 0.88734273 3.22319202
v -17.85939328 3.65327834 3.22319202
v -15.41290105 3.65327834 3.22319202
v -17.85939328 9.33822589 3.22319202
v -17.85939328 0.88734273 6.44638404
v -15.41290105 0.88734273 6.44638404
v -20.30588551 3.65327834 6.44638404
v -17.85939328 3.65327834 6.44638404
v -17.85939328 0.88734273 9.9
v -17.85939328 9.33822589 9.9
v 20.30588551 -9.33822589 3.22319202
v 20.30588551 -0.88734273 3.22319202
v 20.30588551 -9.33822589 9.9
v 20.30588551 -0.88734273 9.9
v 20.30588551 0.88734273 3.22319202
v 20.30588551 9.33822589 3.22319202
v 20.30588551 0.88734273 9.9
v 20.30588551 9.33822589 9.9
f 1 4 5
f 1 9 4
f 1 5 25
f 25 5 6
f 26 6 11
f 1 7 12
f 1 12 9
f 12 10 9
f 12 11 10
f 1 25 7
f 7 27 12
f 12 28 11
f 25 6 26
f 7 25 27
f 26 11 28
f 12 27 28
f 25 26 27
f 26 28 27
f 18 17 16
f 18 16 22
f 29 15 17
f 29 20 15
f 18 29 17
f 23 22 19
f 23 19 20
f 23 24 22
f 18 22 24
f 23 20 29
f 23 31 24
f 18 24 32
f 18 30 29
f 23 29 31
f 18 32 30
f 24 31 32
f 29 30 31
f 30 32 31
f 2 3 4
f 3 5 4
f 3 6 5
f 2 13 3
f 2 8 13
f 3 15 6
f 2 4 8
f 6 15 11
f 8 4 9
f 8 9 10
f 8 10 19
f 10 11 19
f 3 14 15
f 13 14 3
f 13 16 14
f 14 17 15
f 14 16 17
f 8 21 13
f 13 21 16
f 11 15 20
f 8 19 21
f 19 11 20
f 21 22 16
f 21 19 22
