# MAAS exact compiled indexed mesh
# program_hash cdc4213911b5d96beaf55abe567ce67bb1e129ee5531ff1df5b1fdc5326c263a
# geometry_hash 83cbff47cde9afebbef3bcd88ace5a100e87be8c119c27aa58b2803ca73763f5
v -15.4417547 -3.67924094 0
v -7.68702602 -8.93930929 0
v -2.57951733 -12.92973242 0
v -3.57741023 -3.67924094 0
v -7.85494333 -8.93930929 8.25
v -15.609672 -3.67924094 8.25
v -15.4417547 -3.67924094 8.25
v -15.27383739 -3.67924094 16.5
v -7.68702602 -8.93930929 8.25
v -2.74743463 -12.92973242 8.25
v -2.68378742 -12.8482677 8.25
v -2.57951733 -12.92973242 8.25
v -7.51910872 -8.93930929 16.5
v -2.41160003 -12.92973242 16.5
v -3.74532753 -3.67924094 8.25
v -3.57741023 -3.67924094 8.25
v -3.40949293 -3.67924094 16.5
v -1.14143208 -3.67924094 16.5
v -15.4417547 2.80228062 0
v -15.609672 2.80228062 8.25
v -15.4417547 2.80228062 8.25
v -15.27383739 2.80228062 16.5
v 0.15609855 -0.65152974 0
v 4.6477587 -3.67924094 0
v 13.82963302 -3.67924094 0
v 4.4798414 -3.67924094 8.25
v 4.6477587 -3.67924094 8.25
v 0.32401585 -0.65152974 16.5
v 2.06276592 -1.03653868 16.5
v 4.815676 -3.67924094 16.5
v 7.45618946 -0.29953783 16.5
v 13.66171572 -3.67924094 8.25
v 13.82963302 -3.67924094 8.25
v 13.99755032 -3.67924094 16.5
v 0.31804021 1.30670825 0
v 1.86990576 1.15943937 0
v 1.48650941 2.80228062 0
v 6.46011261 6.00988157 0
v 4.92786 7.20700851 0
v 8.19250245 0.85782415 0
v 13.82963302 0.85782415 0
v 11.86649233 12.92973206 0
v 15.44174842 10.13643587 0
v 1.3185921 2.80228062 8.25
v 1.48650941 2.80228062 8.25
v 6.2921953 6.00988157 8.25
v 6.46011261 6.00988157 8.25
v 6.35584252 6.0913463 8.25
v 1.65442671 2.80228062 16.5
v 3.59252279 2.80228062 16.5
v 4.44800612 0.93071792 16.5
v 5.21613401 1.56424097 16.5
v 6.62802991 6.00988157 16.5
v 4.86421278 7.12554379 8.25
v 4.75994269 7.20700851 8.25
v 4.92786 7.20700851 8.25
v 5.0957773 7.20700851 16.5
v 8.02458514 0.85782415 8.25
v 8.19250245 0.85782415 8.25
v 13.66171572 0.85782415 8.25
v 13.82963302 0.85782415 8.25
v 8.36041975 0.85782415 16.5
v 13.99755032 0.85782415 16.5
v 11.69857503 12.92973206 8.25
v 11.80284511 12.84826734 8.25
v 11.86649233 12.92973206 8.25
v 15.27383111 10.13643587 8.25
v 15.44174842 10.13643587 8.25
v 12.03440963 12.92973206 16.5
v 15.60966572 10.13643587 16.5
f 1 4 7
f 1 19 4
f 1 7 21
f 4 19 23
f 4 15 7
f 4 16 15
f 1 21 19
f 19 21 44
f 19 35 23
f 19 37 35
f 19 45 37
f 19 44 45
f 24 25 27
f 24 40 25
f 25 40 41
f 25 41 33
f 25 32 27
f 25 33 32
f 33 41 61
f 23 35 36
f 2 3 9
f 3 24 12
f 2 24 3
f 3 11 9
f 2 9 16
f 3 12 11
f 2 16 4
f 2 4 23
f 12 24 27
f 2 40 24
f 35 37 36
f 2 23 43
f 36 37 39
f 37 56 39
f 2 43 40
f 36 39 38
f 23 36 43
f 37 45 54
f 37 54 56
f 36 38 43
f 40 43 59
f 38 42 43
f 42 68 43
f 43 68 59
f 42 66 68
f 6 7 8
f 7 15 8
f 6 8 22
f 8 17 22
f 8 15 17
f 17 28 22
f 6 22 20
f 20 49 21
f 20 22 49
f 49 44 21
f 22 28 51
f 22 51 49
f 30 26 27
f 30 27 32
f 18 30 29
f 28 29 51
f 29 30 34
f 29 34 51
f 34 32 60
f 30 32 34
f 31 51 34
f 34 60 63
f 31 34 63
f 49 51 50
f 50 51 52
f 31 63 62
f 5 10 13
f 10 11 14
f 14 11 26
f 10 14 13
f 5 13 17
f 13 14 18
f 5 17 15
f 13 28 17
f 13 18 28
f 14 26 30
f 14 30 18
f 18 29 28
f 55 44 57
f 49 57 44
f 49 50 57
f 31 52 51
f 31 62 52
f 50 52 53
f 50 53 57
f 62 58 67
f 52 62 70
f 52 70 53
f 64 70 65
f 70 67 65
f 53 70 69
f 62 67 70
f 64 69 70
f 40 61 41
f 40 59 60
f 40 60 61
f 38 39 47
f 39 48 47
f 39 56 48
f 38 66 42
f 38 47 65
f 38 65 66
f 63 59 58
f 63 60 59
f 62 63 58
f 53 46 54
f 55 53 54
f 55 57 53
f 69 48 46
f 64 48 69
f 53 69 46
f 12 27 11
f 11 27 26
f 33 61 32
f 61 60 32
f 54 46 48
f 56 54 48
f 68 58 59
f 68 67 58
f 66 65 67
f 66 67 68
f 6 21 7
f 5 9 10
f 10 9 11
f 5 16 9
f 5 15 16
f 6 20 21
f 45 44 54
f 55 54 44
f 64 47 48
f 64 65 47
