# MAAS exact compiled indexed mesh
# program_hash 1c65a2b04883a82a6d7e15b5dfb3ea3f2e0ea1237b7c3ed624d733ba8d039741
# geometry_hash b1a3bdaa0426e1d3008c2feed7d674f03827bd1f41e7f30ce891483baa6b9e5d
v -12.98506461 -12.98506461 0
v -11.84237893 -11.84237893 3.3
v -12.98506461 -7.79103877 0
v -11.84237893 -7.10542736 3.3
v -7.79103877 -12.98506461 0
v -7.10542736 -11.84237893 3.3
v -7.79103877 -7.79103877 0
v -10.69969324 -10.69969324 6.6
v -12.98506461 -2.59701292 0
v -11.84237893 -2.36847579 3.3
v -7.79103877 -2.59701292 0
v -10.69969324 -6.41981594 6.6
v -10.69969324 -2.13993865 6.6
v -5.71342843 -12.98506461 0
v -6.41981594 -10.69969324 6.6
v -9.55700756 -9.55700756 9.9
v -8.41432187 -8.41432187 13.2
v -7.27163618 -7.27163618 16.5
v -9.55700756 -5.73420453 9.9
v -9.55700756 -1.91140151 9.9
v -8.41432187 -5.04859312 13.2
v -7.27163618 -4.36298171 16.5
v -8.41432187 -1.68286437 13.2
v -7.27163618 -1.45432724 16.5
v -5.73420453 -9.55700756 9.9
v -5.71342843 -7.27163618 16.5
v -12.98506461 2.59701292 0
v -11.84237893 2.36847579 3.3
v -7.79103877 2.59701292 0
v -10.69969324 2.13993865 6.6
v -10.69969324 6.41981594 6.6
v -12.98506461 7.79103877 0
v -11.84237893 7.10542736 3.3
v -12.98506461 12.98506461 0
v -11.84237893 11.84237893 3.3
v -7.79103877 7.79103877 0
v -7.79103877 12.98506461 0
v -7.10542736 11.84237893 3.3
v -10.69969324 10.69969324 6.6
v -5.71342843 5.71342843 0
v -2.59701292 7.79103877 0
v -2.59701292 12.98506461 0
v -2.36847579 11.84237893 3.3
v -6.41981594 10.69969324 6.6
v -2.13993865 10.69969324 6.6
v -9.55700756 1.91140151 9.9
v -9.55700756 5.73420453 9.9
v -8.41432187 1.68286437 13.2
v -7.27163618 1.45432724 16.5
v -8.41432187 5.04859312 13.2
v -7.27163618 4.36298171 16.5
v -9.55700756 9.55700756 9.9
v -8.41432187 8.41432187 13.2
v -7.27163618 7.27163618 16.5
v -5.71342843 5.71342843 16.5
v -0.13386061 5.71342843 16.5
v -0.2236071 6.37720777 16.5
v -5.73420453 9.55700756 9.9
v -1.91140151 9.55700756 9.9
v -5.04859312 8.41432187 13.2
v -4.36298171 7.27163618 16.5
v -1.68286437 8.41432187 13.2
v -1.45432724 7.27163618 16.5
v -0.17196722 6.58376729 16.5
v 5.71342843 -12.98506461 0
v 6.41981594 -10.69969324 6.6
v 7.79103877 -12.98506461 0
v 7.10542736 -11.84237893 3.3
v 7.79103877 -7.79103877 0
v 12.98506461 -12.98506461 0
v 11.84237893 -11.84237893 3.3
v 12.98506461 -7.79103877 0
v 11.84237893 -7.10542736 3.3
v 10.69969324 -10.69969324 6.6
v 7.79103877 -2.59701292 0
v 12.98506461 -2.59701292 0
v 11.84237893 -2.36847579 3.3
v 10.69969324 -6.41981594 6.6
v 10.69969324 -2.13993865 6.6
v 5.73420453 -9.55700756 9.9
v 5.71342843 -7.27163618 16.5
v 9.55700756 -9.55700756 9.9
v 8.41432187 -8.41432187 13.2
v 7.27163618 -7.27163618 16.5
v 9.55700756 -5.73420453 9.9
v 9.55700756 -1.91140151 9.9
v 8.41432187 -5.04859312 13.2
v 7.27163618 -4.36298171 16.5
v 8.41432187 -1.68286437 13.2
v 7.27163618 -1.45432724 16.5
v 5.71342843 5.71342843 0
v 2.59701292 7.79103877 0
v 2.59701292 12.98506461 0
v 2.36847579 11.84237893 3.3
v 2.13993865 10.69969324 6.6
v 6.41981594 10.69969324 6.6
v 7.79103877 2.59701292 0
v 12.98506461 2.59701292 0
v 11.84237893 2.36847579 3.3
v 10.69969324 2.13993865 6.6
v 10.69969324 6.41981594 6.6
v 7.79103877 7.79103877 0
v 7.79103877 12.98506461 0
v 7.10542736 11.84237893 3.3
v 12.98506461 7.79103877 0
v 11.84237893 7.10542736 3.3
v 12.98506461 12.98506461 0
v 11.84237893 11.84237893 3.3
v 10.69969324 10.69969324 6.6
v 5.71342843 0 8.25
v 5.71342843 0.0106805 12.1049961
v 5.71342843 0.03223806 12.375
v 5.71342843 0 13.94560976
v 6.0356491 0 15.00205083
v 5.71342843 0 15.76737681
v 5.71342843 0 16.5
v 5.71342843 0.04170435 16.5
v 6.39161773 0.8671791 16.5
v 6.29418785 1.58778603 16.5
v 6.09932809 3.02899989 16.5
v 4.26839471 5.71656785 16.5
v 4.27251579 5.71342843 16.5
v 5.90446833 4.47021375 16.5
v 5.71342843 5.71342843 16.5
v 5.70960857 5.91142761 16.5
v 1.79179615 9.4706545 9.9
v 1.91140151 9.55700756 9.9
v 0 8.64875002 11.69215018
v 1.5911496 8.80446106 11.55
v 0 10.1283504 8.25
v 0 9.84646433 9.06406815
v 0.89185521 9.7870352 9.075
v 2.80308412 9.81272181 9.075
v 3.70250727 9.5220231 9.9
v 4.61968476 9.65800777 9.60831812
v 5.6132184 9.5733917 9.9
v 3.27158305 8.89488179 11.55
v 5.18022352 8.99758188 11.55
v 3.27385984 9.93263052 8.81522596
v 4.15161238 10.06014379 8.44697614
v 4.71431303 9.83840843 9.075
v 4.25046175 9.75509415 9.32793913
v 5.0641752 10.1283504 8.25
v 0.69920612 8.07251193 13.2
v 0 8.28202854 12.58100325
v 1.42400705 8.13108268 13.2
v 3.1014035 8.26663212 13.2
v 0.56763347 7.37381192 14.85
v 1.29059854 7.45184042 14.85
v 0 6.9682116 15.63057961
v 0 6.81806964 15.99534586
v 0 6.60701817 16.5
v 0 7.27163618 16.5
v 0.47050031 6.67063231 16.5
v 1.19110724 6.76806219 16.5
v 2.73652866 7.60789741 14.85
v 2.6323211 6.96292195 16.5
v 4.77879995 8.40218156 13.2
v 6.4561964 8.537731 13.2
v 4.40967638 7.78847764 14.85
v 4.07353495 7.15778171 16.5
v 5.8556065 7.94453464 14.85
v 5.51474881 7.35264147 16.5
v 9.64011504 2.0332844 9.9
v 9.43811995 1.01443829 10.725
v 9.15553908 2.01255486 11.55
v 9.58874644 3.94399552 9.9
v 9.55700756 5.73420453 9.9
v 9.53737785 5.85470665 9.9
v 9.05283899 3.92119532 11.55
v 8.96241826 5.60162878 11.55
v 10.1283504 0 8.25
v 9.89745974 1.02028831 9.075
v 10.1283504 5.0641752 8.25
v 9.83976306 5.12813824 9.08342096
v 9.84267898 5.09628492 9.075
v 9.91174632 5.94704779 8.87553812
v 9.82940416 6.0840062 9.075
v 8.69999329 0.23322339 12.375
v 8.55532502 0.2149122 12.79279232
v 9.0318203 0.25555419 12.375
v 8.98299517 0.98107678 12.375
v 8.67579062 1.96369465 13.2
v 7.27163618 0 16.5
v 7.27163618 0.2523823 16.5
v 7.93026147 0.34143193 16.5
v 7.83283159 1.06203886 16.5
v 7.73540171 1.78264579 16.5
v 7.54054195 3.22385965 16.5
v 8.20202867 1.88695919 14.85
v 8.54024118 3.6410911 13.2
v 8.40469174 5.31848755 13.2
v 8.02144844 3.5601069 14.85
v 7.34568219 4.66507351 16.5
v 7.86539145 5.00603703 14.85
v 7.15082243 6.10628737 16.5
v 7.52392952 9.6247603 9.9
v 9.48600925 7.76541777 9.9
v 9.43464065 9.6761289 9.9
v 9.55700756 9.55700756 9.9
v 6.86065697 9.08800261 11.55
v 8.85971817 7.51026924 11.55
v 8.76929744 9.1907027 11.55
v 9.93790278 7.38936744 8.8
v 9.80371754 7.99523511 9.075
v 10.1283504 10.1283504 8.25
v 9.76799165 9.83285802 9.10336228
v 9.77888818 9.84267898 9.075
v 9.77803092 9.90646401 9.075
v 8.26914229 6.995884 13.2
v 8.13359285 8.67328045 13.2
v 7.68481121 6.67918475 14.85
v 6.95596267 7.54750123 16.5
v 7.52875422 8.12511487 14.85
f 1 5 2
f 1 3 5
f 1 2 4
f 1 4 3
f 5 14 6
f 5 7 14
f 2 5 6
f 3 7 5
f 7 11 14
f 2 6 8
f 2 12 4
f 2 8 12
f 8 19 12
f 6 15 8
f 8 15 16
f 3 10 9
f 3 9 7
f 3 4 10
f 9 27 11
f 9 10 28
f 7 9 11
f 11 29 14
f 4 13 10
f 4 12 13
f 12 20 13
f 10 13 30
f 6 14 15
f 15 14 25
f 29 40 14
f 8 16 19
f 15 25 16
f 16 21 19
f 16 17 21
f 16 25 17
f 17 25 26
f 17 18 22
f 17 26 18
f 12 19 20
f 13 20 46
f 19 21 23
f 19 23 20
f 20 23 48
f 17 22 21
f 21 22 24
f 21 24 23
f 18 55 22
f 23 24 49
f 22 55 24
f 25 14 26
f 18 26 55
f 9 28 27
f 27 33 32
f 27 32 29
f 27 28 33
f 11 27 29
f 29 32 36
f 29 36 40
f 10 30 28
f 13 46 30
f 28 31 33
f 28 30 31
f 30 47 31
f 32 34 36
f 32 33 35
f 32 35 34
f 34 35 38
f 34 37 36
f 34 38 37
f 31 39 33
f 31 52 39
f 33 39 35
f 35 39 44
f 35 44 38
f 39 58 44
f 36 41 40
f 36 37 41
f 37 42 41
f 37 43 42
f 37 38 43
f 41 92 40
f 41 42 92
f 42 43 94
f 38 44 45
f 38 45 43
f 44 59 45
f 43 45 95
f 30 46 47
f 20 48 46
f 46 48 50
f 46 50 47
f 47 50 53
f 23 49 48
f 48 49 51
f 24 55 49
f 48 51 50
f 49 55 51
f 50 51 54
f 51 55 54
f 31 47 52
f 47 53 52
f 52 60 58
f 52 53 60
f 39 52 58
f 50 54 53
f 53 54 61
f 57 64 55
f 57 55 56
f 58 60 62
f 44 58 59
f 58 62 59
f 59 62 131
f 45 59 131
f 45 131 127
f 53 61 60
f 54 55 61
f 60 61 63
f 61 55 63
f 60 63 62
f 62 63 131
f 63 153 131
f 63 55 153
f 64 153 55
f 64 152 153
f 66 65 68
f 67 65 91
f 66 80 65
f 67 68 65
f 67 70 68
f 67 69 70
f 70 72 71
f 68 70 71
f 69 72 70
f 71 72 73
f 66 68 71
f 66 71 74
f 66 74 80
f 71 73 74
f 73 78 74
f 74 78 82
f 67 91 69
f 69 75 72
f 69 91 75
f 75 97 76
f 72 75 76
f 72 76 73
f 73 76 77
f 76 98 77
f 77 79 78
f 73 77 78
f 78 79 85
f 77 99 79
f 80 81 65
f 184 116 81
f 74 82 80
f 80 82 81
f 82 85 83
f 78 85 82
f 82 83 81
f 83 87 84
f 83 84 81
f 83 85 87
f 85 86 87
f 79 179 86
f 86 89 87
f 86 179 89
f 79 86 85
f 79 172 179
f 87 89 88
f 84 87 88
f 84 88 81
f 88 90 81
f 89 180 185
f 89 179 180
f 88 89 90
f 90 184 81
f 89 184 90
f 89 185 184
f 102 91 40
f 92 102 40
f 42 93 92
f 42 94 93
f 92 93 102
f 93 103 102
f 93 104 103
f 93 94 104
f 43 95 94
f 45 127 95
f 95 139 140
f 94 95 96
f 94 96 104
f 95 143 96
f 95 140 143
f 75 91 97
f 97 91 102
f 97 102 98
f 76 97 98
f 77 98 99
f 98 102 105
f 98 105 99
f 99 105 106
f 79 99 100
f 79 100 172
f 100 101 172
f 100 106 101
f 99 106 100
f 101 174 172
f 101 204 174
f 102 103 105
f 103 104 108
f 105 107 106
f 103 107 105
f 103 108 107
f 106 107 108
f 96 109 104
f 96 143 206
f 96 206 109
f 101 108 109
f 101 106 108
f 101 109 204
f 109 206 204
f 104 109 108
f 95 127 139
f 127 142 139
f 127 135 142
f 174 177 175
f 174 175 176
f 174 204 177
f 168 204 200
f 200 208 207
f 200 204 206
f 200 206 208
f 127 131 130
f 127 130 135
f 130 140 139
f 130 143 140
f 130 139 142
f 130 142 135
f 172 180 179
f 174 176 177
f 175 177 176
f 174 177 204
f 172 184 180
f 180 184 185
f 200 207 208
f 174 204 206
f 168 206 204
f 168 200 206
f 200 208 206
f 57 152 64
f 57 56 122
f 57 122 154
f 154 122 155
f 155 121 157
f 121 155 122
f 119 120 117
f 118 119 117
f 120 123 117
f 121 122 125
f 121 125 161
f 123 124 117
f 125 122 124
f 123 125 124
f 123 194 125
f 125 196 163
f 128 132 130
f 126 134 132
f 132 134 133
f 128 144 132
f 126 132 144
f 126 144 129
f 126 129 137
f 126 137 134
f 129 147 137
f 130 132 133
f 130 133 141
f 133 134 136
f 133 136 197
f 134 137 138
f 134 138 136
f 137 158 138
f 136 138 201
f 138 159 201
f 130 141 143
f 133 197 141
f 129 144 148
f 129 148 146
f 144 145 150
f 146 148 149
f 128 145 144
f 146 156 147
f 146 149 156
f 129 146 147
f 148 154 149
f 144 150 148
f 148 150 151
f 148 151 154
f 57 154 152
f 151 152 154
f 149 154 155
f 149 157 156
f 149 155 157
f 156 157 161
f 147 156 160
f 137 147 158
f 147 160 158
f 158 160 162
f 138 158 159
f 158 162 159
f 156 161 160
f 121 161 157
f 160 161 163
f 160 163 162
f 125 163 161
f 162 163 213
f 164 166 173
f 165 182 172
f 172 182 181
f 165 173 166
f 164 167 166
f 165 166 183
f 166 170 183
f 164 178 167
f 167 205 169
f 166 167 170
f 167 169 170
f 170 171 191
f 169 171 170
f 169 198 171
f 171 202 192
f 165 172 173
f 172 174 173
f 164 173 176
f 173 174 176
f 164 176 178
f 174 178 176
f 167 178 205
f 165 190 182
f 165 183 190
f 181 182 187
f 170 191 183
f 183 191 190
f 190 191 193
f 118 117 186
f 118 187 119
f 119 187 188
f 118 186 187
f 188 190 193
f 119 188 120
f 120 188 189
f 188 193 189
f 181 187 186
f 182 190 188
f 182 188 187
f 192 195 193
f 195 210 212
f 171 192 191
f 191 192 193
f 192 210 195
f 189 193 195
f 120 189 123
f 123 189 194
f 189 195 194
f 194 195 212
f 125 194 196
f 194 212 196
f 141 197 199
f 169 205 198
f 198 205 207
f 198 207 199
f 136 201 197
f 197 201 203
f 201 211 203
f 171 198 202
f 202 203 210
f 197 203 199
f 198 199 202
f 199 203 202
f 141 209 143
f 141 199 209
f 143 209 206
f 199 207 209
f 174 206 178
f 178 206 205
f 205 206 208
f 205 208 207
f 206 209 208
f 207 208 209
f 210 211 212
f 211 214 212
f 159 211 201
f 159 162 214
f 159 214 211
f 192 202 210
f 203 211 210
f 162 213 214
f 196 212 214
f 196 214 213
f 163 196 213
f 114 115 184
f 184 115 116
f 128 130 131
f 128 153 145
f 128 131 153
f 145 153 150
f 150 153 151
f 151 153 152
f 172 110 113
f 114 172 113
f 114 184 172
f 114 117 115
f 172 111 110
f 179 112 111
f 172 179 111
f 172 181 179
f 180 113 112
f 179 180 112
f 114 113 180
f 179 181 180
f 180 181 186
f 114 180 186
f 114 186 117
f 14 40 55
f 26 14 55
f 56 55 40
f 56 40 122
f 65 110 91
f 65 81 110
f 81 113 110
f 81 115 113
f 81 116 115
f 40 91 124
f 40 124 122
f 110 111 124
f 110 124 91
f 117 112 113
f 111 112 124
f 115 117 113
f 117 124 112
