# MAAS exact compiled indexed mesh
# program_hash f8f36a135844df9a0389f4a59055d31b36eb61a367e2ee7ea1f7686803e248c6
# geometry_hash fa888f0d9be46cd78f4bf4545d9820d02a7141b5ae6b1d23989d064f5d9db775
v -16.40442628 -10.17074429 0
v -10.70715061 -10.17074429 0.94545271
v -10.10404911 -10.17074429 0
v -11.1026533 -10.17074429 2.42641023
v -11.31346904 -10.17074429 3.57647059
v -10.82576291 -7.00765483 0
v -11.48379359 -6.89723615 0.99206719
v -12.04254884 -6.46515619 3.57647059
v -11.1026533 -10.17074429 4.72653095
v -10.70715061 -10.17074429 6.20748846
v -11.48379359 -6.89723615 6.16087399
v -11.1608627 -3.49961605 0
v -9.75330911 -10.17074429 7.70277911
v -8.75531816 -10.17074429 8.85844927
v -9.75330911 -7.18761443 8.76980535
v -16.40442628 -10.17074429 15.2
v -7.01434813 -10.17074429 10.16944302
v -5.47964432 -10.17074429 10.92095504
v -6.89663101 -7.18761443 10.92095504
v -3.49393218 -10.17074429 11.63922143
v -1.52725413 -10.17074429 11.93704479
v -3.43202922 -6.89723615 12.22405291
v -12.46736397 0.32808853 3.57647059
v -11.41183383 0.32808853 0
v -12.04254884 0.32808853 1.14661649
v -11.1608627 4.1557931 0
v -12.04254884 0.32808853 6.00632468
v -16.40442628 10.17074429 0
v -11.48379359 7.5534132 0.99206719
v -12.04254884 7.12133324 3.57647059
v -10.82576291 7.66383188 0
v -10.2537673 10.17074429 0
v -10.86282925 10.17074429 0.95479662
v -11.17905314 10.17074429 2.13889514
v -11.44257282 10.17074429 3.57647059
v -11.48379359 7.5534132 6.16087399
v -11.17905314 10.17074429 5.01404604
v -10.86282925 10.17074429 6.19814456
v -10.79705392 0.32808853 8.27058824
v -8.81575761 0.32808853 10.21495543
v -9.75330911 7.84379148 8.76980535
v -9.75330911 10.17074429 7.937485
v -8.97483886 10.17074429 8.83895092
v -16.40442628 10.17074429 15.2
v -6.23368198 0.32808853 11.70692085
v -3.22679124 0.32808853 12.64480952
v -6.89663101 7.84379148 10.92095504
v -6.98845476 10.17074429 10.33474757
v -5.79132842 10.17074429 10.92095504
v -3.43202922 7.5534132 12.22405291
v -3.48152369 10.17074429 11.75645132
v -1.90906766 10.17074429 11.99457577
v 10.10404911 -10.17074429 0
v 10.70715061 -10.17074429 0.94545271
v 11.1026533 -10.17074429 2.42641023
v 11.31346904 -10.17074429 3.57647059
v 10.82576291 -7.00765483 0
v 11.48379359 -6.89723615 0.99206719
v 12.04254884 -6.46515619 3.57647059
v 16.40442628 -10.17074429 0
v 11.1026533 -10.17074429 4.72653095
v 10.70715061 -10.17074429 6.20748846
v 11.48379359 -6.89723615 6.16087399
v 11.1608627 -3.49961605 0
v 5.47964432 -10.17074429 10.92095504
v 7.01434813 -10.17074429 10.16944302
v 6.89663101 -7.18761443 10.92095504
v 0 -10.17074429 12.09579429
v 1.52725413 -10.17074429 11.93704479
v 3.49393218 -10.17074429 11.63922143
v 0 -6.46515619 12.64480952
v 3.43202922 -6.89723615 12.22405291
v 9.75330911 -10.17074429 7.70277911
v 8.75531816 -10.17074429 8.85844927
v 9.75330911 -7.18761443 8.76980535
v 16.40442628 -10.17074429 15.2
v 11.41183383 0.32808853 0
v 12.04254884 0.32808853 1.14661649
v 11.1608627 4.1557931 0
v 12.46736397 0.32808853 3.57647059
v 12.04254884 0.32808853 6.00632468
v 11.48379359 7.5534132 0.99206719
v 12.04254884 7.12133324 3.57647059
v 10.82576291 7.66383188 0
v 10.2537673 10.17074429 0
v 10.86282925 10.17074429 0.95479662
v 11.17905314 10.17074429 2.13889514
v 11.44257282 10.17074429 3.57647059
v 16.40442628 10.17074429 0
v 11.48379359 7.5534132 6.16087399
v 11.17905314 10.17074429 5.01404604
v 10.86282925 10.17074429 6.19814456
v 0 0.32808853 12.96470588
v 3.22679124 0.32808853 12.64480952
v 6.23368198 0.32808853 11.70692085
v 5.79132842 10.17074429 10.92095504
v 6.89663101 7.84379148 10.92095504
v 6.98845476 10.17074429 10.33474757
v 0 7.12133324 12.64480952
v 3.43202922 7.5534132 12.22405291
v 0 10.17074429 12.19301265
v 1.90906766 10.17074429 11.99457577
v 3.48152369 10.17074429 11.75645132
v 10.79705392 0.32808853 8.27058824
v 8.81575761 0.32808853 10.21495543
v 9.75330911 7.84379148 8.76980535
v 9.75330911 10.17074429 7.937485
v 8.97483886 10.17074429 8.83895092
v 16.40442628 10.17074429 15.2
f 1 3 2
f 1 6 3
f 1 2 4
f 1 4 5
f 1 12 6
f 1 5 16
f 1 24 12
f 16 5 9
f 16 9 10
f 16 10 13
f 16 13 14
f 16 14 17
f 16 17 18
f 16 18 20
f 1 16 44
f 16 20 21
f 16 21 68
f 16 68 69
f 16 76 44
f 1 28 24
f 28 26 24
f 1 44 28
f 28 31 26
f 28 32 31
f 28 33 32
f 28 34 33
f 28 35 34
f 28 44 35
f 44 37 35
f 44 38 37
f 44 42 38
f 44 43 42
f 44 48 43
f 44 49 48
f 44 51 49
f 44 52 51
f 44 101 52
f 44 102 101
f 60 54 53
f 60 53 57
f 60 55 54
f 60 56 55
f 60 57 64
f 60 76 56
f 60 64 77
f 60 89 76
f 16 69 76
f 76 69 70
f 76 73 62
f 76 74 73
f 76 61 56
f 76 62 61
f 76 65 66
f 76 70 65
f 76 66 74
f 60 77 89
f 89 77 79
f 89 79 84
f 89 84 85
f 89 85 86
f 89 86 87
f 89 87 88
f 89 88 109
f 44 76 109
f 44 109 102
f 109 103 102
f 76 89 109
f 109 107 108
f 109 88 91
f 109 91 92
f 109 92 107
f 109 98 96
f 109 96 103
f 109 108 98
f 3 6 2
f 7 4 2
f 7 2 6
f 8 5 4
f 7 8 4
f 7 6 12
f 8 9 5
f 11 10 9
f 8 11 9
f 11 13 10
f 11 15 13
f 7 12 25
f 7 25 8
f 25 12 24
f 8 25 23
f 8 27 11
f 8 23 27
f 11 27 39
f 15 14 13
f 15 17 14
f 11 39 15
f 15 40 19
f 15 39 40
f 19 18 17
f 15 19 17
f 19 22 18
f 22 20 18
f 22 21 20
f 71 68 21
f 22 71 21
f 19 40 45
f 19 45 22
f 22 45 46
f 22 46 71
f 46 93 71
f 25 24 26
f 25 26 29
f 25 30 23
f 25 29 30
f 23 30 27
f 27 30 36
f 27 36 39
f 29 26 31
f 29 31 33
f 32 33 31
f 29 33 34
f 29 34 30
f 30 34 35
f 30 37 36
f 30 35 37
f 36 37 38
f 36 38 42
f 39 41 40
f 36 41 39
f 41 47 40
f 36 42 41
f 41 42 43
f 41 43 48
f 40 47 45
f 45 50 46
f 46 50 99
f 46 99 93
f 41 48 47
f 47 48 49
f 47 49 50
f 45 47 50
f 50 49 51
f 50 51 52
f 50 52 99
f 99 52 101
f 53 54 57
f 58 54 55
f 58 57 54
f 59 55 56
f 58 55 59
f 58 64 57
f 59 56 61
f 63 61 62
f 59 61 63
f 63 62 73
f 63 73 75
f 58 78 64
f 58 59 78
f 78 77 64
f 59 80 78
f 59 63 81
f 59 81 80
f 63 104 81
f 72 67 65
f 67 66 65
f 67 75 66
f 71 69 68
f 71 72 69
f 72 70 69
f 72 65 70
f 67 95 105
f 71 94 72
f 71 93 94
f 72 95 67
f 72 94 95
f 75 73 74
f 75 74 66
f 63 75 104
f 67 105 75
f 75 105 104
f 78 79 77
f 78 82 79
f 78 80 83
f 78 83 82
f 80 81 83
f 81 90 83
f 81 104 90
f 82 84 79
f 82 86 84
f 85 84 86
f 82 87 86
f 82 83 87
f 83 88 87
f 83 90 91
f 83 91 88
f 90 92 91
f 90 107 92
f 105 95 97
f 93 99 94
f 99 100 94
f 94 100 95
f 100 96 97
f 97 98 106
f 97 96 98
f 99 102 100
f 99 101 102
f 100 102 103
f 100 97 95
f 100 103 96
f 105 106 104
f 90 104 106
f 105 97 106
f 106 108 107
f 106 98 108
f 90 106 107
