# MAAS exact compiled indexed mesh
# program_hash 008410c588f080eb0ecfcfef097eb7e923286e445e7ab6d1bf4adb712f8f7075
# geometry_hash 611a8868309ca5c3e6adce801d39e2b99c9ff65e7c7464675b4b09db30193ccb
v -17.37246939 -8.73596505 3.22319202
v -19.66117721 -3.4176633 0
v -15.08376157 -3.4176633 0
v -17.37246939 -3.4176633 3.22319202
v -15.08376157 -3.4176633 3.22319202
v -15.08376157 -0.83011433 3.22319202
v -17.37246939 -8.73596505 4.95
v -20.82625765 -10.54186374 7.425
v -20.82625765 -8.15682669 7.425
v -19.09936352 -9.63891439 6.1875
v -17.56353181 -7.49108673 5.32409601
v -17.56353181 -6.14630669 5.32409601
v -18.09444105 -6.33940702 5.69819202
v -19.88891043 -6.24776539 6.56159601
v -20.82625765 -5.77178965 7.425
v -19.09936352 -7.45816453 6.1875
v -19.09936352 -9.63891439 8.6625
v -17.37246939 -8.73596505 9.9
v -19.09936352 -7.45816453 8.6625
v -17.37246939 -6.75950237 9.9
v -19.09936352 -5.27741467 8.6625
v -19.66117721 -3.4176633 4.95
v -19.87841257 -3.45674661 5.32409601
v -21.3385149 -3.71943696 6.07228803
v -20.4820491 -3.56534824 5.69819202
v -19.88514708 -3.56534824 5.69819202
v -20.71581572 -3.71943696 6.07228803
v -20.09311655 -3.71943696 6.07228803
v -17.56353181 -4.80152665 5.32409601
v -18.09444105 -4.95237763 5.69819202
v -18.8477182 -5.16641158 6.07228803
v -19.29969238 -3.45674661 5.32409601
v -18.72097219 -3.45674661 5.32409601
v -18.142252 -3.45674661 5.32409601
v -17.37246939 -3.4176633 4.95
v -17.56353181 -3.45674661 5.32409601
v -19.28824507 -3.56534824 5.69819202
v -18.69134306 -3.56534824 5.69819202
v -18.09444105 -3.56534824 5.69819202
v -19.47041738 -3.71943696 6.07228803
v -18.8477182 -3.71943696 6.07228803
v -20.50374743 -4.86882607 6.93569202
v -22.25829236 -3.88491623 6.44638404
v -21.60788904 -3.88491623 6.44638404
v -20.95748573 -3.88491623 6.44638404
v -21.60788904 -3.14958846 6.44638404
v -21.60788904 -2.67778589 6.44638404
v -20.95748573 -3.14958846 6.44638404
v -20.30708241 -3.88491623 6.44638404
v -19.6566791 -3.88491623 6.44638404
v -20.30708241 -3.14958846 6.44638404
v -19.6566791 -3.14958846 6.44638404
v -20.80782423 -3.34049389 7.30978803
v -19.87841257 -1.72837331 5.32409601
v -21.3385149 -1.85971848 6.07228803
v -20.4820491 -1.78267412 5.69819202
v -20.95748573 -2.41426068 6.44638404
v -22.25829236 -1.94245812 6.44638404
v -20.95748573 -1.94245812 6.44638404
v -20.95748573 -1.47065555 6.44638404
v -20.30708241 -2.41426068 6.44638404
v -19.6566791 -2.41426068 6.44638404
v -20.30708241 -1.6789329 6.44638404
v -19.6566791 -1.6789329 6.44638404
v -20.80782423 -2.56059583 7.30978803
v -20.80782423 -1.78069776 7.30978803
v -21.60788904 -0.73532778 6.44638404
v -20.30708241 -1.20713034 6.44638404
v -20.30708241 -0.73532778 6.44638404
v -19.6566791 -0.94360513 6.44638404
v -20.30708241 -0.26352521 6.44638404
v -19.6566791 -0.47180256 6.44638404
v -20.80782423 -1.0007997 7.30978803
v -20.11799813 -1.0007997 7.30978803
v -19.00627578 -0.94360513 6.44638404
v -18.35587247 -0.94360513 6.44638404
v -19.00627578 -0.47180256 6.44638404
v -18.35587247 -0.47180256 6.44638404
v -17.70546915 -0.94360513 6.44638404
v -17.05506584 -0.94360513 6.44638404
v -17.70546915 -0.47180256 6.44638404
v -17.05506584 -0.47180256 6.44638404
v -19.42817204 -1.0007997 7.30978803
v -18.73834595 -1.0007997 7.30978803
v -15.08376157 -0.83011433 4.95
v -15.24865106 -0.83960725 5.32409601
v -15.24865106 -0.41980362 5.32409601
v -15.706833 -0.86598544 5.69819202
v -16.35692151 -0.90341196 6.07228803
v -15.706833 -0.43299272 5.69819202
v -16.35692151 -0.45170598 6.07228803
v -20.63519523 -4.12787166 7.79909601
v -17.37246939 -4.78303969 9.9
v -19.09936352 -3.09666481 8.6625
v -17.37246939 -2.80657701 9.9
v -20.10428599 -2.47116108 8.17319202
v -20.10428599 -1.71850276 8.17319202
v -20.10428599 -0.96584445 8.17319202
v -19.43855368 -0.96584445 8.17319202
v -18.77282136 -0.96584445 8.17319202
v -18.30981662 -1.55986602 9.03659601
v -18.30981662 -0.87668636 9.03659601
v -17.70553873 -0.87668636 9.03659601
v -17.37246939 -0.83011433 9.9
v -9.25081575 -9.63891439 6.1875
v -10.05512261 -10.54186374 7.425
v -9.25081575 -9.63891439 8.6625
v -8.4465089 -8.73596505 9.9
v -8.4465089 -6.75950237 9.9
v -7.35686426 -0.91591494 6.1875
v -7.6434806 -0.95514353 6.56159601
v -7.86667486 -0.98569166 6.93569202
v -7.9770589 -1.0007997 7.30978803
v -8.4465089 -4.78303969 9.9
v -8.4465089 -2.80657701 9.9
v -8.3873972 -0.96584445 8.17319202
v -8.4465089 -0.83011433 9.9
v -8.27880369 -0.87668636 9.03659601
v -19.66117721 3.4176633 0
v -15.08376157 3.4176633 0
v -17.37246939 3.4176633 3.22319202
v -15.08376157 0.83011433 3.22319202
v -15.08376157 3.4176633 3.22319202
v -17.37246939 8.73596505 3.22319202
v -19.87841257 0 5.32409601
v -21.3385149 0 6.07228803
v -20.4820491 0 5.69819202
v -19.87841257 1.72837331 5.32409601
v -21.3385149 1.85971848 6.07228803
v -20.4820491 1.78267412 5.69819202
v -22.25829236 0 6.44638404
v -20.95748573 0.47180256 6.44638404
v -21.60788904 1.20713034 6.44638404
v -19.6566791 0 6.44638404
v -19.6566791 0.47180256 6.44638404
v -19.6566791 0.94360513 6.44638404
v -20.80782423 1.0007997 7.30978803
v -20.11799813 1.0007997 7.30978803
v -22.25829236 1.94245812 6.44638404
v -20.95748573 2.41426068 6.44638404
v -20.30708241 1.6789329 6.44638404
v -19.6566791 1.6789329 6.44638404
v -20.30708241 2.41426068 6.44638404
v -19.6566791 2.41426068 6.44638404
v -20.80782423 1.78069776 7.30978803
v -20.80782423 2.56059583 7.30978803
v -19.00627578 0 6.44638404
v -19.00627578 0.47180256 6.44638404
v -18.35587247 0 6.44638404
v -18.35587247 0.47180256 6.44638404
v -19.00627578 0.94360513 6.44638404
v -18.35587247 0.94360513 6.44638404
v -17.70546915 0 6.44638404
v -17.70546915 0.47180256 6.44638404
v -17.05506584 0 6.44638404
v -17.05506584 0.47180256 6.44638404
v -17.70546915 0.94360513 6.44638404
v -17.05506584 0.94360513 6.44638404
v -19.42817204 1.0007997 7.30978803
v -18.73834595 1.0007997 7.30978803
v -19.66117721 3.4176633 4.95
v -19.87841257 3.45674661 5.32409601
v -21.3385149 3.71943696 6.07228803
v -20.4820491 3.56534824 5.69819202
v -19.88514708 3.56534824 5.69819202
v -20.71581572 3.71943696 6.07228803
v -20.09311655 3.71943696 6.07228803
v -19.29969238 3.45674661 5.32409601
v -18.72097219 3.45674661 5.32409601
v -18.142252 3.45674661 5.32409601
v -17.37246939 3.4176633 4.95
v -17.56353181 3.45674661 5.32409601
v -19.28824507 3.56534824 5.69819202
v -18.69134306 3.56534824 5.69819202
v -18.09444105 3.56534824 5.69819202
v -19.47041738 3.71943696 6.07228803
v -18.8477182 3.71943696 6.07228803
v -21.60788904 3.14958846 6.44638404
v -20.95748573 3.14958846 6.44638404
v -22.25829236 3.88491623 6.44638404
v -21.60788904 3.88491623 6.44638404
v -20.95748573 3.88491623 6.44638404
v -20.30708241 3.14958846 6.44638404
v -19.6566791 3.14958846 6.44638404
v -20.30708241 3.88491623 6.44638404
v -19.6566791 3.88491623 6.44638404
v -20.80782423 3.34049389 7.30978803
v -19.09936352 5.23791333 6.1875
v -15.08376157 0.41505716 4.95
v -15.24865106 0 5.32409601
v -15.24865106 0.41980362 5.32409601
v -15.08376157 0.83011433 4.95
v -15.24865106 0.83960725 5.32409601
v -15.706833 0 5.69819202
v -15.706833 0.43299272 5.69819202
v -16.35692151 0 6.07228803
v -16.35692151 0.45170598 6.07228803
v -15.706833 0.86598544 5.69819202
v -16.35692151 0.90341196 6.07228803
v -20.10428599 0.96584445 8.17319202
v -20.10428599 1.71850276 8.17319202
v -20.10428599 2.47116108 8.17319202
v -19.43855368 0.96584445 8.17319202
v -18.77282136 0.96584445 8.17319202
v -18.30981662 0.87668636 9.03659601
v -17.70553873 0.87668636 9.03659601
v -17.37246939 0.83011433 9.9
v -18.30981662 1.55986602 9.03659601
v -20.10428599 4.77079072 8.17319202
v -18.30981662 3.64721449 9.03659601
v -17.37246939 2.80657701 9.9
v -17.37246939 4.78303969 9.9
v -19.88891043 5.46225286 6.56159601
v -20.50374743 5.63695083 6.93569202
v -20.80782423 5.72335031 7.30978803
v -20.82625765 7.3330132 7.425
v -19.09936352 6.70491369 6.1875
v -17.37246939 8.73596505 4.95
v -20.82625765 8.93743847 7.425
v -20.82625765 10.54186374 7.425
v -19.09936352 8.17191404 6.1875
v -19.09936352 9.63891439 6.1875
v -20.63519523 7.26352068 7.79909601
v -20.10428599 7.07042035 8.17319202
v -18.30981662 5.73456296 9.03659601
v -18.30981662 7.82191144 9.03659601
v -17.37246939 6.75950237 9.9
v -19.09936352 8.17191404 8.6625
v -17.37246939 8.73596505 9.9
v -19.09936352 9.63891439 8.6625
v -6.79933631 0.83960725 5.32409601
v -6.99206364 0.86598544 5.69819202
v -7.26551356 0.90341196 6.07228803
v -8.54608736 0.98569166 6.93569202
v -9.28222049 0.99222264 7.79909601
v -9.25081575 0.91591494 8.6625
v -8.4465089 0.83011433 9.9
v -8.4465089 2.80657701 9.9
v -8.4465089 4.78303969 9.9
v -9.25081575 9.63891439 6.1875
v -10.05512261 10.54186374 7.425
v -8.4465089 6.75950237 9.9
v -8.4465089 8.73596505 9.9
v -9.25081575 9.63891439 8.6625
v 18.33137257 -8.73596505 3.22319202
v 18.33137257 -0.83011433 3.22319202
v 0.59773201 -9.63891439 6.1875
v 0.71601243 -10.54186374 7.425
v 9.40541208 -8.73596505 4.95
v 10.44627978 -9.63891439 6.1875
v 0.59773201 -9.63891439 8.6625
v 0.47945159 -8.73596505 9.9
v 0.47945159 -6.75950237 9.9
v 10.44627978 -9.63891439 8.6625
v 9.40541208 -8.73596505 9.9
v 9.40541208 -6.75950237 9.9
v 1.86036634 -0.91591494 6.1875
v 2.09692718 -1.00171556 7.425
v 11.07759694 -0.91591494 6.1875
v 0.47945159 -4.78303969 9.9
v 0.47945159 -2.80657701 9.9
v 2.07075425 -0.99222264 7.79909601
v 1.99802695 -0.96584445 8.17319202
v 1.14793134 -0.87668636 9.03659601
v 0.47945159 -0.83011433 9.9
v 9.40541208 -4.78303969 9.9
v 9.40541208 -2.80657701 9.9
v 11.07759694 -0.91591494 8.6625
v 10.57466638 -0.87668636 9.03659601
v 9.40541208 -0.83011433 9.9
v 11.48714748 -10.54186374 7.425
v 18.33137257 -8.73596505 4.95
v 20.29482755 -9.63891439 6.1875
v 22.25828252 -10.54186374 7.425
v 22.25828252 -8.15682669 7.425
v 18.33137257 -6.75950237 4.95
v 20.29482755 -7.45816453 6.1875
v 20.29482755 -5.27741467 6.1875
v 22.25828252 -5.77178965 7.425
v 18.33137257 -8.73596505 9.9
v 20.29482755 -9.63891439 8.6625
v 18.33137257 -6.75950237 9.9
v 20.29482755 -7.45816453 8.6625
v 20.29482755 -5.27741467 8.6625
v 12.17760485 -1.00171556 7.425
v 18.33137257 -4.78303969 4.95
v 18.33137257 -2.80657701 4.95
v 20.29482755 -3.09666481 6.1875
v 22.25828252 -3.3867526 7.425
v 18.33137257 -0.83011433 4.95
v 20.29482755 -0.91591494 6.1875
v 22.25828252 -1.00171556 7.425
v 18.33137257 -4.78303969 9.9
v 18.33137257 -2.80657701 9.9
v 20.29482755 -3.09666481 8.6625
v 18.33137257 -0.83011433 9.9
v 20.29482755 -0.91591494 8.6625
v 18.33137257 0.83011433 3.22319202
v 18.33137257 8.73596505 3.22319202
v 1.64997844 0.83960725 5.32409601
v 1.72270573 0.86598544 5.69819202
v 1.31016701 0.95514353 6.56159601
v 0.71601243 1.00171556 7.425
v 10.09929319 0.83960725 5.32409601
v 10.44627978 0.91591494 6.1875
v 0.59773201 0.91591494 8.6625
v 0.47945159 0.83011433 9.9
v 0.47945159 2.80657701 9.9
v 0.47945159 4.78303969 9.9
v 10.44627978 0.91591494 8.6625
v 9.40541208 0.83011433 9.9
v 9.40541208 2.80657701 9.9
v 9.40541208 4.78303969 9.9
v 0.59773201 9.63891439 6.1875
v 0.71601243 10.54186374 7.425
v 10.44627978 9.63891439 6.1875
v 0.47945159 6.75950237 9.9
v 0.47945159 8.73596505 9.9
v 0.59773201 9.63891439 8.6625
v 9.40541208 6.75950237 9.9
v 9.40541208 8.73596505 9.9
v 10.44627978 9.63891439 8.6625
v 11.48714748 1.00171556 7.425
v 18.33137257 0.83011433 4.95
v 20.29482755 0.91591494 6.1875
v 22.25828252 1.00171556 7.425
v 18.33137257 2.80657701 4.95
v 18.33137257 4.78303969 4.95
v 20.29482755 3.09666481 6.1875
v 22.25828252 3.3867526 7.425
v 18.33137257 0.83011433 9.9
v 20.29482755 0.91591494 8.6625
v 18.33137257 2.80657701 9.9
v 18.33137257 4.78303969 9.9
v 20.29482755 3.09666481 8.6625
v 11.48714748 10.54186374 7.425
v 18.33137257 6.75950237 4.95
v 20.29482755 5.27741467 6.1875
v 22.25828252 5.77178965 7.425
v 20.29482755 7.45816453 6.1875
v 18.33137257 8.73596505 4.95
v 22.25828252 8.15682669 7.425
v 20.29482755 9.63891439 6.1875
v 22.25828252 10.54186374 7.425
v 18.33137257 6.75950237 9.9
v 20.29482755 5.27741467 8.6625
v 20.29482755 7.45816453 8.6625
v 18.33137257 8.73596505 9.9
v 20.29482755 9.63891439 8.6625
f 1 7 35
f 1 35 4
f 1 4 5
f 1 245 7
f 1 5 245
f 5 6 245
f 6 85 290
f 245 249 7
f 6 246 245
f 6 290 246
f 245 272 249
f 245 246 272
f 246 276 272
f 246 286 276
f 246 287 286
f 246 290 287
f 121 171 218
f 121 124 123
f 121 218 124
f 122 123 298
f 122 298 192
f 123 124 298
f 124 218 341
f 298 324 192
f 124 299 298
f 124 341 299
f 298 299 324
f 299 327 324
f 299 328 327
f 299 337 328
f 299 341 337
f 10 16 7
f 10 8 9
f 10 9 16
f 11 12 7
f 11 7 16
f 11 13 12
f 11 14 13
f 11 16 14
f 12 29 7
f 29 36 7
f 12 30 29
f 13 31 30
f 12 13 30
f 16 9 15
f 14 16 15
f 13 14 42
f 14 15 92
f 13 42 31
f 10 7 105
f 10 105 8
f 105 106 8
f 8 19 9
f 8 17 19
f 17 20 19
f 17 18 20
f 9 19 21
f 9 21 15
f 19 93 21
f 19 20 93
f 8 106 17
f 17 106 107
f 17 107 18
f 18 108 20
f 18 107 108
f 20 109 93
f 20 108 109
f 93 109 114
f 36 35 7
f 30 31 41
f 30 41 39
f 29 30 39
f 29 39 36
f 31 42 53
f 31 53 50
f 14 92 42
f 50 53 52
f 52 65 62
f 52 53 65
f 31 50 41
f 62 66 64
f 62 65 66
f 64 66 73
f 64 73 70
f 70 73 75
f 75 73 74
f 75 74 76
f 76 83 79
f 79 84 80
f 76 74 83
f 79 83 84
f 86 110 85
f 86 88 111
f 80 84 113
f 88 89 112
f 89 80 113
f 15 94 92
f 15 21 94
f 42 92 96
f 42 96 53
f 53 96 65
f 92 101 96
f 92 94 101
f 21 93 95
f 21 95 94
f 65 97 66
f 65 96 97
f 66 97 98
f 96 101 97
f 66 98 73
f 73 98 74
f 74 99 83
f 74 98 99
f 97 102 98
f 83 100 84
f 83 99 100
f 98 102 99
f 99 103 100
f 97 101 102
f 94 104 101
f 94 95 104
f 99 102 103
f 101 104 102
f 102 104 103
f 93 114 95
f 95 114 115
f 84 100 116
f 84 116 113
f 100 118 116
f 95 115 104
f 100 103 118
f 103 104 117
f 104 115 117
f 103 117 118
f 105 7 247
f 105 247 106
f 249 247 7
f 106 247 248
f 106 248 107
f 107 251 108
f 107 248 251
f 108 252 109
f 108 251 252
f 109 253 114
f 109 252 253
f 114 253 260
f 86 111 110
f 110 257 85
f 88 112 111
f 89 113 112
f 257 259 85
f 110 111 258
f 111 112 262
f 110 258 257
f 111 262 258
f 114 260 115
f 115 260 261
f 112 113 263
f 113 116 263
f 112 263 262
f 116 264 263
f 115 261 117
f 116 118 264
f 118 117 265
f 117 261 265
f 118 265 264
f 247 250 248
f 249 250 247
f 250 271 248
f 248 271 251
f 251 254 252
f 252 255 253
f 253 256 260
f 251 271 254
f 252 254 255
f 253 255 256
f 256 266 260
f 259 290 85
f 257 258 285
f 257 285 259
f 260 266 261
f 258 262 268
f 262 263 269
f 261 267 265
f 263 264 269
f 264 265 270
f 261 266 267
f 262 269 268
f 258 268 285
f 265 267 270
f 264 270 269
f 249 272 250
f 250 272 273
f 250 273 271
f 272 276 273
f 276 277 273
f 273 274 271
f 273 277 274
f 277 275 274
f 276 286 277
f 277 286 278
f 277 278 275
f 278 279 275
f 254 271 274
f 254 281 255
f 255 280 256
f 255 281 280
f 256 282 266
f 256 280 282
f 266 282 293
f 254 274 281
f 274 275 281
f 275 283 281
f 281 283 280
f 275 279 283
f 279 284 283
f 280 283 282
f 284 293 282
f 283 284 282
f 259 291 290
f 259 285 292
f 278 286 287
f 278 287 288
f 278 288 279
f 288 289 279
f 287 290 288
f 290 291 288
f 259 292 291
f 288 291 289
f 291 292 289
f 266 293 267
f 267 293 294
f 268 297 285
f 267 294 270
f 268 269 296
f 269 270 296
f 270 294 296
f 268 296 297
f 279 289 284
f 284 289 295
f 295 294 293
f 284 295 293
f 285 297 292
f 289 292 295
f 292 297 295
f 294 297 296
f 295 297 294
f 136 151 137
f 136 137 142
f 151 138 137
f 142 145 144
f 142 137 145
f 144 145 146
f 151 152 138
f 152 157 159
f 157 158 160
f 152 159 138
f 157 160 159
f 172 188 171
f 172 175 213
f 188 217 171
f 172 213 188
f 144 146 184
f 184 187 186
f 146 187 184
f 177 186 215
f 175 214 213
f 177 215 214
f 186 187 215
f 175 177 214
f 193 231 198
f 193 192 231
f 198 232 199
f 158 233 160
f 199 233 158
f 160 233 234
f 137 200 145
f 137 138 200
f 138 159 203
f 138 203 200
f 200 205 201
f 145 200 201
f 145 201 146
f 146 201 202
f 201 208 202
f 159 160 204
f 159 204 203
f 200 203 205
f 203 204 206
f 203 206 205
f 205 206 207
f 205 207 208
f 201 205 208
f 202 208 210
f 208 207 211
f 146 202 187
f 187 202 209
f 202 210 209
f 187 209 215
f 208 211 210
f 210 211 212
f 209 210 225
f 210 212 225
f 160 234 204
f 204 235 206
f 234 235 204
f 206 235 236
f 206 236 207
f 207 237 211
f 207 236 237
f 211 237 238
f 211 238 212
f 212 238 239
f 217 221 171
f 221 218 171
f 188 213 216
f 188 216 217
f 213 214 223
f 213 223 216
f 217 216 219
f 221 222 218
f 217 219 221
f 221 219 220
f 221 220 222
f 222 240 218
f 222 220 241
f 222 241 240
f 215 209 224
f 214 215 224
f 209 225 224
f 214 224 223
f 216 223 228
f 223 224 226
f 223 226 228
f 212 227 225
f 224 225 226
f 225 227 226
f 226 227 229
f 216 228 219
f 219 228 230
f 219 230 220
f 226 229 228
f 228 229 230
f 212 239 227
f 227 242 229
f 227 239 242
f 220 230 244
f 220 244 241
f 230 229 243
f 229 242 243
f 230 243 244
f 198 231 232
f 199 232 233
f 231 192 300
f 231 300 232
f 232 301 233
f 300 192 304
f 232 300 301
f 233 301 234
f 234 302 235
f 234 301 302
f 235 302 303
f 235 303 236
f 236 306 237
f 236 303 306
f 237 307 238
f 237 306 307
f 238 307 308
f 238 308 239
f 239 308 309
f 240 241 315
f 240 341 218
f 240 315 314
f 241 244 319
f 244 243 318
f 239 309 242
f 242 317 243
f 242 309 317
f 241 319 315
f 243 317 318
f 244 318 319
f 304 192 324
f 300 304 301
f 301 304 302
f 302 305 303
f 304 305 302
f 305 323 303
f 303 323 306
f 306 310 307
f 307 311 308
f 308 312 309
f 306 323 310
f 307 310 311
f 308 311 312
f 309 312 313
f 240 314 341
f 314 315 336
f 314 316 341
f 314 336 316
f 309 313 317
f 317 320 318
f 315 319 322
f 319 318 321
f 313 320 317
f 315 322 336
f 318 320 321
f 319 321 322
f 304 324 305
f 305 324 325
f 305 325 323
f 324 327 325
f 327 329 325
f 325 326 323
f 325 329 326
f 329 330 326
f 327 328 329
f 328 338 329
f 329 338 330
f 338 339 330
f 310 323 326
f 310 332 311
f 311 331 312
f 311 332 331
f 312 331 333
f 312 333 313
f 313 333 334
f 310 326 332
f 326 330 332
f 330 335 332
f 331 335 333
f 332 335 331
f 330 339 335
f 335 339 346
f 333 346 334
f 335 346 333
f 316 343 341
f 316 336 344
f 328 337 338
f 337 341 340
f 337 340 338
f 338 340 339
f 340 342 339
f 341 343 340
f 316 344 343
f 340 343 342
f 343 344 342
f 313 334 320
f 320 345 321
f 320 334 345
f 322 349 336
f 322 321 348
f 321 345 348
f 322 348 349
f 339 342 346
f 342 347 346
f 334 347 345
f 334 346 347
f 336 349 344
f 342 344 347
f 344 349 347
f 345 349 348
f 347 349 345
f 2 3 4
f 2 119 3
f 3 5 4
f 3 6 5
f 3 122 6
f 2 4 22
f 4 35 22
f 2 22 161
f 6 122 85
f 2 161 119
f 119 121 120
f 3 119 120
f 3 120 122
f 120 123 122
f 120 121 123
f 119 161 121
f 121 161 171
f 122 189 85
f 122 192 189
f 23 22 32
f 23 32 25
f 23 54 22
f 25 24 55
f 25 26 24
f 32 26 25
f 26 37 27
f 26 27 24
f 27 37 28
f 23 25 56
f 32 22 33
f 33 22 34
f 34 22 35
f 32 33 26
f 33 34 37
f 34 36 38
f 34 35 36
f 33 37 26
f 28 37 38
f 34 38 37
f 36 39 38
f 38 39 40
f 28 38 40
f 39 41 40
f 43 44 46
f 27 44 43
f 24 27 43
f 28 45 44
f 44 45 48
f 44 48 46
f 24 43 58
f 43 46 47
f 43 47 58
f 46 48 57
f 27 28 44
f 40 49 45
f 28 40 45
f 45 49 51
f 45 51 48
f 41 50 49
f 40 41 49
f 49 50 52
f 49 52 51
f 48 51 61
f 48 61 57
f 51 52 62
f 51 62 61
f 23 56 54
f 25 55 56
f 54 161 22
f 54 127 125
f 56 55 126
f 54 56 127
f 56 126 127
f 24 58 55
f 46 59 47
f 46 57 59
f 47 59 60
f 47 67 58
f 47 60 67
f 57 61 63
f 61 62 64
f 57 68 59
f 57 63 68
f 59 69 60
f 61 64 63
f 63 64 70
f 55 58 131
f 58 67 131
f 55 131 126
f 60 132 67
f 59 68 69
f 60 69 71
f 63 72 68
f 63 70 72
f 60 71 132
f 68 134 69
f 68 72 134
f 69 135 71
f 69 134 135
f 70 75 72
f 75 76 77
f 76 79 78
f 72 75 77
f 72 77 134
f 77 147 134
f 77 78 147
f 76 78 77
f 78 149 147
f 78 81 149
f 79 80 81
f 78 79 81
f 81 153 149
f 81 82 153
f 91 82 80
f 80 82 81
f 82 196 155
f 82 155 153
f 86 87 88
f 87 190 90
f 189 86 85
f 189 87 86
f 87 189 190
f 88 90 89
f 87 90 88
f 90 190 194
f 90 194 91
f 90 91 89
f 91 194 196
f 89 91 80
f 91 196 82
f 54 125 161
f 125 130 128
f 127 126 129
f 125 127 130
f 127 129 130
f 125 128 161
f 130 129 163
f 128 130 164
f 67 133 131
f 126 131 139
f 67 132 133
f 126 139 129
f 131 133 139
f 71 141 132
f 71 135 136
f 71 136 141
f 132 140 133
f 133 178 139
f 129 139 180
f 133 140 178
f 132 141 140
f 136 142 141
f 141 142 143
f 140 141 143
f 142 144 143
f 134 147 135
f 135 147 148
f 147 149 148
f 135 148 136
f 148 150 151
f 148 149 150
f 149 153 150
f 150 154 152
f 136 148 151
f 150 152 151
f 150 153 154
f 153 155 154
f 154 156 157
f 197 156 155
f 154 155 156
f 152 154 157
f 199 158 156
f 156 158 157
f 128 162 161
f 128 164 162
f 162 168 161
f 162 165 168
f 130 163 164
f 164 166 165
f 162 164 165
f 168 165 173
f 165 167 173
f 164 163 166
f 165 166 167
f 167 176 173
f 168 171 161
f 168 169 171
f 168 173 169
f 169 174 170
f 169 170 171
f 170 172 171
f 170 175 172
f 169 173 174
f 173 176 174
f 170 174 175
f 174 177 175
f 174 176 177
f 129 180 163
f 139 178 180
f 140 179 178
f 163 180 181
f 178 181 180
f 178 179 181
f 163 181 166
f 166 181 182
f 179 182 181
f 140 143 179
f 143 183 179
f 143 144 183
f 144 184 183
f 179 183 182
f 166 182 167
f 167 182 185
f 182 183 185
f 183 184 185
f 167 185 176
f 176 185 186
f 184 186 185
f 176 186 177
f 190 191 194
f 191 193 195
f 189 191 190
f 189 192 191
f 191 192 193
f 191 195 194
f 194 195 196
f 195 198 197
f 195 197 196
f 193 198 195
f 198 199 197
f 196 197 155
f 197 199 156
