# MAAS exact compiled indexed mesh
# program_hash c3def2d8dee1e3f625bad5fc298bef6cdf8484f17a554cdfbae8c7bec7c9e3b7
# geometry_hash 5fa6939e8c82d14addba4103cb13468fd74b49961dfa25fb179cbc3e38680192
v -19.31669343 -9.23043103 0
v -9.37622924 -9.23043103 0
v -19.74329454 -9.23043103 4.95
v -19.31669343 -9.23043103 4.95
v -19.3436935 -9.23043103 7.26835443
v -20.8717601 -7.45534814 6.64177215
v -19.45169378 -7.45534814 6.64177215
v -19.3436935 -7.45534814 7.26835443
v -20.31015864 -7.45534814 9.9
v -9.80283035 -9.23043103 4.95
v -9.37622924 -9.23043103 4.95
v -9.40322931 -9.23043103 7.26835443
v -9.51122959 -7.45534814 6.64177215
v -9.40322931 -7.45534814 7.26835443
v -19.31669343 9.23043103 0
v -9.37622924 9.23043103 0
v -19.74329454 9.23043103 4.95
v -19.31669343 9.23043103 4.95
v -20.8717601 7.45534814 6.64177215
v -19.45169378 7.45534814 6.64177215
v -19.3436935 7.45534814 7.26835443
v -19.3436935 9.23043103 7.26835443
v -20.31015864 7.45534814 9.9
v -9.80283035 9.23043103 4.95
v -9.37622924 9.23043103 4.95
v -9.51122959 7.45534814 6.64177215
v -9.40322931 7.45534814 7.26835443
v -9.40322931 9.23043103 7.26835443
v 9.08463283 -9.23043103 0
v 19.02509702 -9.23043103 0
v 8.65803172 -9.23043103 4.95
v 9.08463283 -9.23043103 4.95
v 9.05763276 -9.23043103 7.26835443
v 8.94963247 -7.45534814 6.64177215
v 9.05763276 -7.45534814 7.26835443
v 18.59849591 -9.23043103 4.95
v 19.02509702 -9.23043103 4.95
v 18.99809695 -9.23043103 7.26835443
v 18.89009667 -7.45534814 6.64177215
v 20.31016298 -7.45534814 6.64177215
v 18.99809695 -7.45534814 7.26835443
v 20.87176444 -7.45534814 9.9
v 9.08463283 9.23043103 0
v 19.02509702 9.23043103 0
v 8.65803172 9.23043103 4.95
v 9.08463283 9.23043103 4.95
v 8.94963247 7.45534814 6.64177215
v 9.05763276 7.45534814 7.26835443
v 9.05763276 9.23043103 7.26835443
v 18.59849591 9.23043103 4.95
v 19.02509702 9.23043103 4.95
v 18.89009667 7.45534814 6.64177215
v 20.31016298 7.45534814 6.64177215
v 18.99809695 7.45534814 7.26835443
v 18.99809695 9.23043103 7.26835443
v 20.87176444 7.45534814 9.9
f 1 2 4
f 2 10 4
f 1 15 2
f 1 4 18
f 2 11 10
f 2 16 11
f 1 18 15
f 2 15 16
f 15 25 16
f 15 18 24
f 15 24 25
f 11 16 25
f 29 32 46
f 29 30 32
f 30 36 32
f 30 37 36
f 29 43 30
f 30 44 37
f 29 46 43
f 30 43 44
f 37 44 51
f 43 51 44
f 43 46 50
f 43 50 51
f 3 4 5
f 4 10 5
f 3 5 7
f 7 5 8
f 5 12 8
f 5 10 12
f 8 12 14
f 3 7 20
f 13 12 10
f 13 14 12
f 13 10 26
f 3 20 17
f 17 28 18
f 20 21 22
f 17 20 22
f 21 27 22
f 17 22 28
f 28 24 18
f 22 27 28
f 26 10 24
f 26 28 27
f 26 24 28
f 31 32 33
f 31 33 34
f 34 33 35
f 31 34 47
f 32 36 33
f 33 38 35
f 33 36 38
f 35 38 41
f 39 38 36
f 39 41 38
f 39 36 52
f 31 47 45
f 47 48 49
f 45 47 49
f 52 36 50
f 45 55 46
f 55 50 46
f 48 54 49
f 45 49 55
f 49 54 55
f 52 55 54
f 52 50 55
f 6 7 8
f 6 8 9
f 8 14 9
f 6 20 7
f 6 9 23
f 13 34 14
f 14 35 9
f 9 42 23
f 6 19 20
f 6 23 19
f 19 21 20
f 19 23 21
f 21 23 27
f 13 26 47
f 26 27 48
f 27 23 56
f 14 34 35
f 9 35 42
f 13 47 34
f 39 40 41
f 35 41 42
f 40 42 41
f 39 53 40
f 40 53 42
f 23 42 56
f 26 48 47
f 27 56 48
f 39 52 53
f 42 53 56
f 52 54 53
f 48 56 54
f 53 54 56
f 11 25 10
f 25 24 10
f 37 51 36
f 51 50 36
f 3 18 4
f 3 17 18
f 31 46 32
f 31 45 46
