# MAAS exact compiled indexed mesh
# program_hash ec77b72a1b13c87d24d44dfe73131039eb63df183613ff48842f7abf87b54c2f
# geometry_hash 92fa4ca84b77e52b7b5894604e528aaa0ca9213b8e855d4bbb63664ab881bd71
v -9.21358201 -11.79284719 1.65
v -10.58209191 -10.58209191 0
v -9.64345954 -8.29177566 1.65
v -7.70771882 -12.82779829 3.3
v -8.5610654 -9.4052121 3.3
v -10.58209191 -7.05472794 0
v -10.07333707 -4.79070413 1.65
v -10.58209191 -3.52736397 0
v -10.5032146 -1.28963259 1.65
v -9.41441198 -5.98262592 3.3
v -9.87923388 -3.79228258 4.95
v -8.61513968 -7.08536054 4.95
v -10.26775855 -2.56003973 3.3
v -11.14332807 -0.49920462 4.95
v -5.71251047 -11.36296966 1.65
v -7.05472794 -10.58209191 0
v -3.52736397 -10.58209191 0
v -2.21143894 -10.93309213 1.65
v -4.28513264 -11.97445171 3.3
v -6.0869513 -13.67151646 4.95
v -7.35104549 -10.3784385 4.95
v -2.79387334 -12.40742226 4.95
v -0.86254645 -11.12110513 3.3
v -7.05472794 -7.05472794 0
v -7.05472794 -3.52736397 0
v -3.52736397 -7.05472794 0
v -3.52736397 -3.52736397 0
v -7.6874355 -8.08246875 6.6
v -9.34343258 -4.96799123 6.6
v -10.99942965 -1.8535137 6.6
v -12.71476793 -0.29074375 8.25
v -12.58456123 -1.83811701 9.9
v -8.66834222 -6.06963857 8.25
v -10.22429404 -4.45945929 9.9
v -7.86402684 -7.08080158 9.9
v -10.69155508 -3.18019116 8.25
v -7.60295175 -2.0991921 9.9
v -4.37544135 -14.3114238 6.6
v -6.03143843 -11.19694628 6.6
v -1.26096383 -12.65542673 6.6
v -4.62191651 -11.84853338 8.25
v -6.64512936 -8.95908597 8.25
v -5.50375965 -9.70214386 9.9
v -2.59870365 -14.73798079 8.25
v -3.14349246 -12.32348614 9.9
v -0.78322527 -14.94482842 9.9
v -0.52215018 -9.96321895 9.9
v -5.24268456 -4.72053438 9.9
v -2.88241737 -7.34187667 9.9
v -0.26107509 -4.98160947 9.9
v -2.62134228 -2.36026719 9.9
v -11.36296966 5.71251047 1.65
v -10.58209191 0 0
v -10.58209191 3.52736397 0
v -10.93309213 2.21143894 1.65
v -10.58209191 7.05472794 0
v -12.40742226 2.79387334 4.95
v -11.97445171 4.28513264 3.3
v -13.67151646 6.0869513 4.95
v -11.12110513 0.86254645 3.3
v -10.3784385 7.35104549 4.95
v -11.79284719 9.21358201 1.65
v -10.58209191 10.58209191 0
v -8.29177566 9.64345954 1.65
v -12.82779829 7.70771882 3.3
v -9.4052121 8.5610654 3.3
v -7.05472794 0 0
v -7.05472794 3.52736397 0
v -7.05472794 7.05472794 0
v -3.52736397 0 0
v -3.52736397 3.52736397 0
v -3.52736397 7.05472794 0
v -7.05472794 10.58209191 0
v -4.79070413 10.07333707 1.65
v -3.52736397 10.58209191 0
v -1.28963259 10.5032146 1.65
v -5.98262592 9.41441198 3.3
v -7.08536054 8.61513968 4.95
v -3.79228258 9.87923388 4.95
v -2.56003973 10.26775855 3.3
v -0.49920462 11.14332807 4.95
v -12.65542673 1.26096383 6.6
v -14.3114238 4.37544135 6.6
v -11.19694628 6.03143843 6.6
v -14.73798079 2.59870365 8.25
v -14.94482842 0.78322527 9.9
v -12.32348614 3.14349246 9.9
v -11.84853338 4.62191651 8.25
v -9.96321895 0.52215018 9.9
v -8.95908597 6.64512936 8.25
v -9.70214386 5.50375965 9.9
v -8.08246875 7.6874355 6.6
v -7.34187667 2.88241737 9.9
v -4.98160947 0.26107509 9.9
v -4.72053438 5.24268456 9.9
v -2.36026719 2.62134228 9.9
v -4.96799123 9.34343258 6.6
v -1.8535137 10.99942965 6.6
v -6.06963857 8.66834222 8.25
v -7.08080158 7.86402684 9.9
v -4.45945929 10.22429404 9.9
v -3.18019116 10.69155508 8.25
v -2.0991921 7.60295175 9.9
v -0.29074375 12.71476793 8.25
v -1.83811701 12.58456123 9.9
v 0 -10.58209191 0
v 3.52736397 -10.58209191 0
v 1.28963259 -10.5032146 1.65
v 7.05472794 -10.58209191 0
v 4.79070413 -10.07333707 1.65
v 2.56003973 -10.26775855 3.3
v 0.49920462 -11.14332807 4.95
v 5.98262592 -9.41441198 3.3
v 3.79228258 -9.87923388 4.95
v 7.08536054 -8.61513968 4.95
v 0 -7.05472794 0
v 3.52736397 -7.05472794 0
v 0 -3.52736397 0
v 3.52736397 -3.52736397 0
v 7.05472794 -7.05472794 0
v 7.05472794 -3.52736397 0
v 10.58209191 -10.58209191 0
v 8.29177566 -9.64345954 1.65
v 11.79284719 -9.21358201 1.65
v 9.4052121 -8.5610654 3.3
v 12.82779829 -7.70771882 3.3
v 10.58209191 -7.05472794 0
v 10.58209191 -3.52736397 0
v 10.93309213 -2.21143894 1.65
v 11.36296966 -5.71251047 1.65
v 10.3784385 -7.35104549 4.95
v 11.12110513 -0.86254645 3.3
v 11.97445171 -4.28513264 3.3
v 13.67151646 -6.0869513 4.95
v 12.40742226 -2.79387334 4.95
v 1.8535137 -10.99942965 6.6
v 4.96799123 -9.34343258 6.6
v 0.29074375 -12.71476793 8.25
v 1.83811701 -12.58456123 9.9
v 3.18019116 -10.69155508 8.25
v 2.0991921 -7.60295175 9.9
v 6.06963857 -8.66834222 8.25
v 4.45945929 -10.22429404 9.9
v 7.08080158 -7.86402684 9.9
v 2.36026719 -2.62134228 9.9
v 4.72053438 -5.24268456 9.9
v 4.98160947 -0.26107509 9.9
v 7.34187667 -2.88241737 9.9
v 8.08246875 -7.6874355 6.6
v 11.19694628 -6.03143843 6.6
v 14.3114238 -4.37544135 6.6
v 12.65542673 -1.26096383 6.6
v 8.95908597 -6.64512936 8.25
v 9.70214386 -5.50375965 9.9
v 9.96321895 -0.52215018 9.9
v 11.84853338 -4.62191651 8.25
v 14.73798079 -2.59870365 8.25
v 12.32348614 -3.14349246 9.9
v 14.94482842 -0.78322527 9.9
v 0 0 0
v 0 3.52736397 0
v 3.52736397 0 0
v 3.52736397 3.52736397 0
v 0 7.05472794 0
v 3.52736397 7.05472794 0
v 7.05472794 0 0
v 7.05472794 3.52736397 0
v 7.05472794 7.05472794 0
v 0 10.58209191 0
v 3.52736397 10.58209191 0
v 2.21143894 10.93309213 1.65
v 7.05472794 10.58209191 0
v 5.71251047 11.36296966 1.65
v 0.86254645 11.12110513 3.3
v 2.79387334 12.40742226 4.95
v 7.35104549 10.3784385 4.95
v 4.28513264 11.97445171 3.3
v 6.0869513 13.67151646 4.95
v 10.58209191 0 0
v 10.58209191 3.52736397 0
v 10.5032146 1.28963259 1.65
v 10.58209191 7.05472794 0
v 10.07333707 4.79070413 1.65
v 10.26775855 2.56003973 3.3
v 11.14332807 0.49920462 4.95
v 9.41441198 5.98262592 3.3
v 8.61513968 7.08536054 4.95
v 9.87923388 3.79228258 4.95
v 7.47241421 7.47241421 0
v 9.12524999 9.12524999 0
v 7.47241421 10.58209191 0
v 7.86863874 10.58209191 0
v 7.80867733 11.02557605 0
v 7.47241421 10.8163439 0.31923526
v 7.81127189 11.00638626 0.57822228
v 10.26516488 7.47241421 0.55711864
v 10.58209191 7.47241421 0
v 10.58209191 8.26258425 0
v 10.99290018 8.31812771 0.55711864
v 10.23506612 10.58209191 0
v 9.7508824 8.15020031 1.46116386
v 9.74406447 7.47241421 1.65
v 9.66231315 8.13822528 1.65
v 9.62776535 8.13355424 1.76305692
v 10.26701751 9.04680121 1.65
v 10.47649843 8.24830745 1.65
v 9.56218601 7.47241421 2.23547368
v 10.29625993 8.22393825 2.23547368
v 7.7772908 11.25771584 0.31923526
v 9.57477688 11.30372236 0.05315596
v 10.84139948 11.47497645 0.05315596
v 10.89031569 11.44222991 0
v 7.47241421 11.57905867 1.65
v 7.7295744 11.61063397 1.65
v 7.67509756 12.01355336 1.65
v 9.67149471 11.31679912 1.65
v 9.57477688 11.30372236 1.82028618
v 9.46827518 12.09142591 1.65
v 9.42326405 12.42433538 1.59420672
v 9.37192088 12.45870663 1.65
v 11.30696954 8.36059155 0
v 9.04296604 7.47241421 3.3
v 8.90257192 8.03550424 3.3
v 9.045198 10.00517216 3.3
v 9.78172166 8.15436995 3.3
v 8.59396502 7.99377895 4.30388522
v 8.28259098 7.95167953 4.95
v 8.19258094 8.18616369 4.95
v 8.60611771 7.47241421 4.67470715
v 8.4665637 7.47241421 4.95
v 9.21051662 8.07714 4.95
v 7.96268768 9.88649095 4.11595619
v 7.47241421 10.06226218 4.95
v 7.47241421 10.2808209 4.78449992
v 7.84904348 10.72702154 4.78449992
v 7.87832733 10.51043352 4.95
v 9.3488123 8.09583831 4.67470715
v 7.47241421 12.65504393 3.10540749
v 7.57789425 12.73248456 3.1926375
v 7.47241421 12.76913026 3.3
v 7.56966131 12.79337668 3.3
v 7.63371701 12.31961045 3.64233841
v 7.55420231 12.90771393 3.45628537
v 7.47241421 12.95029011 3.53954861
v 7.5309304 13.07983669 3.10540749
v 7.5156444 13.19289432 3.3
v 7.74096661 13.28256091 3.3
v 7.49137149 13.37242069 3.53954861
v 7.47241421 11.21190609 4.38853838
v 7.72429093 11.64971132 4.38853838
v 0 0 9.9
v 2.62134228 2.36026719 9.9
v 0.26107509 4.98160947 9.9
v 2.88241737 7.34187667 9.9
v 5.24268456 4.72053438 9.9
v 1.26096383 12.65542673 6.6
v 6.03143843 11.19694628 6.6
v 4.37544135 14.3114238 6.6
v 0.52215018 9.96321895 9.9
v 2.59870365 14.73798079 8.25
v 0.78322527 14.94482842 9.9
v 3.14349246 12.32348614 9.9
v 6.64512936 8.95908597 8.25
v 5.50375965 9.70214386 9.9
v 4.62191651 11.84853338 8.25
v 10.99942965 1.8535137 6.6
v 9.34343258 4.96799123 6.6
v 10.69155508 3.18019116 8.25
v 7.60295175 2.0991921 9.9
v 8.66834222 6.06963857 8.25
v 7.86402684 7.08080158 9.9
v 10.22429404 4.45945929 9.9
v 12.71476793 0.29074375 8.25
v 12.58456123 1.83811701 9.9
v 8.33115836 7.69786816 5.09794336
v 8.22533118 7.9439377 5.13236924
v 8.24082826 7.69786816 5.3714448
v 9.00088731 8.048797 5.59049072
v 7.47241421 9.55005806 5.54531609
v 7.94695561 10.00284784 5.54531609
v 7.6874355 8.08246875 6.6
v 8.01180726 7.47241421 6.6
v 7.47241421 8.48686499 6.6
v 8.35667479 8.57730138 6.6
v 8.08940879 8.94924138 6.6
v 8.75986063 8.01620892 6.6
v 7.47241421 8.26330945 6.94038477
v 7.98473162 7.47241421 7.10008689
v 8.11936215 8.72770159 6.94038477
v 8.73302913 8.01258115 7.10008689
v 7.68610814 7.47241421 8.25
v 7.6816249 7.47241421 8.32682256
v 7.47241421 7.77760077 8.25
v 8.1844404 8.24637245 8.25
v 8.43709828 7.97256973 8.25
v 7.47241421 7.68426488 9.36988089
v 7.61266951 7.47241421 9.50840648
v 7.60989299 7.47241421 9.55598349
v 8.19694612 8.15387815 9.36988089
v 8.36157034 7.96235796 9.55598349
v 7.47241421 7.47241421 9.9
v 7.47241421 7.51573147 9.9
v 7.51141724 7.47241421 9.9
v 8.22533118 7.9439377 9.9
v 8.21952727 7.98686437 9.9
v 8.26398253 7.94916357 9.9
f 1 15 4
f 2 6 16
f 1 3 2
f 2 3 6
f 1 2 16
f 6 24 16
f 1 5 3
f 1 4 5
f 3 5 10
f 4 21 5
f 5 12 10
f 5 21 12
f 6 8 24
f 3 7 6
f 6 7 8
f 8 25 24
f 3 10 7
f 8 53 25
f 7 9 8
f 8 9 53
f 25 53 67
f 7 13 9
f 7 10 13
f 10 11 13
f 10 12 11
f 9 13 60
f 11 14 13
f 13 14 60
f 1 16 15
f 15 18 19
f 16 24 17
f 15 16 17
f 15 17 18
f 17 24 26
f 17 106 18
f 17 26 106
f 18 106 108
f 26 116 106
f 18 108 23
f 4 15 19
f 4 19 20
f 4 20 21
f 19 22 20
f 18 23 19
f 19 23 22
f 22 23 112
f 24 25 26
f 25 27 26
f 25 67 27
f 27 67 70
f 26 27 116
f 27 118 116
f 27 70 118
f 70 160 118
f 12 21 28
f 28 42 33
f 14 30 82
f 30 31 82
f 12 28 29
f 11 12 29
f 28 33 29
f 11 30 14
f 11 29 30
f 29 36 30
f 30 36 31
f 31 32 86
f 31 36 32
f 32 89 86
f 29 33 36
f 33 34 36
f 33 42 35
f 33 35 34
f 34 35 48
f 34 48 37
f 32 36 34
f 32 34 37
f 32 37 89
f 37 94 89
f 20 39 21
f 20 22 38
f 20 38 39
f 38 41 39
f 21 39 28
f 28 39 42
f 22 40 38
f 22 112 40
f 38 40 44
f 38 44 41
f 41 45 43
f 39 41 42
f 35 42 43
f 41 43 42
f 35 43 49
f 40 138 44
f 44 46 45
f 41 44 45
f 44 138 46
f 45 46 139
f 45 139 47
f 43 45 47
f 43 47 49
f 47 141 49
f 35 49 48
f 37 48 51
f 37 51 94
f 48 49 50
f 48 50 51
f 49 141 50
f 51 251 94
f 50 145 51
f 51 145 251
f 52 62 56
f 52 55 58
f 53 54 67
f 9 55 53
f 53 55 54
f 54 68 67
f 9 60 55
f 52 56 54
f 54 56 68
f 52 54 55
f 56 69 68
f 55 60 58
f 14 57 60
f 57 58 60
f 52 58 65
f 57 59 58
f 58 59 65
f 59 61 65
f 52 65 62
f 56 62 63
f 56 63 69
f 62 64 63
f 63 64 73
f 63 73 69
f 62 66 64
f 62 65 66
f 64 66 77
f 61 66 65
f 66 78 77
f 61 78 66
f 67 68 70
f 68 71 70
f 68 69 71
f 69 72 71
f 70 71 160
f 71 161 160
f 71 72 161
f 72 164 161
f 69 73 72
f 64 74 73
f 72 73 75
f 73 74 75
f 64 77 74
f 72 75 164
f 74 76 75
f 75 169 164
f 75 76 169
f 74 80 76
f 74 77 80
f 77 78 79
f 77 79 80
f 76 80 174
f 79 81 80
f 80 81 174
f 57 82 83
f 14 82 57
f 82 85 83
f 57 83 59
f 59 83 84
f 59 84 61
f 83 88 84
f 61 84 92
f 84 90 92
f 31 85 82
f 31 86 85
f 85 86 87
f 86 89 87
f 85 87 88
f 83 85 88
f 87 91 88
f 87 89 93
f 84 88 90
f 88 91 90
f 87 93 91
f 90 91 100
f 61 92 78
f 90 99 92
f 89 94 93
f 93 94 96
f 93 96 95
f 91 93 95
f 91 95 100
f 95 103 100
f 94 251 96
f 95 96 253
f 95 253 103
f 78 92 97
f 78 97 79
f 92 99 97
f 79 98 81
f 79 97 98
f 97 102 98
f 81 98 256
f 98 104 256
f 97 99 102
f 90 100 99
f 99 100 101
f 100 103 101
f 99 101 102
f 101 103 259
f 101 105 102
f 101 259 105
f 98 102 104
f 102 105 104
f 104 105 261
f 106 107 108
f 106 116 107
f 107 110 108
f 107 116 117
f 108 110 111
f 107 109 110
f 107 117 109
f 109 123 110
f 109 117 120
f 110 123 113
f 23 108 111
f 23 111 112
f 111 114 112
f 110 113 111
f 111 113 114
f 113 115 114
f 116 118 117
f 117 118 119
f 118 160 119
f 119 160 162
f 117 119 120
f 119 121 120
f 119 162 121
f 121 162 166
f 109 120 122
f 109 122 123
f 122 124 123
f 120 127 122
f 122 127 124
f 123 124 125
f 124 130 126
f 113 123 125
f 113 125 115
f 115 125 131
f 125 126 131
f 124 126 125
f 120 121 127
f 121 128 127
f 127 128 130
f 128 129 130
f 121 166 128
f 128 179 129
f 128 166 179
f 129 179 181
f 129 181 132
f 124 127 130
f 129 133 130
f 126 130 133
f 126 133 134
f 126 134 131
f 133 135 134
f 129 132 133
f 132 135 133
f 132 185 135
f 40 112 136
f 40 136 138
f 112 114 136
f 114 137 136
f 136 137 140
f 114 115 137
f 115 149 137
f 137 149 142
f 136 140 138
f 46 138 139
f 138 140 139
f 47 139 143
f 139 140 143
f 47 143 141
f 137 142 140
f 140 142 143
f 141 143 144
f 142 153 144
f 142 144 143
f 50 141 146
f 50 146 145
f 145 147 251
f 141 144 146
f 144 154 146
f 146 154 148
f 145 146 148
f 145 148 147
f 147 148 155
f 115 131 149
f 142 149 153
f 131 150 149
f 149 150 153
f 131 134 150
f 134 151 150
f 134 135 151
f 150 151 156
f 135 185 152
f 135 152 151
f 151 152 157
f 150 156 153
f 144 153 154
f 153 156 154
f 148 154 158
f 148 158 155
f 151 157 156
f 154 156 158
f 152 273 157
f 156 157 158
f 155 158 159
f 157 159 158
f 157 273 159
f 160 161 162
f 161 163 162
f 161 164 163
f 163 164 165
f 162 163 166
f 163 167 166
f 163 165 167
f 165 168 167
f 164 169 165
f 76 171 169
f 165 169 170
f 169 171 170
f 76 174 171
f 165 170 168
f 170 173 172
f 170 171 173
f 168 172 189
f 168 170 172
f 172 191 189
f 172 194 191
f 172 173 194
f 173 213 194
f 171 177 173
f 173 238 213
f 171 174 177
f 81 175 174
f 174 175 177
f 176 233 234
f 176 234 249
f 173 177 238
f 177 240 238
f 177 244 240
f 175 178 177
f 177 178 244
f 178 249 244
f 176 249 178
f 166 167 179
f 179 180 181
f 167 180 179
f 180 183 181
f 181 183 184
f 167 168 180
f 168 189 197
f 180 182 183
f 168 182 180
f 168 197 182
f 182 197 196
f 182 196 183
f 183 196 202
f 183 202 207
f 183 207 186
f 132 181 184
f 132 184 185
f 184 188 185
f 186 207 222
f 183 186 184
f 186 222 229
f 186 229 187
f 186 187 188
f 187 229 230
f 184 186 188
f 96 251 252
f 96 252 253
f 147 252 251
f 103 253 254
f 252 255 253
f 253 255 254
f 147 269 252
f 252 269 255
f 254 255 271
f 254 301 302
f 254 303 301
f 254 271 303
f 81 256 175
f 175 256 258
f 256 260 258
f 176 279 233
f 176 257 279
f 257 287 283
f 257 283 279
f 257 263 287
f 178 258 257
f 175 258 178
f 176 178 257
f 257 258 265
f 103 254 259
f 254 264 259
f 259 264 262
f 104 260 256
f 105 259 262
f 104 261 260
f 105 262 261
f 260 262 265
f 260 261 262
f 263 293 287
f 263 296 293
f 257 265 263
f 254 302 264
f 263 265 264
f 263 264 296
f 264 302 296
f 258 260 265
f 262 264 265
f 185 188 266
f 188 267 266
f 266 267 268
f 187 267 188
f 187 230 275
f 187 282 267
f 267 282 288
f 267 288 270
f 152 185 266
f 152 266 273
f 147 155 269
f 155 274 269
f 269 274 272
f 268 272 274
f 270 288 291
f 270 291 292
f 270 292 296
f 267 270 268
f 255 269 272
f 255 272 271
f 270 296 297
f 270 297 298
f 270 298 271
f 271 298 303
f 270 271 272
f 268 270 272
f 266 268 273
f 268 274 273
f 155 159 274
f 159 273 274
f 187 275 277
f 187 277 281
f 187 281 282
f 281 277 279
f 190 189 191
f 190 198 189
f 190 191 192
f 192 191 194
f 192 194 195
f 190 192 200
f 195 194 213
f 198 197 189
f 201 197 198
f 201 196 197
f 203 196 201
f 203 202 196
f 204 202 203
f 204 207 202
f 223 207 204
f 195 213 214
f 214 213 238
f 223 222 207
f 223 226 222
f 229 222 226
f 229 226 227
f 229 227 230
f 232 242 249
f 232 234 233
f 232 233 228
f 232 249 234
f 214 238 239
f 239 238 240
f 239 240 241
f 241 240 243
f 243 240 244
f 242 243 249
f 243 244 249
f 276 275 230
f 276 230 227
f 276 277 275
f 276 279 277
f 228 233 279
f 276 228 279
f 281 288 282
f 281 283 287
f 281 279 283
f 281 287 288
f 288 287 293
f 288 293 291
f 291 293 296
f 291 296 292
f 298 297 296
f 298 296 302
f 298 302 303
f 301 303 302
f 193 209 210
f 192 193 200
f 190 221 198
f 190 200 221
f 193 212 200
f 199 221 212
f 221 200 212
f 205 212 211
f 205 211 216
f 205 199 212
f 205 206 199
f 208 206 205
f 224 208 205
f 205 216 217
f 224 205 217
f 224 217 218
f 209 215 220
f 209 219 210
f 209 220 219
f 193 210 211
f 193 211 212
f 215 245 220
f 224 218 220
f 220 218 219
f 224 225 208
f 237 236 231
f 224 250 235
f 237 224 235
f 237 235 236
f 237 225 224
f 245 247 220
f 224 220 247
f 224 247 250
f 245 246 247
f 246 248 247
f 250 247 248
f 280 278 231
f 284 278 280
f 280 231 236
f 284 280 285
f 289 284 285
f 284 286 278
f 284 290 286
f 289 290 284
f 289 294 290
f 294 295 290
f 299 295 294
f 299 300 295
f 305 300 299
f 305 306 300
f 305 304 306
f 192 209 193
f 192 195 215
f 201 198 221
f 201 221 199
f 201 199 206
f 203 201 206
f 203 206 208
f 204 203 208
f 223 204 208
f 192 215 209
f 195 214 215
f 214 245 215
f 223 208 225
f 223 237 226
f 226 278 227
f 226 237 231
f 226 231 278
f 232 280 236
f 232 236 235
f 232 235 250
f 223 225 237
f 214 239 245
f 239 241 245
f 241 246 245
f 241 243 246
f 232 250 242
f 250 243 242
f 250 246 243
f 250 248 246
f 232 228 289
f 232 289 285
f 227 278 286
f 232 285 280
f 276 299 228
f 276 227 300
f 228 294 289
f 227 286 290
f 227 290 295
f 228 299 294
f 227 295 300
f 276 304 299
f 276 300 304
f 305 299 304
f 304 300 306
f 210 216 211
f 210 218 217
f 210 217 216
f 210 219 218
