# MAAS exact compiled indexed mesh
# program_hash ebfbb033acfa2423e046d1f63b234256fba02a833b7866f34cbd2c901216a285
# geometry_hash babb310e7aa2b6712d1acaa3ef7410e8b0c43b95b2aeee224fc0d311b64be13f
v -13.68620283 -8.19856563 0
v -8.01524855 -0.1676525 0
v -6.97120505 -1.11791287 0
v -0.42062466 -8.19856563 0
v -6.49071936 -3.45608788 0
v -13.68620283 -8.19856563 14.79451002
v -9.59039694 -2.89245484 14.79451002
v -9.59039694 -2.89245484 16.50002114
v -7.05183037 -1.21930869 16.50002114
v -0.42062466 -8.19856563 14.79451002
v -6.49071936 -3.45608788 14.79451002
v -6.39017223 -2.89245484 14.79451002
v -4.28102644 -3.38409797 14.79451002
v -4.91030096 -2.89245484 14.79451002
v -3.89691273 -2.89245484 14.79451002
v -4.28102644 -3.38409797 16.50002114
v -4.91030096 -2.89245484 16.50002114
v -4.24137057 -2.89245484 16.50002114
v -3.89691273 -2.89245484 16.50002114
v -4.17788235 -2.10534445 16.50002114
v -2.52869868 -2.89245484 14.79451002
v -2.52869868 -2.89245484 16.50002114
v -2.52869868 -1.14122071 14.79451002
v -2.52869868 -1.14122071 16.50002114
v -13.68620283 4.99389788 0
v -5.27941919 3.3340494 0
v -1.51818781 3.32730626 6.07474417
v -1.4738194 3.38409523 6.07474417
v -5.27941919 4.99389788 0
v -3.85703703 5.15461554 0
v -9.59039694 1.76184629 14.79451002
v -9.59039694 1.76184629 16.50002114
v -13.68620283 4.99389788 14.79451002
v -6.62448367 1.17625174 14.79451002
v -6.62448367 1.17625174 16.50002114
v -6.62448367 1.76184629 14.79451002
v -6.12266724 1.81854748 14.79451002
v -5.61985099 1.42570436 14.79451002
v -6.62448367 1.76184629 16.50002114
v -6.12266724 1.81854748 16.50002114
v -3.99543643 0.15657262 14.79451002
v -3.99543643 0.15657262 16.50002114
v -5.27941919 3.3340494 14.79451002
v -1.51818781 3.32730626 14.79451002
v -1.4738194 3.38409523 16.50002114
v -5.27941919 4.99389788 14.79451002
v -3.85703703 5.15461554 14.79451002
v 1.36303326 -9.59211192 0
v 2.45179095 -8.19856563 0
v 6.3299487 -8.19856563 0
v 1.82169877 -3.9056965 0
v 6.3299487 -3.23475006 0
v 1.36303326 -9.59211192 14.79451002
v 1.47543652 -8.19856563 14.79451002
v 2.45179095 -8.19856563 14.79451002
v 1.65539179 -5.9675271 14.79451002
v 6.3299487 -8.19856563 14.79451002
v 6.3299487 -3.23475006 14.79451002
v 2.17252877 0.44380244 0
v 0.02222072 2.12380722 6.07474417
v 0.06658913 2.1805962 6.07474417
v 9.31996934 9.59210918 0
v 13.68620664 6.18083073 0
v 0.02222072 2.12380722 14.79451002
v 0.06658913 2.1805962 16.50002114
v 2.17252877 0.44380244 14.79451002
v 9.31996934 9.59210918 14.79451002
v 13.68620664 6.18083073 14.79451002
f 1 25 2
f 1 3 5
f 1 2 3
f 1 5 51
f 1 51 4
f 1 4 10
f 1 10 6
f 6 11 7
f 6 10 11
f 1 6 33
f 6 7 31
f 6 31 33
f 11 12 7
f 2 25 26
f 25 29 26
f 1 33 25
f 25 33 29
f 33 31 36
f 33 36 46
f 29 33 46
f 36 34 37
f 46 36 37
f 46 37 38
f 43 46 38
f 49 52 50
f 49 50 57
f 50 52 58
f 49 57 55
f 50 58 57
f 54 55 56
f 55 57 56
f 56 57 58
f 3 59 5
f 5 59 51
f 11 54 12
f 10 54 11
f 54 13 14
f 54 15 13
f 54 14 12
f 54 21 15
f 54 23 21
f 2 26 3
f 3 26 30
f 3 30 59
f 26 47 30
f 26 43 47
f 38 41 44
f 43 38 44
f 43 44 47
f 66 64 23
f 4 51 48
f 4 48 10
f 48 49 53
f 48 62 49
f 48 51 62
f 49 62 52
f 52 63 58
f 10 48 53
f 49 55 53
f 10 53 54
f 53 55 54
f 54 56 23
f 56 58 66
f 56 66 23
f 51 59 62
f 52 62 63
f 62 67 63
f 58 63 68
f 58 68 66
f 63 67 68
f 66 68 67
f 8 7 12
f 8 12 17
f 8 31 7
f 8 17 9
f 8 9 39
f 17 12 14
f 19 15 22
f 18 19 20
f 19 22 20
f 22 15 21
f 24 21 23
f 20 22 24
f 22 21 24
f 8 32 31
f 8 39 32
f 32 36 31
f 32 39 36
f 9 35 39
f 16 14 13
f 19 13 15
f 17 14 16
f 17 16 18
f 16 13 19
f 16 19 18
f 17 18 9
f 9 18 35
f 40 18 20
f 40 20 42
f 20 24 42
f 24 23 65
f 28 60 27
f 28 61 60
f 28 45 61
f 35 18 40
f 35 37 34
f 35 40 37
f 24 65 42
f 42 65 45
f 65 23 64
f 61 45 65
f 61 64 60
f 61 65 64
f 26 29 46
f 26 46 43
f 30 27 59
f 30 47 27
f 47 44 27
f 59 27 60
f 59 60 64
f 59 66 62
f 59 64 66
f 62 66 67
f 39 34 36
f 35 34 39
f 28 27 45
f 40 42 38
f 40 38 37
f 42 41 38
f 42 44 41
f 42 45 44
f 45 27 44
