# MAAS exact compiled indexed mesh
# program_hash c5290d174fe278a15d232d3deacdb6ab9aea4988c127e9760d799070a62115fd
# geometry_hash ed1e38f2484ddb82ee82b8c54f6b76ef6265660d8ede1a800c5b0a864bde70ba
v -13.00930884 -12.44011745 0
v -13.00930884 -11.15886465 0
v -13.00930884 -9.87761184 0
v -13.00930884 -12.44011745 1.97896105
v -13.00930884 -11.15886465 1.97896105
v -13.00930884 -9.87761184 1.97896105
v -13.00930884 -8.59635904 0
v -13.00930884 -7.31510623 0
v -13.00930884 -8.59635904 1.97896105
v -13.00930884 -7.31510623 1.97896105
v -6.55197711 -11.70439743 0
v -6.84019628 -10.45598305 0
v -6.55197711 -11.70439743 1.97896105
v -7.41663462 -7.9591543 0
v -7.12841545 -9.20756868 0
v -7.70485378 -6.71073992 0
v -13.00930884 -12.44011745 3.95792209
v -13.00930884 -11.15886465 3.95792209
v -13.00930884 -12.44011745 4.94740261
v -13.00930884 -9.87761184 3.95792209
v -13.00930884 -8.59635904 3.95792209
v -13.00930884 -7.31510623 3.95792209
v -6.55197711 -11.70439743 3.95792209
v -7.63179851 -12.44271905 4.9422123
v -7.63179851 -11.82742754 4.9422123
v -7.63179851 -11.82742754 4.94740261
v -6.55197711 -11.70439743 4.9422123
v -13.00930884 -6.03385343 0
v -13.00930884 -6.03385343 1.97896105
v -7.99307295 -5.46232554 0
v -7.99307295 -5.46232554 1.97896105
v -13.00930884 -6.03385343 3.95792209
v -13.00930884 -6.03385343 4.94740261
v -7.99307295 -5.46232554 3.95792209
v -7.99307295 -5.46232554 4.94740261
v -7.63179851 -5.33439155 4.94740261
v -7.63179851 -5.33439155 4.9422123
v -7.63179851 -2.94291553 4.9422123
v -7.58765583 -3.07947306 4.9422123
v -6.72123798 -2.79940059 4.9422123
v -0.42564736 -9.53495029 0
v -0.42564736 -9.53495029 1.97896105
v -0.98731162 -8.38336789 0
v -1.54897588 -7.2317855 0
v -0.42564736 -9.53495029 3.95792209
v -0.42564736 -9.53495029 4.9422123
v -2.67230441 -4.92862072 0
v -2.11064015 -6.08020311 0
v -3.23396867 -3.77703832 0
v -3.23396867 -3.77703832 1.97896105
v -3.23396867 -3.77703832 3.95792209
v -3.23396867 -3.77703832 4.9422123
v -1.69938482 -2.79940059 4.94740261
v -1.69938482 -2.79940059 4.9422123
v -13.00930884 -12.44011745 5.93688314
v -13.00930884 -11.15886465 5.93688314
v -13.00930884 -9.87761184 5.93688314
v -13.00930884 -8.59635904 5.93688314
v -13.00930884 -7.31510623 5.93688314
v -13.00930884 -12.44011745 7.91584418
v -13.00930884 -11.15886465 7.91584418
v -13.00930884 -9.87761184 7.91584418
v -13.00930884 -12.44011745 9.89480523
v -13.00930884 -11.15886465 9.89480523
v -13.00930884 -9.87761184 9.89480523
v -13.00930884 -8.59635904 7.91584418
v -13.00930884 -7.31510623 7.91584418
v -13.00930884 -8.59635904 9.89480523
v -13.00930884 -7.31510623 9.89480523
v -7.63179851 -12.44271905 9.89999554
v -7.63179851 -11.82742754 9.89480523
v -7.70485378 -6.71073992 9.89480523
v -13.00930884 -6.03385343 5.93688314
v -7.99307295 -5.46232554 5.93688314
v -13.00930884 -6.03385343 7.91584418
v -13.00930884 -6.03385343 9.89480523
v -7.99307295 -5.46232554 7.91584418
v -7.99307295 -5.46232554 9.89480523
v -7.63179851 -5.33439155 9.89480523
v -7.63179851 -2.94291553 9.89999554
v -7.25942301 -2.97337071 9.89999554
v -6.72123798 -2.79940059 9.89999554
v -10.55297147 6.09387554 4.9422123
v -10.55297147 6.09387554 9.89999554
v 1.02405295 -1.06437938 0
v 1.83037146 -2.06009983 0
v 2.63668998 -3.05582027 0
v 1.02405295 -1.06437938 1.97896105
v 4.24932701 -5.04726115 0
v 3.4430085 -4.05154071 0
v 5.05564553 -6.0429816 0
v 5.05564553 -6.0429816 1.97896105
v 1.02405295 -1.06437938 3.95792209
v 1.02405295 -1.06437938 4.94740261
v 5.05564553 -6.0429816 3.95792209
v 5.05564553 -6.0429816 4.9422123
v 13.00930789 -12.44271905 4.9422123
v 8.60129021 -0.61867123 0
v 9.6109312 -1.40748922 0
v 9.6109312 -1.40748922 1.97896105
v 8.2431037 -2.79940059 4.94740261
v 8.2431037 -2.79940059 4.9422123
v 9.6109312 -1.40748922 3.95792209
v 9.6109312 -1.40748922 4.94740261
v 13.00930789 -2.79940059 4.9422123
v 13.00930789 -12.44271905 9.89999554
v 13.00930789 -2.79940059 9.89999554
v 4.56272626 2.53660074 0
v 5.57236725 1.74778275 0
v 4.56272626 2.53660074 1.97896105
v 2.13108186 0.06214142 4.9422123
v 2.13108186 0.06214142 4.94740261
v 4.56272626 2.53660074 3.95792209
v 4.56272626 2.53660074 4.9422123
v 6.58200823 0.95896475 0
v 7.59164922 0.17014676 0
v 9.52307811 5.7583546 0
v 9.52307811 5.7583546 1.97896105
v 10.68428751 5.21687376 0
v 13.00670629 4.1339121 0
v 11.8454969 4.67539293 0
v 10.68428751 5.21687376 1.97896105
v 13.00670629 4.1339121 1.97896105
v 11.8454969 4.67539293 1.97896105
v 9.52307811 5.7583546 3.95792209
v 10.68428751 5.21687376 3.95792209
v 13.00670629 4.1339121 3.95792209
v 12.05279908 3.26936972 4.94740261
v 13.00670629 4.1339121 4.94740261
v 11.8454969 4.67539293 3.95792209
v 11.55442205 4.81112336 4.94740261
v 11.55442205 4.81112336 4.9422123
v 7.20065932 6.84131626 0
v 8.36186872 6.29983543 0
v 7.20065932 6.84131626 1.97896105
v 8.36186872 6.29983543 1.97896105
v 7.20065932 6.84131626 3.95792209
v 7.20065932 6.84131626 4.9422123
v 8.36186872 6.29983543 3.95792209
v 9.08748344 12.44271833 4.9422123
v 12.05279908 3.26936972 9.89999554
v 9.08748344 12.44271833 9.89999554
f 1 5 2
f 2 6 3
f 1 2 11
f 1 11 4
f 2 3 12
f 1 4 5
f 2 5 6
f 3 6 9
f 3 9 7
f 7 10 8
f 8 29 28
f 3 7 15
f 7 8 14
f 8 28 16
f 7 9 10
f 8 10 29
f 2 12 11
f 3 15 12
f 11 13 4
f 7 14 15
f 14 8 16
f 4 18 5
f 4 17 18
f 5 20 6
f 5 18 20
f 6 20 21
f 4 13 17
f 17 33 18
f 17 19 33
f 17 23 19
f 6 21 9
f 9 21 22
f 9 22 10
f 10 32 29
f 10 22 32
f 18 33 20
f 20 33 21
f 21 33 22
f 22 33 32
f 13 23 17
f 23 25 19
f 19 25 26
f 23 27 25
f 28 29 31
f 28 30 16
f 28 31 30
f 29 32 34
f 32 33 35
f 29 34 31
f 32 35 34
f 34 35 37
f 35 36 37
f 12 15 43
f 11 41 13
f 11 12 41
f 15 14 44
f 14 16 48
f 14 48 44
f 12 43 41
f 13 41 42
f 15 44 43
f 13 42 23
f 23 45 27
f 42 45 23
f 45 46 27
f 16 30 47
f 16 47 48
f 30 49 47
f 30 50 49
f 30 31 50
f 48 90 44
f 48 47 87
f 47 49 86
f 49 85 86
f 49 88 85
f 49 50 88
f 31 34 51
f 31 51 50
f 34 37 52
f 34 52 51
f 51 52 54
f 50 51 93
f 50 93 88
f 51 94 93
f 51 54 94
f 94 54 53
f 41 43 91
f 41 91 42
f 43 44 89
f 43 89 91
f 42 91 92
f 42 92 45
f 45 92 95
f 45 95 46
f 95 96 46
f 47 86 87
f 48 87 90
f 44 90 89
f 85 109 86
f 90 98 89
f 91 89 99
f 87 116 90
f 87 86 115
f 87 115 116
f 93 94 111
f 94 112 111
f 91 99 92
f 89 98 99
f 90 116 98
f 92 99 100
f 92 100 95
f 95 103 96
f 103 102 96
f 95 100 103
f 104 101 102
f 103 104 102
f 85 88 110
f 85 108 109
f 86 109 115
f 85 110 108
f 109 108 134
f 108 135 133
f 108 110 135
f 88 93 113
f 93 111 114
f 88 113 110
f 93 114 113
f 110 113 137
f 110 137 135
f 113 114 138
f 113 138 137
f 109 117 115
f 98 116 121
f 116 115 119
f 109 134 117
f 108 133 134
f 115 117 119
f 134 118 117
f 134 136 118
f 98 120 99
f 99 120 100
f 98 121 120
f 100 120 123
f 116 119 121
f 117 122 119
f 120 121 123
f 119 124 121
f 117 118 122
f 119 122 124
f 121 124 123
f 136 125 118
f 136 139 125
f 137 129 139
f 137 138 132
f 100 123 103
f 123 127 103
f 103 127 104
f 104 127 129
f 118 126 122
f 118 125 126
f 122 126 130
f 123 124 127
f 124 130 127
f 122 130 124
f 139 129 125
f 125 129 126
f 137 132 129
f 127 130 129
f 129 132 131
f 126 129 130
f 133 136 134
f 133 135 136
f 135 139 136
f 135 137 139
f 19 55 56
f 19 56 57
f 19 57 58
f 19 58 59
f 19 26 55
f 55 61 56
f 55 60 61
f 56 62 57
f 56 61 62
f 57 62 66
f 55 26 60
f 19 73 33
f 19 59 73
f 57 66 58
f 58 66 67
f 58 67 59
f 59 75 73
f 59 67 75
f 60 64 61
f 61 65 62
f 60 26 63
f 60 63 64
f 61 64 65
f 62 65 68
f 63 71 64
f 64 71 65
f 65 71 68
f 62 68 66
f 66 69 67
f 67 76 75
f 66 68 69
f 67 69 76
f 68 71 69
f 69 72 76
f 63 26 71
f 69 71 72
f 71 79 72
f 33 73 74
f 73 75 77
f 33 74 35
f 73 77 74
f 36 35 79
f 74 79 35
f 75 76 78
f 75 78 77
f 74 77 79
f 72 78 76
f 77 78 79
f 72 79 78
f 94 53 101
f 94 104 112
f 94 101 104
f 104 128 112
f 104 129 128
f 129 131 128
f 38 40 39
f 40 111 112
f 40 112 82
f 38 83 40
f 40 83 111
f 83 114 111
f 38 84 83
f 38 80 84
f 80 81 84
f 81 82 84
f 82 141 84
f 83 84 142
f 83 138 114
f 83 140 138
f 140 132 138
f 140 131 132
f 82 112 141
f 83 142 140
f 84 141 142
f 141 112 128
f 141 128 131
f 140 141 131
f 140 142 141
f 24 26 25
f 24 25 27
f 36 38 37
f 38 39 37
f 24 27 46
f 39 52 37
f 39 40 52
f 40 54 52
f 40 53 54
f 24 70 26
f 70 71 26
f 70 80 71
f 71 80 79
f 36 79 38
f 38 79 80
f 70 81 80
f 24 97 70
f 70 106 81
f 40 82 53
f 82 101 53
f 81 107 82
f 24 46 97
f 97 46 96
f 97 96 102
f 97 102 105
f 105 102 101
f 70 97 106
f 82 105 101
f 81 106 107
f 82 107 105
f 97 105 106
f 105 107 106
