# MAAS exact compiled indexed mesh
# program_hash e47564294da3d972e471d343b563f7827dba295162188c4fd0c4d3e9e407676f
# geometry_hash 80cc6db2a82105d59850ff4f0e57d1be518b69838a2cad9045de2c07e552d526
v -13.08299094 -8.6228804 3.80769231
v -7.84979457 -5.17372824 3.80769231
v -13.08299094 -8.6228804 16.5
v -7.84979457 -5.17372824 16.5
v -13.08299094 8.6228804 3.80769231
v -9.41975348 4.82881302 0
v -9.41975348 4.82881302 3.80769231
v -7.84979457 4.82881302 3.80769231
v -9.41975348 8.6228804 0
v -9.41975348 8.6228804 3.80769231
v -7.84979457 4.82881302 4.82307692
v -7.84979457 5.17372824 4.82307692
v -9.41975348 8.6228804 4.82307692
v -13.08299094 8.6228804 16.5
v -7.84979457 5.17372824 16.5
v 7.84979457 -5.17372824 3.80769231
v 13.08299094 -8.6228804 3.80769231
v 7.84979457 -5.17372824 16.5
v 13.08299094 -8.6228804 16.5
v 8.72199396 0 10.15384615
v 7.84979457 0 10.57692308
v 7.84979457 0 11.98717949
v 7.84979457 0 12.26923077
v 8.72199396 0 11.56410256
v 8.72199396 0 12.26923077
v 11.62932528 0 10.15384615
v 13.08299094 0 10.15384615
v 11.62932528 0 10.85897436
v 7.84979457 0 16.5
v 13.08299094 0 16.5
v 9.41975348 4.82881302 0
v 7.84979457 4.82881302 3.80769231
v 9.41975348 4.82881302 3.80769231
v 9.41975348 8.6228804 0
v 9.41975348 8.6228804 3.80769231
v 13.08299094 8.6228804 3.80769231
v 7.84979457 4.82881302 4.82307692
v 7.84979457 5.17372824 4.82307692
v 9.41975348 8.6228804 4.82307692
v 0.8721994 5.17372824 10.15384615
v 0 5.74858693 10.15384615
v 0 5.17372824 12.26923077
v 0 8.6228804 10.15384615
v 0 8.6228804 10.85897436
v 1.45366566 8.6228804 10.85897436
v 0 8.6228804 11.56410256
v 0 8.6228804 12.26923077
v 1.45366566 8.6228804 11.56410256
v 1.45366566 8.6228804 12.26923077
v 2.90733132 8.6228804 10.85897436
v 2.90733132 8.6228804 11.56410256
v 2.90733132 8.6228804 12.26923077
v 4.36099698 5.74858693 10.15384615
v 4.36099698 8.6228804 10.15384615
v 5.81466264 8.6228804 10.15384615
v 4.36099698 8.6228804 10.85897436
v 4.36099698 8.6228804 11.56410256
v 4.36099698 8.6228804 12.26923077
v 5.81466264 8.6228804 10.85897436
v 5.81466264 8.6228804 11.56410256
v 5.81466264 8.6228804 12.26923077
v 0.21456105 5.17372824 12.97435897
v 0.56277933 5.17372824 13.67948718
v 1.03057964 5.17372824 14.38461538
v 0.21456105 5.70930492 12.97435897
v 0.56277933 5.64774215 13.67948718
v 1.03057964 5.5658313 14.38461538
v 1.03057964 6.40209204 14.38461538
v 0 5.17372824 16.5
v 1.67071539 5.17372824 15.08974359
v 2.27331725 5.17372824 15.79487179
v 2.27331725 5.34019543 15.79487179
v 2.83838524 5.17372824 16.5
v 2.83838524 5.2351082 16.5
v 1.67071539 5.45043647 15.08974359
v 1.67071539 6.11360495 15.08974359
v 2.27331725 5.97966901 15.79487179
v 2.83838524 5.85088687 16.5
v 2.83838524 6.46666553 16.5
v 0.21456105 6.58883872 12.97435897
v 0.56277933 6.5128516 13.67948718
v 0.56277933 7.37796104 13.67948718
v 1.03057964 7.23835278 14.38461538
v 0.21456105 7.54693654 12.97435897
v 0.21456105 8.50503436 12.97435897
v 1.52518601 8.50503436 12.97435897
v 0.56277933 8.32034606 13.67948718
v 1.03057964 8.07461352 14.38461538
v 2.97885167 8.50503436 12.97435897
v 2.2552276 8.07461352 14.38461538
v 1.84474529 8.32034606 13.67948718
v 3.12671125 8.32034606 13.67948718
v 0 8.6228804 16.5
v 1.67071539 6.92101698 15.08974359
v 2.27331725 6.61914259 15.79487179
v 2.27331725 7.39770591 15.79487179
v 3.14103734 7.39770591 15.79487179
v 2.83838524 7.0824442 16.5
v 1.67071539 7.72842901 15.08974359
v 2.58324218 7.72842901 15.08974359
v 3.66129862 5.2351082 16.5
v 4.48421201 5.2351082 16.5
v 3.66129862 5.85088687 16.5
v 3.66129862 6.46666553 16.5
v 4.48421201 5.85088687 16.5
v 4.48421201 6.46666553 16.5
v 5.30712539 5.2351082 16.5
v 6.13003878 5.2351082 16.5
v 5.30712539 5.85088687 16.5
v 5.30712539 6.46666553 16.5
v 6.13003878 5.85088687 16.5
v 6.13003878 6.46666553 16.5
v 4.43251733 8.50503436 12.97435897
v 3.47987557 8.07461352 14.38461538
v 4.70452353 8.07461352 14.38461538
v 4.54859009 8.32034606 13.67948718
v 5.74314229 8.50503436 12.97435897
v 5.92917149 8.07461352 14.38461538
v 5.83055605 8.32034606 13.67948718
v 4.00875743 7.39770591 15.79487179
v 3.66129862 7.0824442 16.5
v 4.48421201 7.0824442 16.5
v 3.75057215 7.72842901 15.08974359
v 5.1187694 7.39770591 15.79487179
v 5.30712539 7.0824442 16.5
v 5.98648949 7.39770591 15.79487179
v 6.13003878 7.0824442 16.5
v 4.91790211 7.72842901 15.08974359
v 5.83042891 7.72842901 15.08974359
v 7.84979457 0.57485869 10.15384615
v 8.72199396 0.95809782 10.15384615
v 8.72199396 1.91619564 10.15384615
v 8.72199396 0 10.85897436
v 7.84979457 2.49105434 10.15384615
v 7.84979457 3.44915216 10.15384615
v 8.72199396 2.87429347 10.15384615
v 8.72199396 3.83239129 10.15384615
v 10.17565962 0 10.15384615
v 10.17565962 0.95809782 10.15384615
v 10.17565962 1.91619564 10.15384615
v 11.62932528 0.95809782 10.15384615
v 13.08299094 0.95809782 10.15384615
v 13.08299094 1.91619564 10.15384615
v 10.17565962 0 10.85897436
v 10.17565962 0 11.56410256
v 10.17565962 0 12.26923077
v 13.08299094 0 10.85897436
v 13.08299094 0.95809782 10.85897436
v 11.62932528 0 11.56410256
v 11.62932528 0 12.26923077
v 13.08299094 0 11.56410256
v 13.08299094 0 12.26923077
v 13.08299094 0.95809782 11.56410256
v 13.08299094 0.95809782 12.26923077
v 13.08299094 1.91619564 10.85897436
v 13.08299094 1.91619564 11.56410256
v 13.08299094 1.91619564 12.26923077
v 13.08299094 2.87429347 10.15384615
v 13.08299094 3.83239129 10.15384615
v 13.08299094 2.87429347 10.85897436
v 13.08299094 2.87429347 11.56410256
v 13.08299094 2.87429347 12.26923077
v 13.08299094 3.83239129 10.85897436
v 13.08299094 3.83239129 11.56410256
v 13.08299094 3.83239129 12.26923077
v 7.84979457 0.11784603 12.97435897
v 7.84979457 0.30253433 13.67948718
v 7.84979457 0.54826688 14.38461538
v 8.65047361 0.11784603 12.97435897
v 8.53440085 0.30253433 13.67948718
v 8.37846742 0.54826688 14.38461538
v 9.60311538 0.54826688 14.38461538
v 7.84979457 0.89445138 15.08974359
v 8.16508883 0.89445138 15.08974359
v 7.84979457 1.22517449 15.79487179
v 7.96422155 1.22517449 15.79487179
v 7.84979457 1.54043619 16.5
v 9.3324188 0.89445138 15.08974359
v 8.59877894 1.54043619 16.5
v 9.07423351 1.22517449 15.79487179
v 9.42169232 1.54043619 16.5
v 8.59877894 2.15621486 16.5
v 8.59877894 2.77199353 16.5
v 9.42169232 2.15621486 16.5
v 9.42169232 2.77199353 16.5
v 8.59877894 3.3877722 16.5
v 8.59877894 4.00355086 16.5
v 9.42169232 3.3877722 16.5
v 9.42169232 4.00355086 16.5
v 10.10413927 0.11784603 12.97435897
v 9.95627969 0.30253433 13.67948718
v 11.23824565 0.30253433 13.67948718
v 10.82776334 0.54826688 14.38461538
v 11.55780493 0.11784603 12.97435897
v 12.86842989 0.11784603 12.97435897
v 12.86842989 0.99737983 12.97435897
v 12.0524113 0.54826688 14.38461538
v 12.52021161 0.30253433 13.67948718
v 12.86842989 1.95547765 12.97435897
v 12.0524113 1.38452762 14.38461538
v 12.52021161 1.16764378 13.67948718
v 12.52021161 2.03275323 13.67948718
v 10.49974876 0.89445138 15.08974359
v 11.41227556 0.89445138 15.08974359
v 11.41227556 1.55761987 15.08974359
v 9.9419536 1.22517449 15.79487179
v 10.24460571 1.54043619 16.5
v 10.80967369 1.22517449 15.79487179
v 10.80967369 1.86464806 15.79487179
v 12.86842989 2.91357548 12.97435897
v 12.0524113 2.22078835 14.38461538
v 12.0524113 3.05704909 14.38461538
v 12.52021161 2.97513824 13.67948718
v 12.86842989 3.79310928 12.97435897
v 12.0524113 3.89330983 14.38461538
v 12.52021161 3.84024769 13.67948718
v 11.41227556 2.3650319 15.08974359
v 11.41227556 3.17244393 15.08974359
v 10.24460571 2.15621486 16.5
v 10.24460571 2.77199353 16.5
v 10.80967369 2.50412164 15.79487179
v 11.41227556 3.83561241 15.08974359
v 10.24460571 3.3877722 16.5
v 10.24460571 4.00355086 16.5
v 10.80967369 3.28268496 15.79487179
v 10.80967369 3.92215854 15.79487179
v 7.84979457 5.17372824 10.15384615
v 7.2683283 7.66478257 10.15384615
v 7.2683283 8.6228804 10.15384615
v 8.72199396 6.70668475 10.15384615
v 8.72199396 7.66478257 10.15384615
v 8.72199396 8.6228804 10.15384615
v 7.2683283 8.6228804 10.85897436
v 7.2683283 8.6228804 11.56410256
v 7.2683283 8.6228804 12.26923077
v 8.72199396 8.6228804 10.85897436
v 8.72199396 8.6228804 11.56410256
v 8.72199396 8.6228804 12.26923077
v 10.17565962 5.74858693 10.15384615
v 11.62932528 4.79048911 10.15384615
v 13.08299094 4.79048911 10.15384615
v 11.62932528 5.74858693 10.15384615
v 13.08299094 5.74858693 10.15384615
v 13.08299094 4.79048911 10.85897436
v 13.08299094 4.79048911 11.56410256
v 13.08299094 4.79048911 12.26923077
v 13.08299094 5.74858693 10.85897436
v 13.08299094 5.74858693 11.56410256
v 13.08299094 5.74858693 12.26923077
v 10.17565962 6.70668475 10.15384615
v 10.17565962 7.66478257 10.15384615
v 10.17565962 8.6228804 10.15384615
v 11.62932528 6.70668475 10.15384615
v 13.08299094 6.70668475 10.15384615
v 11.62932528 7.66478257 10.15384615
v 11.62932528 8.6228804 10.15384615
v 13.08299094 7.66478257 10.15384615
v 13.08299094 8.6228804 10.15384615
v 10.17565962 8.6228804 10.85897436
v 10.17565962 8.6228804 11.56410256
v 10.17565962 8.6228804 12.26923077
v 13.08299094 6.70668475 10.85897436
v 13.08299094 6.70668475 11.56410256
v 13.08299094 6.70668475 12.26923077
v 11.62932528 8.6228804 10.85897436
v 13.08299094 7.66478257 10.85897436
v 13.08299094 8.6228804 10.85897436
v 11.62932528 8.6228804 11.56410256
v 11.62932528 8.6228804 12.26923077
v 13.08299094 7.66478257 11.56410256
v 13.08299094 7.66478257 12.26923077
v 13.08299094 8.6228804 11.56410256
v 13.08299094 8.6228804 12.26923077
v 6.95295216 5.2351082 16.5
v 7.84979457 5.17372824 16.5
v 7.77586555 5.2351082 16.5
v 6.95295216 5.85088687 16.5
v 6.95295216 6.46666553 16.5
v 7.77586555 5.85088687 16.5
v 7.77586555 6.46666553 16.5
v 8.59877894 4.61932953 16.5
v 8.59877894 5.2351082 16.5
v 9.42169232 4.61932953 16.5
v 9.42169232 5.2351082 16.5
v 8.59877894 5.85088687 16.5
v 8.59877894 6.46666553 16.5
v 9.42169232 5.85088687 16.5
v 9.42169232 6.46666553 16.5
v 7.19680795 8.50503436 12.97435897
v 7.15381945 8.07461352 14.38461538
v 7.11252201 8.32034606 13.67948718
v 8.65047361 8.50503436 12.97435897
v 8.37846742 8.07461352 14.38461538
v 8.53440085 8.32034606 13.67948718
v 9.60311538 8.07461352 14.38461538
v 6.85420958 7.39770591 15.79487179
v 6.95295216 7.0824442 16.5
v 7.96422155 7.39770591 15.79487179
v 7.77586555 7.0824442 16.5
v 6.99775887 7.72842901 15.08974359
v 8.16508883 7.72842901 15.08974359
v 8.83194164 7.39770591 15.79487179
v 8.59877894 7.0824442 16.5
v 9.69966173 7.39770591 15.79487179
v 9.42169232 7.0824442 16.5
v 9.07761563 7.72842901 15.08974359
v 12.86842989 4.7512071 12.97435897
v 12.0524113 4.72957057 14.38461538
v 12.52021161 4.70535713 13.67948718
v 12.86842989 5.70930492 12.97435897
v 12.0524113 5.5658313 14.38461538
v 12.0524113 6.40209204 14.38461538
v 12.52021161 5.64774215 13.67948718
v 11.41227556 4.64302444 15.08974359
v 10.24460571 4.61932953 16.5
v 10.24460571 5.2351082 16.5
v 10.80967369 4.56163211 15.79487179
v 10.80967369 5.34019543 15.79487179
v 11.41227556 5.45043647 15.08974359
v 11.41227556 6.11360495 15.08974359
v 10.24460571 5.85088687 16.5
v 10.24460571 6.46666553 16.5
v 10.80967369 5.97966901 15.79487179
v 9.96109857 8.50503436 12.97435897
v 11.41476423 8.50503436 12.97435897
v 9.81636681 8.32034606 13.67948718
v 10.82776334 8.07461352 14.38461538
v 11.09833277 8.32034606 13.67948718
v 12.86842989 6.58883872 12.97435897
v 12.0524113 7.23835278 14.38461538
v 12.52021161 6.5128516 13.67948718
v 12.52021161 7.37796104 13.67948718
v 12.86842989 7.54693654 12.97435897
v 12.86842989 8.50503436 12.97435897
v 12.0524113 8.07461352 14.38461538
v 12.52021161 8.32034606 13.67948718
v 11.41227556 6.92101698 15.08974359
v 10.24460571 7.0824442 16.5
v 10.80967369 6.61914259 15.79487179
v 10.80967369 7.39770591 15.79487179
v 10.24494559 7.72842901 15.08974359
v 11.41227556 7.72842901 15.08974359
f 1 5 2
f 1 2 16
f 1 17 3
f 1 3 14
f 3 4 15
f 3 19 4
f 2 5 7
f 2 7 8
f 1 14 5
f 5 10 7
f 5 13 10
f 5 43 13
f 43 39 13
f 3 15 14
f 5 14 43
f 14 15 93
f 14 44 43
f 14 46 44
f 14 47 46
f 14 93 47
f 15 69 93
f 1 16 17
f 16 33 17
f 17 36 27
f 3 17 19
f 4 19 18
f 17 27 19
f 18 19 30
f 18 30 29
f 27 30 19
f 16 32 33
f 17 33 35
f 17 35 36
f 43 36 39
f 43 229 36
f 36 229 232
f 27 36 241
f 36 243 241
f 36 35 39
f 36 232 256
f 36 257 243
f 36 256 258
f 36 258 257
f 43 44 45
f 44 46 48
f 44 48 45
f 46 47 49
f 46 49 48
f 43 45 54
f 45 48 51
f 45 51 50
f 45 50 54
f 48 52 51
f 48 49 52
f 50 56 54
f 50 51 57
f 50 57 56
f 54 56 59
f 56 57 60
f 51 58 57
f 51 52 58
f 57 58 61
f 54 59 55
f 56 60 59
f 55 59 233
f 59 60 234
f 57 61 60
f 60 61 235
f 74 101 78
f 78 103 79
f 47 85 86
f 47 86 49
f 85 91 86
f 85 87 91
f 87 90 91
f 87 88 90
f 49 86 89
f 49 89 52
f 86 92 89
f 86 91 92
f 91 114 92
f 91 90 114
f 96 97 99
f 79 104 98
f 97 120 100
f 96 98 121
f 96 121 97
f 88 100 90
f 88 99 100
f 90 123 114
f 90 100 123
f 97 100 99
f 73 275 74
f 74 275 101
f 78 101 103
f 101 102 103
f 79 103 104
f 103 105 104
f 102 105 103
f 102 107 105
f 104 105 106
f 105 109 106
f 101 275 102
f 102 275 107
f 107 275 108
f 105 107 109
f 107 108 109
f 106 109 110
f 109 111 110
f 108 111 109
f 108 274 111
f 110 111 112
f 111 277 112
f 52 89 113
f 52 113 58
f 89 116 113
f 58 113 117
f 89 92 116
f 92 114 115
f 92 115 116
f 58 117 61
f 113 119 117
f 61 117 289
f 113 116 119
f 116 118 119
f 116 115 118
f 117 119 291
f 119 118 290
f 98 104 121
f 104 106 121
f 97 121 122
f 97 122 120
f 106 122 121
f 106 110 122
f 120 124 123
f 120 122 125
f 120 125 124
f 114 123 128
f 100 120 123
f 114 128 115
f 123 124 128
f 110 125 122
f 110 112 125
f 124 126 128
f 124 125 127
f 112 127 125
f 112 278 127
f 126 296 129
f 124 127 126
f 126 127 297
f 115 128 129
f 115 129 118
f 126 129 128
f 118 129 300
f 27 148 147
f 147 153 151
f 27 142 148
f 147 148 153
f 151 154 152
f 151 153 154
f 142 155 148
f 143 155 142
f 148 156 153
f 148 155 156
f 153 156 157
f 153 157 154
f 143 160 155
f 143 158 160
f 155 161 156
f 155 160 161
f 158 163 160
f 160 164 161
f 156 161 162
f 156 162 157
f 161 165 162
f 158 159 163
f 160 163 164
f 159 244 163
f 163 245 164
f 161 164 165
f 164 246 165
f 177 179 182
f 179 181 182
f 181 184 182
f 181 207 184
f 177 281 275
f 177 182 183
f 177 183 186
f 182 184 183
f 177 186 187
f 183 185 186
f 183 184 185
f 184 219 185
f 185 188 186
f 185 220 188
f 177 187 281
f 186 188 187
f 187 189 281
f 188 223 189
f 187 188 189
f 189 224 283
f 152 196 195
f 152 154 196
f 195 196 201
f 198 200 197
f 195 201 198
f 198 201 200
f 154 199 196
f 154 157 199
f 196 199 202
f 201 211 200
f 196 202 201
f 201 202 211
f 204 205 209
f 205 217 221
f 184 207 219
f 208 209 219
f 207 208 219
f 204 209 208
f 205 221 209
f 197 205 204
f 197 200 205
f 200 217 205
f 200 211 217
f 157 210 199
f 157 162 210
f 199 210 213
f 162 214 210
f 202 212 211
f 199 213 202
f 202 213 212
f 162 165 214
f 210 214 216
f 165 307 214
f 213 215 212
f 216 308 215
f 210 216 213
f 213 216 215
f 214 309 216
f 217 218 225
f 185 219 220
f 209 221 220
f 209 220 219
f 188 220 223
f 220 221 223
f 221 225 223
f 217 225 221
f 218 222 226
f 224 225 226
f 223 225 224
f 189 223 224
f 224 226 315
f 218 226 225
f 222 317 226
f 211 218 217
f 211 212 218
f 212 222 218
f 212 215 222
f 215 314 222
f 229 55 233
f 59 234 233
f 229 233 236
f 233 234 237
f 60 235 234
f 234 235 238
f 229 236 232
f 233 237 236
f 232 236 259
f 232 259 252
f 236 237 260
f 236 260 259
f 234 238 237
f 237 261 260
f 237 238 261
f 241 244 159
f 163 244 245
f 241 247 244
f 244 248 245
f 164 245 246
f 245 249 246
f 241 243 247
f 244 247 248
f 243 262 247
f 243 254 262
f 247 263 248
f 247 262 263
f 245 248 249
f 248 263 264
f 248 264 249
f 252 259 265
f 256 252 265
f 259 260 268
f 259 268 265
f 260 269 268
f 260 261 269
f 254 266 262
f 257 266 254
f 262 270 263
f 262 266 270
f 263 270 271
f 263 271 264
f 256 265 267
f 265 268 272
f 257 267 266
f 266 272 270
f 256 267 258
f 257 258 267
f 265 272 267
f 266 267 272
f 268 269 273
f 270 273 271
f 268 273 272
f 270 272 273
f 108 275 274
f 274 275 276
f 275 281 276
f 111 274 277
f 274 276 277
f 112 277 278
f 277 279 278
f 276 279 277
f 276 282 279
f 278 279 280
f 279 285 280
f 281 283 282
f 276 281 282
f 189 283 281
f 283 315 284
f 282 283 284
f 279 282 285
f 282 284 285
f 280 285 286
f 285 287 286
f 284 287 285
f 284 316 287
f 286 287 288
f 287 321 288
f 61 289 235
f 117 291 289
f 235 289 292
f 289 294 292
f 119 290 291
f 289 291 294
f 291 293 294
f 291 290 293
f 235 292 238
f 238 292 324
f 238 324 261
f 292 326 324
f 294 293 295
f 294 295 326
f 292 294 326
f 127 278 297
f 278 280 297
f 296 298 300
f 126 297 296
f 296 297 299
f 280 299 297
f 280 286 299
f 296 299 298
f 298 299 303
f 118 300 290
f 129 296 300
f 290 300 301
f 290 301 293
f 298 301 300
f 286 303 299
f 286 288 303
f 298 302 301
f 298 303 302
f 302 303 305
f 288 305 303
f 288 322 305
f 302 304 306
f 302 305 304
f 304 305 338
f 293 301 306
f 301 302 306
f 293 306 295
f 295 306 341
f 304 341 306
f 165 246 307
f 214 307 309
f 246 310 307
f 307 310 313
f 309 311 308
f 216 309 308
f 307 313 309
f 309 313 311
f 246 249 310
f 249 329 310
f 249 264 329
f 310 329 331
f 313 312 311
f 310 331 313
f 313 331 312
f 222 314 317
f 314 319 318
f 224 315 283
f 226 317 315
f 315 317 316
f 284 315 316
f 316 317 318
f 314 318 317
f 319 320 323
f 287 316 321
f 316 318 321
f 318 323 321
f 288 321 322
f 321 323 322
f 322 323 339
f 318 319 323
f 320 339 323
f 215 308 314
f 308 319 314
f 308 311 319
f 311 320 319
f 311 312 320
f 261 324 325
f 261 325 269
f 324 328 325
f 326 327 328
f 324 326 328
f 295 327 326
f 328 327 335
f 264 333 329
f 264 271 333
f 329 333 332
f 312 331 330
f 329 332 331
f 331 332 330
f 325 334 269
f 271 334 333
f 269 334 273
f 271 273 334
f 325 336 334
f 333 334 336
f 332 335 330
f 325 328 336
f 328 335 336
f 333 336 332
f 332 336 335
f 320 337 339
f 337 342 340
f 305 322 338
f 322 339 338
f 304 340 341
f 338 339 340
f 304 338 340
f 337 340 339
f 295 341 327
f 327 341 342
f 327 342 335
f 340 342 341
f 312 337 320
f 312 330 337
f 330 342 337
f 330 335 342
f 20 21 22
f 20 22 24
f 20 24 28
f 24 25 28
f 20 28 26
f 23 29 25
f 25 30 28
f 27 28 30
f 25 29 30
f 40 227 41
f 41 227 43
f 43 227 229
f 42 93 69
f 42 47 93
f 130 132 134
f 20 132 130
f 20 141 132
f 132 141 136
f 135 136 227
f 20 26 141
f 27 241 141
f 136 141 241
f 136 231 227
f 136 242 231
f 227 231 229
f 231 256 232
f 136 241 242
f 231 242 253
f 231 253 256
f 243 257 253
f 253 257 256
f 21 24 22
f 26 28 144
f 41 43 54
f 40 41 54
f 40 54 53
f 40 53 227
f 227 53 228
f 53 54 228
f 54 55 228
f 62 63 65
f 63 64 66
f 42 62 47
f 65 81 80
f 65 63 66
f 65 66 81
f 66 68 81
f 64 67 66
f 66 67 68
f 64 70 67
f 67 70 75
f 67 75 76
f 67 76 68
f 70 71 75
f 71 72 75
f 71 73 72
f 72 73 74
f 75 77 76
f 72 77 75
f 76 77 95
f 72 74 78
f 72 78 77
f 77 78 79
f 77 79 95
f 62 65 47
f 65 80 47
f 80 82 84
f 80 81 82
f 81 83 82
f 68 83 81
f 80 84 47
f 47 84 85
f 84 87 85
f 84 82 87
f 82 88 87
f 82 83 88
f 68 76 94
f 68 94 83
f 83 94 99
f 83 99 88
f 76 95 94
f 94 96 99
f 94 95 96
f 79 98 95
f 95 98 96
f 130 134 131
f 20 130 131
f 20 131 138
f 131 139 138
f 132 131 134
f 132 139 131
f 132 140 139
f 20 133 21
f 21 133 24
f 20 138 133
f 133 138 144
f 24 133 144
f 24 144 145
f 24 145 25
f 25 145 146
f 135 227 137
f 132 136 140
f 135 137 136
f 26 138 139
f 26 139 141
f 141 139 140
f 27 141 142
f 141 140 158
f 141 143 142
f 141 158 143
f 26 144 138
f 28 145 144
f 28 149 145
f 145 149 146
f 149 150 146
f 28 147 149
f 27 147 28
f 147 151 149
f 149 151 150
f 151 152 150
f 136 137 158
f 136 158 140
f 227 158 137
f 158 240 159
f 23 169 166
f 166 170 167
f 167 171 168
f 23 25 169
f 166 169 170
f 25 146 169
f 169 146 190
f 169 190 170
f 167 170 171
f 170 191 171
f 190 191 170
f 171 191 172
f 168 171 174
f 168 174 173
f 173 174 176
f 173 176 175
f 175 176 179
f 175 179 177
f 171 172 174
f 174 178 176
f 172 178 174
f 178 203 180
f 176 178 180
f 176 180 179
f 179 180 206
f 179 206 181
f 190 194 191
f 146 150 190
f 190 150 194
f 172 191 192
f 172 192 193
f 194 192 191
f 150 152 194
f 194 195 192
f 152 195 194
f 192 198 193
f 195 198 192
f 193 198 197
f 172 193 178
f 178 193 203
f 203 204 206
f 193 197 203
f 197 204 203
f 180 203 206
f 181 206 208
f 181 208 207
f 204 208 206
f 227 228 158
f 230 250 239
f 229 228 55
f 229 231 228
f 228 230 158
f 231 230 228
f 231 250 230
f 231 251 250
f 231 232 251
f 232 252 251
f 230 239 158
f 242 240 239
f 242 239 250
f 242 250 253
f 158 239 240
f 241 240 242
f 241 159 240
f 243 253 254
f 253 250 251
f 253 251 255
f 251 252 255
f 256 255 252
f 253 255 254
f 257 254 255
f 256 257 255
f 2 4 16
f 2 15 4
f 2 8 11
f 2 11 15
f 15 11 12
f 15 12 38
f 15 42 69
f 16 18 32
f 4 18 16
f 18 23 32
f 18 29 23
f 23 37 32
f 42 38 62
f 15 38 42
f 62 38 63
f 63 38 64
f 64 38 70
f 70 38 71
f 71 38 275
f 71 275 73
f 23 275 37
f 23 166 275
f 166 167 275
f 167 168 275
f 168 173 275
f 173 175 275
f 175 177 275
f 275 38 37
f 6 7 9
f 6 8 7
f 9 7 10
f 6 31 8
f 6 9 31
f 31 11 8
f 9 10 39
f 12 11 38
f 10 13 39
f 31 32 11
f 9 34 31
f 9 35 34
f 9 39 35
f 32 37 11
f 11 37 38
f 31 33 32
f 31 35 33
f 31 34 35
