# MAAS exact compiled indexed mesh
# program_hash 744eb99211fb1f96b5339482b2b5e2971904dcadb409f004f54aa6ce88ed1af7
# geometry_hash c2edc4661cd1ae6cddfa87872c82bc9b15ccb47e3b490492c167e057f8d1f917
v -15.21535276 -11.57453621 0
v -15.21535276 -4.83630856 0
v -15.21535276 -11.57453621 15.44659626
v -15.21535276 -4.83630856 15.44659626
v -14.12854185 5.27103292 0
v -14.12854185 11.57453621 0
v -14.12854185 5.27103292 10.29773084
v -14.12854185 11.57453621 10.29773084
v 15.21535276 -11.57453621 0
v 8.69448729 -4.83630856 0
v 14.12854185 -4.83630856 0
v 15.21535276 -4.83630856 0
v 8.69448729 -4.83630856 5.14886542
v 14.12854185 -4.83630856 5.14886542
v 15.21535276 -11.57453621 15.44659626
v 15.21535276 -4.83630856 15.44659626
v 8.69448729 5.27103292 0
v 14.12854185 5.27103292 0
v 8.69448729 5.27103292 5.14886542
v 14.12854185 5.27103292 5.14886542
v 8.69448729 6.48324509 0
v 14.12854185 11.57453621 0
v 14.12854185 5.27103292 10.29773084
v 14.12854185 11.57453621 10.29773084
f 1 4 2
f 1 2 9
f 1 9 3
f 1 3 4
f 3 15 4
f 2 4 16
f 2 10 9
f 2 13 10
f 2 16 13
f 9 10 11
f 9 11 12
f 9 12 15
f 12 11 14
f 12 14 16
f 3 9 15
f 4 15 16
f 12 16 15
f 16 14 13
f 5 8 6
f 5 7 8
f 5 19 7
f 5 6 21
f 6 8 24
f 7 23 8
f 5 21 17
f 5 17 19
f 7 19 20
f 6 22 21
f 6 24 22
f 18 21 22
f 18 22 20
f 23 20 22
f 22 24 23
f 7 20 23
f 8 23 24
f 11 10 17
f 13 19 10
f 11 18 14
f 13 14 20
f 19 17 10
f 11 17 21
f 21 18 11
f 20 14 18
f 13 20 19
