# MAAS exact compiled indexed mesh
# program_hash 8a35237bfa496f284cd28e13e64710e7fdc52313c4b7caed94a899154333405e
# geometry_hash 2b80a5f498a2755b1ca0bffd787516c57d2938f1452cfecce9aa685d4699855b
v -15.59673753 -10.27966792 0
v -15.59673753 -10.27966792 5.005
v -15.59673753 10.27966792 0
v -15.59673753 10.27966792 5.005
v 3.54471307 -4.32454995 5.005
v 15.59673753 -10.27966792 0
v 15.59673753 -10.27966792 5.005
v 12.3356015 -4.32454995 5.005
v 3.54471307 -4.32454995 8.25
v 3.54471307 -4.32454995 16.5
v 12.3356015 -4.32454995 8.25
v 12.3356015 -4.32454995 16.5
v 3.54471307 4.46633847 5.005
v 12.3356015 4.46633847 5.005
v 15.59673753 10.27966792 0
v 15.59673753 10.27966792 5.005
v 3.54471307 4.46633847 8.25
v 4.29861967 0.39756368 10.461
v 4.29861967 2.23310118 10.461
v 5.93020856 2.23310118 10.461
v 4.29861967 4.46633847 10.461
v 6.746003 3.45679285 10.461
v 3.54471307 4.46633847 16.5
v 4.29861967 0.39756368 14.289
v 4.29861967 2.23310118 14.289
v 5.93020856 2.23310118 14.289
v 4.29861967 4.46633847 14.289
v 6.746003 3.45679285 14.289
v 8.37759189 0.39756368 10.461
v 8.37759189 3.45679285 10.461
v 8.37759189 4.46633847 10.461
v 12.3356015 4.46633847 8.25
v 8.37759189 0.39756368 14.289
v 8.37759189 3.45679285 14.289
v 8.37759189 4.46633847 14.289
v 12.3356015 4.46633847 16.5
f 1 2 4
f 1 6 2
f 1 3 6
f 2 5 13
f 1 4 3
f 2 13 4
f 3 4 16
f 2 6 7
f 2 7 5
f 5 7 8
f 6 15 7
f 7 16 8
f 3 15 6
f 3 16 15
f 4 13 16
f 7 15 16
f 8 16 14
f 13 14 16
f 5 9 17
f 5 8 9
f 8 11 9
f 8 14 11
f 5 17 13
f 13 17 32
f 13 32 14
f 11 14 32
f 9 11 10
f 9 10 23
f 10 12 23
f 12 11 32
f 10 11 12
f 9 23 17
f 21 31 17
f 21 17 27
f 27 17 23
f 27 23 35
f 31 32 17
f 31 35 32
f 23 12 36
f 35 36 32
f 23 36 35
f 12 32 36
f 18 19 24
f 18 24 29
f 18 20 19
f 18 29 20
f 20 29 22
f 19 25 24
f 24 25 26
f 24 33 29
f 24 26 33
f 26 28 33
f 22 29 30
f 29 33 30
f 30 33 34
f 28 34 33
f 19 20 21
f 21 20 22
f 19 21 25
f 21 22 31
f 21 27 25
f 25 27 26
f 27 28 26
f 27 34 28
f 27 35 34
f 22 30 31
f 30 35 31
f 30 34 35
