# MAAS exact compiled indexed mesh
# program_hash 0b270696a982de56a53771d3de54cacfe6dc0c2152ad89c4becca6ee809b2428
# geometry_hash dba37e739fa629c9b766e6fa23af662356f4e3517a520927a6763305d887049e
v -14.93224919 -10.37240986 0
v -14.93224919 -7.15847329 4.158
v -14.93224919 -4.13359181 4.158
v -14.93224919 -2.43209598 4.158
v -14.93224919 -7.15847329 5.742
v -14.93224919 -10.37240986 9.9
v -14.93224919 -4.13359181 5.742
v -14.93224919 -2.43209598 5.742
v -14.93224919 -0.91965524 5.742
v -14.93224919 -0.54154505 5.742
v -14.93224919 -0.16343487 5.742
v -11.34689021 -0.88953968 5.742
v -14.93224919 -0.54154505 6.7815
v -14.93224919 -0.16343487 6.7815
v -11.34689021 -0.88953968 6.7815
v -7.762543 -0.79920149 5.742
v -7.7752442 -0.42130469 5.742
v -7.7879454 -0.04340789 5.742
v -7.762543 -0.79920149 6.7815
v -14.93224919 -0.54154505 7.821
v -14.93224919 -0.16343487 7.821
v -11.34689021 -0.88953968 7.821
v -14.93224919 -0.54154505 8.8605
v -14.93224919 -0.91965524 9.9
v -11.34689021 -0.88953968 8.8605
v -11.34689021 -0.88953968 9.9
v -7.762543 -0.79920149 7.821
v -7.762543 -0.79920149 8.8605
v -7.762543 -0.79920149 9.9
v -0.59013873 -10.37240986 4.95
v -0.0201772 -9.06772746 5.148
v -0.07412684 -8.26605658 5.148
v -0.07412684 -8.26605658 5.346
v -0.59013873 -7.15847329 4.95
v -0.12807648 -7.4643857 5.148
v -0.14866331 -7.15847329 4.95
v -0.12807648 -7.4643857 5.346
v -0.12807648 -7.4643857 5.544
v -0.18202612 -6.66271482 4.95
v -0.18202612 -6.66271482 5.148
v -0.18202612 -6.66271482 5.346
v -0.18202612 -6.66271482 5.544
v -0.59013873 -7.15847329 5.742
v -0.18202612 -6.66271482 5.742
v -0.23280225 -5.90820104 5.742
v -0.12490297 -7.51154281 6.1875
v -0.17885261 -6.70987193 6.3855
v -0.23280225 -5.90820104 6.5835
v -0.59013873 -10.37240986 9.9
v -0.12490297 -7.51154281 7.425
v -0.12490297 -7.51154281 8.6625
v -0.12490297 -7.51154281 9.9
v -4.18021902 -0.64866617 5.742
v -4.19926634 -0.27103604 5.742
v -4.18021902 -0.64866617 6.7815
v -0.59013873 -4.13359181 4.95
v -0.28357838 -5.15368727 5.742
v -0.59013873 -4.13359181 5.742
v -0.33435451 -4.3991735 5.742
v -0.38513064 -3.64465973 4.95
v -0.38513064 -3.64465973 5.148
v -0.38513064 -3.64465973 5.346
v -0.38513064 -3.64465973 5.544
v -0.41369221 -3.22024573 5.148
v -0.44225378 -2.79583174 5.148
v -0.41369221 -3.22024573 5.346
v -0.41369221 -3.22024573 5.544
v -0.44225378 -2.79583174 5.346
v -0.44225378 -2.79583174 5.544
v -0.38513064 -3.64465973 5.742
v -0.41369221 -3.22024573 5.742
v -0.44225378 -2.79583174 5.742
v -0.28675189 -5.10653016 6.7815
v -0.33752802 -4.35201639 6.7815
v -0.38830415 -3.59750262 6.7815
v -0.43908028 -2.84298885 6.7815
v -0.59013873 -2.43209598 4.95
v -0.46673192 -2.43209598 4.95
v -0.47081536 -2.37141774 4.95
v -0.47081536 -2.37141774 5.148
v -0.49937693 -1.94700374 4.95
v -0.49937693 -1.94700374 5.148
v -0.47081536 -2.37141774 5.346
v -0.47081536 -2.37141774 5.544
v -0.49937693 -1.94700374 5.346
v -0.49937693 -1.94700374 5.544
v -0.59013873 -2.43209598 5.742
v -0.47081536 -2.37141774 5.742
v -0.49937693 -1.94700374 5.742
v -0.524765 -1.56974686 5.742
v -0.55015306 -1.19248997 5.742
v -0.59013873 -0.91965524 5.742
v -0.57554113 -0.81523308 5.742
v -0.60092919 -0.4379762 5.742
v -0.62631726 -0.06071931 5.742
v -0.46764185 -2.41857485 6.7815
v -0.49620342 -1.99416085 6.7815
v -0.524765 -1.56974686 6.7815
v -0.55015306 -1.19248997 6.7815
v -0.57554113 -0.81523308 6.7815
v -0.60092919 -0.4379762 6.7815
v -4.18021902 -0.64866617 7.821
v -4.18021902 -0.64866617 8.8605
v -4.18021902 -0.64866617 9.9
v -0.28357838 -5.15368727 7.425
v -0.33752802 -4.35201639 7.623
v -0.28357838 -5.15368727 8.6625
v -0.39147765 -3.55034551 7.821
v -0.44225378 -2.79583174 7.821
v -0.44225378 -2.79583174 8.6625
v -0.28357838 -5.15368727 9.9
v -0.44225378 -2.79583174 9.9
v -0.49302991 -2.04131796 7.821
v -0.52159149 -1.61690397 7.821
v -0.55015306 -1.19248997 7.821
v -0.57554113 -0.81523308 7.821
v -0.60092919 -0.4379762 7.821
v -0.49620342 -1.99416085 8.8605
v -0.54697955 -1.23964708 8.8605
v -0.57554113 -0.81523308 8.8605
v -0.60092919 -0.4379762 8.8605
v -0.59013873 -0.91965524 9.9
v -0.60092919 -0.4379762 9.9
v -14.93224919 0.5927855 4.158
v -14.93224919 2.29428133 4.158
v -14.93224919 8.53309938 0
v -14.93224919 5.31916281 4.158
v -14.93224919 0.5927855 4.95
v -14.93224919 0.5927855 5.148
v -14.93224919 0.5927855 5.346
v -14.93224919 0.5927855 5.544
v -14.93224919 1.01815946 5.148
v -14.93224919 1.01815946 5.346
v -14.93224919 1.01815946 5.544
v -14.93224919 0.21467532 5.742
v -14.93224919 0.5927855 5.742
v -14.93224919 1.01815946 5.742
v -14.93224919 1.44353342 5.148
v -14.93224919 1.86890738 5.148
v -14.93224919 1.44353342 5.346
v -14.93224919 1.44353342 5.544
v -14.93224919 1.86890738 5.346
v -14.93224919 1.86890738 5.544
v -14.93224919 2.29428133 4.95
v -14.93224919 2.29428133 5.148
v -14.93224919 2.29428133 5.346
v -14.93224919 2.29428133 5.544
v -14.93224919 1.44353342 5.742
v -14.93224919 1.86890738 5.742
v -14.93224919 2.29428133 5.742
v -11.3722962 0.62268766 4.95
v -11.3722962 0.62268766 5.148
v -11.3722962 0.62268766 5.346
v -11.3722962 0.62268766 5.544
v -11.40087793 2.32394342 4.95
v -14.93224919 0.21467532 6.7815
v -14.93224919 2.57786397 6.7815
v -14.93224919 3.0505017 5.742
v -14.93224919 3.80672207 5.742
v -14.93224919 4.56294244 5.742
v -14.93224919 3.00323793 6.7815
v -14.93224919 3.42861189 6.7815
v -14.93224919 3.85398585 6.7815
v -14.93224919 4.61020622 6.7815
v -9.52402554 0.5927855 5.742
v -7.8133478 0.71238571 4.95
v -7.8133478 0.71238571 5.148
v -7.8133478 0.71238571 5.346
v -7.8006466 0.33448891 5.742
v -7.8133478 0.71238571 5.742
v -7.8705032 2.41292131 4.95
v -7.8705032 2.41292131 5.148
v -7.8705032 2.41292131 5.346
v -7.8705032 2.41292131 5.544
v -7.8705032 2.41292131 5.742
v -7.8959056 3.16871491 5.742
v -7.921308 3.92450851 5.742
v -7.9467104 4.68030211 5.742
v -14.93224919 2.19975379 7.821
v -14.93224919 1.8216436 8.8605
v -14.93224919 1.44353342 9.9
v -11.38658706 1.47331554 9.9
v -14.93224919 4.56294244 7.821
v -14.93224919 4.9883164 7.821
v -14.93224919 3.80672207 9.9
v -14.93224919 4.18483226 8.8605
v -11.42628392 3.83617076 9.9
v -7.8419255 1.56265351 9.9
v -7.921308 3.92450851 9.9
v -14.93224919 5.31916281 4.95
v -14.93224919 5.31916281 5.148
v -14.93224919 5.31916281 5.346
v -14.93224919 5.31916281 5.544
v -14.93224919 5.31916281 5.742
v -11.4516899 5.3483981 4.95
v -11.4516899 5.3483981 5.148
v -11.4516899 5.3483981 5.346
v -11.4516899 5.3483981 5.544
v -14.93224919 5.36642659 6.7815
v -14.93224919 6.12264695 6.1875
v -14.93224919 6.12264695 6.3855
v -14.93224919 6.12264695 6.5835
v -14.93224919 6.12264695 6.7815
v -14.93224919 6.9261311 6.1875
v -14.93224919 7.72961524 6.1875
v -14.93224919 8.53309938 4.95
v -11.50567762 8.5618812 4.95
v -14.93224919 8.53309938 6.1875
v -11.50567762 8.5618812 6.1875
v -7.9721128 5.43609571 4.95
v -7.9721128 5.43609571 5.148
v -7.9721128 5.43609571 5.346
v -7.9721128 5.43609571 5.544
v -7.9721128 5.43609571 5.742
v -8.08007301 8.64821851 4.95
v -8.08007301 8.64821851 6.1875
v -14.93224919 5.41369036 7.821
v -14.93224919 6.16991073 7.821
v -14.93224919 6.9261311 7.425
v -14.93224919 6.9261311 7.623
v -14.93224919 6.9261311 7.821
v -14.93224919 7.72961524 7.425
v -14.93224919 7.72961524 8.6625
v -14.93224919 6.16991073 9.9
v -14.93224919 6.54802091 8.8605
v -14.93224919 6.97339487 8.8605
v -14.93224919 7.72961524 8.8605
v -11.46598077 6.19902598 9.9
v -14.93224919 8.53309938 7.425
v -14.93224919 8.53309938 8.6625
v -11.50567762 8.5618812 7.425
v -11.50567762 8.5618812 8.6625
v -14.93224919 8.53309938 9.9
v -8.08007301 8.64821851 7.425
v -8.08007301 8.64821851 9.9
v -4.2564083 0.86185433 4.95
v -4.2564083 0.86185433 5.148
v -4.2564083 0.86185433 5.544
v -4.34212124 2.56118989 4.95
v -4.34212124 2.56118989 5.148
v -0.59013873 0.5927855 4.95
v -0.70248145 1.07105135 4.95
v -0.59013873 1.07956006 4.95
v -0.70248145 1.07105135 5.346
v -0.65170532 0.31653757 5.742
v -0.67709339 0.69379446 5.742
v -0.70248145 1.07105135 5.742
v -0.78480054 2.29428133 4.95
v -0.78816617 2.34429334 4.95
v -0.81672774 2.76870733 4.95
v -0.81672774 2.76870733 5.148
v -0.81672774 2.76870733 5.346
v -0.81672774 2.76870733 5.544
v -0.81672774 2.76870733 5.742
v -0.86750387 3.5232211 5.742
v -0.96905613 5.03224865 5.742
v -0.91828 4.27773488 5.742
v -4.29926477 1.71152211 9.9
v -0.91828 4.27773488 9.9
v -4.4944998 5.5822309 4.95
v -4.4944998 5.5822309 5.148
v -4.4944998 5.5822309 5.346
v -4.65640203 8.79208696 4.95
v -4.65640203 8.79208696 6.1875
v -1.01983226 5.78676242 4.95
v -1.01983226 5.78676242 5.148
v -1.01983226 5.78676242 5.346
v -1.01983226 5.78676242 5.544
v -0.59013873 5.31916281 4.95
v -0.59013873 5.81930694 4.95
v -1.01983226 5.78676242 5.742
v -1.20465111 8.53309938 4.95
v -1.23563082 8.99344595 4.95
v -4.53735628 6.43189868 9.9
v -4.65640203 8.79208696 8.6625
v -1.23563082 8.99344595 7.425
v -1.23563082 8.99344595 9.9
v 13.75197173 -10.37240986 0
v 13.75197173 -7.15847329 4.158
v 13.75197173 -4.13359181 4.158
v 13.75197173 -2.43209598 4.158
v 0.03377244 -9.86939835 4.95
v 3.64278811 -8.10703371 4.95
v 0.03377244 -9.86939835 6.1875
v 3.56513209 -7.18466615 4.95
v 3.4977236 -6.38401462 4.95
v 3.4977236 -6.38401462 5.148
v 3.4977236 -6.38401462 5.346
v 3.4977236 -6.38401462 5.544
v 3.4977236 -6.38401462 5.742
v 3.4342803 -5.63046025 5.742
v 3.76735758 -9.58662072 4.95
v 4.75145699 -8.68853944 4.95
v 7.4148175 -8.44175998 4.95
v 3.76735758 -9.58662072 6.1875
v 3.84781782 -7.15847329 4.95
v 7.33396917 -7.64235376 4.95
v 7.25312083 -6.84294753 4.95
v 7.1722725 -6.04354131 4.95
v 7.1722725 -6.04354131 5.148
v 7.1722725 -6.04354131 5.346
v 7.1722725 -6.04354131 5.544
v 7.1722725 -6.04354131 5.742
v 7.09617995 -5.29115897 5.742
v 0.03377244 -9.86939835 7.425
v 0.03377244 -9.86939835 8.6625
v 0.03377244 -9.86939835 9.9
v 3.5690973 -7.2317633 9.9
v 3.76735758 -9.58662072 7.425
v 3.76735758 -9.58662072 8.6625
v 3.76735758 -9.58662072 9.9
v 7.25787662 -6.88997143 9.9
v 3.37083701 -4.87690587 5.742
v 3.30739372 -4.1233515 5.742
v 3.24395043 -3.36979712 4.95
v 3.24395043 -3.36979712 5.148
v 3.24395043 -3.36979712 5.346
v 3.24395043 -3.36979712 5.544
v 3.24395043 -3.36979712 5.742
v 3.17257673 -2.52204845 4.95
v 3.13688988 -2.09817412 4.95
v 3.10120303 -1.67429978 4.95
v 3.10120303 -1.67429978 5.148
v 3.10120303 -1.67429978 5.346
v 3.10120303 -1.67429978 5.544
v 3.10120303 -1.67429978 5.742
v 3.06948138 -1.29752259 5.742
v 3.03775973 -0.9207454 5.742
v 3.00603809 -0.54396822 5.742
v 5.16623257 -2.76450291 4.95
v 7.0200874 -4.53877664 5.742
v 6.86790231 -3.03401198 4.95
v 6.86790231 -3.03401198 5.148
v 6.82510025 -2.61079692 4.95
v 6.86790231 -3.03401198 5.346
v 6.86790231 -3.03401198 5.544
v 6.94399485 -3.78639431 5.742
v 6.86790231 -3.03401198 5.742
v 4.14338633 -2.43209598 4.95
v 6.78229819 -2.18758186 4.95
v 6.73949613 -1.7643668 4.95
v 6.69669407 -1.34115174 4.95
v 6.69669407 -1.34115174 5.148
v 6.69669407 -1.34115174 5.346
v 6.69669407 -1.34115174 5.544
v 6.69669407 -1.34115174 5.742
v 6.6586478 -0.96496057 5.742
v 6.62060152 -0.58876941 5.742
v 3.37083701 -4.87690587 9.9
v 3.17257673 -2.52204845 9.9
v 7.0200874 -4.53877664 9.9
v 7.49566583 -9.24116621 4.95
v 7.46764971 -8.96415042 4.95
v 7.49566583 -9.24116621 6.1875
v 10.27462892 -7.15847329 4.95
v 11.02911438 -7.23726162 4.95
v 10.93484902 -6.43932628 4.95
v 10.84058367 -5.64139094 4.95
v 10.84058367 -5.64139094 5.148
v 10.84058367 -5.64139094 5.346
v 10.84058367 -5.64139094 5.544
v 10.84058367 -5.64139094 5.742
v 11.21764509 -8.83313231 4.95
v 13.75197173 -10.37240986 4.95
v 13.75197173 -8.51212977 4.95
v 14.93224503 -8.36263416 4.95
v 11.21764509 -8.83313231 6.1875
v 14.93224503 -8.36263416 6.1875
v 13.75197173 -7.15847329 4.95
v 14.82458925 -7.56639487 4.95
v 14.82458925 -7.56639487 5.148
v 14.71693348 -6.77015558 4.95
v 14.71693348 -6.77015558 5.148
v 14.71693348 -6.77015558 5.346
v 14.6092777 -5.9739163 4.95
v 14.6092777 -5.9739163 5.148
v 14.6092777 -5.9739163 5.346
v 14.6092777 -5.9739163 5.544
v 14.82458925 -7.56639487 6.3855
v 14.71693348 -6.77015558 6.5835
v 14.6092777 -5.9739163 6.7815
v 14.50795462 -5.22451461 6.7815
v 7.49566583 -9.24116621 7.425
v 7.49566583 -9.24116621 8.6625
v 7.49566583 -9.24116621 9.9
v 10.94039404 -6.48626365 9.9
v 11.21764509 -8.83313231 7.425
v 11.21764509 -8.83313231 8.6625
v 14.93224503 -8.36263416 7.425
v 14.93224503 -8.36263416 8.6625
v 11.21764509 -8.83313231 9.9
v 14.93224503 -8.36263416 9.9
v 14.82458925 -7.56639487 7.623
v 14.71693348 -6.77015558 7.821
v 14.6156104 -6.0207539 7.821
v 14.51428731 -5.27135222 7.821
v 14.82458925 -7.56639487 8.8605
v 14.72326617 -6.81699319 8.8605
v 14.66627194 -6.39545474 8.8605
v 14.56494885 -5.64605306 8.8605
v 10.75186333 -4.89039297 5.742
v 10.663143 -4.139395 5.742
v 10.48570233 -2.63739906 4.95
v 10.48570233 -2.63739906 5.148
v 10.48570233 -2.63739906 5.346
v 10.48570233 -2.63739906 5.544
v 10.57442267 -3.38839703 5.742
v 10.48570233 -2.63739906 5.742
v 10.46144853 -2.43209598 4.95
v 10.43579715 -2.2149627 4.95
v 10.38589196 -1.79252635 4.95
v 10.33598677 -1.37008999 4.95
v 10.28608158 -0.94765363 4.95
v 10.28608158 -0.94765363 5.148
v 10.28608158 -0.94765363 5.346
v 10.28608158 -0.94765363 5.544
v 10.24172141 -0.57215465 5.742
v 10.28608158 -0.94765363 5.742
v 13.75197173 -4.13359181 4.95
v 14.50162193 -5.17767701 4.95
v 14.50162193 -5.17767701 5.148
v 14.50162193 -5.17767701 5.346
v 14.50162193 -5.17767701 5.544
v 14.50162193 -5.17767701 5.742
v 14.40029884 -4.42827533 5.742
v 14.29897576 -3.67887365 5.742
v 14.19765268 -2.92947196 5.742
v 14.40663154 -4.47511293 6.7815
v 14.30530845 -3.72571125 6.7815
v 14.24831422 -3.3041728 6.7815
v 14.19131999 -2.88263436 6.7815
v 12.10657762 -2.43209598 4.95
v 13.75197173 -2.43209598 4.95
v 13.98234113 -1.33699339 4.95
v 13.98234113 -1.33699339 5.148
v 13.98234113 -1.33699339 5.346
v 13.98234113 -1.33699339 5.544
v 14.0963296 -2.18007028 4.95
v 14.0963296 -2.18007028 5.148
v 14.0963296 -2.18007028 5.346
v 14.0963296 -2.18007028 5.544
v 14.03933536 -1.75853184 4.95
v 14.03933536 -1.75853184 5.148
v 14.03933536 -1.75853184 5.346
v 14.03933536 -1.75853184 5.544
v 13.98234113 -1.33699339 5.742
v 14.0963296 -2.18007028 5.742
v 14.03933536 -1.75853184 5.742
v 13.92534689 -0.91545494 4.95
v 13.92534689 -0.91545494 5.148
v 13.92534689 -0.91545494 5.346
v 13.92534689 -0.91545494 5.544
v 13.86835266 -0.4939165 4.95
v 13.86835266 -0.4939165 5.148
v 13.86835266 -0.4939165 5.346
v 13.86835266 -0.4939165 5.544
v 13.92534689 -0.91545494 5.742
v 13.86835266 -0.4939165 5.742
v 14.13432575 -2.46109591 6.7815
v 14.03300267 -1.71169423 6.7815
v 13.93167959 -0.96229255 6.7815
v 13.8303565 -0.21289087 6.7815
v 10.38589196 -1.79252635 9.9
v 14.45729308 -4.84981377 7.821
v 14.40029884 -4.42827533 7.821
v 14.29897576 -3.67887365 7.821
v 14.19765268 -2.92947196 7.821
v 14.29897576 -3.67887365 9.9
v 13.93167959 -0.96229255 8.8605
v 13.75197173 0.5927855 4.158
v 13.75197173 2.29428133 4.158
v 13.75197173 8.53309938 0
v 13.75197173 5.31916281 4.158
v 2.9425948 0.20958616 5.742
v 2.91087315 0.58636335 5.742
v 2.95232726 0.5927855 5.742
v 2.84742986 1.33991772 4.95
v 2.84742986 1.33991772 5.148
v 2.84742986 1.33991772 5.544
v 2.74036931 2.61154073 4.95
v 2.70468246 3.03541506 4.95
v 2.70468246 3.03541506 5.148
v 2.70468246 3.03541506 5.346
v 4.85521532 0.5927855 5.742
v 6.5809165 0.5927855 4.95
v 6.46841642 0.91599525 5.742
v 6.43037015 1.29218642 5.742
v 6.54450897 0.16361292 5.742
v 6.39232387 1.66837758 4.95
v 6.39232387 1.66837758 5.148
v 6.39232387 1.66837758 5.346
v 6.30671976 2.51480771 4.95
v 6.39232387 1.66837758 5.742
v 6.2639177 2.93802277 4.95
v 6.22111564 3.36123783 4.95
v 6.22111564 3.36123783 5.148
v 6.22111564 3.36123783 5.346
v 6.22111564 3.36123783 5.544
v 6.22111564 3.36123783 5.742
v 6.14502309 4.11362016 5.742
v 6.06893054 4.86600249 5.742
v 2.77605616 2.18766639 9.9
v 6.54450897 0.16361292 9.9
v 6.06893054 4.86600249 9.9
v 2.45090929 6.04963257 4.95
v 2.45090929 6.04963257 5.148
v 2.1812753 9.25223866 4.95
v 2.1812753 9.25223866 6.1875
v 5.91674544 6.37076715 4.95
v 5.91674544 6.37076715 5.148
v 5.91674544 6.37076715 5.346
v 5.91674544 6.37076715 5.544
v 5.99283799 5.61838482 5.742
v 5.91674544 6.37076715 5.742
v 5.59335211 9.56839206 4.95
v 5.67420044 8.76898583 4.95
v 5.59335211 9.56839206 6.1875
v 2.37953559 6.89738124 9.9
v 2.1812753 9.25223866 8.6625
v 5.59335211 9.56839206 7.425
v 5.59335211 9.56839206 9.9
v 10.15300108 0.17884332 5.742
v 10.06428075 0.92984129 5.742
v 9.93120025 2.05633825 4.95
v 9.93120025 2.05633825 5.148
v 9.88129506 2.4787746 4.95
v 9.93120025 2.05633825 5.346
v 9.93120025 2.05633825 5.544
v 9.97556041 1.68083926 5.742
v 9.83138987 2.90121096 4.95
v 9.78148468 3.32364732 4.95
v 9.73157949 3.74608368 4.95
v 9.73157949 3.74608368 5.148
v 9.73157949 3.74608368 5.346
v 9.73157949 3.74608368 5.544
v 11.80976953 2.29428133 4.95
v 13.75197173 0.5927855 4.95
v 13.76702958 0.25548518 5.742
v 13.72142479 0.5927855 5.742
v 13.75197173 0.5927855 5.742
v 13.6657065 1.00488686 5.742
v 13.46306033 2.50369023 4.95
v 13.46306033 2.50369023 5.148
v 13.75197173 2.29428133 4.95
v 13.46306033 2.50369023 5.346
v 13.46306033 2.50369023 5.544
v 13.56438341 1.75428855 5.742
v 13.46306033 2.50369023 5.742
v 13.4060661 2.92522867 4.95
v 13.4060661 2.92522867 5.148
v 13.4060661 2.92522867 5.346
v 13.4060661 2.92522867 5.544
v 13.34907186 3.34676712 4.95
v 13.34907186 3.34676712 5.148
v 13.29207763 3.76830557 4.95
v 13.29207763 3.76830557 5.148
v 13.34907186 3.34676712 5.346
v 13.34907186 3.34676712 5.544
v 13.29207763 3.76830557 5.346
v 13.29207763 3.76830557 5.544
v 13.4060661 2.92522867 5.742
v 13.34907186 3.34676712 5.742
v 13.29207763 3.76830557 5.742
v 13.23508339 4.18984401 4.95
v 13.23508339 4.18984401 5.148
v 13.23508339 4.18984401 5.346
v 13.23508339 4.18984401 5.544
v 13.23508339 4.18984401 5.742
v 13.13376031 4.93924569 5.742
v 13.19708724 4.47086964 6.7815
v 13.140093 4.89240809 6.7815
v 9.83138987 2.90121096 9.9
v 13.56438341 1.75428855 7.821
v 13.6657065 1.00488686 9.9
v 13.29841032 3.72146796 8.8605
v 9.37669816 6.75007555 4.95
v 9.09390209 9.14388158 4.95
v 8.99963674 9.94181692 4.95
v 8.99963674 9.94181692 6.1875
v 13.03243723 5.68864737 5.742
v 12.93111415 6.43804906 5.742
v 12.82979106 7.18745074 4.95
v 12.82979106 7.18745074 5.148
v 12.82979106 7.18745074 5.346
v 12.82979106 7.18745074 5.544
v 12.82979106 7.18745074 5.742
v 13.75197173 5.31916281 4.95
v 13.02610454 5.73548498 6.7815
v 12.92478145 6.48488666 6.7815
v 12.82345837 7.23428834 6.7815
v 13.08309877 5.31394653 6.7815
v 12.72213529 7.98369002 5.148
v 12.72213529 7.98369002 5.346
v 12.72213529 7.98369002 5.544
v 12.64785223 8.53309938 4.95
v 12.61447951 8.77992931 4.95
v 12.61447951 8.77992931 5.148
v 12.61447951 8.77992931 5.346
v 12.50682374 9.5761686 4.95
v 12.50682374 9.5761686 5.148
v 12.39916796 10.37240789 4.95
v 13.75197173 8.53309938 4.95
v 12.72213529 7.98369002 6.7815
v 12.61447951 8.77992931 6.5835
v 12.50682374 9.5761686 6.3855
v 12.39916796 10.37240789 6.1875
v 9.27688778 7.59494827 9.9
v 8.99963674 9.94181692 7.425
v 8.99963674 9.94181692 8.6625
v 12.93111415 6.43804906 7.821
v 12.87411991 6.8595875 7.821
v 12.81712568 7.28112595 7.821
v 13.03243723 5.68864737 9.9
v 12.7158026 8.03052763 7.821
v 12.61447951 8.77992931 7.821
v 12.50682374 9.5761686 7.623
v 12.39916796 10.37240789 7.425
v 12.39916796 10.37240789 8.6625
v 12.66514105 8.40522847 8.8605
v 12.60814682 8.82676692 8.8605
v 12.50682374 9.5761686 8.8605
v 12.39916796 10.37240789 9.9
f 1 5 2
f 1 2 3
f 1 3 4
f 1 124 126
f 1 4 124
f 3 7 4
f 1 278 30
f 1 126 278
f 1 6 5
f 5 6 7
f 6 8 7
f 1 30 6
f 6 49 24
f 4 7 8
f 8 24 9
f 6 24 8
f 6 30 49
f 49 122 24
f 124 128 144
f 124 144 125
f 124 125 126
f 125 127 126
f 126 127 206
f 127 190 206
f 126 206 272
f 126 272 472
f 278 364 30
f 278 279 364
f 279 365 364
f 278 280 279
f 278 281 280
f 279 369 365
f 278 472 281
f 280 281 419
f 281 433 419
f 126 472 278
f 281 472 470
f 470 471 537
f 471 544 537
f 470 472 471
f 472 272 595
f 471 472 473
f 472 587 473
f 472 602 587
f 472 595 602
f 10 9 13
f 10 13 11
f 11 14 135
f 11 13 14
f 13 20 14
f 14 21 156
f 9 24 13
f 14 20 21
f 13 24 20
f 20 23 21
f 20 24 23
f 23 24 181
f 26 181 24
f 26 29 182
f 129 132 128
f 129 133 132
f 129 130 133
f 130 134 133
f 130 131 134
f 132 133 140
f 133 134 141
f 135 156 136
f 131 136 137
f 131 137 134
f 134 137 148
f 144 128 132
f 144 132 138
f 132 140 138
f 144 138 139
f 138 142 139
f 133 141 140
f 138 140 142
f 140 141 143
f 140 143 142
f 144 139 145
f 139 146 145
f 139 142 146
f 142 147 146
f 142 143 147
f 134 148 141
f 141 148 149
f 141 149 143
f 136 157 137
f 137 161 148
f 143 149 150
f 143 150 147
f 148 162 149
f 135 14 156
f 156 157 136
f 137 157 161
f 156 179 157
f 149 163 150
f 150 163 158
f 158 164 159
f 159 199 160
f 148 161 162
f 149 162 163
f 158 163 164
f 157 183 161
f 161 184 162
f 159 164 199
f 162 217 163
f 163 217 164
f 156 21 179
f 21 23 180
f 21 180 179
f 23 181 180
f 180 181 185
f 181 182 185
f 26 182 181
f 157 179 183
f 179 180 186
f 179 186 183
f 161 183 184
f 162 184 217
f 183 186 225
f 180 185 186
f 186 185 224
f 185 187 224
f 182 187 185
f 182 188 187
f 29 188 182
f 187 189 228
f 187 188 189
f 191 200 190
f 191 192 201
f 192 193 202
f 160 203 194
f 193 194 203
f 191 201 200
f 192 202 201
f 206 190 200
f 206 200 204
f 206 204 205
f 160 199 203
f 193 203 202
f 200 201 219
f 164 218 199
f 201 202 220
f 202 203 221
f 199 221 203
f 200 219 204
f 204 222 205
f 201 220 219
f 202 221 220
f 204 219 222
f 206 208 207
f 206 205 208
f 207 208 209
f 205 229 208
f 208 229 209
f 205 222 229
f 209 229 231
f 207 209 215
f 215 209 216
f 209 231 216
f 231 234 216
f 164 217 218
f 199 218 221
f 183 225 184
f 184 226 217
f 217 226 218
f 184 225 226
f 219 220 223
f 219 223 222
f 218 227 221
f 218 226 227
f 220 221 227
f 220 227 223
f 186 224 225
f 225 233 226
f 226 233 227
f 225 224 233
f 224 228 233
f 187 228 224
f 222 230 229
f 229 230 231
f 222 223 230
f 231 230 232
f 223 227 233
f 223 233 230
f 230 233 232
f 228 235 233
f 232 233 235
f 189 274 228
f 228 274 235
f 231 232 234
f 234 232 275
f 232 235 275
f 29 104 188
f 188 258 189
f 104 258 188
f 189 258 259
f 189 259 274
f 104 123 258
f 123 502 258
f 258 502 259
f 215 216 263
f 216 264 263
f 216 234 264
f 234 276 264
f 263 264 273
f 273 264 508
f 264 276 508
f 234 275 276
f 235 274 277
f 235 277 275
f 259 518 274
f 274 518 277
f 276 275 519
f 275 277 519
f 284 282 292
f 284 292 295
f 284 295 305
f 305 295 309
f 295 292 352
f 295 352 354
f 295 354 309
f 309 354 383
f 305 309 306
f 309 310 306
f 306 310 307
f 52 307 311
f 310 311 307
f 52 311 308
f 52 308 111
f 111 308 349
f 309 383 310
f 383 384 310
f 310 384 311
f 308 311 385
f 311 384 385
f 308 385 312
f 308 312 349
f 349 312 351
f 111 349 112
f 112 349 350
f 112 350 123
f 123 350 502
f 349 351 350
f 350 351 503
f 350 503 502
f 354 352 363
f 354 363 367
f 354 367 383
f 383 367 387
f 367 363 365
f 366 367 365
f 366 370 371
f 366 371 368
f 366 368 367
f 371 379 368
f 367 368 387
f 368 379 389
f 368 389 387
f 379 393 389
f 370 373 371
f 370 372 373
f 371 373 374
f 372 376 373
f 373 377 374
f 371 374 379
f 374 378 380
f 374 380 379
f 372 375 376
f 373 376 377
f 374 377 378
f 375 421 376
f 375 420 421
f 376 421 422
f 376 422 377
f 377 423 378
f 377 422 423
f 378 423 424
f 378 424 381
f 424 425 381
f 379 380 393
f 380 381 394
f 380 394 393
f 378 381 380
f 381 425 382
f 381 382 394
f 382 428 395
f 383 387 384
f 387 388 384
f 384 388 385
f 312 385 391
f 388 391 385
f 312 386 351
f 312 391 386
f 387 389 388
f 389 393 390
f 389 390 388
f 393 397 390
f 388 390 391
f 386 391 392
f 390 397 392
f 390 392 391
f 393 394 397
f 394 395 397
f 395 398 397
f 382 395 394
f 428 396 395
f 395 396 398
f 464 399 398
f 464 398 396
f 464 465 399
f 399 466 400
f 397 398 392
f 392 398 399
f 392 399 400
f 386 392 468
f 392 400 468
f 382 425 426
f 426 427 428
f 427 447 429
f 382 426 428
f 428 429 396
f 429 430 396
f 427 429 428
f 448 430 429
f 430 431 464
f 431 459 465
f 459 460 465
f 438 442 439
f 439 443 440
f 440 444 441
f 442 443 439
f 434 443 442
f 434 435 443
f 435 444 443
f 443 444 440
f 444 445 441
f 435 436 444
f 436 445 444
f 436 437 445
f 441 445 447
f 447 448 429
f 446 430 448
f 445 448 447
f 437 448 445
f 437 446 448
f 446 457 431
f 434 449 435
f 435 449 450
f 435 450 436
f 449 453 450
f 450 454 451
f 436 451 437
f 436 450 451
f 437 451 452
f 451 455 452
f 453 454 450
f 454 455 451
f 455 456 452
f 437 452 446
f 452 457 446
f 452 456 457
f 457 458 459
f 458 538 459
f 456 458 457
f 460 538 539
f 460 539 541
f 459 538 460
f 446 431 430
f 457 459 431
f 461 462 467
f 460 461 466
f 460 541 461
f 351 386 463
f 351 463 503
f 430 464 396
f 431 465 464
f 399 465 466
f 400 466 467
f 460 466 465
f 400 467 469
f 386 468 463
f 400 469 468
f 461 467 466
f 462 573 467
f 467 573 469
f 463 468 574
f 468 469 574
f 259 502 504
f 503 504 502
f 273 508 507
f 507 508 517
f 276 520 508
f 507 517 515
f 515 517 579
f 508 520 517
f 517 520 608
f 259 504 518
f 276 519 520
f 277 518 521
f 277 521 519
f 504 607 518
f 520 519 609
f 519 521 609
f 518 607 521
f 461 541 547
f 462 547 548
f 461 547 462
f 462 548 570
f 462 570 573
f 542 549 543
f 543 549 550
f 543 550 545
f 549 553 550
f 553 554 550
f 550 554 551
f 545 551 546
f 545 550 551
f 546 551 552
f 551 557 552
f 554 557 551
f 557 558 552
f 553 555 554
f 554 556 557
f 554 555 556
f 557 559 558
f 556 559 557
f 558 559 560
f 546 552 548
f 548 552 561
f 552 558 561
f 558 562 561
f 558 560 562
f 560 563 562
f 548 561 570
f 561 562 571
f 555 564 556
f 556 564 565
f 556 565 559
f 559 565 566
f 559 566 560
f 560 566 567
f 560 567 563
f 567 568 563
f 562 563 591
f 563 568 588
f 568 569 588
f 561 571 570
f 562 591 571
f 563 588 591
f 503 463 572
f 503 572 504
f 504 572 607
f 469 573 575
f 463 574 572
f 469 575 574
f 570 610 573
f 573 610 575
f 572 574 613
f 574 575 613
f 515 579 578
f 578 579 606
f 517 608 579
f 579 608 617
f 569 580 589
f 580 581 590
f 583 582 592
f 583 592 584
f 584 593 585
f 584 592 593
f 585 593 594
f 585 594 586
f 581 586 603
f 586 594 603
f 569 589 588
f 580 590 589
f 571 591 611
f 588 612 591
f 581 603 590
f 588 589 612
f 589 590 614
f 570 571 610
f 592 582 595
f 592 597 593
f 593 598 594
f 596 599 597
f 597 600 598
f 592 595 596
f 592 596 597
f 597 598 593
f 594 598 604
f 598 605 604
f 578 606 601
f 597 599 600
f 599 601 600
f 600 601 606
f 598 600 605
f 600 606 605
f 594 604 603
f 590 603 615
f 603 604 615
f 604 616 615
f 579 617 606
f 605 606 617
f 604 605 616
f 605 617 616
f 572 613 607
f 520 609 608
f 608 609 618
f 521 607 622
f 521 622 609
f 571 611 610
f 575 610 619
f 591 612 611
f 589 614 612
f 610 611 619
f 611 612 620
f 575 619 613
f 590 615 614
f 612 614 620
f 611 620 619
f 614 615 621
f 614 621 620
f 608 618 617
f 617 618 616
f 615 616 621
f 616 618 621
f 607 613 622
f 613 619 622
f 609 622 618
f 619 620 622
f 620 621 622
f 618 622 621
f 2 279 3
f 2 34 279
f 3 280 56
f 2 5 34
f 5 7 43
f 3 56 7
f 5 43 34
f 7 56 58
f 7 58 43
f 279 34 36
f 279 36 296
f 3 279 280
f 279 296 355
f 279 355 369
f 280 419 56
f 39 40 287
f 40 41 288
f 41 42 289
f 42 44 290
f 44 45 290
f 45 57 291
f 39 287 286
f 40 288 287
f 41 289 288
f 42 290 289
f 45 291 290
f 57 313 291
f 286 287 300
f 287 288 301
f 288 289 302
f 291 313 304
f 289 290 303
f 290 291 303
f 286 300 299
f 287 301 300
f 288 302 301
f 289 303 302
f 291 304 303
f 57 59 313
f 59 70 314
f 61 60 315
f 61 316 62
f 62 317 63
f 63 318 70
f 59 314 313
f 61 315 316
f 62 316 317
f 63 317 318
f 70 319 314
f 70 318 319
f 313 314 331
f 316 315 332
f 316 333 317
f 317 335 318
f 314 319 337
f 318 336 319
f 313 331 304
f 314 337 331
f 316 332 333
f 317 333 335
f 318 335 336
f 319 338 337
f 319 336 338
f 299 300 359
f 300 301 360
f 301 302 361
f 302 303 362
f 303 304 362
f 299 359 358
f 300 360 359
f 301 361 360
f 302 362 361
f 304 401 362
f 358 359 421
f 359 360 422
f 360 361 423
f 361 362 424
f 362 401 424
f 358 421 420
f 359 422 421
f 360 423 422
f 361 424 423
f 304 331 401
f 331 337 402
f 333 332 403
f 333 404 335
f 335 405 336
f 333 403 404
f 335 404 405
f 336 405 406
f 337 338 407
f 336 406 338
f 338 408 407
f 338 406 408
f 331 402 401
f 337 407 402
f 404 403 432
f 401 402 425
f 402 407 426
f 407 408 427
f 407 427 426
f 401 425 424
f 402 426 425
f 404 439 405
f 405 440 406
f 404 432 438
f 404 438 439
f 405 439 440
f 406 440 441
f 406 441 408
f 408 441 447
f 408 447 427
f 4 281 124
f 4 77 281
f 4 8 77
f 8 9 92
f 8 87 77
f 8 92 87
f 124 470 128
f 470 129 128
f 485 165 136
f 470 136 129
f 281 77 78
f 124 281 470
f 281 78 339
f 281 339 409
f 281 409 432
f 281 432 433
f 470 537 485
f 485 476 165
f 470 485 136
f 485 539 476
f 485 540 539
f 241 128 129
f 241 129 136
f 241 136 165
f 241 165 484
f 241 484 539
f 241 540 485
f 241 539 540
f 10 17 9
f 10 11 18
f 12 9 17
f 10 18 17
f 12 54 16
f 12 17 54
f 17 18 245
f 17 245 54
f 16 95 53
f 16 54 95
f 53 474 94
f 53 95 474
f 128 151 129
f 129 152 130
f 130 153 131
f 131 154 136
f 135 136 165
f 129 151 152
f 130 152 153
f 131 153 154
f 11 135 169
f 154 170 136
f 152 151 166
f 152 167 153
f 153 168 154
f 135 165 169
f 136 170 165
f 11 169 18
f 152 166 167
f 153 167 168
f 154 168 238
f 154 238 170
f 167 166 236
f 167 237 168
f 170 247 165
f 167 236 237
f 168 237 244
f 168 244 238
f 169 165 476
f 18 169 476
f 170 238 247
f 237 236 242
f 246 165 247
f 237 242 478
f 237 478 244
f 238 244 479
f 18 476 245
f 246 484 165
f 54 475 95
f 54 245 475
f 238 479 247
f 81 82 323
f 82 85 324
f 85 86 325
f 86 89 326
f 89 90 326
f 90 91 327
f 91 93 328
f 93 94 329
f 91 328 327
f 93 329 328
f 94 474 329
f 81 323 322
f 82 324 323
f 85 325 324
f 86 326 325
f 90 327 326
f 322 323 343
f 323 324 344
f 324 325 345
f 322 343 342
f 323 344 343
f 324 345 344
f 325 326 346
f 326 327 346
f 325 346 345
f 327 328 347
f 328 329 348
f 329 474 488
f 327 347 346
f 328 348 347
f 329 488 348
f 342 343 414
f 343 344 415
f 344 345 416
f 342 414 413
f 343 415 414
f 344 416 415
f 345 346 418
f 346 347 418
f 347 348 417
f 348 488 522
f 345 418 416
f 347 417 418
f 348 522 417
f 413 414 454
f 414 415 455
f 415 416 456
f 413 454 453
f 414 455 454
f 415 456 455
f 416 418 458
f 417 458 418
f 417 522 538
f 416 458 456
f 417 538 458
f 478 242 243
f 478 243 477
f 95 476 474
f 95 475 476
f 245 476 475
f 246 247 493
f 246 487 484
f 244 478 491
f 244 491 479
f 247 479 493
f 474 476 488
f 246 493 487
f 478 477 490
f 490 477 489
f 478 490 491
f 488 476 522
f 486 484 529
f 487 529 484
f 479 491 528
f 479 528 493
f 486 539 484
f 522 476 538
f 486 529 523
f 490 489 525
f 490 527 491
f 525 489 524
f 490 525 527
f 491 527 528
f 487 493 548
f 538 476 539
f 486 523 539
f 525 524 543
f 525 545 527
f 527 546 528
f 487 548 529
f 493 528 548
f 523 541 539
f 523 547 541
f 543 524 536
f 525 543 545
f 542 543 536
f 527 545 546
f 523 529 547
f 529 548 547
f 528 546 548
f 125 144 248
f 127 269 190
f 125 471 127
f 125 248 536
f 127 473 269
f 125 536 471
f 127 471 473
f 471 536 544
f 473 587 269
f 144 145 172
f 145 146 173
f 146 147 174
f 144 172 155
f 147 150 175
f 150 158 176
f 158 159 177
f 159 160 178
f 160 194 214
f 145 173 172
f 146 174 173
f 147 175 174
f 155 240 171
f 155 172 240
f 150 176 175
f 158 177 176
f 159 178 177
f 160 214 178
f 191 190 195
f 191 196 192
f 192 197 193
f 193 198 194
f 191 195 196
f 192 196 197
f 193 197 198
f 198 213 194
f 196 195 210
f 196 211 197
f 197 212 198
f 194 213 214
f 196 210 211
f 197 211 212
f 198 212 262
f 198 262 213
f 172 173 252
f 173 174 253
f 171 251 239
f 171 240 251
f 172 252 240
f 174 175 254
f 177 178 256
f 175 176 255
f 176 177 257
f 173 253 252
f 174 254 253
f 175 255 254
f 176 257 255
f 177 256 257
f 178 271 256
f 239 482 250
f 239 251 482
f 240 483 251
f 240 252 483
f 211 210 260
f 211 261 212
f 211 260 261
f 178 214 271
f 213 268 214
f 212 261 266
f 212 266 262
f 213 262 267
f 261 260 265
f 213 267 268
f 270 261 265
f 214 268 271
f 261 505 266
f 262 266 506
f 262 506 267
f 261 270 505
f 250 482 481
f 252 253 498
f 253 254 499
f 254 255 500
f 255 257 501
f 256 513 257
f 251 497 482
f 251 483 497
f 252 498 483
f 257 513 501
f 481 482 496
f 481 496 495
f 482 497 496
f 253 499 498
f 254 500 499
f 255 501 500
f 483 535 497
f 483 498 535
f 495 496 533
f 496 497 534
f 267 511 268
f 256 271 514
f 268 512 271
f 266 505 509
f 266 509 506
f 267 506 510
f 267 510 511
f 268 511 512
f 256 514 513
f 271 512 514
f 506 509 576
f 506 576 510
f 495 533 532
f 496 534 533
f 497 535 534
f 498 499 568
f 499 500 569
f 500 501 580
f 498 568 535
f 532 533 565
f 533 534 566
f 534 535 567
f 499 569 568
f 500 580 569
f 532 565 564
f 533 566 565
f 534 567 566
f 535 568 567
f 501 513 581
f 513 514 586
f 510 583 511
f 511 584 512
f 512 585 514
f 501 581 580
f 513 586 581
f 510 576 582
f 510 582 583
f 511 583 584
f 512 584 585
f 514 585 586
f 30 282 36
f 30 34 43
f 30 36 34
f 30 43 122
f 30 122 49
f 56 77 58
f 56 60 78
f 56 78 77
f 58 77 87
f 43 58 122
f 58 87 122
f 87 92 122
f 30 292 282
f 296 285 283
f 283 293 353
f 296 283 353
f 30 364 292
f 296 353 355
f 56 315 60
f 56 419 315
f 339 320 330
f 339 330 409
f 364 352 292
f 364 363 352
f 355 353 356
f 353 363 356
f 364 365 363
f 419 332 315
f 409 330 332
f 409 332 403
f 419 403 332
f 419 432 403
f 419 433 432
f 46 282 284
f 31 36 282
f 31 33 32
f 31 282 46
f 31 32 36
f 32 33 37
f 31 47 33
f 50 284 305
f 46 284 50
f 32 35 36
f 32 37 35
f 33 38 37
f 35 37 41
f 37 38 42
f 35 40 36
f 39 36 40
f 35 41 40
f 37 42 41
f 33 48 38
f 31 46 47
f 38 44 42
f 33 47 48
f 38 73 44
f 44 73 45
f 46 50 105
f 38 48 73
f 46 105 47
f 47 106 48
f 47 105 106
f 51 305 306
f 50 305 51
f 52 306 307
f 51 306 52
f 50 51 107
f 50 107 105
f 51 52 111
f 51 111 107
f 45 74 57
f 57 75 59
f 61 62 64
f 62 63 66
f 62 66 64
f 63 67 66
f 61 78 60
f 61 64 78
f 64 66 65
f 64 65 78
f 80 65 68
f 65 66 68
f 66 67 68
f 67 69 68
f 83 68 69
f 63 70 67
f 67 70 71
f 59 76 70
f 67 71 69
f 69 71 72
f 84 69 72
f 70 76 71
f 71 96 72
f 45 73 74
f 57 74 75
f 48 108 73
f 48 106 108
f 73 108 74
f 59 75 76
f 71 76 96
f 74 109 75
f 75 113 76
f 79 80 81
f 80 82 81
f 80 83 82
f 79 78 65
f 79 65 80
f 83 84 85
f 83 85 82
f 84 86 85
f 80 68 83
f 83 69 84
f 84 88 86
f 88 89 86
f 84 72 88
f 88 72 97
f 88 98 89
f 89 98 90
f 90 99 91
f 91 100 93
f 93 101 94
f 72 96 97
f 88 97 98
f 90 98 99
f 96 114 97
f 96 76 113
f 97 115 98
f 98 115 99
f 91 99 100
f 93 100 101
f 99 116 100
f 100 117 101
f 105 110 106
f 105 107 110
f 74 108 109
f 75 109 113
f 106 118 108
f 108 118 109
f 106 110 118
f 107 111 112
f 107 112 110
f 96 113 114
f 97 114 115
f 109 119 113
f 109 118 119
f 113 119 114
f 99 115 116
f 100 116 117
f 114 120 115
f 115 120 116
f 114 119 120
f 116 120 121
f 116 121 117
f 110 123 118
f 110 112 123
f 118 123 119
f 119 123 120
f 120 123 121
f 39 296 36
f 39 286 296
f 294 293 283
f 294 283 297
f 294 353 293
f 297 283 285
f 297 285 296
f 286 298 296
f 297 296 298
f 286 299 298
f 79 81 321
f 79 339 78
f 79 321 339
f 81 322 321
f 334 330 320
f 334 332 330
f 321 322 341
f 334 320 339
f 321 340 339
f 321 341 340
f 322 342 341
f 334 339 340
f 294 363 353
f 294 356 363
f 297 298 355
f 294 297 356
f 298 299 357
f 297 355 356
f 298 357 355
f 299 358 357
f 366 365 370
f 357 369 355
f 357 358 375
f 357 372 369
f 370 365 369
f 370 369 372
f 357 375 372
f 358 420 375
f 334 403 332
f 334 340 410
f 341 342 412
f 340 341 411
f 334 409 403
f 334 410 409
f 340 411 410
f 341 412 411
f 342 413 412
f 410 432 409
f 410 411 442
f 411 412 434
f 410 438 432
f 410 442 438
f 411 434 442
f 412 413 449
f 412 449 434
f 413 453 449
f 122 9 24
f 92 9 122
f 241 151 128
f 269 195 190
f 241 166 151
f 241 236 166
f 241 242 236
f 241 243 242
f 269 210 195
f 269 260 210
f 269 265 260
f 269 270 265
f 12 15 9
f 9 15 22
f 12 16 19
f 12 19 15
f 15 19 27
f 9 22 24
f 24 22 25
f 24 25 26
f 15 27 22
f 22 28 25
f 22 27 28
f 25 29 26
f 25 28 29
f 16 53 55
f 16 55 19
f 19 55 102
f 53 94 101
f 53 101 55
f 55 101 117
f 19 102 27
f 27 103 28
f 27 102 103
f 28 104 29
f 28 103 104
f 55 117 102
f 102 121 103
f 102 117 121
f 103 123 104
f 103 121 123
f 144 155 248
f 206 207 272
f 155 171 248
f 171 239 248
f 239 249 248
f 239 250 249
f 207 215 272
f 215 263 272
f 263 273 272
f 241 477 243
f 241 485 477
f 269 505 270
f 269 509 505
f 269 587 509
f 485 537 477
f 537 489 477
f 537 524 489
f 537 536 524
f 537 544 536
f 587 576 509
f 587 582 576
f 587 602 582
f 602 595 582
f 273 507 272
f 249 250 480
f 249 536 248
f 250 481 480
f 249 480 536
f 480 492 536
f 480 481 494
f 480 494 492
f 481 495 494
f 494 495 531
f 507 516 272
f 507 515 516
f 516 595 272
f 515 577 516
f 492 526 536
f 492 494 530
f 492 530 526
f 494 531 530
f 495 532 531
f 526 530 549
f 531 553 530
f 531 532 555
f 526 542 536
f 526 549 542
f 530 553 549
f 531 555 553
f 532 564 555
f 516 577 595
f 515 578 577
f 577 578 599
f 577 596 595
f 577 599 596
f 578 601 599
