# MAAS exact compiled indexed mesh
# program_hash f90459e3f794eedba66cd2ddacb57312c445be5ef4c91811ffd00ea204e418e4
# geometry_hash 036dde8ecc51c0bc24c1e29eedb71fd631e868b7853f0c849ef1251ce5176cdc
v -10.99545923 -7.11573485 0
v -10.99545923 -7.11573485 3.366
v -8.83620176 -7.11573485 3.366
v -8.83620176 -7.11573485 6.666
v -6.67694429 -7.11573485 6.666
v -6.67694429 -7.11573485 8.25
v -6.67694429 -7.11573485 16.5
v -10.99545923 7.11573485 0
v -10.99545923 7.11573485 3.366
v -8.83620176 7.11573485 3.366
v -8.83620176 7.11573485 6.666
v -6.67694429 7.11573485 6.666
v -6.67694429 0.35578674 8.25
v -6.67694429 0.35578674 16.5
v -6.67694429 7.11573485 8.25
v -3.98115452 0.35578674 8.25
v -3.98115452 0.35578674 16.5
v -3.98115452 7.11573485 8.25
v -3.98115452 7.11573485 16.5
v 10.59711549 -7.11573485 0
v 8.43785802 -7.11573485 3.366
v 10.59711549 -7.11573485 3.366
v 6.27860054 -7.11573485 6.666
v 8.43785802 -7.11573485 6.666
v 6.27860054 -7.11573485 8.25
v 8.29966554 -7.11573485 8.25
v 8.29966554 -7.11573485 16.5
v 6.27860054 -0.23868249 8.25
v 8.29966554 -0.35578674 8.25
v 10.99545531 -0.35578674 8.25
v 8.29966554 -0.35578674 16.5
v 10.99545531 -0.35578674 16.5
v 10.59711549 7.11573485 0
v 8.43785802 7.11573485 3.366
v 10.59711549 7.11573485 3.366
v 6.27860054 7.11573485 6.666
v 8.43785802 7.11573485 6.666
v 6.27860054 7.11573485 8.25
v 10.99545531 7.11573485 8.25
v 10.99545531 7.11573485 16.5
f 1 2 9
f 1 20 2
f 2 20 3
f 1 8 20
f 1 9 8
f 8 9 10
f 8 10 34
f 3 20 21
f 20 22 21
f 20 33 22
f 8 33 20
f 8 34 35
f 8 35 33
f 22 33 35
f 5 6 13
f 5 23 6
f 5 13 15
f 5 15 12
f 12 15 18
f 12 18 38
f 23 25 6
f 23 36 25
f 36 28 25
f 12 38 36
f 36 38 28
f 3 5 4
f 3 4 10
f 3 23 5
f 4 11 10
f 10 11 34
f 11 12 34
f 3 21 24
f 3 24 23
f 21 37 24
f 12 36 34
f 21 34 37
f 34 36 37
f 2 3 10
f 2 10 9
f 21 22 35
f 21 35 34
f 4 5 11
f 5 12 11
f 23 24 36
f 24 37 36
f 15 13 16
f 15 16 18
f 6 7 14
f 6 14 13
f 7 6 25
f 7 27 14
f 14 27 17
f 14 16 13
f 14 17 16
f 25 26 7
f 7 26 27
f 17 27 31
f 26 25 29
f 26 31 27
f 29 25 28
f 26 29 31
f 17 19 16
f 19 18 16
f 29 28 30
f 29 30 31
f 30 32 31
f 17 31 19
f 19 31 32
f 38 18 40
f 19 40 18
f 30 28 39
f 30 39 32
f 39 28 38
f 39 38 40
f 19 32 40
f 32 39 40
