# MAAS exact compiled indexed mesh
# program_hash fbaf2d43815eb8676ff630ac264940ecf28672b380a221e94d3251231062cac5
# geometry_hash 4d954a4b88548841e0823c6d8c46c1e0cbc36a59ca5ca6c31bd62f4dd1c3eb11
v -7.41448888 -8.60137668 3.3
v -8.49430711 -7.65606728 0
v -7.81951441 -5.56585154 3.3
v -6.21913305 -9.39556919 6.6
v -7.02206825 -6.44027671 6.6
v -8.49430711 -4.59364037 0
v -8.49430711 -1.53121346 0
v -8.22453993 -2.53032639 3.3
v -7.82500344 -3.48498423 6.6
v -8.62793864 -0.52969175 6.6
v -4.37896373 -8.19635115 3.3
v -5.4318802 -7.65606728 0
v -2.36945329 -7.65606728 0
v -1.34343859 -7.79132563 3.3
v -3.26384057 -8.592634 6.6
v -0.30854809 -7.7896988 6.6
v -5.4318802 -4.59364037 0
v -5.4318802 -1.53121346 0
v -2.36945329 -4.59364037 0
v -2.36945329 -1.53121346 0
v -6.11597891 -7.20155319 9.9
v -5.92859405 -5.92015834 16.5
v -7.30271707 -4.37841466 9.9
v -8.48945523 -1.55527614 9.9
v -9.69943059 -1.09370767 16.5
v -6.66685681 -5.19492108 13.2
v -7.81401232 -3.50693301 16.5
v -8.21654822 -2.55353601 13.2
v -4.92924075 -10.02469171 9.9
v -2.10610222 -8.83795355 9.9
v -0.83823984 -9.71568883 8.25
v -0.83823984 -8.15867699 8.25
v -0.83823984 -8.30499328 9.9
v -3.56747397 -10.47769122 13.2
v -4.04317578 -8.33338368 16.5
v -5.11716539 -7.83630615 13.2
v -0.83823984 -8.85973701 13.02356675
v -0.9260889 -8.9279998 13.2
v -0.83823984 -8.87645906 13.2
v -0.83823984 -8.92303253 13.4453559
v -2.15775751 -10.74660902 16.5
v -0.83823984 -9.71568883 16.5
v -1.62995044 -6.44796541 16.5
v -0.83823984 -6.54517525 16.5
v -3.51536871 -4.03474007 16.5
v -5.40078698 -1.62151474 16.5
v -1.10214337 -2.1493218 16.5
v -9.03459099 3.5407239 3.3
v -8.49430711 1.53121346 0
v -8.62956546 0.50519875 3.3
v -8.49430711 4.59364037 0
v -9.43087384 2.42560073 6.6
v -9.43961652 6.57624904 3.3
v -8.49430711 7.65606728 0
v -6.40409138 6.98127457 3.3
v -10.23380903 5.38089321 6.6
v -7.27851655 6.18382841 6.6
v -5.4318802 1.53121346 0
v -5.4318802 4.59364037 0
v -2.36945329 1.53121346 0
v -2.36945329 4.59364037 0
v -5.4318802 7.65606728 0
v -3.36856623 7.3863001 3.3
v -2.36945329 7.65606728 0
v -0.33304109 7.79132563 3.3
v -4.32322407 6.98676361 6.6
v -1.36793159 7.7896988 6.6
v -9.67619339 1.26786238 9.9
v -10.86293155 4.09100091 9.9
v -8.03979302 5.27773907 9.9
v -9.76623964 0.08784906 13.2
v -11.58484886 1.31951767 16.5
v -11.31593106 2.72923414 13.2
v -9.17162352 3.20493594 16.5
v -7.28620525 0.7917106 16.5
v -8.67454599 4.27892555 13.2
v -6.75839818 5.09035421 16.5
v -6.03316092 5.82861697 13.2
v -0.83823984 1.02701754 8.25
v -4.87297991 2.67712887 16.5
v -2.98756164 0.26390353 16.5
v -0.83823984 1.02701754 16.5
v -2.45975457 4.56254714 16.5
v -0.83823984 4.36345017 16.5
v -5.2166545 6.46447723 9.9
v -2.39351598 7.65121539 9.9
v -0.83823984 8.15867699 8.25
v -0.46915452 8.31382618 8.25
v -0.83823984 8.30499328 9.9
v -3.39177584 7.37830839 13.2
v -4.34517284 6.97577248 16.5
v -0.83823984 8.85973701 13.02356675
v -0.83823984 8.87645906 13.2
v -0.83823984 8.92303253 13.4453559
v -1.93194751 8.86119075 16.5
v -0.83823984 9.71568883 16.5
v 0.69297362 -7.65606728 0
v 1.69208656 -7.3863001 3.3
v 3.75540053 -7.65606728 0
v 4.7276117 -6.98127457 3.3
v 2.64674439 -6.98676361 6.6
v 5.60203688 -6.18382841 6.6
v 0.69297362 -4.59364037 0
v 0.69297362 -1.53121346 0
v 3.75540053 -4.59364037 0
v 3.75540053 -1.53121346 0
v 6.81782744 -7.65606728 0
v 7.76313684 -6.57624904 3.3
v 8.55732936 -5.38089321 6.6
v 6.81782744 -4.59364037 0
v 7.35811132 -3.5407239 3.3
v 6.81782744 -1.53121346 0
v 6.95308579 -0.50519875 3.3
v 7.75439416 -2.42560073 6.6
v 0.20424411 -7.7204571 8.25
v 1.68189035 -7.3189895 8.25
v 3.09345961 -6.72562042 8.25
v 4.57110585 -6.32415282 8.25
v 5.98267511 -5.73078374 8.25
v 9.90836918 -9.71568883 8.25
v 9.90836918 -9.71568883 16.5
v 7.46032135 -5.32931614 8.25
v 8.47042302 -3.25830082 8.25
v 7.87705394 -1.84673156 8.25
v 7.47558634 -0.36908532 8.25
v 8.87189061 -4.73594706 8.25
v 0.69297362 1.53121346 0
v 0.69297362 4.59364037 0
v 3.75540053 1.53121346 0
v 3.75540053 4.59364037 0
v 0.69297362 7.65606728 0
v 2.70248406 8.19635115 3.3
v 3.75540053 7.65606728 0
v 5.7380092 8.60137668 3.3
v 1.58736089 8.592634 6.6
v 5.34558857 6.44027671 6.6
v 4.54265338 9.39556919 6.6
v 6.81782744 1.53121346 0
v 6.54806026 2.53032639 3.3
v 6.81782744 4.59364037 0
v 6.95145896 0.52969175 6.6
v 6.14852377 3.48498423 6.6
v 6.81782744 7.65606728 0
v 6.14303473 5.56585154 3.3
v 0.83823117 1.02701754 8.25
v 0.83823117 1.02701754 16.5
v 0.83823117 8.66903501 8.25
v 1.00849172 8.71529377 8.25
v 0.83823117 10.74660902 8.25
v 2.42006098 9.30866285 8.25
v 5.48591298 5.40934569 8.25
v 4.8925439 6.82091495 8.25
v 3.89770722 9.71013045 8.25
v 4.4910763 8.29856119 8.25
v 0.83823117 10.74660902 16.5
v 7.18989499 0.31054753 8.25
v 6.88221726 1.04248394 8.25
v 6.48074966 2.52013019 8.25
v 5.88738058 3.93169945 8.25
v 9.90836918 0.00390265 8.25
v 11.58484019 0.00390265 8.25
v 9.90836918 0.00390265 16.5
v 11.58484019 0.00390265 16.5
v 11.58484019 10.74660902 8.25
v 11.58484019 10.74660902 16.5
f 2 6 12
f 2 3 6
f 1 2 12
f 6 17 12
f 1 3 2
f 1 11 4
f 1 4 5
f 1 5 3
f 5 4 21
f 6 7 17
f 6 8 7
f 6 3 8
f 7 49 18
f 7 18 17
f 7 8 50
f 5 9 3
f 3 9 8
f 5 23 9
f 8 9 10
f 8 10 50
f 9 24 10
f 1 12 11
f 12 17 13
f 11 12 13
f 13 17 19
f 13 97 14
f 13 19 97
f 19 103 97
f 11 13 14
f 11 15 4
f 11 14 15
f 4 15 29
f 15 16 30
f 14 16 15
f 16 115 32
f 17 18 19
f 18 58 20
f 18 20 19
f 19 20 103
f 20 104 103
f 20 60 104
f 5 21 23
f 26 21 36
f 23 21 26
f 26 36 22
f 10 24 68
f 24 71 68
f 24 28 71
f 9 23 24
f 23 26 28
f 23 28 24
f 25 71 28
f 26 27 28
f 26 22 27
f 25 28 27
f 25 27 46
f 25 46 75
f 4 29 21
f 15 30 29
f 29 34 36
f 29 36 21
f 29 30 34
f 30 16 32
f 30 32 33
f 30 38 34
f 30 33 37
f 30 37 38
f 35 36 34
f 35 34 41
f 35 22 36
f 35 43 22
f 22 43 45
f 34 38 41
f 41 38 40
f 38 37 39
f 38 39 40
f 35 41 42
f 35 42 44
f 41 40 42
f 35 44 43
f 43 44 45
f 27 22 45
f 27 45 46
f 46 81 75
f 46 45 47
f 46 47 81
f 45 44 47
f 47 44 82
f 48 49 50
f 48 53 51
f 7 50 49
f 49 51 58
f 18 49 58
f 48 51 49
f 51 59 58
f 10 52 50
f 48 50 52
f 10 68 52
f 48 52 56
f 48 56 53
f 52 69 56
f 51 53 54
f 51 54 59
f 54 62 59
f 55 62 54
f 53 55 54
f 53 56 57
f 53 57 55
f 55 57 66
f 56 70 57
f 58 59 60
f 20 58 60
f 59 61 60
f 60 127 104
f 60 61 127
f 61 128 127
f 59 62 61
f 61 62 64
f 62 63 64
f 55 63 62
f 61 64 128
f 64 131 128
f 64 65 131
f 64 63 65
f 55 66 63
f 63 66 67
f 57 85 66
f 63 67 65
f 67 135 65
f 66 86 67
f 67 88 135
f 67 87 88
f 52 68 69
f 68 71 73
f 56 69 70
f 68 73 69
f 69 73 76
f 69 76 70
f 76 78 70
f 71 72 73
f 25 72 71
f 72 74 73
f 25 75 72
f 72 75 74
f 73 74 76
f 74 75 80
f 76 77 78
f 74 77 76
f 74 80 77
f 57 70 85
f 70 78 85
f 75 81 80
f 80 81 84
f 77 80 83
f 81 47 84
f 47 82 84
f 80 84 83
f 66 85 86
f 85 78 90
f 85 90 86
f 67 86 87
f 86 89 87
f 86 90 92
f 86 92 89
f 78 91 90
f 77 91 78
f 77 83 91
f 91 95 90
f 83 95 91
f 83 96 95
f 83 84 96
f 90 93 92
f 90 94 93
f 90 95 94
f 95 96 94
f 97 99 98
f 97 103 99
f 99 103 105
f 14 97 98
f 99 107 100
f 99 105 107
f 99 100 98
f 14 98 16
f 98 101 16
f 16 101 115
f 101 116 115
f 101 117 116
f 98 100 101
f 101 100 102
f 101 102 118
f 101 118 117
f 102 119 118
f 103 104 105
f 104 106 105
f 104 127 106
f 105 106 110
f 106 129 112
f 105 110 107
f 107 110 108
f 100 107 108
f 100 108 102
f 108 109 102
f 102 109 122
f 102 122 119
f 110 112 111
f 108 110 111
f 106 112 110
f 112 138 113
f 111 112 113
f 108 111 109
f 111 114 109
f 109 114 126
f 109 126 122
f 114 123 126
f 114 113 141
f 111 113 114
f 114 125 124
f 114 124 123
f 114 141 125
f 106 127 129
f 127 128 129
f 128 130 129
f 129 130 138
f 142 136 151
f 128 131 130
f 130 131 133
f 131 132 133
f 131 65 132
f 130 133 140
f 133 134 143
f 133 132 134
f 65 135 132
f 135 88 147
f 135 147 148
f 135 150 137
f 135 148 150
f 144 134 136
f 136 152 151
f 136 137 154
f 136 154 152
f 132 137 134
f 132 135 137
f 134 137 136
f 137 153 154
f 137 150 153
f 112 129 138
f 139 113 138
f 130 140 138
f 139 138 140
f 139 140 144
f 139 141 113
f 139 142 141
f 141 156 125
f 141 157 156
f 142 157 141
f 142 158 157
f 139 144 142
f 142 144 136
f 142 159 158
f 142 151 159
f 133 143 140
f 140 143 144
f 144 143 134
f 87 79 145
f 84 82 79
f 84 79 96
f 87 89 79
f 89 92 79
f 92 93 79
f 93 94 79
f 87 147 88
f 94 96 79
f 87 145 147
f 31 33 32
f 31 32 115
f 31 37 33
f 31 42 37
f 37 42 39
f 40 39 42
f 79 82 145
f 31 120 42
f 31 115 120
f 120 115 116
f 120 116 117
f 121 44 42
f 121 82 44
f 120 117 118
f 120 118 119
f 120 119 122
f 120 122 126
f 120 121 42
f 120 162 121
f 160 124 125
f 160 125 156
f 120 126 160
f 120 160 162
f 160 126 123
f 160 123 124
f 121 162 82
f 146 145 82
f 146 82 162
f 146 155 145
f 146 162 155
f 155 147 145
f 149 148 147
f 149 150 148
f 149 153 150
f 149 147 155
f 149 164 153
f 149 155 165
f 161 156 157
f 161 157 158
f 161 158 159
f 161 159 151
f 160 156 161
f 160 161 162
f 161 164 163
f 155 162 163
f 161 163 162
f 164 151 152
f 164 152 154
f 164 154 153
f 149 165 164
f 161 151 164
f 155 163 165
f 163 164 165
