# MAAS exact compiled indexed mesh
# program_hash 5e0362ae2b248a58e81c38628da65e0360b9ab773eba54659580b1f6a2926e38
# geometry_hash 738391d2c0c4b4dd10742781f11641ecb7d2a2451d741405c13fc85f1d864d42
v -27.284622 -20.22164116 0
v -27.284622 -17.53418114 0
v -27.284622 -20.22164116 3.54982897
v -27.284622 -17.53418114 3.54982897
v -27.284622 -14.84672113 0
v -27.284622 -12.15926112 0
v -27.284622 -14.84672113 3.54982897
v -27.284622 -12.15926112 3.54982897
v -13.74020613 -18.67844989 0
v -14.34475309 -16.05986931 0
v -13.74020613 -18.67844989 3.54982897
v -14.94930005 -13.44128872 0
v -15.55384702 -10.82270813 0
v -27.284622 -20.22164116 7.09965794
v -27.284622 -17.53418114 7.09965794
v -27.284622 -14.84672113 7.09965794
v -27.284622 -12.15926112 7.09965794
v -13.74020613 -18.67844989 7.09965794
v -27.284622 -9.4718011 0
v -27.284622 -6.78434109 0
v -27.284622 -9.4718011 3.54982897
v -27.284622 -6.78434109 3.54982897
v -16.15839398 -8.20412755 0
v -16.76294094 -5.58554696 0
v -16.76294094 -5.58554696 3.54982897
v -27.284622 -9.4718011 7.09965794
v -27.284622 -6.78434109 7.09965794
v -16.76294094 -5.58554696 7.09965794
v -0.89007525 -14.12797989 0
v -2.06818018 -11.71250683 0
v -0.89007525 -14.12797989 3.54982897
v -5.17809609 -15.64644771 5.91638162
v -0.89007525 -14.12797989 5.91638162
v -4.42439003 -6.88156071 0
v -3.24628511 -9.29703377 0
v -5.60249496 -4.46608765 0
v -6.78059989 -2.0506146 0
v -6.78059989 -2.0506146 3.54982897
v -5.17809609 -1.02970708 5.91638162
v -6.78059989 -2.0506146 7.09965794
v -27.284622 -20.22164116 10.64948691
v -27.284622 -17.53418114 10.64948691
v -27.284622 -14.84672113 10.64948691
v -27.284622 -12.15926112 10.64948691
v -13.74020613 -18.67844989 10.64948691
v -27.284622 -20.22164116 14.19931589
v -27.284622 -17.53418114 14.19931589
v -27.284622 -20.22164116 17.74914486
v -27.284622 -17.53418114 17.74914486
v -27.284622 -14.84672113 14.19931589
v -27.284622 -12.15926112 14.19931589
v -27.284622 -14.84672113 17.74914486
v -27.284622 -12.15926112 17.74914486
v -13.74020613 -18.67844989 14.19931589
v -13.74020613 -18.67844989 17.74914486
v -14.34475309 -16.05986931 17.74914486
v -14.94930005 -13.44128872 17.74914486
v -15.55384702 -10.82270813 17.74914486
v -27.284622 -9.4718011 10.64948691
v -27.284622 -6.78434109 10.64948691
v -16.76294094 -5.58554696 10.64948691
v -27.284622 -9.4718011 14.19931589
v -27.284622 -6.78434109 14.19931589
v -27.284622 -9.4718011 17.74914486
v -27.284622 -6.78434109 17.74914486
v -16.76294094 -5.58554696 14.19931589
v -16.15839398 -8.20412755 17.74914486
v -16.76294094 -5.58554696 17.74914486
v -5.17809609 -15.64644771 17.74914486
v -6.78059989 -2.0506146 10.64948691
v -6.78059989 -2.0506146 14.19931589
v -5.60249496 -4.46608765 17.74914486
v -6.78059989 -2.0506146 17.74914486
v -5.17809609 -1.02970708 17.74914486
v 5.53325442 -0.53784157 0
v 10.60707458 -6.80348765 0
v 10.60707458 -6.80348765 3.54982897
v 7.22452781 -2.62639026 0
v 8.91580119 -4.71493896 0
v 8.69266527 -8.02310089 5.91638162
v 10.60707458 -6.80348765 7.09965794
v 10.60707458 -6.80348765 10.64948691
v 10.60707458 -6.80348765 14.19931589
v 8.69266527 -8.02310089 17.74914486
v 10.60707458 -6.80348765 17.74914486
v 8.91580119 -4.71493896 17.74914486
v 2.15070765 3.63925583 0
v 3.84198103 1.55070713 0
v 2.15070765 3.63925583 3.54982897
v 11.69091139 9.53783669 0
v 2.15070765 3.63925583 5.91638162
v 9.573164 11.19240228 0
v 9.573164 11.19240228 3.54982897
v 8.69266527 10.29640027 5.91638162
v 9.573164 11.19240228 7.09965794
v 18.04415356 4.5741399 0
v 20.16190095 2.9195743 0
v 20.16190095 2.9195743 3.54982897
v 15.92640617 6.22870549 0
v 13.80865878 7.88327109 0
v 20.16190095 2.9195743 7.09965794
v 15.10629502 20.22165147 0
v 17.54196095 19.08588179 0
v 19.97762689 17.95011211 0
v 15.10629502 20.22165147 3.54982897
v 17.54196095 19.08588179 3.54982897
v 19.97762689 17.95011211 3.54982897
v 27.2846247 14.54280307 0
v 27.2846247 14.54280307 3.54982897
v 22.41329283 16.81434243 0
v 24.84895877 15.67857275 0
v 22.41329283 16.81434243 3.54982897
v 24.84895877 15.67857275 3.54982897
v 15.10629502 20.22165147 7.09965794
v 17.54196095 19.08588179 7.09965794
v 19.97762689 17.95011211 7.09965794
v 27.2846247 14.54280307 7.09965794
v 22.41329283 16.81434243 7.09965794
v 24.84895877 15.67857275 7.09965794
v 11.69091139 9.53783669 17.74914486
v 9.573164 11.19240228 10.64948691
v 9.573164 11.19240228 14.19931589
v 8.69266527 10.29640027 17.74914486
v 9.573164 11.19240228 17.74914486
v 20.16190095 2.9195743 10.64948691
v 20.16190095 2.9195743 14.19931589
v 18.04415356 4.5741399 17.74914486
v 20.16190095 2.9195743 17.74914486
v 15.92640617 6.22870549 17.74914486
v 13.80865878 7.88327109 17.74914486
v 15.10629502 20.22165147 10.64948691
v 17.54196095 19.08588179 10.64948691
v 19.97762689 17.95011211 10.64948691
v 27.2846247 14.54280307 10.64948691
v 22.41329283 16.81434243 10.64948691
v 24.84895877 15.67857275 10.64948691
v 15.10629502 20.22165147 14.19931589
v 17.54196095 19.08588179 14.19931589
v 19.97762689 17.95011211 14.19931589
v 15.10629502 20.22165147 17.74914486
v 17.54196095 19.08588179 17.74914486
v 19.97762689 17.95011211 17.74914486
v 27.2846247 14.54280307 14.19931589
v 27.2846247 14.54280307 17.74914486
v 22.41329283 16.81434243 14.19931589
v 24.84895877 15.67857275 14.19931589
v 22.41329283 16.81434243 17.74914486
v 24.84895877 15.67857275 17.74914486
f 1 4 2
f 2 7 5
f 1 2 9
f 1 9 3
f 2 5 10
f 1 3 4
f 2 4 7
f 5 8 6
f 6 21 19
f 5 6 12
f 6 19 13
f 5 7 8
f 6 8 21
f 2 10 9
f 3 9 11
f 5 12 10
f 6 13 12
f 3 15 4
f 3 14 15
f 4 16 7
f 4 15 16
f 3 11 14
f 14 42 15
f 15 43 16
f 14 18 41
f 7 17 8
f 7 16 17
f 8 26 21
f 8 17 26
f 16 44 17
f 17 59 26
f 11 18 14
f 19 22 20
f 19 20 23
f 19 21 22
f 20 22 25
f 13 19 23
f 20 24 23
f 20 25 24
f 21 27 22
f 21 26 27
f 22 27 28
f 26 60 27
f 22 28 25
f 27 61 28
f 9 10 29
f 9 29 11
f 10 12 30
f 12 13 35
f 11 29 31
f 10 30 29
f 12 35 30
f 11 31 18
f 18 31 32
f 31 33 32
f 13 23 34
f 23 24 36
f 13 34 35
f 23 36 34
f 24 37 36
f 24 38 37
f 24 25 38
f 34 78 35
f 34 36 75
f 36 37 88
f 37 38 89
f 25 28 40
f 25 40 38
f 28 70 40
f 38 40 39
f 40 70 39
f 14 41 42
f 15 42 43
f 41 47 42
f 41 46 47
f 42 50 43
f 42 47 50
f 41 45 46
f 16 43 44
f 17 44 59
f 43 51 44
f 43 50 51
f 44 62 59
f 44 51 62
f 18 45 41
f 45 54 46
f 46 49 47
f 47 52 50
f 46 54 48
f 46 48 49
f 47 49 52
f 48 55 49
f 49 56 52
f 50 53 51
f 51 64 62
f 50 52 53
f 51 53 64
f 52 57 53
f 53 58 64
f 48 54 55
f 49 55 56
f 52 56 57
f 53 57 58
f 26 59 60
f 27 60 61
f 59 63 60
f 59 62 63
f 60 63 66
f 60 66 61
f 62 65 63
f 62 64 65
f 64 67 65
f 63 65 68
f 63 68 66
f 58 67 64
f 65 67 68
f 18 32 69
f 18 69 45
f 45 69 54
f 54 69 55
f 55 69 56
f 56 69 57
f 57 69 58
f 58 69 67
f 28 61 70
f 61 66 71
f 61 71 70
f 70 71 39
f 71 73 39
f 67 72 68
f 67 69 72
f 66 73 71
f 66 68 73
f 68 72 73
f 72 69 74
f 73 74 39
f 72 74 73
f 37 87 88
f 37 89 87
f 38 91 89
f 38 39 91
f 29 30 76
f 29 76 31
f 31 77 33
f 30 35 79
f 30 79 76
f 35 78 79
f 31 76 77
f 34 75 78
f 36 88 75
f 76 79 97
f 78 96 79
f 77 80 33
f 77 81 80
f 81 82 80
f 76 97 77
f 77 97 98
f 77 98 81
f 81 98 101
f 81 101 82
f 82 83 80
f 83 85 80
f 85 84 80
f 85 86 84
f 86 123 84
f 85 128 86
f 82 101 125
f 82 125 83
f 83 125 126
f 83 126 85
f 85 126 128
f 87 90 88
f 87 89 93
f 89 94 93
f 75 99 78
f 75 88 100
f 75 100 99
f 88 90 100
f 87 92 90
f 87 93 92
f 89 91 94
f 90 92 103
f 92 93 105
f 92 105 102
f 93 94 95
f 93 95 114
f 93 114 105
f 95 131 114
f 79 96 97
f 78 99 96
f 96 99 111
f 96 108 97
f 97 108 98
f 98 109 101
f 101 117 125
f 90 104 100
f 99 100 110
f 100 104 110
f 92 102 103
f 90 103 104
f 102 106 103
f 103 107 104
f 102 105 106
f 103 106 107
f 96 111 108
f 99 110 111
f 108 111 109
f 98 108 109
f 104 112 110
f 110 113 111
f 104 107 112
f 110 112 113
f 109 111 113
f 105 115 106
f 105 114 115
f 106 116 107
f 106 115 116
f 114 132 115
f 115 133 116
f 101 109 117
f 109 113 117
f 117 119 134
f 107 118 112
f 107 116 118
f 112 118 119
f 112 119 113
f 113 119 117
f 116 135 118
f 118 136 119
f 86 127 123
f 120 123 130
f 129 130 123
f 95 94 123
f 95 121 131
f 95 123 121
f 121 122 137
f 121 137 131
f 121 123 122
f 122 123 124
f 120 124 123
f 122 124 140
f 120 141 124
f 122 140 137
f 125 134 126
f 86 128 127
f 127 129 123
f 127 148 129
f 126 143 128
f 127 128 144
f 114 131 132
f 115 132 133
f 131 138 132
f 131 137 138
f 132 139 133
f 132 138 139
f 117 134 125
f 126 134 143
f 134 136 143
f 116 133 135
f 118 135 136
f 119 136 134
f 133 145 135
f 133 139 145
f 135 145 146
f 135 146 136
f 136 146 143
f 120 130 142
f 129 147 130
f 130 147 142
f 137 141 138
f 138 142 139
f 124 141 140
f 120 142 141
f 137 140 141
f 138 141 142
f 143 146 144
f 127 144 148
f 129 148 147
f 128 143 144
f 139 147 145
f 145 148 146
f 139 142 147
f 145 147 148
f 144 146 148
f 33 39 32
f 91 39 33
f 69 32 39
f 74 69 39
f 91 33 80
f 84 123 80
f 91 80 94
f 123 94 80
