# MAAS exact compiled indexed mesh
# program_hash a7f3d219f4ba171599d37a7df575c948593618e843c3aec5b884fa7f7d3cdaf1
# geometry_hash 58c53198a38042d7b9b6a32fd9a7e33a805943d6cc87d699d0239edae46e7276
v -14.92814224 -11.94251379 0
v -11.94251379 -11.94251379 0
v -11.94251379 -11.5210133 6.35294118
v -11.94251379 -2.6870656 0
v -11.94251379 -2.6870656 6.35294118
v -1.19425138 -11.94251379 0
v -1.19425138 -11.5210133 6.35294118
v -1.19425138 -2.6870656 0
v -1.19425138 -2.6870656 6.35294118
v -12.6889209 -11.3453881 9
v -10.44969957 -10.74826241 18
v -14.92814224 0 0
v -14.92814224 11.94251379 0
v -0.35827541 11.94251379 0
v -12.6889209 0 9
v -10.44969957 0 18
v -12.6889209 11.3453881 9
v -10.44969957 10.74826241 18
v 0 -11.94251379 0
v 14.92814224 -11.94251379 0
v 14.92814224 -3.34390386 0
v 0 -11.3453881 9
v 0 -10.74826241 18
v 12.6889209 -11.3453881 9
v 10.44969957 -10.74826241 18
v 0 0 0
v 0 0 18
v 0 11.3453881 9
v 0 10.74826241 18
v 0.83597597 10.74826241 18
v 10.44969957 0 18
v 10.44969957 1.13453881 18
f 1 2 3
f 1 4 2
f 1 3 10
f 1 10 15
f 10 3 7
f 1 12 4
f 1 15 12
f 12 26 4
f 19 7 6
f 19 6 8
f 10 7 22
f 19 22 7
f 26 8 4
f 19 8 26
f 10 22 11
f 10 11 16
f 10 16 15
f 11 23 16
f 11 22 23
f 16 23 27
f 12 13 26
f 12 15 17
f 12 17 13
f 13 17 28
f 13 14 26
f 13 28 14
f 15 16 18
f 15 18 17
f 17 18 29
f 16 27 18
f 17 29 28
f 18 27 29
f 19 20 22
f 19 26 20
f 20 24 22
f 20 26 21
f 20 21 32
f 22 24 23
f 23 25 27
f 25 31 27
f 20 32 24
f 23 24 25
f 24 31 25
f 24 32 31
f 14 21 26
f 27 31 29
f 29 31 32
f 14 28 30
f 28 29 30
f 29 32 30
f 2 4 3
f 5 7 3
f 5 3 4
f 5 4 9
f 9 6 7
f 9 4 8
f 9 8 6
f 5 9 7
f 14 32 21
f 14 30 32
