# MAAS exact compiled indexed mesh
# program_hash 60432ac4bb067cd606d5896178683a8f6a83b372ed241901132e47358e172dcc
# geometry_hash 8fb4294884a899839a7b86fc7ca6fd139b1083c7159a1957ba4acadf05683a34
v -19.17089521 -9.23043103 0
v -9.23043103 -9.23043103 0
v -19.17089521 -9.23043103 7.26835443
v -20.59096152 -7.45534814 6.64177215
v -19.17089521 -7.45534814 6.64177215
v -19.17089521 -7.45534814 7.26835443
v -20.59096152 -7.45534814 9.9
v -9.23043103 -9.23043103 7.26835443
v -9.23043103 -7.45534814 6.64177215
v -9.23043103 -7.45534814 7.26835443
v -19.17089521 9.23043103 0
v -9.23043103 9.23043103 0
v -20.59096152 7.45534814 6.64177215
v -19.17089521 7.45534814 6.64177215
v -19.17089521 7.45534814 7.26835443
v -19.17089521 9.23043103 7.26835443
v -20.59096152 7.45534814 9.9
v -9.23043103 7.45534814 6.64177215
v -9.23043103 7.45534814 7.26835443
v -9.23043103 9.23043103 7.26835443
v 9.23043103 -9.23043103 0
v 19.17089521 -9.23043103 0
v 9.23043103 -9.23043103 7.26835443
v 9.23043103 -7.45534814 6.64177215
v 9.23043103 -7.45534814 7.26835443
v 19.17089521 -9.23043103 7.26835443
v 19.17089521 -7.45534814 6.64177215
v 20.59096152 -7.45534814 6.64177215
v 19.17089521 -7.45534814 7.26835443
v 20.59096152 -7.45534814 9.9
v 9.23043103 9.23043103 0
v 19.17089521 9.23043103 0
v 9.23043103 7.45534814 6.64177215
v 9.23043103 7.45534814 7.26835443
v 9.23043103 9.23043103 7.26835443
v 19.17089521 7.45534814 6.64177215
v 20.59096152 7.45534814 6.64177215
v 19.17089521 7.45534814 7.26835443
v 19.17089521 9.23043103 7.26835443
v 20.59096152 7.45534814 9.9
f 1 2 3
f 1 3 5
f 2 8 3
f 1 11 2
f 1 5 14
f 2 12 8
f 8 12 9
f 3 6 5
f 3 8 6
f 8 10 6
f 8 9 10
f 1 16 11
f 2 11 12
f 1 14 16
f 11 20 12
f 11 16 20
f 12 18 9
f 12 20 18
f 16 14 15
f 16 15 19
f 16 19 20
f 20 19 18
f 21 23 24
f 21 24 33
f 21 22 23
f 22 26 23
f 21 31 22
f 22 32 26
f 26 32 27
f 23 25 24
f 23 26 25
f 26 29 25
f 26 27 29
f 21 35 31
f 21 33 35
f 22 31 32
f 32 36 27
f 31 39 32
f 31 35 39
f 32 39 36
f 35 33 34
f 35 34 38
f 35 38 39
f 39 38 36
f 4 5 6
f 4 6 7
f 7 6 10
f 4 14 5
f 4 7 17
f 10 9 24
f 7 10 25
f 7 30 17
f 4 13 14
f 4 17 13
f 13 15 14
f 13 17 15
f 17 19 15
f 9 18 33
f 19 34 18
f 17 40 19
f 10 24 25
f 7 25 30
f 9 33 24
f 28 29 27
f 30 25 29
f 28 30 29
f 28 27 37
f 28 37 30
f 17 30 40
f 34 33 18
f 40 34 19
f 37 27 36
f 30 37 40
f 37 36 38
f 40 38 34
f 37 38 40
