# MAAS exact compiled indexed mesh
# program_hash c317e8a03a3b94fb6d385f895d84051b9a03a1dce071d3c3ae9e928ce97b11c5
# geometry_hash 2fcffd0bf1db194fac10ba3fedc340c9aa6760939782dcfb81aafa9256a81421
v -9.40544358 -8.6159333 0
v -9.40544358 -8.6159333 16.5
v -3.2360907 -7.12265239 16.5
v -3.2360907 -3.78866712 10.89
v -9.40544358 8.6159333 0
v -9.40544358 8.6159333 16.5
v -3.2360907 2.68318665 16.5
v -0.25101445 0 14.17413208
v -0.25101445 2.68318665 16.5
v -0.25101445 8.6159333 8.25
v -0.25101445 8.6159333 16.5
v 8.90341469 -8.6159333 0
v 7.36107647 -7.12265239 16.5
v 8.90341469 -8.6159333 16.5
v 7.36107647 -3.78866712 10.89
v 8.90341469 8.6159333 0
v 8.90341469 0 8.25
v 8.90341469 1.33288488 9.526275
v 9.40544358 1.33288488 9.526275
v 7.36107647 0 14.17413208
v 7.36107647 0 16.5
v 8.90341469 0 16.5
v 8.90341469 1.33288488 15.223725
v 9.40544358 1.33288488 15.223725
v 7.36107647 2.68318665 16.5
v 8.90341469 7.28304842 9.526275
v 9.40544358 7.28304842 9.526275
v 8.90341469 8.6159333 8.25
v 8.90341469 7.28304842 15.223725
v 9.40544358 7.28304842 15.223725
v 8.90341469 8.6159333 16.5
f 1 12 2
f 1 5 12
f 2 3 7
f 1 2 6
f 2 14 3
f 1 6 5
f 5 10 16
f 2 7 6
f 5 6 10
f 6 11 10
f 6 7 11
f 7 9 11
f 2 12 14
f 3 14 13
f 12 17 14
f 13 14 21
f 14 17 22
f 14 22 21
f 5 16 12
f 12 16 17
f 16 10 28
f 16 28 17
f 31 10 11
f 31 11 9
f 18 23 17
f 18 17 28
f 23 22 17
f 22 25 21
f 22 23 29
f 22 31 25
f 31 28 10
f 18 28 26
f 26 28 31
f 25 31 9
f 22 29 31
f 26 31 29
f 19 27 24
f 23 24 29
f 26 30 27
f 24 27 30
f 24 30 29
f 26 29 30
f 3 4 7
f 4 8 7
f 7 8 9
f 3 15 4
f 3 13 15
f 4 15 8
f 15 20 8
f 13 20 15
f 13 21 20
f 8 20 9
f 25 9 20
f 21 25 20
f 18 19 23
f 18 27 19
f 19 24 23
f 18 26 27
