# MAAS exact compiled indexed mesh
# program_hash 8bd00731decbb69d75204336a889b71ea0e83bbdb74604e61c5dc54e18a16f42
# geometry_hash 26dcd6d7407519fb036203d824b051e4baa3458fbf69644d78aa1cb93f3058bd
v -13.93298013 -7.53296936 0
v -13.93298013 -7.53296936 9.9
v -13.93298013 0.37664847 0
v -10.17252183 0.37664847 0
v -10.17252183 7.53296936 0
v -13.93298013 0.37664847 9.9
v -10.17252183 0.37664847 9.9
v -10.17252183 7.53296936 9.9
v 10.17252183 -7.53296936 0
v 10.17252183 -0.37664847 0
v 13.93298013 -0.37664847 0
v 13.93298013 -0.37664847 3.47689598
v 4.73721324 -2.35751809 7.1385732
v 10.17252183 -7.53296936 9.9
v 10.17252183 -2.35751809 4.97427893
v 10.17252183 -0.37664847 4.97427893
v 10.17252183 -2.35751809 8.25351267
v 10.17252183 -0.37664847 8.25351267
v 10.17252183 -0.37664847 9.9
v 13.93298013 -0.37664847 9.02489177
v 13.93298013 -0.37664847 9.9
v 13.93298013 7.53296936 0
v 13.93298013 6.23910654 3.47689598
v 4.73721324 6.23910654 7.1385732
v 13.93298013 6.23910654 9.02489177
v 13.93298013 7.53296936 9.9
f 1 6 3
f 1 3 9
f 1 9 2
f 3 4 9
f 1 2 6
f 2 14 6
f 6 14 7
f 3 6 4
f 4 6 7
f 4 10 9
f 9 15 17
f 9 10 15
f 10 16 15
f 2 9 14
f 7 14 19
f 9 17 14
f 14 17 18
f 14 18 19
f 4 8 5
f 4 5 10
f 4 7 8
f 7 19 8
f 5 8 26
f 10 11 16
f 11 12 16
f 19 18 20
f 19 20 21
f 5 11 10
f 5 22 11
f 5 26 22
f 11 22 12
f 22 23 12
f 22 26 23
f 8 19 21
f 8 21 26
f 21 20 25
f 21 25 26
f 26 25 23
f 13 17 15
f 13 15 16
f 13 18 17
f 16 12 23
f 13 16 23
f 13 23 24
f 13 25 18
f 13 24 25
f 18 25 20
f 24 23 25
