# MAAS exact compiled indexed mesh
# program_hash faab7413c42845b8af69703729e8dc0a7ecbc6aeef8060f564df2de1eb24a237
# geometry_hash 2a7cd53a583a7c8afce765fd46c61a4ef933750b3556aa0b19e9cb824891a39b
v -12.90825125 -13.49498995 0
v -12.90825125 -13.49498995 3.68181818
v -14.66846733 -10.56129648 3.55909091
v -12.90825125 -10.56129648 3.55909091
v -12.90825125 -10.56129648 3.68181818
v -14.66846733 -1.76021608 3.55909091
v -12.90825125 -1.76021608 3.55909091
v -12.90825125 -1.76021608 3.68181818
v -7.04086432 -13.49498995 0
v -6.28378214 -8.49824753 0
v -6.3741158 -8.21434171 0
v -4.69390955 -8.21434171 0
v -7.04086432 -13.49498995 3.68181818
v -6.59636531 -10.56129648 3.68181818
v -4.69390955 -10.56129648 3.68181818
v -4.69390955 -8.21434171 3.55909091
v -4.69390955 -8.21434171 3.68181818
v -4.69390955 -1.76021608 3.55909091
v -4.69390955 -1.76021608 3.68181818
v -14.66846733 -10.56129648 7.24090909
v -14.08172864 -8.56638492 7.24090909
v -14.08172864 -8.56638492 10.8
v -14.66846733 -1.76021608 7.24090909
v -14.08172864 -2.1122593 7.24090909
v -14.08172864 -2.1122593 10.8
v -4.69390955 -10.56129648 7.24090909
v -6.45412563 -8.56638492 7.24090909
v -6.45412563 -8.56638492 10.8
v -6.45412563 -2.1122593 7.24090909
v -4.69390955 -1.76021608 7.24090909
v -6.45412563 -2.1122593 10.8
v -12.32151256 2.34695477 3.68181818
v -12.90825125 12.32151256 0
v -12.90825125 12.32151256 3.68181818
v -12.32151256 11.14803517 3.68181818
v -4.69390955 5.28064824 0
v -4.69390955 2.34695477 3.55909091
v -4.69390955 2.34695477 3.68181818
v -4.69390955 5.28064824 3.55909091
v -2.93369347 2.34695477 3.55909091
v -2.93369347 5.28064824 3.55909091
v -2.93369347 5.28064824 3.68181818
v -7.04086432 12.32151256 0
v -4.69390955 11.14803517 0
v -7.04086432 12.32151256 3.68181818
v -4.69390955 11.14803517 3.68181818
v -2.93369347 11.14803517 3.68181818
v -12.32151256 2.34695477 7.24090909
v -12.32151256 11.14803517 7.24090909
v -6.45412563 5.51534372 7.24090909
v -2.93369347 2.34695477 7.24090909
v -2.93369347 5.51534372 7.11818182
v -2.93369347 5.51534372 7.24090909
v -6.45412563 5.51534372 10.8
v -6.45412563 11.14803517 7.11818182
v -6.45412563 11.14803517 7.24090909
v -6.45412563 11.38273065 7.11818182
v -2.93369347 11.14803517 7.11818182
v -6.45412563 11.38273065 10.8
v 7.04086432 -13.49498995 0
v 7.04086432 -11.14803517 0
v 4.69390955 -8.21434171 0
v 3.52043216 -9.38781909 3.68181818
v 3.52043216 -8.21434171 3.55909091
v 3.52043216 -8.21434171 3.68181818
v 7.04086432 -13.49498995 3.68181818
v 7.04086432 -11.14803517 3.68181818
v 4.69390955 -8.21434171 3.55909091
v 5.63269146 -9.38781909 3.68181818
v 3.52043216 -1.76021608 3.55909091
v 4.69390955 -1.76021608 3.55909091
v 4.69390955 -1.76021608 3.68181818
v 12.90825125 -11.14803517 0
v 12.90825125 -11.14803517 3.68181818
v 12.90825125 -9.38781909 3.55909091
v 12.90825125 -9.38781909 3.68181818
v 14.66846733 -9.38781909 3.55909091
v 12.90825125 -1.76021608 3.55909091
v 12.90825125 -1.76021608 3.68181818
v 14.66846733 -1.76021608 3.55909091
v 3.52043216 -9.38781909 7.24090909
v 3.52043216 -1.76021608 7.24090909
v 14.66846733 -9.38781909 7.24090909
v 14.66846733 -1.76021608 7.24090909
v 4.69390955 5.28064824 0
v 4.10717085 4.10717085 3.55909091
v 4.69390955 4.10717085 3.55909091
v 4.69390955 4.10717085 3.68181818
v 4.10717085 5.28064824 3.55909091
v 4.10717085 5.28064824 3.68181818
v 4.69390955 5.28064824 3.55909091
v 4.69390955 12.32151256 0
v 4.69390955 13.49498995 0
v 4.10717085 12.32151256 3.55909091
v 4.10717085 12.32151256 3.68181818
v 4.10717085 13.49498995 3.55909091
v 4.69390955 12.32151256 3.55909091
v 4.69390955 13.49498995 3.55909091
v 4.69390955 13.49498995 3.68181818
v 12.90825125 4.10717085 3.55909091
v 12.90825125 4.10717085 3.68181818
v 13.49498995 4.10717085 3.55909091
v 12.90825125 13.49498995 0
v 12.90825125 13.49498995 3.55909091
v 12.90825125 13.49498995 3.68181818
v 13.49498995 13.49498995 3.55909091
v 4.10717085 4.10717085 7.24090909
v 4.10717085 5.51534372 7.11818182
v 4.10717085 5.51534372 7.24090909
v 6.45412563 4.69390955 7.24090909
v 5.86738693 5.51534372 7.24090909
v 6.45412563 4.69390955 10.8
v 5.86738693 5.51534372 10.8
v 4.10717085 11.38273065 7.11818182
v 4.10717085 11.38273065 7.24090909
v 4.10717085 13.49498995 7.24090909
v 5.86738693 11.38273065 7.24090909
v 6.45412563 12.32151256 7.24090909
v 5.86738693 11.38273065 10.8
v 6.45412563 12.32151256 10.8
v 13.49498995 4.10717085 7.24090909
v 12.90825125 4.69390955 7.24090909
v 12.90825125 4.69390955 10.8
v 12.90825125 12.32151256 7.24090909
v 13.49498995 13.49498995 7.24090909
v 12.90825125 12.32151256 10.8
f 1 2 4
f 1 4 7
f 1 10 9
f 1 9 13
f 1 13 2
f 1 11 10
f 2 5 4
f 2 13 5
f 5 13 14
f 1 7 34
f 1 33 11
f 8 19 32
f 11 36 12
f 12 18 16
f 12 36 37
f 12 37 18
f 18 37 19
f 1 34 33
f 11 33 36
f 7 8 34
f 8 32 34
f 33 43 36
f 33 34 43
f 34 45 43
f 32 35 34
f 34 35 45
f 35 46 45
f 36 39 37
f 19 38 32
f 19 37 38
f 36 43 44
f 62 68 71
f 62 71 85
f 61 62 73
f 61 73 74
f 61 74 67
f 67 74 69
f 69 74 76
f 74 75 76
f 62 85 73
f 73 103 74
f 74 103 75
f 71 87 85
f 85 87 91
f 71 72 87
f 72 88 87
f 92 98 93
f 92 97 98
f 73 85 92
f 73 92 93
f 73 93 103
f 75 103 78
f 78 103 100
f 72 79 88
f 79 101 88
f 78 101 79
f 78 100 101
f 93 104 103
f 93 98 105
f 93 105 104
f 100 103 104
f 98 99 105
f 36 85 39
f 39 85 41
f 41 90 42
f 36 44 92
f 43 92 44
f 43 45 94
f 42 95 47
f 45 46 95
f 46 47 95
f 41 85 89
f 85 91 89
f 41 89 90
f 36 92 85
f 43 97 92
f 43 94 97
f 42 90 95
f 45 95 94
f 10 11 12
f 9 10 60
f 9 60 13
f 10 12 62
f 12 16 64
f 13 66 14
f 14 66 15
f 15 65 17
f 16 17 65
f 10 61 60
f 13 60 66
f 10 62 61
f 12 68 62
f 12 64 68
f 60 61 66
f 61 67 66
f 15 67 63
f 15 66 67
f 15 63 65
f 16 65 64
f 63 67 69
f 3 4 5
f 3 5 20
f 5 14 20
f 3 7 4
f 3 6 7
f 3 23 6
f 6 8 7
f 6 30 8
f 8 30 19
f 14 15 26
f 15 17 26
f 17 18 26
f 16 18 17
f 18 19 26
f 3 20 23
f 20 21 23
f 20 26 21
f 14 26 20
f 21 26 27
f 21 24 23
f 6 23 30
f 23 24 29
f 23 29 30
f 26 30 27
f 19 30 26
f 27 30 29
f 32 48 35
f 32 38 48
f 35 49 46
f 37 40 38
f 38 40 48
f 37 39 41
f 37 41 40
f 40 42 51
f 40 41 42
f 42 47 52
f 46 58 47
f 48 50 56
f 35 48 49
f 48 56 49
f 46 49 55
f 49 56 55
f 40 51 48
f 48 51 50
f 50 51 53
f 42 52 51
f 51 52 53
f 46 55 58
f 47 58 52
f 63 81 65
f 63 69 81
f 64 65 70
f 65 82 70
f 64 71 68
f 64 70 71
f 70 72 71
f 69 76 81
f 76 77 81
f 75 77 76
f 75 80 77
f 77 80 83
f 70 84 72
f 72 84 79
f 75 78 80
f 78 79 80
f 79 84 80
f 81 83 82
f 65 81 82
f 70 82 84
f 77 83 81
f 82 83 84
f 80 84 83
f 86 90 89
f 86 89 87
f 87 89 91
f 86 87 107
f 87 88 107
f 88 101 107
f 86 116 90
f 94 95 96
f 94 96 97
f 96 98 97
f 96 99 98
f 90 116 95
f 95 116 96
f 101 102 107
f 100 102 101
f 96 125 99
f 99 125 105
f 100 106 102
f 102 106 121
f 100 104 106
f 104 105 106
f 105 125 106
f 86 107 108
f 107 109 108
f 107 110 109
f 109 110 111
f 86 108 114
f 86 114 116
f 111 110 118
f 111 118 117
f 96 116 125
f 114 115 116
f 115 117 116
f 116 117 118
f 102 121 107
f 107 121 110
f 121 122 110
f 116 118 125
f 125 118 124
f 121 124 122
f 121 125 124
f 106 125 121
f 21 28 22
f 21 27 28
f 21 22 24
f 22 25 24
f 22 28 25
f 24 25 29
f 25 28 31
f 25 31 29
f 27 29 31
f 27 31 28
f 52 108 53
f 50 53 54
f 53 109 54
f 55 56 57
f 55 57 58
f 52 58 114
f 57 114 58
f 50 54 56
f 54 59 56
f 56 59 57
f 54 113 59
f 57 59 119
f 53 108 109
f 54 109 113
f 109 111 113
f 52 114 108
f 57 115 114
f 59 113 119
f 57 119 115
f 111 117 119
f 111 119 113
f 115 119 117
f 120 118 110
f 112 120 110
f 123 110 122
f 112 110 123
f 112 123 120
f 120 123 126
f 120 124 118
f 120 126 124
f 126 122 124
f 123 122 126
