# MAAS exact compiled indexed mesh
# program_hash ff1791ed693f7499ed6eed4f1cfe84736fb7521cac0dc8b927ebac1898c75149
# geometry_hash 7ca0a219a836dde25fc3daa3631f0efd358aae43cc8338c009b0d53be5be7a1b
v -19.05193436 -4.71930352 0
v -1.43882356 -4.71930352 0.396
v -19.05193436 -4.71930352 9.9
v -0.07574144 -6.03561662 4.95
v -0.07574144 -6.03561662 9.504
v -1.43882356 -4.71930352 9.504
v -0.07574144 -4.71930352 9.504
v -0.07574144 -4.71930352 9.9
v -19.05193436 4.67222469 0
v -1.43882356 4.67222469 0.396
v -19.05193436 4.67222469 9.9
v -0.07574144 3.54701455 4.95
v -0.07574144 5.98853779 4.95
v -1.43882356 4.67222469 9.504
v -0.07574144 3.54701455 9.9
v -0.07574144 4.67222469 9.504
v -0.07574144 4.67222469 9.9
v -0.07574144 5.98853779 8.70059254
v -0.07574144 5.98853779 9.504
v 0.24614135 -4.71930352 0
v 0.24614135 -4.71930352 0.396
v 0.24614135 -0.57357997 0.396
v 2.83896504 -0.97552755 0.396
v 3.82477761 -0.02353941 0.396
v 14.01404761 -19.64196775 0.396
v 18.90045147 -14.58194843 0.396
v 3.82477761 -0.02353941 4.95
v 3.82477761 -0.02353941 5.148
v 4.64780996 -0.81833251 5.148
v 6.98783174 -0.05801335 5.148
v 0.24614135 -4.71930352 9.504
v 0.24614135 -4.71930352 9.9
v 4.12723939 -0.98747614 9.504
v 4.12118363 -0.30977537 9.33768
v 3.80912649 -0.0084253 9.504
v 4.12118363 -0.30977537 9.504
v 4.64780996 -0.81833251 9.33768
v 4.32093316 -0.92454122 9.504
v 4.12723939 -0.98747614 9.702
v 4.32093316 -0.92454122 9.702
v 5.3842593 -0.57904561 9.33768
v 5.8416127 -0.29584044 9.33768
v 5.96094108 -0.39167035 9.33768
v 6.98783174 -0.05801335 9.33768
v 14.01404761 -19.64196775 4.95
v 18.90045147 -14.58194843 4.95
v 14.01404761 -19.64196775 9.504
v 18.90045147 -14.58194843 9.504
v 0.24614135 4.67222469 0
v 0.24614135 4.67222469 0.396
v 14.01404761 19.59488892 0.396
v 18.90045147 14.5348696 0.396
v 18.74897521 14.38339334 3.31056
v 18.74897521 14.38859068 3.31056
v 18.75417255 14.68634587 3.31056
v 19.05192773 14.38339334 3.31056
v 18.90045147 14.5348696 3.31056
v 19.05192773 14.68634587 3.31056
v 2.65389406 3.54701455 5.148
v 2.52402733 3.94670323 5.148
v 7.52219447 3.54701455 4.95
v 7.52219447 3.54701455 5.148
v 7.87062687 3.18386599 5.148
v 9.48233405 9.10252144 5.148
v 0.24614135 0.52650115 9.504
v 0.24614135 3.54701455 9.504
v 0.24614135 3.54701455 9.9
v 2.83896504 0.92844873 9.504
v 3.97960084 0.12597164 9.33768
v 3.97960084 0.12597164 9.504
v 2.93079045 2.69481508 9.504
v 2.65389406 3.54701455 9.33768
v 3.12448422 2.75775 9.504
v 3.27849951 2.72277249 9.504
v 3.47219328 2.65983757 9.504
v 3.54631199 3.54701455 9.33768
v 3.54631199 3.54701455 9.504
v 2.93079045 2.69481508 9.702
v 3.12448422 2.75775 9.702
v 3.27849951 2.72277249 9.702
v 3.47219328 2.65983757 9.702
v 2.52402733 3.94670323 9.33768
v 3.76045455 3.54701455 9.33768
v 3.76045455 3.54701455 9.504
v 4.47494845 6.40506371 9.33768
v 4.66864222 6.34212879 9.33768
v 4.47494845 6.40506371 9.702
v 4.66864222 6.34212879 9.702
v 6.70544826 2.24813762 9.33768
v 6.02594864 3.54701455 9.33768
v 6.8624423 2.71048183 9.33768
v 7.14649613 3.54701455 9.33768
v 7.52219447 3.54701455 9.33768
v 7.52219447 3.54701455 9.504
v 7.87062687 3.18386599 9.33768
v 8.08369976 3.96633135 9.33768
v 6.27683981 8.77734754 9.33768
v 4.20599023 10.12335801 5.148
v 6.79799909 19.64196506 5.148
v 4.20599023 10.12335801 7.68888897
v 6.79799909 19.64196506 9.33768
v 10.26620264 11.98111387 5.148
v 10.64840445 16.3447251 5.148
v 11.30203669 15.78499642 5.148
v 14.01404761 19.59488892 4.95
v 14.01404761 19.59488892 7.227
v 18.94164447 12.07474779 5.148
v 18.74897521 14.38859068 4.95
v 18.75417255 14.68634587 4.95
v 18.74897521 14.68634587 4.95
v 18.75417255 14.68634587 4.98993102
v 18.75417255 14.68634587 5.3644473
v 18.74897521 14.38339334 6.58944
v 18.74897521 14.68634587 6.58944
v 18.75417255 14.68634587 6.58944
v 19.05192773 14.38339334 6.58944
v 18.90045147 14.5348696 6.58944
v 19.05192773 14.68634587 6.58944
v 16.5180982 17.00186864 5.148
v 16.5180982 17.00186864 5.74888253
v 18.17511995 15.28597238 5.148
v 18.21127758 15.13449612 5.95581649
v 18.17511995 15.28597238 5.95581649
v 18.32659621 15.13449612 5.95581649
v 18.32139888 15.13449612 5.95581649
v 18.32139888 15.13449612 5.99181726
v 18.13896232 15.43744864 5.95581649
v 18.32659621 15.43744864 5.95581649
v 17.56487079 17.84250784 5.148
v 18.32139888 15.13449612 6.90006561
v 18.24743521 14.98301986 7.00505809
v 18.21127758 15.13449612 7.00505809
v 18.32659621 15.13449612 7.00505809
v 18.32139888 15.13449612 7.00505809
v 18.32659621 15.28597238 7.00505809
v 18.47287514 14.98301986 7.00505809
v 18.4676778 14.98301986 7.00505809
v 18.47287514 15.28597238 7.00505809
v 9.91447209 11.69864708 9.33768
v 10.26620264 11.98111387 9.33768
v 11.30203669 15.78499642 9.33768
v 18.94164447 12.07474779 9.33768
v 18.90045147 14.5348696 9.504
v 16.5180982 17.00186864 8.39385467
v 18.17511995 15.28597238 8.05429969
v 18.32659621 15.28597238 8.05429969
v 18.13896232 15.43744864 8.05429969
v 18.32659621 15.43744864 8.05429969
v 18.24743521 14.98301986 9.10354129
v 18.17511995 15.28597238 9.10354129
v 18.47287514 14.98301986 9.10354129
v 18.4676778 14.98301986 9.10354129
v 18.47287514 15.28597238 9.10354129
v 17.56487079 17.84250784 9.33768
f 10 14 18
f 14 19 18
f 14 16 19
f 22 50 23
f 23 50 24
f 10 51 50
f 24 52 27
f 24 50 52
f 10 18 98
f 10 103 51
f 10 98 103
f 27 52 61
f 50 51 52
f 52 57 54
f 52 55 57
f 51 55 52
f 51 103 106
f 52 54 61
f 54 108 61
f 51 119 121
f 51 121 55
f 51 120 119
f 51 106 120
f 55 121 109
f 18 100 98
f 109 121 111
f 111 121 112
f 112 121 125
f 121 123 125
f 112 125 126
f 106 144 120
f 2 4 6
f 4 5 6
f 5 7 6
f 2 25 4
f 4 25 45
f 2 21 25
f 21 22 23
f 21 23 25
f 23 24 26
f 24 27 46
f 23 26 25
f 25 26 45
f 26 46 45
f 24 46 26
f 1 9 20
f 1 2 3
f 1 20 2
f 2 20 21
f 1 3 11
f 2 6 3
f 3 6 8
f 3 8 15
f 6 7 8
f 1 11 9
f 9 49 20
f 9 10 49
f 10 50 49
f 9 14 10
f 9 11 14
f 3 17 11
f 3 15 17
f 11 17 14
f 14 17 16
f 13 98 100
f 13 100 18
f 13 105 98
f 98 105 103
f 103 105 106
f 105 109 119
f 105 119 120
f 111 121 119
f 109 111 119
f 111 112 121
f 112 125 121
f 121 125 123
f 112 126 125
f 105 120 144
f 105 144 106
f 27 61 28
f 28 61 62
f 65 68 66
f 66 68 71
f 66 71 73
f 66 73 74
f 66 74 77
f 35 71 68
f 70 74 73
f 70 75 74
f 69 94 70
f 70 94 75
f 69 93 94
f 75 94 84
f 4 45 5
f 5 47 31
f 5 45 47
f 27 28 29
f 27 29 46
f 29 37 46
f 5 31 7
f 31 68 65
f 31 35 68
f 31 33 35
f 31 48 33
f 34 48 37
f 33 48 38
f 36 38 48
f 34 36 48
f 45 46 47
f 37 48 46
f 31 47 48
f 46 48 47
f 7 31 32
f 7 32 8
f 8 32 15
f 15 32 67
f 89 95 91
f 63 107 142
f 63 142 95
f 90 92 142
f 91 95 142
f 91 142 96
f 92 96 142
f 90 142 97
f 102 140 120
f 107 121 122
f 107 122 131
f 107 131 149
f 102 120 119
f 121 129 127
f 121 123 122
f 121 127 123
f 119 120 129
f 122 132 131
f 127 129 154
f 120 154 129
f 97 142 139
f 139 142 140
f 107 149 142
f 140 142 154
f 142 149 150
f 120 140 154
f 127 154 147
f 145 147 154
f 142 150 154
f 145 154 150
f 80 81 87
f 81 88 87
f 85 87 86
f 86 87 88
f 34 37 41
f 34 42 69
f 34 41 42
f 42 43 44
f 60 100 98
f 60 82 100
f 30 63 44
f 72 101 82
f 72 76 101
f 44 63 95
f 42 89 69
f 69 89 91
f 42 44 89
f 69 91 93
f 83 90 86
f 44 95 89
f 91 96 93
f 92 93 96
f 85 86 97
f 86 90 97
f 98 100 99
f 99 100 101
f 82 101 100
f 76 85 101
f 85 97 101
f 97 139 101
f 99 101 141
f 101 139 141
f 102 104 140
f 103 141 104
f 99 141 103
f 104 141 140
f 139 140 141
f 41 43 42
f 40 79 78
f 39 40 78
f 71 78 73
f 73 78 79
f 115 137 117
f 134 115 130
f 134 137 115
f 143 117 137
f 143 137 152
f 115 117 130
f 134 130 137
f 137 130 117
f 143 137 117
f 143 152 137
f 20 22 21
f 20 49 22
f 22 49 50
f 31 65 32
f 32 65 67
f 65 66 67
f 75 84 81
f 83 86 84
f 81 84 88
f 84 86 88
f 34 69 36
f 36 70 40
f 36 69 70
f 36 40 38
f 70 73 79
f 40 70 79
f 12 13 18
f 12 19 16
f 12 17 15
f 12 16 17
f 12 18 19
f 12 61 13
f 13 61 110
f 13 110 105
f 61 108 110
f 105 110 109
f 74 80 77
f 76 77 87
f 77 80 87
f 76 87 85
f 63 64 107
f 64 102 107
f 102 121 107
f 102 119 121
f 119 129 121
f 28 30 29
f 33 39 35
f 59 60 62
f 59 82 60
f 28 63 30
f 28 62 63
f 60 64 62
f 62 64 63
f 60 102 64
f 59 72 82
f 35 78 71
f 35 39 78
f 60 98 104
f 60 104 102
f 98 103 104
f 98 99 103
f 74 75 81
f 74 81 80
f 29 30 37
f 33 38 40
f 33 40 39
f 30 41 37
f 30 43 41
f 30 44 43
f 12 59 62
f 12 66 59
f 12 62 61
f 59 66 72
f 12 67 66
f 12 15 67
f 66 77 72
f 72 77 76
f 83 84 94
f 83 94 90
f 90 94 92
f 92 94 93
f 53 54 57
f 53 57 56
f 55 58 57
f 56 57 58
f 53 108 54
f 53 56 113
f 56 58 116
f 55 118 58
f 53 113 108
f 55 109 118
f 108 113 110
f 109 110 114
f 56 116 113
f 58 118 116
f 110 113 114
f 109 114 118
f 113 116 114
f 116 118 114
f 122 123 125
f 122 125 126
f 123 124 125
f 123 128 124
f 124 126 125
f 123 127 128
f 122 126 132
f 124 132 126
f 124 128 135
f 124 134 132
f 124 133 134
f 124 135 133
f 127 148 128
f 128 148 135
f 127 147 148
f 135 148 146
f 145 146 147
f 146 148 147
f 131 132 137
f 136 137 134
f 132 134 137
f 133 136 134
f 133 138 136
f 133 135 138
f 135 146 138
f 131 137 152
f 136 151 137
f 136 138 151
f 138 146 153
f 131 152 149
f 145 153 146
f 151 152 137
f 138 153 151
f 145 150 153
f 149 152 150
f 150 152 151
f 150 151 153
