# MAAS exact compiled indexed mesh
# program_hash 36bb1764d012e0d145d7e3b359e9496dcc72fb7c1abbe2a22ba38cab020ed08a
# geometry_hash 54f85e5e606b8c8b0df05f6163cdf594ff6abf64f72bf9a424b7ea2126fedefb
v -9.83711329 -14.41853356 3.82040816
v -17.85524675 -11.41147596 0
v -17.85524675 -11.41147596 4.11428571
v -11.17594159 -11.41147596 3.82040816
v -11.17594159 -11.41147596 4.11428571
v -3.08315135 -11.41147596 3.82040816
v -3.08315135 -11.41147596 4.11428571
v -9.83711329 -14.41853356 7.93469388
v -13.12680421 -12.14739701 11.16734694
v -13.12680421 -12.14739701 14.4
v -17.9085927 -6.64753105 7.64081633
v -15.96299142 -0.65958602 7.64081633
v -15.96299142 -0.65958602 7.93469388
v -16.06227314 -0.43659562 7.93469388
v -15.89053744 -0.43659562 7.93469388
v -12.51702278 -8.39935831 7.64081633
v -12.51702278 -8.39935831 7.93469388
v -17.9085927 -6.64753105 11.46122449
v -13.70793928 -8.01240608 11.16734694
v -13.70793928 -8.01240608 11.46122449
v -15.89053744 -0.43659562 11.46122449
v -14.77265001 -0.43659562 11.46122449
v -14.77265001 -0.43659562 14.4
v -1.55270425 -11.96188136 7.64081633
v -0.62872106 -12.26210169 8.49887021
v -0.53431281 -12.29277679 8.43916537
v -1.55270425 -11.96188136 9.09509067
v -1.55270425 -11.96188136 11.46122449
v -3.15214193 -11.44219255 7.64081633
v -3.15214193 -11.44219255 7.93469388
v -1.55270425 -10.73007701 7.2
v -1.55270425 -10.73007701 7.64081633
v -4.64881642 -10.95589353 11.16734694
v -4.64881642 -10.95589353 11.46122449
v -1.55270425 -10.52076334 11.46122449
v -1.55270425 -10.52076334 14.4
v -1.55270425 -0.43659562 14.4
v -17.85524675 9.05016535 0
v -17.40302175 2.57477506 4.11428571
v -17.85524675 9.05016535 4.11428571
v -2.85905702 9.05016535 3.82040816
v -2.85905702 9.05016535 4.11428571
v -17.40302175 2.57477506 7.2
v -17.40302175 2.57477506 7.93469388
v -14.49078995 3.87138419 7.64081633
v -14.49078995 3.87138419 7.93469388
v -15.63041969 0.36396451 9.83917801
v -15.46381279 0.87672783 9.70242245
v -15.2961991 1.77906986 10.63997412
v -15.17062409 1.77906986 10.63997412
v -15.2961991 2.1510997 10.63997412
v -15.04974427 2.1510997 10.63997412
v -15.17062409 1.77906986 11.01304295
v -15.13632687 2.1510997 11.16734694
v -15.04974427 2.1510997 11.16734694
v -15.17062409 1.77906986 11.46122449
v -15.2961991 1.77906986 11.69471975
v -15.2961991 2.1510997 11.69471975
v -15.13632687 2.1510997 11.69471975
v -15.08404148 1.77906986 11.46122449
v -15.08404148 1.77906986 11.69471975
v -15.45674881 4.43102028 11.16734694
v -14.25403171 4.60005115 11.16734694
v -14.25403171 4.60005115 11.46122449
v -15.45674881 4.43102028 14.4
v -11.87300666 11.92809274 7.64081633
v -11.87300666 11.92809274 11.46122449
v -2.92512531 9.02074985 7.64081633
v -2.92512531 9.02074985 7.93469388
v 11.90714062 -11.41147596 0
v 11.90714062 -11.41147596 4.11428571
v 11.90714062 -4.73736798 3.82040816
v 11.90714062 -4.73736798 4.11428571
v 14.8031842 -3.4479663 3.82040816
v 3.40427485 -23.54370615 7.64081633
v 3.40220048 -23.54277871 7.64081633
v 2.56124822 -17.09042717 7.64081633
v 3.40220048 -17.40652675 7.64081633
v 3.40246942 -17.39299667 7.64081633
v 3.81380345 -15.95010938 7.64081633
v 3.40220048 -14.88027446 7.2
v 3.40220048 -14.88027446 7.64081633
v 4.08382587 -14.98871776 7.64081633
v 2.56124822 -13.29858554 7.64081633
v 2.81819241 -13.25505957 7.64081633
v 2.56124822 -13.29858554 7.79809265
v 2.56124822 -13.10662788 7.64081633
v 4.2622778 -14.35335503 7.64081633
v 4.41879219 -14.25746775 7.64081633
v 3.40220048 -12.18320332 7.64081633
v 5.79631872 -13.41353723 7.64081633
v 5.79631872 -13.41353723 7.93469388
v 3.40427485 -23.54370615 11.46122449
v 3.40220048 -23.54277871 11.46122449
v 2.56124822 -17.09042717 11.46122449
v 3.40220048 -17.40652675 11.46122449
v 3.40220048 -17.39475477 11.46122449
v 3.41441342 -17.19294695 11.46122449
v 3.47495582 -17.15654719 11.46122449
v 3.40220048 -17.09649101 11.46122449
v 3.49697111 -17.07816365 11.46122449
v 3.65670823 -17.04727265 11.46122449
v 2.56124822 -13.29858554 11.46122449
v 2.66215007 -13.33137054 11.46122449
v 2.62216322 -13.11181531 11.46122449
v 2.56124822 -12.77735018 11.46122449
v 3.40220048 -12.71753317 11.46122449
v 3.40220048 -12.64062441 11.46122449
v 3.40220048 -17.09649101 14.4
v 2.56124822 -12.77735018 14.4
v 3.40220048 -13.28752374 14.4
v 3.56563678 -13.26020264 14.4
v 3.40220048 -12.64062441 14.4
v 3.4812237 -12.62777646 14.4
v 4.99960492 -16.78757458 11.16734694
v 4.99960492 -16.78757458 11.46122449
v 2.56124822 -11.43534246 7.2
v 2.56124822 -11.43534246 7.64081633
v 2.56124822 -8.89842736 7.2
v 2.56124822 -8.89842736 7.64081633
v 3.40220048 -11.00219974 7.2
v 3.40220048 -11.00219974 7.64081633
v 4.23033542 -10.57565874 7.2
v 5.86186008 -7.81414477 7.2
v 2.56124822 -9.94258503 11.46122449
v 2.56124822 -9.94258503 14.4
v 3.40220048 -10.23935443 14.4
v 3.40220048 -9.8243969 14.4
v 3.40220048 -8.89579213 14.4
v 4.04620153 -9.87549402 14.4
v 2.56124822 -3.59886013 14.4
v 4.49082735 -9.93898147 14.4
v 14.04031642 -15.03922319 11.16734694
v 14.04031642 -15.03922319 14.4
v 13.19589189 -4.16357894 7.2
v 17.90859566 -5.99304841 7.2
v 17.90859566 -5.99304841 7.93469388
v 14.70565461 -4.9088736 7.2
v 14.8031842 -3.4479663 7.2
v 13.59806089 -0.74121503 7.2
v 13.82579829 -1.2527216 7.2
v 14.90405117 -0.75886391 7.2
v 14.77611756 -0.83482408 7.93469388
v 16.2150045 -0.75886391 7.2
v 7.23727575 13.54534232 3.82040816
v 11.90714062 9.05016535 0
v 11.90714062 3.05665408 3.82040816
v 11.90714062 3.05665408 4.11428571
v 9.23865748 9.05016535 3.82040816
v 9.23865748 9.05016535 4.11428571
v 11.90714062 9.05016535 4.11428571
v 2.56124822 7.23811903 7.93469388
v 2.56124822 9.30170261 7.93469388
v 2.56124822 11.46344073 7.2
v 2.56124822 11.46344073 7.93469388
v 3.40220048 8.98560304 7.93469388
v 6.07649431 10.95723065 7.93469388
v 2.56124822 6.96328463 11.46122449
v 2.56124822 7.23811903 11.46122449
v 3.21677834 9.05530005 11.16734694
v 2.56124822 8.94872103 11.46122449
v 2.56124822 9.30170261 11.46122449
v 3.21677834 9.05530005 11.46122449
v 3.40220048 8.98560304 11.16734694
v 3.40220048 9.08544681 11.16734694
v 2.56124822 6.96328463 14.4
v 2.56124822 8.94872103 14.4
v 3.40220048 9.08544681 14.4
v 8.74223461 5.87688025 14.4
v 3.40220048 11.8378568 7.2
v 4.47483305 12.31542359 7.2
v 3.40220048 11.8378568 7.93469388
v 3.40220048 12.15289353 7.93469388
v 3.75525264 11.99504575 7.93469388
v 3.40220048 13.67005776 7.2
v 3.71784081 13.29653696 7.93469388
v 2.56124822 14.73210147 7.2
v 2.56124822 14.73210147 7.93469388
v 3.40220048 15.16524418 7.2
v 3.40220048 15.16524418 7.93469388
v 3.40220048 16.01113101 7.93469388
v 4.37136711 15.66442527 7.93469388
v 3.40220048 20.51150745 7.2
v 3.40220048 20.51150745 7.93469388
v 6.1172978 13.04669601 7.2
v 6.50964551 13.68324567 7.2
v 6.54013624 13.77439992 7.2
v 6.00815939 14.68079408 7.93469388
v 5.28926138 16.1371979 7.2
v 5.08566466 16.03233293 7.93469388
v 5.2075711 16.09512233 7.93469388
v 4.64933963 16.67158886 7.93469388
v 6.43463486 16.72713648 7.2
v 7.23727575 13.54534232 7.2
v 8.35157981 23.5437048 7.2
v 8.35157981 23.5437048 7.93469388
v 3.40220048 12.15289353 11.16734694
v 3.40220048 12.28828102 11.16734694
v 3.40220048 12.28828102 14.4
v 12.36918055 5.41917945 7.93469388
v 12.63701799 5.29763702 7.93469388
v 10.37652202 5.98336169 7.93469388
v 10.5175563 6.17771157 7.93469388
v 10.45538634 6.31734758 7.93469388
v 11.02823591 8.74333271 7.93469388
v 10.52811632 10.20286185 7.93469388
v 10.27396418 10.86323161 7.93469388
v 10.73002382 10.39227442 7.93469388
v 11.02823591 8.74333271 11.16734694
v 10.01949293 10.1613158 14.4
v 10.09350716 10.17334937 14.4
v 11.09720421 13.77639072 11.16734694
v 11.09720421 13.77639072 14.4
f 2 3 40
f 3 5 39
f 3 4 5
f 2 70 3
f 3 70 4
f 2 38 70
f 4 70 6
f 2 40 38
f 38 40 41
f 3 39 40
f 39 42 40
f 38 41 149
f 40 42 41
f 6 70 71
f 6 71 7
f 7 71 73
f 70 146 71
f 71 146 72
f 71 72 73
f 38 146 70
f 38 151 146
f 38 149 151
f 72 146 147
f 146 151 147
f 147 151 148
f 148 151 150
f 149 150 151
f 1 5 4
f 1 8 16
f 5 43 39
f 1 12 44
f 5 44 43
f 1 44 5
f 1 16 12
f 1 4 6
f 1 7 8
f 1 6 7
f 7 73 8
f 12 13 14
f 13 15 14
f 8 17 16
f 8 31 29
f 8 29 30
f 8 30 17
f 29 31 32
f 39 43 154
f 39 154 42
f 12 14 44
f 8 74 31
f 8 73 74
f 31 74 119
f 72 74 73
f 72 147 74
f 74 135 119
f 74 148 139
f 74 139 135
f 139 148 141
f 41 42 145
f 42 154 170
f 42 170 171
f 42 171 185
f 41 145 149
f 145 150 149
f 42 194 145
f 42 185 194
f 74 147 148
f 141 148 150
f 140 141 150
f 140 150 145
f 140 145 194
f 11 16 17
f 11 17 18
f 11 13 12
f 11 12 16
f 11 18 21
f 11 21 13
f 13 21 15
f 17 30 18
f 18 27 19
f 18 19 20
f 18 20 21
f 20 22 21
f 24 27 29
f 25 26 27
f 26 103 33
f 28 33 103
f 18 30 27
f 19 27 33
f 27 30 29
f 24 29 32
f 26 33 27
f 28 34 33
f 28 35 34
f 26 86 103
f 9 20 19
f 9 23 20
f 9 10 23
f 20 23 22
f 9 19 33
f 9 34 10
f 10 37 23
f 9 33 34
f 10 34 36
f 10 36 37
f 34 35 36
f 31 120 32
f 14 15 44
f 15 46 44
f 43 44 45
f 44 46 45
f 43 45 68
f 43 68 154
f 68 69 154
f 31 119 120
f 69 152 153
f 69 153 155
f 69 155 154
f 153 156 172
f 153 172 155
f 202 203 204
f 24 32 87
f 24 25 27
f 24 26 25
f 28 105 35
f 15 50 52
f 15 21 50
f 15 52 63
f 15 67 46
f 15 63 67
f 45 46 66
f 45 66 68
f 46 67 66
f 21 53 50
f 21 22 56
f 56 53 21
f 22 60 56
f 63 64 67
f 66 69 68
f 66 67 159
f 66 159 69
f 64 158 67
f 67 158 159
f 24 86 26
f 24 87 84
f 24 84 86
f 85 87 118
f 85 118 90
f 28 103 105
f 35 105 106
f 103 104 105
f 105 107 106
f 106 107 108
f 32 118 87
f 32 120 118
f 90 118 122
f 35 106 125
f 69 159 152
f 35 126 36
f 36 131 37
f 54 62 55
f 54 59 62
f 22 23 60
f 23 61 60
f 23 59 61
f 55 62 63
f 62 64 63
f 59 65 62
f 62 65 64
f 23 65 59
f 64 65 158
f 23 37 65
f 37 166 65
f 65 166 158
f 35 125 126
f 36 126 131
f 126 128 129
f 126 129 131
f 37 131 166
f 117 121 122
f 117 122 118
f 155 172 173
f 155 173 178
f 173 176 178
f 176 180 178
f 173 174 176
f 176 182 180
f 177 178 179
f 178 180 179
f 176 188 182
f 182 188 190
f 157 207 188
f 188 207 190
f 190 207 191
f 143 204 203
f 143 200 204
f 157 205 207
f 205 206 207
f 200 205 204
f 200 206 205
f 77 79 78
f 77 85 79
f 79 85 82
f 79 82 80
f 80 82 83
f 82 88 83
f 77 78 96
f 77 84 85
f 82 85 90
f 84 87 85
f 77 96 95
f 95 96 97
f 95 97 104
f 97 98 104
f 98 100 104
f 98 99 100
f 99 101 100
f 95 104 103
f 100 107 104
f 104 107 105
f 153 160 156
f 153 162 160
f 156 160 164
f 161 163 162
f 160 162 163
f 106 108 113
f 106 113 110
f 110 113 127
f 113 114 127
f 110 127 126
f 126 127 128
f 114 130 127
f 114 132 130
f 130 132 169
f 129 169 131
f 160 165 164
f 160 163 165
f 161 167 163
f 163 167 165
f 166 168 167
f 165 167 168
f 131 211 166
f 132 211 169
f 131 169 211
f 166 210 168
f 166 211 210
f 180 182 181
f 181 182 192
f 157 188 174
f 174 188 176
f 182 190 192
f 200 201 208
f 200 208 206
f 83 88 89
f 99 102 101
f 111 112 113
f 112 114 113
f 81 88 82
f 81 89 88
f 81 91 89
f 81 136 91
f 91 137 92
f 92 137 202
f 91 136 137
f 137 143 202
f 137 201 143
f 136 144 137
f 181 192 184
f 190 191 192
f 191 207 196
f 184 192 196
f 191 196 192
f 183 184 195
f 184 196 195
f 143 203 202
f 143 201 200
f 206 208 207
f 137 196 208
f 137 208 201
f 137 144 195
f 196 207 208
f 137 195 196
f 75 76 78
f 75 93 76
f 75 78 79
f 75 79 91
f 76 93 94
f 75 92 93
f 79 80 91
f 80 83 89
f 92 115 93
f 75 91 92
f 80 89 91
f 93 102 94
f 94 98 96
f 94 99 98
f 94 102 99
f 93 116 102
f 93 115 116
f 96 98 97
f 92 202 115
f 115 202 204
f 115 204 205
f 157 174 197
f 157 197 205
f 197 209 205
f 173 197 174
f 115 205 209
f 100 101 109
f 101 102 109
f 102 116 109
f 109 112 111
f 112 132 114
f 115 133 116
f 109 116 133
f 109 134 112
f 112 134 132
f 127 130 128
f 128 130 129
f 129 130 169
f 109 133 134
f 115 209 133
f 133 212 134
f 132 134 211
f 197 212 209
f 168 210 199
f 197 198 212
f 198 199 212
f 199 213 212
f 199 210 213
f 133 209 212
f 134 212 213
f 134 213 211
f 210 211 213
f 47 50 52
f 47 53 50
f 47 63 48
f 47 52 63
f 52 55 63
f 47 48 50
f 47 50 53
f 48 52 50
f 48 63 52
f 117 119 121
f 119 124 121
f 121 124 123
f 119 135 124
f 124 135 138
f 140 142 141
f 81 121 123
f 81 123 136
f 123 124 138
f 123 138 136
f 135 136 138
f 135 139 136
f 139 141 142
f 136 139 142
f 136 142 144
f 154 175 170
f 154 177 175
f 175 177 179
f 171 175 185
f 175 186 185
f 175 187 186
f 175 189 187
f 187 189 193
f 140 144 142
f 170 175 171
f 175 179 189
f 179 183 189
f 185 186 194
f 186 187 194
f 187 195 194
f 183 193 189
f 183 195 193
f 187 193 195
f 140 194 144
f 144 194 195
f 77 86 84
f 77 103 86
f 77 95 103
f 106 110 126
f 117 118 120
f 117 120 119
f 106 126 125
f 152 159 153
f 153 159 161
f 153 161 162
f 158 167 159
f 159 167 161
f 158 166 167
f 154 155 178
f 154 178 177
f 76 96 78
f 76 94 96
f 81 82 90
f 81 90 122
f 81 122 121
f 100 113 107
f 107 113 108
f 100 109 111
f 100 111 113
f 156 197 172
f 156 164 165
f 156 165 197
f 165 199 197
f 165 168 199
f 179 180 181
f 179 181 183
f 172 197 173
f 181 184 183
f 197 199 198
f 49 52 50
f 49 51 52
f 49 50 57
f 51 54 52
f 49 58 51
f 57 50 53
f 51 59 54
f 54 55 52
f 56 57 53
f 49 57 58
f 51 58 59
f 56 60 57
f 57 60 61
f 57 61 58
f 58 61 59
