# MAAS exact compiled indexed mesh
# program_hash bd5690a548e22d440db90d31246c605b42ee8ed4193af55fac5434808c5d9263
# geometry_hash 58d7d55f56e04c346f6947e0130f88467a4727089aa8730e010753c2d8bbd594
v -13.67597959 -16.41117551 0
v -13.67597959 -16.41117551 5.30526316
v -2.73519592 -16.41117551 0
v -2.73519592 -16.41117551 5.30526316
v -15.38547704 2.05139694 4.92631579
v -13.67597959 2.05139694 4.92631579
v -13.67597959 2.05139694 5.30526316
v -13.67597959 16.41117551 0
v -15.38547704 12.99218061 4.92631579
v -13.67597959 12.99218061 4.92631579
v -13.67597959 12.99218061 5.30526316
v -13.67597959 16.41117551 5.30526316
v -2.73519592 2.05139694 4.92631579
v -2.73519592 2.05139694 5.30526316
v -2.73519592 16.41117551 0
v -2.73519592 12.99218061 4.92631579
v -2.73519592 12.99218061 5.30526316
v -2.73519592 16.41117551 5.30526316
v -15.38547704 2.05139694 10.23157895
v -11.62458265 0 9.85263158
v -11.62458265 2.05139694 9.85263158
v -11.62458265 2.05139694 10.23157895
v -11.62458265 0 14.4
v -15.38547704 12.99218061 10.23157895
v -11.62458265 12.99218061 9.85263158
v -11.62458265 12.99218061 10.23157895
v -11.62458265 15.04357755 9.85263158
v -11.62458265 15.04357755 14.4
v -0.68379898 0 9.85263158
v -0.68379898 2.05139694 9.85263158
v -0.68379898 2.05139694 10.23157895
v -0.68379898 0 14.4
v -0.68379898 12.99218061 9.85263158
v -0.68379898 12.99218061 10.23157895
v -0.68379898 15.04357755 9.85263158
v -0.68379898 15.04357755 14.4
v -0 -8.20558776 0
v -0 -8.20558776 5.30526316
v 12.30838163 -8.20558776 0
v 12.30838163 -8.20558776 5.30526316
v -0 2.05139694 4.92631579
v -0 2.05139694 5.30526316
v -0 16.41117551 0
v -0 12.99218061 4.92631579
v -0 12.99218061 5.30526316
v -0 16.41117551 5.30526316
v 12.30838163 2.05139694 4.92631579
v 12.30838163 2.05139694 5.30526316
v 15.38547704 2.05139694 4.92631579
v 12.30838163 16.41117551 0
v 12.30838163 12.99218061 4.92631579
v 12.30838163 12.99218061 5.30526316
v 12.30838163 16.41117551 5.30526316
v 15.38547704 12.99218061 4.92631579
v 0 2.05139694 7.2
v 0 2.05139694 10.23157895
v 5.51415497 5.97257381 10.23157895
v 5.51415497 5.97257381 10.55995958
v 0 12.99218061 7.2
v 0 12.99218061 10.23157895
v 5.51415497 9.07100374 10.23157895
v 5.51415497 9.07100374 10.55995958
v 9.87132207 5.97257381 10.23157895
v 9.87132207 5.97257381 10.55995958
v 15.38547704 2.05139694 7.2
v 15.38547704 2.05139694 10.23157895
v 9.87132207 9.07100374 10.23157895
v 9.87132207 9.07100374 10.55995958
v 15.38547704 12.99218061 7.2
v 15.38547704 12.99218061 10.23157895
f 1 2 6
f 1 3 2
f 2 4 7
f 1 6 10
f 1 8 3
f 2 7 6
f 2 3 4
f 3 15 4
f 4 14 7
f 4 13 14
f 1 12 8
f 1 10 12
f 8 12 18
f 10 11 12
f 11 17 12
f 3 8 15
f 4 15 13
f 8 18 15
f 13 15 16
f 15 18 16
f 12 17 18
f 16 18 17
f 37 39 38
f 37 38 41
f 38 42 41
f 38 40 42
f 38 39 40
f 40 48 42
f 40 47 48
f 37 41 44
f 37 44 46
f 37 43 39
f 37 46 43
f 43 46 53
f 44 45 46
f 45 52 46
f 39 50 40
f 40 50 47
f 39 43 50
f 43 53 50
f 47 50 51
f 50 53 51
f 46 52 53
f 51 53 52
f 5 6 7
f 5 7 19
f 5 10 6
f 7 14 19
f 5 9 10
f 5 24 9
f 9 11 10
f 9 24 11
f 11 24 17
f 14 42 19
f 13 41 14
f 14 41 42
f 13 44 41
f 13 16 44
f 16 17 45
f 16 45 44
f 19 21 22
f 5 19 24
f 19 22 26
f 19 55 21
f 19 26 24
f 24 26 25
f 17 24 25
f 19 42 55
f 21 55 30
f 30 55 56
f 30 56 31
f 31 56 60
f 17 25 33
f 31 60 34
f 17 33 59
f 33 34 59
f 34 60 59
f 42 48 55
f 17 69 45
f 17 59 69
f 48 49 55
f 49 65 55
f 47 49 48
f 47 54 49
f 49 54 65
f 45 69 52
f 47 51 54
f 54 69 65
f 51 52 54
f 52 69 54
f 20 22 21
f 20 21 29
f 20 28 22
f 20 23 28
f 20 29 23
f 23 32 28
f 25 26 27
f 25 27 33
f 22 28 26
f 26 28 27
f 27 28 36
f 21 30 29
f 29 30 31
f 23 29 32
f 29 31 32
f 31 34 32
f 27 35 33
f 33 35 34
f 28 32 36
f 27 36 35
f 32 34 35
f 32 35 36
f 61 60 56
f 57 61 56
f 66 56 55
f 57 56 66
f 61 67 60
f 70 59 60
f 66 55 65
f 57 66 63
f 66 65 69
f 63 66 70
f 67 70 60
f 70 69 59
f 63 70 67
f 66 69 70
f 57 64 58
f 58 68 62
f 61 62 67
f 57 63 64
f 58 64 68
f 63 68 64
f 63 67 68
f 62 68 67
f 57 58 61
f 58 62 61
