# MAAS exact compiled indexed mesh
# program_hash b297ffae82635e9fb56ade5f4d8d7cd0f6360ad47da0a41e78dc5adf0e3877be
# geometry_hash 4065d97a4a621c0c85e6f6cc7c6c411c6ecaeb7d56039b3609e84e0021ca5de5
v -22.66867028 -18.29862716 0
v -15.00690067 -17.42567878 0
v -15.56209257 -15.02087848 0
v -15.00690067 -17.42567878 3.54982897
v -16.11728446 -12.61607819 0
v -16.67247635 -10.2112779 0
v -22.66867028 -18.29862716 5.91638162
v -18.2898605 -17.7997248 5.91638162
v -15.00690067 -17.42567878 7.09965794
v -22.66867028 -5.95834506 0
v -17.22766825 -7.80647761 0
v -17.78286014 -5.40167731 0
v -17.78286014 -5.40167731 3.54982897
v -22.66867028 -5.95834506 5.91638162
v -18.2898605 -5.45944271 5.91638162
v -17.78286014 -5.40167731 7.09965794
v -3.20585141 -13.24670806 0
v -4.28777614 -11.02843365 0
v -3.20585141 -13.24670806 3.54982897
v -3.20585141 -13.24670806 7.09965794
v -6.45162558 -6.59188482 0
v -8.61547503 -2.15533598 0
v -7.53355031 -4.3736104 0
v -8.61547503 -2.15533598 3.54982897
v -5.36970086 -8.81015923 0
v -8.61547503 -2.15533598 7.09965794
v -18.2898605 -17.7997248 11.83276324
v -15.00690067 -17.42567878 10.64948691
v -15.00690067 -17.42567878 11.83276324
v -17.78286014 -5.40167731 10.64948691
v -18.2898605 -5.45944271 11.83276324
v -17.78286014 -5.40167731 11.83276324
v -10.32838818 -15.76893061 11.83276324
v -3.20585141 -13.24670806 10.64948691
v -10.32838818 -15.76893061 17.74914485
v -3.20585141 -13.24670806 14.19931588
v -3.20585141 -13.24670806 17.74914485
v -4.28777614 -11.02843365 17.74914485
v -8.61547503 -2.15533598 10.64948691
v -10.32838818 -2.76191035 11.83276324
v -6.45162558 -6.59188482 17.74914485
v -8.61547503 -2.15533598 14.19931588
v -10.32838818 -2.76191035 17.74914485
v -8.61547503 -2.15533598 17.74914485
v -7.53355031 -4.3736104 17.74914485
v -5.36970086 -8.81015923 17.74914485
v -0.41331731 3.07001477 0
v -0.41331731 3.07001477 3.54982897
v -0.41331731 3.07001477 7.09965794
v -0.41331731 3.07001477 10.64948691
v -0.41331731 3.07001477 14.19931588
v -0.41331731 3.07001477 17.74914485
v 2.69307915 -0.76606538 0
v 4.24627738 -2.68410546 0
v 5.79947561 -4.60214554 0
v 7.35267384 -6.52018562 0
v 7.35267384 -6.52018562 3.54982897
v 7.35267384 -6.52018562 7.09965794
v 7.35267384 -6.52018562 10.64948691
v 2.69307915 -0.76606538 17.74914485
v 4.24627738 -2.68410546 17.74914485
v 7.35267384 -6.52018562 14.19931588
v 5.79947561 -4.60214554 17.74914485
v 7.35267384 -6.52018562 17.74914485
v 1.13988092 1.15197469 0
v 8.34802648 8.4870369 0
v 10.29288148 6.96754964 0
v 6.40317148 10.00652416 0
v 6.40317148 10.00652416 3.54982897
v 6.40317148 10.00652416 7.09965794
v 14.18259147 3.92857513 0
v 16.12744647 2.40908788 0
v 16.12744647 2.40908788 3.54982897
v 12.23773647 5.44806239 0
v 16.12744647 2.40908788 7.09965794
v 11.484579 18.29862759 0
v 13.72139775 17.25558188 0
v 15.9582165 16.21253617 0
v 11.484579 18.29862759 3.54982897
v 13.72139775 17.25558188 3.54982897
v 15.9582165 16.21253617 3.54982897
v 22.66867276 13.08339903 0
v 22.66867276 13.08339903 3.54982897
v 18.19503525 15.16949045 0
v 20.431854 14.12644474 0
v 18.19503525 15.16949045 3.54982897
v 20.431854 14.12644474 3.54982897
v 11.484579 18.29862759 7.09965794
v 13.72139775 17.25558188 7.09965794
v 15.9582165 16.21253617 7.09965794
v 22.66867276 13.08339903 7.09965794
v 18.19503525 15.16949045 7.09965794
v 20.431854 14.12644474 7.09965794
v 1.13988092 1.15197469 17.74914485
v 8.34802648 8.4870369 17.74914485
v 10.29288148 6.96754964 17.74914485
v 6.40317148 10.00652416 10.64948691
v 6.40317148 10.00652416 14.19931588
v 6.40317148 10.00652416 17.74914485
v 16.12744647 2.40908788 10.64948691
v 16.12744647 2.40908788 14.19931588
v 14.18259147 3.92857513 17.74914485
v 16.12744647 2.40908788 17.74914485
v 12.23773647 5.44806239 17.74914485
v 11.484579 18.29862759 10.64948691
v 13.72139775 17.25558188 10.64948691
v 15.9582165 16.21253617 10.64948691
v 22.66867276 13.08339903 10.64948691
v 18.19503525 15.16949045 10.64948691
v 20.431854 14.12644474 10.64948691
v 11.484579 18.29862759 14.19931588
v 13.72139775 17.25558188 14.19931588
v 15.9582165 16.21253617 14.19931588
v 11.484579 18.29862759 17.74914485
v 13.72139775 17.25558188 17.74914485
v 15.9582165 16.21253617 17.74914485
v 22.66867276 13.08339903 14.19931588
v 22.66867276 13.08339903 17.74914485
v 18.19503525 15.16949045 14.19931588
v 20.431854 14.12644474 14.19931588
v 18.19503525 15.16949045 17.74914485
v 20.431854 14.12644474 17.74914485
f 2 1 10
f 2 4 1
f 8 7 1
f 4 8 1
f 2 10 3
f 5 10 6
f 3 10 5
f 3 5 18
f 5 6 25
f 4 9 8
f 8 9 28
f 12 10 14
f 6 10 11
f 11 10 12
f 12 14 13
f 11 12 23
f 6 11 21
f 12 24 22
f 12 13 24
f 13 14 15
f 13 15 16
f 15 31 16
f 13 16 26
f 13 26 24
f 16 39 26
f 2 17 4
f 2 3 17
f 4 17 19
f 5 25 18
f 3 18 17
f 17 18 56
f 4 19 9
f 9 19 20
f 9 20 28
f 6 21 25
f 11 23 21
f 12 22 23
f 22 24 48
f 18 25 55
f 21 54 25
f 21 23 53
f 23 22 65
f 23 65 53
f 24 26 49
f 8 29 27
f 8 28 29
f 16 31 30
f 30 31 32
f 16 30 39
f 30 40 39
f 30 32 40
f 28 34 29
f 20 34 28
f 29 34 33
f 33 34 36
f 33 37 35
f 35 37 38
f 35 38 46
f 35 46 41
f 33 36 37
f 37 64 38
f 26 39 50
f 40 42 39
f 39 42 51
f 35 44 43
f 35 45 44
f 35 41 45
f 40 43 42
f 43 44 42
f 42 44 52
f 38 63 46
f 41 46 61
f 41 60 45
f 45 94 44
f 45 60 94
f 22 48 47
f 22 47 65
f 24 49 48
f 26 50 49
f 39 51 50
f 42 52 51
f 44 94 52
f 17 56 19
f 19 57 20
f 20 58 34
f 25 54 55
f 18 55 56
f 19 56 57
f 21 53 54
f 54 71 55
f 56 55 72
f 56 72 57
f 20 57 58
f 57 73 58
f 58 75 59
f 57 72 73
f 58 73 75
f 34 59 36
f 36 62 37
f 34 58 59
f 36 59 62
f 59 100 62
f 46 63 61
f 37 62 64
f 38 64 63
f 41 61 60
f 62 101 64
f 61 63 102
f 64 103 63
f 59 75 100
f 62 100 101
f 64 101 103
f 47 66 65
f 53 65 67
f 47 68 66
f 47 69 68
f 47 48 69
f 53 74 54
f 53 67 74
f 54 74 71
f 65 66 67
f 48 49 70
f 48 70 69
f 49 97 70
f 66 68 77
f 68 69 79
f 68 76 77
f 68 79 76
f 69 70 88
f 69 88 79
f 70 105 88
f 55 71 72
f 71 74 85
f 71 82 72
f 72 82 73
f 73 83 75
f 75 91 100
f 66 78 67
f 74 67 84
f 67 78 84
f 74 84 85
f 66 77 78
f 76 80 77
f 77 81 78
f 76 79 80
f 78 81 86
f 77 80 81
f 71 85 82
f 82 85 83
f 73 82 83
f 78 86 84
f 84 87 85
f 84 86 87
f 83 85 87
f 79 89 80
f 79 88 89
f 81 90 92
f 80 90 81
f 80 89 90
f 88 106 89
f 89 107 90
f 75 83 91
f 83 87 91
f 91 93 108
f 81 92 86
f 86 93 87
f 86 92 93
f 87 93 91
f 90 109 92
f 92 110 93
f 49 50 97
f 50 51 98
f 50 98 97
f 52 94 95
f 60 96 94
f 51 99 98
f 51 52 99
f 52 95 99
f 60 61 104
f 60 104 96
f 61 102 104
f 94 96 95
f 70 97 105
f 97 98 111
f 97 111 105
f 98 99 114
f 95 115 99
f 98 114 111
f 99 115 114
f 100 108 101
f 63 103 102
f 102 122 104
f 101 117 103
f 102 103 118
f 88 105 106
f 90 107 109
f 89 106 107
f 105 112 106
f 105 111 112
f 107 113 119
f 106 113 107
f 106 112 113
f 91 108 100
f 101 108 117
f 108 110 117
f 92 109 110
f 93 110 108
f 107 119 109
f 109 120 110
f 109 119 120
f 110 120 117
f 95 96 116
f 104 121 96
f 96 121 116
f 104 122 121
f 111 115 112
f 112 116 113
f 95 116 115
f 111 114 115
f 113 116 121
f 112 115 116
f 117 120 118
f 102 118 122
f 103 117 118
f 113 121 119
f 119 122 120
f 119 121 122
f 118 120 122
f 8 15 7
f 15 14 7
f 8 31 15
f 8 27 31
f 27 29 32
f 27 32 31
f 29 33 40
f 29 40 32
f 33 35 40
f 35 43 40
f 10 1 7
f 7 14 10
