# MAAS exact compiled indexed mesh
# program_hash 83a80a4bb49482d2c4e72ca73b7eb4d5ba8b319d192bbb9507402668f9ccfa47
# geometry_hash 833ff086462605c2b6090e29dd15864da63ebf465138083f6e5b7e16e8b0828d
v -21.69075486 -4.80295286 0
v -9.11011704 -0.19211811 0.91872
v -21.69075486 -4.80295286 9.9
v -9.11011704 -0.19211811 5.07672
v -21.69075486 4.80295286 0
v -9.11011704 4.80295286 0.91872
v -21.69075486 4.80295286 9.9
v -9.11011704 4.80295286 5.07672
v 9.11011704 -0.19211811 0.91872
v 21.69075486 -4.80295286 0
v 0 -4.80295286 4.95
v 0 -4.80295286 9.9
v 0 -0.19211811 4.95
v 0 -0.19211811 5.07672
v 9.11011704 -0.19211811 4.95
v 9.11011704 -0.19211811 5.07672
v 21.69075486 -4.80295286 4.95
v 21.69075486 -4.80295286 9.9
v 9.11011704 4.80295286 0.91872
v 21.69075486 4.80295286 0
v 1.37571444 1.80591028 5.3955
v 1.37571444 1.80591028 6.42371053
v 1.37571444 2.55517092 6.41025
v 1.37571444 2.55517092 6.42371053
v 0 4.80295286 5.07672
v 1.37571444 4.80295286 5.3955
v 1.37571444 4.80295286 6.41025
v 9.11011704 4.80295286 4.95
v 9.11011704 4.80295286 5.07672
v 1.37571444 2.55517092 7.43846053
v 1.37571444 3.30443157 7.43846053
v 1.37571444 3.30443157 8.45321053
v 1.37571444 4.05369222 8.43975
v 1.37571444 4.05369222 8.45321053
v 1.37571444 4.80295286 7.43846053
v 1.37571444 4.80295286 8.43975
v 1.37571444 4.05369222 9.46796053
v 0 4.80295286 9.9
v 1.37571444 4.80295286 9.46796053
v 14.46825407 1.80591028 5.3955
v 14.46825407 1.80591028 6.42371053
v 14.46825407 2.55517092 6.42371053
v 14.46825407 4.80295286 5.3955
v 14.46825407 4.80295286 6.42371053
v 21.69075486 4.80295286 4.95
v 14.46825407 2.55517092 7.43846053
v 14.46825407 3.30443157 7.425
v 14.46825407 3.30443157 7.43846053
v 14.46825407 3.30443157 8.45321053
v 14.46825407 4.05369222 8.45321053
v 14.46825407 4.80295286 7.425
v 14.46825407 4.80295286 8.45321053
v 14.46825407 4.05369222 9.46796053
v 14.46825407 4.80295286 9.46796053
v 21.69075486 4.80295286 9.9
f 1 10 11
f 1 5 10
f 1 11 3
f 1 3 7
f 3 11 12
f 3 12 38
f 1 7 5
f 5 7 6
f 5 6 20
f 3 38 7
f 6 7 8
f 8 38 25
f 7 38 8
f 10 17 11
f 10 20 17
f 5 20 10
f 6 19 20
f 20 45 17
f 19 45 20
f 19 28 45
f 18 12 11
f 18 11 17
f 18 17 45
f 18 55 12
f 55 38 12
f 26 25 27
f 26 43 25
f 27 25 35
f 29 25 43
f 35 25 38
f 35 38 36
f 36 38 39
f 39 38 54
f 18 45 55
f 28 29 45
f 29 43 45
f 43 44 45
f 44 51 45
f 45 51 55
f 54 38 55
f 51 52 55
f 52 54 55
f 2 4 9
f 4 13 9
f 4 14 13
f 2 6 4
f 2 19 6
f 4 6 8
f 4 8 14
f 8 25 14
f 9 13 15
f 2 9 19
f 9 15 28
f 9 28 19
f 16 13 14
f 16 15 13
f 16 14 25
f 16 29 15
f 16 25 29
f 29 28 15
f 21 23 22
f 22 23 24
f 21 22 40
f 22 41 40
f 22 24 41
f 24 42 41
f 21 26 23
f 26 27 23
f 21 40 43
f 21 43 26
f 40 41 42
f 40 42 44
f 40 44 43
f 24 31 30
f 23 27 24
f 24 27 31
f 27 35 31
f 24 30 46
f 24 46 42
f 30 31 48
f 30 48 46
f 42 46 47
f 42 47 51
f 42 51 44
f 46 48 47
f 31 33 32
f 31 35 33
f 32 33 34
f 35 36 33
f 31 32 48
f 32 34 49
f 32 49 48
f 34 50 49
f 48 49 50
f 47 48 52
f 48 50 52
f 47 52 51
f 33 36 34
f 34 36 37
f 36 39 37
f 34 37 53
f 37 39 53
f 34 53 50
f 39 54 53
f 50 53 54
f 50 54 52
