# MAAS exact compiled indexed mesh
# program_hash 59a8c28a8ace6a29d952f0668090e0056c25a030302c430b871280e9526042e4
# geometry_hash fb3e9c6015cbb002c5679f3ddee4053add45af7c9eda5e85d9df3ed0cd9cf10a
v -11.6049255 -12.23817476 0
v -16.25384946 -4.501066 0
v -16.25384946 -4.501066 4.63313285
v -3.65651471 -16.46441974 0
v -7.4910318 -4.501066 0
v -11.6049255 -12.23817476 14.8
v -8.44023959 -6.28626621 14.8
v -3.65651471 -16.46441974 14.8
v -0.4918288 -10.5125112 14.8
v -7.4910318 -4.501066 8.09070582
v -16.25384946 4.501066 0
v -16.25384946 4.501066 4.63313285
v -4.4435 1.23050769 0
v -2.7045133 4.501066 0
v -2.7045133 4.501066 9.97933772
v 2.7045133 -4.501066 0
v 4.4435 -1.23050769 0
v 16.25384946 -4.501066 0
v 2.7045133 -4.501066 12.11359464
v 9.51289609 -4.501066 14.8
v 16.25384946 -4.501066 14.8
v 0 0 0
v 7.4910318 4.501066 0
v 3.65651471 16.46441974 0
v 3.65651471 16.46441974 4.63313285
v 16.25384946 4.501066 0
v 11.6049255 12.23817476 0
v 11.6049255 12.23817476 4.63313285
v 7.4910318 4.501066 8.09070582
v 9.51289609 4.501066 14.8
v 16.25384946 4.501066 14.8
f 2 11 5
f 2 3 12
f 2 5 10
f 2 10 3
f 2 12 11
f 11 13 5
f 11 12 14
f 11 14 13
f 12 15 14
f 16 22 17
f 18 16 17
f 18 17 23
f 18 20 16
f 18 26 21
f 20 19 16
f 18 21 20
f 20 21 31
f 26 23 29
f 18 23 26
f 31 29 15
f 30 31 15
f 21 26 31
f 26 29 31
f 20 31 30
f 1 4 6
f 1 10 5
f 1 16 4
f 4 16 8
f 22 1 5
f 1 22 16
f 1 6 7
f 1 7 10
f 6 4 8
f 9 8 16
f 7 6 8
f 7 8 9
f 7 15 10
f 27 5 13
f 25 14 15
f 9 16 19
f 27 22 5
f 23 17 22
f 27 13 14
f 27 23 22
f 24 14 25
f 24 27 14
f 24 25 28
f 27 29 23
f 24 28 27
f 27 28 29
f 3 10 15
f 3 15 12
f 20 30 19
f 30 15 19
f 7 9 19
f 7 19 15
f 25 29 28
f 25 15 29
