# MAAS exact compiled indexed mesh
# program_hash 5f9b6608704438d92287cc87d40f67a8eab7708113de3f522e17ec99151dc927
# geometry_hash 68014be178cfe79b7871e854df16f95ab6708bb0250fdd974f9e9564ce23c2c0
v -23.5009252 -5.9750011 0
v -21.26604079 -5.9750011 0
v -20.96440131 -5.9750011 3.09487887
v -21.26604079 -3.58500066 0
v -20.06278767 -5.9750011 6.1558496
v -21.26604079 -1.19500022 0
v -10.47249043 -5.9750011 0
v -7.52029657 -5.9750011 0
v -10.22997914 -5.9750011 2.48821224
v -10.47249043 -3.58500066 0
v -7.52029657 -3.10700057 0
v -9.50510227 -5.9750011 4.9491631
v -8.30580174 -5.9750011 7.3558899
v -10.47249043 -1.19500022 0
v -18.57107815 -5.9750011 9.14937555
v -16.50561623 -5.9750011 12.04265903
v -19.35208691 -5.9750011 16.50000196
v -13.88903154 -5.9750011 14.80400061
v -13.88903154 -3.58500066 14.80400061
v -13.88903154 -1.19500022 14.80400061
v -7.52029657 -5.9750011 12.82683173
v -7.52029657 -3.10700057 12.82683173
v -4.54154272 -1.19500022 11.90207988
v -21.26604079 1.19500022 0
v -21.26604079 3.58500066 0
v -23.5009252 5.9750011 0
v -21.26604079 5.9750011 0
v -20.96440131 5.9750011 3.09487887
v -20.06278767 5.9750011 6.1558496
v -10.47249043 1.19500022 0
v -10.47249043 3.58500066 0
v -10.47249043 5.9750011 0
v -10.22997914 5.9750011 2.48821224
v -9.50510227 5.9750011 4.9491631
v -8.30580174 5.9750011 7.3558899
v -13.88903154 1.19500022 14.80400061
v -18.57107815 5.9750011 9.14937555
v -16.50561623 5.9750011 12.04265903
v -20.2476047 5.9750011 12.93851213
v -19.35208691 5.9750011 16.50000196
v -13.88903154 3.58500066 14.80400061
v -13.88903154 5.9750011 14.80400061
v -4.54154272 1.19500022 11.90207988
v -6.64521732 5.9750011 9.68202403
v -4.54154272 3.58500066 11.90207988
v -4.54154272 5.9750011 11.90207988
v 7.52029508 -5.9750011 0
v 11.1146103 -5.9750011 0
v 11.2388652 -5.9750011 1.27487898
v 11.61026851 -5.9750011 2.53579012
v 7.52029508 -3.10700057 0
v 11.1146103 -3.58500066 0
v 7.52029508 -5.9750011 8.15749158
v 7.52029508 -3.10700057 8.15749158
v 0.32105994 -1.19500022 0
v 11.1146103 -1.19500022 0
v 12.22475108 -5.9750011 3.76891861
v 21.90816067 -5.9750011 0
v 21.97328736 -5.9750011 0.66821235
v 22.16795391 -5.9750011 1.32910363
v 22.49002749 -5.9750011 1.97543297
v 22.93597941 -5.9750011 2.60011905
v 23.50092372 -5.9750011 3.19631768
v 21.90816067 -3.58500066 0
v 21.97328736 -3.58500066 0.66821235
v 22.16795391 -3.58500066 1.32910363
v 22.49002749 -3.58500066 1.97543297
v 22.93597941 -3.58500066 2.60011905
v 23.50092372 -3.58500066 3.19631768
v 13.0755805 -5.9750011 4.96075404
v 14.1534349 -5.9750011 6.09823842
v 14.1534349 -3.58500066 6.09823842
v 21.90816067 -1.19500022 0
v 21.97328736 -1.19500022 0.66821235
v 22.16795391 -1.19500022 1.32910363
v 22.49002749 -1.19500022 1.97543297
v 22.93597941 -1.19500022 2.60011905
v 23.50092372 -1.19500022 3.19631768
v 14.1534349 -1.19500022 6.09823842
v 4.80594609 -1.19500022 9.00015915
v 0.32105994 1.19500022 0
v 11.1146103 1.19500022 0
v 0.32105994 3.58500066 0
v 0.32105994 5.9750011 0
v 0.50444303 5.9750011 1.88154561
v 1.05258312 5.9750011 3.74247661
v 11.1146103 3.58500066 0
v 11.1146103 5.9750011 0
v 11.2388652 5.9750011 1.27487898
v 11.61026851 5.9750011 2.53579012
v 1.95947467 5.9750011 5.56240426
v 3.21518159 5.9750011 7.32138904
v 21.90816067 1.19500022 0
v 21.97328736 1.19500022 0.66821235
v 22.16795391 1.19500022 1.32910363
v 22.49002749 1.19500022 1.97543297
v 22.93597941 1.19500022 2.60011905
v 23.50092372 1.19500022 3.19631768
v 14.1534349 1.19500022 6.09823842
v 12.22475108 5.9750011 3.76891861
v 21.90816067 3.58500066 0
v 21.97328736 3.58500066 0.66821235
v 22.16795391 3.58500066 1.32910363
v 22.49002749 3.58500066 1.97543297
v 22.93597941 3.58500066 2.60011905
v 23.50092372 3.58500066 3.19631768
v 21.90816067 5.9750011 0
v 21.97328736 5.9750011 0.66821235
v 22.16795391 5.9750011 1.32910363
v 22.49002749 5.9750011 1.97543297
v 22.93597941 5.9750011 2.60011905
v 23.50092372 5.9750011 3.19631768
v 14.1534349 3.58500066 6.09823842
v 13.0755805 5.9750011 4.96075404
v 14.1534349 5.9750011 6.09823842
v 4.80594609 1.19500022 9.00015915
v 4.80594609 3.58500066 9.00015915
v 4.80594609 5.9750011 9.00015915
f 1 2 3
f 2 4 7
f 1 3 5
f 2 7 3
f 3 7 9
f 3 9 5
f 4 10 7
f 1 5 15
f 5 9 12
f 5 12 15
f 12 13 15
f 1 26 2
f 4 6 10
f 2 26 4
f 6 24 14
f 6 14 10
f 7 8 9
f 7 10 8
f 9 8 12
f 12 8 13
f 10 11 8
f 13 8 21
f 10 14 11
f 14 55 11
f 14 30 55
f 1 15 17
f 13 16 15
f 15 16 17
f 16 21 18
f 16 18 17
f 17 18 19
f 18 22 19
f 17 19 20
f 19 22 20
f 17 20 36
f 17 36 41
f 13 21 16
f 18 21 22
f 20 22 54
f 20 54 23
f 23 80 43
f 20 23 36
f 4 26 6
f 6 26 24
f 24 25 30
f 14 24 30
f 25 31 30
f 24 26 25
f 25 27 31
f 25 26 27
f 27 28 33
f 27 32 31
f 27 33 32
f 28 34 33
f 26 39 27
f 27 39 28
f 28 39 29
f 28 29 34
f 29 35 34
f 29 37 35
f 30 31 81
f 30 81 55
f 31 83 81
f 31 32 83
f 32 33 85
f 33 34 86
f 32 84 83
f 32 85 84
f 33 86 85
f 34 35 91
f 34 91 86
f 35 44 92
f 35 92 91
f 17 41 42
f 17 42 40
f 29 39 37
f 37 39 38
f 37 38 44
f 38 39 40
f 38 40 42
f 43 116 45
f 23 43 36
f 36 43 41
f 41 43 45
f 35 37 44
f 38 46 44
f 45 117 46
f 44 46 118
f 41 45 42
f 38 42 46
f 42 45 46
f 48 47 51
f 48 49 47
f 49 50 47
f 50 57 47
f 57 70 47
f 70 71 47
f 48 51 52
f 71 53 47
f 72 54 53
f 55 51 11
f 55 81 56
f 52 51 55
f 52 55 56
f 72 80 54
f 72 79 80
f 79 116 80
f 48 58 49
f 49 59 50
f 48 52 58
f 50 60 57
f 57 61 70
f 49 58 59
f 50 59 60
f 58 64 59
f 59 65 60
f 60 66 61
f 57 60 61
f 61 62 70
f 62 63 71
f 61 67 62
f 62 68 63
f 52 64 58
f 59 64 65
f 60 65 66
f 61 66 67
f 62 67 68
f 63 68 69
f 62 71 70
f 63 72 71
f 71 72 53
f 63 69 72
f 52 56 64
f 56 82 73
f 56 73 64
f 64 73 65
f 65 74 66
f 66 75 67
f 65 73 74
f 66 74 75
f 67 75 76
f 67 76 68
f 68 77 69
f 68 76 77
f 69 77 78
f 73 93 74
f 74 94 75
f 75 95 76
f 76 96 77
f 77 97 78
f 69 79 72
f 78 99 79
f 69 78 79
f 23 54 80
f 81 83 82
f 56 81 82
f 82 83 87
f 79 99 116
f 99 117 116
f 99 113 117
f 83 84 87
f 84 85 89
f 85 86 90
f 84 88 87
f 84 89 88
f 85 90 89
f 86 100 90
f 86 91 100
f 113 118 117
f 91 92 114
f 91 114 100
f 92 115 114
f 92 118 115
f 113 115 118
f 82 87 93
f 73 82 93
f 74 93 94
f 75 94 95
f 76 95 96
f 77 96 97
f 78 97 98
f 87 101 93
f 93 101 94
f 94 102 95
f 95 103 96
f 94 101 102
f 95 102 103
f 96 103 104
f 96 104 97
f 97 105 98
f 97 104 105
f 98 105 106
f 98 113 99
f 78 98 99
f 98 106 113
f 87 88 101
f 88 89 108
f 89 90 109
f 90 100 110
f 100 114 111
f 101 107 102
f 102 108 103
f 103 109 104
f 104 110 105
f 105 111 106
f 88 107 101
f 88 108 107
f 89 109 108
f 90 110 109
f 102 107 108
f 103 108 109
f 104 109 110
f 100 111 110
f 111 114 112
f 105 110 111
f 106 111 112
f 106 115 113
f 112 114 115
f 106 112 115
f 43 80 116
f 45 116 117
f 46 117 118
f 44 118 92
f 1 17 39
f 1 39 26
f 17 40 39
f 8 11 22
f 54 22 11
f 21 8 22
f 11 51 54
f 47 53 51
f 53 54 51
