# MAAS exact compiled indexed mesh
# program_hash 07c573109acc09c1fdd81f5054ea6026e525adf575fd15a04f3fccb58bd2a11b
# geometry_hash ce227764b43e018a02257d6eb0b48be5b6d3cfb0368184c939394eabe30d0b62
v -14.95231495 -9.75991762 0
v -1.47689766 -9.75991762 0
v -1.47689766 -8.90998334 0
v -14.95231495 -9.75991762 11.4
v -1.47689766 -9.75991762 11.4
v -1.47689766 -8.90998334 10.488
v -0.10742048 -4.76327036 10.488
v -1.47689766 -3.0104195 10.488
v -14.95231495 9.75991762 0
v -1.47689766 3.0104195 0
v -1.47689766 4.6921249 0
v -0.10742048 4.76327036 0
v -1.47689766 8.90998334 0
v -1.47689766 9.75991762 0
v -14.95231495 9.75991762 11.4
v -1.47689766 8.90998334 10.488
v -1.47689766 9.75991762 11.4
v 7.0927924 -15.605359 0
v 14.9523097 -5.54563559 0
v 7.0927924 -15.605359 10.488
v 1.64123658 -4.85411451 10.488
v 14.9523097 -5.54563559 10.488
v 1.64123658 4.85411451 0
v 7.0927924 15.605359 0
v 7.85421984 0 0
v 14.9523097 5.54563559 0
v 7.0927924 15.605359 10.488
v 7.85421984 0 10.488
v 14.9523097 5.54563559 10.488
f 12 10 11
f 12 11 13
f 12 13 24
f 12 24 23
f 24 13 16
f 23 26 25
f 25 26 29
f 23 24 26
f 24 29 26
f 7 27 8
f 7 21 27
f 27 16 8
f 21 28 27
f 24 16 27
f 25 29 28
f 28 29 27
f 24 27 29
f 7 8 6
f 18 20 3
f 18 3 10
f 12 18 10
f 12 23 18
f 23 25 18
f 18 19 20
f 18 25 19
f 19 25 22
f 20 6 3
f 7 6 20
f 7 20 21
f 19 22 20
f 21 20 22
f 22 25 28
f 21 22 28
f 1 9 2
f 1 2 5
f 9 3 2
f 1 5 4
f 1 4 15
f 4 5 17
f 1 15 9
f 9 15 14
f 9 10 3
f 9 11 10
f 9 13 11
f 14 13 9
f 4 17 15
f 15 17 14
f 2 3 5
f 5 3 6
f 5 6 17
f 17 6 8
f 14 16 13
f 17 8 16
f 14 17 16
