# MAAS exact compiled indexed mesh
# program_hash 79d6da69c8b3e83e85b427fbc3e4bdcc41b28f683d751a202f0f6a789dec2739
# geometry_hash 17d82ed90c1bb363b448c42858c26804c5f535601c4e8204e8ba50df66bc59d5
v -15.39779687 -11.04624558 0
v -4.01681657 -11.04624558 0
v -15.39779687 -11.04624558 7.3220339
v -14.72832744 -8.36836786 7.3220339
v -14.72832744 -8.36836786 10.86101695
v -8.70310258 -3.38918899 10.86101695
v -4.01681657 -11.04624558 7.3220339
v -4.01681657 -8.36836786 7.2
v -4.01681657 -8.36836786 7.3220339
v -4.01681657 -7.02942901 7.2
v -4.01681657 -8.36836786 10.86101695
v -4.01681657 -7.02942901 10.86101695
v -15.39779687 7.02942901 0
v -4.01681657 7.02942901 0
v -14.72832744 3.01261243 7.3220339
v -8.70310258 3.01261243 7.3220339
v -14.72832744 3.01261243 10.86101695
v -8.70310258 3.01261243 10.86101695
v -15.39779687 7.02942901 7.3220339
v -8.70310258 5.69049015 7.3220339
v -8.70310258 5.69049015 10.86101695
v -4.01681657 5.69049015 7.2
v -4.01681657 5.69049015 7.3220339
v -4.01681657 7.02942901 7.3220339
v 4.01681657 -5.69049015 0
v 15.39779687 -5.69049015 0
v 4.01681657 -5.69049015 7.2
v 4.95407378 -2.343143 10.86101695
v 4.95407378 -2.343143 14.4
v 8.70310258 -7.02942901 7.2
v 8.70310258 -5.69049015 7.2
v 8.70310258 -5.69049015 7.3220339
v 15.39779687 -5.69049015 7.3220339
v 8.70310258 -7.02942901 10.86101695
v 8.70310258 -3.68208186 7.3220339
v 15.39779687 -3.68208186 7.3220339
v 8.70310258 -3.68208186 10.86101695
v 8.70310258 -2.343143 10.86101695
v 15.39779687 -3.68208186 10.86101695
v 13.65717635 -2.343143 10.86101695
v 13.65717635 -2.343143 14.4
v 4.01681657 11.04624558 0
v 15.39779687 11.04624558 0
v 4.01681657 5.69049015 7.2
v 4.01681657 5.69049015 7.3220339
v 4.01681657 7.69889844 7.3220339
v 4.01681657 11.04624558 7.3220339
v 4.01681657 5.69049015 10.86101695
v 4.95407378 5.69049015 10.86101695
v 4.95407378 6.35995958 10.86101695
v 4.01681657 7.69889844 10.86101695
v 4.95407378 6.35995958 14.4
v 15.39779687 7.69889844 7.3220339
v 15.39779687 11.04624558 7.3220339
v 13.65717635 6.35995958 10.86101695
v 15.39779687 7.69889844 10.86101695
v 13.65717635 6.35995958 14.4
f 1 2 3
f 2 7 3
f 1 13 2
f 1 3 19
f 2 14 7
f 7 14 8
f 8 14 10
f 3 7 4
f 3 4 15
f 3 15 19
f 4 7 9
f 7 8 9
f 1 19 13
f 2 13 14
f 13 24 14
f 13 19 24
f 10 14 22
f 14 24 22
f 15 16 19
f 16 20 19
f 19 20 23
f 19 23 24
f 22 24 23
f 25 27 44
f 25 26 27
f 26 31 27
f 26 33 31
f 25 42 26
f 26 43 33
f 31 33 32
f 32 33 35
f 33 36 35
f 25 47 42
f 25 44 47
f 26 42 43
f 33 43 36
f 36 43 53
f 42 54 43
f 42 47 54
f 43 54 53
f 44 45 46
f 44 46 47
f 46 53 47
f 47 53 54
f 6 12 18
f 12 34 21
f 16 18 20
f 18 21 20
f 10 22 44
f 12 21 18
f 20 21 23
f 21 45 23
f 22 23 45
f 21 48 45
f 10 27 30
f 10 34 12
f 10 30 34
f 27 31 30
f 10 44 27
f 21 34 28
f 34 37 28
f 37 38 28
f 30 31 32
f 30 32 34
f 32 35 37
f 32 37 34
f 21 28 48
f 28 49 48
f 22 45 44
f 4 11 5
f 5 11 6
f 4 5 15
f 5 17 15
f 5 6 17
f 4 9 11
f 8 10 9
f 9 10 11
f 10 12 11
f 6 11 12
f 15 17 16
f 16 17 18
f 6 18 17
f 35 39 37
f 35 36 39
f 37 40 38
f 37 39 40
f 45 51 46
f 45 48 51
f 48 49 50
f 48 50 51
f 51 50 55
f 36 56 39
f 36 53 56
f 39 56 40
f 56 55 40
f 46 51 53
f 51 56 53
f 51 55 56
f 29 28 38
f 29 38 41
f 41 38 40
f 29 49 28
f 29 52 49
f 52 50 49
f 29 41 52
f 52 41 57
f 41 40 57
f 57 40 55
f 52 55 50
f 52 57 55
