# MAAS exact compiled indexed mesh
# program_hash df87939282545770d48a585e64b25664c46269aa4fdc4c988befa6099280582b
# geometry_hash 66efd7b9033a27bfe5bf05734811af19db3534043426c3ffab393d9ced288514
v -9.44997976 -6.16834412 0
v -0.93341085 -6.16834412 0
v -0.93341085 -5.63117902 0.66
v -9.44997976 -6.16834412 16.5
v -0.93341085 -6.16834412 16.5
v -0.93341085 -5.63117902 15.84
v -0.06789058 -3.01042405 15.84
v -0.93341085 -1.90260862 15.84
v -9.44997976 6.16834412 0
v -0.93341085 1.90260862 0.66
v -0.06789058 3.01042405 0.66
v -0.93341085 5.63117902 0.66
v -0.93341085 6.16834412 0
v -9.44997976 6.16834412 16.5
v -0.93341085 5.63117902 15.84
v -0.93341085 6.16834412 16.5
v 4.48270016 -9.8627087 0.66
v 9.44997645 -3.50488498 0.66
v 4.48270016 -9.8627087 15.84
v 1.03727433 -3.06783826 15.84
v 9.44997645 -3.50488498 15.84
v 1.03727433 3.06783826 0.66
v 4.48270016 9.8627087 0.66
v 4.96392824 0 0.66
v 9.44997645 3.50488498 0.66
v 4.48270016 9.8627087 15.84
v 4.96392824 0 15.84
v 9.44997645 3.50488498 15.84
f 11 10 12
f 11 12 23
f 11 23 22
f 23 12 15
f 22 25 24
f 24 25 28
f 22 23 25
f 23 28 25
f 7 26 8
f 7 20 26
f 26 15 8
f 20 27 26
f 23 15 26
f 24 28 27
f 27 28 26
f 23 26 28
f 7 8 6
f 17 19 3
f 17 3 10
f 11 17 10
f 11 22 17
f 22 24 17
f 17 18 19
f 17 24 18
f 18 24 21
f 19 6 3
f 7 6 19
f 7 19 20
f 18 21 19
f 20 19 21
f 21 24 27
f 20 21 27
f 1 9 2
f 1 2 5
f 1 5 4
f 1 4 14
f 4 5 16
f 1 14 9
f 9 14 13
f 9 13 2
f 4 16 14
f 14 16 13
f 2 3 5
f 2 10 3
f 5 3 6
f 5 6 16
f 16 6 8
f 2 12 10
f 2 13 12
f 13 15 12
f 16 8 15
f 13 16 15
