# MAAS exact compiled indexed mesh
# program_hash e043cab84f36dbc24da756bfb28ce4380ae049a2a4d08d448cec175bf0c51efb
# geometry_hash cba0a8fdbbd651d45a0a6bde08b2c1d87664797d18cd9547af131eb4fb9f72bf
v -15.39332088 -10.9952292 0
v -15.39332088 -10.9952292 4.75299
v -6.59713752 -10.9952292 4.75299
v -6.59713752 -10.9952292 9.9
v -15.39332088 10.9952292 0
v -15.39332088 10.9952292 4.75299
v -6.59713752 10.9952292 4.75299
v -6.59713752 10.9952292 9.9
v 6.59713752 -10.9952292 0
v 6.59713752 -10.9952292 4.75101
v 6.59713752 -10.9952292 4.75299
v 15.39332088 -10.9952292 4.75101
v 15.39332088 -10.9952292 9.9
v 6.59713752 10.9952292 0
v 6.59713752 10.9952292 4.75101
v 6.59713752 10.9952292 4.75299
v 15.39332088 10.9952292 4.75101
v 4.39809168 0 4.95
v 4.39809168 3.32055922 4.95
v 4.39809168 0 9.9
v 4.39809168 3.32055922 9.9
v 4.39809168 7.67466998 4.95
v 7.61978546 7.67466998 4.95
v 4.39809168 10.9952292 4.95
v 7.28529148 10.14864082 4.95
v 4.39809168 7.67466998 9.9
v 7.61978546 7.67466998 9.9
v 4.39809168 10.9952292 9.9
v 7.28529148 10.14864082 9.9
v 8.61412583 0.32036997 4.95
v 8.20848433 3.32055922 4.95
v 12.50612109 0.84658838 4.95
v 15.39332088 0 4.95
v 12.17162711 3.32055922 4.95
v 15.39332088 3.32055922 4.95
v 8.61412583 0.32036997 9.9
v 8.20848433 3.32055922 9.9
v 9.35679576 3.32055922 9.9
v 12.50612109 0.84658838 9.9
v 15.39332088 0 9.9
v 12.17162711 3.32055922 9.9
v 15.39332088 3.32055922 9.9
v 11.17728673 10.67485923 4.95
v 11.58292823 7.67466998 4.95
v 15.39332088 7.67466998 4.95
v 15.39332088 10.9952292 4.95
v 10.43461681 7.67466998 9.9
v 11.17728673 10.67485923 9.9
v 11.58292823 7.67466998 9.9
v 15.39332088 7.67466998 9.9
f 4 3 11
f 4 8 3
f 8 7 3
f 4 20 8
f 8 24 7
f 12 11 10
f 4 11 12
f 4 13 20
f 12 33 13
f 4 12 13
f 13 33 40
f 13 40 20
f 24 46 7
f 46 16 7
f 12 17 33
f 33 17 35
f 17 15 16
f 35 17 45
f 17 16 46
f 45 17 46
f 8 20 21
f 8 21 26
f 8 28 24
f 8 26 28
f 1 9 2
f 1 5 9
f 1 2 6
f 2 10 3
f 2 9 10
f 1 6 5
f 6 7 5
f 5 14 9
f 5 15 14
f 5 7 16
f 5 16 15
f 10 11 3
f 9 15 10
f 9 14 15
f 18 31 19
f 18 30 31
f 18 19 21
f 18 21 20
f 22 25 24
f 22 23 25
f 24 25 43
f 22 24 28
f 22 28 26
f 18 33 30
f 18 20 33
f 30 33 32
f 32 35 34
f 32 33 35
f 33 20 40
f 24 43 46
f 44 46 43
f 44 45 46
f 19 31 37
f 19 37 21
f 21 37 26
f 37 38 26
f 22 26 23
f 23 26 27
f 34 35 42
f 35 45 42
f 38 41 26
f 26 41 42
f 34 42 41
f 44 49 45
f 26 42 27
f 27 42 47
f 45 50 42
f 45 49 50
f 42 49 47
f 42 50 49
f 23 29 25
f 23 27 29
f 30 37 31
f 30 32 36
f 32 34 39
f 30 36 37
f 32 39 36
f 36 38 37
f 36 39 38
f 38 39 41
f 34 41 39
f 44 43 49
f 25 48 43
f 25 29 48
f 43 48 49
f 27 47 29
f 29 47 48
f 47 49 48
f 12 10 15
f 12 15 17
f 2 3 6
f 6 3 7
