# MAAS exact compiled indexed mesh
# program_hash a9f62eeaebab2f304e700f50aa349d1b61244559ea7e5c635b60c3e9b15fe360
# geometry_hash e4b9160fa220f58bed65adc30a3e9d117e441de9ad4da63b59a78349f3c69068
v -12.56836189 -12.56836189 3.025
v -12.95070646 -12.56836189 6.4625
v -12.56836189 -12.56836189 6.4625
v -12.18601732 -12.56836189 9.9
v -9.32450865 8.04375161 0
v -9.32450865 12.56836189 0
v -12.56836189 12.56836189 3.025
v -9.32450865 8.04375161 3.025
v -9.32450865 12.56836189 3.025
v -12.95070646 12.56836189 6.4625
v -12.56836189 12.56836189 6.4625
v -12.18601732 12.56836189 9.9
v 12.56836189 -12.56836189 3.025
v 12.18601732 -12.56836189 6.4625
v 12.56836189 -12.56836189 6.4625
v 12.95070646 -12.56836189 9.9
v 9.32450865 8.04375161 0
v 9.32450865 12.56836189 0
v 9.32450865 8.04375161 3.025
v 9.32450865 12.56836189 3.025
v 12.56836189 12.56836189 3.025
v 12.18601732 12.56836189 6.4625
v 12.56836189 12.56836189 6.4625
v 12.95070646 12.56836189 9.9
f 1 13 3
f 1 3 11
f 1 7 8
f 1 11 7
f 7 9 8
f 1 8 19
f 7 23 9
f 7 11 22
f 1 19 13
f 13 21 15
f 3 13 14
f 13 15 14
f 23 20 9
f 13 19 20
f 13 20 21
f 21 20 23
f 7 22 23
f 15 21 23
f 2 3 4
f 2 4 12
f 3 14 4
f 4 16 12
f 2 12 10
f 10 24 11
f 10 12 24
f 4 14 16
f 14 22 16
f 12 16 24
f 11 24 22
f 16 22 24
f 14 15 23
f 14 23 22
f 2 11 3
f 2 10 11
f 5 8 6
f 6 8 9
f 5 19 8
f 5 6 17
f 6 9 18
f 5 17 19
f 6 18 17
f 18 9 20
f 17 18 20
f 17 20 19
