# MAAS exact compiled indexed mesh
# program_hash 873c18bb8ec98f3c849452415b52ef6a34fea8629680cf3bcc4616a8c1cc1adf
# geometry_hash 2a564a7f716323eec3273803d5ad4036ba69b6e14aa061d9e707e568a8369f78
v -16.02084298 -8.46258514 0
v -13.85765561 -12.0627335 0
v -11.94342277 -8.46258514 0
v -16.02084298 -8.46258514 4.63313285
v -13.85765561 -12.0627335 4.63313285
v -11.94342277 -8.46258514 6.26537249
v -8.35435496 -1.71253032 0
v -6.02318898 -16.2283933 0
v -1.89403554 -8.46258514 0
v -6.02318898 -16.2283933 4.63313285
v -4.93968333 -2.6581317 0
v -1.89403554 -8.46258514 8.15400439
v -16.02084298 0.41049713 0
v -16.02084298 0.41049713 4.63313285
v -7.22552124 0.41049713 0
v -7.22552124 0.41049713 8.15400439
v -1.93431389 10.36181082 14.8
v 0.40524578 -4.13826591 0
v 16.02084298 -8.46258514 0
v 9.37652431 -8.46258514 14.8
v 16.02084298 -8.46258514 14.8
v 2.82386599 0.41049713 0
v 1.18500478 16.22839599 0
v 16.02084298 0.41049713 0
v 9.0194714 12.06273619 0
v 2.82386599 0.41049713 12.17689321
v 5.90015273 6.19615102 14.8
v 1.18500478 16.22839599 14.8
v 9.37652431 0.41049713 14.8
v 16.02084298 0.41049713 14.8
v 9.0194714 12.06273619 14.8
f 1 6 4
f 1 3 6
f 1 13 3
f 1 4 14
f 1 14 13
f 13 7 3
f 7 11 3
f 13 15 7
f 20 6 12
f 13 14 15
f 14 16 15
f 19 12 9
f 19 9 18
f 19 18 22
f 19 22 24
f 19 24 21
f 19 20 12
f 19 21 20
f 21 24 30
f 20 30 29
f 20 21 30
f 24 22 26
f 24 26 30
f 29 30 26
f 2 5 6
f 2 6 3
f 8 5 2
f 8 10 5
f 2 3 11
f 8 2 9
f 8 9 10
f 2 18 9
f 10 9 12
f 2 11 22
f 11 7 15
f 2 22 18
f 23 11 15
f 23 15 28
f 17 15 16
f 17 16 6
f 17 28 15
f 25 22 11
f 25 26 22
f 25 11 23
f 25 23 31
f 25 27 26
f 31 23 28
f 25 31 27
f 27 28 17
f 27 31 28
f 4 16 14
f 4 6 16
f 29 26 6
f 20 29 6
f 10 6 5
f 10 12 6
f 17 6 26
f 27 17 26
