# MAAS exact compiled indexed mesh
# program_hash a4eb425427cb7febc5545d5c975b76a86cb85a5e3854788b1ff91706bc36d6aa
# geometry_hash e8c4650db71a69f7bad47c90305ad251cad283796f8cd9a5c441c7a531d6ace0
v -12.156925 -15.43524578 0
v -12.156925 -13.26325595 0
v -12.156925 -11.09126611 0
v -12.156925 -8.91927627 0
v -12.156925 -15.43524578 3.6
v -12.156925 -13.26325595 3.6
v -12.156925 -11.09126611 3.6
v -12.156925 -8.91927627 3.6
v -12.156925 -6.74728643 0
v -12.156925 -6.74728643 3.6
v -3.16459472 -9.01522308 0
v -1.26031937 -12.91956615 0
v -2.21245704 -10.96739462 0
v -1.26031937 -12.91956615 3.6
v -5.06887007 -5.11088001 0
v -4.11673239 -7.06305155 0
v -5.06887007 -5.11088001 3.6
v -12.156925 -15.43524578 7.2
v -12.156925 -13.26325595 7.2
v -12.156925 -11.09126611 7.2
v -12.156925 -8.91927627 7.2
v -12.156925 -15.43524578 10.8
v -12.156925 -13.26325595 10.8
v -12.156925 -15.43524578 14.4
v -12.156925 -13.26325595 14.4
v -12.156925 -11.09126611 10.8
v -12.156925 -8.91927627 10.8
v -12.156925 -11.09126611 14.4
v -12.156925 -8.91927627 14.4
v -12.156925 -6.74728643 7.2
v -12.156925 -6.74728643 10.8
v -12.156925 -6.74728643 14.4
v -1.26031937 -12.91956615 7.2
v -3.16459472 -9.01522308 14.4
v -1.26031937 -12.91956615 10.8
v -1.26031937 -12.91956615 14.4
v -2.21245704 -10.96739462 14.4
v -5.06887007 -5.11088001 7.2
v -5.06887007 -5.11088001 10.8
v -5.06887007 -5.11088001 14.4
v -4.11673239 -7.06305155 14.4
v 0.58447814 -0.5328889 0
v 2.29602949 -1.87009937 0
v 5.71913219 -4.5445203 0
v 4.00758084 -3.20730983 0
v 0.58447814 -0.5328889 3.6
v 7.43068354 -5.88173077 0
v 7.43068354 -5.88173077 3.6
v 0.58447814 -0.5328889 7.2
v 0.58447814 -0.5328889 10.8
v 0.58447814 -0.5328889 14.4
v 2.29602949 -1.87009937 14.4
v 5.71913219 -4.5445203 14.4
v 4.00758084 -3.20730983 14.4
v 7.43068354 -5.88173077 7.2
v 7.43068354 -5.88173077 10.8
v 7.43068354 -5.88173077 14.4
v 3.65881464 6.060047 0
v 5.78334128 5.60846492 0
v 3.65881464 6.060047 3.6
v 3.53185711 13.33343894 0
v 5.63932956 13.85889084 0
v 3.53185711 13.33343894 3.6
v 5.63932956 13.85889084 3.6
v 7.90786793 5.15688284 0
v 10.03239458 4.70530076 0
v 12.15692123 4.25371868 0
v 12.15692123 4.25371868 3.6
v 7.74680202 14.38434274 0
v 9.85427448 14.90979464 0
v 11.96174694 15.43524654 0
v 7.74680202 14.38434274 3.6
v 9.85427448 14.90979464 3.6
v 11.96174694 15.43524654 3.6
v 3.65881464 6.060047 7.2
v 3.65881464 6.060047 10.8
v 3.65881464 6.060047 14.4
v 5.78334128 5.60846492 14.4
v 3.53185711 13.33343894 7.2
v 5.63932956 13.85889084 7.2
v 3.53185711 13.33343894 10.8
v 5.63932956 13.85889084 10.8
v 3.53185711 13.33343894 14.4
v 5.63932956 13.85889084 14.4
v 12.15692123 4.25371868 7.2
v 7.90786793 5.15688284 14.4
v 12.15692123 4.25371868 10.8
v 10.03239458 4.70530076 14.4
v 12.15692123 4.25371868 14.4
v 7.74680202 14.38434274 7.2
v 9.85427448 14.90979464 7.2
v 11.96174694 15.43524654 7.2
v 7.74680202 14.38434274 10.8
v 7.74680202 14.38434274 14.4
v 9.85427448 14.90979464 10.8
v 11.96174694 15.43524654 10.8
v 9.85427448 14.90979464 14.4
v 11.96174694 15.43524654 14.4
f 2 1 6
f 3 2 7
f 6 1 5
f 7 2 6
f 4 3 8
f 3 4 11
f 8 3 7
f 10 4 8
f 12 1 2
f 5 1 12
f 13 2 3
f 4 16 11
f 19 6 5
f 7 6 20
f 19 5 18
f 20 6 19
f 8 7 21
f 20 21 7
f 21 30 8
f 5 14 18
f 10 9 4
f 4 9 16
f 17 9 10
f 16 9 15
f 15 9 17
f 10 8 30
f 38 10 30
f 38 17 10
f 13 12 2
f 5 12 14
f 3 11 13
f 33 18 14
f 46 15 17
f 43 16 15
f 11 16 45
f 43 15 42
f 42 15 46
f 49 17 38
f 46 17 49
f 18 23 19
f 26 20 19
f 18 22 23
f 26 19 23
f 20 27 21
f 27 20 26
f 27 31 21
f 33 22 18
f 22 25 23
f 23 28 26
f 22 24 25
f 23 25 28
f 29 27 26
f 29 26 28
f 29 32 27
f 34 29 28
f 35 24 22
f 25 24 36
f 25 37 28
f 41 29 34
f 21 31 30
f 30 31 39
f 30 39 38
f 27 32 31
f 31 32 40
f 41 32 29
f 31 40 39
f 40 32 41
f 35 22 33
f 36 24 35
f 25 36 37
f 34 28 37
f 50 38 39
f 50 49 38
f 39 40 51
f 40 41 52
f 54 41 34
f 39 51 50
f 40 52 51
f 47 12 13
f 44 13 11
f 12 47 14
f 14 47 48
f 14 48 33
f 55 33 48
f 45 16 43
f 11 45 44
f 44 47 13
f 66 44 45
f 67 47 44
f 47 67 48
f 48 68 55
f 55 35 33
f 35 55 56
f 36 35 56
f 36 57 37
f 37 53 34
f 36 56 57
f 41 54 52
f 54 34 53
f 37 57 53
f 56 55 85
f 87 57 56
f 53 88 54
f 57 89 53
f 42 59 43
f 60 42 46
f 58 42 60
f 42 58 59
f 65 45 43
f 65 43 59
f 49 75 46
f 60 46 75
f 58 61 62
f 63 61 58
f 58 62 59
f 63 58 60
f 62 61 64
f 64 61 63
f 63 60 79
f 75 79 60
f 80 64 63
f 80 63 79
f 66 45 65
f 66 67 44
f 48 67 68
f 55 68 85
f 59 69 65
f 59 62 69
f 70 65 69
f 69 62 72
f 72 62 64
f 73 69 72
f 70 66 65
f 66 71 67
f 67 71 68
f 70 71 66
f 70 69 73
f 74 71 70
f 74 70 73
f 68 71 74
f 72 64 90
f 90 64 80
f 90 91 72
f 85 68 74
f 73 72 91
f 74 73 92
f 91 92 73
f 85 74 92
f 76 49 50
f 49 76 75
f 77 50 51
f 78 51 52
f 77 76 50
f 78 77 51
f 52 54 86
f 52 86 78
f 75 81 79
f 76 81 75
f 79 82 80
f 79 81 82
f 76 83 81
f 77 83 76
f 84 83 77
f 84 77 78
f 81 84 82
f 81 83 84
f 56 85 87
f 54 88 86
f 87 89 57
f 53 89 88
f 93 90 80
f 93 80 82
f 95 90 93
f 92 87 85
f 90 95 91
f 91 96 92
f 95 96 91
f 92 96 87
f 94 78 86
f 94 84 78
f 86 97 94
f 82 94 93
f 82 84 94
f 97 93 94
f 96 89 87
f 86 88 97
f 89 98 88
f 97 95 93
f 95 98 96
f 88 98 97
f 97 98 95
f 96 98 89
