# MAAS exact compiled indexed mesh
# program_hash c82ffef217e58f03275e82e41836c2002aadc5e5d1f8522637d05994d68fe22b
# geometry_hash 5650ec618e8916d4ea10bfd9f4c3bab1b1a230871039f38edf8f2a65a8544096
v -8.15871301 -10.67115364 2.95889821
v -9.49837139 -9.49837139 0
v -8.66120114 -6.90518031 2.95889821
v -6.67571487 -11.65645525 5.91779643
v -7.67186294 -7.99002123 5.91779643
v -9.49837139 -5.69902283 0
v -9.49837139 -1.89967428 0
v -9.16368926 -3.13920698 2.95889821
v -8.66801102 -4.3235872 5.91779643
v -9.6641591 -0.65715318 5.91779643
v -4.39273968 -10.16866551 2.95889821
v -5.69902283 -9.49837139 0
v -1.89967428 -9.49837139 0
v -0.62676635 -9.66617739 2.95889821
v -3.00928084 -10.66030718 5.91779643
v -5.69902283 -5.69902283 0
v -5.69902283 -1.89967428 0
v -1.89967428 -5.69902283 0
v -1.89967428 -1.89967428 0
v -8.02004519 -5.43200668 8.87669464
v -7.23117583 -6.44499166 11.83559286
v -9.49235197 -1.92952724 8.87669464
v -9.15377448 -3.16800159 11.83559286
v -10.9934876 -1.35689006 14.79449107
v -8.65437506 -4.35081758 14.79449107
v -8.54129599 -0.05568827 14.79449107
v -8.51737692 -0.47871081 16.5
v -7.13121295 -2.33157564 14.79449107
v -7.28143184 -2.13930423 14.79449107
v -6.86689911 -2.59122607 16.5
v -7.98647336 -1.00136054 14.79449107
v -7.83625447 -1.19363195 14.79449107
v -7.69213802 -1.53496844 16.5
v -5.07543162 -12.43696554 8.87669464
v -3.38597853 -12.99897178 11.83559286
v -6.54773841 -8.93448611 8.87669464
v -5.30857718 -9.72198172 11.83559286
v -1.57295219 -10.96465876 8.87669464
v -0.10898847 -11.07637313 11.83559286
v -3.97614999 -10.33867262 14.79449107
v -6.31526253 -7.3447451 14.79449107
v -1.63703745 -13.33260014 14.79449107
v -0.98222247 -7.99956008 14.79449107
v -5.87134881 -4.4151916 14.79449107
v -6.42617143 -3.46951933 14.79449107
v -5.72112992 -4.60746301 14.79449107
v -6.04166021 -3.6474837 16.5
v -5.21642131 -4.70374133 16.5
v -4.77545764 -4.05264038 14.79449107
v -4.58318623 -3.90242149 14.79449107
v -3.63751395 -3.34759886 14.79449107
v -4.16016368 -3.87850243 16.5
v -6.57639032 -3.27724792 14.79449107
v -5.81064149 -1.76598717 16.5
v -6.63588039 -0.70972954 16.5
v -3.44524254 -3.19737998 14.79449107
v -4.98540258 -2.8222448 16.5
v -3.92914496 -1.99700589 16.5
v -4.75438386 -0.94074827 16.5
v -3.69812623 -0.11550936 16.5
v -3.32133501 -5.00563256 14.79449107
v -2.49957027 -2.64255735 14.79449107
v -2.30729886 -2.49233846 14.79449107
v -3.10390605 -3.05326352 16.5
v -2.04764842 -2.22802462 16.5
v -2.87288733 -1.17176699 16.5
v -1.8166297 -0.34652809 16.5
v -1.36162658 -1.93751583 14.79449107
v -1.16935517 -1.78729694 14.79449107
v -0.32740749 -2.66652003 14.79449107
v -0.22368289 -1.23247431 14.79449107
v -0.03141148 -1.08225542 14.79449107
v -0.58623411 -0.13658314 14.79449107
v -0.9913908 -1.40278572 16.5
v -10.16866551 4.39273968 2.95889821
v -9.49837139 1.89967428 0
v -9.66617739 0.62676635 2.95889821
v -9.49837139 5.69902283 0
v -10.66030718 3.00928084 5.91779643
v -10.67115364 8.15871301 2.95889821
v -9.49837139 9.49837139 0
v -6.90518031 8.66120114 2.95889821
v -11.65645525 6.67571487 5.91779643
v -7.99002123 7.67186294 5.91779643
v -5.69902283 1.89967428 0
v -5.69902283 5.69902283 0
v -1.89967428 1.89967428 0
v -1.89967428 5.69902283 0
v -5.69902283 9.49837139 0
v -1.89967428 9.49837139 0
v -3.13920698 9.16368926 2.95889821
v -4.3235872 8.66801102 5.91779643
v -0.65715318 9.6641591 5.91779643
v -10.96465876 1.57295219 8.87669464
v -11.07637313 0.10898847 11.83559286
v -12.43696554 5.07543162 8.87669464
v -12.99897178 3.38597853 11.83559286
v -8.93448611 6.54773841 8.87669464
v -9.72198172 5.30857718 11.83559286
v -13.33260014 1.63703745 14.79449107
v -10.33867262 3.97614999 14.79449107
v -9.24633751 1.08225542 14.79449107
v -8.69151488 0.13658314 14.79449107
v -9.0540661 1.23247431 14.79449107
v -9.34261582 0.57754681 16.5
v -8.2863582 1.40278572 16.5
v -7.46111929 0.34652809 16.5
v -8.10839382 1.78729694 14.79449107
v -7.91612241 1.93751583 14.79449107
v -6.97045013 2.49233846 14.79449107
v -6.77817873 2.64255735 14.79449107
v -7.23010057 2.22802462 16.5
v -7.3447451 6.31526253 14.79449107
v -6.40486166 1.17176699 16.5
v -5.57962276 0.11550936 16.5
v -5.83250645 3.19737998 14.79449107
v -6.17384294 3.05326352 16.5
v -5.34860404 1.99700589 16.5
v -4.52336513 0.94074827 16.5
v -4.29234641 2.8222448 16.5
v -3.4671075 1.76598717 16.5
v -5.64023504 3.34759886 14.79449107
v -5.11758531 3.87850243 16.5
v -4.69456276 3.90242149 14.79449107
v -4.50229135 4.05264038 14.79449107
v -3.40640019 4.4151916 14.79449107
v -3.55661907 4.60746301 14.79449107
v -4.06132768 4.70374133 16.5
v -2.6418686 0.70972954 16.5
v -2.70135867 3.27724792 14.79449107
v -2.14653604 2.33157564 14.79449107
v -1.99631715 2.13930423 14.79449107
v -2.41084988 2.59122607 16.5
v -1.29127563 1.00136054 14.79449107
v -1.44149452 1.19363195 14.79449107
v -0.736453 0.05568827 14.79449107
v -1.58561097 1.53496844 16.5
v -0.76037207 0.47871081 16.5
v -2.85157756 3.46951933 14.79449107
v -3.23608878 3.6474837 16.5
v -2.01170505 5.66044755 14.79449107
v -5.43200668 8.02004519 8.87669464
v -6.44499166 7.23117583 11.83559286
v -1.92952724 9.49235197 8.87669464
v -3.16800159 9.15377448 11.83559286
v -4.35081758 8.65437506 14.79449107
v -1.35689006 10.9934876 14.79449107
v 1.89967428 -9.49837139 0
v 3.13920698 -9.16368926 2.95889821
v 5.69902283 -9.49837139 0
v 0.65715318 -9.6641591 5.91779643
v 4.3235872 -8.66801102 5.91779643
v 1.89967428 -5.69902283 0
v 1.89967428 -1.89967428 0
v 5.69902283 -5.69902283 0
v 5.69902283 -1.89967428 0
v 9.49837139 -9.49837139 0
v 6.90518031 -8.66120114 2.95889821
v 10.67115364 -8.15871301 2.95889821
v 7.99002123 -7.67186294 5.91779643
v 11.65645525 -6.67571487 5.91779643
v 9.49837139 -5.69902283 0
v 9.49837139 -1.89967428 0
v 9.66617739 -0.62676635 2.95889821
v 10.16866551 -4.39273968 2.95889821
v 10.66030718 -3.00928084 5.91779643
v 1.92952724 -9.49235197 8.87669464
v 3.16800159 -9.15377448 11.83559286
v 5.43200668 -8.02004519 8.87669464
v 6.44499166 -7.23117583 11.83559286
v 1.35689006 -10.9934876 14.79449107
v 4.35081758 -8.65437506 14.79449107
v 2.01170505 -5.66044755 14.79449107
v 0.06486683 -0.57754681 16.5
v 2.66652003 -0.32740749 14.79449107
v 5.00563256 -3.32133501 14.79449107
v 8.93448611 -6.54773841 8.87669464
v 9.72198172 -5.30857718 11.83559286
v 12.43696554 -5.07543162 8.87669464
v 12.99897178 -3.38597853 11.83559286
v 10.96465876 -1.57295219 8.87669464
v 11.07637313 -0.10898847 11.83559286
v 7.3447451 -6.31526253 14.79449107
v 7.99956008 -0.98222247 14.79449107
v 10.33867262 -3.97614999 14.79449107
v 13.33260014 -1.63703745 14.79449107
v 1.89967428 1.89967428 0
v 1.89967428 5.69902283 0
v 5.69902283 1.89967428 0
v 5.69902283 5.69902283 0
v 1.89967428 9.49837139 0
v 0.62676635 9.66617739 2.95889821
v 5.69902283 9.49837139 0
v 4.39273968 10.16866551 2.95889821
v 3.00928084 10.66030718 5.91779643
v 9.49837139 1.89967428 0
v 9.16368926 3.13920698 2.95889821
v 9.49837139 5.69902283 0
v 9.6641591 0.65715318 5.91779643
v 8.66801102 4.3235872 5.91779643
v 9.49837139 9.49837139 0
v 8.66120114 6.90518031 2.95889821
v 8.15871301 10.67115364 2.95889821
v 7.67186294 7.99002123 5.91779643
v 6.67571487 11.65645525 5.91779643
v 0.32740749 2.66652003 14.79449107
v 3.32133501 5.00563256 14.79449107
v 5.66044755 2.01170505 14.79449107
v 1.57295219 10.96465876 8.87669464
v 0.10898847 11.07637313 11.83559286
v 6.54773841 8.93448611 8.87669464
v 5.30857718 9.72198172 11.83559286
v 5.07543162 12.43696554 8.87669464
v 3.38597853 12.99897178 11.83559286
v 0.98222247 7.99956008 14.79449107
v 1.63703745 13.33260014 14.79449107
v 6.31526253 7.3447451 14.79449107
v 3.97614999 10.33867262 14.79449107
v 9.49235197 1.92952724 8.87669464
v 9.15377448 3.16800159 11.83559286
v 8.02004519 5.43200668 8.87669464
v 7.23117583 6.44499166 11.83559286
v 8.65437506 4.35081758 14.79449107
v 10.9934876 1.35689006 14.79449107
f 1 3 2
f 2 3 6
f 1 2 12
f 2 6 12
f 6 16 12
f 1 5 3
f 1 4 5
f 4 36 5
f 5 36 20
f 3 8 6
f 6 8 7
f 6 7 16
f 3 9 8
f 7 8 77
f 7 17 16
f 7 76 17
f 8 10 77
f 10 22 94
f 3 5 9
f 9 20 22
f 5 20 9
f 8 9 10
f 9 22 10
f 1 12 11
f 1 11 4
f 11 12 13
f 12 16 13
f 11 14 15
f 11 13 14
f 13 16 18
f 13 148 14
f 13 18 148
f 4 11 15
f 4 34 36
f 4 15 34
f 15 38 34
f 15 151 38
f 14 151 15
f 16 17 18
f 17 85 19
f 18 19 153
f 17 19 18
f 19 87 154
f 20 36 21
f 22 95 94
f 20 23 22
f 20 21 23
f 22 23 95
f 24 95 23
f 21 25 23
f 21 41 25
f 25 46 44
f 25 45 53
f 25 44 45
f 24 23 25
f 24 25 29
f 24 103 102
f 24 26 103
f 24 31 26
f 24 32 31
f 24 29 32
f 25 28 29
f 25 53 28
f 34 37 36
f 34 38 35
f 34 35 37
f 21 36 37
f 38 39 35
f 35 40 37
f 40 41 37
f 21 37 41
f 40 43 41
f 41 43 61
f 35 39 42
f 35 42 40
f 39 171 42
f 40 42 171
f 40 171 43
f 25 41 61
f 25 61 46
f 61 49 46
f 61 50 49
f 61 51 50
f 61 56 51
f 61 62 56
f 61 70 62
f 43 173 61
f 61 173 70
f 70 63 62
f 70 68 63
f 70 69 68
f 70 71 69
f 75 77 79
f 75 80 78
f 75 83 80
f 7 77 76
f 75 76 77
f 17 76 85
f 76 78 85
f 75 78 76
f 78 86 85
f 10 94 79
f 79 94 96
f 75 79 83
f 79 96 83
f 83 96 98
f 10 79 77
f 78 80 81
f 80 82 81
f 78 81 86
f 81 89 86
f 81 82 89
f 80 84 82
f 80 83 84
f 83 98 84
f 84 98 142
f 85 86 87
f 19 85 87
f 87 88 187
f 86 88 87
f 82 91 89
f 86 89 88
f 89 91 90
f 82 92 91
f 88 89 90
f 88 90 188
f 90 91 192
f 91 93 192
f 82 84 92
f 84 142 92
f 92 142 144
f 91 92 93
f 92 144 93
f 93 144 209
f 94 95 97
f 94 97 96
f 96 99 98
f 96 97 99
f 98 99 143
f 24 100 95
f 95 100 97
f 100 101 97
f 24 102 100
f 100 102 104
f 100 104 101
f 97 101 99
f 101 104 108
f 101 108 109
f 101 109 110
f 101 110 111
f 101 111 116
f 101 113 99
f 99 113 143
f 101 116 122
f 101 122 124
f 101 124 113
f 98 143 142
f 113 124 125
f 113 125 127
f 113 127 141
f 206 139 130
f 206 134 136
f 206 135 134
f 206 131 132
f 206 132 135
f 206 130 131
f 141 127 126
f 141 126 139
f 141 139 206
f 142 145 144
f 142 143 145
f 144 145 210
f 144 210 209
f 113 146 143
f 143 146 145
f 113 141 146
f 146 147 145
f 141 215 146
f 146 215 147
f 145 147 210
f 14 148 149
f 18 153 148
f 148 153 150
f 14 149 151
f 148 150 149
f 150 153 155
f 149 150 158
f 149 158 152
f 38 151 167
f 149 152 151
f 151 152 167
f 152 158 160
f 152 169 167
f 152 160 169
f 153 154 155
f 19 154 153
f 154 187 156
f 154 156 155
f 150 157 158
f 150 155 157
f 155 162 157
f 157 159 158
f 157 162 159
f 158 159 160
f 160 177 169
f 160 161 177
f 159 161 160
f 155 156 162
f 162 163 165
f 156 163 162
f 156 189 163
f 163 164 165
f 163 196 164
f 159 162 165
f 159 165 161
f 164 166 165
f 164 199 166
f 161 165 166
f 161 179 177
f 161 166 179
f 166 181 179
f 166 199 181
f 38 167 39
f 39 167 168
f 167 169 168
f 169 170 168
f 39 168 171
f 171 168 172
f 43 171 172
f 43 172 173
f 168 170 172
f 170 183 172
f 172 183 173
f 70 173 176
f 70 175 71
f 175 72 71
f 175 73 72
f 175 136 73
f 70 176 175
f 173 183 176
f 175 176 184
f 169 177 170
f 170 177 178
f 177 179 178
f 179 181 180
f 179 180 178
f 181 182 180
f 170 178 183
f 178 185 183
f 176 183 185
f 176 185 184
f 178 180 185
f 180 182 186
f 180 186 185
f 182 224 186
f 184 185 186
f 184 186 224
f 87 187 154
f 187 188 189
f 88 188 187
f 156 187 189
f 188 190 189
f 90 191 188
f 90 192 191
f 188 191 190
f 191 192 194
f 192 195 194
f 190 191 193
f 191 194 193
f 193 194 203
f 194 205 203
f 93 195 192
f 93 209 195
f 195 209 213
f 194 195 205
f 195 213 205
f 205 213 211
f 163 189 196
f 189 190 196
f 164 196 197
f 164 197 199
f 190 198 196
f 196 198 197
f 197 198 202
f 197 202 200
f 197 200 199
f 199 200 219
f 200 202 204
f 200 204 221
f 200 221 219
f 181 199 219
f 190 193 198
f 193 201 198
f 193 203 201
f 198 201 202
f 201 203 202
f 202 203 204
f 204 211 221
f 204 205 211
f 203 205 204
f 175 206 136
f 175 208 206
f 206 208 207
f 141 206 207
f 141 207 215
f 175 184 208
f 207 208 223
f 207 223 217
f 209 210 214
f 211 212 222
f 209 214 213
f 211 213 212
f 213 214 212
f 147 215 218
f 147 216 210
f 210 216 214
f 216 218 214
f 147 218 216
f 212 217 222
f 212 218 217
f 207 217 215
f 215 217 218
f 212 214 218
f 182 219 220
f 219 221 220
f 221 222 220
f 181 219 182
f 220 223 224
f 184 224 208
f 208 224 223
f 217 223 222
f 220 222 223
f 182 220 224
f 211 222 221
f 27 26 31
f 27 103 26
f 30 28 53
f 30 29 28
f 33 29 30
f 33 30 54
f 33 32 29
f 33 31 32
f 27 31 33
f 27 33 55
f 27 55 107
f 33 54 55
f 47 53 45
f 47 45 44
f 48 44 46
f 48 46 49
f 47 44 48
f 47 48 52
f 47 52 57
f 52 49 50
f 52 50 51
f 48 49 52
f 52 51 64
f 47 30 53
f 47 57 30
f 30 57 54
f 55 115 107
f 55 54 59
f 55 59 115
f 64 51 56
f 57 58 54
f 57 52 64
f 57 64 58
f 54 58 59
f 59 60 115
f 59 58 66
f 59 66 60
f 64 56 62
f 65 62 63
f 65 63 68
f 64 62 65
f 64 65 58
f 58 65 66
f 60 66 67
f 66 65 74
f 66 74 67
f 74 68 69
f 65 68 74
f 74 69 71
f 174 71 72
f 174 72 73
f 67 74 174
f 67 174 138
f 74 71 174
f 174 73 138
f 105 104 102
f 105 102 103
f 106 108 104
f 27 105 103
f 27 107 105
f 105 107 106
f 105 106 104
f 106 107 114
f 106 114 112
f 106 109 108
f 112 110 109
f 112 111 110
f 106 112 109
f 112 117 111
f 107 115 114
f 114 115 119
f 114 119 118
f 117 116 111
f 117 122 116
f 112 114 118
f 112 118 117
f 118 120 117
f 117 120 123
f 115 60 119
f 118 119 121
f 60 129 119
f 119 129 121
f 118 121 120
f 121 133 120
f 123 124 122
f 117 123 122
f 123 125 124
f 128 127 125
f 128 126 127
f 123 120 140
f 123 128 125
f 123 140 128
f 128 140 126
f 137 135 132
f 60 67 129
f 121 129 137
f 67 138 129
f 133 132 131
f 133 131 130
f 133 130 140
f 120 133 140
f 133 137 132
f 121 137 133
f 138 136 134
f 137 134 135
f 138 73 136
f 137 138 134
f 129 138 137
f 140 130 139
f 140 139 126
