# MAAS exact compiled indexed mesh
# program_hash 38fc5268b4e6f219a3dde02b0705ba4d0b346c95ab2fe67d3baf4f14b04fc4be
# geometry_hash 9361368ebf044c326371de7941a59e4f153964fd8056cee4ef327df1206905fb
v -13.36410665 -12.75664726 0
v -15.18648483 -10.32680968 3.56923077
v -13.36410665 -10.32680968 3.56923077
v -13.36410665 -12.75664726 3.69230769
v -13.36410665 -10.32680968 3.69230769
v -3.64475636 -12.75664726 0
v -3.64475636 -12.75664726 3.69230769
v -3.64475636 -10.32680968 3.69230769
v -3.64475636 -6.67137337 7.13846154
v -15.18648483 -10.32680968 7.26153846
v -12.75664726 -9.71935029 7.26153846
v -12.75664726 -9.71935029 10.83076923
v -12.14918786 -7.28951272 10.83076923
v -12.14918786 -7.28951272 14.4
v -12.14918786 -0.60745939 10.83076923
v -12.14918786 -0.60745939 14.4
v -4.85967515 -9.71935029 7.26153846
v -4.85967515 -7.01974572 7.26153846
v -3.64475636 -10.32680968 7.26153846
v -3.64475636 -6.67137337 7.26153846
v -4.85967515 -9.71935029 10.83076923
v -6.07459393 -7.28951272 10.83076923
v -4.85967515 -7.01974572 10.83076923
v -6.07459393 -7.28951272 14.4
v -6.07459393 -0.60745939 10.83076923
v -6.07459393 -0.60745939 14.4
v -15.18648483 1.21491879 3.56923077
v -13.36410665 1.21491879 3.56923077
v -13.36410665 1.21491879 3.69230769
v -13.36410665 11.54172847 0
v -13.36410665 11.54172847 3.69230769
v -3.64475636 4.85967515 0
v -3.64475636 4.85967515 3.56923077
v -4.79184885 1.21491879 7.13846154
v -6.68205333 4.85967515 3.69230769
v -3.64475636 1.21491879 3.69230769
v -3.64475636 1.21491879 7.13846154
v -3.64475636 4.85967515 3.69230769
v -6.07459393 11.54172847 0
v -6.07459393 12.75664726 0
v -6.68205333 11.54172847 3.56923077
v -6.68205333 12.75664726 3.56923077
v -6.07459393 11.54172847 3.56923077
v -6.07459393 12.75664726 3.56923077
v -6.68205333 11.54172847 3.69230769
v -15.18648483 1.21491879 7.26153846
v -12.75664726 1.21491879 7.26153846
v -12.75664726 1.21491879 10.83076923
v -4.85967515 1.19546991 7.26153846
v -4.85967515 1.21491879 7.26153846
v -4.79184885 1.21491879 7.26153846
v -6.68205333 4.85967515 7.26153846
v -4.85967515 1.19546991 10.83076923
v -4.85967515 1.21491879 10.83076923
v -6.68205333 12.75664726 7.26153846
v 3.64475636 -11.54172847 0
v 3.64475636 -11.54172847 3.69230769
v 3.64475636 -3.03729697 3.69230769
v 3.64475636 -3.03729697 7.13846154
v 7.51155217 -3.47235338 7.13846154
v 7.38680175 -3.03729697 7.13846154
v 13.36410665 -11.54172847 0
v 13.36410665 -11.54172847 3.69230769
v 13.36410665 -3.03729697 3.56923077
v 15.18648483 -3.03729697 3.56923077
v 13.36410665 -3.03729697 3.69230769
v 7.38680175 -3.03729697 7.26153846
v 6.51587086 -0 7.26153846
v 7.51155217 -3.47235338 10.83076923
v 6.51587086 -0 10.83076923
v 12.75664726 -0 7.26153846
v 15.18648483 -3.03729697 7.26153846
v 12.75664726 -0 10.83076923
v 3.64475636 4.85967515 0
v 3.64475636 4.85967515 3.56923077
v 6.07459393 5.77086424 0
v 3.64475636 4.85967515 3.69230769
v 3.64475636 3.6340764 7.13846154
v 3.64475636 6.43906957 0
v 6.07459393 11.54172847 0
v 6.07459393 12.75664726 0
v 6.07459393 11.54172847 3.56923077
v 6.07459393 11.58222576 3.56923077
v 6.07459393 12.75664726 3.56923077
v 6.07459393 10.93426908 3.69230769
v 6.07459393 11.54172847 3.69230769
v 6.07459393 12.75664726 3.69230769
v 13.36410665 11.54172847 0
v 13.36410665 10.93426908 3.56923077
v 15.18648483 10.93426908 3.56923077
v 13.36410665 10.93426908 3.69230769
v 13.36410665 11.54172847 3.69230769
v 3.64475636 3.6340764 7.26153846
v 3.64475636 4.85967515 7.26153846
v 3.64475636 6.36386031 7.26153846
v 4.25221575 3.80826258 7.26153846
v 4.25221575 3.80826258 10.83076923
v 4.25221575 6.77111692 7.26153846
v 4.25221575 9.71935029 7.26153846
v 6.07459393 9.71935029 7.26153846
v 6.07459393 10.93426908 7.26153846
v 6.07459393 12.75664726 7.26153846
v 4.25221575 9.71935029 10.83076923
v 12.75664726 9.71935029 7.26153846
v 15.18648483 10.93426908 7.26153846
v 12.75664726 9.71935029 10.83076923
f 1 4 3
f 1 3 28
f 1 6 4
f 4 5 3
f 4 7 5
f 1 30 6
f 4 6 7
f 6 8 7
f 6 36 8
f 5 7 8
f 6 32 33
f 6 38 36
f 6 33 38
f 1 28 31
f 1 31 30
f 28 29 31
f 29 36 31
f 31 36 35
f 30 39 32
f 30 31 39
f 31 41 39
f 31 35 45
f 31 45 41
f 6 30 32
f 35 36 38
f 39 41 43
f 56 62 57
f 57 63 58
f 56 57 74
f 57 75 74
f 56 74 62
f 57 58 75
f 57 62 63
f 62 74 76
f 62 88 63
f 63 88 64
f 58 63 66
f 63 64 66
f 74 79 76
f 58 77 75
f 62 76 88
f 76 80 88
f 80 82 88
f 82 86 88
f 86 92 88
f 64 88 89
f 88 92 89
f 85 91 86
f 86 91 92
f 89 92 91
f 32 74 33
f 39 44 40
f 39 43 44
f 32 39 79
f 39 40 79
f 40 44 84
f 32 79 74
f 33 74 75
f 40 80 79
f 40 81 80
f 40 84 81
f 76 79 80
f 80 81 83
f 80 83 82
f 81 84 83
f 86 83 87
f 83 84 87
f 2 28 3
f 2 3 5
f 2 5 10
f 2 10 46
f 5 19 10
f 2 27 28
f 2 46 27
f 5 8 19
f 8 9 19
f 8 36 9
f 9 36 37
f 10 19 11
f 10 11 47
f 10 47 46
f 11 19 17
f 17 19 20
f 17 20 18
f 19 9 20
f 27 29 28
f 27 46 34
f 27 37 29
f 27 34 37
f 29 37 36
f 46 47 34
f 47 50 34
f 34 50 51
f 49 51 50
f 35 38 52
f 38 77 52
f 33 75 38
f 41 44 43
f 41 42 44
f 35 52 45
f 41 45 42
f 45 55 42
f 45 52 55
f 42 87 44
f 42 55 102
f 52 95 55
f 38 75 77
f 52 77 94
f 42 102 87
f 44 87 84
f 82 83 86
f 85 86 102
f 86 87 102
f 85 102 101
f 52 94 95
f 55 95 99
f 55 99 100
f 55 100 101
f 55 101 102
f 95 98 99
f 9 37 59
f 18 20 23
f 20 60 23
f 23 97 53
f 34 51 78
f 34 78 37
f 49 53 51
f 51 53 93
f 9 60 20
f 9 59 61
f 9 61 60
f 60 61 67
f 23 60 69
f 60 67 69
f 67 68 70
f 67 70 69
f 23 69 70
f 23 70 97
f 37 78 59
f 51 93 78
f 53 96 93
f 53 97 96
f 58 59 77
f 58 61 59
f 58 66 61
f 66 65 61
f 64 65 66
f 65 72 61
f 61 72 67
f 67 72 68
f 68 72 71
f 59 78 77
f 77 78 94
f 64 90 65
f 64 89 90
f 65 90 72
f 72 90 105
f 85 101 105
f 85 105 91
f 89 91 90
f 91 105 90
f 78 93 94
f 93 96 98
f 93 98 94
f 94 98 95
f 71 72 105
f 100 104 101
f 101 104 105
f 71 105 104
f 11 21 12
f 12 21 13
f 21 22 13
f 11 12 47
f 12 48 47
f 12 13 48
f 48 13 15
f 11 17 21
f 17 18 23
f 17 23 21
f 21 23 22
f 23 25 22
f 23 53 25
f 47 48 50
f 48 15 25
f 48 25 53
f 49 50 53
f 48 54 50
f 50 54 53
f 48 53 54
f 68 71 73
f 68 73 70
f 96 97 103
f 73 103 97
f 96 103 98
f 98 103 99
f 99 103 100
f 71 106 73
f 70 73 97
f 100 106 104
f 100 103 106
f 71 104 106
f 73 106 103
f 24 13 22
f 14 13 24
f 14 15 13
f 14 16 15
f 14 24 16
f 16 25 15
f 16 24 26
f 16 26 25
f 24 22 26
f 26 22 25
