# MAAS exact compiled indexed mesh
# program_hash d0f18f8a23c235b9a56dae69f8578dccf8876d9d026ebca7974db8fceb0f83f5
# geometry_hash 25427ca4d1f44d489d1bc346a0a297746d707ff0b9e7971c59cf037a3fec17cc
v -7.15713824 -10.45268454 3.29967003
v -8.33233832 -9.42387464 0
v -7.59794024 -7.14902725 3.29967003
v -5.85619498 -11.31702918 6.59934007
v -6.73005456 -8.10069161 6.59934007
v -8.33233832 -6.09093931 0
v -8.03874224 -3.84536996 3.29967003
v -8.33233832 -2.75800399 0
v -8.47954423 -0.54171266 3.29967003
v -7.60391413 -4.88435405 6.59934007
v -8.47777371 -1.66801648 6.59934007
v -3.85348095 -10.01188255 3.29967003
v -4.99940299 -9.42387464 0
v -1.66646766 -9.42387464 0
v -0.54982366 -9.57108055 3.29967003
v -2.63985741 -10.44316961 6.59934007
v -4.99940299 -6.09093931 0
v -4.99940299 -2.75800399 0
v -1.66646766 -6.09093931 0
v -1.66646766 -2.75800399 0
v -6.3434668 -6.74533199 13.19868013
v -7.03549347 -5.85670243 9.8990101
v -8.32705786 -2.78419216 9.8990101
v -9.71662242 -0.99592743 13.19868013
v -9.64391203 -2.2818527 16.49835016
v -8.03004461 -3.87062971 13.19868013
v -7.59195214 -4.90824159 16.49835016
v -7.01752314 -0.22989282 16.49835016
v -4.4523647 -12.00172296 9.8990101
v -5.74392908 -8.92921269 9.8990101
v -1.37985443 -10.71015857 9.8990101
v -4.65688899 -9.62003427 13.19868013
v -2.97031117 -12.49473655 13.19868013
v -3.48803238 -10.16101935 16.49835016
v -5.53999226 -7.53463047 16.49835016
v -0.09560889 -10.80815874 13.19868013
v -1.4360725 -12.78740823 16.49835016
v -0.8616435 -8.10905946 16.49835016
v -4.96556326 -2.8562817 16.49835016
v -2.91360338 -5.48267058 16.49835016
v -0.2872145 -3.4307107 16.49835016
v -2.33917438 -0.80432182 16.49835016
v -8.92034623 2.76194463 3.29967003
v -9.36114822 6.06560192 3.29967003
v -8.33233832 0.57493134 0
v -8.33233832 3.90786667 0
v -9.35163328 1.54832109 6.59934007
v -10.22549286 4.76465866 6.59934007
v -7.00915529 5.63851823 6.59934007
v -8.33233832 7.240802 0
v -6.05749093 6.50640392 3.29967003
v -4.99940299 0.57493134 0
v -4.99940299 3.90786667 0
v -1.66646766 0.57493134 0
v -1.66646766 3.90786667 0
v -4.99940299 7.240802 0
v -1.66646766 7.240802 0
v -2.75383364 6.94720592 3.29967003
v -3.79281773 6.51237781 6.59934007
v -0.57648016 7.38623739 6.59934007
v -9.61862225 0.28831811 9.8990101
v -10.91018664 3.36082837 9.8990101
v -7.83767637 4.65239276 9.8990101
v -11.40320023 1.87877485 13.19868013
v -11.69587191 0.34453618 16.49835016
v -9.06948303 2.39649606 16.49835016
v -8.52849795 3.56535266 13.19868013
v -6.44309415 4.44845594 16.49835016
v -4.76516611 5.94395715 9.8990101
v -4.39113426 1.82206706 16.49835016
v -5.65379567 5.25193048 13.19868013
v -1.76474538 3.87402694 16.49835016
v -1.69265584 7.23552154 9.8990101
v -3.81670527 6.50041582 16.49835016
v -2.77909339 6.93850829 13.19868013
v -1.19031638 8.5523757 16.49835016
v 1.66646766 -9.42387464 0
v 2.75383364 -9.13027856 3.29967003
v 4.99940299 -9.42387464 0
v 0.57648016 -9.56931003 6.59934007
v 3.79281773 -8.69545045 6.59934007
v 1.66646766 -6.09093931 0
v 1.66646766 -2.75800399 0
v 4.99940299 -6.09093931 0
v 4.99940299 -2.75800399 0
v 8.33233832 -9.42387464 0
v 6.05749093 -8.68947656 3.29967003
v 9.36114822 -8.24867456 3.29967003
v 7.00915529 -7.82159088 6.59934007
v 10.22549286 -6.9477313 6.59934007
v 8.33233832 -6.09093931 0
v 8.33233832 -2.75800399 0
v 8.47954423 -1.64135998 3.29967003
v 8.92034623 -4.94501727 3.29967003
v 8.47777371 -0.51505616 6.59934007
v 9.35163328 -3.73139373 6.59934007
v 8.87988553 -1.09320279 8.24752525
v 10.57555557 -1.09320279 8.24752525
v 1.69265584 -9.41859418 9.8990101
v 4.76516611 -8.12702979 9.8990101
v 1.19031638 -10.73544835 16.49835016
v 2.77909339 -9.12158093 13.19868013
v 5.65379567 -7.43500312 13.19868013
v 3.81670527 -8.68348846 16.49835016
v 1.76474538 -6.05709958 16.49835016
v 0 -1.09153632 16.49835016
v 1.97305439 -1.09320279 16.5
v 1.97305439 -1.09320279 16.49835016
v 1.97305439 -1.09153632 16.49835016
v 2.33917438 -1.37875082 16.49835016
v 4.39113426 -4.0051397 16.49835016
v 7.83767637 -6.8354654 9.8990101
v 6.44309415 -6.63152858 16.49835016
v 10.91018664 -5.54390102 9.8990101
v 9.61862225 -2.47139075 9.8990101
v 9.03928538 -1.09320279 9.8990101
v 8.52849795 -5.74842531 13.19868013
v 7.01752314 -1.95317982 16.49835016
v 11.40320023 -4.0618475 13.19868013
v 9.06948303 -4.5795687 16.49835016
v 9.6436248 -1.09320279 13.02533946
v 9.66150672 -1.09320279 13.19868013
v 9.71662242 -1.18714521 13.19868013
v 9.71131061 -1.09320279 13.43973536
v 11.69587191 -2.52760882 16.49835016
v 10.57555557 -1.09320279 16.5
v 10.57519109 -1.09320279 16.49835016
v 1.66646766 0.57493134 0
v 1.66646766 3.90786667 0
v 4.99940299 0.57493134 0
v 4.99940299 3.90786667 0
v 3.13958176 4.75639963 8.24917508
v 3.13958176 4.94494157 8.24917508
v 1.66646766 7.240802 0
v 0.54982366 7.38800791 3.29967003
v 4.99940299 7.240802 0
v 3.85348095 7.82880991 3.29967003
v 0 7.78780794 8.24917508
v 0.40168714 7.95666166 8.24917508
v 0.86789722 8.08332813 8.24917508
v 0.86798775 8.08304807 8.24752525
v 2.63985741 8.26009696 6.59934007
v 2.01048592 8.39345795 8.24752525
v 0.20260752 10.14143427 8.24752525
v 3.5452048 9.03859437 8.24752525
v 5.80011816 7.9412422 8.24752525
v 5.15498175 9.47596108 8.24752525
v 8.33233832 0.57493134 0
v 8.03874224 1.66229732 3.29967003
v 8.33233832 3.90786667 0
v 7.59794024 4.96595461 3.29967003
v 8.40249114 0.04247359 8.24752525
v 7.60391413 2.7012814 6.59934007
v 7.96512443 1.65225054 8.24752525
v 7.31998801 3.18696942 8.24752525
v 6.89343114 4.75639963 8.24917508
v 6.89358326 4.75639963 8.24752525
v 6.73005456 5.91761897 6.59934007
v 6.37972573 5.99232895 8.24917508
v 6.3800065 5.99241971 8.24752525
v 6.23748488 6.33146525 8.24752525
v 6.88277401 4.79562438 8.24917508
v 10.57555557 4.75639963 8.24752525
v 8.33233832 7.240802 0
v 7.15713824 8.2696119 3.29967003
v 5.85619498 9.13395654 6.59934007
v 8.38807167 12.78741296 8.24752525
v 10.18679434 7.22297662 8.24752525
v 2.13626223 3.72947835 12.25822798
v 3.13958176 4.75639963 12.25822798
v 3.13958176 4.94494157 12.25822798
v 0.2872145 1.24763806 16.49835016
v 0 3.65734345 16.49835016
v 0.8616435 5.92598682 16.49835016
v 2.13626223 3.72947835 16.5
v 1.97305439 4.66447049 16.49835016
v 1.97305439 4.66447049 16.5
v 2.13626223 4.63332577 16.5
v 0 7.94704854 9.8990101
v 0.82840348 8.20550392 8.96890021
v 0.80285548 8.28453791 9.8990101
v 0.7078751 8.57836435 11.62555692
v 2.13626223 10.76649463 12.25822798
v 0 8.55079356 13.02226453
v 0 8.56899269 13.19868013
v 0.09560889 8.6250861 13.19868013
v 0.59757371 8.9195871 13.19868013
v 0 8.61968006 13.4440115
v 0.49983588 9.22194383 14.19372071
v 0 9.48235279 16.49835016
v 0.33184843 9.7416212 16.49835016
v 0.20260752 10.14143427 16.5
v 1.38042321 10.52216714 16.36136452
v 1.29595217 10.49486159 16.49835016
v 1.4360725 10.60433559 16.49835016
v 1.5609323 10.5805173 16.22981557
v 1.47610483 10.55309654 16.49835016
v 2.13626223 10.76649463 16.5
v 8.43929335 3.72947835 12.25822798
v 8.43929335 4.75639963 12.25822798
v 8.43929335 3.72947835 16.5
v 8.43929335 4.75639963 16.5
v 10.57555557 4.75639963 16.5
v 8.43929335 6.65809108 12.25822798
v 5.9593648 12.00232533 12.25822798
v 8.43929335 12.00232533 12.25822798
v 8.43929335 6.65809108 16.5
v 5.9593648 12.00232533 16.5
v 8.38807167 12.78741296 16.5
v 8.43929335 12.00232533 16.5
v 10.18679434 7.22297662 16.5
f 1 2 13
f 2 3 6
f 2 6 13
f 6 17 13
f 1 3 2
f 1 4 5
f 5 10 3
f 1 5 3
f 4 30 5
f 6 7 8
f 6 8 17
f 8 18 17
f 6 3 7
f 8 9 45
f 8 45 18
f 18 45 52
f 8 7 9
f 3 10 7
f 7 10 11
f 5 22 10
f 7 11 9
f 11 47 9
f 10 23 11
f 12 13 14
f 1 13 12
f 13 17 14
f 12 14 15
f 14 17 19
f 14 19 77
f 14 77 15
f 1 12 4
f 4 12 16
f 4 16 29
f 12 15 16
f 15 80 16
f 16 80 31
f 17 18 19
f 18 52 20
f 18 20 19
f 19 20 82
f 20 52 54
f 20 54 83
f 5 30 22
f 22 30 21
f 21 35 27
f 11 23 61
f 23 24 61
f 10 22 23
f 22 26 23
f 22 21 26
f 23 26 24
f 25 24 26
f 25 65 24
f 25 28 65
f 21 27 26
f 25 26 27
f 25 27 39
f 25 39 28
f 4 29 30
f 29 32 30
f 29 31 33
f 29 33 32
f 21 30 32
f 16 31 29
f 31 36 33
f 33 34 32
f 21 32 35
f 34 35 32
f 34 38 35
f 35 38 40
f 33 36 37
f 33 37 34
f 36 101 37
f 34 37 101
f 34 101 38
f 38 105 40
f 27 35 40
f 27 40 39
f 39 42 28
f 39 40 41
f 40 105 41
f 39 41 42
f 70 42 106
f 41 106 42
f 43 44 46
f 43 46 45
f 45 46 52
f 46 53 52
f 43 45 9
f 46 44 50
f 46 50 53
f 50 56 53
f 43 9 47
f 43 47 48
f 11 61 47
f 43 48 44
f 44 48 49
f 47 62 48
f 44 49 51
f 48 63 49
f 51 56 50
f 44 51 50
f 52 53 54
f 53 56 55
f 53 55 54
f 54 55 128
f 55 56 57
f 55 57 129
f 51 49 59
f 49 69 59
f 56 58 57
f 51 58 56
f 57 58 135
f 51 59 58
f 58 59 60
f 58 60 135
f 59 73 60
f 60 73 138
f 60 138 139
f 47 61 62
f 61 24 64
f 61 64 62
f 62 64 67
f 48 62 63
f 62 67 63
f 49 63 69
f 67 71 63
f 63 71 69
f 24 65 64
f 64 66 67
f 65 66 64
f 65 28 66
f 66 28 70
f 66 70 68
f 67 68 71
f 66 68 67
f 69 71 75
f 28 42 70
f 71 74 75
f 68 74 71
f 68 70 72
f 68 72 74
f 70 106 72
f 72 106 173
f 72 76 74
f 72 173 190
f 59 69 73
f 69 75 73
f 73 179 138
f 73 75 184
f 73 184 179
f 75 185 184
f 75 188 185
f 75 76 188
f 74 76 75
f 72 190 76
f 76 190 188
f 19 82 77
f 77 82 79
f 15 77 78
f 77 79 78
f 79 82 84
f 78 79 87
f 15 78 80
f 78 81 80
f 80 81 99
f 78 87 81
f 81 87 89
f 81 89 100
f 20 83 82
f 82 83 84
f 54 128 83
f 83 128 85
f 83 85 84
f 85 128 130
f 79 84 86
f 79 86 87
f 84 91 86
f 86 91 88
f 86 88 87
f 88 91 94
f 87 88 89
f 89 90 112
f 88 94 90
f 88 90 89
f 84 85 91
f 85 92 91
f 91 92 94
f 85 130 92
f 92 130 148
f 92 148 93
f 92 93 94
f 96 93 95
f 93 149 95
f 95 152 97
f 94 96 90
f 94 93 96
f 90 96 114
f 96 95 115
f 115 95 97
f 31 80 99
f 31 99 36
f 36 99 102
f 81 100 99
f 99 100 102
f 100 103 102
f 36 102 101
f 38 101 104
f 101 102 104
f 38 104 105
f 102 103 104
f 104 113 105
f 103 113 104
f 41 105 111
f 41 110 106
f 106 108 109
f 110 108 106
f 41 111 110
f 105 113 111
f 118 108 110
f 111 118 110
f 89 112 100
f 100 112 103
f 103 112 117
f 90 114 112
f 103 117 113
f 96 115 114
f 112 114 117
f 114 119 117
f 114 115 119
f 115 97 116
f 115 116 121
f 115 121 123
f 115 123 119
f 111 113 120
f 111 120 118
f 117 120 113
f 118 125 108
f 125 127 108
f 117 119 120
f 120 119 125
f 123 121 122
f 123 122 124
f 123 124 127
f 119 123 125
f 118 120 125
f 125 123 127
f 55 129 128
f 128 129 130
f 57 134 129
f 129 134 131
f 129 131 130
f 131 134 136
f 57 135 134
f 134 135 137
f 134 137 136
f 136 137 165
f 60 142 135
f 135 142 137
f 60 139 142
f 139 140 141
f 142 139 141
f 142 141 143
f 142 143 145
f 137 142 166
f 137 166 165
f 142 145 147
f 142 147 166
f 166 147 146
f 130 131 148
f 131 150 148
f 148 150 149
f 148 149 93
f 131 136 150
f 136 164 150
f 150 164 151
f 150 151 149
f 149 153 95
f 149 151 153
f 95 153 152
f 153 154 152
f 153 155 154
f 151 165 158
f 153 151 158
f 153 158 162
f 153 157 155
f 153 162 157
f 162 156 157
f 162 160 159
f 158 161 160
f 158 160 162
f 136 165 164
f 151 164 165
f 165 166 158
f 158 166 161
f 166 146 161
f 172 173 106
f 176 106 109
f 172 106 176
f 172 176 173
f 176 174 173
f 174 190 173
f 138 179 139
f 180 140 139
f 180 139 179
f 180 179 181
f 181 179 182
f 182 179 186
f 186 179 184
f 182 186 187
f 186 184 185
f 186 185 188
f 186 189 187
f 186 188 190
f 176 191 174
f 186 190 189
f 174 191 190
f 189 190 191
f 196 193 195
f 194 195 193
f 194 197 195
f 196 195 197
f 156 133 132
f 162 159 133
f 162 133 156
f 144 141 140
f 144 143 141
f 144 145 143
f 144 147 145
f 144 167 147
f 168 159 160
f 168 160 161
f 168 161 146
f 168 146 167
f 167 146 147
f 171 133 159
f 176 177 191
f 180 144 140
f 180 181 144
f 181 182 144
f 182 187 144
f 144 187 189
f 144 196 183
f 144 183 205
f 144 205 167
f 177 192 191
f 177 198 192
f 177 178 198
f 144 189 192
f 144 192 194
f 144 194 193
f 144 193 196
f 189 191 192
f 192 198 194
f 183 196 198
f 194 198 197
f 196 197 198
f 171 159 168
f 171 168 204
f 205 209 167
f 168 211 204
f 168 167 211
f 205 208 209
f 208 210 209
f 204 211 207
f 207 211 210
f 167 209 211
f 211 209 210
f 170 132 133
f 170 133 171
f 98 97 152
f 107 109 108
f 107 108 126
f 98 116 97
f 98 121 116
f 98 122 121
f 98 124 122
f 126 108 127
f 98 127 124
f 98 126 127
f 163 154 155
f 163 155 157
f 98 152 163
f 163 152 154
f 170 200 132
f 107 176 109
f 107 177 176
f 107 175 178
f 107 178 177
f 107 126 175
f 200 156 132
f 200 157 156
f 163 157 200
f 98 163 126
f 163 200 203
f 175 126 201
f 163 203 126
f 126 203 201
f 200 202 203
f 201 203 202
f 169 170 171
f 169 200 170
f 169 178 175
f 169 198 178
f 169 175 199
f 169 171 183
f 171 205 183
f 171 204 205
f 169 183 198
f 169 199 200
f 199 202 200
f 175 201 199
f 199 201 202
f 205 204 206
f 204 207 206
f 205 206 208
f 206 207 210
f 206 210 208
