# MAAS exact compiled indexed mesh
# program_hash 313842730b25f360cf13d19fda60f8613ec5b0da279ba250ff1a91eef859d0b1
# geometry_hash 21cda247ae2768ca547bba53fee31d61c26fa5d06f930198297e8dd710541bd9
v -10.42484709 -11.90571897 0
v -10.42484709 -11.90571897 2.5245
v -8.87192722 -8.79987924 2.5245
v -8.87192722 -8.79987924 4.9995
v -8.87192722 -1.55291987 4.95
v -8.87192722 -1.55291987 4.9995
v -7.31900736 -5.69403951 4.9995
v -7.31900736 -1.55291987 4.9995
v -7.31900736 -5.69403951 7.4745
v -7.31900736 -1.55291987 7.4745
v -5.76608749 -2.58819978 7.4745
v -5.76608749 -1.55291987 7.4745
v -5.76608749 -2.58819978 9.9
v -5.76608749 -1.55291987 9.9
v -0.07204799 -8.79987924 4.95
v -0.07204799 -8.79987924 4.9995
v -0.07204799 -5.69403951 4.9995
v -0.07204799 -5.69403951 7.4745
v -0.07204799 -2.58819978 7.4745
v -0.07204799 -2.58819978 9.9
v -0.07204799 -1.55291987 9.9
v -10.42484709 8.79987924 0
v -10.42484709 8.79987924 2.5245
v -8.87192722 8.79987924 2.5245
v -7.31900736 8.79987924 4.9005
v -8.87192722 8.79987924 4.95
v -8.87192722 8.79987924 4.9995
v -7.31900736 8.79987924 4.95
v -7.31900736 8.79987924 4.9995
v -7.31900736 8.79987924 7.4745
v -5.76608749 8.79987924 7.4745
v -5.76608749 8.79987924 9.9
v -1.23736403 8.79987924 6.00927933
v -1.00733019 8.79987924 5.93485431
v 10.28075112 -11.90571897 0
v 10.28075112 -11.90571897 2.5245
v 8.72783125 -8.79987924 2.5245
v 2.4963581 -15.29542405 4.95
v 2.4963581 -15.29542405 4.9995
v 2.4963581 -11.90194227 4.9995
v 2.03667057 -11.30890081 4.95
v 2.03667057 -11.30890081 4.9995
v 2.4963581 -11.30890081 4.95
v 2.4963581 -11.30890081 4.9995
v 2.56088668 -11.30890081 4.95
v 2.4963581 -9.89703909 4.9995
v 2.03667057 -8.79987924 4.95
v 2.03667057 -8.79987924 4.9995
v 2.4963581 -8.79987924 4.9995
v 3.35967848 -10.38371065 4.9995
v 4.00981564 -9.46594311 4.95
v 2.4963581 -9.89703909 7.4745
v 2.4963581 -7.70125676 7.4745
v 3.81513608 -7.70125676 7.4745
v 2.03667057 -7.31752405 4.9995
v 2.4963581 -7.31752405 4.9995
v 2.03667057 -5.69403951 4.9995
v 2.03667057 -7.31752405 7.4745
v 2.4963581 -7.31752405 7.4745
v 2.4963581 -6.85681199 7.4745
v 2.03667057 -5.69403951 7.4745
v 2.4963581 -5.69403951 7.4745
v 2.4963581 -4.49865413 7.4745
v 2.4963581 -4.49865413 9.9
v 2.03667057 -3.3261473 7.4745
v 2.4963581 -3.3261473 7.4745
v 2.03667057 -2.58819978 7.4745
v 2.03667057 -3.3261473 9.9
v 2.4963581 -3.3261473 9.9
v 2.03667057 -2.58819978 9.9
v 2.23748142 -2.58819978 9.9
v 2.97626828 -7.31752405 7.4745
v 2.83878208 -4.49865413 7.4745
v 4.55860276 -6.05230086 7.4745
v 5.00665754 -5.69403951 7.4745
v 3.63214029 -2.86034929 9.9
v 6.05291233 -11.90194227 4.9995
v 7.24656783 -10.55855597 4.95
v 6.66640225 -8.79987924 4.95
v 10.42484864 -15.29542405 4.95
v 10.42484864 -15.29542405 4.9995
v 9.19176669 -11.90194227 4.9995
v 7.95441698 -10.32028274 4.9995
v 8.46324947 -9.89703909 4.9995
v 8.94035306 -10.9636714 4.9995
v 8.52368782 -9.12084033 4.9995
v 8.72783125 -8.79987924 4.95
v 9.22585923 -11.14998311 4.9995
v 9.24245869 -10.78385852 4.9995
v 7.66537291 -7.70125676 7.4745
v 8.46324947 -9.89703909 7.4745
v 8.72783125 -3.74130821 4.95
v 8.72783125 -2.63199076 4.95
v 9.58163505 -2.69919248 4.95
v 10.42484864 -2.69919248 4.95
v 5.21366193 -4.49865413 7.4745
v 6.50165029 -4.49865413 7.4745
v 6.50165029 -4.44245768 7.4745
v 7.48911242 -7.21618213 7.4745
v 7.66915237 -7.2876868 7.4745
v 7.67044093 -7.14668536 7.4745
v 7.6825489 -5.8217641 7.4745
v 6.71600474 -4.93840896 7.4745
v 6.93601483 -5.69403951 7.4745
v 6.50165029 -4.49865413 9.9
v 6.50165029 -0.5725238 7.4745
v 7.10324487 -0.11443831 7.4745
v 10.28075112 8.79987924 0
v 7.17491139 8.79987924 4.9005
v 8.72783125 8.79987924 2.5245
v 10.28075112 8.79987924 2.5245
v 3.32229265 1.39830661 9.9
v 2.03667057 8.79987924 4.95
v 2.4963581 8.79987924 4.95
v 2.4963581 10.48605842 4.95
v 2.03667057 11.30890081 4.95
v 2.4963581 11.30890081 4.95
v 2.03667057 8.79987924 6.56199096
v 2.03667057 8.79987924 6.57953921
v 2.4963581 15.29542405 4.95
v 4.11306506 8.79987924 4.95
v 2.03667057 8.79987924 7.4745
v 2.03667057 11.30890081 7.4745
v 2.4963581 11.30890081 7.4745
v 2.03667057 8.79987924 9.9
v 2.03667057 11.30890081 9.9
v 2.4963581 11.30890081 9.9
v 2.4963581 15.29542405 7.4745
v 2.4963581 11.90194227 9.9
v 2.4963581 15.29542405 9.9
v 5.01561118 8.79987924 9.9
v 5.06314753 9.00766276 9.9
v 8.46324947 0.44538372 4.9995
v 9.1151378 4.73994795 4.9995
v 6.50165029 2.89359888 7.4745
v 6.85045978 3.08060959 7.4745
v 7.3302839 2.71385737 7.4745
v 7.23300448 5.07100401 7.4745
v 7.20448983 5.76193341 7.4745
v 6.183264 8.79987924 4.95
v 6.53163634 8.79987924 4.95
v 6.54118133 8.79987924 4.95
v 6.54850406 8.83477944 4.95
v 7.17491139 8.79987924 4.95
v 6.84339626 11.30890081 4.95
v 8.72783125 8.79987924 4.95
v 8.46324947 15.29542405 4.95
v 8.46324947 15.29542405 4.9995
v 10.42484864 15.29542405 4.95
v 10.42484864 15.29542405 4.9995
v 7.81582851 8.76243744 7.4745
v 5.79275484 10.47685692 9.9
v 5.58962064 11.30890081 9.9
v 5.7533684 11.30890081 9.9
v 6.50165029 15.29542405 7.4745
v 5.72529561 11.90194227 9.9
v 6.50165029 15.29542405 9.9
v 8.46324947 15.29542405 7.4745
f 1 2 23
f 1 35 2
f 1 22 35
f 1 23 22
f 22 23 24
f 22 24 110
f 2 35 36
f 35 108 36
f 22 108 35
f 22 111 108
f 22 110 111
f 36 108 111
f 7 9 8
f 9 10 8
f 7 18 9
f 7 17 18
f 25 28 113
f 33 118 34
f 25 113 109
f 109 113 114
f 109 114 121
f 109 121 140
f 109 140 141
f 109 141 142
f 109 142 144
f 33 119 118
f 3 15 4
f 3 4 24
f 4 5 24
f 3 37 15
f 4 6 5
f 4 15 16
f 24 5 26
f 24 26 25
f 25 26 28
f 24 25 110
f 37 47 15
f 37 79 47
f 37 87 79
f 37 92 87
f 37 93 92
f 37 110 93
f 25 109 110
f 110 146 93
f 109 144 146
f 109 146 110
f 11 13 12
f 13 14 12
f 11 20 13
f 13 20 14
f 11 19 20
f 20 21 14
f 10 29 8
f 10 30 29
f 29 30 31
f 29 113 28
f 29 31 33
f 29 33 34
f 29 34 113
f 31 119 33
f 31 122 119
f 57 61 17
f 61 18 17
f 113 34 118
f 6 27 5
f 26 5 27
f 26 27 29
f 26 29 28
f 48 16 15
f 48 15 47
f 14 31 12
f 14 32 31
f 32 14 21
f 32 21 125
f 31 32 122
f 32 125 122
f 67 70 19
f 70 20 19
f 70 21 20
f 70 71 21
f 71 112 21
f 125 21 131
f 112 131 21
f 55 56 59
f 55 59 58
f 116 123 117
f 117 123 124
f 41 44 42
f 41 43 44
f 65 66 69
f 65 69 68
f 68 69 71
f 68 71 70
f 69 76 71
f 71 76 112
f 123 126 124
f 124 126 127
f 125 132 126
f 126 152 127
f 125 131 132
f 126 132 152
f 127 152 153
f 153 152 154
f 127 153 129
f 129 153 156
f 46 91 52
f 46 84 91
f 84 133 91
f 120 128 147
f 91 133 148
f 91 148 158
f 147 128 148
f 148 128 155
f 148 155 158
f 38 81 39
f 38 80 81
f 80 95 81
f 81 95 150
f 95 149 150
f 147 148 150
f 147 150 149
f 63 73 105
f 73 96 105
f 63 105 64
f 64 105 76
f 64 76 69
f 76 105 112
f 96 97 105
f 105 131 112
f 128 130 155
f 129 157 130
f 129 156 157
f 130 157 155
f 97 98 157
f 98 106 157
f 97 157 105
f 106 135 157
f 105 132 131
f 105 152 132
f 105 157 152
f 135 155 157
f 153 154 156
f 152 157 154
f 154 157 156
f 2 3 23
f 2 36 3
f 3 24 23
f 3 36 37
f 36 111 37
f 37 111 110
f 4 7 6
f 7 8 6
f 4 17 7
f 4 16 17
f 27 6 8
f 27 8 29
f 48 55 16
f 48 56 55
f 48 49 56
f 55 17 16
f 55 57 17
f 42 46 48
f 46 49 48
f 42 44 50
f 42 50 46
f 46 50 84
f 50 83 84
f 83 85 84
f 84 85 88
f 84 88 89
f 84 89 86
f 84 86 134
f 84 134 133
f 40 77 44
f 44 77 50
f 50 77 83
f 77 82 83
f 83 82 85
f 39 77 40
f 39 81 77
f 77 81 82
f 82 81 88
f 81 89 88
f 82 88 85
f 81 150 89
f 86 89 150
f 86 150 134
f 133 134 148
f 134 150 148
f 9 11 10
f 11 12 10
f 9 18 11
f 11 18 19
f 30 10 12
f 30 12 31
f 65 19 18
f 61 65 18
f 61 62 63
f 61 66 65
f 61 63 66
f 65 67 19
f 62 73 63
f 75 97 96
f 75 103 97
f 75 104 103
f 103 98 97
f 106 136 135
f 58 59 60
f 58 60 61
f 60 62 61
f 59 72 60
f 74 101 75
f 74 99 101
f 75 101 104
f 99 100 101
f 101 102 107
f 103 107 98
f 98 107 106
f 102 137 107
f 106 107 136
f 107 139 136
f 107 137 138
f 107 138 139
f 53 72 59
f 60 74 62
f 60 72 74
f 62 74 73
f 53 99 72
f 53 54 99
f 72 99 74
f 73 74 75
f 73 75 96
f 54 90 99
f 137 151 138
f 52 54 53
f 52 91 54
f 54 91 90
f 90 91 100
f 91 101 100
f 90 100 99
f 101 107 104
f 103 104 107
f 91 102 101
f 91 151 102
f 102 151 137
f 135 136 139
f 138 151 139
f 91 158 151
f 135 139 158
f 135 158 155
f 139 151 158
f 41 51 43
f 43 51 45
f 41 47 51
f 51 47 79
f 51 79 78
f 94 92 93
f 38 43 45
f 38 45 80
f 45 51 78
f 45 78 80
f 78 79 87
f 78 87 80
f 80 87 95
f 94 87 92
f 94 95 87
f 115 114 113
f 115 113 116
f 115 116 117
f 115 140 121
f 115 117 145
f 115 145 140
f 143 142 141
f 115 121 114
f 94 93 95
f 117 120 145
f 95 93 146
f 95 146 147
f 143 141 140
f 143 144 142
f 143 140 145
f 143 147 144
f 120 147 145
f 143 145 147
f 147 146 144
f 95 147 149
f 41 42 48
f 41 48 47
f 55 61 57
f 55 58 61
f 65 70 67
f 65 68 70
f 116 113 123
f 123 113 118
f 123 118 119
f 122 123 119
f 122 126 123
f 122 125 126
f 38 39 40
f 38 40 44
f 38 44 43
f 46 59 49
f 49 59 56
f 46 52 53
f 46 53 59
f 63 64 69
f 63 69 66
f 117 128 120
f 117 124 128
f 124 129 128
f 124 127 129
f 128 129 130
