# MAAS exact compiled indexed mesh
# program_hash 115053292492fbc3d1bd247df83099c41eaed9cd946d8da6a96919fda359437f
# geometry_hash e5ff68185547bd81e2e8c76cfe5c4f216ea32a2ce4345b58190ce8b2d146ddb2
v -11.62289214 -10.62664424 0
v -5.37973865 -10.62664424 0
v -11.62289214 -10.62664424 8.93243828
v -5.37973865 -10.62664424 8.93243828
v -11.62289214 10.62664424 0
v -11.62289214 10.62664424 8.93243828
v 5.81144607 5.31332212 0
v 5.81144607 10.62664424 0
v 10.56022772 5.31332212 0
v 11.62289214 6.37598655 0
v 11.62289214 10.62664424 0
v 5.81144607 5.31332212 8.93243828
v 7.89426834 7.21761677 8.93243828
v 7.89426834 7.21761677 9.9
v 5.81144607 10.62664424 8.93243828
v 7.89426834 8.7223496 8.93243828
v 7.89426834 8.7223496 9.9
v 9.2391233 7.21761677 8.93243828
v 9.54006987 7.51856334 8.93243828
v 9.2391233 7.21761677 9.9
v 9.54006987 7.51856334 9.9
v 10.56022772 5.31332212 8.93243828
v 11.62289214 6.37598655 8.93243828
v 9.54006987 8.7223496 8.93243828
v 9.54006987 8.7223496 9.9
v 11.62289214 10.62664424 8.93243828
f 1 2 4
f 1 5 2
f 1 4 3
f 1 3 6
f 3 4 12
f 1 6 5
f 2 5 7
f 5 6 8
f 3 12 6
f 2 7 9
f 5 8 7
f 4 22 12
f 6 15 8
f 6 12 15
f 11 7 8
f 10 9 7
f 10 7 11
f 11 8 15
f 10 11 26
f 10 26 23
f 11 15 26
f 13 16 12
f 13 12 18
f 16 15 12
f 16 24 15
f 23 12 22
f 18 12 23
f 18 23 19
f 19 23 24
f 24 26 15
f 23 26 24
f 16 17 24
f 14 25 17
f 14 20 21
f 14 21 25
f 19 25 21
f 19 24 25
f 17 25 24
f 2 22 4
f 2 9 22
f 10 23 9
f 23 22 9
f 18 19 21
f 18 21 20
f 13 14 16
f 13 20 14
f 14 17 16
f 13 18 20
