# MAAS exact compiled indexed mesh
# program_hash 8632fb7163987df661b7de9b5fb8f12cea26cddc607c2dc43e571f3b35070d34
# geometry_hash 03991acf32c1e411c2502c1718d69792583aae38de1e0a801da7454162a71b30
v -9.656627 -9.656627 0
v -7.14590398 -9.656627 6.27
v -2.51072302 -9.656627 6.27
v -2.31759048 -9.656627 6.27
v -7.14590398 -9.656627 10.23
v -9.656627 -9.656627 16.5
v -2.51072302 -9.656627 10.23
v -2.31759048 -9.656627 10.23
v -9.656627 9.656627 0
v -7.14590398 9.656627 6.27
v -2.51072302 9.656627 6.27
v -2.31759048 9.656627 6.27
v -9.656627 0 8.25
v -7.14590398 0 8.25
v -7.14590398 0 10.23
v -9.656627 0 16.5
v -9.656627 9.656627 8.25
v -7.14590398 9.656627 8.25
v -7.14590398 9.656627 10.23
v -9.656627 9.656627 16.5
v -2.51072302 0 8.25
v -2.51072302 0 10.23
v -3.47823979 4.10864038 10.23
v -2.51072302 4.10864038 10.23
v -3.47823979 2.58797604 10.5869478
v -2.31759048 0 8.25
v -2.31759048 0 10.23
v -2.31759048 4.10864038 10.23
v -3.02213798 3.28325318 14.198811
v -2.51072302 9.656627 8.25
v -2.51072302 9.656627 8.92771286
v -3.47823979 9.656627 10.23
v -2.31759048 9.656627 8.25
v -2.31759048 9.656627 8.92771286
v -3.02213798 6.80953513 12.51052331
v -3.47823979 9.656627 13.80781563
v -3.02213798 9.656627 13.80781563
v -3.02213798 9.656627 15.77074314
v 2.31759048 -9.656627 6.27
v 2.51072302 -9.656627 6.27
v 9.656627 -9.656627 0
v 7.14590398 -9.656627 6.27
v 0 -9.656627 10.23
v 2.31759048 -9.656627 8.25
v 2.31759048 -9.656627 10.23
v 2.51072302 -9.656627 8.25
v 2.51072302 -9.656627 10.23
v 0 -9.656627 16.5
v 7.14590398 -9.656627 8.25
v 7.14590398 -9.656627 10.23
v 9.656627 -9.656627 8.25
v 9.656627 -9.656627 16.5
v 2.31759048 9.656627 6.27
v 2.51072302 9.656627 6.27
v 9.656627 9.656627 0
v 7.14590398 9.656627 6.27
v 0 0 10.23
v 2.31759048 4.10864038 10.23
v 2.51072302 4.10864038 10.23
v 0 0 16.5
v 2.31759048 9.656627 8.25
v 2.31759048 9.656627 8.92771286
v 2.51072302 9.656627 8.25
v 2.51072302 9.656627 8.92771286
v 7.14590398 4.10864038 10.23
v 8.1120302 2.58797604 10.5869478
v 7.99800474 3.28325318 14.198811
v 7.14590398 9.656627 8.25
v 7.14590398 9.656627 8.92771286
v 8.1120302 9.656627 8.92771286
v 9.656627 9.656627 8.25
v 7.99800474 6.80953513 12.51052331
v 7.99800474 9.656627 13.80781563
v 8.1120302 9.656627 13.80781563
v 7.99800474 9.656627 15.77074314
v 9.656627 9.656627 16.5
f 1 2 6
f 1 3 2
f 1 41 3
f 3 4 8
f 1 9 41
f 2 5 6
f 1 6 13
f 5 7 6
f 6 48 16
f 6 16 13
f 3 8 7
f 6 7 8
f 8 43 48
f 6 8 48
f 16 48 60
f 1 13 9
f 9 13 17
f 9 17 18
f 9 18 10
f 9 10 11
f 9 11 12
f 9 12 53
f 11 30 33
f 11 33 12
f 3 41 4
f 39 40 44
f 4 41 39
f 40 46 44
f 39 41 40
f 40 41 42
f 41 51 42
f 42 51 49
f 41 55 51
f 9 55 41
f 9 53 55
f 53 61 63
f 53 63 54
f 55 71 51
f 53 54 55
f 54 56 55
f 55 56 71
f 56 68 71
f 16 20 13
f 20 16 60
f 17 13 20
f 17 19 18
f 17 20 19
f 19 20 32
f 32 20 36
f 20 38 36
f 31 34 30
f 34 33 30
f 36 38 37
f 20 76 38
f 44 46 45
f 45 46 47
f 45 52 43
f 52 48 43
f 52 60 48
f 45 47 52
f 47 50 52
f 49 51 50
f 50 51 52
f 52 51 76
f 62 64 61
f 64 63 61
f 20 60 76
f 76 51 71
f 52 76 60
f 69 70 68
f 70 71 68
f 70 74 71
f 38 76 75
f 74 76 71
f 73 75 74
f 74 75 76
f 2 3 11
f 2 14 5
f 5 14 15
f 5 15 22
f 5 22 7
f 3 7 21
f 7 22 21
f 2 10 14
f 2 11 10
f 10 18 14
f 3 21 11
f 11 21 30
f 14 18 15
f 19 23 15
f 19 15 18
f 23 22 15
f 24 21 22
f 23 24 22
f 24 31 21
f 31 30 21
f 19 32 23
f 4 26 8
f 8 27 43
f 8 26 27
f 43 27 57
f 4 12 26
f 4 53 12
f 12 33 26
f 4 39 53
f 39 44 61
f 39 61 53
f 26 33 27
f 28 27 33
f 28 58 27
f 28 33 34
f 45 43 57
f 44 45 58
f 45 57 58
f 58 57 27
f 44 58 62
f 44 62 61
f 40 54 46
f 40 42 56
f 42 49 68
f 54 63 46
f 40 56 54
f 42 68 56
f 47 46 59
f 47 59 65
f 47 65 50
f 49 50 68
f 59 46 63
f 59 63 64
f 50 65 68
f 68 65 69
f 29 35 38
f 35 37 38
f 29 67 35
f 29 38 67
f 35 67 72
f 38 75 67
f 67 75 72
f 72 75 73
f 23 25 24
f 24 25 28
f 28 25 58
f 24 28 31
f 23 36 25
f 25 36 35
f 23 32 36
f 28 34 31
f 35 36 37
f 25 59 58
f 25 35 66
f 25 65 59
f 25 66 65
f 58 59 62
f 35 72 66
f 59 64 62
f 65 66 69
f 66 72 74
f 66 70 69
f 66 74 70
f 72 73 74
