# MAAS exact compiled indexed mesh
# program_hash 49a8e3bd1207b544cf0c940ca99ffe37c0b8a84534fc59a80f79b665371d2f2e
# geometry_hash 14184848fb23c4816a14ce0c4553f4edadbc71db1d3416847d5d41ec77e31f9f
v -26.08179586 -19.33018228 0
v -26.08179586 -16.76119732 0
v -26.08179586 -19.33018228 3.54982897
v -26.08179586 -16.76119732 3.54982897
v -26.08179586 -14.19221236 0
v -26.08179586 -11.62322741 0
v -26.08179586 -14.19221236 3.54982897
v -26.08179586 -11.62322741 3.54982897
v -13.13447741 -17.85502167 0
v -13.71237328 -15.35187963 0
v -13.13447741 -17.85502167 3.54982897
v -14.29026916 -12.8487376 0
v -14.86816503 -10.34559556 0
v -26.08179586 -19.33018228 5.91638162
v -16.55169038 -18.24436391 5.91638162
v -13.13447741 -17.85502167 7.09965794
v -26.08179586 -9.05424245 0
v -26.08179586 -6.4852575 0
v -26.08179586 -9.05424245 3.54982897
v -26.08179586 -6.4852575 3.54982897
v -15.44606091 -7.84245352 0
v -16.02395678 -5.33931148 0
v -16.02395678 -5.33931148 3.54982897
v -26.08179586 -6.4852575 5.91638162
v -16.55169038 -5.39943913 5.91638162
v -16.02395678 -5.33931148 7.09965794
v -0.85083682 -13.5051564 0
v -0.66173629 -13.38468608 0
v -1.9770057 -11.19616802 0
v -0.85083682 -13.5051564 3.54982897
v -0.85083682 -13.5051564 7.09965794
v -4.22934346 -6.57819125 0
v -3.10317458 -8.88717963 0
v -5.35551234 -4.26920287 0
v -6.48168122 -1.96021448 0
v -6.48168122 -1.96021448 3.54982897
v -6.48168122 -1.96021448 7.09965794
v -13.13447741 -17.85502167 10.64948691
v -16.55169038 -18.24436391 11.83276324
v -13.13447741 -17.85502167 11.83276324
v -16.02395678 -5.33931148 10.64948691
v -16.55169038 -5.39943913 11.83276324
v -16.02395678 -5.33931148 11.83276324
v -8.26464214 -16.13052256 11.83276324
v -0.85083682 -13.5051564 10.64948691
v -8.26464214 -16.13052256 17.74914485
v -0.85083682 -13.5051564 14.19931588
v -0.85083682 -13.5051564 17.74914485
v -0.66173629 -13.38468608 17.74914485
v -1.9770057 -11.19616802 17.74914485
v -8.26464214 -2.59159406 11.83276324
v -6.48168122 -1.96021448 10.64948691
v -8.26464214 -2.59159406 17.74914485
v -4.22934346 -6.57819125 17.74914485
v -3.10317458 -8.88717963 17.74914485
v -6.48168122 -1.96021448 14.19931588
v -5.35551234 -4.26920287 17.74914485
v -6.48168122 -1.96021448 17.74914485
v 5.28932423 -0.51413114 0
v 6.90603885 -2.51060743 0
v 5.28932423 -0.51413114 17.74914485
v 6.90603885 -2.51060743 17.74914485
v 2.05589499 3.47882142 0
v 3.67260961 1.48234514 0
v 2.05589499 3.47882142 3.54982897
v 11.1755246 9.1173669 0
v 2.05589499 3.47882142 7.09965794
v 9.15113683 10.69899197 0
v 9.15113683 10.69899197 3.54982897
v 9.15113683 10.69899197 7.09965794
v 15.22430014 5.95411676 0
v 13.19991237 7.53574183 0
v 14.44034309 19.33019214 0
v 16.76863416 18.24449218 0
v 19.09692523 17.15879222 0
v 14.44034309 19.33019214 3.54982897
v 16.76863416 18.24449218 3.54982897
v 19.09692523 17.15879222 3.54982897
v 25.22266693 12.49971714 0
v 26.08179844 13.90169235 0
v 26.08179844 13.90169235 3.54982897
v 21.4252163 16.07309227 0
v 23.75350737 14.98739231 0
v 21.4252163 16.07309227 3.54982897
v 23.75350737 14.98739231 3.54982897
v 14.44034309 19.33019214 7.09965794
v 16.76863416 18.24449218 7.09965794
v 19.09692523 17.15879222 7.09965794
v 26.08179844 13.90169235 7.09965794
v 21.4252163 16.07309227 7.09965794
v 23.75350737 14.98739231 7.09965794
v 2.05589499 3.47882142 10.64948691
v 2.05589499 3.47882142 14.19931588
v 2.05589499 3.47882142 17.74914485
v 3.67260961 1.48234514 17.74914485
v 11.1755246 9.1173669 17.74914485
v 9.15113683 10.69899197 10.64948691
v 9.15113683 10.69899197 14.19931588
v 9.15113683 10.69899197 17.74914485
v 15.22430014 5.95411676 17.74914485
v 13.19991237 7.53574183 17.74914485
v 14.44034309 19.33019214 10.64948691
v 16.76863416 18.24449218 10.64948691
v 19.09692523 17.15879222 10.64948691
v 26.08179844 13.90169235 10.64948691
v 21.4252163 16.07309227 10.64948691
v 23.75350737 14.98739231 10.64948691
v 14.44034309 19.33019214 14.19931588
v 16.76863416 18.24449218 14.19931588
v 19.09692523 17.15879222 14.19931588
v 14.44034309 19.33019214 17.74914485
v 16.76863416 18.24449218 17.74914485
v 19.09692523 17.15879222 17.74914485
v 26.08179844 13.90169235 14.19931588
v 25.22266693 12.49971714 17.74914485
v 26.08179844 13.90169235 17.74914485
v 21.4252163 16.07309227 14.19931588
v 23.75350737 14.98739231 14.19931588
v 21.4252163 16.07309227 17.74914485
v 23.75350737 14.98739231 17.74914485
f 1 4 2
f 2 7 5
f 1 2 9
f 1 9 3
f 2 5 10
f 1 3 4
f 2 4 7
f 3 11 14
f 5 8 6
f 6 19 17
f 5 6 12
f 6 17 13
f 5 7 8
f 3 24 4
f 4 24 7
f 6 8 19
f 7 24 8
f 2 10 9
f 3 9 11
f 5 12 10
f 6 13 12
f 3 14 24
f 11 15 14
f 11 16 15
f 15 16 38
f 17 20 18
f 17 18 21
f 17 19 20
f 8 24 19
f 19 24 20
f 18 20 23
f 13 17 21
f 18 22 21
f 18 23 22
f 20 25 23
f 20 24 25
f 23 25 26
f 25 42 26
f 9 10 27
f 9 27 11
f 10 12 29
f 12 13 33
f 11 27 30
f 10 29 27
f 12 33 29
f 27 29 28
f 29 33 28
f 11 30 16
f 16 31 38
f 16 30 31
f 27 28 49
f 27 49 30
f 13 21 32
f 21 22 34
f 13 32 33
f 21 34 32
f 22 35 34
f 22 36 35
f 22 23 36
f 32 60 33
f 32 34 59
f 34 35 64
f 35 36 65
f 23 26 37
f 23 37 36
f 26 52 37
f 36 37 67
f 15 40 39
f 15 38 40
f 26 42 41
f 41 42 43
f 41 43 51
f 38 45 40
f 40 45 44
f 31 45 38
f 30 49 31
f 44 45 47
f 31 49 45
f 44 48 46
f 44 47 48
f 45 49 47
f 46 48 50
f 46 55 54
f 46 50 55
f 47 49 48
f 48 49 50
f 50 49 55
f 26 41 52
f 41 51 52
f 51 56 52
f 37 52 92
f 52 56 93
f 46 57 58
f 46 58 53
f 51 53 56
f 53 58 56
f 46 54 57
f 54 55 62
f 56 58 94
f 54 61 57
f 57 95 58
f 35 63 64
f 35 65 63
f 36 67 65
f 37 92 67
f 52 93 92
f 56 94 93
f 58 95 94
f 33 60 28
f 32 59 60
f 34 64 59
f 60 71 28
f 55 49 62
f 54 62 61
f 57 61 95
f 62 49 115
f 63 66 64
f 63 65 69
f 59 71 60
f 59 64 72
f 59 72 71
f 71 83 28
f 64 66 72
f 63 68 66
f 63 69 68
f 65 67 70
f 65 70 69
f 67 97 70
f 66 68 74
f 68 69 76
f 68 76 73
f 69 70 86
f 69 86 76
f 70 102 86
f 80 79 28
f 80 28 83
f 66 75 72
f 71 72 82
f 72 75 82
f 68 73 74
f 66 74 75
f 73 77 74
f 74 78 75
f 73 76 77
f 74 77 78
f 71 82 83
f 80 81 79
f 80 83 81
f 81 89 79
f 75 84 82
f 82 85 83
f 75 78 84
f 82 84 85
f 81 83 85
f 76 87 77
f 76 86 87
f 77 88 78
f 77 87 88
f 86 103 87
f 87 104 88
f 81 85 89
f 89 105 79
f 105 114 79
f 89 91 105
f 78 90 84
f 78 88 90
f 84 90 91
f 84 91 85
f 85 91 89
f 88 106 90
f 90 107 91
f 67 92 97
f 92 93 98
f 92 98 97
f 94 95 96
f 93 94 99
f 61 62 100
f 61 101 95
f 61 100 101
f 93 99 98
f 95 101 96
f 94 96 99
f 70 97 102
f 97 98 108
f 97 108 102
f 98 99 111
f 96 112 99
f 98 111 108
f 62 115 100
f 86 102 103
f 87 103 104
f 102 109 103
f 102 108 109
f 103 110 104
f 103 109 110
f 114 116 79
f 116 115 79
f 105 107 114
f 88 104 106
f 90 106 107
f 91 107 105
f 104 117 106
f 104 110 117
f 106 117 118
f 106 118 107
f 107 118 114
f 96 101 113
f 100 119 101
f 101 119 113
f 108 112 109
f 109 113 110
f 99 112 111
f 96 113 112
f 108 111 112
f 109 112 113
f 114 118 116
f 100 115 120
f 100 120 119
f 116 120 115
f 110 119 117
f 117 120 118
f 110 113 119
f 117 119 120
f 116 118 120
f 14 25 24
f 14 15 25
f 15 42 25
f 15 39 42
f 39 40 43
f 39 43 42
f 40 44 51
f 44 46 51
f 40 51 43
f 46 53 51
f 28 79 49
f 49 79 115
