# MAAS exact compiled indexed mesh
# program_hash 391b1fbe86464c9332316565a0e50ba69f06ad898bfcbb62e015e9a335f5da39
# geometry_hash d806250dc1ead7c8edbd2588d07f6c75e6667bf81f0d3083d3ef2822cc2547e1
v -13.9855282 -13.9855282 0
v -12.75480172 -12.75480172 3.3
v -13.9855282 -8.39131692 0
v -12.75480172 -7.65288103 3.3
v -8.39131692 -13.9855282 0
v -7.65288103 -12.75480172 3.3
v -8.39131692 -8.39131692 0
v -11.52407524 -11.52407524 6.6
v -13.9855282 -2.79710564 0
v -12.75480172 -2.55096034 3.3
v -8.39131692 -2.79710564 0
v -11.52407524 -6.91444514 6.6
v -11.52407524 -2.30481505 6.6
v -6.15363241 -13.9855282 0
v -6.91444514 -11.52407524 6.6
v -10.29334876 -10.29334876 9.9
v -9.06262227 -9.06262227 13.2
v -7.83189579 -7.83189579 16.5
v -10.29334876 -6.17600925 9.9
v -10.29334876 -2.05866975 9.9
v -9.06262227 -5.43757336 13.2
v -7.83189579 -4.69913748 16.5
v -9.06262227 -1.81252445 13.2
v -7.83189579 -1.56637916 16.5
v -6.17600925 -10.29334876 9.9
v -6.15363241 -7.83189579 16.5
v -13.9855282 2.79710564 0
v -12.75480172 2.55096034 3.3
v -8.39131692 2.79710564 0
v -11.52407524 2.30481505 6.6
v -11.52407524 6.91444514 6.6
v -13.9855282 8.39131692 0
v -12.75480172 7.65288103 3.3
v -13.9855282 13.9855282 0
v -12.75480172 12.75480172 3.3
v -8.39131692 8.39131692 0
v -8.39131692 13.9855282 0
v -7.65288103 12.75480172 3.3
v -11.52407524 11.52407524 6.6
v -6.15363241 6.15363241 0
v -2.79710564 8.39131692 0
v -2.79710564 13.9855282 0
v -2.55096034 12.75480172 3.3
v -6.91444514 11.52407524 6.6
v -2.30481505 11.52407524 6.6
v -10.29334876 2.05866975 9.9
v -10.29334876 6.17600925 9.9
v -9.06262227 1.81252445 13.2
v -7.83189579 1.56637916 16.5
v -9.06262227 5.43757336 13.2
v -7.83189579 4.69913748 16.5
v -10.29334876 10.29334876 9.9
v -9.06262227 9.06262227 13.2
v -7.83189579 7.83189579 16.5
v -6.15363241 6.15363241 16.5
v -6.17600925 10.29334876 9.9
v -2.05866975 10.29334876 9.9
v -5.43757336 9.06262227 13.2
v -4.69913748 7.83189579 16.5
v -1.81252445 9.06262227 13.2
v -1.56637916 7.83189579 16.5
v 6.15363241 -13.9855282 0
v 6.91444514 -11.52407524 6.6
v 8.39131692 -13.9855282 0
v 7.65288103 -12.75480172 3.3
v 8.39131692 -8.39131692 0
v 13.9855282 -13.9855282 0
v 12.75480172 -12.75480172 3.3
v 13.9855282 -8.39131692 0
v 12.75480172 -7.65288103 3.3
v 11.52407524 -11.52407524 6.6
v 8.39131692 -2.79710564 0
v 13.9855282 -2.79710564 0
v 12.75480172 -2.55096034 3.3
v 11.52407524 -6.91444514 6.6
v 11.52407524 -2.30481505 6.6
v 6.15363241 -10.908712 8.25
v 6.17600925 -10.29334876 9.9
v 6.15363241 -4.31984995 8.25
v 6.17600925 -4.07616611 9.9
v 6.15363241 -3.10143073 16.5
v 8.85004225 -10.908712 8.25
v 9.43370496 -10.80615146 8.525
v 10.29334876 -10.29334876 9.9
v 10.908712 -10.908712 8.25
v 10.29334876 -4.07616611 9.9
v 10.29334876 -2.44569966 9.9
v 10.29334876 -0.81523322 9.9
v 10.908712 -6.5452272 8.25
v 10.71516918 -4.84919228 8.7689547
v 10.908712 -4.31984995 8.25
v 10.908712 -2.1817424 8.25
v 9.06262227 -3.58879842 13.2
v 9.06262227 -2.15327905 13.2
v 9.06262227 -0.71775968 13.2
v 7.83189579 -3.10143073 16.5
v 7.83189579 -1.86085844 16.5
v 7.83189579 -0.62028615 16.5
v 6.15363241 6.15363241 0
v 2.79710564 8.39131692 0
v 2.79710564 13.9855282 0
v 2.55096034 12.75480172 3.3
v 2.30481505 11.52407524 6.6
v 6.91444514 11.52407524 6.6
v 8.39131692 2.79710564 0
v 13.9855282 2.79710564 0
v 12.75480172 2.55096034 3.3
v 11.52407524 2.30481505 6.6
v 11.52407524 6.91444514 6.6
v 8.39131692 8.39131692 0
v 8.39131692 13.9855282 0
v 7.65288103 12.75480172 3.3
v 13.9855282 8.39131692 0
v 12.75480172 7.65288103 3.3
v 13.9855282 13.9855282 0
v 12.75480172 12.75480172 3.3
v 11.52407524 11.52407524 6.6
v 0 6.15363241 8.25
v 6.15363241 4.31984995 8.25
v 6.17600925 4.07616611 9.9
v 6.15363241 6.15363241 8.25
v 0 6.15363241 16.5
v 6.15363241 3.10143073 16.5
v 2.05866975 10.29334876 9.9
v 0 10.908712 8.25
v 0 10.60510738 9.06406815
v 6.17600925 10.29334876 9.9
v 3.52610175 10.69791244 8.81522596
v 4.47148272 10.83525025 8.44697614
v 6.5452272 10.908712 8.25
v 0 7.83189579 16.5
v 10.29334876 0.81523322 9.9
v 10.29334876 2.44569966 9.9
v 10.29334876 4.07616611 9.9
v 10.29334876 6.17600925 9.9
v 10.908712 4.31984995 8.25
v 9.06262227 0.71775968 13.2
v 9.06262227 2.15327905 13.2
v 7.83189579 0.62028615 16.5
v 7.83189579 1.86085844 16.5
v 7.83189579 3.10143073 16.5
v 9.06262227 3.58879842 13.2
v 10.29334876 10.29334876 9.9
v 10.78563935 8.31523565 8.58
v 10.908712 8.85004225 8.25
v 10.83268256 8.79785841 8.453861
v 10.85261051 8.97576059 8.40042735
v 10.908712 10.908712 8.25
f 1 5 2
f 1 3 5
f 1 2 4
f 1 4 3
f 5 14 6
f 5 7 14
f 2 5 6
f 3 7 5
f 7 11 14
f 2 6 8
f 2 12 4
f 2 8 12
f 8 19 12
f 6 15 8
f 8 15 16
f 3 10 9
f 3 9 7
f 3 4 10
f 9 27 11
f 9 10 28
f 7 9 11
f 11 29 14
f 4 13 10
f 4 12 13
f 12 20 13
f 10 13 30
f 6 14 15
f 15 14 25
f 29 40 14
f 8 16 19
f 15 25 16
f 16 21 19
f 16 17 21
f 16 25 17
f 17 25 26
f 17 18 22
f 17 26 18
f 12 19 20
f 13 20 46
f 19 21 23
f 19 23 20
f 20 23 48
f 17 22 21
f 21 22 24
f 21 24 23
f 18 55 22
f 23 24 49
f 22 55 24
f 25 14 26
f 18 26 55
f 9 28 27
f 27 33 32
f 27 32 29
f 27 28 33
f 11 27 29
f 29 32 36
f 29 36 40
f 10 30 28
f 13 46 30
f 28 31 33
f 28 30 31
f 30 47 31
f 32 34 36
f 32 33 35
f 32 35 34
f 34 35 38
f 34 37 36
f 34 38 37
f 31 39 33
f 31 52 39
f 33 39 35
f 35 39 44
f 35 44 38
f 39 56 44
f 36 41 40
f 36 37 41
f 37 42 41
f 37 43 42
f 37 38 43
f 41 100 40
f 41 42 100
f 42 43 102
f 38 44 45
f 38 45 43
f 44 57 45
f 43 45 103
f 30 46 47
f 20 48 46
f 46 48 50
f 46 50 47
f 47 50 53
f 23 49 48
f 48 49 51
f 24 55 49
f 48 51 50
f 49 55 51
f 50 51 54
f 51 55 54
f 31 47 52
f 47 53 52
f 52 58 56
f 52 53 58
f 39 52 56
f 50 54 53
f 53 54 59
f 59 55 122
f 56 58 60
f 44 56 57
f 56 60 57
f 57 60 126
f 45 57 126
f 45 126 124
f 53 59 58
f 54 55 59
f 58 59 61
f 58 61 60
f 60 61 126
f 61 131 126
f 59 122 61
f 61 122 131
f 63 62 65
f 63 77 62
f 64 65 62
f 64 62 66
f 64 67 65
f 64 66 67
f 66 62 72
f 67 69 68
f 65 67 68
f 66 69 67
f 68 69 70
f 63 65 68
f 63 68 71
f 63 82 77
f 63 71 82
f 71 83 82
f 68 70 71
f 70 75 71
f 71 75 84
f 72 62 105
f 66 72 69
f 105 62 110
f 72 105 73
f 69 72 73
f 69 73 70
f 70 73 74
f 73 106 74
f 74 76 75
f 70 74 75
f 75 90 89
f 75 76 90
f 74 107 76
f 76 92 90
f 76 108 92
f 71 84 83
f 78 83 84
f 75 89 84
f 110 99 40
f 110 62 99
f 100 110 40
f 42 101 100
f 42 102 101
f 100 101 110
f 101 111 110
f 101 112 111
f 101 102 112
f 43 103 102
f 45 124 103
f 103 128 129
f 102 103 104
f 102 104 112
f 103 129 104
f 104 129 130
f 105 110 106
f 73 105 106
f 74 106 107
f 106 110 113
f 106 113 107
f 107 113 114
f 76 107 108
f 92 108 109
f 92 109 136
f 108 114 109
f 107 114 108
f 109 145 136
f 110 111 113
f 111 112 116
f 113 115 114
f 111 115 113
f 111 116 115
f 114 115 116
f 104 117 112
f 104 143 117
f 109 116 117
f 109 114 116
f 109 117 145
f 117 147 145
f 112 117 116
f 103 124 128
f 124 127 128
f 135 144 143
f 104 130 143
f 143 144 146
f 143 146 147
f 117 143 147
f 78 85 83
f 82 83 85
f 78 84 85
f 84 89 85
f 89 90 91
f 90 92 91
f 124 126 125
f 125 129 128
f 125 128 127
f 124 125 127
f 125 130 129
f 130 148 143
f 135 148 144
f 144 148 146
f 145 147 148
f 146 148 147
f 135 143 148
f 80 81 79
f 80 79 91
f 80 91 86
f 80 86 81
f 86 87 93
f 87 88 94
f 87 94 93
f 88 132 95
f 88 95 94
f 86 91 92
f 86 92 136
f 86 136 87
f 86 93 81
f 93 94 96
f 94 95 97
f 95 137 98
f 93 96 81
f 94 97 96
f 96 97 81
f 97 98 81
f 95 98 97
f 98 139 81
f 139 140 81
f 120 119 123
f 141 123 81
f 132 133 137
f 95 132 137
f 133 134 138
f 133 138 137
f 134 142 138
f 120 134 119
f 134 136 119
f 120 142 134
f 87 136 88
f 88 136 132
f 132 136 133
f 133 136 134
f 137 138 139
f 138 142 140
f 98 137 139
f 138 140 139
f 140 141 81
f 141 142 123
f 140 142 141
f 120 123 142
f 82 89 77
f 85 89 82
f 89 91 77
f 91 79 77
f 131 122 118
f 125 126 118
f 125 118 121
f 126 131 118
f 125 121 136
f 125 145 130
f 136 121 119
f 125 136 145
f 130 145 148
f 14 40 55
f 26 14 55
f 40 118 55
f 122 55 118
f 62 77 79
f 62 121 99
f 62 79 119
f 62 119 121
f 79 81 123
f 40 99 121
f 40 121 118
f 79 123 119
