# MAAS exact compiled indexed mesh
# program_hash fb8ff92e0e1f79d138be12630c2e53dd594470ab6b206cd97b9d67b510780403
# geometry_hash 789e2d2a7ea9159f82e351cf46049317ce693a7827745edacb9bb7d6ac2cd175
v -18.75209448 -13.90100917 0
v -18.75209448 -13.90100917 4.96607604
v -17.85525518 -13.00416987 4.96607604
v -17.85525518 -1.16801798 0
v -18.75209448 -0.85607388 0
v -17.85525518 -0.85607388 0
v -9.71939545 -3.99788224 0
v -18.75209448 -0.85607388 4.96607604
v -17.85525518 -0.85607388 4.96607604
v -5.62562834 -13.00416987 4.96607604
v -5.62562834 -0.85607388 0
v -5.62562834 -0.85607388 4.96607604
v -17.85525518 -13.00416987 10.86329133
v -5.62562834 -13.00416987 10.86329133
v -17.85525518 13.90100917 0
v -5.62562834 13.90100917 0
v -17.85525518 13.90100917 10.86329133
v -5.62562834 0.85607388 6.20759505
v -5.62562834 0.85607388 10.86329133
v -5.62562834 13.08570071 6.20759505
v -5.62562834 10.13020756 10.86329133
v -5.62562834 13.08570071 10.86329133
v -5.62562834 13.90100917 10.86329133
v 18.75209448 -13.90100917 0
v 18.75209448 -13.90100917 4.96607604
v 18.75209448 -0.85607388 0
v 18.75209448 -0.85607388 4.96607604
v 0 0.85607388 6.20759505
v 0 0.85607388 10.86329133
v 2.48873384 4.81358112 10.86329133
v 2.48873384 4.81358112 11.4
v 8.35660663 4.81358112 10.86329133
v 8.35660663 4.81358112 11.4
v 0 13.08570071 6.20759505
v 2.48873384 9.12819347 10.86329133
v 2.48873384 9.12819347 11.4
v 0 13.08570071 10.86329133
v 8.35660663 9.12819347 10.86329133
v 8.35660663 9.12819347 11.4
v 16.6322925 0.85607388 6.20759505
v 16.6322925 0.85607388 10.86329133
v 16.6322925 13.08570071 6.20759505
v 16.6322925 13.08570071 10.86329133
f 1 2 8
f 2 3 9
f 1 5 4
f 1 4 7
f 1 8 5
f 4 5 6
f 5 8 6
f 2 9 8
f 6 8 9
f 1 24 2
f 1 7 24
f 2 25 3
f 3 25 10
f 2 24 25
f 7 11 24
f 11 12 26
f 10 27 12
f 24 26 25
f 10 25 27
f 11 26 24
f 12 27 26
f 25 26 27
f 4 6 7
f 3 13 9
f 3 10 14
f 3 14 13
f 13 14 17
f 10 12 14
f 14 18 19
f 6 15 7
f 7 15 11
f 6 9 17
f 11 15 16
f 6 17 15
f 15 23 16
f 11 16 12
f 12 16 14
f 14 16 18
f 16 20 18
f 16 23 20
f 9 13 17
f 14 19 17
f 15 17 23
f 17 19 21
f 17 21 22
f 17 22 23
f 20 23 22
f 18 28 29
f 18 20 28
f 18 29 19
f 19 29 37
f 20 34 28
f 20 22 34
f 19 37 21
f 22 37 34
f 21 37 22
f 40 28 34
f 30 35 29
f 41 29 28
f 30 29 41
f 30 41 32
f 42 34 37
f 35 37 29
f 35 38 37
f 38 43 37
f 40 41 28
f 40 42 41
f 32 41 43
f 40 34 42
f 32 43 38
f 42 37 43
f 41 42 43
f 30 33 31
f 30 32 33
f 31 33 39
f 32 39 33
f 31 39 36
f 35 36 38
f 36 39 38
f 32 38 39
f 30 31 35
f 31 36 35
