# MAAS exact compiled indexed mesh
# program_hash d8f40311151ed90f186faadcbb1276a4585ef2079fd9841c7ac5d5bafca8a58f
# geometry_hash 037ca21c92b33302e5be8e00756e6a82bfb9c83f97e80de72d3d82cfff9f7eac
v -12.70388744 -13.06498896 0
v -14.35708082 -10.86073111 3.56923077
v -12.70388744 -10.86073111 3.56923077
v -12.70388744 -13.06498896 3.69230769
v -12.70388744 -10.86073111 3.69230769
v -14.35708082 -0.39050632 3.56923077
v -12.70388744 -0.39050632 3.56923077
v -12.70388744 -0.39050632 3.69230769
v -12.15282297 -0.39050632 7.13846154
v -3.88685604 -13.06498896 0
v -3.88685604 -13.06498896 3.69230769
v -3.88685604 -10.86073111 3.69230769
v -3.88685604 -6.45221541 7.13846154
v -3.88685604 -0.39050632 3.69230769
v -6.64217835 -0.39050632 7.13846154
v -4.98898496 -0.39050632 7.13846154
v -3.88685604 -0.39050632 7.13846154
v -14.35708082 -10.86073111 7.2
v -14.35708082 -10.86073111 7.26153846
v -12.15282297 -10.30966664 7.26153846
v -12.15282297 -10.30966664 10.83076923
v -11.60175851 -8.10540879 10.83076923
v -11.60175851 -8.10540879 14.4
v -13.0858932 -4.82258989 7.26153846
v -12.15282297 -5.34779405 7.26153846
v -12.75434501 -3.24773597 7.26153846
v -12.68848564 -2.93490401 7.26153846
v -14.35708082 -0.39050632 7.2
v -14.35708082 -0.39050632 7.26153846
v -13.1961423 -0.39050632 7.26153846
v -12.15282297 -2.67416199 7.26153846
v -12.52609363 -0.39050632 7.26153846
v -12.15282297 -0.39050632 7.2
v -12.15282297 -0.39050632 7.26153846
v -11.90841486 -0.39050632 7.26153846
v -11.60175851 -2.04369971 10.83076923
v -12.15282297 -0.39050632 10.83076923
v -11.90841486 -0.39050632 10.83076923
v -10.83712351 -0.39050632 10.83076923
v -11.60175851 -2.04369971 14.4
v -10.55983583 -0.39050632 10.83076923
v -4.98898496 -10.30966664 7.26153846
v -3.88685604 -10.86073111 7.2
v -3.88685604 -10.86073111 7.26153846
v -4.98898496 -8.1805299 7.26153846
v -3.88685604 -8.1805299 7.2
v -3.88685604 -8.1805299 7.26153846
v -2.72285668 -8.1805299 7.2
v -4.98898496 -10.30966664 10.83076923
v -6.09111389 -8.10540879 10.83076923
v -4.98898496 -8.1805299 10.83076923
v -6.09111389 -8.10540879 14.4
v -2.72285668 -8.1805299 10.83076923
v -3.88685604 -6.45221541 7.2
v -6.64217835 -0.39050632 7.2
v -2.72285668 -6.45221541 7.2
v -5.03980624 -6.52844732 10.83076923
v -5.01507069 -6.35656774 10.83076923
v -6.09111389 -2.41107602 10.83076923
v -6.19130743 -2.04369971 10.83076923
v -6.09111389 -2.04369971 10.83076923
v -6.25589619 -1.80687424 10.83076923
v -6.06098677 -1.80687424 10.83076923
v -5.40098926 -0.02180731 10.83076923
v -6.09111389 -2.04369971 14.4
v -2.83835321 -6.45221541 10.83076923
v -2.72285668 -6.45221541 10.83076923
v -12.70388744 8.97758954 0
v -12.70388744 8.97758954 3.69230769
v -3.88685604 2.91588045 0
v -3.88685604 2.91588045 3.56923077
v -6.64217835 2.91588045 3.69230769
v -3.88685604 2.91588045 3.69230769
v -6.64217835 0.7116226 7.13846154
v -6.09111389 8.97758954 0
v -6.64217835 8.97758954 3.56923077
v -6.09111389 8.97758954 3.56923077
v -6.09111389 10.07971847 0
v -6.64217835 10.07971847 3.56923077
v -6.09111389 10.07971847 3.56923077
v -6.64217835 8.97758954 3.69230769
v -11.90841486 2.63175162 7.26153846
v -13.1961423 4.89680146 7.26153846
v -11.90841486 9.52406915 7.26153846
v -14.35708082 10.94043707 7.2
v -14.35708082 10.94043707 7.26153846
v -11.90841486 9.52406915 10.83076923
v -6.64217835 0.7116226 7.2
v -6.64217835 2.91588045 7.2
v -2.72285668 0.7116226 7.2
v -3.27698197 1.0258616 7.26153846
v -2.78220926 0.90864374 7.2
v -2.72285668 1.0258616 7.2
v -2.72591751 1.0258616 7.2
v -2.72591751 1.0258616 7.26153846
v -3.27698197 2.91588045 7.26153846
v -3.2441195 2.91588045 7.2
v -2.9545243 2.91588045 7.26153846
v -2.72591751 2.91588045 7.2
v -2.72591751 2.91588045 7.26153846
v -5.24249188 0.7116226 10.83076923
v -5.06777594 0.7116226 10.83076923
v -3.98939109 6.51021431 10.83076923
v -3.31055629 0.7116226 10.83076923
v -2.72285668 0.7116226 10.83076923
v -3.27698197 1.0258616 10.83076923
v -2.72285668 1.0258616 10.83076923
v -5.38071066 9.52406915 7.26153846
v -5.17458347 9.67205322 7.26153846
v -6.64217835 10.07971847 7.2
v -5.17458347 10.07971847 7.26153846
v -5.17458347 10.94043707 7.2
v -5.17458347 10.94043707 7.26153846
v -5.17458347 13.06498896 7.2
v -5.17458347 13.06498896 7.26153846
v -3.338084 7.32439615 7.26153846
v -3.27698197 7.32439615 7.26153846
v -3.338084 9.52406915 7.26153846
v -2.72285668 10.07971847 7.2
v -2.72285668 10.07971847 7.26153846
v -2.72285668 13.06498896 7.2
v -2.72285668 13.06498896 7.26153846
v -3.338084 7.32439615 10.83076923
v -3.27698197 7.32439615 10.83076923
v -3.338084 9.52406915 10.83076923
v 2.72591751 -11.96286003 0
v 2.72591751 -11.96286003 3.69230769
v 2.72591751 -4.24795756 3.69230769
v 2.72591751 -4.24795756 7.13846154
v 5.48123982 -6.45221541 7.13846154
v 5.48123982 -4.24795756 7.13846154
v 11.54294891 -11.96286003 0
v 11.54294891 -11.96286003 3.69230769
v 11.54294891 -4.24795756 3.56923077
v 13.1961423 -4.24795756 3.56923077
v 11.54294891 -4.24795756 3.69230769
v 2.72285668 -8.1805299 7.2
v 3.88685604 -10.86073111 7.2
v 3.88685604 -10.86073111 7.26153846
v 4.98898496 -10.30966664 7.26153846
v 3.88685604 -8.1805299 7.2
v 3.88685604 -8.1805299 7.26153846
v 4.98898496 -8.1805299 7.26153846
v 2.72285668 -8.1805299 10.83076923
v 4.98898496 -10.30966664 10.83076923
v 4.98898496 -8.1805299 10.83076923
v 6.09111389 -8.10540879 10.83076923
v 5.55147389 -7.2959488 10.83076923
v 6.09111389 -8.10540879 14.4
v 2.72285668 -6.45221541 7.2
v 4.99006649 -6.45221541 7.2
v 5.48123982 -6.45221541 7.2
v 5.48123982 -4.24795756 7.2
v 0 -5.50675651 10.83076923
v 2.72285668 -6.45221541 10.83076923
v 2.83835321 -6.45221541 10.83076923
v 2.7829337 -6.03414824 10.83076923
v 2.86524857 -6.04974767 10.83076923
v 0 -3.21330097 10.83076923
v 3.2999129 -1.26335243 10.83076923
v 4.58418212 -6.37550152 10.83076923
v 5.03980624 -6.52844732 10.83076923
v 5.01507069 -6.35656774 10.83076923
v 5.05730503 -6.20170848 10.83076923
v 5.04805555 -6.19624288 10.83076923
v 5.16014254 -5.82463762 10.83076923
v 5.4808076 -4.64886574 10.83076923
v 5.54696654 -4.03429522 10.83076923
v 3.859075 -0.93293847 10.83076923
v 4.52442018 -0.53977995 10.83076923
v 4.54082181 -0.53008808 10.83076923
v 5.22366168 -0.12659179 10.83076923
v 6.09111389 -2.41107602 10.83076923
v 6.09111389 -2.04369971 10.83076923
v 6.19130743 -2.04369971 10.83076923
v 6.06098677 -1.80687424 10.83076923
v 6.25589619 -1.80687424 10.83076923
v 5.40098926 -0.02180731 10.83076923
v 6.09111389 -2.04369971 14.4
v 12.15282297 -10.30966664 7.26153846
v 14.35708082 -10.86073111 7.2
v 14.35708082 -10.86073111 7.26153846
v 12.15282297 -10.30966664 10.83076923
v 11.60175851 -8.10540879 10.83076923
v 11.60175851 -8.10540879 14.4
v 12.15282297 -5.34779405 7.26153846
v 13.0858932 -4.82258989 7.26153846
v 13.1961423 -4.24795756 7.2
v 12.15282297 -2.67416199 7.26153846
v 11.90841486 -0.39050632 7.26153846
v 12.15282297 -0.39050632 7.26153846
v 12.52609363 -0.39050632 7.26153846
v 12.75434501 -3.24773597 7.26153846
v 12.68848564 -2.93490401 7.26153846
v 13.1961423 -0.58924258 7.2
v 13.1961423 -0.39050632 7.26153846
v 14.35708082 -0.39050632 7.2
v 14.35708082 -0.39050632 7.26153846
v 11.60175851 -2.04369971 10.83076923
v 10.89258674 -0.73998359 10.83076923
v 11.73974855 -1.6297296 10.83076923
v 11.90841486 -1.12373065 10.83076923
v 11.90841486 -0.45828336 10.83076923
v 11.90841486 -0.39050632 10.83076923
v 12.15282297 -0.39050632 10.83076923
v 11.60175851 -2.04369971 14.4
v 2.72591751 2.91588045 0
v 2.72591751 2.91588045 3.56923077
v 2.72591751 4.34864806 0
v 4.93017536 3.74247715 0
v 2.72591751 2.91588045 3.69230769
v 2.72591751 0.7116226 7.13846154
v 4.93017536 8.97758954 0
v 4.93017536 8.97758954 3.56923077
v 4.93017536 9.01432717 3.56923077
v 4.93017536 10.07971847 0
v 4.93017536 10.07971847 3.56923077
v 4.93017536 8.42652508 3.69230769
v 4.93017536 8.97758954 3.69230769
v 4.93017536 10.07971847 3.69230769
v 11.54294891 8.97758954 0
v 11.54294891 8.42652508 3.56923077
v 13.1961423 8.42652508 3.56923077
v 11.54294891 8.42652508 3.69230769
v 11.54294891 8.97758954 3.69230769
v 2.72591751 0.7116226 7.2
v 2.72285668 0.7116226 7.2
v 2.72285668 1.0258616 7.2
v 2.72591751 1.0258616 7.2
v 2.72591751 1.0258616 7.26153846
v 3.27698197 1.0258616 7.26153846
v 2.72591751 2.91588045 7.2
v 2.72591751 2.91588045 7.26153846
v 0 3.88336862 7.26153846
v 0 5.96789377 7.26153846
v 2.72591751 3.30997609 7.26153846
v 2.82552949 3.29995207 7.26153846
v 2.72591751 3.48631621 7.26153846
v 3.0183688 3.44371826 7.26153846
v 3.27698197 3.40604911 7.26153846
v 0 0.58220527 10.83076923
v 2.72285668 0.7116226 10.83076923
v 2.94117779 0.67180235 10.83076923
v 3.10112977 0.64262821 10.83076923
v 3.2905061 0.67556088 10.83076923
v 3.31274955 0.64675145 10.83076923
v 3.34129691 0.64730767 10.83076923
v 3.3143818 0.67581777 10.83076923
v 3.31456249 0.67581971 10.83076923
v 3.4701728 0.64981871 10.83076923
v 2.72285668 1.0258616 10.83076923
v 3.27698197 1.0258616 10.83076923
v 3.98939109 6.51021431 10.83076923
v 0 9.70991638 7.26153846
v 3.27698197 7.32439615 7.26153846
v 3.338084 7.32439615 7.26153846
v 3.07994848 7.87452854 7.26153846
v 3.27883515 9.14545647 7.26153846
v 3.338084 9.52406915 7.26153846
v 2.72285668 10.07971847 7.2
v 2.72285668 10.07971847 7.26153846
v 2.95043217 9.87418116 7.26153846
v 3.24154111 10.07971847 7.26153846
v 2.72285668 13.06498896 7.2
v 2.72285668 13.06498896 7.26153846
v 4.93017536 8.42652508 7.2
v 4.6418408 9.52406915 7.26153846
v 5.08864781 9.6481822 7.26153846
v 5.38071066 9.52406915 7.26153846
v 5.17458347 9.67205322 7.26153846
v 6.59180245 8.42652508 7.2
v 4.31917774 9.95038582 7.26153846
v 4.93017536 10.07971847 7.2
v 4.95516768 9.98579445 7.26153846
v 5.17458347 10.94043707 7.2
v 5.17458347 10.94043707 7.26153846
v 5.17458347 13.06498896 7.2
v 5.17458347 13.06498896 7.26153846
v 5.65981396 10.07971847 7.2
v 3.27698197 7.32439615 10.83076923
v 3.338084 7.32439615 10.83076923
v 3.338084 9.52406915 10.83076923
v 11.90841486 2.63175162 7.26153846
v 13.1961423 4.89680146 7.26153846
v 11.90841486 9.52406915 7.26153846
v 13.1961423 8.42652508 7.2
v 14.35708082 10.94043707 7.2
v 14.35708082 10.94043707 7.26153846
v 11.90841486 9.52406915 10.83076923
f 1 4 3
f 1 3 7
f 1 10 4
f 3 4 5
f 4 11 5
f 1 7 69
f 1 68 10
f 10 11 4
f 10 12 11
f 10 14 12
f 5 11 12
f 10 73 14
f 10 68 70
f 10 70 71
f 10 71 73
f 1 69 68
f 7 8 69
f 8 14 69
f 69 14 72
f 68 69 75
f 68 75 70
f 75 69 76
f 69 72 81
f 76 69 81
f 72 14 73
f 75 76 77
f 126 127 207
f 126 132 127
f 126 207 132
f 127 133 128
f 127 208 207
f 132 207 210
f 127 128 208
f 132 133 127
f 128 133 136
f 134 136 133
f 132 221 133
f 134 133 221
f 207 209 210
f 128 211 208
f 210 213 221
f 213 214 221
f 214 219 221
f 218 224 219
f 132 210 221
f 134 221 222
f 221 219 225
f 221 225 222
f 219 224 225
f 222 225 224
f 70 207 71
f 70 75 209
f 75 80 78
f 75 77 80
f 75 78 209
f 78 80 217
f 71 207 208
f 70 209 207
f 210 209 213
f 78 213 209
f 78 216 213
f 78 217 216
f 213 216 215
f 213 215 214
f 216 217 215
f 215 220 219
f 215 217 220
f 2 7 3
f 2 3 5
f 2 5 18
f 2 18 28
f 5 12 18
f 18 12 43
f 2 6 7
f 2 28 6
f 6 8 7
f 6 28 9
f 9 28 33
f 6 9 15
f 6 17 8
f 6 15 16
f 6 16 17
f 12 13 43
f 43 13 46
f 13 54 46
f 12 14 13
f 8 17 14
f 13 14 17
f 72 73 89
f 72 89 110
f 73 211 89
f 71 208 73
f 211 97 89
f 211 99 97
f 76 79 80
f 76 80 77
f 72 110 81
f 76 81 79
f 79 81 110
f 79 110 119
f 79 220 80
f 79 119 260
f 73 208 211
f 211 232 99
f 80 220 217
f 79 273 220
f 79 260 273
f 214 215 219
f 218 219 266
f 219 220 266
f 220 273 266
f 15 55 88
f 15 74 16
f 74 17 16
f 13 130 54
f 130 56 54
f 13 17 129
f 15 88 74
f 74 88 90
f 74 212 17
f 74 90 227
f 74 226 212
f 74 227 226
f 13 129 131
f 130 150 56
f 13 131 130
f 17 212 129
f 130 151 150
f 130 152 151
f 130 131 152
f 131 153 152
f 128 129 211
f 129 212 211
f 128 136 131
f 128 131 129
f 134 223 135
f 135 131 136
f 135 153 131
f 135 188 153
f 134 135 136
f 135 223 188
f 212 226 229
f 212 229 232
f 211 212 232
f 218 266 271
f 134 222 223
f 223 195 188
f 223 286 195
f 218 286 224
f 218 271 286
f 222 224 223
f 223 224 286
f 9 33 55
f 9 55 15
f 18 43 19
f 19 20 25
f 18 19 29
f 19 25 24
f 19 44 20
f 19 43 44
f 19 24 29
f 18 29 28
f 24 26 29
f 26 27 29
f 27 30 29
f 27 32 30
f 20 44 42
f 44 43 47
f 42 47 45
f 42 44 47
f 47 43 46
f 96 98 234
f 98 100 234
f 96 235 117
f 96 234 235
f 108 118 109
f 109 120 111
f 116 117 118
f 117 235 118
f 109 118 254
f 118 235 257
f 118 257 254
f 109 254 120
f 100 236 234
f 234 236 238
f 254 257 258
f 120 254 262
f 58 66 59
f 66 61 59
f 66 63 61
f 60 61 62
f 61 63 62
f 63 159 64
f 66 67 154
f 66 159 63
f 66 154 159
f 64 159 241
f 64 241 101
f 101 244 102
f 102 244 104
f 104 244 105
f 101 241 244
f 67 157 154
f 159 160 241
f 164 166 165
f 165 166 160
f 166 169 160
f 105 244 243
f 189 193 194
f 189 194 192
f 189 192 191
f 229 230 232
f 230 233 232
f 230 237 233
f 230 239 237
f 236 237 238
f 237 239 238
f 190 191 283
f 191 192 283
f 192 196 283
f 196 284 283
f 20 21 25
f 20 42 49
f 20 49 21
f 21 49 22
f 22 49 50
f 25 21 31
f 31 21 34
f 34 21 37
f 34 37 35
f 35 37 38
f 21 22 37
f 22 36 37
f 36 60 37
f 37 60 38
f 38 60 39
f 39 60 41
f 41 60 62
f 42 45 51
f 42 51 49
f 50 49 51
f 50 51 57
f 50 57 58
f 50 58 59
f 250 171 172
f 231 252 280
f 231 280 240
f 240 280 255
f 248 249 252
f 249 247 280
f 247 250 280
f 249 280 252
f 250 172 280
f 172 253 280
f 255 280 256
f 256 280 281
f 253 281 280
f 22 50 52
f 22 52 23
f 22 23 36
f 23 40 36
f 23 52 40
f 40 52 65
f 36 40 60
f 40 65 60
f 50 59 52
f 52 59 65
f 59 61 65
f 60 65 61
f 261 263 265
f 263 272 265
f 264 265 277
f 268 270 274
f 265 272 274
f 265 274 276
f 270 276 274
f 265 276 278
f 265 278 277
f 275 277 276
f 276 277 278
f 137 141 142
f 137 146 144
f 137 142 146
f 142 143 146
f 144 156 155
f 144 161 156
f 144 146 162
f 144 162 161
f 146 148 162
f 158 161 165
f 161 162 163
f 161 163 165
f 163 164 165
f 166 167 169
f 167 168 169
f 168 170 169
f 228 251 229
f 229 251 230
f 230 252 231
f 230 251 252
f 243 244 245
f 242 245 252
f 244 246 245
f 245 248 252
f 242 252 251
f 186 193 189
f 186 187 193
f 230 231 239
f 231 240 239
f 196 198 284
f 197 288 198
f 283 284 288
f 198 288 284
f 270 269 285
f 270 285 276
f 275 276 288
f 276 285 288
f 283 288 285
f 197 287 288
f 275 288 287
f 176 177 178
f 177 200 178
f 200 201 202
f 172 178 253
f 178 200 253
f 202 282 253
f 256 282 259
f 256 281 282
f 259 282 267
f 267 282 289
f 253 282 281
f 190 289 204
f 190 283 289
f 200 202 253
f 202 203 282
f 203 204 282
f 204 289 282
f 267 289 269
f 269 289 285
f 283 285 289
f 138 139 142
f 139 180 140
f 138 142 141
f 139 140 142
f 140 143 142
f 138 182 139
f 139 182 180
f 138 181 182
f 180 182 186
f 182 187 186
f 181 198 182
f 182 198 187
f 181 197 198
f 187 198 193
f 193 198 194
f 194 196 192
f 194 198 196
f 100 99 232
f 120 261 119
f 100 232 233
f 100 233 236
f 233 237 236
f 234 257 235
f 234 238 257
f 238 239 257
f 239 240 257
f 240 255 257
f 255 256 257
f 256 258 257
f 254 258 259
f 254 259 262
f 256 259 258
f 261 260 119
f 120 262 261
f 262 263 261
f 262 259 263
f 259 267 272
f 267 268 274
f 267 269 268
f 268 269 270
f 259 272 263
f 272 267 274
f 67 56 150
f 105 242 90
f 67 150 155
f 67 155 157
f 154 157 159
f 155 158 157
f 155 156 158
f 156 161 158
f 157 160 159
f 157 158 160
f 241 160 244
f 160 169 244
f 158 165 160
f 167 173 168
f 168 176 170
f 250 169 170
f 250 170 171
f 170 176 171
f 171 176 172
f 168 173 174
f 168 174 176
f 174 177 176
f 174 175 177
f 172 176 178
f 242 227 90
f 105 243 242
f 242 243 245
f 244 169 246
f 246 169 247
f 247 169 250
f 245 246 248
f 246 247 249
f 246 249 248
f 26 31 27
f 27 31 32
f 31 34 32
f 30 82 83
f 30 32 82
f 32 34 82
f 34 35 82
f 94 99 95
f 95 99 100
f 95 100 98
f 140 146 143
f 140 145 146
f 145 147 146
f 162 148 163
f 163 148 164
f 146 147 148
f 147 167 148
f 164 148 166
f 166 148 167
f 147 173 167
f 140 180 145
f 180 183 145
f 180 186 183
f 145 184 147
f 145 183 184
f 186 189 183
f 189 191 183
f 191 205 183
f 190 205 191
f 190 204 205
f 175 200 177
f 175 199 201
f 175 201 200
f 183 205 184
f 184 201 199
f 184 202 201
f 184 205 202
f 202 205 203
f 203 205 204
f 91 124 106
f 91 96 124
f 96 117 124
f 102 104 106
f 102 106 124
f 102 124 103
f 116 124 117
f 116 123 124
f 103 124 123
f 147 149 173
f 149 179 173
f 173 179 174
f 174 179 175
f 147 184 149
f 149 184 185
f 149 206 179
f 149 185 206
f 175 206 199
f 175 179 206
f 184 199 185
f 185 199 206
f 111 122 113
f 112 113 114
f 113 115 114
f 113 122 115
f 114 115 122
f 111 120 122
f 114 122 121
f 45 47 51
f 47 48 51
f 47 46 48
f 48 53 51
f 51 53 57
f 57 53 66
f 53 67 66
f 57 66 58
f 91 106 95
f 93 94 107
f 94 95 107
f 95 106 107
f 104 105 106
f 106 105 107
f 25 26 24
f 25 31 26
f 29 30 83
f 29 86 28
f 29 83 86
f 82 86 83
f 85 28 86
f 82 84 86
f 85 86 112
f 84 113 86
f 86 113 112
f 84 108 113
f 91 98 96
f 91 95 98
f 108 109 111
f 108 111 113
f 41 62 64
f 62 63 64
f 35 38 87
f 35 87 82
f 38 39 87
f 39 41 103
f 39 125 87
f 82 87 84
f 84 87 108
f 41 64 101
f 41 101 103
f 101 102 103
f 39 103 125
f 108 87 118
f 118 87 125
f 116 118 125
f 116 125 123
f 103 123 125
f 137 150 141
f 141 150 151
f 226 227 229
f 228 229 227
f 264 275 260
f 275 273 260
f 275 279 273
f 264 277 275
f 197 195 287
f 287 195 286
f 279 286 271
f 275 287 279
f 279 287 286
f 92 99 94
f 92 97 99
f 138 141 151
f 138 151 152
f 138 152 188
f 138 188 181
f 152 153 188
f 181 188 197
f 197 188 195
f 279 266 273
f 279 271 266
f 33 88 55
f 48 46 54
f 48 54 56
f 33 28 110
f 88 33 89
f 89 33 110
f 85 110 28
f 85 119 110
f 85 112 119
f 92 88 89
f 92 90 88
f 92 89 97
f 92 93 90
f 92 94 93
f 112 114 121
f 112 121 119
f 137 155 150
f 137 144 155
f 228 227 251
f 242 251 227
f 261 265 260
f 264 260 265
f 48 56 67
f 48 67 53
f 93 107 90
f 105 90 107
f 120 119 122
f 121 122 119
