# MAAS exact compiled indexed mesh
# program_hash 6725dbb4a7a0e0c75b388ca9fb99bf9e3ceb20d543cbfcf37d14492233861dc7
# geometry_hash 90977188b7d2498dc6414071cfb3ed7baf91b7de14232142dfcb53be365fc1c4
v -9.85538618 -7.00656211 0
v -9.85538618 -7.00656211 4.71428571
v -4.51878102 -9.00796047 4.37755102
v -5.40986097 -7.00656211 4.37755102
v -5.40986097 -7.00656211 4.71428571
v -0.02356671 -7.00656211 4.37755102
v -0.02356671 -7.00656211 4.71428571
v -9.57401476 -5.18526394 11.1122449
v -9.16224186 -5.64368726 12.12244898
v -7.91136701 -5.14534284 10.10204082
v -6.45222781 -5.11057807 9.09183673
v -6.21777358 -5.6956247 10.10204082
v -7.76257136 -5.77383758 11.1122449
v -7.85378396 -6.05752142 12.03826531
v -6.14676989 -6.58014977 11.86989796
v -7.0001596 -6.32041975 11.95408163
v -10.35723107 -5.19151498 12.96428571
v -10.32815366 -5.17745441 13.04846939
v -10.29556498 -5.16169593 13.13265306
v -9.54451567 -5.47615525 12.88010204
v -9.52094359 -5.46324126 12.96428571
v -9.49400822 -5.44848469 13.04846939
v -9.46382025 -5.43194617 13.13265306
v -8.26016237 -9.0665676 12.79591837
v -8.37633831 -8.23993286 12.79591837
v -8.3584896 -8.22367162 12.88010204
v -7.91726097 -8.71961619 13.72193878
v -6.56530998 -8.82837163 12.79591837
v -6.55091055 -8.81098966 12.88010204
v -6.68148592 -8.00173689 12.79591837
v -6.24887389 -8.44639244 13.80612245
v -7.37743175 -8.17341107 14.64795918
v -6.8982316 -7.68855109 15.57397959
v -8.49251425 -7.41329811 12.79591837
v -8.47444427 -7.39861128 12.88010204
v -8.45326544 -7.38139766 12.96428571
v -8.60869018 -6.58666337 12.79591837
v -8.59039893 -6.57355095 12.88010204
v -8.56896077 -6.5581826 12.96428571
v -8.54446379 -6.54062148 13.04846939
v -8.72486612 -5.76002863 12.79591837
v -8.7063536 -5.74849061 12.88010204
v -8.6846561 -5.73496753 12.96428571
v -8.65986278 -5.71951497 13.04846939
v -8.63207551 -5.70219642 13.13265306
v -8.36578801 -5.52818048 13.72193878
v -6.79766186 -7.17510214 12.79591837
v -6.91383779 -6.3484674 12.79591837
v -7.79879097 -5.17528442 14.64795918
v -6.70829078 -7.49636689 16.5
v -10.62746758 -4.11554268 9.8494898
v -9.97312261 -3.86706371 8.75510204
v -9.09602292 -4.17262369 8.83928571
v -9.73246475 -4.45458226 9.93367347
v -9.64694517 -2.86319276 8.75510204
v -9.67527273 -2.87160731 8.83928571
v -10.06633332 -2.56892219 9.76530612
v -11.53649678 -4.46073467 10.94387755
v -12.10443411 -4.67640147 12.03826531
v -11.03962989 -5.03368691 12.12244898
v -10.93827147 -2.79491029 10.85969388
v -11.52447626 -2.9468423 11.95408163
v -10.56143578 -4.82183577 11.02806122
v -9.32076772 -1.85932181 8.75510204
v -9.34822705 -1.86506419 8.83928571
v -9.3796043 -1.87162591 8.92346939
v -9.91511245 -2.10351219 9.76530612
v -9.08562081 -0.86596128 9.00765306
v -9.55524372 -0.81557697 9.8494898
v -10.94226137 -1.22217537 11.86989796
v -10.34389394 -1.14597752 10.7755102
v -10.18162763 -0.64657319 10.7755102
v -10.01936133 -0.14716885 10.7755102
v -9.06923315 -4.1607552 8.75510204
v -8.18972743 -4.46709695 8.83928571
v -8.21759027 -4.48155216 8.92346939
v -8.16534369 -4.45444669 8.75510204
v -8.82727824 -4.79785772 10.01785714
v -8.7430557 -3.15688425 8.75510204
v -7.83916624 -3.45057574 8.75510204
v -7.26145422 -4.74813818 8.75510204
v -7.33669156 -4.79412069 9.00765306
v -7.28343193 -4.76157021 8.83928571
v -7.30854544 -4.77691873 8.92346939
v -6.46162638 -4.73692075 8.62882653
v -6.35756476 -5.04182967 8.75510204
v -6.37713643 -5.05604346 8.83928571
v -6.39950062 -5.0722853 8.92346939
v -6.42456541 -5.09048844 9.00765306
v -6.57176749 -4.43821983 8.50255102
v -6.80070299 -3.89303935 8.37627551
v -6.93527678 -3.74426723 8.75510204
v -7.03745669 -3.44358471 8.62882653
v -8.41687826 -2.1530133 8.75510204
v -7.61328699 -2.15024868 8.62882653
v -7.8330718 -1.60528396 8.50255102
v -8.99459028 -0.85545086 8.75510204
v -9.02118136 -0.85852107 8.83928571
v -9.05156649 -0.86202935 8.92346939
v -8.06020905 -1.06414244 8.37627551
v -8.09070082 -1.14914235 8.75510204
v -7.5129888 -2.44670479 8.75510204
v -11.95905445 -4.62119544 13.13265306
v -11.16229911 -4.90642412 13.04846939
v -11.12730972 -4.89144568 13.13265306
v -11.44075012 -2.92514223 13.04846939
v -11.40495933 -2.91586601 13.13265306
v -10.5732146 -3.18611626 13.13265306
v -9.74146986 -3.4563665 13.13265306
v -10.91556319 -1.21877554 12.96428571
v -10.88505568 -1.21489063 13.04846939
v -10.85086421 -1.21053659 13.13265306
v -10.01911948 -1.48078683 13.13265306
v -9.18737475 -1.75103708 13.13265306
v -8.43039117 -4.70707201 13.80612245
v -8.49225037 -3.89318868 13.89030612
v -8.90972513 -3.72661675 13.13265306
v -8.55151419 -3.08700888 13.9744898
v -7.29547426 -4.86202268 15.57397959
v -7.09597435 -4.73785495 16.5
v -8.81728122 -1.19597821 13.9744898
v -8.22015019 -2.17715778 14.64795918
v -8.26947537 -1.41902881 14.73214286
v -7.69271693 -2.03549426 15.57397959
v -8.31836243 -0.66993422 14.81632653
v -7.48365792 -1.97934302 16.5
v -4.54781463 -9.05696168 8.67091837
v -4.58340914 -9.11703601 8.88137755
v -4.63195726 -9.19897267 9.09183673
v -4.96754232 -8.01038563 8.37627551
v -4.98484219 -8.03449147 8.58673469
v -5.06443345 -8.14539484 9.00765306
v -5.01741761 -8.07988243 8.79719388
v -5.0870249 -8.17687402 9.09183673
v -4.51878102 -9.00796047 8.25
v -4.52608624 -9.02028979 8.46045918
v -3.95186935 -7.67147021 9.09183673
v -3.48011704 -8.66017044 9.00765306
v -3.49680171 -8.69356886 9.09183673
v -5.42282017 -7.01879775 8.50255102
v -5.45135007 -7.05132354 8.7130102
v -5.49580916 -7.10200955 8.92346939
v -5.51781077 -7.1270927 9.00765306
v -5.54209254 -7.15477537 9.09183673
v -5.54119694 -6.72193625 8.37627551
v -5.88579608 -6.03025678 8.62882653
v -5.92665727 -6.06783622 8.83928571
v -5.97118809 -6.10879057 9.00765306
v -5.94765489 -6.08714743 8.92346939
v -5.99716018 -6.13267672 9.09183673
v -5.99729383 -5.72850879 8.50255102
v -4.86200462 -5.62727291 9.09183673
v -4.40693699 -6.64937156 9.09183673
v -3.27178144 -6.14396775 9.09183673
v -4.52418014 -6.24590657 10.10204082
v -4.67189219 -6.73546448 11.02806122
v -5.29450949 -6.83649294 11.78571429
v -5.95112796 -6.36241121 11.1122449
v -3.40377637 -7.10321572 10.94387755
v -3.49097315 -7.42249742 11.78571429
v -2.34917794 -8.15664392 9.00765306
v -2.33788054 -8.12808276 8.92346939
v -2.36164616 -8.18816504 9.09183673
v -1.83398431 -7.82168879 8.46045918
v -1.84511795 -7.85364359 8.67091837
v -1.8633566 -7.90599059 8.88137755
v -1.21823885 -7.65311739 9.00765306
v -1.22649061 -7.68276123 9.09183673
v -1.68743682 -8.0085019 11.78571429
v -0.04822824 -8.10059754 10.7755102
v -2.8167138 -7.1660664 9.09183673
v -1.68155825 -6.66066258 9.09183673
v -2.8305867 -6.79618843 10.10204082
v -1.64411886 -7.13180769 10.01785714
v -1.20409068 -7.60229113 8.83928571
v -1.21076197 -7.62625723 8.92346939
v -0.07752593 -7.08233798 8.75510204
v -0.73307042 -7.38305961 8.79719388
v -0.08038098 -7.10198333 8.83928571
v -0.08364339 -7.12443171 8.92346939
v -0.08729976 -7.14959087 9.00765306
v -0.09133506 -7.17735742 9.09183673
v -0.47178902 -7.46355821 9.93367347
v -2.5805245 -7.32491493 10.85969388
v -1.76520091 -7.5427193 10.7755102
v -4.87045759 -8.59017566 12.79591837
v -4.85928617 -8.57324735 12.88010204
v -4.84619276 -8.55340662 12.96428571
v -4.98663353 -7.76354092 12.79591837
v -4.59581556 -8.17400447 13.89030612
v -3.1756052 -8.35197969 12.79591837
v -3.16766179 -8.33550505 12.88010204
v -3.15835175 -8.31619604 12.96428571
v -3.14771335 -8.29413199 13.04846939
v -5.80330413 -7.90853226 14.73214286
v -5.10280947 -6.93690617 12.79591837
v -3.29178114 -7.52534495 12.79591837
v -5.4267862 -7.45402655 15.65816327
v -4.24798651 -7.64693135 14.81632653
v -3.85904778 -7.23369529 15.65816327
v -2.95900253 -7.90274573 13.9744898
v -1.48075281 -8.11378372 12.79591837
v -1.47603741 -8.09776275 12.88010204
v -1.47051075 -8.07898545 12.96428571
v -1.46419553 -8.05752899 13.04846939
v -1.45711772 -8.03348153 13.13265306
v -1.20917595 -7.65682364 13.9744898
v -2.59817573 -7.41506557 14.81632653
v -2.65843898 -7.0926871 15.57397959
v -2.57052288 -6.91484154 16.5
v -0.94836495 -7.18319979 14.81632653
v -3.34589002 -1.39781766 16.5
v -2.95820645 -4.1563296 16.5
v -9.55440014 2.30222526 4.71428571
v -9.85538618 6.61203146 0
v -9.85538618 6.61203146 4.71428571
v -9.09437611 1.2276519 8.50255102
v -9.13922749 1.23178475 8.7130102
v -9.20912088 1.23822512 8.92346939
v -9.24370924 1.24141228 9.00765306
v -9.28188221 1.24492975 9.09183673
v -9.26970885 0.2478903 9.93367347
v -9.3197151 1.76475447 8.37627551
v -9.34964238 1.76901024 8.58673469
v -9.48732833 1.78858971 9.00765306
v -9.52640957 1.79414721 9.09183673
v -9.40599501 1.7770238 8.79719388
v -9.55440014 2.30222526 8.25
v -9.568377 2.30488069 8.46045918
v -9.60994929 2.31277893 8.67091837
v -9.10385212 2.52547487 8.58673469
v -9.67805123 2.32571748 8.88137755
v -9.77093694 2.34336466 9.09183673
v -9.15886582 2.53760926 8.79719388
v -9.62503986 1.246801 10.85969388
v -10.35844176 0.4958679 11.78571429
v -10.18799457 1.02045043 11.78571429
v -10.01754737 1.54503296 11.78571429
v -9.84710017 2.06961549 11.78571429
v -9.23826665 2.55512273 9.00765306
v -9.27641932 2.56353808 9.09183673
v -9.22432587 2.65539569 10.94387755
v -9.3963142 3.53576081 11.86989796
v -8.66841284 0.14842009 8.75510204
v -8.72352869 0.14756721 8.92346939
v -8.75647108 0.14705744 9.00765306
v -8.79282748 0.14649485 9.09183673
v -8.69413568 0.14802205 8.83928571
v -8.87756992 0.68937729 8.62882653
v -8.93619746 0.6917017 8.83928571
v -9.00009016 0.69423486 9.00765306
v -8.96632478 0.69289616 8.92346939
v -9.03735484 0.6957123 9.09183673
v -8.54283723 0.91588573 9.09183673
v -8.78736459 1.46510318 9.09183673
v -9.07463591 2.51903064 8.37627551
v -9.03189196 2.01432063 9.09183673
v -8.53737434 2.23449406 9.09183673
v -8.29284698 1.68527661 9.09183673
v -8.04285673 2.45466749 9.09183673
v -8.98121854 1.3240027 10.01785714
v -8.68942077 2.41307018 10.10204082
v -8.60351792 2.73835806 8.50255102
v -8.64618725 2.74920659 8.7130102
v -8.71268027 2.7661122 8.92346939
v -8.74558589 2.77447834 9.00765306
v -8.78190171 2.78371151 9.09183673
v -8.13954387 2.96078793 8.62882653
v -7.68116243 3.1868644 8.75510204
v -8.19378871 2.97660088 8.83928571
v -8.25290512 2.99383395 9.00765306
v -8.22166387 2.98472679 8.92346939
v -8.28738409 3.00388494 9.09183673
v -7.76022436 3.21318956 9.00765306
v -7.70425735 3.19455429 8.83928571
v -7.73064747 3.20334137 8.92346939
v -7.79286648 3.22405837 9.09183673
v -8.42318025 3.23247424 10.10204082
v -8.15693973 4.0518783 10.10204082
v -7.89069921 4.87128237 10.10204082
v -7.14928555 3.37625185 8.37627551
v -6.67541864 3.59680317 8.50255102
v -6.2068913 3.82126029 8.62882653
v -7.24229458 4.53756078 8.75510204
v -7.26422128 4.54884604 8.83928571
v -7.28927652 4.56174149 8.92346939
v -7.31735732 4.57619415 9.00765306
v -8.9010371 3.8199303 11.02806122
v -8.57219842 4.99507926 11.1122449
v -8.94014758 5.00690351 11.95408163
v -10.38389113 0.49631153 12.88010204
v -10.35844176 0.4958679 12.96428571
v -10.32936125 0.49536098 13.04846939
v -10.2967691 0.49479284 13.13265306
v -9.46502436 0.22454259 13.13265306
v -9.08304825 0.69505245 13.9744898
v -9.84616904 2.2184562 12.79591837
v -9.82552089 2.21479842 12.88010204
v -9.80132034 2.21051134 12.96428571
v -9.77366682 2.20561258 13.04846939
v -9.74267398 2.20012226 13.13265306
v -9.8946714 2.70682987 12.88010204
v -9.9154515 2.71142656 12.79591837
v -9.87031619 2.70144235 12.96428571
v -9.84248595 2.69528613 13.04846939
v -9.98473397 3.20439692 12.79591837
v -9.96382191 3.19886132 12.88010204
v -10.05401643 3.69736728 12.79591837
v -10.03297242 3.69089277 12.88010204
v -9.93931204 3.19237335 12.96428571
v -9.67501379 2.74521788 12.79591837
v -9.74429626 3.23818823 12.79591837
v -9.50385855 3.27197955 12.79591837
v -9.81357872 3.73115859 12.79591837
v -9.57314102 3.76494991 12.79591837
v -9.33270331 3.79874123 12.79591837
v -9.47062491 3.06830793 13.89030612
v -9.34881527 2.58608311 13.9744898
v -9.59156178 3.55508614 13.80612245
v -10.1232989 4.19033763 12.79591837
v -9.86214316 4.21665118 12.88010204
v -9.88286119 4.22412895 12.79591837
v -9.64242348 4.25792027 12.79591837
v -9.62216339 4.25037813 12.88010204
v -9.40198577 4.29171158 12.79591837
v -9.38218362 4.28410509 12.88010204
v -9.16154806 4.3255029 12.79591837
v -9.14220384 4.31783205 12.88010204
v -9.59841765 4.24153841 12.96428571
v -9.3589746 4.27518994 12.96428571
v -9.3324541 4.26500277 13.04846939
v -9.09362435 4.2985681 13.04846939
v -9.11953155 4.30884147 12.96428571
v -9.71136912 4.04612665 13.72193878
v -9.42757017 4.0598004 13.80612245
v -9.14434251 4.0725019 13.89030612
v -8.56893887 1.11300976 14.81632653
v -8.08995959 0.79103415 15.57397959
v -7.87134149 0.77916892 16.5
v -8.15201288 1.49119702 15.65816327
v -9.0645887 4.28705416 13.13265306
v -8.86201636 4.08429611 13.9744898
v -8.8195153 2.89595375 14.81632653
v -8.94038508 3.35474184 14.73214286
v -9.06286863 3.8190955 14.64795918
v -8.39012401 3.18544574 15.65816327
v -8.48720225 3.61756257 15.57397959
v -8.24474324 3.63288172 15.65816327
v -8.25902506 3.53768085 16.5
v -8.78648052 3.82841139 14.73214286
v -8.51353218 3.83767296 14.81632653
v -6.82418522 5.90313779 8.83928571
v -6.84790557 5.92014161 8.92346939
v -6.80342672 5.88825715 8.75510204
v -7.36694847 6.29221512 10.01785714
v -6.36455886 7.23895353 8.75510204
v -6.38414916 7.25742954 8.83928571
v -8.28743135 5.87150216 11.1122449
v -8.00266429 6.74792507 11.1122449
v -8.47899423 6.48155518 12.03826531
v -6.84955365 7.69636211 9.93367347
v -6.33857215 9.08432017 9.8494898
v -8.10056519 7.68954143 12.12244898
v -7.80543133 8.59787005 12.12244898
v -7.45574707 8.26807562 11.02806122
v -6.91215495 9.77152606 10.94387755
v -7.27051427 10.20087406 12.03826531
v -8.66711469 5.78000611 12.88010204
v -8.64550495 5.76774532 12.96428571
v -8.62081191 5.75373516 13.04846939
v -8.59313703 5.73803318 13.13265306
v -8.17147835 7.22664918 12.96428571
v -8.14799947 7.20890222 13.04846939
v -8.12168537 7.18901221 13.13265306
v -7.67518703 8.66406929 13.04846939
v -7.6502337 8.63999124 13.13265306
v -7.17878204 10.09097027 13.13265306
v -5.74219428 4.05014864 8.75510204
v -5.4630027 4.1327111 8.46045918
v -4.74731936 4.45524828 8.50255102
v -4.27423872 4.68173266 8.62882653
v -3.80322612 4.91343289 8.75510204
v -3.73357359 1.36069427 16.5
v -5.61818916 4.77141403 13.13265306
v -5.5631126 4.5479268 13.9744898
v -5.40318568 4.27480365 14.81632653
v -5.28912567 4.04826668 15.65816327
v -4.12125716 4.11920621 16.5
v -2.26420884 5.01155749 13.9744898
v -2.29283918 4.71193435 14.81632653
v -1.0664264 4.64172836 15.65816327
v -5.30332642 5.40084502 8.75510204
v -4.86445856 6.7515414 8.75510204
v -3.05911376 5.21676578 8.58673469
v -3.36435826 6.26412926 8.75510204
v -5.92569101 8.58964991 8.75510204
v -4.42559071 8.10223778 8.75510204
v -4.44001972 8.12301173 8.83928571
v -3.64259585 8.17150963 9.76530612
v -4.00816853 8.79216007 10.85969388
v -4.25394336 9.20942392 11.95408163
v -2.34158615 5.54220502 8.62882653
v -1.86425796 5.77671713 8.75510204
v -2.9254904 7.61482564 8.75510204
v -2.93592636 7.63430217 8.83928571
v -1.3576284 5.9605415 8.46045918
v -1.36688735 5.98282656 8.67091837
v -0.64682883 6.31075042 8.7130102
v -1.4253901 7.12741351 8.75510204
v -1.43183299 7.14559261 8.83928571
v -1.43919515 7.16636553 8.92346939
v -1.44744634 7.1896469 9.00765306
v -0.97758868 7.34243105 9.8494898
v -2.94785132 7.65655763 8.92346939
v -2.54669189 7.81542885 9.76530612
v -1.13370842 7.82135663 10.7755102
v -1.24604506 8.21837406 11.86989796
v -5.14673749 6.22239305 13.13265306
v -4.67528583 7.67337208 13.13265306
v -4.21883997 9.14982719 13.04846939
v -4.20383417 9.12435111 13.13265306
v -2.17178962 5.25577389 13.13265306
v -1.70033796 6.70675292 13.13265306
v -1.24103278 8.20065979 12.96428571
v -1.23530535 8.18041803 13.04846939
v -1.22888629 8.15773195 13.13265306
v 9.9534772 -7.00656211 0
v 9.9534772 -7.00656211 4.71428571
v 9.9534772 -2.56449597 4.37755102
v 9.9534772 -2.56449597 4.71428571
v 11.88098828 -1.70631274 4.37755102
v 0.68670058 -7.79173876 9.8494898
v 1.43042913 -7.98628049 9.76530612
v 2.0927978 -7.7875189 8.75510204
v 2.09905884 -7.83363466 8.92346939
v 2.09571986 -7.80904136 8.83928571
v 0.11609952 -8.59450638 11.78571429
v 1.70429605 -9.13111573 11.86989796
v 1.66874443 -8.65847577 10.7755102
v 0.39058709 -6.86574067 8.7130102
v 1.00763593 -7.43492844 8.75510204
v 1.00775064 -7.50539431 9.00765306
v 1.00766944 -7.45551234 8.83928571
v 1.00770773 -7.47903319 8.92346939
v 0.85811762 -6.62308778 8.46045918
v 0.85757873 -6.6503255 8.67091837
v 1.32510981 -6.45784431 8.75510204
v 1.50891718 -6.35352442 8.62882653
v 2.41027168 -6.81043477 8.75510204
v 1.97392075 -6.14038254 8.58673469
v 2.72774555 -5.83335064 8.75510204
v 2.90698427 -5.73106485 8.62882653
v 4.45808996 -9.01713745 9.8494898
v 3.17795966 -8.14010936 8.75510204
v 3.18377028 -8.16257037 8.83928571
v 4.26312152 -8.49269983 8.75510204
v 3.03052787 -8.50618408 9.76530612
v 4.81688133 -8.03052655 9.93367347
v 3.1909791 -9.20019013 10.85969388
v 3.29885059 -9.66677101 11.95408163
v 4.72894405 -9.74569677 10.94387755
v 4.89816649 -10.20088129 12.03826531
v 5.28257796 -9.0453659 12.12244898
v 5.11221434 -8.67411197 11.02806122
v 5.53020822 -8.25565688 12.03826531
v 3.49543354 -7.16302523 8.75510204
v 3.08692665 -5.63473956 8.50255102
v 3.55021955 -5.42448678 8.46045918
v 3.81290742 -6.1859411 8.75510204
v 4.1303813 -5.20885697 8.75510204
v 4.30505137 -5.10860528 8.62882653
v 4.5805954 -7.5156157 8.75510204
v 4.59013965 -7.53641438 8.83928571
v 4.89806928 -6.53853157 8.75510204
v 4.9084586 -6.55672938 8.83928571
v 4.92033028 -6.57752369 8.92346939
v 5.18010354 -7.03253963 10.01785714
v 5.21554316 -5.56144744 8.75510204
v 5.23961488 -5.59486673 8.92346939
v 5.2540024 -5.61484122 9.00765306
v 5.22677755 -5.57704439 8.83928571
v 5.54776052 -6.02267195 10.10204082
v 5.74755162 -5.286114 10.01785714
v 5.49826986 -7.5898362 11.1122449
v 5.71988571 -6.8038918 11.02806122
v 5.77558411 -7.46520037 11.95408163
v 6.01847908 -6.67483855 11.86989796
v 5.93822227 -6.0239211 10.94387755
v 0.11412932 -8.61443924 12.88010204
v 0.11609952 -8.59450638 12.96428571
v 0.11835084 -8.57172947 13.04846939
v 0.12087401 -8.54620212 13.13265306
v 0.37094456 -7.77656413 13.13265306
v 1.70089721 -9.08592996 13.04846939
v 1.69886575 -9.05892272 13.13265306
v 1.70270979 -9.11002731 12.96428571
v 1.94893629 -8.28928472 13.13265306
v 0.54065062 -7.41090155 13.9744898
v 2.19900683 -7.51964673 13.13265306
v 2.2904772 -7.16497947 13.9744898
v 0.32663212 -7.0470259 14.73214286
v 1.61694817 -6.9093334 14.64795918
v 1.58135365 -6.49682311 15.57397959
v 1.56724502 -6.33331618 16.5
v 3.28344358 -9.60013045 13.04846939
v 3.27685748 -9.57164331 13.13265306
v 3.52692802 -8.80200532 13.13265306
v 3.77699856 -8.03236733 13.13265306
v 4.85484921 -10.08436391 13.13265306
v 5.10491975 -9.31472591 13.13265306
v 5.11678229 -9.3424715 13.04846939
v 5.37880305 -8.59338609 12.96428571
v 5.36757462 -8.57061206 13.04846939
v 5.3549903 -8.54508792 13.13265306
v 5.6406294 -7.83774031 12.88010204
v 5.6302394 -7.81954456 12.96428571
v 5.61836696 -7.79875262 13.04846939
v 5.60506084 -7.77544993 13.13265306
v 4.02706911 -7.26272933 13.13265306
v 3.66127195 -7.0135465 13.89030612
v 5.90197507 -7.07620898 12.79591837
v 5.89262936 -7.06216417 12.88010204
v 5.88167576 -7.04570302 12.96428571
v 5.86915929 -7.02689318 13.04846939
v 5.85513138 -7.00581194 13.13265306
v 5.04608938 -6.85898887 13.80612245
v 5.82114627 -5.90095911 15.57397959
v 5.70501293 -5.75179083 16.5
v 4.48169993 -5.01374649 8.50255102
v 4.66091286 -4.92416957 8.37627551
v 5.53301704 -4.58436331 8.75510204
v 5.70311846 -4.4861457 8.62882653
v 5.57436925 -4.62885342 9.00765306
v 5.5450965 -4.59735939 8.83928571
v 5.55889948 -4.61220977 8.92346939
v 5.59144225 -4.64722195 9.09183673
v 5.8764732 -4.39275342 8.50255102
v 1.17956145 -3.57480424 16.5
v 0.79187788 -0.81629231 16.5
v 5.31732936 -2.99327889 16.5
v 4.92964579 -0.23476695 16.5
v 7.33278018 -6.87512244 12.79591837
v 7.32070935 -6.86146062 12.88010204
v 7.30656181 -6.84544835 12.96428571
v 7.29039567 -6.82715143 13.04846939
v 6.44419973 -6.70124452 13.72193878
v 8.76358528 -6.67403589 12.79591837
v 8.74878935 -6.66075706 12.88010204
v 8.73144786 -6.64519367 12.96428571
v 6.11413813 -6.27729457 14.64795918
v 10.19439038 -6.47294935 12.79591837
v 10.17686934 -6.46005351 12.88010204
v 11.62519548 -6.27186281 12.79591837
v 11.2313533 -6.02845396 13.72193878
v 10.06093889 -5.30509512 15.57397959
v 9.84278083 -5.17026547 16.5
v 10.61132809 -5.64525574 14.64795918
v 6.05369758 -4.30406186 8.37627551
v 6.23537862 -4.21990011 8.25
v 7.15692618 -3.87972658 8.83928571
v 7.17561879 -3.89239996 8.92346939
v 7.19656864 -3.90660372 9.00765306
v 7.21968965 -3.9222795 9.09183673
v 7.31855182 -3.78121205 8.7130102
v 7.48454829 -3.68689309 8.58673469
v 6.49211219 -2.99459222 10.01785714
v 7.65559385 -3.59665638 8.46045918
v 8.84793706 -3.19733705 9.09183673
v 9.06886622 -2.96742698 8.46045918
v 8.7923381 -3.17259014 8.92346939
v 8.81876803 -3.18435402 9.00765306
v 8.94378792 -3.07464469 8.79719388
v 6.84491805 -4.13132095 11.86989796
v 6.73158196 -3.58221104 10.94387755
v 6.29476629 -2.48261312 9.09183673
v 6.99809033 -0.31800429 9.09183673
v 7.23667275 -0.70307043 10.01785714
v 7.9230137 -1.75767067 9.09183673
v 7.52494165 -1.14050098 10.94387755
v 7.79720674 -1.20047772 11.86989796
v 9.10064068 -2.98027787 8.67091837
v 10.48213859 -2.33819758 8.46045918
v 10.51947497 -2.34857214 8.67091837
v 10.44096742 -2.46210431 9.00765306
v 10.58063783 -2.36556731 8.88137755
v 10.47618446 -2.4723946 9.09183673
v 9.5512611 -1.03272822 9.09183673
v 11.88098828 -1.70631274 8.25
v 11.89541096 -1.70896818 8.46045918
v 11.93830927 -1.71686642 8.67091837
v 12.00858343 -1.72980497 8.88137755
v 12.10443187 -1.74745214 9.09183673
v 11.1795085 -0.30778577 9.09183673
v 6.85608095 -4.13977303 12.79591837
v 8.28688605 -3.93868649 12.79591837
v 7.81018683 -1.20333708 12.79591837
v 9.71769115 -3.73759994 12.79591837
v 11.14849625 -3.5365134 12.79591837
v 11.15941135 -2.9576365 12.79591837
v 10.78282626 -2.83701825 13.72193878
v 10.18996887 -2.6471291 14.64795918
v 9.24099193 -1.00225054 12.79591837
v 10.67179703 -0.80116399 12.79591837
v 10.68271212 -0.22228709 12.79591837
v 9.66369623 -2.4785667 15.57397959
v 9.45509726 -2.41175353 16.5
v 0.12558308 6.61203146 4.37755102
v 0.12558308 6.61203146 4.71428571
v 9.9534772 2.62294804 4.37755102
v 9.9534772 2.62294804 4.71428571
v 9.9534772 6.61203146 0
v 8.17742283 6.61203146 4.37755102
v 8.17742283 6.61203146 4.71428571
v 6.84536916 9.60387298 4.37755102
v 9.9534772 6.61203146 4.71428571
v 0.40419431 1.94221963 16.5
v 0.01651074 4.70073156 16.5
v 4.54196222 2.52374498 16.5
v 0.0747102 6.64000137 8.75510204
v 0.07226038 6.65688305 8.83928571
v 0.06946102 6.67617342 8.92346939
v 0.06632362 6.69779323 9.00765306
v 0.06286107 6.72165362 9.09183673
v 1.05501291 7.08512106 8.79719388
v 0.60974941 6.86438816 9.93367347
v 2.14833041 6.04404355 9.09183673
v 1.78050834 7.41744404 8.83928571
v 1.7828911 7.43904165 8.92346939
v 1.7855616 7.46324729 9.00765306
v 1.78850885 7.48996151 9.09183673
v 2.21594837 6.38094181 10.01785714
v 0.04224223 7.4392671 10.7755102
v 1.21819288 7.05717757 10.7755102
v 2.92442887 6.53962264 10.85969388
v 1.7501634 7.22876123 11.78571429
v 2.98540131 6.82740811 11.78571429
v 2.7477459 7.7883719 8.46045918
v 2.75464363 7.81785038 8.67091837
v 2.76594319 7.86614076 8.88137755
v 4.23379975 5.36643349 9.09183673
v 4.42369064 5.66360286 10.01785714
v 3.87397819 6.81235145 9.09183673
v 5.95944753 6.13474138 9.09183673
v 5.59962597 7.58065934 9.09183673
v 4.22063922 6.42605498 11.78571429
v 4.64840675 6.01527186 10.94387755
v 5.45587713 6.02470185 11.78571429
v 3.49632118 8.20190987 8.92346939
v 3.50479957 8.22870135 9.00765306
v 3.51415663 8.2582694 9.09183673
v 5.22403755 8.99415542 9.00765306
v 5.23980441 9.02657729 9.09183673
v 1.27460992 5.74013376 13.13265306
v 1.03469492 5.47518818 13.9744898
v 1.75185603 7.24429695 12.88010204
v 1.7501634 7.22876123 12.96428571
v 1.74822927 7.21100886 13.04846939
v 1.74606158 7.19111279 13.13265306
v 2.15092175 5.33646422 14.81632653
v 4.75692197 6.2816163 12.79591837
v 4.74975712 6.27021984 12.88010204
v 4.72100946 6.22449363 13.13265306
v 4.74135959 6.25686268 12.96428571
v 4.73176389 6.2415997 13.04846939
v 5.99729112 5.87859593 12.79591837
v 5.74784813 6.13757867 13.9744898
v 5.99865817 6.44574143 12.88010204
v 6.00820621 6.45747283 12.79591837
v 5.98746743 6.43199171 12.96428571
v 5.97467999 6.41628017 13.04846939
v 3.15627286 5.23519004 15.65816327
v 4.15427865 5.28225692 16.5
v 8.62633774 0.40693816 9.09183673
v 7.70141438 1.84660454 9.09183673
v 7.98123331 1.58845135 10.01785714
v 8.43911376 1.67303149 10.94387755
v 8.74949543 1.7303655 11.86989796
v 6.31926908 4.68882343 9.09183673
v 6.63143292 4.94626391 10.01785714
v 8.40473842 4.01121336 9.09183673
v 8.96984022 4.01746494 9.09183673
v 8.83917519 4.22892496 10.01785714
v 10.25458514 1.13188061 9.09183673
v 10.6220835 1.12123369 8.25
v 10.63483827 1.12232444 8.46045918
v 10.6727756 1.12556874 8.67091837
v 10.7349229 1.1308834 8.88137755
v 10.81968695 1.13813219 9.09183673
v 9.32966178 2.57154699 9.09183673
v 9.89476359 2.57779857 9.09183673
v 9.37426558 3.95361706 8.46045918
v 9.40724193 3.96800389 8.67091837
v 9.46126238 3.99157177 8.88137755
v 9.53494203 4.02371652 9.09183673
v 9.35328588 4.48656396 10.94387755
v 9.70178412 4.66120873 11.86989796
v 8.76429271 1.73309887 12.79591837
v 9.06741369 0.3467584 16.5
v 8.47802943 5.07255519 12.79591837
v 8.8692109 3.17449013 15.57397959
v 8.67973012 3.10527034 16.5
v 10.33429922 0.35441746 13.72193878
v 10.19509781 1.93418541 12.79591837
v 10.2060129 2.51306231 12.79591837
v 10.69362722 0.35658981 12.79591837
v 9.76860965 0.35099754 14.64795918
v 9.26645357 0.34796171 15.57397959
v 10.21692799 3.09193922 12.79591837
v 10.22784308 3.67081612 12.79591837
v 9.88577219 3.54585317 13.72193878
v 9.71839858 4.66953482 12.79591837
v 9.34725043 3.34912418 14.64795918
v 8.04491686 5.45713132 9.09183673
v 8.61001867 5.4633829 9.09183673
v 8.11369289 6.78490968 8.46045918
v 8.14170827 6.81043904 8.67091837
v 7.68509531 6.90304927 9.09183673
v 8.18760185 6.85226015 8.88137755
v 8.25019711 6.90930085 9.09183673
v 7.00084631 5.25091791 10.94387755
v 7.25125916 5.45743255 11.86989796
v 7.32527375 8.34896723 9.09183673
v 6.84536916 9.60387298 8.25
v 6.8531202 9.6162023 8.46045918
v 6.8761746 9.6528742 8.67091837
v 6.91394133 9.71294852 8.88137755
v 6.96545219 9.79488519 9.09183673
v 7.23766028 5.47557556 12.79591837
v 7.24857537 6.05445246 12.79591837
v 6.96616894 6.33668662 13.89030612
v 7.25949046 6.63332936 12.79591837
v 7.24755922 6.62126303 12.88010204
v 7.23357528 6.60712075 12.96428571
v 8.48894452 5.65143209 12.79591837
v 8.49985961 6.23030899 12.79591837
v 8.51077471 6.80918589 12.79591837
v 8.49646028 6.79678463 12.88010204
v 8.19620667 6.53666071 13.80612245
v 6.59468267 5.96099409 14.81632653
v 7.37897213 5.82865172 15.65816327
v 7.7532673 6.15292135 14.73214286
v 8.92589121 6.34725082 14.64795918
v 8.29204655 5.86378227 16.5
v 8.47196824 6.00101854 15.57397959
v 9.72931368 5.24841172 12.79591837
v 9.74022877 5.82728862 12.79591837
v 9.75114386 6.40616552 12.79591837
v 9.76205895 6.98504243 12.79591837
v 9.43724515 6.73728889 13.72193878
f 4 5 2
f 1 2 216
f 2 5 214
f 1 427 2
f 4 2 427
f 1 215 427
f 1 216 215
f 2 214 216
f 215 216 607
f 214 608 216
f 215 607 612
f 607 216 608
f 4 427 6
f 6 428 7
f 6 427 428
f 7 428 430
f 427 611 428
f 429 428 611
f 429 430 428
f 215 611 427
f 215 612 615
f 215 615 611
f 429 611 609
f 609 615 610
f 609 611 615
f 612 613 615
f 610 615 613
f 3 135 228
f 3 228 5
f 5 228 214
f 3 5 4
f 3 4 6
f 3 6 7
f 3 7 135
f 214 228 723
f 214 723 608
f 7 430 135
f 135 430 431
f 431 559 135
f 429 431 430
f 429 609 431
f 431 610 588
f 431 588 559
f 607 608 614
f 607 614 612
f 608 723 614
f 614 588 613
f 610 613 588
f 431 609 610
f 614 684 588
f 612 614 613
f 614 723 684
f 88 149 148
f 89 148 150
f 86 146 147
f 88 148 89
f 87 147 149
f 11 89 150
f 87 149 88
f 86 147 87
f 145 228 135
f 85 93 151
f 90 151 93
f 90 91 145
f 86 92 146
f 85 146 92
f 85 102 93
f 85 92 102
f 90 96 91
f 90 93 95
f 91 228 145
f 90 95 96
f 93 101 95
f 96 217 100
f 95 244 249
f 95 249 96
f 95 101 244
f 91 100 228
f 93 102 101
f 91 96 100
f 130 135 136
f 127 131 136
f 130 136 131
f 127 133 131
f 129 134 132
f 128 129 132
f 127 128 133
f 128 132 133
f 130 131 140
f 130 145 135
f 131 133 141
f 133 132 142
f 132 134 143
f 134 137 144
f 129 139 134
f 129 138 139
f 134 139 137
f 136 135 164
f 127 136 164
f 127 165 128
f 128 166 129
f 129 166 138
f 138 161 139
f 137 139 163
f 137 163 171
f 133 142 141
f 132 143 142
f 134 144 143
f 141 147 146
f 130 151 145
f 130 140 151
f 140 141 146
f 143 144 148
f 142 149 147
f 143 148 149
f 144 150 148
f 141 142 147
f 142 143 149
f 144 153 150
f 131 141 140
f 137 153 144
f 85 140 146
f 85 151 140
f 90 145 151
f 11 150 152
f 150 153 152
f 137 171 153
f 153 171 154
f 152 153 154
f 128 165 166
f 138 162 161
f 139 161 163
f 127 164 165
f 164 135 445
f 138 178 162
f 138 166 178
f 161 162 176
f 161 167 163
f 163 168 171
f 161 176 167
f 162 175 176
f 163 167 168
f 154 171 172
f 168 172 171
f 165 446 166
f 164 445 165
f 162 440 175
f 162 178 440
f 175 179 176
f 167 176 180
f 167 181 168
f 168 182 172
f 445 135 468
f 165 445 446
f 168 181 182
f 166 446 178
f 177 179 175
f 176 179 180
f 167 180 181
f 221 251 253
f 218 250 219
f 219 252 220
f 220 251 221
f 217 224 223
f 218 227 224
f 217 218 224
f 219 220 225
f 218 219 227
f 220 221 226
f 219 225 227
f 220 226 225
f 221 257 226
f 223 229 228
f 224 230 229
f 223 224 229
f 224 227 230
f 229 256 228
f 229 231 256
f 229 230 231
f 230 234 231
f 225 232 227
f 230 227 232
f 225 233 232
f 225 226 233
f 230 232 234
f 232 233 240
f 226 241 233
f 226 257 241
f 232 240 234
f 233 241 240
f 240 241 266
f 244 250 249
f 96 249 217
f 245 251 252
f 244 248 250
f 245 252 248
f 245 246 251
f 248 252 250
f 246 253 251
f 246 247 253
f 247 254 253
f 100 217 223
f 218 249 250
f 100 223 228
f 217 249 218
f 219 250 252
f 220 252 251
f 221 253 255
f 253 254 255
f 221 255 257
f 255 258 257
f 254 259 255
f 255 259 258
f 241 257 267
f 257 258 267
f 258 259 260
f 231 263 256
f 231 234 264
f 231 264 263
f 256 281 228
f 263 264 268
f 264 270 268
f 234 240 265
f 240 266 265
f 234 265 264
f 241 267 266
f 264 265 270
f 265 266 272
f 258 273 267
f 266 267 271
f 265 272 270
f 266 271 272
f 267 273 271
f 256 263 282
f 268 270 269
f 256 282 281
f 263 268 283
f 258 260 273
f 270 272 275
f 272 271 276
f 260 277 273
f 271 273 274
f 273 277 274
f 269 270 275
f 272 276 275
f 271 274 276
f 281 379 228
f 268 269 378
f 263 283 282
f 268 378 283
f 281 282 380
f 282 283 381
f 281 394 379
f 281 380 394
f 282 381 380
f 283 378 382
f 283 382 381
f 380 381 402
f 379 394 407
f 381 382 403
f 379 723 228
f 380 408 394
f 379 407 406
f 381 403 402
f 380 402 408
f 402 403 619
f 394 624 407
f 394 408 624
f 402 627 408
f 402 619 627
f 177 175 448
f 175 440 448
f 178 450 440
f 178 446 450
f 177 448 447
f 468 135 559
f 440 467 448
f 445 468 446
f 440 450 467
f 447 448 452
f 446 468 450
f 447 452 451
f 448 467 452
f 450 530 467
f 450 468 530
f 451 452 471
f 452 467 529
f 451 471 470
f 467 530 529
f 452 529 471
f 468 559 530
f 470 471 532
f 471 529 537
f 529 530 558
f 471 537 532
f 470 532 531
f 529 558 537
f 530 559 558
f 531 532 560
f 532 537 564
f 537 558 565
f 558 559 567
f 532 564 560
f 531 560 534
f 534 561 535
f 533 535 562
f 533 563 536
f 533 562 563
f 534 560 561
f 535 561 562
f 558 567 565
f 537 565 564
f 536 563 575
f 563 578 575
f 565 572 564
f 565 567 581
f 560 570 561
f 561 571 562
f 560 564 570
f 562 568 563
f 561 570 571
f 562 571 568
f 563 568 578
f 565 581 572
f 564 572 570
f 588 567 559
f 567 569 581
f 575 578 576
f 568 587 578
f 576 578 673
f 578 587 673
f 588 569 567
f 569 583 581
f 570 584 571
f 572 584 570
f 568 571 586
f 572 581 585
f 569 582 583
f 581 583 585
f 572 585 584
f 571 584 586
f 568 586 587
f 569 588 582
f 586 593 587
f 587 593 683
f 582 590 583
f 583 591 585
f 585 592 584
f 584 592 586
f 586 592 593
f 582 588 589
f 582 589 590
f 583 590 591
f 585 591 592
f 588 684 589
f 589 685 590
f 590 686 591
f 591 687 592
f 592 688 593
f 723 379 406
f 406 407 638
f 619 620 627
f 620 621 628
f 621 622 629
f 622 623 630
f 407 624 639
f 623 626 630
f 406 638 637
f 407 639 638
f 620 628 627
f 408 648 624
f 621 629 628
f 622 630 629
f 408 627 648
f 626 642 630
f 406 637 723
f 627 628 648
f 628 629 649
f 629 630 650
f 628 649 648
f 624 651 639
f 629 650 649
f 626 640 642
f 630 642 650
f 642 644 650
f 640 643 642
f 640 678 643
f 642 643 644
f 624 648 651
f 637 638 725
f 638 639 726
f 648 649 651
f 649 650 652
f 644 652 650
f 649 652 651
f 639 651 727
f 637 724 723
f 637 725 724
f 638 726 725
f 639 727 726
f 651 652 727
f 576 673 674
f 673 689 674
f 674 689 680
f 678 680 713
f 680 689 713
f 681 713 689
f 685 723 691
f 691 715 692
f 692 716 693
f 693 718 694
f 587 683 673
f 593 690 683
f 673 683 689
f 685 691 686
f 686 692 687
f 687 693 688
f 589 684 685
f 590 685 686
f 591 686 687
f 592 687 688
f 593 688 690
f 686 691 692
f 681 689 683
f 681 683 690
f 688 694 690
f 687 692 693
f 688 693 694
f 684 723 685
f 681 690 714
f 690 694 714
f 643 678 713
f 643 713 717
f 643 717 644
f 644 717 722
f 681 717 713
f 681 714 717
f 694 719 714
f 692 715 716
f 693 716 718
f 694 718 719
f 691 723 715
f 714 722 717
f 714 719 722
f 644 722 652
f 715 723 724
f 716 724 725
f 719 727 722
f 718 725 726
f 719 726 727
f 652 722 727
f 715 724 716
f 716 725 718
f 718 726 719
f 8 13 60
f 9 60 13
f 10 152 12
f 11 152 10
f 12 13 8
f 10 12 8
f 14 16 104
f 9 13 158
f 15 17 16
f 14 159 16
f 13 155 158
f 12 155 13
f 9 156 14
f 15 157 20
f 9 158 156
f 14 104 103
f 17 21 18
f 18 22 19
f 9 14 103
f 16 17 104
f 20 21 17
f 18 21 22
f 19 22 23
f 20 42 21
f 21 43 22
f 22 44 23
f 15 20 17
f 20 41 42
f 21 42 43
f 22 43 44
f 23 44 45
f 157 41 20
f 157 48 41
f 51 54 58
f 52 53 51
f 52 74 53
f 53 54 51
f 52 55 74
f 55 79 74
f 52 56 55
f 55 64 79
f 52 51 57
f 52 57 67
f 51 61 57
f 58 63 59
f 54 63 58
f 58 59 62
f 63 60 59
f 51 58 61
f 58 62 61
f 59 106 62
f 8 63 78
f 54 78 63
f 8 60 63
f 55 56 65
f 52 69 56
f 56 66 65
f 55 65 64
f 64 65 98
f 65 66 99
f 56 222 66
f 57 72 67
f 52 67 69
f 64 98 97
f 65 99 98
f 66 68 99
f 56 69 222
f 66 261 68
f 66 222 261
f 67 235 69
f 61 70 71
f 61 62 70
f 62 110 70
f 57 61 71
f 57 71 72
f 67 72 73
f 67 73 235
f 71 237 72
f 71 70 236
f 70 291 236
f 74 79 77
f 53 74 75
f 53 76 54
f 74 77 75
f 53 75 76
f 77 83 75
f 75 84 76
f 77 81 83
f 75 83 84
f 76 84 82
f 77 80 81
f 54 76 78
f 10 78 82
f 76 82 78
f 79 94 80
f 77 79 80
f 80 94 102
f 81 92 86
f 82 84 89
f 81 87 83
f 83 88 84
f 80 92 81
f 81 86 87
f 83 87 88
f 84 88 89
f 11 82 89
f 11 10 82
f 80 102 92
f 10 8 78
f 64 94 79
f 64 97 94
f 94 97 101
f 94 101 102
f 97 244 101
f 97 98 248
f 98 99 245
f 68 246 99
f 98 245 248
f 97 248 244
f 99 246 245
f 68 247 246
f 59 60 103
f 103 104 105
f 59 103 106
f 103 105 107
f 9 103 60
f 18 105 104
f 17 18 104
f 19 108 105
f 103 107 106
f 105 108 107
f 18 19 105
f 19 109 108
f 19 23 109
f 23 117 109
f 108 109 113
f 109 117 114
f 62 106 110
f 106 107 111
f 107 108 112
f 106 111 110
f 107 112 111
f 70 110 291
f 110 111 292
f 111 112 293
f 108 113 112
f 109 114 113
f 112 113 294
f 110 292 291
f 111 293 292
f 112 294 293
f 113 295 294
f 113 114 295
f 23 45 117
f 12 152 154
f 12 154 155
f 154 172 155
f 14 156 159
f 15 16 184
f 157 160 48
f 155 173 158
f 174 156 158
f 16 159 184
f 15 184 185
f 173 174 158
f 15 185 157
f 157 185 160
f 160 169 196
f 184 432 433
f 160 185 170
f 160 170 169
f 169 437 197
f 170 185 433
f 170 439 169
f 155 172 173
f 172 182 173
f 173 442 174
f 183 432 159
f 182 442 173
f 174 435 183
f 183 159 156
f 174 183 156
f 159 432 184
f 185 184 433
f 160 196 48
f 169 197 196
f 197 437 202
f 202 489 203
f 203 490 204
f 204 491 205
f 205 492 206
f 202 437 489
f 203 489 490
f 204 490 491
f 205 491 492
f 206 492 493
f 69 242 222
f 72 238 73
f 69 235 242
f 71 236 237
f 72 237 238
f 73 238 239
f 73 243 235
f 222 242 288
f 236 311 237
f 237 313 238
f 73 239 243
f 238 316 239
f 235 290 242
f 235 243 290
f 239 368 243
f 68 262 247
f 68 261 262
f 247 262 254
f 254 278 259
f 254 262 278
f 222 288 261
f 275 276 285
f 274 286 276
f 274 277 287
f 259 279 260
f 259 278 279
f 260 279 280
f 260 280 277
f 277 280 287
f 269 275 284
f 269 284 378
f 275 285 284
f 276 286 285
f 274 287 286
f 284 285 354
f 285 286 352
f 286 287 353
f 284 392 378
f 261 289 262
f 261 288 289
f 262 289 278
f 242 360 288
f 278 289 358
f 278 358 279
f 242 290 360
f 236 291 297
f 291 292 298
f 292 293 299
f 293 294 300
f 294 295 301
f 236 297 311
f 291 298 297
f 292 299 298
f 293 300 299
f 294 301 300
f 237 311 313
f 238 313 316
f 239 316 327
f 239 327 368
f 327 328 368
f 332 341 371
f 328 333 369
f 333 332 370
f 341 384 371
f 285 352 354
f 286 353 352
f 284 354 392
f 354 352 356
f 352 353 357
f 287 280 355
f 287 355 353
f 352 357 356
f 353 361 357
f 353 355 361
f 279 359 280
f 279 358 359
f 280 359 355
f 288 363 289
f 243 372 290
f 288 360 363
f 289 363 358
f 355 359 365
f 290 375 360
f 358 364 359
f 358 363 364
f 355 365 361
f 356 357 396
f 357 362 396
f 357 361 362
f 361 366 362
f 359 364 365
f 361 365 366
f 365 367 366
f 365 364 367
f 366 367 401
f 243 368 372
f 328 369 368
f 333 370 369
f 332 371 370
f 368 369 372
f 369 370 373
f 370 371 374
f 290 372 375
f 369 373 372
f 370 374 373
f 371 384 418
f 371 418 374
f 360 377 363
f 372 373 375
f 373 374 376
f 373 376 375
f 360 375 377
f 363 377 364
f 374 419 376
f 375 376 377
f 364 377 367
f 376 421 377
f 367 377 420
f 378 392 382
f 354 393 392
f 354 356 393
f 356 397 393
f 382 392 395
f 392 393 395
f 393 397 404
f 393 404 395
f 356 396 397
f 396 398 397
f 362 399 396
f 362 400 399
f 396 415 398
f 397 398 405
f 397 405 404
f 398 414 405
f 396 399 415
f 362 366 400
f 366 401 400
f 367 420 401
f 400 401 417
f 382 395 403
f 395 404 409
f 404 405 410
f 405 414 411
f 395 409 403
f 404 410 409
f 405 411 410
f 411 414 412
f 403 409 619
f 409 410 620
f 410 411 621
f 411 412 622
f 409 620 619
f 410 621 620
f 411 622 621
f 412 623 622
f 412 414 625
f 413 625 414
f 413 415 633
f 415 632 633
f 398 413 414
f 398 415 413
f 399 632 415
f 399 400 416
f 399 416 632
f 400 417 416
f 401 424 417
f 416 417 635
f 374 418 419
f 384 422 418
f 418 423 419
f 376 419 421
f 377 421 420
f 401 420 424
f 419 426 421
f 420 421 425
f 418 422 423
f 419 423 426
f 422 653 423
f 423 658 426
f 420 425 424
f 421 426 425
f 417 424 655
f 424 425 656
f 425 426 657
f 183 455 432
f 170 433 457
f 434 436 443
f 436 435 444
f 183 435 455
f 434 466 454
f 434 454 436
f 436 455 435
f 436 454 455
f 432 455 456
f 433 432 456
f 433 456 457
f 169 439 437
f 437 438 489
f 439 438 437
f 439 459 438
f 438 460 496
f 438 459 460
f 170 457 439
f 457 459 439
f 177 441 179
f 179 443 180
f 180 444 181
f 181 442 182
f 180 443 444
f 181 444 442
f 179 441 443
f 177 447 441
f 436 444 443
f 434 443 441
f 435 442 444
f 174 442 435
f 434 441 449
f 441 447 449
f 434 449 466
f 447 451 449
f 449 451 469
f 454 456 455
f 456 473 453
f 454 472 456
f 456 472 473
f 453 459 457
f 456 453 457
f 453 458 461
f 453 473 458
f 459 461 460
f 453 461 459
f 461 462 460
f 460 462 505
f 461 464 462
f 464 463 462
f 458 464 461
f 458 477 464
f 477 484 464
f 464 484 463
f 463 484 465
f 465 486 512
f 454 466 472
f 449 469 466
f 466 474 472
f 466 469 474
f 451 470 469
f 469 470 478
f 458 473 476
f 472 475 473
f 472 474 475
f 473 475 476
f 458 476 477
f 476 480 477
f 469 478 474
f 474 481 475
f 475 479 476
f 475 481 479
f 476 479 480
f 474 478 481
f 470 531 478
f 481 535 479
f 479 533 480
f 478 534 481
f 480 482 477
f 480 536 482
f 482 536 483
f 477 482 484
f 482 485 484
f 485 488 486
f 465 484 485
f 465 485 486
f 486 487 515
f 488 487 486
f 482 483 485
f 483 488 485
f 438 496 489
f 490 496 494
f 489 496 490
f 490 494 491
f 491 495 492
f 491 494 495
f 492 495 497
f 492 497 493
f 493 497 499
f 496 505 494
f 494 506 495
f 460 505 496
f 494 505 506
f 495 506 507
f 495 507 497
f 497 508 499
f 462 509 505
f 505 509 506
f 506 509 510
f 506 510 507
f 497 507 508
f 507 514 508
f 508 518 519
f 462 463 509
f 509 511 510
f 463 511 509
f 510 511 513
f 507 510 514
f 511 512 513
f 510 513 514
f 508 514 518
f 463 465 511
f 465 512 511
f 512 516 513
f 513 517 514
f 486 515 512
f 515 516 512
f 513 516 517
f 514 517 518
f 499 508 519
f 518 525 519
f 487 521 515
f 515 521 522
f 515 522 516
f 516 523 517
f 517 524 518
f 516 522 523
f 517 523 524
f 518 524 525
f 479 535 533
f 478 531 534
f 481 534 535
f 480 533 536
f 483 536 575
f 488 574 487
f 487 573 521
f 573 594 521
f 483 575 566
f 483 566 488
f 488 566 574
f 487 574 573
f 574 579 573
f 573 580 594
f 566 575 576
f 566 576 577
f 566 577 574
f 577 579 574
f 573 579 580
f 577 675 579
f 579 676 580
f 580 677 596
f 580 596 594
f 640 679 678
f 412 631 623
f 412 625 631
f 623 631 626
f 413 634 625
f 626 631 641
f 625 646 631
f 416 636 632
f 413 633 634
f 417 655 635
f 416 635 636
f 632 645 633
f 625 634 646
f 632 636 645
f 626 641 640
f 640 641 679
f 631 646 641
f 633 647 634
f 633 645 647
f 635 665 636
f 634 721 646
f 641 646 720
f 641 720 679
f 634 647 721
f 636 728 645
f 645 699 647
f 423 653 658
f 424 656 655
f 425 657 656
f 426 658 657
f 635 655 660
f 653 662 658
f 655 656 661
f 656 657 663
f 657 658 664
f 655 661 660
f 656 663 661
f 657 664 663
f 658 662 664
f 635 660 665
f 636 665 728
f 576 674 577
f 577 674 675
f 674 680 675
f 579 675 676
f 580 676 677
f 675 682 676
f 678 679 682
f 675 680 682
f 678 682 680
f 676 695 677
f 682 695 676
f 677 696 697
f 679 720 695
f 679 695 682
f 695 720 696
f 696 721 711
f 677 695 696
f 596 677 697
f 696 711 697
f 646 721 720
f 647 711 721
f 696 720 721
f 645 728 699
f 647 699 711
f 24 26 25
f 25 26 35
f 25 35 34
f 26 36 35
f 24 25 28
f 24 29 27
f 25 34 30
f 24 27 46
f 25 30 28
f 24 28 29
f 29 31 27
f 27 31 32
f 31 195 32
f 32 195 33
f 34 35 38
f 24 46 26
f 35 36 39
f 34 38 37
f 35 39 38
f 36 40 39
f 26 115 36
f 34 37 47
f 27 32 49
f 27 49 46
f 37 38 42
f 37 42 41
f 38 39 43
f 39 40 44
f 38 43 42
f 39 44 43
f 40 45 44
f 36 116 40
f 40 118 45
f 37 41 48
f 26 46 115
f 36 115 116
f 30 34 47
f 37 48 47
f 30 47 189
f 47 48 196
f 32 33 119
f 33 50 120
f 33 198 50
f 32 119 49
f 33 120 119
f 114 296 295
f 40 116 118
f 45 118 117
f 46 122 115
f 46 49 122
f 115 123 116
f 117 118 121
f 115 122 123
f 49 119 124
f 49 124 122
f 119 120 126
f 119 126 124
f 114 117 121
f 116 125 118
f 118 125 121
f 114 121 296
f 116 123 125
f 121 125 337
f 122 124 338
f 122 338 123
f 123 340 125
f 124 126 339
f 124 339 338
f 126 212 339
f 28 187 29
f 28 30 186
f 28 186 187
f 29 188 31
f 29 187 188
f 30 189 186
f 31 190 195
f 31 188 190
f 186 192 187
f 187 193 188
f 188 194 190
f 186 189 191
f 189 197 191
f 186 191 192
f 187 192 193
f 188 193 194
f 190 201 199
f 194 201 190
f 33 195 198
f 190 199 195
f 195 199 198
f 47 196 189
f 189 196 197
f 50 198 200
f 50 210 120
f 199 208 198
f 198 208 200
f 50 200 209
f 50 209 210
f 120 210 213
f 191 197 202
f 191 203 192
f 192 204 193
f 193 205 194
f 194 206 201
f 191 202 203
f 192 203 204
f 193 204 205
f 194 205 206
f 201 207 199
f 206 493 201
f 201 493 207
f 207 498 208
f 207 208 199
f 200 208 211
f 200 501 209
f 208 498 211
f 200 211 501
f 209 501 502
f 209 503 210
f 210 504 213
f 120 213 126
f 126 213 212
f 212 213 538
f 213 504 538
f 212 539 383
f 212 538 539
f 295 296 318
f 297 298 303
f 298 302 303
f 298 299 302
f 299 304 302
f 299 300 304
f 300 301 305
f 300 305 304
f 301 318 305
f 295 318 301
f 296 343 318
f 302 306 303
f 302 307 306
f 303 306 312
f 304 305 310
f 302 304 307
f 307 304 310
f 306 307 308
f 306 314 312
f 306 308 314
f 307 309 308
f 307 310 309
f 309 310 319
f 297 303 311
f 303 312 311
f 311 312 313
f 305 317 310
f 312 315 313
f 312 314 315
f 313 315 316
f 305 318 317
f 317 318 343
f 310 317 319
f 309 319 334
f 317 344 319
f 319 345 334
f 319 344 345
f 308 309 320
f 308 322 314
f 308 320 322
f 320 321 322
f 309 334 320
f 320 334 321
f 314 323 315
f 314 322 323
f 315 323 325
f 322 321 324
f 322 324 323
f 323 326 325
f 323 324 326
f 315 325 316
f 316 325 327
f 325 326 328
f 325 328 327
f 321 329 324
f 324 329 330
f 321 335 329
f 324 330 326
f 329 331 330
f 326 330 333
f 330 332 333
f 330 331 332
f 331 341 332
f 326 333 328
f 329 336 331
f 331 342 341
f 321 334 335
f 329 335 336
f 331 336 342
f 334 345 335
f 335 350 336
f 335 345 350
f 121 337 296
f 125 340 337
f 123 338 340
f 296 337 343
f 337 340 346
f 337 346 343
f 338 339 349
f 338 349 340
f 339 383 349
f 336 351 342
f 341 342 384
f 342 351 385
f 342 385 384
f 317 343 344
f 343 346 344
f 345 344 347
f 345 347 350
f 344 346 347
f 350 348 351
f 350 347 348
f 346 349 347
f 347 349 348
f 340 349 346
f 336 350 351
f 348 349 387
f 351 348 386
f 351 386 385
f 348 387 386
f 212 383 339
f 384 385 422
f 385 386 389
f 385 389 422
f 349 383 388
f 349 388 387
f 386 387 390
f 389 386 390
f 387 388 391
f 383 616 388
f 383 539 616
f 389 390 654
f 387 391 390
f 388 617 391
f 388 616 617
f 390 391 659
f 389 653 422
f 207 493 499
f 207 499 498
f 211 498 500
f 499 519 498
f 211 500 520
f 498 519 500
f 526 502 501
f 520 526 501
f 209 502 503
f 211 520 501
f 210 503 504
f 503 527 504
f 504 528 538
f 500 519 525
f 500 545 520
f 526 546 502
f 500 525 545
f 502 546 550
f 520 549 526
f 502 550 503
f 503 550 527
f 504 527 528
f 538 540 539
f 528 540 538
f 539 540 541
f 521 542 522
f 522 543 523
f 523 544 524
f 524 545 525
f 520 545 549
f 522 542 543
f 523 543 544
f 524 544 545
f 526 552 546
f 521 594 542
f 542 547 543
f 543 547 548
f 543 548 544
f 544 549 545
f 544 548 549
f 526 549 552
f 542 595 547
f 546 554 550
f 527 550 557
f 527 555 528
f 527 557 555
f 528 555 556
f 547 551 548
f 548 551 552
f 548 552 549
f 546 552 553
f 547 597 551
f 546 553 554
f 554 557 550
f 551 553 552
f 551 598 553
f 542 594 595
f 547 595 597
f 594 596 595
f 528 556 540
f 540 556 606
f 595 596 602
f 596 697 602
f 540 606 541
f 541 606 698
f 551 597 598
f 595 602 597
f 597 603 598
f 557 600 601
f 553 599 554
f 553 598 599
f 554 600 557
f 554 599 600
f 557 601 555
f 555 605 556
f 555 601 605
f 556 605 606
f 597 602 603
f 600 702 601
f 601 702 706
f 598 604 599
f 598 603 604
f 599 705 600
f 599 604 705
f 600 705 702
f 601 706 605
f 605 707 606
f 605 706 707
f 606 707 698
f 539 541 616
f 391 671 659
f 391 617 671
f 616 618 617
f 617 618 672
f 617 672 671
f 541 618 616
f 618 701 672
f 389 654 653
f 654 659 666
f 653 654 662
f 390 659 654
f 654 666 662
f 660 661 668
f 661 663 667
f 663 664 669
f 662 670 664
f 660 668 665
f 664 670 669
f 662 666 670
f 661 667 668
f 663 669 667
f 659 671 739
f 666 659 739
f 671 740 739
f 671 672 740
f 541 698 618
f 618 698 701
f 698 707 700
f 698 700 701
f 672 701 743
f 700 712 742
f 700 744 701
f 701 744 743
f 602 697 703
f 602 703 603
f 603 704 604
f 603 703 704
f 604 708 705
f 604 704 708
f 705 709 702
f 705 708 709
f 710 712 706
f 702 710 706
f 702 709 710
f 706 712 707
f 700 707 712
f 697 711 703
f 703 745 704
f 704 746 708
f 699 745 711
f 703 711 745
f 708 747 709
f 704 745 746
f 709 748 710
f 710 749 712
f 665 668 729
f 665 729 728
f 670 666 730
f 666 739 730
f 668 667 731
f 667 669 732
f 669 670 733
f 670 730 733
f 668 731 729
f 667 732 731
f 669 733 732
f 733 730 738
f 728 729 734
f 699 728 734
f 729 731 735
f 729 735 734
f 699 734 745
f 734 735 746
f 730 741 738
f 738 741 742
f 731 732 736
f 731 736 735
f 732 737 736
f 732 733 737
f 733 738 737
f 735 736 747
f 736 737 748
f 737 738 749
f 738 742 749
f 730 739 741
f 739 740 741
f 672 743 740
f 741 740 744
f 700 742 744
f 741 744 742
f 740 743 744
f 734 746 745
f 735 747 746
f 708 746 747
f 709 747 748
f 712 749 742
f 710 748 749
f 736 748 747
f 737 749 748
