# MAAS exact compiled indexed mesh
# program_hash 373ffc8e8a0110507eb090be3393024626a7e70f7b6049afb3682ef17965559d
# geometry_hash 6f65521e239e514c6791e302a62227f8fbf6db8a51ffc2783f087f906bc93e66
v -13.68172979 -13.89741511 0
v -7.80186171 -13.89741511 0
v -13.68172979 -13.89741511 3.68181818
v -15.44569021 -10.95748107 3.55909091
v -13.68172979 -10.95748107 3.55909091
v -13.68172979 -10.95748107 3.68181818
v -7.80186171 -13.89741511 3.68181818
v -15.44569021 -2.13767896 3.55909091
v -13.68172979 -2.13767896 3.55909091
v -13.68172979 -2.13767896 3.68181818
v -7.04316906 -8.89004359 0
v -7.13369489 -8.60553384 0
v -5.44991448 -8.60553384 0
v -7.35641716 -10.95748107 3.68181818
v -5.44991448 -10.95748107 3.68181818
v -5.44991448 -8.60553384 3.55909091
v -5.44991448 -8.60553384 3.68181818
v -5.44991448 -2.13767896 3.55909091
v -5.44991448 -2.13767896 3.68181818
v -15.44569021 -10.95748107 7.24090909
v -14.85770341 -8.95832593 7.24090909
v -14.85770341 -8.95832593 10.8
v -15.44569021 -2.13767896 7.24090909
v -14.85770341 -2.49047104 7.24090909
v -14.85770341 -2.49047104 10.8
v -5.44991448 -10.95748107 7.24090909
v -7.21387491 -8.95832593 7.24090909
v -7.21387491 -8.95832593 10.8
v -7.21387491 -2.49047104 7.24090909
v -5.44991448 -2.13767896 7.24090909
v -7.21387491 -2.49047104 10.8
v -13.09374298 1.9782287 3.68181818
v -13.68172979 11.97400443 0
v -7.80186171 11.97400443 0
v -13.68172979 11.97400443 3.68181818
v -13.09374298 10.79803081 3.68181818
v -7.80186171 11.97400443 3.68181818
v -5.44991448 4.91816273 0
v -5.44991448 1.9782287 3.55909091
v -5.44991448 1.9782287 3.68181818
v -5.44991448 4.91816273 3.55909091
v -3.68595406 1.9782287 3.55909091
v -3.68595406 4.91816273 3.55909091
v -3.68595406 4.91816273 3.68181818
v -5.44991448 10.79803081 0
v -5.44991448 10.79803081 3.68181818
v -3.68595406 10.79803081 3.68181818
v -13.09374298 1.9782287 7.24090909
v -13.09374298 10.79803081 7.24090909
v -7.21387491 5.15335746 7.24090909
v -3.68595406 1.9782287 7.24090909
v -3.68595406 5.15335746 7.11818182
v -3.68595406 5.15335746 7.24090909
v -0.74602002 5.15335746 7.11818182
v -7.21387491 5.15335746 10.8
v -0.74602002 5.15335746 10.8
v -7.21387491 10.79803081 7.11818182
v -7.21387491 10.79803081 7.24090909
v -7.21387491 11.03322553 7.11818182
v -3.68595406 10.79803081 7.11818182
v -0.74602002 11.03322553 7.11818182
v -7.21387491 11.03322553 10.8
v -0.74602002 11.03322553 10.8
v 6.30982167 -13.89741511 0
v 6.30982167 -11.54546788 0
v 3.95787444 -8.60553384 0
v 2.78190082 -9.78150746 3.68181818
v 2.78190082 -8.60553384 3.55909091
v 2.78190082 -8.60553384 3.68181818
v 6.30982167 -13.89741511 3.68181818
v 6.30982167 -11.54546788 3.68181818
v 4.89865333 -9.78150746 3.68181818
v 3.95787444 -8.60553384 3.55909091
v 2.78190082 -2.13767896 3.55909091
v 3.95787444 -2.13767896 3.55909091
v 3.95787444 -2.13767896 3.68181818
v 12.18968975 -11.54546788 0
v 12.18968975 -11.54546788 3.68181818
v 12.18968975 -9.78150746 3.55909091
v 12.18968975 -9.78150746 3.68181818
v 13.95365017 -9.78150746 3.55909091
v 12.18968975 -2.13767896 3.55909091
v 12.18968975 -2.13767896 3.68181818
v 13.95365017 -2.13767896 3.55909091
v 2.78190082 -9.78150746 5.4
v 3.15103751 -9.71865478 5.4
v 3.15103751 -9.71865478 5.86022727
v 3.15103751 -9.71865478 6.32045455
v 3.08941278 -7.80869155 5.86022727
v 3.08941278 -7.80869155 6.32045455
v 3.15103751 -9.71865478 6.78068182
v 3.15103751 -9.71865478 7.24090909
v 3.08941278 -7.80869155 6.78068182
v 3.08941278 -7.80869155 7.24090909
v 6.23353266 -9.57978464 5.4
v 6.23353266 -9.57978464 5.86022727
v 6.23353266 -9.57978464 6.32045455
v 6.23353266 -9.57978464 6.78068182
v 6.23353266 -9.57978464 7.24090909
v 6.123164 -7.67201739 7.24090909
v 3.02778806 -5.89872832 5.86022727
v 3.02778806 -5.89872832 6.32045455
v 2.96616334 -3.9887651 5.86022727
v 2.96616334 -3.9887651 6.32045455
v 3.02778806 -5.89872832 6.78068182
v 3.02778806 -5.89872832 7.24090909
v 2.96616334 -3.9887651 6.78068182
v 2.96616334 -3.9887651 7.24090909
v 2.78190082 -2.13767896 5.4
v 2.90643828 -2.13767896 5.4
v 2.90453862 -2.07880187 5.4
v 2.90453862 -2.07880187 5.86022727
v 2.90453862 -2.07880187 6.32045455
v 2.90453862 -2.07880187 6.78068182
v 2.90453862 -2.07880187 7.24090909
v 6.01279535 -5.76425013 7.24090909
v 5.90242669 -3.85648288 7.24090909
v 5.79205804 -1.94871563 5.4
v 5.79205804 -1.94871563 5.86022727
v 5.79205804 -1.94871563 6.32045455
v 5.79205804 -1.94871563 6.78068182
v 5.79205804 -1.94871563 7.24090909
v 9.31147743 -9.36225938 5.4
v 9.31147743 -9.36225938 5.86022727
v 9.31147743 -9.36225938 6.32045455
v 9.31147743 -9.36225938 6.78068182
v 9.31147743 -9.36225938 7.24090909
v 9.1524368 -7.45793188 7.24090909
v 12.38286514 -9.06622081 5.4
v 12.38286514 -9.06622081 5.86022727
v 12.38286514 -9.06622081 6.32045455
v 13.95365017 -9.78150746 5.4
v 13.95365017 -8.87422921 5.4
v 15.44569336 -8.69186194 5.4
v 15.44569336 -8.69186194 5.86022727
v 15.44569336 -8.69186194 6.32045455
v 12.38286514 -9.06622081 6.78068182
v 12.38286514 -9.06622081 7.24090909
v 12.17525622 -7.16657462 7.24090909
v 15.44569336 -8.69186194 6.78068182
v 15.44569336 -8.69186194 7.24090909
v 8.99339617 -5.55360439 7.24090909
v 8.83435554 -3.64927689 7.24090909
v 8.67531491 -1.7449494 5.4
v 8.67531491 -1.7449494 5.86022727
v 8.67531491 -1.7449494 6.32045455
v 11.55242946 -1.46763603 5.4
v 11.55242946 -1.46763603 5.86022727
v 11.55242946 -1.46763603 6.32045455
v 8.67531491 -1.7449494 6.78068182
v 8.67531491 -1.7449494 7.24090909
v 11.55242946 -1.46763603 6.78068182
v 11.55242946 -1.46763603 7.24090909
v 15.1896515 -6.79813554 5.4
v 15.1896515 -6.79813554 5.86022727
v 15.1896515 -6.79813554 6.32045455
v 14.93360965 -4.90440913 5.4
v 14.93360965 -4.90440913 5.86022727
v 14.93360965 -4.90440913 6.32045455
v 11.9676473 -5.26692842 7.24090909
v 15.1896515 -6.79813554 6.78068182
v 15.1896515 -6.79813554 7.24090909
v 14.93360965 -4.90440913 6.78068182
v 14.93360965 -4.90440913 7.24090909
v 13.95365017 -2.13767896 5.4
v 14.67756779 -3.01068273 5.4
v 14.67756779 -3.01068273 5.86022727
v 14.67756779 -3.01068273 6.32045455
v 14.42152594 -1.11695632 5.4
v 14.42152594 -1.11695632 5.86022727
v 14.42152594 -1.11695632 6.32045455
v 11.76003838 -3.36728223 7.24090909
v 14.67756779 -3.01068273 6.78068182
v 14.67756779 -3.01068273 7.24090909
v 14.42152594 -1.11695632 6.78068182
v 14.42152594 -1.11695632 7.24090909
v 3.95787444 4.91816273 0
v 3.36988763 3.74218912 3.55909091
v 3.36988763 4.91816273 3.55909091
v 3.36988763 4.91816273 3.68181818
v 3.95787444 3.74218912 3.55909091
v 3.95787444 3.74218912 3.68181818
v 3.95787444 4.91816273 3.55909091
v 3.95787444 11.97400443 0
v 3.95787444 13.14997804 0
v 3.36988763 11.97400443 3.55909091
v 3.36988763 11.97400443 3.68181818
v 3.36988763 13.14997804 3.55909091
v 3.95787444 11.97400443 3.55909091
v 3.95787444 13.14997804 3.55909091
v 3.95787444 13.14997804 3.68181818
v 12.18968975 3.74218912 3.55909091
v 12.18968975 3.74218912 3.68181818
v 12.77767655 3.74218912 3.55909091
v 12.18968975 13.14997804 0
v 12.18968975 13.14997804 3.55909091
v 12.18968975 13.14997804 3.68181818
v 12.77767655 13.14997804 3.55909091
v 3.36988763 3.74218912 5.4
v 3.29149529 3.81816252 5.4
v 3.36988763 3.82195814 5.4
v 3.29149529 3.81816252 5.86022727
v 3.2782231 4.17070486 5.82954545
v 3.29149529 3.81816252 6.32045455
v 3.2782231 4.17070486 6.28977273
v 3.2782231 4.17070486 6.75
v 3.26495091 4.52324721 6.25909091
v 3.26495091 4.52324721 6.71931818
v 3.25167873 4.87578955 6.68863636
v 3.22292232 5.63963129 5.82954545
v 3.20301405 6.16844481 5.4
v 3.20301405 6.16844481 5.86022727
v 3.20965014 5.99217364 6.25909091
v 3.19637795 6.34471598 6.68863636
v 0.25030704 5.15804388 7.11818182
v 0.25030704 5.15804388 7.14886364
v 1.24654592 5.17210272 7.11818182
v 1.24654592 5.17210272 7.14886364
v 1.24654592 5.17210272 7.17954545
v 0.6772825 5.16292151 8.03863636
v 1.67345661 5.18099678 8.06931818
v 0.23647878 6.62794585 7.11818182
v 1.21889064 6.64180957 7.11818182
v 2.24260848 5.19553275 7.11818182
v 2.24260848 5.19553275 7.14886364
v 2.24260848 5.19553275 7.17954545
v 2.24260848 5.19553275 7.21022727
v 3.29149529 3.81816252 6.78068182
v 3.29149529 3.81816252 7.24090909
v 3.2782231 4.17070486 7.21022727
v 3.2782231 4.17070486 7.24090909
v 3.84646306 4.34074279 7.24090909
v 3.26495091 4.52324721 7.17954545
v 3.26495091 4.52324721 7.21022727
v 3.26495091 4.52324721 7.24090909
v 3.25167873 4.87578955 7.14886364
v 3.25167873 4.87578955 7.17954545
v 3.25167873 4.87578955 7.21022727
v 3.25167873 4.87578955 7.24090909
v 3.83129595 4.6932087 7.24090909
v 3.81612883 5.0456746 7.24090909
v 2.20112861 6.66491441 7.11818182
v 3.23840654 5.22833189 7.11818182
v 3.23840654 5.22833189 7.14886364
v 3.23840654 5.22833189 7.17954545
v 3.23840654 5.22833189 7.21022727
v 3.23840654 5.22833189 7.24090909
v 3.66507434 5.24525607 7.24090909
v 3.18310577 6.69725832 7.11818182
v 5.59644679 3.92976437 5.4
v 5.59644679 3.92976437 5.86022727
v 5.59644679 3.92976437 6.32045455
v 3.86163018 3.98827689 7.24090909
v 4.430053 4.16141752 7.24090909
v 4.24352835 5.06492947 7.24090909
v 4.41299139 4.5137968 7.24090909
v 4.39592978 4.86617608 7.24090909
v 4.82404827 4.88776999 7.24090909
v 4.67084676 5.08590732 7.24090909
v 5.59644679 3.92976437 6.78068182
v 4.99674771 4.33757092 7.24090909
v 5.59644679 3.92976437 7.24090909
v 4.9777921 4.68985339 7.24090909
v 5.25207622 4.91108976 7.24090909
v 5.09807713 5.10860783 7.24090909
v 5.40661674 4.71379463 7.24090909
v 5.56169836 4.51672351 7.24090909
v 4.09167043 5.26390031 7.24090909
v 4.51818789 5.2842643 7.24090909
v 4.94461978 5.30634772 7.24090909
v 4.86563808 6.77419135 7.24090909
v 5.29624808 6.62156188 7.24090909
v 5.14427152 6.81900362 7.24090909
v 5.44876595 6.42434072 7.24090909
v 6.16279229 4.11209778 7.24090909
v 6.72736105 4.29741993 7.24090909
v 7.13604299 4.62160876 7.24090909
v 7.29013731 4.485717 7.24090909
v 0.6772825 5.16292151 8.95909091
v 2.6694166 5.20844244 8.1
v 2.10032796 5.19161193 8.95909091
v 3.66507434 5.24525607 8.13068182
v 3.09616921 5.22307278 8.98977273
v 0.6772825 5.16292151 9.87954545
v 0.6772825 5.16292151 10.8
v 0.65752815 6.63275578 10.8
v 2.10032796 5.19161193 9.87954545
v 2.10032796 5.19161193 10.8
v 3.52285936 5.23942355 9.87954545
v 2.06082284 6.66104801 10.8
v 3.52285936 5.23942355 10.8
v 3.4636106 6.70819603 10.8
v 5.56169836 4.51672351 8.13068182
v 5.56169836 4.51672351 9.02045455
v 4.09167043 5.26390031 8.13068182
v 4.51818789 5.2842643 8.13068182
v 4.94461978 5.30634772 8.13068182
v 4.86563808 6.77419135 8.13068182
v 5.44876595 6.42434072 8.13068182
v 4.09167043 5.26390031 9.02045455
v 4.51818789 5.2842643 9.02045455
v 4.94461978 5.30634772 9.02045455
v 4.86563808 6.77419135 9.02045455
v 5.44876595 6.42434072 9.02045455
v 7.13604299 4.62160876 8.13068182
v 7.13604299 4.62160876 9.02045455
v 5.56169836 4.51672351 9.91022727
v 5.56169836 4.51672351 10.8
v 4.51818789 5.2842643 9.91022727
v 4.94461978 5.30634772 9.91022727
v 4.86563808 6.77419135 9.91022727
v 5.44876595 6.42434072 9.91022727
v 4.94461978 5.30634772 10.8
v 4.86563808 6.77419135 10.8
v 5.44876595 6.42434072 10.8
v 7.13604299 4.62160876 9.91022727
v 7.13604299 4.62160876 10.8
v 6.99492376 6.52734812 10.8
v 3.1145328 8.5187271 5.4
v 3.1145328 8.5187271 5.86022727
v 3.15434936 7.46110007 6.25909091
v 3.14107718 7.81364241 6.68863636
v 3.13444108 7.98991358 6.28977273
v 3.1145328 8.5187271 6.32045455
v 3.0857764 9.28256884 6.68863636
v 3.06586812 9.81138236 6.71931818
v 3.04595984 10.34019587 6.75
v 0.22265053 8.09784783 7.11818182
v 1.19123536 8.11151642 7.11818182
v 0.20882228 9.5677498 7.11818182
v 1.16358008 9.58122327 7.11818182
v 2.15964875 8.13429607 7.11818182
v 3.12780499 8.16618476 7.11818182
v 2.11816888 9.60367773 7.11818182
v 3.07250422 9.63511119 7.11818182
v 3.02605156 10.86900939 5.4
v 3.02605156 10.86900939 5.86022727
v 3.02605156 10.86900939 6.32045455
v 2.93757032 13.21929168 5.4
v 3.36988763 13.14997804 5.4
v 2.93757032 13.21929168 5.86022727
v 2.93757032 13.21929168 6.32045455
v 0.19499403 11.03765178 7.11818182
v 1.1359248 11.05093012 7.11818182
v 0.19499403 11.03765178 8.03863636
v 1.1359248 11.05093012 8.03863636
v 2.07668902 11.07305939 7.11818182
v 3.02605156 10.86900939 6.78068182
v 3.01720344 11.10403762 7.11818182
v 3.01720344 11.10403762 7.14886364
v 3.01720344 11.10403762 7.17954545
v 3.01720344 11.10403762 7.21022727
v 3.01720344 11.10403762 7.24090909
v 3.42018395 11.12002222 7.24090909
v 3.82309675 11.13763139 7.24090909
v 2.99729516 11.63285113 7.14886364
v 2.99729516 11.63285113 7.17954545
v 2.99729516 11.63285113 7.21022727
v 2.99729516 11.63285113 7.24090909
v 3.39814382 11.64875117 7.24090909
v 3.79892511 11.66626718 7.24090909
v 2.07668902 11.07305939 8.03863636
v 2.07668902 11.07305939 8.06931818
v 2.97738688 12.16166465 7.17954545
v 2.97738688 12.16166465 7.21022727
v 2.97738688 12.16166465 7.24090909
v 3.37610368 12.17748013 7.24090909
v 2.9574786 12.69047817 7.21022727
v 2.9574786 12.69047817 7.24090909
v 3.35406355 12.70620908 7.24090909
v 3.77475348 12.19490298 7.24090909
v 3.47613263 12.94678529 7.24090909
v 2.93757032 13.21929168 6.78068182
v 2.93757032 13.21929168 7.24090909
v 4.78665638 8.24203498 7.24090909
v 4.99283658 7.01666484 7.24090909
v 4.91188231 8.484401 7.24090909
v 5.18587943 8.52932913 7.24090909
v 5.33583354 8.33195793 7.24090909
v 4.70767468 9.70987861 7.24090909
v 5.03646682 8.72691748 7.24090909
v 4.83092804 9.95213716 7.24090909
v 4.95354013 10.19454352 7.24090909
v 5.22290113 10.23957513 7.24090909
v 5.04047185 13.32111062 5.4
v 5.04047185 13.32111062 5.86022727
v 5.04047185 13.32111062 6.32045455
v 7.14069807 13.46812008 5.4
v 7.14069807 13.46812008 5.86022727
v 7.14069807 13.46812008 6.32045455
v 4.22593527 11.15686483 7.24090909
v 4.62869297 11.17772225 7.24090909
v 4.19963253 11.68539888 7.24090909
v 4.32117835 11.9270232 7.24090909
v 4.74997377 11.41987333 7.24090909
v 5.07551078 10.43709639 7.24090909
v 4.87061344 11.66216956 7.24090909
v 4.99061181 11.90460966 7.24090909
v 5.10996872 12.14719234 7.24090909
v 3.89656205 12.43600234 7.24090909
v 4.01773078 12.6772501 7.24090909
v 4.44208367 12.1687943 7.24090909
v 4.56234834 12.4107109 7.24090909
v 5.04047185 13.32111062 6.78068182
v 5.04047185 13.32111062 7.24090909
v 5.58476876 13.06024674 7.24090909
v 6.13203693 12.80241866 7.24090909
v 6.57156607 12.24456619 7.24090909
v 6.68225941 12.54765078 7.24090909
v 7.14069807 13.46812008 6.78068182
v 7.14069807 13.46812008 7.24090909
v 7.69047794 13.21901933 7.24090909
v 0.63777381 8.10259006 10.8
v 0.61801947 9.57242434 10.8
v 2.02131772 8.13048408 10.8
v 3.40436184 8.17696852 10.8
v 1.9818126 9.59992016 10.8
v 3.34511308 9.64574101 10.8
v 0.19499403 11.03765178 8.95909091
v 1.1359248 11.05093012 8.95909091
v 1.1359248 11.05093012 8.98977273
v 1.1359248 11.05093012 9.02045455
v 2.07668902 11.07305939 8.1
v 2.07668902 11.07305939 8.13068182
v 3.42018395 11.12002222 8.13068182
v 3.82309675 11.13763139 8.13068182
v 2.47980207 11.08525237 9.02045455
v 3.82309675 11.13763139 9.02045455
v 0.19499403 11.03765178 9.87954545
v 0.19499403 11.03765178 9.91022727
v 1.53913471 11.0593304 9.91022727
v 0.59826512 11.04225862 10.8
v 2.88286269 11.09907048 9.91022727
v 1.94230748 11.06935624 10.8
v 3.28586432 11.1145135 10.8
v 4.78665638 8.24203498 8.13068182
v 5.33583354 8.33195793 8.13068182
v 4.78665638 8.24203498 9.02045455
v 5.33583354 8.33195793 9.02045455
v 4.70767468 9.70987861 8.13068182
v 5.22290113 10.23957513 8.13068182
v 4.70767468 9.70987861 9.02045455
v 5.22290113 10.23957513 9.02045455
v 4.78665638 8.24203498 9.91022727
v 5.33583354 8.33195793 9.91022727
v 4.78665638 8.24203498 10.8
v 5.33583354 8.33195793 10.8
v 4.70767468 9.70987861 9.91022727
v 5.22290113 10.23957513 9.91022727
v 4.70767468 9.70987861 10.8
v 5.22290113 10.23957513 10.8
v 6.85380453 8.43308747 10.8
v 6.7126853 10.33882683 10.8
v 4.22593527 11.15686483 8.13068182
v 4.62869297 11.17772225 8.13068182
v 5.10996872 12.14719234 8.13068182
v 4.22593527 11.15686483 9.02045455
v 4.62869297 11.17772225 9.02045455
v 5.10996872 12.14719234 9.02045455
v 6.57156607 12.24456619 8.13068182
v 6.57156607 12.24456619 9.02045455
v 4.22593527 11.15686483 9.91022727
v 4.62869297 11.17772225 9.91022727
v 5.10996872 12.14719234 9.91022727
v 4.62869297 11.17772225 10.8
v 5.10996872 12.14719234 10.8
v 6.57156607 12.24456619 9.91022727
v 6.57156607 12.24456619 10.8
v 7.89846594 4.09089873 5.4
v 7.89846594 4.09089873 5.86022727
v 7.89846594 4.09089873 6.32045455
v 10.19648841 4.30149109 5.4
v 10.19648841 4.30149109 5.86022727
v 10.19648841 4.30149109 6.32045455
v 7.89846594 4.09089873 6.78068182
v 7.89846594 4.09089873 7.24090909
v 8.4607602 4.28536687 7.24090909
v 8.70866515 4.74975514 7.24090909
v 8.86475144 4.61615611 7.24090909
v 9.02121387 4.48278486 7.24090909
v 10.19648841 4.30149109 6.78068182
v 10.19648841 4.30149109 7.24090909
v 10.43726532 4.76985754 7.24090909
v 10.5956822 4.63881375 7.24090909
v 10.27922117 4.90113464 7.24090909
v 10.75447147 4.50800405 7.24090909
v 12.48945174 4.56144409 5.4
v 12.48945174 4.56144409 5.86022727
v 12.77767655 3.74218912 5.4
v 12.48945174 4.56144409 6.32045455
v 12.19939935 6.89543753 5.86022727
v 12.19939935 6.89543753 6.32045455
v 12.48945174 4.56144409 6.78068182
v 12.00733529 4.94678771 7.24090909
v 11.84736782 5.07571419 7.24090909
v 12.32837761 4.6896519 7.24090909
v 12.48945174 4.56144409 7.24090909
v 12.167672 4.81810002 7.24090909
v 12.19939935 6.89543753 6.78068182
v 11.77931523 6.84409211 7.24090909
v 11.93710236 6.71509627 7.24090909
v 12.09525879 6.58633657 7.24090909
v 12.19939935 6.89543753 7.24090909
v 8.70866515 4.74975514 8.13068182
v 8.70866515 4.74975514 9.02045455
v 10.27922117 4.90113464 8.13068182
v 10.27922117 4.90113464 9.02045455
v 8.70866515 4.74975514 9.91022727
v 8.70866515 4.74975514 10.8
v 8.53938994 6.65320018 10.8
v 10.27922117 4.90113464 9.91022727
v 10.27922117 4.90113464 10.8
v 10.08182696 6.80186941 10.8
v 11.84736782 5.07571419 8.13068182
v 11.84736782 5.07571419 9.02045455
v 11.84736782 5.07571419 9.91022727
v 11.84736782 5.07571419 10.8
v 11.3964277 8.87093244 7.24090909
v 11.55129518 8.74139651 7.24090909
v 9.23727796 13.66025211 5.4
v 9.23727796 13.66025211 5.86022727
v 9.23727796 13.66025211 6.32045455
v 11.42212878 13.14997804 5.4
v 11.32924219 13.89741786 5.4
v 11.32924219 13.89741786 5.86022727
v 11.32924219 13.89741786 6.32045455
v 8.0315643 12.36353531 7.24090909
v 8.13776522 12.6682231 7.24090909
v 8.24316311 12.97301755 7.24090909
v 9.48964435 12.50407372 7.24090909
v 9.59132965 12.81029812 7.24090909
v 9.23727796 13.66025211 6.78068182
v 9.23727796 13.66025211 7.24090909
v 11.32327512 10.63870091 7.24090909
v 11.17095765 10.76854157 7.24090909
v 11.42275469 10.94685714 7.24090909
v 11.52142786 11.25509884 7.24090909
v 9.69221043 13.1166173 7.24090909
v 9.7922866 13.42302964 7.24090909
v 10.94548759 12.66615069 7.24090909
v 11.04263505 12.97384479 7.24090909
v 11.32924219 13.89741786 6.78068182
v 11.13897667 13.28162175 7.24090909
v 11.23451239 13.58947998 7.24090909
v 11.32924219 13.89741786 7.24090909
v 11.90934697 9.22943098 5.86022727
v 11.90934697 9.22943098 6.32045455
v 11.62189776 6.97332332 7.24090909
v 11.70653271 8.61209252 7.24090909
v 11.90934697 9.22943098 6.78068182
v 11.80834333 8.92071771 7.24090909
v 11.90934697 9.22943098 7.24090909
v 11.61929458 11.56342442 5.86022727
v 11.61929458 11.56342442 6.32045455
v 12.77767655 13.14997804 5.4
v 11.61929458 11.56342442 6.78068182
v 11.61929458 11.56342442 7.24090909
v 11.3964277 8.87093244 8.13068182
v 11.3964277 8.87093244 9.02045455
v 8.37011473 8.55664522 10.8
v 11.3964277 8.87093244 9.91022727
v 9.88443276 8.70260418 10.8
v 11.3964277 8.87093244 10.8
v 8.0315643 12.36353531 8.13068182
v 9.48964435 12.50407372 8.13068182
v 8.0315643 12.36353531 9.02045455
v 9.48964435 12.50407372 9.02045455
v 11.17095765 10.76854157 8.13068182
v 11.17095765 10.76854157 9.02045455
v 10.94548759 12.66615069 8.13068182
v 10.94548759 12.66615069 9.02045455
v 8.20083951 10.46009027 10.8
v 8.0315643 12.36353531 9.91022727
v 9.48964435 12.50407372 9.91022727
v 8.0315643 12.36353531 10.8
v 9.48964435 12.50407372 10.8
v 11.17095765 10.76854157 9.91022727
v 9.68703855 10.60333895 10.8
v 11.17095765 10.76854157 10.8
v 10.94548759 12.66615069 9.91022727
v 10.94548759 12.66615069 10.8
v 11.62189776 6.97332332 8.13068182
v 11.62189776 6.97332332 9.02045455
v 11.62189776 6.97332332 9.91022727
v 11.62189776 6.97332332 10.8
f 1 3 5
f 1 7 3
f 1 5 9
f 1 2 7
f 1 11 2
f 1 12 11
f 3 6 5
f 3 7 6
f 6 7 14
f 1 9 35
f 1 33 12
f 10 19 32
f 12 38 13
f 13 18 16
f 13 38 39
f 13 39 18
f 18 39 19
f 1 35 33
f 12 33 38
f 9 10 35
f 10 32 35
f 19 40 32
f 33 35 34
f 33 34 38
f 35 37 34
f 32 36 35
f 35 36 37
f 36 46 37
f 38 41 39
f 19 39 40
f 38 34 45
f 65 66 77
f 66 177 77
f 66 73 75
f 66 75 177
f 75 76 181
f 76 83 182
f 65 77 78
f 65 78 71
f 71 78 72
f 72 78 80
f 78 79 80
f 77 195 78
f 78 195 79
f 82 193 83
f 77 177 184
f 75 181 177
f 77 184 185
f 177 181 183
f 76 182 181
f 184 190 185
f 184 189 190
f 185 190 197
f 190 191 197
f 77 185 195
f 79 195 82
f 82 195 192
f 83 193 182
f 82 192 193
f 185 196 195
f 185 197 196
f 192 195 196
f 38 177 41
f 41 177 43
f 43 180 44
f 34 37 186
f 38 45 184
f 34 184 45
f 34 186 189
f 44 187 47
f 37 46 187
f 46 47 187
f 37 187 186
f 43 177 179
f 177 183 179
f 43 179 180
f 38 184 177
f 34 189 184
f 44 180 187
f 11 12 13
f 2 11 64
f 2 64 7
f 11 13 66
f 13 16 68
f 7 70 14
f 14 70 15
f 15 69 17
f 16 17 69
f 11 65 64
f 7 64 70
f 11 66 65
f 13 73 66
f 13 68 73
f 64 65 70
f 65 71 70
f 15 71 67
f 15 70 71
f 15 67 69
f 16 69 68
f 67 71 72
f 4 5 6
f 4 6 20
f 6 14 20
f 4 9 5
f 4 8 9
f 4 23 8
f 8 10 9
f 8 30 10
f 10 30 19
f 14 15 26
f 15 17 26
f 17 18 26
f 16 18 17
f 18 19 26
f 4 20 23
f 20 21 23
f 20 26 21
f 14 26 20
f 21 26 27
f 21 24 23
f 8 23 30
f 23 24 29
f 23 29 30
f 26 30 27
f 19 30 26
f 27 30 29
f 32 48 36
f 32 40 48
f 36 49 46
f 39 42 40
f 39 43 42
f 40 42 48
f 39 41 43
f 42 44 51
f 42 43 44
f 46 60 47
f 44 47 52
f 48 51 50
f 48 50 58
f 36 48 49
f 48 58 49
f 46 49 57
f 49 58 57
f 42 51 48
f 50 51 53
f 44 52 51
f 51 52 53
f 46 57 60
f 47 60 52
f 67 72 85
f 67 85 109
f 72 80 85
f 68 69 74
f 68 75 73
f 68 74 75
f 67 109 69
f 69 109 74
f 74 76 75
f 74 109 110
f 74 165 76
f 74 110 165
f 80 81 85
f 81 132 85
f 79 81 80
f 79 84 81
f 81 84 132
f 76 165 83
f 79 82 84
f 84 133 132
f 84 165 133
f 82 83 84
f 83 165 84
f 178 179 181
f 178 180 179
f 181 179 183
f 178 181 199
f 181 182 199
f 178 199 201
f 178 201 340
f 182 193 199
f 178 340 180
f 180 340 187
f 186 187 188
f 186 188 189
f 188 190 189
f 188 191 190
f 187 340 188
f 188 340 191
f 191 340 197
f 193 489 199
f 192 194 193
f 192 198 194
f 193 194 489
f 194 198 489
f 197 340 523
f 192 196 198
f 198 555 489
f 196 197 198
f 197 555 198
f 197 523 555
f 21 28 22
f 21 27 28
f 21 22 24
f 22 25 24
f 22 28 25
f 24 25 29
f 25 28 31
f 25 31 29
f 27 29 31
f 27 31 28
f 50 53 55
f 53 56 55
f 52 56 53
f 52 54 56
f 57 58 59
f 57 59 60
f 59 61 60
f 52 60 54
f 60 61 54
f 50 55 58
f 55 62 58
f 55 63 62
f 58 62 59
f 59 62 61
f 55 56 63
f 62 63 61
f 87 89 86
f 87 88 90
f 88 91 93
f 87 90 89
f 88 93 90
f 89 90 102
f 90 93 105
f 91 92 94
f 91 94 93
f 93 94 106
f 87 86 95
f 87 96 88
f 87 95 96
f 88 97 91
f 88 96 97
f 91 97 98
f 96 95 123
f 96 124 97
f 97 125 98
f 91 98 92
f 92 99 94
f 92 98 99
f 94 100 106
f 94 99 100
f 98 126 99
f 99 127 100
f 100 128 116
f 89 110 86
f 89 102 101
f 89 101 110
f 90 105 102
f 101 102 104
f 102 105 107
f 101 104 103
f 101 103 110
f 102 107 104
f 93 106 105
f 105 106 108
f 105 108 107
f 103 112 110
f 103 113 112
f 111 110 112
f 103 104 113
f 104 107 114
f 104 114 113
f 107 108 115
f 107 115 114
f 106 116 108
f 106 100 116
f 108 116 117
f 116 142 117
f 111 112 119
f 111 119 118
f 112 120 119
f 112 113 120
f 113 114 121
f 113 121 120
f 118 119 145
f 118 145 144
f 119 146 145
f 119 120 146
f 120 121 150
f 120 150 146
f 108 117 115
f 114 115 122
f 115 117 122
f 114 122 121
f 121 122 151
f 117 143 122
f 121 151 150
f 96 123 124
f 97 124 125
f 98 125 126
f 124 123 129
f 124 130 125
f 124 129 130
f 125 131 126
f 125 130 131
f 126 131 137
f 99 126 127
f 100 127 128
f 126 137 127
f 127 137 138
f 127 138 128
f 128 138 139
f 130 129 133
f 130 135 131
f 131 136 137
f 130 133 134
f 130 134 135
f 131 135 136
f 136 140 137
f 134 154 135
f 135 155 136
f 135 154 155
f 136 156 140
f 155 156 136
f 156 161 140
f 137 140 138
f 138 141 139
f 138 140 141
f 139 141 162
f 140 161 141
f 141 161 162
f 116 128 142
f 117 142 143
f 128 139 142
f 142 139 160
f 142 160 143
f 143 160 172
f 144 145 148
f 145 146 149
f 146 150 152
f 144 148 147
f 145 149 148
f 146 152 149
f 122 143 151
f 150 151 153
f 143 172 151
f 151 172 153
f 150 153 152
f 154 157 155
f 155 158 156
f 155 157 158
f 156 159 161
f 156 158 159
f 159 163 161
f 157 166 158
f 158 166 167
f 158 167 159
f 159 167 168
f 159 168 163
f 163 168 173
f 139 162 160
f 160 164 172
f 160 162 164
f 161 163 162
f 162 163 164
f 164 174 172
f 163 173 164
f 164 173 174
f 147 148 170
f 147 170 169
f 148 171 170
f 148 149 171
f 149 152 175
f 149 175 171
f 169 167 166
f 169 170 167
f 170 168 167
f 170 171 168
f 171 173 168
f 171 175 173
f 172 174 153
f 152 153 176
f 152 176 175
f 153 174 176
f 175 174 173
f 175 176 174
f 200 201 202
f 200 202 203
f 202 205 203
f 200 203 210
f 200 210 212
f 202 204 205
f 203 205 207
f 204 206 205
f 204 228 206
f 205 206 208
f 203 207 213
f 205 208 207
f 207 208 209
f 200 212 211
f 203 213 210
f 210 323 212
f 207 214 213
f 207 209 214
f 210 213 321
f 213 214 322
f 206 228 230
f 228 229 230
f 206 230 233
f 229 231 230
f 230 231 234
f 229 253 231
f 231 253 232
f 206 233 208
f 208 236 209
f 208 233 236
f 209 236 243
f 230 234 233
f 231 235 234
f 233 237 236
f 234 238 237
f 235 239 238
f 233 234 237
f 234 235 238
f 236 237 244
f 237 238 245
f 238 239 246
f 236 244 243
f 237 245 244
f 238 246 245
f 239 247 246
f 231 232 235
f 235 240 239
f 235 232 240
f 239 241 247
f 247 241 248
f 239 240 241
f 209 243 249
f 209 249 214
f 202 201 250
f 202 251 204
f 202 250 251
f 204 252 228
f 204 251 252
f 228 252 260
f 251 250 469
f 251 470 252
f 251 469 470
f 252 471 260
f 252 470 471
f 260 471 475
f 228 260 229
f 253 254 232
f 229 262 253
f 232 254 256
f 253 275 254
f 254 261 256
f 232 256 240
f 240 256 257
f 240 257 241
f 248 241 255
f 248 255 268
f 257 255 241
f 268 255 259
f 256 261 263
f 256 263 257
f 257 258 255
f 268 259 269
f 258 259 255
f 257 263 258
f 269 259 265
f 229 260 262
f 253 262 275
f 254 276 261
f 254 275 276
f 261 267 263
f 258 263 266
f 258 264 259
f 264 265 259
f 258 266 264
f 263 267 266
f 269 265 270
f 264 273 265
f 270 265 376
f 264 266 272
f 267 274 266
f 272 266 274
f 270 376 271
f 264 272 273
f 265 273 376
f 260 475 262
f 262 476 275
f 261 278 267
f 261 276 278
f 267 278 277
f 262 475 476
f 275 477 276
f 275 476 477
f 276 480 278
f 211 212 320
f 211 320 319
f 212 324 320
f 210 321 323
f 213 322 321
f 212 323 324
f 321 322 325
f 321 326 323
f 319 320 337
f 319 337 336
f 320 338 337
f 320 324 338
f 321 325 326
f 323 327 324
f 323 326 327
f 324 327 348
f 324 348 338
f 214 249 333
f 214 333 322
f 322 333 335
f 322 335 325
f 325 356 326
f 325 335 349
f 336 337 341
f 337 338 342
f 338 348 373
f 336 341 339
f 337 342 341
f 339 341 386
f 338 373 342
f 341 342 387
f 342 373 404
f 326 364 327
f 325 349 356
f 326 356 364
f 349 350 356
f 350 351 357
f 351 352 358
f 352 353 359
f 353 354 359
f 327 368 348
f 327 364 368
f 350 357 356
f 351 358 357
f 352 359 358
f 359 354 360
f 356 357 364
f 357 358 365
f 358 359 366
f 359 360 366
f 357 365 364
f 358 366 365
f 366 360 367
f 354 355 360
f 360 355 361
f 360 361 367
f 361 371 367
f 348 368 374
f 348 374 373
f 364 365 368
f 365 366 369
f 366 367 369
f 365 369 368
f 369 367 370
f 368 369 374
f 369 370 374
f 374 370 372
f 367 371 370
f 371 400 370
f 370 400 372
f 372 400 401
f 373 374 405
f 374 372 405
f 273 272 378
f 271 376 377
f 376 273 381
f 272 274 379
f 271 377 375
f 376 381 377
f 273 378 381
f 272 379 378
f 375 382 380
f 380 382 395
f 375 377 382
f 378 379 384
f 377 381 383
f 377 383 382
f 381 378 396
f 381 396 383
f 378 384 396
f 339 386 385
f 341 387 386
f 385 386 389
f 342 404 387
f 386 387 390
f 387 404 410
f 385 389 388
f 386 390 389
f 387 410 390
f 380 395 392
f 382 397 395
f 361 355 391
f 361 391 393
f 361 393 371
f 371 393 394
f 391 392 393
f 393 392 395
f 393 395 394
f 395 397 394
f 394 397 402
f 402 397 398
f 382 383 397
f 383 396 398
f 383 398 397
f 396 384 399
f 396 399 398
f 403 398 399
f 371 394 400
f 400 394 402
f 400 402 401
f 401 402 403
f 402 398 403
f 372 401 406
f 373 405 404
f 372 406 405
f 401 403 407
f 401 407 406
f 403 399 409
f 404 405 411
f 403 409 407
f 399 408 409
f 406 407 412
f 404 411 410
f 405 406 411
f 408 528 409
f 407 409 529
f 408 527 528
f 407 529 412
f 409 528 529
f 406 412 411
f 470 469 472
f 470 473 471
f 470 472 473
f 471 474 475
f 471 473 474
f 474 481 475
f 473 472 487
f 473 488 474
f 474 490 481
f 475 481 476
f 277 278 479
f 276 477 480
f 278 480 479
f 277 479 478
f 476 481 482
f 476 482 477
f 477 486 480
f 479 483 478
f 479 480 484
f 477 482 486
f 480 486 484
f 479 484 483
f 478 483 485
f 481 493 482
f 484 498 483
f 485 483 494
f 482 497 486
f 484 486 496
f 485 494 495
f 483 498 494
f 473 487 488
f 474 488 490
f 481 490 493
f 488 487 491
f 488 491 490
f 491 487 546
f 490 492 493
f 490 491 492
f 492 499 493
f 482 493 497
f 484 496 498
f 486 497 496
f 493 499 497
f 494 498 500
f 494 548 495
f 498 496 501
f 496 497 502
f 496 502 501
f 497 503 502
f 497 499 503
f 494 500 548
f 498 501 500
f 518 500 519
f 534 519 549
f 518 519 535
f 535 519 534
f 534 549 536
f 551 537 536
f 388 389 521
f 388 521 520
f 389 522 521
f 389 390 522
f 390 410 532
f 390 532 522
f 520 521 525
f 524 553 523
f 525 554 553
f 520 525 524
f 524 525 553
f 521 526 525
f 521 522 526
f 522 532 542
f 526 556 554
f 525 526 554
f 522 542 526
f 526 542 556
f 527 531 528
f 410 411 533
f 410 533 532
f 411 412 533
f 412 529 539
f 527 530 531
f 528 538 529
f 528 531 538
f 412 539 533
f 529 538 539
f 535 534 540
f 534 536 541
f 534 541 540
f 543 536 537
f 544 537 557
f 530 541 531
f 530 540 541
f 531 541 543
f 532 533 545
f 533 539 545
f 531 543 538
f 538 544 539
f 542 557 556
f 541 536 543
f 543 537 544
f 544 557 545
f 532 545 542
f 542 545 557
f 538 543 544
f 539 544 545
f 491 546 492
f 546 487 553
f 492 547 499
f 492 546 547
f 499 547 550
f 553 487 523
f 546 553 547
f 547 554 550
f 499 550 503
f 501 502 549
f 518 548 500
f 500 501 519
f 502 503 551
f 503 550 552
f 501 549 519
f 502 551 549
f 503 552 551
f 549 551 536
f 550 556 552
f 551 552 537
f 547 553 554
f 554 556 550
f 552 556 557
f 552 557 537
f 215 216 54
f 215 54 222
f 222 54 328
f 220 56 54
f 328 54 330
f 330 54 61
f 330 61 343
f 343 61 345
f 345 61 419
f 286 63 56
f 419 61 429
f 429 61 63
f 429 63 430
f 215 218 216
f 215 217 218
f 216 218 219
f 217 225 218
f 218 226 219
f 217 224 225
f 218 225 226
f 219 226 227
f 216 220 54
f 216 221 220
f 216 219 221
f 219 280 221
f 215 222 217
f 222 223 217
f 217 223 224
f 223 242 224
f 224 244 225
f 225 245 226
f 226 246 227
f 219 227 280
f 224 242 243
f 242 249 243
f 224 243 244
f 225 244 245
f 226 245 246
f 227 246 247
f 227 282 280
f 227 247 282
f 247 248 282
f 248 295 282
f 248 268 295
f 268 269 296
f 269 270 297
f 268 296 295
f 269 297 296
f 270 298 297
f 270 271 298
f 220 221 281
f 220 281 279
f 220 279 56
f 279 281 287
f 221 280 283
f 221 283 281
f 280 282 300
f 280 300 283
f 281 283 289
f 279 284 56
f 279 287 284
f 284 285 56
f 284 287 288
f 284 288 285
f 285 286 56
f 285 288 290
f 285 290 286
f 281 289 287
f 287 291 288
f 283 309 289
f 288 292 290
f 287 289 291
f 288 291 292
f 282 295 300
f 295 296 301
f 296 297 302
f 295 301 300
f 296 302 301
f 297 303 302
f 297 298 303
f 283 300 309
f 300 301 309
f 301 302 310
f 302 303 311
f 301 310 309
f 302 311 310
f 289 309 313
f 309 310 313
f 289 313 291
f 291 313 314
f 291 314 292
f 310 314 313
f 310 311 314
f 222 328 223
f 223 328 329
f 328 330 329
f 223 329 242
f 242 329 332
f 329 331 332
f 330 331 329
f 330 343 331
f 331 334 332
f 331 344 334
f 242 332 249
f 249 332 333
f 332 334 333
f 334 335 333
f 334 347 335
f 331 343 344
f 343 345 344
f 344 347 334
f 344 346 347
f 344 345 346
f 346 362 347
f 347 362 349
f 335 347 349
f 350 362 363
f 349 362 350
f 350 363 351
f 351 423 352
f 352 424 353
f 351 363 423
f 352 423 424
f 353 424 425
f 353 425 354
f 354 426 355
f 354 425 426
f 271 375 436
f 271 436 298
f 375 380 440
f 375 440 436
f 380 455 440
f 355 454 391
f 380 392 455
f 391 455 392
f 355 426 454
f 391 454 455
f 286 413 63
f 286 415 413
f 286 290 415
f 413 415 417
f 413 414 63
f 413 417 414
f 414 417 434
f 290 416 415
f 290 292 416
f 415 416 418
f 415 418 417
f 417 418 435
f 416 450 418
f 345 419 346
f 346 419 420
f 346 420 362
f 362 420 363
f 363 421 423
f 422 424 423
f 363 420 421
f 421 422 423
f 422 427 424
f 419 429 420
f 420 429 421
f 421 430 422
f 422 431 427
f 424 427 425
f 425 428 426
f 427 428 425
f 427 433 428
f 421 429 430
f 422 430 431
f 430 432 431
f 414 432 63
f 430 63 432
f 414 434 432
f 432 434 431
f 427 431 433
f 433 462 428
f 431 434 433
f 417 435 434
f 433 434 435
f 433 435 462
f 435 418 465
f 298 436 438
f 298 438 303
f 303 438 444
f 436 440 442
f 436 442 438
f 440 458 442
f 438 442 448
f 303 444 311
f 311 444 446
f 292 446 416
f 292 314 446
f 311 446 314
f 438 448 444
f 442 463 448
f 444 448 450
f 416 446 450
f 444 450 446
f 418 450 465
f 448 465 450
f 426 457 454
f 440 455 458
f 454 458 455
f 426 428 457
f 454 457 458
f 428 462 457
f 442 458 463
f 457 463 458
f 457 462 463
f 448 463 465
f 462 465 463
f 435 465 462
f 267 293 299
f 267 299 274
f 267 277 305
f 267 305 293
f 277 504 305
f 293 294 304
f 293 304 299
f 294 312 304
f 293 305 306
f 293 306 294
f 305 505 306
f 294 306 316
f 294 307 312
f 307 308 315
f 307 315 312
f 294 316 307
f 306 508 316
f 307 316 317
f 307 317 308
f 308 317 315
f 316 509 317
f 317 318 315
f 317 509 318
f 274 437 379
f 274 299 437
f 379 437 441
f 384 379 441
f 384 441 456
f 384 456 399
f 399 456 408
f 408 456 460
f 408 460 527
f 460 564 527
f 299 439 437
f 299 304 439
f 304 445 439
f 443 437 439
f 441 437 443
f 443 439 449
f 304 312 445
f 312 447 445
f 312 315 447
f 439 445 449
f 451 445 447
f 449 445 451
f 315 318 447
f 318 452 447
f 318 510 452
f 451 447 452
f 451 452 453
f 452 560 453
f 441 443 459
f 441 459 456
f 443 464 459
f 456 459 460
f 459 464 461
f 459 461 460
f 460 461 564
f 461 566 564
f 461 467 566
f 443 449 464
f 449 451 466
f 451 453 466
f 449 466 464
f 464 466 467
f 466 453 468
f 453 572 468
f 468 572 575
f 461 464 467
f 467 573 566
f 466 468 467
f 467 468 573
f 468 575 573
f 277 478 504
f 478 506 504
f 478 485 506
f 485 495 514
f 485 514 506
f 495 582 514
f 495 548 582
f 305 504 505
f 504 507 505
f 306 505 508
f 504 506 507
f 506 514 515
f 506 515 507
f 505 507 511
f 507 515 516
f 505 511 508
f 316 508 509
f 508 512 509
f 318 509 510
f 509 512 510
f 510 512 513
f 507 516 511
f 508 511 512
f 511 516 517
f 511 517 512
f 512 517 513
f 513 517 585
f 514 583 515
f 514 582 583
f 515 583 584
f 515 584 516
f 516 585 517
f 516 584 585
f 548 558 582
f 518 558 548
f 518 568 558
f 518 535 568
f 527 564 530
f 530 564 565
f 535 540 570
f 535 570 568
f 530 565 540
f 540 565 570
f 559 583 582
f 558 559 582
f 559 561 583
f 558 569 559
f 558 568 569
f 559 569 577
f 452 510 560
f 510 513 560
f 513 562 560
f 453 560 572
f 572 560 562
f 572 562 578
f 561 584 583
f 513 585 562
f 563 585 584
f 561 563 584
f 562 585 563
f 559 577 561
f 562 563 578
f 561 579 563
f 561 577 579
f 578 563 579
f 564 566 565
f 566 567 565
f 566 573 567
f 568 570 571
f 568 571 569
f 569 571 580
f 565 567 570
f 570 567 571
f 567 574 571
f 572 578 575
f 575 578 576
f 567 573 574
f 573 575 574
f 575 576 574
f 569 580 577
f 578 579 576
f 579 581 576
f 577 580 581
f 577 581 579
f 571 574 580
f 574 576 580
f 580 576 581
f 85 86 110
f 85 95 86
f 85 132 95
f 85 110 109
f 132 123 95
f 132 129 123
f 132 133 129
f 199 250 201
f 199 489 250
f 489 469 250
f 489 472 469
f 489 487 472
f 489 555 487
f 555 523 487
f 111 165 110
f 111 118 165
f 134 133 154
f 118 144 165
f 144 147 165
f 154 133 157
f 157 133 166
f 166 133 165
f 147 169 165
f 169 166 165
f 200 340 201
f 200 211 340
f 211 319 340
f 319 336 340
f 336 339 340
f 339 385 340
f 385 523 340
f 385 388 523
f 388 520 523
f 520 524 523
