# MAAS exact compiled indexed mesh
# program_hash d333be6e81a7db5f3ed0e87e5600fc7512392955bdbe546173e7de8a5e56a6dc
# geometry_hash 01592f8a1e0eaea9542318fa4b25d3bab4ba18792e895545c1802eae545812bd
v -26.94476938 -19.96976383 0
v -26.94476938 -17.31577836 0
v -26.94476938 -19.96976383 3.54982897
v -26.94476938 -17.31577836 3.54982897
v -26.94476938 -14.66179289 0
v -26.94476938 -12.00780743 0
v -26.94476938 -14.66179289 3.54982897
v -26.94476938 -12.00780743 3.54982897
v -13.56906045 -18.44579429 0
v -14.16607728 -15.8598303 0
v -13.56906045 -18.44579429 3.54982897
v -14.76309411 -13.27386631 0
v -15.36011094 -10.68790232 0
v -26.94476938 -19.96976383 7.09965794
v -26.94476938 -17.31577836 7.09965794
v -26.94476938 -14.66179289 7.09965794
v -26.94476938 -12.00780743 7.09965794
v -13.56906045 -18.44579429 7.09965794
v -26.94476938 -9.35382196 0
v -26.94476938 -6.69983649 0
v -26.94476938 -9.35382196 3.54982897
v -26.94476938 -6.69983649 3.54982897
v -15.95712777 -8.10193833 0
v -16.5541446 -5.51597433 0
v -16.5541446 -5.51597433 3.54982897
v -26.94476938 -9.35382196 7.09965794
v -26.94476938 -6.69983649 7.09965794
v -16.5541446 -5.51597433 7.09965794
v -0.87898862 -13.95200417 0
v -2.04241928 -11.56661784 0
v -0.87898862 -13.95200417 3.54982897
v -0.87898862 -13.95200417 7.09965794
v -4.36928058 -6.79584516 0
v -3.20584993 -9.1812315 0
v -5.53271124 -4.41045882 0
v -6.69614189 -2.02507249 0
v -6.69614189 -2.02507249 3.54982897
v -6.69614189 -2.02507249 7.09965794
v -26.94476938 -19.96976383 10.64948691
v -13.56906045 -18.44579429 10.64948691
v -13.56906045 -18.44579429 12.63193704
v -26.94476938 -6.69983649 10.64948691
v -16.5541446 -5.51597433 10.64948691
v -16.5541446 -5.51597433 12.18950962
v -0.87898862 -13.95200417 10.64948691
v -0.87898862 -13.95200417 14.19931589
v -0.87898862 -13.95200417 14.51276703
v -6.69614189 -2.02507249 10.64948691
v -6.69614189 -2.02507249 13.65059095
v 5.46433314 -0.5311423 0
v 10.47495466 -6.71874457 0
v 10.47495466 -6.71874457 3.54982897
v 7.13454031 -2.59367639 0
v 8.80474749 -4.65621048 0
v 10.47495466 -6.71874457 7.09965794
v 10.47495466 -6.71874457 10.64948691
v 10.47495466 -6.71874457 14.19931589
v 10.47495466 -6.71874457 16.19556578
v 2.1239188 3.59392587 0
v 3.79412597 1.53139179 0
v 2.1239188 3.59392587 3.54982897
v 11.54529138 9.41903501 0
v 2.1239188 3.59392587 7.09965794
v 9.45392229 11.05299162 0
v 9.45392229 11.05299162 3.54982897
v 9.45392229 11.05299162 7.09965794
v 17.81939865 4.51716519 0
v 19.91076773 2.88320858 0
v 19.91076773 2.88320858 3.54982897
v 15.72802956 6.1511218 0
v 13.63666047 7.7850784 0
v 19.91076773 2.88320858 7.09965794
v 14.91813357 19.96977401 0
v 17.32346127 18.84815129 0
v 19.72878896 17.72652856 0
v 14.91813357 19.96977401 3.54982897
v 17.32346127 18.84815129 3.54982897
v 19.72878896 17.72652856 3.54982897
v 26.94477205 14.36166039 0
v 26.94477205 14.36166039 3.54982897
v 22.13411666 16.60490584 0
v 24.53944435 15.48328311 0
v 22.13411666 16.60490584 3.54982897
v 24.53944435 15.48328311 3.54982897
v 14.91813357 19.96977401 7.09965794
v 17.32346127 18.84815129 7.09965794
v 19.72878896 17.72652856 7.09965794
v 26.94477205 14.36166039 7.09965794
v 22.13411666 16.60490584 7.09965794
v 24.53944435 15.48328311 7.09965794
v 2.1239188 3.59392587 10.64948691
v 2.1239188 3.59392587 14.19931589
v 2.1239188 3.59392587 14.95783609
v 9.45392229 11.05299162 10.64948691
v 9.45392229 11.05299162 14.19931589
v 9.45392229 11.05299162 16.0442358
v 19.91076773 2.88320858 10.64948691
v 19.91076773 2.88320858 14.19931589
v 19.91076773 2.88320858 17.59407324
v 20.95704514 4.59057813 17.74914486
v 14.91813357 19.96977401 10.64948691
v 17.32346127 18.84815129 10.64948691
v 19.72878896 17.72652856 10.64948691
v 26.94477205 14.36166039 10.64948691
v 22.13411666 16.60490584 10.64948691
v 24.53944435 15.48328311 10.64948691
v 14.91813357 19.96977401 14.19931589
v 17.32346127 18.84815129 14.19931589
v 19.72878896 17.72652856 14.19931589
v 14.91813357 19.96977401 16.85410138
v 26.94477205 14.36166039 14.19931589
v 26.94477205 14.36166039 17.74914486
v 22.13411666 16.60490584 14.19931589
v 24.53944435 15.48328311 14.19931589
v 20.95704514 17.1537833 17.74914486
v 22.13411666 16.60490584 17.74914486
v 24.53944435 15.48328311 17.74914486
f 1 4 2
f 2 7 5
f 1 2 9
f 1 9 3
f 2 5 10
f 1 3 4
f 2 4 7
f 5 8 6
f 6 21 19
f 5 6 12
f 6 19 13
f 5 7 8
f 6 8 21
f 2 10 9
f 3 9 11
f 5 12 10
f 6 13 12
f 3 15 4
f 3 14 15
f 4 16 7
f 4 15 16
f 3 11 14
f 14 18 39
f 7 17 8
f 7 16 17
f 8 26 21
f 8 17 26
f 14 42 15
f 15 42 16
f 16 42 17
f 11 18 14
f 19 22 20
f 19 20 23
f 19 21 22
f 20 22 25
f 13 19 23
f 20 24 23
f 20 25 24
f 21 27 22
f 21 26 27
f 22 27 28
f 17 42 26
f 26 42 27
f 22 28 25
f 27 43 28
f 9 10 29
f 9 29 11
f 10 12 30
f 12 13 34
f 11 29 31
f 10 30 29
f 12 34 30
f 11 31 18
f 18 32 40
f 18 31 32
f 13 23 33
f 23 24 35
f 13 33 34
f 23 35 33
f 24 36 35
f 24 37 36
f 24 25 37
f 33 53 34
f 33 35 50
f 35 36 60
f 36 37 61
f 25 28 38
f 25 38 37
f 28 48 38
f 37 38 63
f 14 39 42
f 18 40 39
f 40 41 39
f 27 42 43
f 43 42 44
f 40 45 41
f 32 45 40
f 45 46 41
f 46 47 41
f 28 43 48
f 43 44 49
f 43 49 48
f 38 48 91
f 48 49 93
f 36 59 60
f 36 61 59
f 37 63 61
f 38 91 63
f 48 92 91
f 48 93 92
f 29 30 51
f 29 51 31
f 31 52 32
f 32 55 45
f 30 34 54
f 30 54 51
f 34 53 54
f 31 51 52
f 33 50 53
f 35 60 50
f 51 54 68
f 53 67 54
f 32 52 55
f 51 68 52
f 52 68 69
f 52 69 55
f 55 69 72
f 55 72 56
f 45 56 46
f 46 57 47
f 45 55 56
f 46 56 57
f 57 58 47
f 56 72 97
f 56 97 57
f 57 97 98
f 57 98 58
f 98 99 58
f 59 62 60
f 59 61 65
f 50 70 53
f 50 60 71
f 50 71 70
f 60 62 71
f 59 64 62
f 59 65 64
f 61 63 66
f 61 66 65
f 63 94 66
f 62 64 74
f 64 65 76
f 64 76 73
f 65 66 85
f 65 85 76
f 66 101 85
f 54 67 68
f 53 70 67
f 67 70 82
f 67 79 68
f 68 79 69
f 69 80 72
f 72 88 97
f 62 75 71
f 70 71 81
f 71 75 81
f 64 73 74
f 62 74 75
f 73 77 74
f 74 78 75
f 73 76 77
f 74 77 78
f 67 82 79
f 70 81 82
f 79 82 80
f 69 79 80
f 75 83 81
f 81 84 82
f 75 78 83
f 81 83 84
f 80 82 84
f 76 86 77
f 76 85 86
f 77 87 78
f 77 86 87
f 85 102 86
f 86 103 87
f 72 80 88
f 80 84 88
f 88 90 104
f 78 89 83
f 78 87 89
f 83 89 90
f 83 90 84
f 84 90 88
f 87 105 89
f 89 106 90
f 63 91 94
f 91 92 95
f 91 95 94
f 92 93 96
f 92 96 95
f 66 94 101
f 94 95 107
f 94 107 101
f 95 96 110
f 95 110 107
f 97 104 98
f 98 111 99
f 111 100 99
f 85 101 102
f 86 102 103
f 101 108 102
f 101 107 108
f 102 109 103
f 102 108 109
f 88 104 97
f 98 104 111
f 104 106 111
f 87 103 105
f 89 105 106
f 90 106 104
f 103 113 105
f 103 109 113
f 105 113 114
f 105 114 106
f 106 114 111
f 107 115 108
f 108 115 109
f 107 110 115
f 111 114 112
f 116 100 117
f 116 115 100
f 111 112 100
f 112 117 100
f 109 116 113
f 113 117 114
f 109 115 116
f 113 116 117
f 112 114 117
f 42 39 44
f 39 41 44
f 41 47 49
f 41 49 44
f 47 93 49
f 58 93 47
f 58 96 93
f 99 96 58
f 96 99 100
f 96 100 110
f 110 100 115
