# MAAS exact compiled indexed mesh
# program_hash 139af7df2108522a8344930d0c7270c091d4964cb9887fee68769f90f9811a24
# geometry_hash 66155c3143edbdd358e23de832c12da6ba29c6b21c9cb798013a288767db5e5c
v -14.72412664 -9.93825423 0.00406998
v -1.45435862 -9.93825423 0.00406998
v -1.45435862 -9.10129085 0.00406998
v -14.72412664 -9.93825423 11.4
v -1.45435862 -9.93825423 11.4
v -1.45435862 -9.10129085 10.4883256
v -0.10578113 -5.01786114 10.4883256
v -1.45435862 -3.29176066 10.4883256
v -14.72412664 9.28368746 0.00406998
v -1.45435862 2.63719389 0.00406998
v -1.45435862 4.29323468 0.00406998
v -0.10578113 4.36329438 0.00406998
v -1.45435862 8.44672408 0.00406998
v -1.45435862 9.28368746 0.00406998
v -14.72412664 9.28368746 11.4
v -1.45435862 8.44672408 10.4883256
v -1.45435862 9.28368746 11.4
v 6.9845488 -15.69448792 0.00406998
v 7.73435604 -0.32728338 0.00406998
v 14.72412147 -5.78828665 0.00406998
v 6.9845488 -15.69448792 10.4883256
v 1.61618956 -5.10731892 10.4883256
v 7.73435604 -0.32728338 10.4883256
v 14.72412147 -5.78828665 10.4883256
v 1.61618956 4.45275215 0.00406998
v 7.17367957 14.23948525 0
v 7.17367957 14.23948525 0.00406998
v 6.9845488 15.03992115 0.00406998
v 7.36205944 7.35631888 0.00406998
v 8.25854668 7.35499323 0
v 8.25854668 7.35631888 0.00406998
v 8.25854668 7.35499323 0.00406998
v 14.72412147 5.13371988 0.00406998
v 12.98896246 7.35499323 0
v 12.98867252 7.35499323 0.00406998
v 8.25854668 10.88339591 0.00406998
v 8.25854668 10.88339591 0
v 8.39682909 10.85124207 0
v 8.72252459 10.95652422 0.00406998
v 8.72252459 10.95652422 0
v 9.18650249 10.95652422 0.00406998
v 9.18650249 11.10650663 0.00406998
v 7.36205944 13.65672293 0.00406998
v 7.36205944 14.30037967 0.00406998
v 7.52195883 14.35206769 0.00406998
v 7.36205944 14.55672956 0.00406998
v 12.98896246 10.95652422 0
v 12.78213162 12.26880578 0
v 11.67477152 15.69447829 0
v 7.17367957 14.23948525 10.49239557
v 7.17367957 14.23948525 10.4883256
v 6.9845488 15.03992115 10.4883256
v 7.36205944 7.35631888 10.4883256
v 8.25854668 7.35499323 10.49239557
v 8.25854668 7.35499323 10.4883256
v 8.25854668 7.35631888 10.4883256
v 14.72412147 5.13371988 10.4883256
v 12.98896246 7.35499323 10.49239557
v 12.98867252 7.35499323 10.4883256
v 8.25854668 10.88339591 10.4883256
v 8.25854668 10.88339591 10.49239557
v 8.39682909 10.85124207 10.49239557
v 8.72252459 10.95652422 10.4883256
v 8.72252459 10.95652422 10.49239557
v 9.18650249 10.95652422 10.4883256
v 9.18650249 11.10650663 10.4883256
v 7.36205944 13.65672293 10.4883256
v 7.36205944 14.30037967 10.4883256
v 7.52195883 14.35206769 10.4883256
v 7.36205944 14.55672956 10.4883256
v 12.98896246 10.95652422 10.49239557
v 12.78213162 12.26880578 10.49239557
v 11.67477152 15.69447829 10.49239557
f 10 11 12
f 11 13 12
f 12 13 28
f 12 28 25
f 25 28 29
f 29 27 43
f 28 27 29
f 27 46 44
f 28 46 27
f 13 16 28
f 28 52 46
f 25 33 19
f 25 29 33
f 29 31 32
f 33 29 32
f 33 32 35
f 19 33 57
f 33 35 59
f 7 52 8
f 7 22 52
f 8 52 16
f 22 23 52
f 52 23 53
f 16 52 28
f 52 70 46
f 53 67 51
f 52 53 51
f 70 51 68
f 52 51 70
f 19 57 23
f 33 59 57
f 23 55 53
f 53 55 56
f 23 57 55
f 57 59 55
f 6 7 8
f 3 18 21
f 3 10 18
f 10 12 18
f 12 25 18
f 18 25 19
f 18 20 21
f 18 19 20
f 20 19 24
f 3 21 6
f 6 21 7
f 7 21 22
f 20 24 21
f 21 24 22
f 24 19 23
f 22 24 23
f 1 9 2
f 1 2 5
f 2 9 3
f 1 5 4
f 1 4 15
f 4 5 17
f 1 15 9
f 9 15 14
f 3 9 10
f 9 11 10
f 9 13 11
f 9 14 13
f 4 17 15
f 14 15 17
f 29 43 31
f 36 31 43
f 39 42 41
f 45 44 46
f 45 46 70
f 45 70 69
f 60 53 56
f 60 67 53
f 63 65 66
f 69 70 68
f 2 3 5
f 3 6 5
f 5 6 17
f 6 8 17
f 13 14 16
f 8 16 17
f 14 17 16
f 26 43 27
f 26 27 44
f 39 40 42
f 40 48 42
f 36 43 37
f 37 26 38
f 38 26 40
f 37 43 26
f 26 44 49
f 45 49 44
f 40 26 48
f 26 49 48
f 45 73 49
f 48 72 42
f 48 49 72
f 50 51 67
f 50 68 51
f 66 42 72
f 45 69 73
f 49 73 72
f 63 72 64
f 63 66 72
f 60 61 67
f 61 62 50
f 62 64 50
f 61 50 67
f 50 73 68
f 69 68 73
f 64 72 50
f 50 72 73
f 41 42 66
f 41 66 65
f 30 32 31
f 30 35 32
f 30 34 35
f 34 58 35
f 30 31 37
f 36 37 31
f 30 37 38
f 30 38 34
f 38 40 47
f 39 47 40
f 39 41 47
f 38 47 34
f 41 71 47
f 34 47 58
f 58 59 35
f 54 56 55
f 54 55 58
f 58 55 59
f 41 65 71
f 47 71 58
f 54 60 56
f 54 61 60
f 54 62 61
f 63 64 65
f 54 58 62
f 62 58 64
f 64 71 65
f 64 58 71
