# MAAS exact compiled indexed mesh
# program_hash ca1ca85cc291254fdeab4f76475f880b7e46a980206a48ea996e3990a1ef996e
# geometry_hash 057e30d41ae48580089f9aeff610e36d324c610ea9c45cac79f77c25d86daa99
v -13.91655221 -13.28398166 0
v -14.54912277 -9.48855833 3.57165354
v -13.91655221 -9.48855833 3.57165354
v -13.91655221 -13.28398166 3.68503937
v -13.91655221 -9.48855833 3.68503937
v -5.06056444 -13.28398166 0
v -5.06056444 -9.48855833 3.57165354
v -4.42799389 -9.48855833 3.57165354
v -5.06056444 -13.28398166 3.68503937
v -5.06056444 -9.48855833 3.68503937
v -4.42799389 -8.47644544 7.14330709
v -14.54912277 -9.48855833 7.25669291
v -12.6514111 -8.47644544 7.25669291
v -12.6514111 -8.47644544 10.82834646
v -12.01884055 -5.06056444 10.82834646
v -12.01884055 -5.06056444 14.4
v -4.42799389 -9.48855833 7.25669291
v -4.42799389 -8.47644544 7.25669291
v -4.42799389 -8.47644544 10.82834646
v -5.06056444 -5.06056444 10.82834646
v -5.06056444 -5.06056444 14.4
v -14.54912277 5.693135 3.57165354
v -13.91655221 5.693135 3.57165354
v -13.91655221 5.693135 3.68503937
v -7.59084666 5.693135 7.14330709
v -13.91655221 13.28398166 0
v -13.91655221 13.28398166 3.68503937
v -7.59084666 12.6514111 7.14330709
v -5.06056444 5.06056444 0
v -5.06056444 5.06056444 3.57165354
v -4.42799389 5.06056444 3.57165354
v -4.42799389 2.277254 7.14330709
v -5.06056444 5.693135 3.68503937
v -4.42799389 5.06056444 3.68503937
v -4.42799389 5.693135 3.68503937
v -4.42799389 5.693135 7.14330709
v -6.95827611 13.28398166 0
v -5.06056444 12.21136202 0
v -6.95827611 13.28398166 3.68503937
v -5.06056444 12.21136202 3.68503937
v -12.6514111 2.277254 7.25669291
v -14.54912277 5.693135 7.25669291
v -7.59084666 5.693135 7.25669291
v -12.6514111 2.277254 10.82834646
v -12.01884055 1.89771167 10.82834646
v -12.01884055 1.89771167 14.4
v -7.59084666 5.693135 10.82834646
v -7.59084666 12.6514111 10.82834646
v -4.42799389 2.277254 7.25669291
v -4.42799389 5.693135 7.25669291
v -5.06056444 1.89771167 10.82834646
v -4.42799389 2.277254 10.82834646
v -5.06056444 1.89771167 14.4
v 4.42799389 -11.38626999 0
v 4.42799389 -11.38626999 3.68503937
v 3.79542333 -1.89771167 3.57165354
v 4.42799389 -1.89771167 3.57165354
v 4.42799389 -1.89771167 3.68503937
v 13.91655221 -11.38626999 0
v 13.91655221 -11.38626999 3.68503937
v 13.91655221 -1.89771167 3.57165354
v 14.54912277 -1.89771167 3.57165354
v 13.91655221 -1.89771167 3.68503937
v 3.79542333 -1.89771167 7.25669291
v 14.54912277 -1.89771167 7.25669291
v 4.42799389 5.06056444 0
v 3.79542333 5.06056444 3.57165354
v 4.42799389 5.06056444 3.57165354
v 3.79542333 5.06056444 3.68503937
v 3.79542333 5.693135 7.14330709
v 4.42799389 6.84826384 0
v 3.79542333 12.6514111 3.68503937
v 3.79542333 12.6514111 7.14330709
v 7.59084666 5.06056444 0
v 7.59084666 13.28398166 0
v 13.91655221 13.28398166 0
v 13.91655221 12.6514111 3.57165354
v 14.54912277 12.6514111 3.57165354
v 7.59084666 12.6514111 3.68503937
v 7.59084666 13.28398166 3.68503937
v 7.59084666 12.6514111 7.14330709
v 13.91655221 12.6514111 3.68503937
v 13.91655221 13.28398166 3.68503937
v 3.79542333 5.693135 7.25669291
v 7.59084666 5.693135 7.25669291
v 7.59084666 5.693135 10.82834646
v 7.59084666 12.6514111 7.25669291
v 14.54912277 12.6514111 7.25669291
v 7.59084666 12.6514111 10.82834646
f 1 6 4
f 1 4 3
f 4 6 9
f 4 5 3
f 4 9 5
f 5 9 10
f 1 26 6
f 1 3 23
f 6 7 9
f 9 7 10
f 6 29 7
f 1 23 27
f 1 27 26
f 6 26 29
f 26 27 37
f 26 37 29
f 27 39 37
f 23 24 27
f 24 33 27
f 27 33 39
f 7 29 30
f 29 37 38
f 33 40 39
f 54 55 66
f 54 66 74
f 55 57 66
f 55 58 57
f 54 59 55
f 55 59 60
f 55 60 58
f 54 74 59
f 59 76 60
f 58 60 63
f 60 61 63
f 57 68 66
f 66 71 74
f 59 74 76
f 60 76 61
f 74 75 76
f 75 80 76
f 61 76 77
f 76 80 83
f 76 83 77
f 79 82 80
f 80 82 83
f 77 83 82
f 29 66 30
f 30 66 31
f 31 69 34
f 29 38 71
f 37 75 38
f 37 39 80
f 33 35 40
f 34 72 35
f 35 72 40
f 39 40 80
f 29 71 66
f 31 66 67
f 66 68 67
f 31 67 69
f 38 75 71
f 37 80 75
f 71 75 74
f 34 69 72
f 40 72 80
f 72 79 80
f 2 3 5
f 2 5 12
f 5 10 12
f 10 8 12
f 8 17 12
f 2 23 3
f 2 12 42
f 7 8 10
f 7 31 8
f 8 34 17
f 17 34 11
f 11 34 32
f 12 17 13
f 12 13 41
f 12 41 42
f 13 17 18
f 17 11 18
f 2 22 23
f 2 42 22
f 22 24 23
f 22 36 24
f 22 42 25
f 24 36 33
f 22 25 36
f 7 30 31
f 8 31 34
f 33 36 35
f 34 35 36
f 34 50 32
f 34 36 50
f 41 49 42
f 42 43 25
f 42 49 43
f 43 49 50
f 32 50 49
f 56 57 58
f 56 58 64
f 58 63 64
f 63 62 64
f 61 62 63
f 62 65 64
f 56 68 57
f 56 67 68
f 56 69 67
f 56 64 70
f 56 73 69
f 56 70 73
f 69 73 72
f 72 81 79
f 72 73 81
f 61 78 62
f 62 78 65
f 61 77 78
f 79 81 88
f 65 78 88
f 79 88 82
f 77 82 78
f 82 88 78
f 64 84 70
f 64 85 84
f 64 65 85
f 65 88 85
f 85 88 87
f 81 87 88
f 11 32 18
f 13 19 14
f 14 19 15
f 13 14 41
f 14 44 41
f 14 15 44
f 44 15 45
f 13 18 19
f 18 32 19
f 19 32 49
f 19 49 52
f 19 20 15
f 19 52 20
f 52 51 20
f 41 44 49
f 44 45 52
f 44 52 49
f 52 45 51
f 36 70 50
f 25 28 36
f 28 73 36
f 25 43 48
f 43 47 48
f 25 48 28
f 43 50 47
f 47 50 84
f 28 48 89
f 47 86 48
f 36 73 70
f 28 87 73
f 73 87 81
f 50 70 84
f 47 84 86
f 84 85 86
f 28 89 87
f 48 86 89
f 85 89 86
f 85 87 89
f 16 45 15
f 16 46 45
f 21 15 20
f 16 15 21
f 16 21 46
f 46 21 53
f 53 20 51
f 21 20 53
f 46 51 45
f 46 53 51
