# MAAS exact compiled indexed mesh
# program_hash 70ee045a0f240c47c8255a6af010772fd8cee63cb5bd36b7281eefd1d1cfbfe5
# geometry_hash 88e0060b7cb35db1350b4fdebbbfb9da9940ab41d10b0e4d755fed24daf33787
v -25.56440314 -18.94672342 0
v -25.56440314 -16.42870022 0
v -25.56440314 -18.94672342 3.54982897
v -25.56440314 -16.42870022 3.54982897
v -25.56440314 -13.91067702 0
v -25.56440314 -11.39265382 0
v -25.56440314 -13.91067702 3.54982897
v -25.56440314 -11.39265382 3.54982897
v -12.87392468 -17.50082603 0
v -13.44035665 -15.04733961 0
v -12.87392468 -17.50082603 3.54982897
v -14.00678863 -12.59385318 0
v -14.5732206 -10.14036675 0
v -25.56440314 -18.94672342 7.09965794
v -25.56440314 -16.42870022 7.09965794
v -25.56440314 -13.91067702 7.09965794
v -25.56440314 -11.39265382 7.09965794
v -12.87392468 -17.50082603 7.09965794
v -25.56440314 -8.87463062 0
v -25.56440314 -6.35660742 0
v -25.56440314 -8.87463062 3.54982897
v -25.56440314 -6.35660742 3.54982897
v -15.13965257 -7.68688032 0
v -15.70608455 -5.2333939 0
v -15.70608455 -5.2333939 3.54982897
v -25.56440314 -8.87463062 7.09965794
v -25.56440314 -6.35660742 7.09965794
v -15.70608455 -5.2333939 7.09965794
v -0.8339585 -13.2372504 0
v -1.93778722 -10.97406614 0
v -0.8339585 -13.2372504 3.54982897
v -0.8339585 -13.2372504 7.09965794
v -4.14544466 -6.44769762 0
v -3.04161594 -8.71088188 0
v -5.24927337 -4.18451336 0
v -6.35310209 -1.9213291 0
v -6.35310209 -1.9213291 3.54982897
v -6.35310209 -1.9213291 7.09965794
v -25.56440314 -18.94672342 10.64948691
v -25.56440314 -16.42870022 10.64948691
v -25.56440314 -18.94672342 11.27810246
v -25.56440314 -13.91067702 10.64948691
v -25.56440314 -11.39265382 10.64948691
v -12.87392468 -17.50082603 10.64948691
v -13.38041992 -17.55853388 11.27810246
v -12.87392468 -17.50082603 14.19931589
v -13.38041992 -17.55853388 17.74914486
v -12.87392468 -17.50082603 17.74914486
v -25.56440314 -8.87463062 10.64948691
v -25.56440314 -6.35660742 10.64948691
v -25.56440314 -6.35660742 11.27810246
v -15.70608455 -5.2333939 10.64948691
v -15.70608455 -5.2333939 11.27810246
v -13.38041992 -4.40983286 11.27810246
v -13.38041992 -4.40983286 17.74914486
v -0.8339585 -13.2372504 10.64948691
v -0.8339585 -13.2372504 14.19931589
v -0.8339585 -13.2372504 17.74914486
v -1.93778722 -10.97406614 17.74914486
v -6.35310209 -1.9213291 10.64948691
v -4.14544466 -6.44769762 17.74914486
v -3.04161594 -8.71088188 17.74914486
v -6.35310209 -1.9213291 14.19931589
v -5.24927337 -4.18451336 17.74914486
v -6.35310209 -1.9213291 17.74914486
v 5.18439825 -0.50393216 0
v 9.93832829 -6.37454684 0
v 9.93832829 -6.37454684 3.54982897
v 6.7690416 -2.46080372 0
v 8.35368494 -4.41767528 0
v 9.93832829 -6.37454684 7.09965794
v 9.93832829 -6.37454684 10.64948691
v 5.18439825 -0.50393216 17.74914486
v 9.93832829 -6.37454684 14.19931589
v 9.93832829 -6.37454684 17.74914486
v 6.7690416 -2.46080372 17.74914486
v 8.35368494 -4.41767528 17.74914486
v 2.01511156 3.40981096 0
v 3.59975491 1.4529394 0
v 2.01511156 3.40981096 3.54982897
v 10.95383223 8.93650284 0
v 2.01511156 3.40981096 7.09965794
v 8.96960287 10.48675272 0
v 8.96960287 10.48675272 3.54982897
v 8.96960287 10.48675272 7.09965794
v 16.9065203 4.28575321 0
v 18.89074966 2.73550333 0
v 18.89074966 2.73550333 3.54982897
v 14.92229094 5.83600309 0
v 12.93806159 7.38625297 0
v 18.89074966 2.73550333 7.09965794
v 14.1538855 18.94673308 0
v 16.43598953 17.88257049 0
v 18.71809357 16.81840791 0
v 14.1538855 18.94673308 3.54982897
v 16.43598953 17.88257049 3.54982897
v 18.71809357 16.81840791 3.54982897
v 25.56440567 13.62592014 0
v 25.56440567 13.62592014 3.54982897
v 21.0001976 15.75424532 0
v 23.28230163 14.69008273 0
v 21.0001976 15.75424532 3.54982897
v 23.28230163 14.69008273 3.54982897
v 14.1538855 18.94673308 7.09965794
v 16.43598953 17.88257049 7.09965794
v 18.71809357 16.81840791 7.09965794
v 25.56440567 13.62592014 7.09965794
v 21.0001976 15.75424532 7.09965794
v 23.28230163 14.69008273 7.09965794
v 2.01511156 3.40981096 10.64948691
v 2.01511156 3.40981096 14.19931589
v 2.01511156 3.40981096 17.74914486
v 3.59975491 1.4529394 17.74914486
v 10.95383223 8.93650284 17.74914486
v 8.96960287 10.48675272 10.64948691
v 8.96960287 10.48675272 14.19931589
v 8.96960287 10.48675272 17.74914486
v 18.89074966 2.73550333 10.64948691
v 18.89074966 2.73550333 14.19931589
v 16.9065203 4.28575321 17.74914486
v 18.89074966 2.73550333 17.74914486
v 14.92229094 5.83600309 17.74914486
v 12.93806159 7.38625297 17.74914486
v 14.1538855 18.94673308 10.64948691
v 16.43598953 17.88257049 10.64948691
v 18.71809357 16.81840791 10.64948691
v 25.56440567 13.62592014 10.64948691
v 21.0001976 15.75424532 10.64948691
v 23.28230163 14.69008273 10.64948691
v 14.1538855 18.94673308 14.19931589
v 16.43598953 17.88257049 14.19931589
v 18.71809357 16.81840791 14.19931589
v 14.1538855 18.94673308 17.74914486
v 16.43598953 17.88257049 17.74914486
v 18.71809357 16.81840791 17.74914486
v 25.56440567 13.62592014 14.19931589
v 25.56440567 13.62592014 17.74914486
v 21.0001976 15.75424532 14.19931589
v 23.28230163 14.69008273 14.19931589
v 21.0001976 15.75424532 17.74914486
v 23.28230163 14.69008273 17.74914486
f 1 4 2
f 2 7 5
f 1 2 9
f 1 9 3
f 2 5 10
f 1 3 4
f 2 4 7
f 5 8 6
f 6 21 19
f 5 6 12
f 6 19 13
f 5 7 8
f 6 8 21
f 2 10 9
f 3 9 11
f 5 12 10
f 6 13 12
f 3 15 4
f 3 14 15
f 4 16 7
f 4 15 16
f 3 11 14
f 14 40 15
f 15 42 16
f 14 18 39
f 7 17 8
f 7 16 17
f 8 26 21
f 8 17 26
f 16 43 17
f 17 49 26
f 11 18 14
f 19 22 20
f 19 20 23
f 19 21 22
f 20 22 25
f 13 19 23
f 20 24 23
f 20 25 24
f 21 27 22
f 21 26 27
f 22 27 28
f 26 50 27
f 22 28 25
f 27 52 28
f 9 10 29
f 9 29 11
f 10 12 30
f 12 13 34
f 11 29 31
f 10 30 29
f 12 34 30
f 11 31 18
f 18 32 44
f 18 31 32
f 13 23 33
f 23 24 35
f 13 33 34
f 23 35 33
f 24 36 35
f 24 37 36
f 24 25 37
f 33 69 34
f 33 35 66
f 35 36 79
f 36 37 80
f 25 28 38
f 25 38 37
f 28 60 38
f 37 38 82
f 14 39 40
f 15 40 42
f 39 41 51
f 39 44 41
f 16 42 43
f 39 51 40
f 40 51 42
f 17 43 49
f 42 51 43
f 18 44 39
f 44 45 41
f 44 46 45
f 46 48 45
f 48 47 45
f 26 49 50
f 43 51 49
f 49 51 50
f 27 50 52
f 50 51 53
f 50 53 52
f 52 53 54
f 44 56 46
f 32 56 44
f 46 56 57
f 46 57 48
f 48 58 47
f 61 47 62
f 48 57 58
f 58 59 47
f 59 62 47
f 28 52 60
f 52 54 60
f 60 54 55
f 38 60 110
f 60 63 111
f 65 55 47
f 64 65 47
f 61 64 47
f 60 55 63
f 63 55 65
f 61 62 76
f 63 65 112
f 61 73 64
f 64 113 65
f 36 78 79
f 36 80 78
f 37 82 80
f 38 110 82
f 60 111 110
f 63 112 111
f 65 113 112
f 29 30 67
f 29 67 31
f 31 68 32
f 32 71 56
f 30 34 70
f 30 70 67
f 34 69 70
f 31 67 68
f 33 66 69
f 35 79 66
f 67 70 87
f 69 86 70
f 32 68 71
f 67 87 68
f 68 87 88
f 68 88 71
f 71 88 91
f 71 91 72
f 56 72 57
f 57 74 58
f 58 75 59
f 56 71 72
f 57 72 74
f 59 77 62
f 58 74 75
f 59 75 77
f 62 77 76
f 61 76 73
f 64 73 113
f 75 121 77
f 76 77 120
f 72 91 118
f 72 118 74
f 74 118 119
f 74 119 75
f 75 119 121
f 78 81 79
f 78 80 84
f 66 89 69
f 66 79 90
f 66 90 89
f 79 81 90
f 78 83 81
f 78 84 83
f 80 82 85
f 80 85 84
f 82 115 85
f 81 83 93
f 83 84 95
f 83 95 92
f 84 85 104
f 84 104 95
f 85 124 104
f 70 86 87
f 69 89 86
f 86 89 101
f 86 98 87
f 87 98 88
f 88 99 91
f 91 107 118
f 81 94 90
f 89 90 100
f 90 94 100
f 83 92 93
f 81 93 94
f 92 96 93
f 93 97 94
f 92 95 96
f 93 96 97
f 86 101 98
f 89 100 101
f 98 101 99
f 88 98 99
f 94 102 100
f 100 103 101
f 94 97 102
f 100 102 103
f 99 101 103
f 95 105 96
f 95 104 105
f 96 106 97
f 96 105 106
f 104 125 105
f 105 126 106
f 91 99 107
f 99 103 107
f 107 109 127
f 97 108 102
f 97 106 108
f 102 108 109
f 102 109 103
f 103 109 107
f 106 128 108
f 108 129 109
f 82 110 115
f 110 111 116
f 110 116 115
f 112 113 114
f 111 112 117
f 73 76 122
f 73 123 113
f 73 122 123
f 111 117 116
f 113 123 114
f 112 114 117
f 85 115 124
f 115 116 130
f 115 130 124
f 116 117 133
f 114 134 117
f 116 133 130
f 118 127 119
f 77 121 120
f 76 120 122
f 120 141 122
f 119 136 121
f 120 121 137
f 104 124 125
f 105 125 126
f 124 131 125
f 124 130 131
f 125 132 126
f 125 131 132
f 107 127 118
f 119 127 136
f 127 129 136
f 106 126 128
f 108 128 129
f 109 129 127
f 126 138 128
f 126 132 138
f 128 138 139
f 128 139 129
f 129 139 136
f 114 123 135
f 122 140 123
f 123 140 135
f 130 134 131
f 131 135 132
f 117 134 133
f 114 135 134
f 130 133 134
f 131 134 135
f 136 139 137
f 120 137 141
f 122 141 140
f 121 136 137
f 132 140 138
f 138 141 139
f 132 135 140
f 138 140 141
f 137 139 141
f 41 53 51
f 53 41 45
f 47 54 45
f 53 45 54
f 55 54 47
