# MAAS exact compiled indexed mesh
# program_hash d2165303be01add98f9358f72d535bbd4bc8a1fd7975c9fa2b91b0ee63b659a6
# geometry_hash 06a7360bad7737b9f68aaddd0a4ed8071f172bbc7a51085c66569809aa2fb356
v -12.8425023 -9.47671595 0
v -12.8425023 -9.47671595 6.46530612
v -6.93495124 -9.47671595 6.26326531
v -7.70550138 -9.47671595 9.49591837
v -12.8425023 -1.01233943 5.05102041
v -12.8425023 -1.01233943 6.46530612
v -12.8425023 7.45203708 0
v -12.8425023 7.45203708 5.05102041
v -12.8425023 7.45203708 6.46530612
v -7.98803643 7.45203708 5.48217551
v -7.98803643 9.47671595 5.48217551
v -6.93495124 9.47671595 6.26326531
v -7.98803643 7.45203708 9.32923469
v -7.98803643 9.47671595 9.32923469
v -7.70550138 9.47671595 9.49591837
v -0.43690193 7.45203708 9.67088571
v -0.43690193 9.47671595 9.67088571
v 12.8425023 -9.47671595 0
v 0 -9.47671595 5.05102041
v 0.77055014 -9.47671595 6.46530612
v 0 -9.47671595 9.9
v 8.47605152 -9.47671595 6.66734694
v 12.8425023 -9.47671595 5.05102041
v 7.70550138 -9.47671595 9.29387755
v 12.8425023 -9.47671595 8.6877551
v 12.8425023 7.45203708 0
v 0.77055014 9.47671595 6.46530612
v 0.05140023 7.45203708 9.67088571
v 0 7.45203708 9.9
v 0.05140023 9.47671595 9.67088571
v 7.98803643 7.45203708 5.48217551
v 7.98803643 9.47671595 5.48217551
v 8.47605152 7.45203708 6.66734694
v 12.8425023 7.45203708 5.05102041
v 7.98803643 7.45203708 8.33081633
v 7.98803643 9.47671595 8.33081633
v 7.70550138 9.47671595 9.29387755
v 12.8425023 7.45203708 8.6877551
f 1 2 6
f 1 19 3
f 1 5 7
f 1 6 5
f 1 7 18
f 1 4 2
f 1 3 4
f 19 21 3
f 5 8 7
f 7 8 34
f 1 18 19
f 18 23 19
f 18 26 23
f 7 26 18
f 7 34 26
f 23 26 34
f 5 6 9
f 5 9 8
f 8 9 13
f 8 13 10
f 8 10 34
f 16 29 28
f 19 22 20
f 19 20 21
f 20 22 24
f 19 23 22
f 23 25 22
f 23 34 25
f 10 31 34
f 34 38 25
f 31 35 33
f 31 33 34
f 34 33 38
f 10 14 11
f 11 14 12
f 10 13 14
f 14 15 12
f 11 12 27
f 10 11 31
f 30 27 12
f 17 30 12
f 30 16 28
f 17 16 30
f 11 27 32
f 11 32 31
f 32 27 36
f 36 27 37
f 31 32 35
f 32 36 35
f 6 2 13
f 2 4 13
f 9 6 13
f 13 4 14
f 4 15 14
f 4 3 15
f 3 12 15
f 3 21 16
f 12 3 16
f 16 21 29
f 17 12 16
f 20 27 21
f 28 29 21
f 27 28 21
f 30 28 27
f 20 24 27
f 24 37 27
f 24 22 33
f 35 24 33
f 35 37 24
f 35 36 37
f 22 25 38
f 22 38 33
