# MAAS exact compiled indexed mesh
# program_hash 6298e507871a737f699ff60b3b3454aede7d50707e6e7f94c2e620cefa999772
# geometry_hash fec1404a0875012d5698c04be81c75ac0d8f1836b272293608ec31764b46f4a1
v -13.74946857 -10.69403111 0
v -11.0683222 -8.60869505 4.06019922
v -8.38717583 -6.52335898 8.12039844
v -13.74946857 -5.34701556 0
v -11.0683222 -4.30434752 4.06019922
v -8.38717583 -3.26167949 8.12039844
v -6.87473429 -10.69403111 0
v -5.5341611 -8.60869505 4.06019922
v -4.19358791 -6.52335898 8.12039844
v -6.87473429 -5.34701556 0
v -11.0683222 -8.60869505 12.18059766
v -13.74946857 -10.69403111 16.24079688
v -11.0683222 -4.30434752 12.18059766
v -13.74946857 -5.34701556 16.24079688
v -5.5341611 -8.60869505 12.18059766
v -6.87473429 -10.69403111 16.24079688
v -6.87473429 -5.34701556 16.24079688
v -3.8938495 -3.02854961 18
v -3.8938495 -1.51427481 18
v -1.94692475 -3.02854961 18
v -3.41564443 -2.65661233 16.24079688
v -1.94692475 -1.51427481 18
v -13.74946857 0 0
v -11.0683222 0 4.06019922
v -13.74946857 5.34701556 0
v -11.0683222 4.30434752 4.06019922
v -8.38717583 0 8.12039844
v -8.38717583 3.26167949 8.12039844
v -13.74946857 10.69403111 0
v -11.0683222 8.60869505 4.06019922
v -8.38717583 6.52335898 8.12039844
v -6.87473429 0 0
v -6.87473429 5.34701556 0
v -6.87473429 10.69403111 0
v -5.5341611 8.60869505 4.06019922
v -4.19358791 6.52335898 8.12039844
v -11.0683222 0 12.18059766
v -11.0683222 4.30434752 12.18059766
v -13.74946857 0 16.24079688
v -13.74946857 5.34701556 16.24079688
v -11.0683222 8.60869505 12.18059766
v -13.74946857 10.69403111 16.24079688
v -6.87473429 0 16.24079688
v -3.8938495 0 18
v -3.8938495 1.51427481 18
v -6.87473429 5.34701556 16.24079688
v -3.8938495 3.02854961 18
v -1.94692475 0 18
v -3.41564443 2.65661233 16.24079688
v -1.94692475 1.51427481 18
v -1.94692475 3.02854961 18
v -5.5341611 8.60869505 12.18059766
v -6.87473429 10.69403111 16.24079688
v 0 -10.69403111 0
v 0 -8.60869505 4.06019922
v 5.5341611 -8.60869505 4.06019922
v 0 -6.52335898 8.12039844
v 4.19358791 -6.52335898 8.12039844
v 0 -5.34701556 0
v 6.87473429 -10.69403111 0
v 13.74946857 -10.69403111 0
v 11.0683222 -8.60869505 4.06019922
v 8.38717583 -6.52335898 8.12039844
v 6.87473429 -5.34701556 0
v 13.74946857 -5.34701556 0
v 11.0683222 -4.30434752 4.06019922
v 8.38717583 -3.26167949 8.12039844
v 0 -8.60869505 12.18059766
v 5.5341611 -8.60869505 12.18059766
v 0 -10.69403111 16.24079688
v 0 -5.34701556 16.24079688
v 0 -3.02854961 18
v 1.94692475 -3.02854961 18
v 0 -1.51427481 18
v 3.41564443 -2.65661233 16.24079688
v 1.94692475 -1.51427481 18
v 3.8938495 -3.02854961 18
v 3.8938495 -1.51427481 18
v 11.0683222 -8.60869505 12.18059766
v 6.87473429 -10.69403111 16.24079688
v 13.74946857 -10.69403111 16.24079688
v 11.0683222 -4.30434752 12.18059766
v 6.87473429 -5.34701556 16.24079688
v 13.74946857 -5.34701556 16.24079688
v 0 0 0
v 0 5.34701556 0
v 0 10.69403111 0
v 0 8.60869505 4.06019922
v 5.5341611 8.60869505 4.06019922
v 0 6.52335898 8.12039844
v 4.19358791 6.52335898 8.12039844
v 6.87473429 0 0
v 6.87473429 5.34701556 0
v 13.74946857 0 0
v 11.0683222 0 4.06019922
v 13.74946857 5.34701556 0
v 11.0683222 4.30434752 4.06019922
v 8.38717583 0 8.12039844
v 8.38717583 3.26167949 8.12039844
v 6.87473429 10.69403111 0
v 13.74946857 10.69403111 0
v 11.0683222 8.60869505 4.06019922
v 8.38717583 6.52335898 8.12039844
v 0 0 18
v 0 1.51427481 18
v 1.94692475 0 18
v 3.41564443 2.65661233 16.24079688
v 1.94692475 1.51427481 18
v 0 3.02854961 18
v 0 5.34701556 16.24079688
v 1.94692475 3.02854961 18
v 3.8938495 0 18
v 3.8938495 1.51427481 18
v 3.8938495 3.02854961 18
v 0 8.60869505 12.18059766
v 5.5341611 8.60869505 12.18059766
v 0 10.69403111 16.24079688
v 11.0683222 0 12.18059766
v 11.0683222 4.30434752 12.18059766
v 6.87473429 0 16.24079688
v 6.87473429 5.34701556 16.24079688
v 13.74946857 0 16.24079688
v 13.74946857 5.34701556 16.24079688
v 11.0683222 8.60869505 12.18059766
v 6.87473429 10.69403111 16.24079688
v 13.74946857 10.69403111 16.24079688
f 1 7 2
f 1 4 7
f 1 5 4
f 1 2 5
f 2 7 8
f 4 10 7
f 2 6 5
f 2 8 3
f 2 3 6
f 4 23 10
f 4 5 24
f 4 24 23
f 10 23 32
f 5 27 24
f 5 6 27
f 7 54 8
f 7 10 54
f 8 54 55
f 10 59 54
f 8 9 3
f 8 55 9
f 9 55 57
f 10 32 59
f 32 85 59
f 3 11 13
f 3 9 11
f 11 9 15
f 11 12 14
f 12 16 14
f 11 14 13
f 12 15 16
f 11 15 12
f 14 16 17
f 3 13 6
f 6 13 37
f 6 37 27
f 13 14 39
f 14 17 39
f 13 39 37
f 17 43 39
f 9 57 15
f 15 57 68
f 15 68 16
f 16 70 17
f 16 68 70
f 17 70 71
f 17 71 43
f 43 21 49
f 43 71 21
f 23 25 32
f 23 24 26
f 23 26 25
f 25 33 32
f 24 28 26
f 24 27 28
f 26 28 31
f 25 29 33
f 25 26 30
f 25 30 29
f 29 34 33
f 29 35 34
f 29 30 35
f 26 31 30
f 30 36 35
f 30 31 36
f 32 33 85
f 33 86 85
f 33 34 86
f 34 35 88
f 34 87 86
f 34 88 87
f 35 90 88
f 35 36 90
f 27 38 28
f 27 37 38
f 37 39 40
f 39 43 40
f 37 40 38
f 40 43 46
f 28 41 31
f 28 38 41
f 31 41 52
f 38 40 42
f 38 42 41
f 40 46 42
f 41 42 53
f 41 53 52
f 42 46 53
f 43 49 46
f 46 49 107
f 46 107 110
f 31 52 36
f 36 52 115
f 36 115 90
f 46 110 53
f 52 53 117
f 52 117 115
f 53 110 117
f 54 60 55
f 54 59 60
f 55 60 56
f 59 64 60
f 55 56 57
f 56 58 57
f 59 85 64
f 64 85 92
f 56 60 61
f 60 64 61
f 56 61 62
f 61 65 62
f 61 64 65
f 62 65 66
f 56 62 58
f 62 66 63
f 62 63 58
f 64 92 65
f 65 94 66
f 65 92 94
f 66 94 95
f 66 67 63
f 66 95 67
f 67 95 98
f 57 58 68
f 58 69 68
f 58 63 69
f 68 69 70
f 70 80 71
f 70 69 80
f 71 80 83
f 71 83 21
f 83 75 21
f 120 107 75
f 83 120 75
f 69 63 79
f 63 67 79
f 79 67 82
f 69 79 80
f 80 81 83
f 80 79 81
f 79 82 81
f 81 82 84
f 81 84 83
f 67 98 82
f 82 98 118
f 83 84 120
f 82 118 84
f 84 118 122
f 84 122 120
f 85 86 92
f 86 93 92
f 86 87 93
f 87 88 89
f 87 100 93
f 87 89 100
f 88 91 89
f 88 90 91
f 89 91 103
f 92 93 94
f 94 96 95
f 93 96 94
f 96 97 95
f 95 97 98
f 97 99 98
f 93 100 96
f 89 102 100
f 96 101 97
f 97 101 102
f 96 100 101
f 100 102 101
f 89 103 102
f 97 102 99
f 102 103 99
f 110 107 120
f 110 120 121
f 90 116 91
f 90 115 116
f 110 121 117
f 115 117 125
f 115 125 116
f 117 121 125
f 98 99 118
f 99 119 118
f 99 103 119
f 120 122 121
f 118 119 122
f 122 119 123
f 121 122 123
f 91 124 103
f 91 116 124
f 119 103 124
f 121 123 125
f 116 126 124
f 116 125 126
f 119 124 123
f 123 124 126
f 123 126 125
f 18 49 21
f 18 19 49
f 18 21 20
f 20 21 72
f 72 21 73
f 18 20 19
f 19 20 22
f 19 22 44
f 22 48 44
f 20 72 22
f 22 72 74
f 22 74 48
f 48 74 104
f 19 44 49
f 44 45 49
f 45 47 49
f 44 48 45
f 45 48 50
f 45 50 47
f 47 50 51
f 48 104 50
f 50 104 105
f 50 105 51
f 51 105 109
f 47 107 49
f 47 51 107
f 77 21 75
f 73 21 77
f 72 73 74
f 74 73 76
f 74 76 104
f 76 106 104
f 73 77 76
f 77 78 76
f 76 78 106
f 78 112 106
f 77 75 78
f 78 75 112
f 112 75 113
f 104 106 105
f 105 106 108
f 105 108 109
f 109 108 111
f 106 112 108
f 108 112 113
f 108 113 111
f 113 114 111
f 51 109 107
f 109 111 107
f 111 114 107
f 114 75 107
f 113 75 114
