# MAAS exact compiled indexed mesh
# program_hash 9868b7903b327d3fa34dfb9131fc57de1e280a426d483b18ab4d317cce735eca
# geometry_hash d2eb7d17f6bcf5bb410a9eb9af475135a603fa7a15363d7f34eeb7c1ee105a12
v -11.99992126 -12.65472437 0
v -11.99992126 -12.65472437 4.63313285
v -16.8070802 -4.65426836 0
v -16.8070802 -4.65426836 4.63313285
v -3.78097116 -17.02481765 0
v -3.78097116 -17.02481765 4.63313285
v -7.74600334 -4.65426836 0
v -7.74600334 -4.65426836 8.09070582
v -16.8070802 4.65426836 0
v -16.8070802 4.65426836 4.63313285
v -4.594743 1.27239037 0
v -2.79656657 4.65426836 0
v -2.79656657 4.65426836 9.97933772
v 2.79656657 -4.65426836 0
v 4.594743 -1.27239037 0
v 16.8070802 -4.65426836 0
v 2.79656657 -4.65426836 9.97933772
v 9.83668564 -4.65426836 14.8
v 16.8070802 -4.65426836 14.8
v 0 -0 0
v 7.74600334 4.65426836 0
v 3.78097116 17.02481765 0
v 16.8070802 4.65426836 0
v 11.99992126 12.65472437 0
v 0 0 11.04646618
v 3.3950302 5.91510265 10.9964
v 4.65999829 2.74440061 10.73
v 7.74600334 4.65426836 7.4
v 4.65999829 5.91510265 10.9964
v 7.74600334 4.65426836 10.73
v 3.3950302 5.91510265 13.64757836
v 4.65999829 2.74440061 12.82465264
v 4.65999829 2.80000945 12.82465264
v 4.65999829 5.91510265 13.87418905
v 0 9.91384513 7.4
v 3.78097116 17.02481765 7.4
v 3.3950302 16.06189397 10.9964
v 4.65999829 14.28041705 10.73
v 4.65999829 14.28041705 10.9964
v 5.59196722 16.06189397 10.9964
v 0 9.91384513 14.38663639
v 0.50856913 10.87032455 14.8
v 3.3950302 9.33556598 14.8
v 3.3950302 16.06189397 14.8
v 3.78097116 17.02481765 14.8
v 5.59196722 16.06189397 14.8
v 16.8070802 0 7.4
v 16.04847583 2.74440061 10.73
v 16.8070802 4.65426836 7.4
v 16.04847583 4.65426836 10.73
v 9.83668564 0 14.8
v 9.83668564 2.74440061 14.8
v 16.8070802 0 14.8
v 16.04847583 2.74440061 14.8
v 16.04847583 4.65426836 14.8
v 16.8070802 4.65426836 14.8
v 11.99992126 12.65472437 7.4
v 11.99992126 12.65472437 10.73
v 8.94243801 14.28041705 10.73
v 8.94243801 14.28041705 10.9964
f 3 9 7
f 3 4 10
f 3 7 8
f 3 8 4
f 7 11 20
f 3 10 9
f 7 9 11
f 9 10 12
f 9 12 11
f 10 13 12
f 14 16 17
f 14 15 16
f 15 21 16
f 8 17 18
f 16 18 17
f 16 19 18
f 16 47 19
f 18 19 51
f 19 47 53
f 19 53 51
f 16 21 23
f 16 23 47
f 21 49 23
f 21 28 49
f 23 49 47
f 1 5 2
f 1 2 8
f 1 8 7
f 2 5 6
f 1 14 5
f 5 14 6
f 1 7 20
f 1 15 14
f 1 20 21
f 11 12 20
f 12 13 35
f 8 41 13
f 13 41 35
f 6 14 17
f 1 21 15
f 12 22 20
f 20 24 21
f 12 36 22
f 20 22 24
f 12 35 36
f 22 36 57
f 21 24 28
f 22 57 24
f 24 57 28
f 30 50 28
f 47 49 53
f 50 49 28
f 50 56 49
f 52 51 53
f 56 53 49
f 52 53 54
f 54 53 56
f 54 56 55
f 50 55 56
f 45 36 35
f 40 59 36
f 40 36 45
f 58 36 59
f 40 60 59
f 45 35 41
f 42 45 41
f 42 43 44
f 42 44 45
f 40 45 46
f 44 46 45
f 30 28 57
f 30 57 58
f 58 57 36
f 4 8 13
f 4 13 10
f 8 18 25
f 18 51 25
f 2 6 8
f 6 17 8
f 8 25 41
f 32 33 25
f 32 25 51
f 32 51 52
f 31 25 33
f 31 41 25
f 31 43 41
f 31 33 34
f 42 41 43
f 26 31 29
f 26 43 31
f 29 31 34
f 26 39 37
f 26 29 39
f 37 39 40
f 39 60 40
f 26 37 44
f 26 44 43
f 37 46 44
f 37 40 46
f 27 38 29
f 27 30 38
f 27 29 33
f 27 33 32
f 29 34 33
f 29 38 39
f 30 59 38
f 38 60 39
f 38 59 60
f 27 50 30
f 27 48 50
f 27 32 48
f 32 52 48
f 48 55 50
f 48 52 54
f 48 54 55
f 30 58 59
