# MAAS exact compiled indexed mesh
# program_hash e9f90ba55a531f3c76afb82ebd0afe4e42447da466923e123e8225ce739d2e0d
# geometry_hash e4e86d084c923d51c71350a5f6d98bf691b32838e9ba591d3377cc4ab7f6c45d
v -23.1303761 -11.13684775 0
v -11.13684775 -11.13684775 0
v -23.1303761 -11.13684775 8.81012658
v -24.84373729 -8.99514626 8.05063291
v -23.1303761 -8.99514626 8.05063291
v -23.1303761 -8.99514626 8.81012658
v -24.84373729 -8.99514626 12
v -11.13684775 -11.13684775 8.81012658
v -11.13684775 -8.99514626 8.05063291
v -11.13684775 -8.99514626 8.81012658
v -23.1303761 11.13684775 0
v -11.13684775 11.13684775 0
v -23.1303761 0 6
v -23.1303761 0 6.6835443
v -23.1303761 0 7.36708861
v -24.84373729 0 8.05063291
v -23.1303761 0 8.05063291
v -20.85434709 3.71228258 6.246
v -21.29204497 2.99838209 6.83696495
v -21.29204497 2.99838209 7.47523759
v -22.86923349 2.99838209 8.11351022
v -22.34350398 2.99838209 8.11351022
v -21.81777448 2.99838209 8.11351022
v -21.29204497 2.99838209 8.11351022
v -14.80686742 0 8.08464
v -17.24989204 3.71228258 6.246
v -13.64543698 3.71228258 6.246
v -12.50395056 2.99838209 8.145265
v -13.34987167 3.71228258 8.15969952
v -13.63006316 2.99838209 8.37107735
v -13.34987167 3.71228258 8.38169841
v -24.84373729 0 9.36708861
v -24.84373729 0 10.6835443
v -24.84373729 0 12
v -22.86923349 2.99838209 9.34277605
v -22.86923349 2.99838209 10.57204187
v -22.86923349 2.99838209 11.80130769
v -14.80686742 0 11.66064
v -13.63006316 2.99838209 9.48413027
v -13.63006316 2.99838209 10.59718319
v -15.24615566 2.99838209 11.80130769
v -13.63006316 2.99838209 11.48442377
v -19.01601597 6.71066467 7.02691431
v -20.89472969 5.99676417 8.17638754
v -20.41439108 5.99676417 8.17638754
v -19.45371385 5.99676417 7.58338656
v -19.93405247 5.99676417 8.17638754
v -19.45371385 5.99676417 8.17638754
v -23.1303761 11.13684775 6
v -18.9202259 8.99514626 8.23926485
v -18.57831808 7.42456517 6.492
v -15.36725076 7.42456517 6.492
v -12.4532589 5.99676417 8.62548167
v -16.30228907 11.13684775 6.738
v -16.73998696 10.42294725 7.21686368
v -16.30228907 11.13684775 7.44427848
v -13.48460948 11.13684775 6.738
v -14.34681943 11.13684775 7.26193952
v -13.48460948 11.13684775 7.26193952
v -18.48527817 8.99514626 8.23926485
v -18.05033045 8.99514626 8.23926485
v -17.61538273 8.99514626 8.23926485
v -17.17768484 9.70904676 7.7172853
v -18.48527817 8.99514626 8.44212756
v -18.05033045 8.99514626 8.44212756
v -17.61538273 8.99514626 8.44212756
v -18.05033045 8.99514626 8.64499026
v -17.61538273 8.99514626 8.64499026
v -17.61538273 8.99514626 8.84785297
v -17.17768484 9.70904676 8.45310613
v -17.17768484 9.70904676 8.65197663
v -17.17768484 9.70904676 8.85084713
v -16.73998696 10.42294725 7.93791334
v -16.30228907 11.13684775 8.15055696
v -16.73998696 10.42294725 8.658963
v -16.73998696 10.42294725 8.85384129
v -16.30228907 11.13684775 8.85683544
v -15.5024067 8.99514626 8.84785297
v -15.11721094 9.70904676 8.85084713
v -13.38943067 8.99514626 8.84785297
v -13.05673704 9.70904676 8.85084713
v -14.34681943 11.13684775 7.968218
v -14.73201519 10.42294725 8.85384129
v -14.34681943 11.13684775 8.67449648
v -14.34681943 11.13684775 8.85683544
v -12.72404342 10.42294725 8.85384129
v -20.89472969 5.99676417 9.31846349
v -20.89472969 5.99676417 10.46053944
v -20.89472969 5.99676417 11.60261538
v -18.9202259 8.99514626 9.29415093
v -18.9202259 8.99514626 10.349037
v -18.9202259 8.99514626 11.40392308
v -12.4532589 5.99676417 9.65958752
v -12.4532589 5.99676417 10.48389752
v -13.9298198 5.99676417 11.60261538
v -12.4532589 5.99676417 11.30820753
v -18.48527817 8.99514626 9.49701363
v -18.05033045 8.99514626 9.69987634
v -15.93735442 8.99514626 9.69987634
v -13.82437839 8.99514626 9.69987634
v -13.82437839 8.99514626 10.46125578
v -18.48527817 8.99514626 10.55189971
v -16.37230214 8.99514626 10.55189971
v -16.37230214 8.99514626 11.31327915
v -13.82437839 8.99514626 11.22263522
v -11.13684775 0 6
v -11.13684775 0 8.05063291
v -10.04098193 3.71228258 6.246
v -10.04098193 3.71228258 6.87349367
v -12.24690842 3.71228258 8.15969952
v -10.25172536 2.99838209 8.11351022
v -10.04098193 3.71228258 7.50098734
v -6.83448357 2.99838209 8.11351022
v -5.66946699 2.99838209 8.145265
v -3.41724179 2.99838209 8.11351022
v -1.1261126 2.99838209 8.145265
v -9.08670877 2.99838209 11.48442377
v -7.62307783 2.99838209 11.80130769
v -4.54335439 2.99838209 11.48442377
v -12.15618343 7.42456517 6.492
v -8.94511611 7.42456517 6.492
v -8.94511611 7.42456517 7.06344304
v -10.39548828 5.99676417 8.20588999
v -9.36660297 5.99676417 8.17638754
v -10.16159549 6.71066467 8.22032452
v -12.17306741 6.71066467 8.63228928
v -11.89287591 7.42456517 8.23475904
v -10.91028931 7.42456517 8.23475904
v -9.92770271 7.42456517 8.23475904
v -11.89287591 7.42456517 8.43692797
v -11.89287591 7.42456517 8.6390969
v -9.15585954 6.71066467 7.60913632
v -6.24440198 5.99676417 8.17638754
v -11.13684775 11.13684775 6
v -10.66692989 11.13684775 6.738
v -10.66692989 11.13684775 7.26193952
v -7.84925029 11.13684775 6.738
v -8.05999372 10.42294725 7.21686368
v -7.84925029 11.13684775 7.26193952
v -11.27645463 8.99514626 8.84785297
v -10.99626314 9.70904676 8.85084713
v -12.3913498 11.13684775 7.78587904
v -11.52913984 11.13684775 7.78587904
v -10.66692989 11.13684775 7.78587904
v -12.3913498 11.13684775 8.49215752
v -12.3913498 11.13684775 8.67449648
v -12.3913498 11.13684775 8.85683544
v -10.71607165 10.42294725 8.85384129
v -10.43588016 11.13684775 8.30981856
v -10.43588016 11.13684775 8.49215752
v -9.5736702 11.13684775 8.30981856
v -10.43588016 11.13684775 8.67449648
v -10.43588016 11.13684775 8.85683544
v -8.48148057 8.99514626 8.23926485
v -8.48148057 8.99514626 8.24834823
v -8.27073715 9.70904676 7.7172853
v -8.48148057 8.99514626 8.25743161
v -8.48148057 8.99514626 8.26651499
v -8.27073715 9.70904676 8.26314026
v -8.27073715 9.70904676 8.27204489
v -8.27073715 9.70904676 8.28094951
v -8.05999372 10.42294725 7.75176092
v -7.84925029 11.13684775 7.78587904
v -8.05999372 10.42294725 8.28665817
v -8.05999372 10.42294725 8.29538404
v -8.71146025 11.13684775 8.30981856
v -7.84925029 11.13684775 8.30981856
v -4.1510863 5.99676417 8.20588999
v -2.82716019 8.99514626 8.23926485
v -2.82716019 8.99514626 8.24834823
v -2.82716019 8.99514626 8.25743161
v -2.82716019 8.99514626 8.26651499
v -8.3021726 5.99676417 11.30820753
v -11.27645463 8.99514626 9.60923241
v -11.27645463 8.99514626 10.37061186
v -11.27645463 8.99514626 11.1319913
v -6.30674197 8.99514626 11.40392308
v -4.16468493 5.89282026 11.31431636
v -3.75881821 8.99514626 11.1319913
v -3.75881821 8.99514626 11.31327915
v -1.21089446 8.99514626 11.22263522
v 11.13684775 -11.13684775 0
v 23.1303761 -11.13684775 0
v 0 -8.99514626 8.05063291
v 3.71228258 -8.99514626 8.05063291
v 3.71228258 -8.99514626 8.30379747
v 3.71228258 -5.99676417 8.05063291
v 11.13684775 -11.13684775 6
v 11.13684775 -10.42294725 6.6835443
v 11.13684775 -11.13684775 6.93670886
v 11.13684775 -9.70904676 7.36708861
v 7.42456517 -8.99514626 8.05063291
v 7.42456517 -8.99514626 8.30379747
v 7.42456517 -8.99514626 8.55696203
v 11.13684775 -11.13684775 7.87341772
v 11.13684775 -10.42294725 7.62025316
v 11.13684775 -11.13684775 8.81012658
v 11.13684775 -10.42294725 8.55696203
v 11.13684775 -10.42294725 8.81012658
v 11.13684775 -8.99514626 8.05063291
v 11.13684775 -9.70904676 8.30379747
v 11.13684775 -9.70904676 8.55696203
v 11.13684775 -9.70904676 8.81012658
v 11.13684775 -8.99514626 8.30379747
v 11.13684775 -8.99514626 8.55696203
v 11.13684775 -8.99514626 8.81012658
v 11.13684775 -6.71066467 6.6835443
v 11.13684775 -5.99676417 7.36708861
v 7.42456517 -5.99676417 8.05063291
v 3.71228258 -8.99514626 9.62025316
v 0 -8.99514626 12
v 3.71228258 -8.99514626 10.93670886
v 7.42456517 -8.99514626 9.87341772
v 8.28124576 -8.99514626 12
v 11.99352835 -8.99514626 10.93670886
v 8.28124576 -5.99676417 12
v 3.71228258 -2.99838209 8.05063291
v 0 -0.31183174 8.08464
v 4.93562247 -0.31183174 8.08464
v 4.93562247 -0.20788782 8.08464
v 4.93562247 -0.10394391 8.08464
v 11.13684775 -2.99838209 6.6835443
v 11.13684775 -2.99838209 8.05063291
v 9.87124495 -0.31183174 8.08464
v 9.87124495 -0.20788782 8.08464
v 4.93562247 -0.31183174 9.27664
v 4.93562247 -0.31183174 10.46864
v 0 -0.31183174 11.66064
v 4.93562247 -0.31183174 11.66064
v 4.93562247 -0.20788782 11.66064
v 4.93562247 -0.10394391 11.66064
v 8.28124576 -2.99838209 12
v 9.87124495 -0.31183174 9.27664
v 9.87124495 -0.31183174 10.46864
v 9.87124495 -0.31183174 11.66064
v 9.87124495 -0.20788782 11.66064
v 15.13469053 -11.13684775 6.93670886
v 15.13469053 -11.13684775 7.87341772
v 15.13469053 -11.13684775 8.81012658
v 15.13469053 -10.42294725 8.81012658
v 15.13469053 -9.70904676 8.81012658
v 15.13469053 -8.99514626 8.81012658
v 19.13253331 -11.13684775 6.93670886
v 23.1303761 -11.13684775 6
v 23.1303761 -10.42294725 6.6835443
v 23.1303761 -11.13684775 6.93670886
v 23.1303761 -9.70904676 7.36708861
v 19.13253331 -11.13684775 7.87341772
v 19.13253331 -11.13684775 8.81012658
v 19.13253331 -10.42294725 8.81012658
v 19.13253331 -9.70904676 8.81012658
v 19.13253331 -8.99514626 8.81012658
v 23.1303761 -11.13684775 7.87341772
v 23.1303761 -10.42294725 7.62025316
v 23.1303761 -11.13684775 8.81012658
v 23.1303761 -10.42294725 8.55696203
v 23.1303761 -10.42294725 8.81012658
v 23.1303761 -8.99514626 8.05063291
v 23.70149649 -8.99514626 8.05063291
v 24.27261689 -8.99514626 8.05063291
v 24.84373729 -8.99514626 8.05063291
v 23.1303761 -9.70904676 8.30379747
v 23.1303761 -9.70904676 8.55696203
v 23.1303761 -9.70904676 8.81012658
v 23.1303761 -8.99514626 8.30379747
v 23.1303761 -8.99514626 8.55696203
v 23.1303761 -8.99514626 8.81012658
v 23.70149649 -8.99514626 8.30379747
v 23.70149649 -8.99514626 8.55696203
v 24.27261689 -8.99514626 8.30379747
v 23.1303761 -6.71066467 6.6835443
v 23.1303761 -5.99676417 7.36708861
v 15.70581093 -8.99514626 9.87341772
v 16.56249153 -8.99514626 12
v 16.56249153 -5.99676417 12
v 19.70365371 -8.99514626 9.87341772
v 24.84373729 -8.99514626 9.36708861
v 24.27261689 -8.99514626 9.62025316
v 23.70149649 -8.99514626 9.87341772
v 20.27477411 -8.99514626 10.93670886
v 24.84373729 -8.99514626 10.6835443
v 24.27261689 -8.99514626 10.93670886
v 24.84373729 -8.99514626 12
v 14.80686742 -0.31183174 8.08464
v 23.1303761 -2.99838209 6.6835443
v 23.1303761 -2.99838209 8.05063291
v 23.70149649 -2.99838209 8.05063291
v 24.27261689 -2.99838209 8.05063291
v 24.84373729 -2.99838209 8.05063291
v 14.80686742 -0.31183174 9.27664
v 14.80686742 -0.31183174 10.46864
v 14.80686742 -0.31183174 11.66064
v 24.84373729 -2.99838209 9.36708861
v 24.84373729 -2.99838209 10.6835443
v 24.84373729 -2.99838209 12
v 11.13684775 11.13684775 0
v 23.1303761 11.13684775 0
v 0 0 8.05063291
v 0 0 8.08464
v 3.41724179 2.99838209 8.11351022
v 3.41724179 2.99838209 8.145265
v 11.13684775 0 6
v 11.13684775 0 7.36708861
v 7.42456517 -0 8.05063291
v 10.04098193 3.71228258 6.246
v 10.25172536 2.99838209 6.83696495
v 7.98442288 2.89443817 8.14316333
v 10.25172536 2.99838209 8.11351022
v 12.32175909 3.50439476 8.15549619
v 0 0 11.66064
v 0 0 12
v 0 2.89443817 11.4905326
v 4.57055164 2.79049426 11.49664143
v 7.62307783 2.99838209 11.80130769
v 0 5.99676417 8.17638754
v 2.09331568 5.99676417 8.20588999
v 2.82716019 8.99514626 8.23926485
v 2.82716019 8.99514626 8.24834823
v 2.82716019 8.99514626 8.25743161
v 2.82716019 8.99514626 8.26651499
v 9.15585954 6.71066467 7.02691431
v 8.94511611 7.42456517 6.492
v 12.15618343 7.42456517 6.492
v 6.24440198 5.99676417 8.17638754
v 6.24440198 5.99676417 8.20588999
v 9.36660297 5.99676417 7.58338656
v 10.42954307 5.89282026 8.20378833
v 10.19565028 6.60672076 8.21822285
v 12.21386329 6.60672076 8.42476047
v 9.9617575 7.32062125 8.23265737
v 10.94771465 7.32062125 8.23265737
v 11.9336718 7.32062125 8.23265737
v 7.84925029 11.13684775 6.738
v 8.05999372 10.42294725 7.21686368
v 7.84925029 11.13684775 7.26193952
v 8.71146025 11.13684775 7.26193952
v 10.66692989 11.13684775 6.738
v 11.13684775 11.13684775 6
v 10.66692989 11.13684775 7.44427848
v 8.48148057 8.99514626 8.23926485
v 8.48148057 8.99514626 8.24834823
v 8.27073715 9.70904676 7.7172853
v 8.48148057 8.99514626 8.25743161
v 8.48148057 8.99514626 8.26651499
v 8.27073715 9.70904676 8.26314026
v 8.27073715 9.70904676 8.27204489
v 8.27073715 9.70904676 8.28094951
v 8.05999372 10.42294725 7.75176092
v 7.84925029 11.13684775 7.78587904
v 8.71146025 11.13684775 7.78587904
v 8.05999372 10.42294725 8.28665817
v 8.05999372 10.42294725 8.29538404
v 7.84925029 11.13684775 8.30981856
v 8.71146025 11.13684775 8.30981856
v 11.27645463 8.99514626 8.84785297
v 10.99626314 9.70904676 8.66088126
v 10.99626314 9.70904676 8.85084713
v 9.5736702 11.13684775 7.78587904
v 11.52913984 11.13684775 7.968218
v 10.71607165 10.42294725 8.48153645
v 10.71607165 10.42294725 8.66768887
v 10.71607165 10.42294725 8.85384129
v 9.5736702 11.13684775 8.30981856
v 10.43588016 11.13684775 8.30981856
v 10.43588016 11.13684775 8.49215752
v 10.43588016 11.13684775 8.67449648
v 10.43588016 11.13684775 8.85683544
v 12.3913498 11.13684775 8.49215752
v 12.3913498 11.13684775 8.67449648
v 12.3913498 11.13684775 8.85683544
v -0 5.99676417 11.60261538
v 4.16468493 5.89282026 11.31431636
v 3.75881821 8.99514626 11.1319913
v 11.27645463 8.99514626 9.60923241
v 11.27645463 8.99514626 10.37061186
v 6.30674197 8.99514626 11.22263522
v 6.30674197 8.99514626 11.40392308
v 8.85466572 8.99514626 11.31327915
v 11.27645463 8.99514626 11.1319913
v 13.64543698 3.71228258 6.246
v 17.24989204 3.71228258 6.246
v 12.57880123 2.79049426 8.14106166
v 13.43146343 3.50439476 8.15549619
v 13.71165492 2.79049426 8.36798449
v 23.1303761 0 6
v 23.1303761 -0 7.36708861
v 20.85434709 3.71228258 6.246
v 21.29204497 2.99838209 6.83696495
v 21.29204497 2.99838209 8.11351022
v 21.81777448 2.99838209 8.11351022
v 22.34350398 2.99838209 8.11351022
v 22.86923349 2.99838209 8.11351022
v 16.56249153 0 12
v 13.71165492 2.79049426 9.25958825
v 13.71165492 2.79049426 10.37811484
v 13.71165492 2.79049426 11.49664143
v 22.86923349 2.99838209 9.34277605
v 22.86923349 2.99838209 10.57204187
v 22.86923349 2.99838209 11.80130769
v 15.36725076 7.42456517 6.492
v 18.57831808 7.42456517 6.492
v 12.49405478 5.89282026 8.62449048
v 13.48460948 11.13684775 6.738
v 13.48460948 11.13684775 7.44427848
v 16.30228907 11.13684775 6.738
v 16.73998696 10.42294725 7.21686368
v 16.30228907 11.13684775 7.44427848
v 13.38943067 8.99514626 8.84785297
v 13.05673704 9.70904676 8.85084713
v 15.5024067 8.99514626 8.84785297
v 15.11721094 9.70904676 8.85084713
v 13.48460948 11.13684775 8.15055696
v 12.72404342 10.42294725 8.85384129
v 14.73201519 10.42294725 8.85384129
v 14.34681943 11.13684775 8.67449648
v 14.34681943 11.13684775 8.85683544
v 17.61538273 8.99514626 8.23926485
v 18.05033045 8.99514626 8.23926485
v 18.48527817 8.99514626 8.23926485
v 17.17768484 9.70904676 7.7172853
v 17.61538273 8.99514626 8.44212756
v 18.05033045 8.99514626 8.44212756
v 18.48527817 8.99514626 8.44212756
v 17.61538273 8.99514626 8.64499026
v 17.61538273 8.99514626 8.84785297
v 18.05033045 8.99514626 8.64499026
v 17.17768484 9.70904676 8.45310613
v 17.17768484 9.70904676 8.65197663
v 17.17768484 9.70904676 8.85084713
v 16.73998696 10.42294725 7.93791334
v 16.30228907 11.13684775 8.15055696
v 16.73998696 10.42294725 8.658963
v 16.73998696 10.42294725 8.85384129
v 16.30228907 11.13684775 8.85683544
v 19.01601597 6.71066467 7.02691431
v 19.45371385 5.99676417 7.58338656
v 23.1303761 11.13684775 6
v 18.9202259 8.99514626 8.23926485
v 12.49405478 5.89282026 9.45098208
v 12.49405478 5.89282026 10.27747368
v 12.49405478 5.89282026 11.31431636
v 13.9298198 5.99676417 11.60261538
v 13.38943067 8.99514626 9.60923241
v 15.5024067 8.99514626 9.60923241
v 13.38943067 8.99514626 10.37061186
v 18.48527817 8.99514626 9.49701363
v 18.05033045 8.99514626 9.69987634
v 15.93735442 8.99514626 10.46125578
v 13.82437839 8.99514626 11.22263522
v 18.48527817 8.99514626 10.55189971
v 16.37230214 8.99514626 11.31327915
v 18.9202259 8.99514626 9.29415093
v 18.9202259 8.99514626 10.349037
v 18.9202259 8.99514626 11.40392308
f 1 2 3
f 1 3 5
f 1 5 13
f 2 8 3
f 1 11 2
f 2 12 8
f 8 12 9
f 3 6 5
f 3 8 6
f 6 8 10
f 5 14 13
f 5 15 14
f 5 17 15
f 8 9 10
f 9 106 107
f 1 49 11
f 2 11 12
f 1 13 49
f 11 134 12
f 11 49 134
f 9 12 106
f 12 134 106
f 182 188 302
f 182 183 188
f 183 244 188
f 182 296 183
f 183 297 244
f 182 338 296
f 182 302 338
f 183 296 297
f 297 385 244
f 296 437 297
f 296 338 437
f 297 437 385
f 4 5 6
f 4 17 5
f 4 6 7
f 6 10 7
f 4 7 16
f 7 211 34
f 4 16 17
f 7 32 16
f 7 33 32
f 7 34 33
f 9 298 184
f 9 211 10
f 7 10 211
f 9 184 211
f 9 107 298
f 34 211 311
f 13 14 19
f 14 15 20
f 13 19 18
f 14 20 19
f 15 17 24
f 15 24 20
f 19 20 46
f 18 19 43
f 19 46 43
f 20 24 48
f 20 48 46
f 18 43 51
f 46 48 62
f 43 46 63
f 43 55 51
f 46 62 63
f 43 63 55
f 51 55 54
f 54 55 56
f 54 56 58
f 54 59 57
f 54 58 59
f 57 59 136
f 58 143 59
f 63 62 70
f 62 66 70
f 66 68 71
f 66 71 70
f 68 69 72
f 68 72 71
f 69 79 72
f 69 78 79
f 55 63 73
f 63 70 73
f 55 73 56
f 56 73 74
f 56 74 82
f 73 75 74
f 70 71 75
f 73 70 75
f 71 72 76
f 71 76 75
f 72 79 83
f 72 83 76
f 74 75 77
f 74 77 84
f 75 76 77
f 76 85 77
f 78 80 81
f 78 81 79
f 80 141 81
f 56 82 58
f 58 82 142
f 58 142 143
f 82 145 142
f 79 86 83
f 74 84 82
f 76 83 85
f 77 85 84
f 79 81 86
f 82 84 145
f 84 146 145
f 83 86 147
f 84 85 146
f 83 147 85
f 85 147 146
f 106 112 107
f 108 109 106
f 106 109 112
f 112 111 107
f 108 121 109
f 109 122 112
f 112 132 111
f 111 132 124
f 112 122 132
f 109 121 122
f 122 138 132
f 124 132 156
f 124 156 154
f 57 136 135
f 59 144 136
f 135 136 139
f 121 137 122
f 122 137 138
f 135 139 137
f 137 139 138
f 136 163 139
f 138 139 162
f 80 140 141
f 59 143 144
f 142 145 149
f 142 151 143
f 136 144 163
f 143 166 144
f 142 149 151
f 143 151 166
f 81 148 86
f 81 141 148
f 145 146 150
f 145 150 149
f 150 146 152
f 146 147 152
f 86 153 147
f 86 148 153
f 147 153 152
f 138 156 132
f 156 159 154
f 154 159 155
f 155 160 157
f 157 161 158
f 155 159 160
f 157 160 161
f 138 162 156
f 156 162 159
f 162 164 159
f 139 163 162
f 144 167 163
f 144 166 167
f 162 163 164
f 163 167 164
f 159 164 160
f 160 165 161
f 160 164 165
f 164 167 165
f 188 190 189
f 189 190 196
f 190 195 196
f 189 196 191
f 189 207 188
f 189 191 207
f 195 198 196
f 191 196 201
f 196 198 201
f 195 197 198
f 198 197 199
f 198 202 201
f 198 199 202
f 199 203 202
f 191 201 200
f 200 201 204
f 201 202 204
f 202 205 204
f 202 203 205
f 205 203 206
f 191 208 207
f 207 222 188
f 191 200 208
f 208 200 223
f 222 302 188
f 207 208 222
f 208 303 222
f 208 223 303
f 188 244 190
f 190 237 195
f 190 244 237
f 237 243 238
f 195 237 238
f 195 238 197
f 197 238 239
f 197 239 199
f 199 239 240
f 199 240 203
f 203 240 241
f 203 241 206
f 206 241 242
f 238 248 239
f 243 248 238
f 239 249 240
f 240 250 241
f 239 248 249
f 240 249 250
f 241 250 251
f 241 251 242
f 242 251 252
f 237 244 243
f 243 246 248
f 244 246 243
f 244 245 246
f 245 254 246
f 246 254 253
f 245 247 254
f 245 244 271
f 245 271 247
f 248 253 249
f 249 255 250
f 250 257 251
f 251 264 252
f 246 253 248
f 253 254 256
f 247 262 254
f 254 262 256
f 253 255 249
f 253 256 255
f 250 255 257
f 256 257 255
f 256 262 263
f 251 257 264
f 256 263 257
f 257 263 264
f 247 258 262
f 258 265 262
f 262 265 263
f 263 265 266
f 252 264 267
f 263 266 264
f 266 267 264
f 247 271 272
f 271 244 285
f 247 272 258
f 272 286 258
f 285 244 385
f 271 285 272
f 272 285 386
f 272 386 286
f 222 306 302
f 222 303 306
f 302 306 305
f 223 308 303
f 303 326 306
f 305 306 321
f 306 326 321
f 303 308 326
f 321 326 342
f 322 321 334
f 305 321 322
f 326 340 342
f 308 340 326
f 321 342 334
f 322 334 333
f 333 334 335
f 333 335 336
f 334 348 335
f 335 350 336
f 333 336 339
f 333 339 337
f 337 339 404
f 342 340 345
f 340 341 345
f 341 343 346
f 343 344 347
f 341 346 345
f 343 347 346
f 334 342 348
f 342 345 348
f 348 345 351
f 335 348 349
f 335 349 350
f 336 350 358
f 348 351 349
f 349 354 350
f 349 351 353
f 349 353 354
f 350 363 358
f 350 354 363
f 345 346 351
f 346 347 352
f 346 352 351
f 351 352 353
f 355 409 357
f 336 358 359
f 336 359 339
f 358 363 364
f 358 364 368
f 339 359 412
f 358 368 359
f 357 413 362
f 357 409 413
f 364 365 368
f 365 366 369
f 365 369 368
f 366 367 370
f 362 370 367
f 362 413 370
f 366 370 369
f 285 385 388
f 285 388 386
f 385 387 388
f 286 386 389
f 386 388 436
f 387 435 388
f 388 435 436
f 386 436 389
f 435 420 436
f 401 406 435
f 420 417 436
f 337 404 403
f 403 407 405
f 403 404 407
f 406 420 435
f 401 405 406
f 405 407 406
f 355 408 409
f 408 411 409
f 408 410 411
f 339 412 404
f 404 431 407
f 404 412 431
f 409 414 413
f 359 368 415
f 359 415 412
f 368 369 415
f 369 370 416
f 370 413 416
f 413 414 416
f 369 416 415
f 409 411 414
f 412 415 434
f 412 434 431
f 415 416 434
f 414 434 416
f 420 427 417
f 410 429 411
f 410 425 429
f 417 427 421
f 421 428 424
f 421 427 428
f 424 429 425
f 424 428 429
f 406 430 420
f 420 430 427
f 406 407 430
f 407 431 430
f 430 431 432
f 427 432 428
f 430 432 427
f 411 433 414
f 428 433 429
f 411 429 433
f 428 432 433
f 431 434 432
f 414 433 434
f 432 434 433
f 387 401 435
f 389 436 417
f 24 17 16
f 16 32 21
f 16 21 22
f 22 23 16
f 23 24 16
f 21 32 35
f 21 45 22
f 21 35 44
f 22 47 23
f 23 48 24
f 21 44 45
f 22 45 47
f 23 47 48
f 44 35 87
f 32 33 35
f 35 33 36
f 33 34 36
f 34 37 36
f 35 36 87
f 36 88 87
f 36 37 88
f 37 41 89
f 37 89 88
f 37 34 311
f 37 311 41
f 41 95 89
f 44 60 45
f 45 61 47
f 47 62 48
f 44 50 60
f 45 60 61
f 44 87 50
f 50 87 90
f 50 90 64
f 47 61 62
f 50 64 60
f 60 64 65
f 60 65 61
f 61 65 66
f 64 67 65
f 65 67 68
f 61 66 62
f 65 68 66
f 64 97 67
f 67 69 68
f 87 88 90
f 88 91 90
f 88 89 91
f 91 89 92
f 90 91 97
f 91 92 102
f 89 95 92
f 92 95 177
f 64 90 97
f 67 98 69
f 67 97 98
f 69 98 78
f 78 98 99
f 97 102 98
f 98 102 99
f 91 102 97
f 99 102 103
f 78 99 80
f 80 99 100
f 80 100 140
f 99 103 100
f 100 103 101
f 100 101 174
f 92 103 102
f 92 104 103
f 101 103 104
f 101 104 105
f 101 105 175
f 92 177 104
f 111 113 107
f 113 115 107
f 111 124 113
f 113 124 133
f 115 298 107
f 113 133 115
f 115 133 315
f 41 311 118
f 41 118 95
f 95 118 371
f 124 154 133
f 154 155 170
f 155 157 171
f 157 158 172
f 133 154 169
f 133 169 315
f 154 170 169
f 155 171 170
f 157 172 171
f 169 170 318
f 170 171 319
f 171 172 320
f 95 371 177
f 140 100 174
f 101 175 174
f 105 176 175
f 105 104 180
f 105 181 176
f 104 177 180
f 105 180 181
f 176 181 179
f 177 377 180
f 185 186 184
f 185 193 186
f 185 192 193
f 186 193 194
f 186 194 210
f 185 184 187
f 187 184 217
f 185 187 192
f 187 209 192
f 192 204 193
f 193 205 194
f 192 200 204
f 193 204 205
f 194 205 206
f 192 209 200
f 200 209 223
f 186 211 184
f 186 210 211
f 194 213 210
f 210 213 212
f 210 212 211
f 212 214 211
f 214 311 211
f 194 206 213
f 206 273 213
f 213 273 215
f 213 215 212
f 212 215 214
f 215 274 214
f 214 274 216
f 217 184 298
f 187 217 209
f 209 217 304
f 209 304 223
f 214 216 311
f 216 232 311
f 216 275 232
f 258 259 265
f 259 268 265
f 259 260 268
f 260 270 268
f 260 261 270
f 265 268 266
f 268 270 269
f 266 268 269
f 261 277 270
f 266 269 267
f 270 278 269
f 258 287 259
f 259 288 260
f 260 289 261
f 261 289 277
f 206 242 273
f 242 276 273
f 242 252 276
f 273 276 280
f 215 273 280
f 215 280 274
f 216 274 275
f 252 279 276
f 252 267 279
f 269 279 267
f 269 278 279
f 270 277 278
f 276 279 282
f 277 281 278
f 278 282 279
f 278 281 282
f 276 282 280
f 274 280 283
f 281 283 282
f 280 282 283
f 277 293 281
f 274 283 275
f 281 294 283
f 275 283 295
f 258 286 287
f 259 287 288
f 260 288 289
f 289 293 277
f 286 390 287
f 287 391 288
f 288 392 289
f 289 392 293
f 232 275 393
f 281 293 294
f 275 295 393
f 283 294 295
f 293 397 294
f 294 398 295
f 217 298 300
f 115 300 298
f 217 300 304
f 115 315 300
f 300 324 304
f 300 315 324
f 223 304 308
f 304 324 308
f 118 311 314
f 232 314 311
f 118 314 371
f 232 393 314
f 314 442 371
f 169 317 315
f 315 317 324
f 317 340 324
f 169 318 317
f 170 319 318
f 171 320 319
f 317 318 341
f 318 319 343
f 319 320 344
f 308 324 340
f 317 341 340
f 318 343 341
f 319 344 343
f 177 371 377
f 179 181 376
f 179 376 373
f 181 180 378
f 180 377 378
f 181 378 376
f 371 442 377
f 355 374 408
f 374 375 443
f 373 376 449
f 373 449 379
f 375 379 445
f 376 378 451
f 377 454 378
f 376 451 449
f 286 389 390
f 287 390 391
f 288 391 392
f 293 392 397
f 389 418 390
f 390 419 391
f 391 438 392
f 392 438 397
f 314 393 442
f 393 399 442
f 294 397 398
f 295 399 393
f 295 398 399
f 397 452 398
f 398 453 399
f 417 421 418
f 421 424 422
f 418 422 419
f 418 421 422
f 419 423 438
f 419 422 423
f 422 426 423
f 422 424 426
f 424 425 426
f 423 426 446
f 389 417 418
f 390 418 419
f 391 419 438
f 438 452 397
f 423 452 438
f 377 442 454
f 399 454 442
f 408 374 443
f 408 443 410
f 410 443 444
f 375 445 443
f 443 445 444
f 444 445 448
f 410 444 425
f 425 444 447
f 426 425 447
f 423 446 452
f 426 447 446
f 444 448 447
f 446 447 450
f 447 448 450
f 446 450 453
f 379 449 445
f 445 449 448
f 448 449 451
f 378 454 451
f 448 451 450
f 450 451 454
f 398 452 453
f 399 453 454
f 446 453 452
f 453 450 454
f 299 310 218
f 218 310 228
f 134 13 106
f 13 134 49
f 25 38 310
f 310 299 25
f 13 18 26
f 13 26 106
f 26 27 106
f 18 52 26
f 26 120 27
f 18 51 52
f 26 52 120
f 51 57 52
f 51 54 57
f 52 135 120
f 52 57 135
f 27 108 106
f 27 121 108
f 27 120 121
f 120 137 121
f 120 135 137
f 437 302 385
f 338 302 437
f 302 305 380
f 305 323 380
f 305 322 323
f 322 333 337
f 322 337 323
f 323 337 403
f 302 380 385
f 380 381 385
f 380 400 381
f 381 387 385
f 381 401 387
f 323 400 380
f 381 400 401
f 323 403 400
f 400 403 405
f 400 405 401
f 29 31 25
f 29 25 110
f 28 110 25
f 30 25 31
f 30 53 39
f 30 31 126
f 29 130 31
f 30 126 53
f 30 38 25
f 30 39 38
f 39 40 38
f 40 42 38
f 39 93 40
f 53 93 39
f 40 93 94
f 40 94 42
f 42 94 96
f 31 131 126
f 28 25 114
f 114 25 116
f 28 125 110
f 29 110 128
f 28 123 125
f 28 114 168
f 28 168 123
f 301 25 299
f 116 25 301
f 114 116 316
f 114 316 168
f 42 310 38
f 42 117 310
f 42 96 117
f 96 173 117
f 117 173 119
f 117 119 310
f 119 173 312
f 173 178 312
f 29 128 127
f 110 129 128
f 110 125 129
f 29 127 130
f 31 130 131
f 123 161 125
f 53 126 141
f 126 131 148
f 53 141 140
f 125 165 129
f 123 172 158
f 123 158 161
f 127 150 130
f 130 152 131
f 126 148 141
f 131 153 148
f 127 128 151
f 128 129 166
f 127 149 150
f 130 150 152
f 131 152 153
f 127 151 149
f 128 166 151
f 125 161 165
f 129 165 167
f 129 167 166
f 123 168 172
f 168 320 172
f 53 140 93
f 140 174 93
f 93 174 94
f 94 174 175
f 94 175 96
f 96 175 176
f 96 176 173
f 176 179 178
f 173 176 178
f 178 179 372
f 219 299 218
f 219 220 299
f 220 221 299
f 219 218 226
f 219 224 220
f 220 225 221
f 220 224 225
f 219 226 233
f 219 233 224
f 224 284 225
f 224 233 290
f 229 218 228
f 226 218 227
f 227 218 229
f 231 228 310
f 229 228 230
f 230 228 231
f 226 234 233
f 226 227 234
f 233 234 291
f 227 235 234
f 227 229 235
f 229 230 235
f 230 231 236
f 230 236 235
f 234 235 292
f 235 236 292
f 224 290 284
f 233 291 290
f 234 292 291
f 221 301 299
f 221 307 301
f 116 301 325
f 116 325 316
f 301 307 325
f 221 225 307
f 225 284 382
f 225 382 307
f 307 327 325
f 307 382 327
f 309 328 382
f 309 383 331
f 327 382 328
f 119 231 310
f 119 312 231
f 231 312 236
f 236 312 313
f 178 313 312
f 178 372 313
f 236 313 292
f 292 313 396
f 313 372 396
f 372 441 396
f 168 316 320
f 316 344 320
f 316 325 344
f 325 327 344
f 327 347 344
f 309 330 328
f 309 331 330
f 331 383 332
f 327 328 347
f 328 330 352
f 329 402 356
f 332 329 360
f 355 356 402
f 328 352 347
f 330 353 352
f 330 354 353
f 330 331 354
f 331 332 363
f 329 356 360
f 332 360 364
f 355 357 356
f 331 363 354
f 332 364 363
f 356 361 360
f 357 362 361
f 360 361 365
f 360 365 364
f 365 361 366
f 361 362 366
f 362 367 366
f 356 357 361
f 179 373 372
f 402 439 374
f 375 439 440
f 355 402 374
f 374 439 375
f 372 373 441
f 373 379 441
f 379 440 441
f 375 440 379
f 284 290 394
f 284 309 382
f 284 383 309
f 284 384 383
f 284 394 384
f 329 383 384
f 384 439 402
f 329 384 402
f 290 291 395
f 290 395 394
f 291 292 396
f 291 396 395
f 384 394 439
f 394 395 440
f 394 440 439
f 395 396 441
f 395 441 440
f 332 383 329
