# MAAS exact compiled indexed mesh
# program_hash 418d78787e4642f7f691f0d18bd249573009ef02652926f80f8b8e3e70992074
# geometry_hash 35eafeb896b1756573808bb3f7ee15b5e23b8fb60888ad2e21edd96bc4624de7
v -17.48281604 -11.76944076 0
v -17.48281604 -11.76944076 4.11428571
v -8.884185 -14.9942036 3.82040816
v -10.31994192 -11.76944076 3.82040816
v -10.31994192 -11.76944076 4.11428571
v -1.64124909 -11.76944076 3.82040816
v -1.64124909 -11.76944076 4.11428571
v -8.884185 -14.9942036 7.93469388
v -11.75811482 -8.53925153 7.64081633
v -11.75811482 -8.53925153 7.93469388
v -12.41204327 -12.55864109 11.16734694
v -12.41204327 -12.55864109 14.4
v -13.03525142 -8.1242847 11.16734694
v -13.03525142 -8.1242847 11.46122449
v -17.54002413 -6.66059532 7.64081633
v -15.45356503 -0.23913448 7.64081633
v -15.45356503 -0.23913448 7.93469388
v -17.54002413 -6.66059532 11.46122449
v -1.71523446 -11.80238117 7.64081633
v -1.71523446 -11.80238117 7.93469388
v -3.32026532 -11.28087503 11.16734694
v -3.32026532 -11.28087503 11.46122449
v -16.99785081 3.22938818 4.11428571
v -17.48281604 10.17358439 0
v -17.48281604 10.17358439 4.11428571
v -1.40093076 10.17358439 3.82040816
v -1.40093076 10.17358439 4.11428571
v -15.56003456 0 7.93469388
v -15.37586552 0 7.93469388
v -16.99785081 3.22938818 7.2
v -16.99785081 3.22938818 7.93469388
v -15.09691574 0.85851916 9.83917801
v -14.91824682 1.40840557 9.70242245
v -14.73849822 2.37607544 10.63997412
v -14.60383181 2.37607544 10.63997412
v -14.73849822 2.77503953 10.63997412
v -14.47420052 2.77503953 10.63997412
v -13.87477898 4.61986934 7.64081633
v -13.87477898 4.61986934 7.93469388
v -15.37586552 0 11.46122449
v -14.17704517 0 11.46122449
v -14.60383181 2.37607544 11.01304295
v -14.56705154 2.77503953 11.16734694
v -14.47420052 2.77503953 11.16734694
v -14.60383181 2.37607544 11.46122449
v -14.5109808 2.37607544 11.46122449
v -14.73849822 2.37607544 11.69471975
v -14.73849822 2.77503953 11.69471975
v -14.56705154 2.77503953 11.69471975
v -14.5109808 2.37607544 11.69471975
v -14.17704517 0 14.4
v -14.91067142 5.22002202 11.16734694
v -13.62087989 5.4012904 11.16734694
v -13.62087989 5.4012904 11.46122449
v -14.91067142 5.22002202 14.4
v -11.06747317 13.25986823 7.64081633
v -11.06747317 13.25986823 11.46122449
v -5.94904681 4.36117159 9.23951808
v -5.13340038 5.40704359 12.3916896
v -5.13340038 6.59412785 12.06195165
v -5.13340038 6.59412785 12.5615546
v -5.94904681 11.59679069 8.25413521
v -1.47178227 10.14203926 7.64081633
v -1.47178227 10.14203926 7.93469388
v -5.13340038 8.756796 11.46122449
v -5.13340038 10.7114601 10.91827489
v -5.94904681 11.59679069 11.15232012
v -5.13340038 11.3317711 11.08225977
v -5.13340038 11.3317711 11.46122449
v -3.2242794 10.7114601 10.91827489
v 14.43431145 -11.76944076 0
v 14.43431145 -11.76944076 4.11428571
v 14.43431145 -4.61214008 3.82040816
v 14.43431145 -4.61214008 4.11428571
v 17.54002306 -3.22938818 3.82040816
v -5.3e-07 -12.35969446 7.64081633
v 1.0921205 -12.71454609 8.43916537
v -5.3e-07 -12.35969446 9.09509067
v -5.3e-07 -11.03870982 7.2
v -5.3e-07 -11.03870982 7.64081633
v 5.22621992 -14.05779642 7.64081633
v 7.25700494 -7.80768282 7.64081633
v 7.25700494 -7.80768282 7.93469388
v -5.3e-07 -12.35969446 11.46122449
v -5.3e-07 -10.81424224 11.46122449
v 2.74229735 -10.42883741 12.56301427
v -5.3e-07 -10.81424224 14.4
v 5.22621992 -14.05779642 11.46122449
v 6.58061498 -9.88939705 11.16734694
v 6.58061498 -9.88939705 11.46122449
v 14.2559514 -8.81069886 11.16734694
v 14.2559514 -8.81069886 14.4
v 17.54002306 -3.22938818 7.2
v 17.54002306 -3.22938818 7.93469388
v 14.43431145 3.74615432 3.82040816
v 14.43431145 3.74615432 4.11428571
v 14.43431145 10.17358439 0
v 11.57263521 10.17358439 3.82040816
v 11.57263521 10.17358439 4.11428571
v 9.42635726 14.9942036 3.82040816
v 14.43431145 10.17358439 4.11428571
v -5.3e-07 0 14.4
v 7.06404194 13.94243305 7.93469388
v 2.7915581 8.756796 11.46122449
v 5.04499916 8.02460862 11.16734694
v 5.04499916 8.02460862 11.46122449
v 11.69877089 5.86266713 7.93469388
v 11.21090542 4.36117159 9.23951808
v 11.69877089 5.86266713 9.03503689
v 11.69877089 5.86266713 9.63645215
v 12.257778 5.40704359 12.3916896
v 11.69877089 5.86266713 11.16734694
v 9.42635726 14.9942036 7.2
v 9.42635726 14.9942036 7.79145849
v 9.89463568 13.94243305 7.93469388
v 11.75732324 8.96796425 11.16734694
v 11.75732324 8.96796425 11.40256801
v 11.75732324 8.96796425 12.90123709
v 11.75732324 8.96796425 14.4
f 2 4 5
f 1 2 25
f 2 5 23
f 1 71 2
f 2 71 4
f 1 24 71
f 1 25 24
f 2 23 25
f 24 25 26
f 23 27 25
f 24 26 98
f 25 27 26
f 4 71 6
f 6 72 7
f 6 71 72
f 7 72 74
f 71 97 72
f 72 97 73
f 72 73 74
f 24 97 71
f 24 101 97
f 24 98 101
f 73 97 95
f 95 101 96
f 95 97 101
f 98 99 101
f 96 101 99
f 3 5 4
f 3 8 9
f 3 31 5
f 3 9 16
f 3 16 31
f 5 30 23
f 5 31 30
f 3 4 6
f 3 7 8
f 3 6 7
f 8 10 9
f 16 17 28
f 17 29 28
f 8 20 10
f 8 79 19
f 8 19 20
f 19 79 80
f 23 30 113
f 23 113 27
f 16 28 31
f 7 74 8
f 8 75 79
f 8 74 75
f 75 93 79
f 73 75 74
f 73 95 75
f 75 96 93
f 93 96 94
f 26 27 100
f 26 100 98
f 27 113 100
f 94 99 100
f 94 96 99
f 75 95 96
f 94 100 113
f 98 100 99
f 9 10 15
f 10 20 18
f 13 18 78
f 13 14 18
f 9 15 16
f 10 18 15
f 15 18 40
f 15 17 16
f 15 40 17
f 17 40 29
f 14 40 18
f 14 41 40
f 18 20 78
f 13 78 21
f 19 80 76
f 19 78 20
f 19 76 78
f 21 78 77
f 21 84 22
f 22 84 85
f 21 77 81
f 21 81 88
f 21 88 84
f 11 22 12
f 11 14 13
f 11 13 21
f 11 12 51
f 11 51 14
f 14 51 41
f 12 102 51
f 11 21 22
f 12 22 87
f 22 85 87
f 12 87 102
f 86 90 91
f 86 91 87
f 86 87 90
f 28 29 31
f 29 39 31
f 30 31 38
f 31 39 38
f 30 38 63
f 30 63 113
f 79 82 80
f 79 93 82
f 82 94 83
f 83 94 107
f 82 93 94
f 63 64 103
f 64 107 103
f 63 103 114
f 63 114 113
f 94 115 107
f 94 113 115
f 103 107 115
f 113 114 115
f 29 35 37
f 29 40 35
f 29 37 53
f 29 57 39
f 29 53 57
f 40 41 45
f 35 40 42
f 45 42 40
f 41 46 45
f 38 39 56
f 38 56 63
f 39 57 56
f 56 57 62
f 53 54 57
f 54 65 57
f 54 106 65
f 56 64 63
f 56 62 64
f 57 67 62
f 57 65 69
f 57 69 67
f 67 69 68
f 76 80 81
f 76 81 77
f 76 77 78
f 80 82 81
f 81 83 88
f 81 82 83
f 83 89 88
f 84 88 85
f 85 88 90
f 88 89 90
f 83 107 89
f 64 109 107
f 70 112 110
f 62 109 64
f 65 106 104
f 70 104 105
f 104 106 105
f 70 105 112
f 89 109 108
f 89 107 109
f 89 108 110
f 89 110 112
f 41 51 46
f 46 51 50
f 49 50 51
f 43 52 44
f 43 49 52
f 49 51 55
f 44 52 53
f 52 54 53
f 49 55 52
f 52 55 54
f 51 102 55
f 54 55 61
f 54 61 60
f 54 60 106
f 55 119 61
f 55 102 119
f 85 90 87
f 87 119 102
f 87 92 119
f 89 91 90
f 87 91 92
f 89 112 91
f 91 116 92
f 60 117 106
f 105 106 116
f 61 119 118
f 91 112 116
f 92 116 111
f 92 111 118
f 92 118 119
f 105 116 112
f 106 117 116
f 111 116 117
f 32 42 35
f 32 53 33
f 32 35 37
f 32 37 53
f 37 44 53
f 32 33 35
f 32 35 42
f 33 37 35
f 33 53 37
f 59 60 61
f 65 70 66
f 65 66 69
f 66 68 69
f 65 104 70
f 59 61 111
f 59 117 60
f 59 111 117
f 61 118 111
f 58 109 62
f 58 62 67
f 58 67 66
f 58 66 70
f 66 67 68
f 58 70 108
f 58 108 109
f 70 110 108
f 103 115 114
f 34 37 35
f 34 36 37
f 34 35 47
f 36 43 37
f 34 48 36
f 43 44 37
f 47 35 42
f 36 49 43
f 34 47 48
f 45 47 42
f 36 48 49
f 45 46 47
f 47 50 48
f 46 50 47
f 48 50 49
