# MAAS exact compiled indexed mesh
# program_hash 47663d3358c02f16e8addb2482d41405c2c041ee91cf0b7633ee3e202c771da7
# geometry_hash 6c9901d4139e31b2c803316096da958e5e252d87535b3b8e42e1c32f63036e87
v -13.34559386 -12.73897596 0
v -15.16544757 -10.31250435 3.56923077
v -13.34559386 -10.31250435 3.56923077
v -13.34559386 -12.73897596 3.69230769
v -13.34559386 -10.31250435 3.69230769
v -3.63970742 -12.73897596 0
v -3.63970742 -12.73897596 3.69230769
v -3.63970742 -10.31250435 3.69230769
v -15.16544757 -10.31250435 7.26153846
v -12.73897596 -9.70588644 7.26153846
v -12.73897596 -9.70588644 10.83076923
v -12.13235806 -7.27941483 10.83076923
v -12.13235806 -7.27941483 14.4
v -12.13235806 -0.6066179 10.83076923
v -12.13235806 -0.6066179 14.4
v -4.85294322 -9.70588644 7.26153846
v -3.63970742 -10.31250435 7.26153846
v -4.85294322 -9.70588644 10.83076923
v -6.06617903 -7.27941483 10.83076923
v -6.06617903 -7.27941483 14.4
v -6.06617903 -0.6066179 10.83076923
v -6.06617903 -0.6066179 14.4
v -15.16544757 1.21323581 3.56923077
v -13.34559386 1.21323581 3.56923077
v -13.34559386 1.21323581 3.69230769
v -13.34559386 11.52574015 0
v -13.34559386 11.52574015 3.69230769
v -3.63970742 4.85294322 0
v -3.63970742 4.85294322 3.56923077
v -6.67279693 3.03308951 7.13846154
v -6.67279693 4.85294322 3.69230769
v -6.67279693 4.85294322 7.13846154
v -6.67279693 5.08303967 7.13846154
v -3.63970742 1.21323581 3.69230769
v -3.63970742 4.85294322 3.69230769
v -6.06617903 11.52574015 0
v -6.06617903 12.73897596 0
v -6.67279693 11.52574015 3.56923077
v -6.67279693 12.73897596 3.56923077
v -6.06617903 11.52574015 3.56923077
v -6.06617903 12.73897596 3.56923077
v -6.67279693 11.52574015 3.69230769
v -6.67279693 10.91912225 7.13846154
v -15.16544757 1.21323581 7.26153846
v -12.73897596 1.21323581 7.26153846
v -12.73897596 1.21323581 10.83076923
v -4.85294322 1.21323581 7.26153846
v -6.67279693 4.85294322 7.26153846
v -3.63970742 1.21323581 7.26153846
v -6.67279693 3.03308951 10.83076923
v -4.85294322 1.21323581 10.83076923
v -6.67279693 10.91912225 7.26153846
v -6.67279693 12.73897596 7.26153846
v -6.67279693 10.91912225 10.83076923
v 3.63970742 -11.52574015 0
v 3.63970742 -11.52574015 3.69230769
v 3.63970742 -3.03308951 3.69230769
v 13.34559386 -11.52574015 0
v 13.34559386 -11.52574015 3.69230769
v 13.34559386 -3.03308951 3.56923077
v 15.16544757 -3.03308951 3.56923077
v 13.34559386 -3.03308951 3.69230769
v 3.63970742 -3.03308951 7.26153846
v 4.24632532 -0 7.26153846
v 4.24632532 -0 10.83076923
v 12.73897596 -0 7.26153846
v 15.16544757 -3.03308951 7.26153846
v 12.73897596 -0 10.83076923
v 3.63970742 4.85294322 0
v 3.63970742 4.85294322 3.56923077
v 6.06617903 5.76287008 0
v 3.63970742 3.03308951 7.13846154
v 3.63970742 4.85294322 3.69230769
v 3.63970742 4.85294322 7.13846154
v 3.63970742 6.43014977 0
v 6.06617903 11.52574015 0
v 6.06617903 12.73897596 0
v 6.06617903 11.52574015 3.56923077
v 6.06617903 11.56618135 3.56923077
v 6.06617903 12.73897596 3.56923077
v 6.06617903 10.91912225 3.69230769
v 6.06617903 11.52574015 3.69230769
v 6.06617903 12.73897596 3.69230769
v 6.06617903 10.91912225 7.13846154
v 6.67279693 10.91912225 7.13846154
v 13.34559386 11.52574015 0
v 13.34559386 10.91912225 3.56923077
v 15.16544757 10.91912225 3.56923077
v 13.34559386 10.91912225 3.69230769
v 13.34559386 11.52574015 3.69230769
v 3.63970742 3.03308951 7.26153846
v 4.24632532 3.03308951 7.26153846
v 4.24632532 3.03308951 10.83076923
v 4.24632532 4.46691365 10.83076923
v 6.06617903 10.91912225 7.26153846
v 6.67279693 9.70588644 7.26153846
v 6.67279693 10.91912225 7.26153846
v 6.06617903 12.73897596 7.26153846
v 6.67279693 6.93277603 10.83076923
v 6.67279693 9.70588644 10.83076923
v 6.67279693 10.91912225 10.83076923
v 12.73897596 9.70588644 7.26153846
v 15.16544757 10.91912225 7.26153846
v 12.73897596 9.70588644 10.83076923
f 1 4 3
f 1 3 24
f 1 6 4
f 4 5 3
f 4 7 5
f 1 26 6
f 4 6 7
f 6 8 7
f 6 34 8
f 5 7 8
f 6 28 29
f 6 35 34
f 6 29 35
f 1 24 27
f 1 27 26
f 24 25 27
f 25 34 27
f 27 34 31
f 26 36 28
f 26 27 36
f 27 38 36
f 27 31 42
f 27 42 38
f 6 26 28
f 31 34 35
f 36 38 40
f 55 58 56
f 56 59 57
f 55 56 69
f 56 70 69
f 55 69 58
f 56 57 70
f 56 58 59
f 58 69 71
f 58 86 59
f 59 86 60
f 57 59 62
f 59 60 62
f 69 75 71
f 57 73 70
f 58 71 86
f 71 76 86
f 76 78 86
f 78 82 86
f 82 90 86
f 60 86 87
f 86 90 87
f 81 89 82
f 82 89 90
f 87 90 89
f 28 69 29
f 36 41 37
f 36 40 41
f 28 36 75
f 36 37 75
f 37 41 80
f 28 75 69
f 29 69 70
f 37 76 75
f 37 77 76
f 37 80 77
f 71 75 76
f 76 77 79
f 76 79 78
f 77 80 79
f 82 79 83
f 79 80 83
f 2 24 3
f 2 3 5
f 2 5 9
f 2 9 44
f 5 17 9
f 2 23 24
f 2 44 23
f 5 8 17
f 8 49 17
f 8 34 49
f 9 17 10
f 9 10 45
f 9 45 44
f 10 17 16
f 16 17 49
f 16 49 47
f 23 25 24
f 23 44 45
f 23 49 25
f 23 45 47
f 23 47 49
f 25 49 34
f 31 35 32
f 32 48 33
f 35 73 32
f 29 70 35
f 38 41 40
f 38 39 41
f 31 32 42
f 42 32 33
f 42 33 43
f 38 42 39
f 42 53 39
f 42 43 53
f 39 83 41
f 39 53 98
f 43 52 53
f 52 95 53
f 35 70 73
f 32 73 74
f 39 98 83
f 41 83 80
f 78 79 82
f 81 82 98
f 82 83 98
f 81 98 84
f 53 95 98
f 84 98 95
f 30 48 32
f 30 32 72
f 33 52 43
f 30 54 48
f 30 50 54
f 30 91 50
f 50 94 54
f 48 54 33
f 33 54 52
f 52 54 95
f 30 72 91
f 32 74 72
f 84 97 85
f 50 91 93
f 91 92 93
f 50 93 94
f 54 101 95
f 84 95 97
f 95 101 97
f 96 97 101
f 96 101 100
f 54 94 99
f 54 99 100
f 54 100 101
f 57 63 73
f 57 62 63
f 62 61 63
f 61 67 63
f 60 61 62
f 63 67 64
f 64 67 66
f 63 72 73
f 73 72 74
f 81 84 85
f 60 88 61
f 60 87 88
f 61 88 67
f 67 88 103
f 81 85 103
f 81 103 89
f 87 89 88
f 89 103 88
f 63 91 72
f 63 64 92
f 63 92 91
f 66 67 103
f 96 102 97
f 85 97 103
f 66 103 102
f 97 102 103
f 10 18 11
f 11 18 12
f 18 19 12
f 10 11 45
f 11 46 45
f 11 12 46
f 46 12 14
f 10 16 18
f 16 51 18
f 16 47 51
f 18 51 19
f 51 21 19
f 45 46 47
f 46 14 21
f 46 21 51
f 46 51 47
f 64 68 65
f 64 66 68
f 64 65 92
f 65 93 92
f 65 68 93
f 68 94 93
f 66 104 68
f 68 99 94
f 68 104 99
f 96 104 102
f 96 100 104
f 66 102 104
f 99 104 100
f 20 12 19
f 13 12 20
f 13 14 12
f 13 15 14
f 13 20 15
f 15 21 14
f 15 20 22
f 15 22 21
f 20 19 22
f 22 19 21
