# MAAS exact compiled indexed mesh
# program_hash 50caf4198a3e6788a33d80c73a6b813fd1dcc5c82a435bbd79d075995dec27a5
# geometry_hash 2c8d39745a974cc092578e30b12b570f14b523b87fe6eb0cd6bebff53382efaf
v -25.16417822 -18.65010195 0
v -25.16417822 -16.1714998 0
v -25.16417822 -18.65010195 3.54982897
v -25.16417822 -16.1714998 3.54982897
v -25.16417822 -13.69289765 0
v -25.16417822 -11.2142955 0
v -25.16417822 -13.69289765 3.54982897
v -25.16417822 -11.2142955 3.54982897
v -15.36970199 -17.53416234 0
v -25.16417822 -18.65010195 7.09965794
v -25.16417822 -16.1714998 7.09965794
v -25.16417822 -13.69289765 7.09965794
v -25.16417822 -11.2142955 7.09965794
v -15.36970199 -17.53416234 6.65592932
v -12.67237625 -17.22684089 6.65592932
v -12.67237625 -17.22684089 7.09965794
v -25.16417822 -8.73569335 0
v -25.16417822 -6.2570912 0
v -25.16417822 -8.73569335 3.54982897
v -25.16417822 -6.2570912 3.54982897
v -15.46019708 -5.15146221 0
v -15.36970199 -5.11941622 0
v -15.46019708 -5.15146221 3.54982897
v -25.16417822 -8.73569335 7.09965794
v -25.16417822 -6.2570912 7.09965794
v -15.36970199 -5.11941622 6.65592932
v -15.46019708 -5.15146221 7.09965794
v -8.5735348 -15.77536501 0
v -0.82090242 -13.0300139 0
v -1.90745009 -10.80226104 0
v -0.82090242 -13.0300139 3.54982897
v -8.5735348 -15.77536501 6.65592932
v -0.82090242 -13.0300139 7.09965794
v -8.5735348 -2.7127672 0
v -4.08054542 -6.34675533 0
v -2.99399775 -8.57450819 0
v -5.16709309 -4.11900248 0
v -6.25364075 -1.89124963 0
v -6.25364075 -1.89124963 3.54982897
v -8.5735348 -2.7127672 6.65592932
v -6.25364075 -1.89124963 7.09965794
v -25.16417822 -18.65010195 10.64948691
v -25.16417822 -16.1714998 10.64948691
v -25.16417822 -13.69289765 10.64948691
v -25.16417822 -11.2142955 10.64948691
v -12.67237625 -17.22684089 10.64948691
v -25.16417822 -18.65010195 14.19931589
v -25.16417822 -16.1714998 14.19931589
v -25.16417822 -18.65010195 17.74914486
v -25.16417822 -16.1714998 17.74914486
v -25.16417822 -13.69289765 14.19931589
v -25.16417822 -11.2142955 14.19931589
v -25.16417822 -13.69289765 17.74914486
v -25.16417822 -11.2142955 17.74914486
v -12.67237625 -17.22684089 14.19931589
v -12.67237625 -17.22684089 17.74914486
v -13.22994041 -14.81176516 17.74914486
v -13.78750458 -12.39668942 17.74914486
v -14.34506875 -9.98161368 17.74914486
v -25.16417822 -8.73569335 10.64948691
v -25.16417822 -6.2570912 10.64948691
v -15.46019708 -5.15146221 10.64948691
v -25.16417822 -8.73569335 14.19931589
v -25.16417822 -6.2570912 14.19931589
v -25.16417822 -8.73569335 17.74914486
v -25.16417822 -6.2570912 17.74914486
v -15.46019708 -5.15146221 14.19931589
v -14.90263291 -7.56653795 17.74914486
v -15.46019708 -5.15146221 17.74914486
v -0.82090242 -13.0300139 10.64948691
v -0.82090242 -13.0300139 14.19931589
v -0.82090242 -13.0300139 17.74914486
v -1.90745009 -10.80226104 17.74914486
v -6.25364075 -1.89124963 10.64948691
v -4.08054542 -6.34675533 17.74914486
v -2.99399775 -8.57450819 17.74914486
v -6.25364075 -1.89124963 14.19931589
v -5.16709309 -4.11900248 17.74914486
v -6.25364075 -1.89124963 17.74914486
v 5.10323362 -0.49604283 0
v 9.78273824 -6.27474978 0
v 9.78273824 -6.27474978 3.54982897
v 6.66306849 -2.42227848 0
v 8.22290337 -4.34851413 0
v 9.78273824 -6.27474978 7.09965794
v 9.78273824 -6.27474978 10.64948691
v 5.10323362 -0.49604283 17.74914486
v 9.78273824 -6.27474978 14.19931589
v 9.78273824 -6.27474978 17.74914486
v 6.66306849 -2.42227848 17.74914486
v 8.22290337 -4.34851413 17.74914486
v 1.98356387 3.35642847 0
v 3.54339875 1.43019282 0
v 1.98356387 3.35642847 3.54982897
v 10.7823439 8.79659693 0
v 1.98356387 3.35642847 7.09965794
v 8.82917876 10.32257679 0
v 8.82917876 10.32257679 3.54982897
v 8.82917876 10.32257679 7.09965794
v 16.64183935 4.21865737 0
v 18.59500449 2.69267751 0
v 18.59500449 2.69267751 3.54982897
v 14.6886742 5.74463722 0
v 12.73550905 7.27061708 0
v 18.59500449 2.69267751 7.09965794
v 13.93229857 18.65011146 0
v 16.178675 17.60260893 0
v 18.42505142 16.5551064 0
v 13.93229857 18.65011146 3.54982897
v 16.178675 17.60260893 3.54982897
v 18.42505142 16.5551064 3.54982897
v 25.16418071 13.4125988 0
v 25.16418071 13.4125988 3.54982897
v 20.67142785 15.50760386 0
v 22.91780428 14.46010133 0
v 20.67142785 15.50760386 3.54982897
v 22.91780428 14.46010133 3.54982897
v 13.93229857 18.65011146 7.09965794
v 16.178675 17.60260893 7.09965794
v 18.42505142 16.5551064 7.09965794
v 25.16418071 13.4125988 7.09965794
v 20.67142785 15.50760386 7.09965794
v 22.91780428 14.46010133 7.09965794
v 1.98356387 3.35642847 10.64948691
v 1.98356387 3.35642847 14.19931589
v 1.98356387 3.35642847 17.74914486
v 3.54339875 1.43019282 17.74914486
v 10.7823439 8.79659693 17.74914486
v 8.82917876 10.32257679 10.64948691
v 8.82917876 10.32257679 14.19931589
v 8.82917876 10.32257679 17.74914486
v 18.59500449 2.69267751 10.64948691
v 18.59500449 2.69267751 14.19931589
v 16.64183935 4.21865737 17.74914486
v 18.59500449 2.69267751 17.74914486
v 14.6886742 5.74463722 17.74914486
v 12.73550905 7.27061708 17.74914486
v 13.93229857 18.65011146 10.64948691
v 16.178675 17.60260893 10.64948691
v 18.42505142 16.5551064 10.64948691
v 25.16418071 13.4125988 10.64948691
v 20.67142785 15.50760386 10.64948691
v 22.91780428 14.46010133 10.64948691
v 13.93229857 18.65011146 14.19931589
v 16.178675 17.60260893 14.19931589
v 18.42505142 16.5551064 14.19931589
v 13.93229857 18.65011146 17.74914486
v 16.178675 17.60260893 17.74914486
v 18.42505142 16.5551064 17.74914486
v 25.16418071 13.4125988 14.19931589
v 25.16418071 13.4125988 17.74914486
v 20.67142785 15.50760386 14.19931589
v 22.91780428 14.46010133 14.19931589
v 20.67142785 15.50760386 17.74914486
v 22.91780428 14.46010133 17.74914486
f 1 4 2
f 2 7 5
f 1 2 9
f 2 5 9
f 5 6 9
f 1 3 4
f 2 4 7
f 1 14 3
f 5 8 6
f 6 19 17
f 6 17 9
f 17 18 9
f 5 7 8
f 6 8 19
f 1 9 14
f 18 21 9
f 3 11 4
f 3 10 11
f 4 12 7
f 4 11 12
f 3 14 10
f 10 43 11
f 11 44 12
f 10 16 42
f 7 13 8
f 7 12 13
f 8 24 19
f 8 13 24
f 12 45 13
f 13 60 24
f 10 14 16
f 16 14 15
f 17 20 18
f 17 19 20
f 18 20 23
f 18 23 21
f 21 22 9
f 21 23 22
f 23 26 22
f 19 25 20
f 19 24 25
f 20 25 27
f 24 61 25
f 20 27 23
f 23 27 26
f 25 62 27
f 27 40 26
f 29 31 28
f 29 28 34
f 31 33 28
f 16 15 32
f 16 32 33
f 16 33 46
f 33 32 28
f 37 34 38
f 38 34 40
f 38 40 39
f 29 34 30
f 30 34 36
f 35 36 34
f 35 83 36
f 35 34 37
f 35 37 80
f 37 38 93
f 38 39 94
f 39 40 41
f 27 41 40
f 27 74 41
f 39 41 96
f 10 42 43
f 11 43 44
f 42 48 43
f 42 47 48
f 43 51 44
f 43 48 51
f 42 46 47
f 12 44 45
f 13 45 60
f 44 52 45
f 44 51 52
f 45 63 60
f 45 52 63
f 16 46 42
f 46 55 47
f 47 50 48
f 48 53 51
f 47 55 49
f 47 49 50
f 48 50 53
f 49 56 50
f 50 57 53
f 51 54 52
f 52 65 63
f 51 53 54
f 52 54 65
f 53 58 54
f 54 59 65
f 49 55 56
f 50 56 57
f 53 57 58
f 54 58 59
f 24 60 61
f 25 61 62
f 60 64 61
f 60 63 64
f 61 64 67
f 61 67 62
f 63 66 64
f 63 65 66
f 65 68 66
f 64 66 69
f 64 69 67
f 59 68 65
f 66 68 69
f 46 70 55
f 33 70 46
f 55 70 71
f 55 71 56
f 56 72 57
f 57 73 58
f 58 76 59
f 56 71 72
f 57 72 73
f 58 73 76
f 27 62 74
f 62 67 77
f 62 77 74
f 41 74 124
f 74 77 125
f 59 75 68
f 68 78 69
f 59 76 75
f 68 75 78
f 67 79 77
f 67 69 79
f 69 78 79
f 75 76 90
f 77 79 126
f 75 87 78
f 78 127 79
f 38 92 93
f 38 94 92
f 39 96 94
f 41 124 96
f 74 125 124
f 77 126 125
f 79 127 126
f 29 30 81
f 29 81 31
f 31 82 33
f 33 85 70
f 30 36 84
f 30 84 81
f 36 83 84
f 31 81 82
f 35 80 83
f 37 93 80
f 81 84 101
f 83 100 84
f 33 82 85
f 81 101 82
f 82 101 102
f 82 102 85
f 85 102 105
f 85 105 86
f 70 86 71
f 71 88 72
f 72 89 73
f 70 85 86
f 71 86 88
f 73 91 76
f 72 88 89
f 73 89 91
f 76 91 90
f 75 90 87
f 78 87 127
f 89 135 91
f 90 91 134
f 86 105 132
f 86 132 88
f 88 132 133
f 88 133 89
f 89 133 135
f 92 95 93
f 92 94 98
f 80 103 83
f 80 93 104
f 80 104 103
f 93 95 104
f 92 97 95
f 92 98 97
f 94 96 99
f 94 99 98
f 96 129 99
f 95 97 107
f 97 98 109
f 97 109 106
f 98 99 118
f 98 118 109
f 99 138 118
f 84 100 101
f 83 103 100
f 100 103 115
f 100 112 101
f 101 112 102
f 102 113 105
f 105 121 132
f 95 108 104
f 103 104 114
f 104 108 114
f 97 106 107
f 95 107 108
f 106 110 107
f 107 111 108
f 106 109 110
f 107 110 111
f 100 115 112
f 103 114 115
f 112 115 113
f 102 112 113
f 108 116 114
f 114 117 115
f 108 111 116
f 114 116 117
f 113 115 117
f 109 119 110
f 109 118 119
f 110 120 111
f 110 119 120
f 118 139 119
f 119 140 120
f 105 113 121
f 113 117 121
f 121 123 141
f 111 122 116
f 111 120 122
f 116 122 123
f 116 123 117
f 117 123 121
f 120 142 122
f 122 143 123
f 96 124 129
f 124 125 130
f 124 130 129
f 126 127 128
f 125 126 131
f 87 90 136
f 87 137 127
f 87 136 137
f 125 131 130
f 127 137 128
f 126 128 131
f 99 129 138
f 129 130 144
f 129 144 138
f 130 131 147
f 128 148 131
f 130 147 144
f 132 141 133
f 91 135 134
f 90 134 136
f 134 155 136
f 133 150 135
f 134 135 151
f 118 138 139
f 119 139 140
f 138 145 139
f 138 144 145
f 139 146 140
f 139 145 146
f 121 141 132
f 133 141 150
f 141 143 150
f 120 140 142
f 122 142 143
f 123 143 141
f 140 152 142
f 140 146 152
f 142 152 153
f 142 153 143
f 143 153 150
f 128 137 149
f 136 154 137
f 137 154 149
f 144 148 145
f 145 149 146
f 131 148 147
f 128 149 148
f 144 147 148
f 145 148 149
f 150 153 151
f 134 151 155
f 136 155 154
f 135 150 151
f 146 154 152
f 152 155 153
f 146 149 154
f 152 154 155
f 151 153 155
f 9 22 14
f 15 14 26
f 14 22 26
f 28 32 40
f 15 26 32
f 34 28 40
f 26 40 32
